<?xml version="1.0" encoding="UTF-8" standalone="no"?>
<svg
   xmlns:dc="http://purl.org/dc/elements/1.1/"
   xmlns:cc="http://creativecommons.org/ns#"
   xmlns:rdf="http://www.w3.org/1999/02/22-rdf-syntax-ns#"
   xmlns:svg="http://www.w3.org/2000/svg"
   xmlns="http://www.w3.org/2000/svg"
   xmlns:xlink="http://www.w3.org/1999/xlink"
   xmlns:sodipodi="http://sodipodi.sourceforge.net/DTD/sodipodi-0.dtd"
   xmlns:inkscape="http://www.inkscape.org/namespaces/inkscape"
   version="1.1"
   id="svg3348"
   viewBox="0 0 18897.638 10733.858"
   height="2840mm"
   width="5000mm"
   sodipodi:docname="grf.svg"
   inkscape:version="0.92.4 5da689c313, 2019-01-14">
  <sodipodi:namedview
     pagecolor="#686c5e"
     bordercolor="#666666"
     borderopacity="1"
     objecttolerance="10"
     gridtolerance="10"
     guidetolerance="10"
     inkscape:pageopacity="1"
     inkscape:pageshadow="2"
     inkscape:window-width="1920"
     inkscape:window-height="999"
     id="namedview18"
     showgrid="false"
     units="mm"
     showborder="true"
     inkscape:zoom="0.04"
     inkscape:cx="10754.174"
     inkscape:cy="5674.6864"
     inkscape:window-x="0"
     inkscape:window-y="0"
     inkscape:window-maximized="1"
     inkscape:current-layer="svg3348" />
  <defs
     id="defs3350">
    <linearGradient
       gradientUnits="userSpaceOnUse"
       y2="-1.39455"
       x2="95.274063"
       y1="114.92466"
       x1="-21.045139"
       id="linear-gradient">
      <stop
         id="stop6"
         stop-color="#c757bc"
         offset="0.10753" />
      <stop
         id="stop8"
         stop-color="#cd5ca9"
         offset="0.17288" />
      <stop
         id="stop10"
         stop-color="#e8744f"
         offset="0.49191" />
      <stop
         id="stop12"
         stop-color="#f88316"
         offset="0.71582" />
      <stop
         id="stop14"
         stop-color="#ff8900"
         offset="0.82323" />
    </linearGradient>
    <linearGradient
       gradientUnits="userSpaceOnUse"
       y2="90.855858"
       x2="96.58931"
       y1="147.55215"
       x1="39.893021"
       id="linear-gradient-2">
      <stop
         id="stop17"
         stop-color="#00afff"
         offset="0.2957" />
      <stop
         id="stop19"
         stop-color="#5282ff"
         offset="0.69363" />
      <stop
         id="stop21"
         stop-color="#945dff"
         offset="1" />
    </linearGradient>
    <linearGradient
       xlink:href="#linear-gradient-2"
       y2="-5.2725201"
       x2="38.27206"
       y1="34.500591"
       x1="-1.50106"
       id="linear-gradient-3" />
  </defs>
  <metadata
     id="metadata3353">
    <rdf:RDF>
      <cc:Work
         rdf:about="">
        <dc:format>image/svg+xml</dc:format>
        <dc:type
           rdf:resource="http://purl.org/dc/dcmitype/StillImage" />
        <dc:title></dc:title>
      </cc:Work>
    </rdf:RDF>
  </metadata>
  <path
     style="opacity:1;fill:#000000;fill-opacity:1;stroke:none;stroke-width:3.92655253;stroke-linecap:round;stroke-miterlimit:4;stroke-dasharray:none;stroke-opacity:1"
     d="M 12753.943,5366.9292 A 3305.1233,3305.1233 0 0 1 9448.8193,8672.0525 3305.1233,3305.1233 0 0 1 6143.696,5366.9292 3305.1233,3305.1233 0 0 1 9448.8193,2061.8059 3305.1233,3305.1233 0 0 1 12753.943,5366.9292 Z"
     id="path21" />
  <path
     inkscape:connector-curvature="0"
     style="opacity:1;fill:#ffffff;fill-opacity:1;fill-rule:nonzero;stroke:none;stroke-width:26.55711937;stroke-miterlimit:4;stroke-dasharray:none;stroke-opacity:1"
     d="m 8695.0942,3316.9447 -313.4923,313.6241 -313.4922,313.6072 v 169.46 c 0,93.1972 3.1786,172.6222 7.0651,176.5083 3.8859,3.886 624.0199,5.8677 1378.0749,4.3969 l 1371.0093,-2.6678 2.915,-173.5769 2.898,-173.5604 -313.755,-313.9042 -313.773,-313.8872 h -753.7245 z m -621.7147,1227.8833 2.9315,79.0479 c 1.6156,43.4765 5.3442,159.6779 8.2833,258.2246 l 5.3525,179.1761 160.221,160.7314 160.2374,160.7314 h 83.725 83.7254 l 86.3768,-84.3179 c 83.8678,-81.8612 87.8708,-84.3184 137.3462,-84.3184 h 50.9699 l 174.993,-173.9061 174.993,-173.9062 h 246.285 246.2848 l 174.993,173.9062 175.0097,173.9061 h 50.953 c 49.475,0 53.479,2.4572 137.346,84.3184 l 86.377,84.3179 h 83.725 83.743 l 160.22,-160.7314 160.22,-160.7314 5.352,-179.1761 c 2.94,-98.5467 6.669,-214.7481 8.284,-258.2246 l 2.932,-79.0479 H 9448.8195 Z m 129.6393,100.1276 H 9448.8195 10694.62 l 35.835,35.8352 c 35.109,35.1095 35.834,37.631 35.834,125.0445 0,73.2614 -3.77,94.0151 -21.078,116.0197 -13.604,17.2945 -21.08,42.7599 -21.08,71.8022 0,41.8517 -5.393,50.4021 -77.171,122.1792 -71.226,71.2272 -80.585,77.1872 -121.19,77.1872 -35.481,0 -51.903,-7.142 -84.829,-36.8894 -32.85,-29.6768 -49.383,-36.8888 -84.582,-36.8888 -36.394,0 -51.443,-7.0897 -89.489,-42.1591 -39.905,-36.7836 -52.085,-42.1593 -95.533,-42.1593 -46.52,0 -54.136,-4.1621 -115.658,-63.2387 -63.6267,-61.0974 -67.7477,-63.2383 -121.8657,-63.2383 h -56.009 l -112.314,-110.6679 -112.2979,-110.6673 H 9448.8195 9244.447 l -112.298,110.6673 -112.3148,110.6679 h -56.0085 c -54.1176,0 -58.2393,2.1409 -121.8663,63.2383 -61.5217,59.0766 -69.1378,63.2387 -115.6577,63.2387 -43.4475,0 -55.628,5.3757 -95.5332,42.1593 -38.0457,35.0694 -53.0945,42.1591 -89.4893,42.1591 -35.1984,0 -51.7323,7.212 -84.5816,36.8888 -32.9264,29.7474 -49.3484,36.8894 -84.8287,36.8894 -40.6057,0 -49.963,-5.96 -121.1907,-77.1872 -71.7767,-71.7771 -77.1706,-80.3275 -77.1706,-122.1792 0,-29.0423 -7.4761,-54.5077 -21.0797,-71.8022 -17.3089,-22.0046 -21.0796,-42.7583 -21.0796,-116.0197 0,-87.4135 0.7258,-89.935 35.8353,-125.0445 z m -164.3384,84.3183 c -4.59,0 -28.3041,20.3331 -52.6989,45.1892 l -44.349,45.189 v 338.0963 c 0,326.0727 0.7683,339.0615 21.8368,365.8456 12.0143,15.2728 26.2432,27.7835 31.6194,27.7835 5.6865,0 9.7821,-89.7775 9.7821,-214.6505 0,-198.6849 1.5674,-216.6375 21.0796,-241.4434 19.096,-24.2765 21.0796,-42.7526 21.0796,-196.4019 0,-93.2851 -3.7595,-169.6078 -8.3496,-169.6078 z m 2820.2776,0 c -4.59,0 -8.35,76.3227 -8.35,169.6078 0,153.6493 1.984,172.1254 21.08,196.4019 19.512,24.8059 21.08,42.7585 21.08,241.4434 0,124.873 4.095,214.6505 9.782,214.6505 5.376,0 19.605,-12.5107 31.618,-27.7835 21.069,-26.7841 21.838,-39.7729 21.838,-365.8456 v -338.0963 l -44.349,-45.189 c -24.395,-24.8561 -48.109,-45.1892 -52.699,-45.1892 z m -1636.9739,189.7159 -184.3311,185.22 c -147.2263,147.9381 -198.1214,192.2932 -252.8393,220.3304 -37.6791,19.307 -87.4801,48.5735 -110.6673,65.0335 -39.6164,28.125 -49.6565,30.1337 -166.5614,33.5137 l -124.4187,3.5876 -104.8214,-102.9909 -104.8373,-102.9934 v 61.7729 61.7891 l 73.778,76.0823 c 40.5783,41.8492 73.7786,81.883 73.7786,88.9664 0,7.0786 -35.2722,49.1017 -78.3734,93.3894 -73.4218,75.4511 -78.5743,83.8045 -81.6829,132.3558 -1.8571,29.0052 -9.0203,53.6888 -16.2708,56.0741 -7.1251,2.3467 -39.1395,-20.4876 -71.1437,-50.7531 -53.4021,-50.5068 -58.1828,-52.9403 -58.1828,-29.546 0,17.8513 25.2688,50.6179 84.3183,109.3188 l 84.3179,83.824 v 91.8585 91.8781 l 58.9901,55.9292 c 100.6975,95.4801 87.3909,97.5515 221.3353,-34.3889 64.3248,-63.3605 123.4264,-115.1953 131.3352,-115.1953 7.9091,0 88.4085,-73.5149 178.8964,-163.3648 l 164.5189,-163.3698 h 56.5691 56.569 l 96.7351,-94.8571 96.7356,-94.8573 h 203.088 203.0881 l 96.7357,94.8573 96.735,94.8571 h 56.569 56.569 l 164.5187,163.3698 c 90.488,89.8499 170.988,163.3648 178.896,163.3648 7.909,0 67.011,51.8348 131.336,115.1953 133.944,131.9404 120.637,129.869 221.334,34.3889 l 58.99,-55.9292 v -91.8781 -91.8585 l 84.318,-83.824 c 59.049,-58.7009 84.319,-91.4675 84.319,-109.3188 0,-23.3943 -4.781,-20.9608 -58.184,29.546 -32.003,30.2655 -64.018,53.0998 -71.143,50.7531 -7.251,-2.3853 -14.414,-27.0689 -16.271,-56.0741 -3.108,-48.5513 -8.261,-56.9047 -81.682,-132.3558 -43.102,-44.2877 -78.373,-86.3108 -78.373,-93.3894 0,-7.0834 33.2,-47.1172 73.778,-88.9664 l 73.778,-76.0823 v -61.7891 -61.7729 l -104.837,102.9934 -104.822,102.9909 -124.419,-3.5876 c -116.904,-3.38 -126.944,-5.3887 -166.561,-33.5137 -23.187,-16.46 -72.988,-45.7265 -110.667,-65.0335 -54.718,-28.0372 -105.613,-72.3923 -252.8387,-220.3304 l -184.331,-185.22 h -226.8358 z m -1320.897,642.9237 c -4.0686,0 -51.4852,47.8849 -105.3646,106.4216 -104.0586,113.0464 -124.1304,157.1456 -28.5726,62.7762 37.8766,-37.4069 62.428,-54.0221 73.5149,-49.768 9.1555,3.5151 16.6493,12.3273 16.6493,19.5991 0,17.4552 -127.266,145.5475 -144.6088,145.5475 -10.6329,0 -13.4876,63.9303 -13.4876,302.756 v 302.7367 l 71.0939,71.6559 71.0938,71.6366 7.6582,-29.5267 c 4.5557,-17.5808 54.049,-75.2532 122.3105,-142.5199 L 8086.0439,6310.24 h 74.7332 c 41.1026,0 77.5901,-4.6451 81.0905,-10.3091 3.5002,-5.6638 -22.3017,-41.1201 -57.3427,-78.7876 l -63.7163,-68.4739 v -106.9431 -106.9624 l -84.3184,-86.3784 -84.3179,-86.3927 v -74.2729 c 0,-59.179 -4.4316,-79.9129 -21.8372,-102.0374 -12.0144,-15.2727 -25.179,-27.769 -29.248,-27.769 z m 3095.4639,0 c -4.069,0 -17.233,12.4963 -29.248,27.769 -17.405,22.1245 -21.837,42.8584 -21.837,102.0374 v 74.2729 l -84.318,86.3927 -84.319,86.3784 v 106.9624 106.9431 l -63.715,68.4739 c -35.041,37.6675 -60.844,73.1238 -57.343,78.7876 3.5,5.664 39.988,10.3091 81.091,10.3091 h 74.733 l 115.097,113.3023 c 75.824,74.6448 117.153,123.4905 121.125,143.1574 l 6.028,29.8453 72.295,-71.7236 72.281,-71.7332 v -303.3015 c 0,-232.0562 -3.032,-303.2968 -12.895,-303.2968 -17.414,0 -145.202,-127.5707 -145.202,-144.9535 0,-7.5954 7.494,-16.678 16.65,-20.1931 11.086,-4.2541 35.638,12.3611 73.514,49.768 95.558,94.3694 75.486,50.2702 -28.572,-62.7762 -53.88,-58.5367 -101.296,-106.4216 -105.365,-106.4216 z m -3115.3413,180.8588 c 6.7687,0.5698 11.2549,5.8087 14.7886,15.0168 4.364,11.3713 -16.6683,39.9564 -65.9231,89.5892 -39.7811,40.0916 -75.4192,72.8921 -79.2126,72.8921 -3.7933,0 -13.0207,-7.3877 -20.503,-16.4026 -11.6418,-14.0318 -3.1328,-26.9531 59.0225,-89.5893 51.0186,-51.4146 76.9369,-72.7568 91.8276,-71.5062 z m 3135.2193,0 c 14.89,-1.2506 40.809,20.0916 91.827,71.5062 62.155,62.6362 70.665,75.5575 59.023,89.5893 -7.483,9.0149 -16.694,16.4026 -20.487,16.4026 -3.793,0 -39.448,-32.8005 -79.229,-72.8921 -49.255,-49.6328 -70.288,-78.2179 -65.923,-89.5892 3.533,-9.2081 8.02,-14.447 14.789,-15.0168 z m -1729.7736,29.9371 -107.1106,105.3979 -107.0937,105.3981 h -87.8592 -87.8586 l -101.9065,100.1299 -101.9228,100.1251 h -60.6859 c -52.403,0 -65.6073,4.3168 -96.7027,31.6223 -28.8951,25.3693 -45.6223,31.6175 -84.6805,31.6175 -43.9584,0 -54.0916,5.1086 -104.4096,52.699 l -55.7125,52.699 h -87.414 -87.4143 l -113.484,113.1236 -113.467,113.1189 v 131.8488 131.8586 l 287.1428,287.2755 c 197.2427,182.8772 92.2889,162.2496 92.2889,-2.2211 v -83.5439 l 108.5925,-108.5944 108.5761,-108.5752 h 215.1104 215.1267 l 45.189,-44.3649 45.1891,-44.3504 v -79.0001 -79.0147 l 124.3201,-124.3211 124.3361,-124.3163 h 194.0143 194.0142 l 124.3366,124.3163 124.32,124.3211 v 79.0147 79.0001 l 45.189,44.3504 45.189,44.3649 h 215.1267 215.11 l 108.592,108.5752 108.577,108.5944 v 83.5439 c -22.58,186.0301 -178.987,271.2351 92.155,2.3708 l 287.276,-287.1452 V 6710.982 6579.3505 l -113.121,-113.4859 -113.121,-113.4664 h -87.76 -87.777 l -55.712,-52.699 c -50.319,-47.5904 -60.452,-52.699 -104.41,-52.699 -39.058,0 -55.785,-6.2482 -84.681,-31.6175 -31.095,-27.3055 -44.3,-31.6223 -96.703,-31.6223 h -60.685 l -101.924,-100.1251 -101.905,-100.1299 h -87.8587 -87.859 l -107.094,-105.3981 -107.1103,-105.3979 h -162.1645 z m -1384.1188,54.3165 c 6.59,0.7388 11.0488,5.9633 14.5412,15.0652 4.3336,11.294 -15.2655,38.5416 -60.6366,84.3213 -36.8675,37.1944 -70.1378,67.6336 -73.9428,67.6336 -3.8054,0 -13.0424,-7.3779 -20.52,-16.3832 -11.6185,-14.0029 -3.8107,-26.2579 53.7367,-84.3213 47.5044,-47.9284 72.3223,-67.9525 86.8215,-66.3156 z m 3092.5654,0 c 14.499,-1.6369 39.317,18.3872 86.821,66.3156 57.548,58.0634 65.356,70.3184 53.737,84.3213 -7.478,9.0053 -16.715,16.3832 -20.52,16.3832 -3.806,0 -37.075,-30.4392 -73.942,-67.6336 -45.372,-45.7797 -64.971,-73.0273 -60.638,-84.3213 3.493,-9.1019 7.951,-14.3264 14.542,-15.0652 z m -3050.6534,63.3025 c 6.7681,0.5699 11.2549,5.8088 14.7884,15.017 4.3641,11.376 -16.6687,39.9563 -65.923,89.5892 -39.7811,40.0915 -75.4198,72.892 -79.2131,72.892 -3.7933,0 -13.0202,-7.3877 -20.5031,-16.4027 -11.6411,-14.027 -3.1323,-26.9531 59.023,-89.5892 51.0181,-51.4145 76.937,-72.7569 91.8278,-71.5063 z m 3008.7404,0 c 14.892,-1.2506 40.811,20.0918 91.829,71.5063 62.155,62.6361 70.664,75.5622 59.022,89.5892 -7.482,9.015 -16.693,16.4027 -20.486,16.4027 -3.794,0 -39.449,-32.8005 -79.229,-72.892 -49.255,-49.6329 -70.287,-78.2132 -65.923,-89.5892 3.533,-9.2082 8.019,-14.4471 14.787,-15.017 z m -2987.4142,84.2537 c 6.5905,0.7437 11.0493,5.9682 14.5417,15.0651 4.3337,11.2941 -15.2654,38.5417 -60.6366,84.3213 -36.8676,37.1993 -70.1378,67.6338 -73.9432,67.6338 -3.8053,0 -13.0424,-7.3781 -20.5195,-16.3833 -11.6189,-14.0029 -3.8111,-26.2578 53.7362,-84.3213 47.5044,-47.9283 72.3227,-67.9525 86.8214,-66.3156 z m 2966.0882,0 c 14.499,-1.6369 39.317,18.3873 86.822,66.3156 57.547,58.0635 65.354,70.3184 53.737,84.3213 -7.478,9.0052 -16.716,16.3833 -20.52,16.3833 -3.806,0 -37.076,-30.4345 -73.944,-67.6338 -45.371,-45.7796 -64.97,-73.0272 -60.636,-84.3213 3.492,-9.0969 7.95,-14.3214 14.541,-15.0651 z m -2924.1761,63.3026 c 6.7686,0.5697 11.2549,5.8087 14.7889,15.0216 4.3636,11.3712 -16.6688,39.9515 -65.9229,89.5844 -39.7816,40.0917 -75.4199,72.892 -79.2132,72.892 -3.7934,0 -13.0207,-7.3876 -20.5031,-16.4026 -11.6416,-14.027 -3.1323,-26.953 59.0225,-89.5892 51.0186,-51.4146 76.9374,-72.7569 91.8278,-71.5062 z m 2882.2651,0 c 14.89,-1.2507 40.809,20.0916 91.827,71.5062 62.155,62.6362 70.665,75.5622 59.023,89.5892 -7.483,9.015 -16.694,16.4026 -20.488,16.4026 -3.792,0 -39.447,-32.8003 -79.229,-72.892 -49.254,-49.6329 -70.287,-78.2132 -65.922,-89.5844 3.533,-9.2129 8.02,-14.4519 14.789,-15.0216 z m -2860.9383,84.2536 c 6.5904,0.7436 11.0487,5.9681 14.5417,15.0699 4.3336,11.2892 -15.2655,38.5368 -60.6367,84.3165 -36.868,37.1992 -70.1378,67.6337 -73.9432,67.6337 -3.8054,0 -13.0425,-7.3732 -20.5195,-16.3833 -11.619,-14.0029 -3.8112,-26.2577 53.7361,-84.3213 47.5044,-47.9283 72.3228,-67.9523 86.8216,-66.3155 z m 2839.6103,0 c 14.499,-1.6368 39.318,18.3872 86.822,66.3155 57.548,58.0636 65.355,70.3184 53.736,84.3213 -7.477,9.0101 -16.714,16.3833 -20.519,16.3833 -3.806,0 -37.076,-30.4345 -73.944,-67.6337 -45.37,-45.7797 -64.969,-73.0273 -60.636,-84.3165 3.493,-9.1018 7.951,-14.3263 14.541,-15.0699 z m -2797.6984,63.3025 c 6.7688,0.5698 11.2549,5.8136 14.789,15.0217 4.3635,11.3713 -16.6688,39.9516 -65.9235,89.5844 -39.7812,40.0916 -75.4193,72.8921 -79.2127,72.8921 -3.7933,0 -13.0207,-7.3878 -20.503,-16.4028 -11.6417,-14.0269 -3.1327,-26.9529 59.0225,-89.5892 51.0186,-51.4097 76.9369,-72.7567 91.8277,-71.5062 z m 2755.7864,0 c 14.891,-1.2505 40.809,20.0965 91.829,71.5062 62.154,62.6363 70.663,75.5623 59.022,89.5892 -7.482,9.015 -16.693,16.4028 -20.487,16.4028 -3.793,0 -39.448,-32.8005 -79.229,-72.8921 -49.254,-49.6328 -70.287,-78.2131 -65.923,-89.5844 3.533,-9.2081 8.02,-14.4519 14.788,-15.0217 z m -1530.3734,209.1156 -113.4834,113.1237 -113.4674,113.1188 v 76.5618 c 0,73.3459 -1.6253,78.3531 -38.6019,119.2801 l -38.6021,42.7375 51.7768,52.6507 51.7766,52.6459 5.27,-89.5361 c 4.914,-83.5004 7.5819,-91.9213 39.5243,-124.8329 18.8395,-19.4108 34.2538,-41.2794 34.2538,-48.5948 0,-7.32 23.7145,-38.3919 52.6989,-69.0388 41.0216,-43.375 52.699,-63.3073 52.699,-89.9996 0,-24.9396 9.7677,-44.051 35.8353,-70.1204 35.5604,-35.5625 36.5793,-35.8377 132.801,-35.8377 96.2217,0 97.241,0.2897 132.801,35.8377 26.0676,26.0694 35.8352,45.1808 35.8352,70.1204 0,26.6923 11.6774,46.6246 52.6986,89.9996 28.985,30.6469 52.699,61.3712 52.699,68.2615 0,6.8903 16.6,30.9028 36.889,53.3604 35.868,39.7005 36.889,43.2351 36.889,127.6287 v 86.7887 l 54.528,-54.5241 54.543,-54.5435 -38.734,-42.8535 c -37.084,-41.0477 -38.717,-46.0984 -38.717,-119.0822 v -76.1996 l -113.121,-113.4858 -113.1217,-113.4665 h -152.8434 z m -788.4899,514.6239 -77.5826,77.0542 -77.5825,77.0735 v 57.9671 c 0,57.4358 0.6534,58.6236 70.8631,129.3766 l 70.8635,71.4048 h 146.9145 c 108.3163,0 161.6721,-4.6547 203.1214,-17.7208 70.0722,-22.0859 89.8012,-43.6696 118.0783,-129.0917 21.6135,-65.2967 21.7981,-69.7777 4.8744,-123.4665 -11.3447,-35.9873 -32.0134,-69.8405 -58.3967,-95.6153 l -40.8414,-39.884 -180.1645,-3.5586 z m 1881.9413,0 -180.147,3.5393 -180.165,3.5586 -40.8407,39.884 c -26.384,25.7748 -47.052,59.628 -58.397,95.6153 -16.913,53.655 -16.739,58.2084 4.759,123.4665 40.835,123.9492 85.6857,144.7651 314.5787,145.9916 l 152.564,0.8209 71.406,-70.8641 c 71.1,-70.555 71.407,-71.1102 71.407,-129.3717 v -58.5127 l -77.583,-77.0735 z m -1657.6747,65.0648 c 62.2865,0 67.8505,2.1247 106.6326,40.9077 38.7826,38.783 40.9241,44.3649 40.9241,106.6485 0,62.2885 -2.1415,67.8511 -40.9241,106.6341 -38.7821,38.783 -44.3461,40.9222 -106.6326,40.9222 -62.2871,0 -67.8505,-2.1392 -106.6332,-40.9222 -38.782,-38.783 -40.9239,-44.3456 -40.9239,-106.6341 0,-62.2836 2.1419,-67.8655 40.9239,-106.6485 38.7827,-38.783 44.3461,-40.9077 106.6332,-40.9077 z m 1433.4087,0 c 62.286,0 67.85,2.1247 106.633,40.9077 38.781,38.783 40.924,44.3649 40.924,106.6485 0,62.2885 -2.143,67.8511 -40.924,106.6341 -38.783,38.783 -44.347,40.9222 -106.633,40.9222 -62.288,0 -67.851,-2.1392 -106.633,-40.9222 -38.782,-38.783 -40.924,-44.3456 -40.924,-106.6341 0,-62.2836 2.142,-67.8655 40.924,-106.6485 38.782,-38.783 44.345,-40.9077 106.633,-40.9077 z m -1043.4372,17.3925 v 125.3883 125.3931 l -88.6332,87.2474 -88.6327,87.2473 h 38.7995 c 34.7657,0 48.2581,-9.5558 130.2153,-92.2208 84.8717,-85.6056 90.329,-93.7031 76.1833,-112.6939 -9.9576,-13.3655 -15.2337,-46.5185 -15.2337,-95.6491 0,-66.5811 -3.0184,-78.0248 -26.349,-99.9465 z m 653.4655,0 -26.349,24.7658 c -23.331,21.9217 -26.35,33.3654 -26.35,99.9465 0,49.1306 -5.276,82.2836 -15.233,95.6491 -14.146,18.9908 -8.689,27.0883 76.183,112.6939 81.957,82.665 95.449,92.2208 130.215,92.2208 h 38.8 l -88.633,-87.2473 -88.633,-87.2474 v -125.3931 z"
     id="rect4356" />
</svg>
