<?xml version="1.0" encoding="UTF-8" standalone="no"?>
<svg
   xmlns:dc="http://purl.org/dc/elements/1.1/"
   xmlns:cc="http://creativecommons.org/ns#"
   xmlns:rdf="http://www.w3.org/1999/02/22-rdf-syntax-ns#"
   xmlns:svg="http://www.w3.org/2000/svg"
   xmlns="http://www.w3.org/2000/svg"
   xmlns:xlink="http://www.w3.org/1999/xlink"
   version="1.1"
   id="svg3348"
   viewBox="0 0 1052.3622 1488.189"
   height="1488.189"
   width="1052.3622">
  <defs
     id="defs3350">
    <linearGradient
       gradientUnits="userSpaceOnUse"
       y2="-1.39455"
       x2="95.274063"
       y1="114.92466"
       x1="-21.045139"
       id="linear-gradient">
      <stop
         id="stop6"
         stop-color="#c757bc"
         offset="0.10753" />
      <stop
         id="stop8"
         stop-color="#cd5ca9"
         offset="0.17288" />
      <stop
         id="stop10"
         stop-color="#e8744f"
         offset="0.49191" />
      <stop
         id="stop12"
         stop-color="#f88316"
         offset="0.71582" />
      <stop
         id="stop14"
         stop-color="#ff8900"
         offset="0.82323" />
    </linearGradient>
    <linearGradient
       gradientUnits="userSpaceOnUse"
       y2="90.855858"
       x2="96.58931"
       y1="147.55215"
       x1="39.893021"
       id="linear-gradient-2">
      <stop
         id="stop17"
         stop-color="#00afff"
         offset="0.2957" />
      <stop
         id="stop19"
         stop-color="#5282ff"
         offset="0.69363" />
      <stop
         id="stop21"
         stop-color="#945dff"
         offset="1" />
    </linearGradient>
    <linearGradient
       xlink:href="#linear-gradient-2"
       y2="-5.2725201"
       x2="38.27206"
       y1="34.500591"
       x1="-1.50106"
       id="linear-gradient-3" />
  </defs>
  <metadata
     id="metadata3353">
    <rdf:RDF>
      <cc:Work
         rdf:about="">
        <dc:format>image/svg+xml</dc:format>
        <dc:type
           rdf:resource="http://purl.org/dc/dcmitype/StillImage" />
        <dc:title></dc:title>
      </cc:Work>
    </rdf:RDF>
  </metadata>
  <g
     transform="translate(0,435.82678)"
     id="layer1">
    <path
       id="rect4356"
       d="m 370.08398,-116.28587 -64.92451,64.951799 -64.92448,64.948377 0,35.095242 c 0,19.301245 0.65833,35.750192 1.46315,36.554996 0.80482,0.804827 129.235,1.215218 285.40041,0.910631 l 283.93726,-0.55251 0.60367,-35.947912 0.60026,-35.944497 -64.97906,-65.009765 -64.98248,-65.006361 -156.0971,0 z m -128.7576,254.29561 0.60709,16.37095 c 0.33457,9.00402 1.10686,33.06934 1.71555,53.47847 l 1.10844,37.10751 33.18188,33.28762 33.1853,33.28762 17.33958,0 17.33958,0 17.8887,-17.46237 c 17.36904,-16.95348 18.19807,-17.46235 28.44453,-17.46235 l 10.55586,0 36.24122,-36.01611 36.2412,-36.01611 51.00579,0 51.00576,0 36.24122,36.01611 36.24463,36.01611 10.55245,0 c 10.24645,0 11.07551,0.50887 28.44453,17.46235 l 17.88869,17.46237 17.33958,0 17.34298,0 33.18188,-33.28762 33.1819,-33.28762 1.10845,-37.10751 c 0.60866,-20.40913 1.38097,-44.47445 1.71554,-53.47847 l 0.6071,-16.37095 -284.85471,0 z m 26.84837,20.73654 258.00635,0 258.00633,0 7.42151,7.4215 c 7.2712,7.2712 7.42149,7.79336 7.42149,25.8968 0,15.17248 -0.7809,19.4706 -4.36559,24.0278 -2.81737,3.58172 -4.36559,8.85559 -4.36559,14.87029 0,8.66755 -1.11711,10.43833 -15.98215,25.30336 -14.75126,14.75127 -16.68915,15.98557 -25.09872,15.98557 -7.34795,0 -10.74898,-1.47913 -17.5681,-7.63978 -6.80307,-6.14615 -10.22731,-7.63978 -17.51693,-7.63978 -7.53738,0 -10.65393,-1.46824 -18.53328,-8.73118 -8.2644,-7.61785 -10.78693,-8.73118 -19.78499,-8.73118 -9.63428,0 -11.21161,-0.86204 -23.95277,-13.09677 -13.17718,-12.65335 -14.03083,-13.09677 -25.23856,-13.09677 l -11.5995,0 -23.26041,-22.91934 -23.257,-22.91934 -42.32574,0 -42.32576,0 -23.25699,22.91934 -23.26042,22.91934 -11.59949,0 c -11.20773,0 -12.0614,0.44342 -25.23859,13.09677 -12.74116,12.23473 -14.31847,13.09677 -23.95275,13.09677 -8.99806,0 -11.52058,1.11333 -19.78498,8.73118 -7.87933,7.26294 -10.99593,8.73118 -18.53331,8.73118 -7.2896,0 -10.71385,1.49363 -17.51693,7.63978 -6.81912,6.16065 -10.22012,7.63978 -17.56807,7.63978 -8.40957,0 -10.34747,-1.2343 -25.09873,-15.98557 -14.86503,-14.86503 -15.98214,-16.63581 -15.98214,-25.30336 0,-6.01471 -1.54822,-11.28857 -4.36559,-14.87029 -3.58469,-4.5572 -4.36559,-8.85532 -4.36559,-24.0278 0,-18.10344 0.15035,-18.6256 7.42149,-25.8968 z m -34.03455,17.46236 c -0.95058,0 -5.86186,4.21099 -10.91397,9.35872 l -9.18479,9.35873 0,70.01996 c 0,67.53029 0.1591,70.21984 4.52248,75.76684 2.4882,3.16325 5.43496,5.75373 6.54839,5.75373 1.17767,0 2.0259,-18.59316 2.0259,-44.45397 0,-41.14776 0.3246,-44.86576 4.36559,-50.00307 3.95482,-5.02771 4.3656,-8.85406 4.3656,-40.67501 0,-19.31938 -0.77862,-35.12593 -1.7292,-35.12593 z m 584.08176,0 c -0.95056,0 -1.72916,15.80655 -1.72916,35.12593 0,31.82095 0.41077,35.6473 4.36559,40.67501 4.04101,5.13731 4.36559,8.85531 4.36559,50.00307 0,25.86078 0.84821,44.45397 2.02589,44.45397 1.1134,0 4.06017,-2.59048 6.54838,-5.75373 4.36329,-5.547 4.52249,-8.23655 4.52249,-75.76684 l 0,-70.01996 -9.1848,-9.35873 c -5.0521,-5.14773 -9.96339,-9.35872 -10.91398,-9.35872 z m -339.01871,39.2903 -38.17504,38.3592 c -30.49075,30.63814 -41.03109,39.82414 -52.36318,45.63063 -7.80349,3.99848 -18.1172,10.05963 -22.91935,13.46853 -8.20464,5.82422 -10.2839,6.24096 -34.49499,6.94061 l -25.76721,0.74351 -21.70857,-21.32999 -21.71197,-21.33 0,12.79322 0,12.79663 15.27956,15.75705 c 8.40376,8.66684 15.27956,16.95779 15.27956,18.42415 0,1.46635 -7.3049,10.16903 -16.23113,19.34161 -15.20572,15.62534 -16.27288,17.35619 -16.91665,27.41113 -0.38459,6.00646 -1.86813,11.11896 -3.36969,11.61316 -1.47559,0.48567 -8.10584,-4.243 -14.73388,-10.51152 -11.0596,-10.45972 -12.0497,-10.9635 -12.0497,-6.11865 0,3.69705 5.23321,10.48226 17.46236,22.63968 l 17.46236,17.36003 0,19.02441 0,19.02784 12.21682,11.58245 c 20.8545,19.7744 18.09875,20.20358 45.83869,-7.12135 13.3217,-13.12239 25.56174,-23.85728 27.19966,-23.85728 1.63796,0 18.30944,-15.22498 37.04954,-33.83331 l 34.07206,-33.83332 11.71546,0 11.71548,0 20.03395,-19.64515 20.03398,-19.64515 42.05973,0 42.05971,0 20.03396,19.64515 20.03398,19.64515 11.71545,0 11.71548,0 34.07206,33.83332 c 18.74008,18.60833 35.41158,33.83331 37.04953,33.83331 1.63793,0 13.87796,10.73489 27.19966,23.85728 27.73993,27.32493 24.98418,26.89575 45.83869,7.12135 l 12.21684,-11.58245 0,-19.02784 0,-19.02441 17.46235,-17.36003 c 12.22916,-12.15742 17.46237,-18.94263 17.46237,-22.63968 0,-4.84485 -0.9901,-4.34107 -12.04971,6.11865 -6.62804,6.26852 -13.25828,10.99719 -14.73387,10.51152 -1.50157,-0.4942 -2.98511,-5.6067 -3.36969,-11.61316 -0.64377,-10.05494 -1.71093,-11.78579 -16.91666,-27.41113 -8.92623,-9.17258 -16.23112,-17.87526 -16.23112,-19.34161 0,-1.46636 6.8758,-9.75731 15.27956,-18.42415 l 15.27956,-15.75705 0,-12.79663 0,-12.79322 -21.71199,21.33 -21.70858,21.32999 -25.76721,-0.74351 c -24.21109,-0.69965 -26.29031,-1.11639 -34.49497,-6.94061 -4.80214,-3.4089 -15.11585,-9.47005 -22.91933,-13.46853 -11.3321,-5.80649 -21.87245,-14.99249 -52.36321,-45.63063 l -38.17504,-38.3592 -46.97782,0 z M 205.64449,348.64942 c -0.84264,0 -10.66256,9.9169 -21.82111,22.03939 -21.55061,23.41228 -25.70749,32.54551 -5.91742,13.00128 7.84434,-7.7469 12.92896,-11.18796 15.22499,-10.30688 1.89611,0.7276 3.44814,2.55259 3.44814,4.05863 0,3.6146 -26.35686,30.14303 -29.94862,30.14303 -2.20209,0 -2.7933,13.24015 -2.7933,62.70078 l 0,62.69736 14.72363,14.83959 14.72363,14.8362 1.58593,-6.11532 c 0.94348,-3.6409 11.19364,-15.58445 25.33066,-29.5154 l 23.74812,-23.40024 15.47737,0 c 8.51233,0 16.06896,-0.96209 16.79389,-2.13505 0.72493,-1.17296 -4.61873,-8.51563 -11.87576,-16.31639 l -13.19568,-14.18134 0,-22.14856 0,-22.15194 -17.46236,-17.8887 -17.46236,-17.89209 0,-15.38188 c 0,-12.25627 -0.91775,-16.54951 -4.52249,-21.13217 -2.48819,-3.16326 -5.2146,-5.7503 -6.05726,-5.7503 z m 641.07318,0 c -0.84264,0 -3.56903,2.58704 -6.05725,5.7503 -3.60473,4.58265 -4.52247,8.8759 -4.52247,21.13217 l 0,15.38188 -17.46236,17.89209 -17.46237,17.8887 0,22.15194 0,22.14856 -13.19567,14.18134 c -7.25702,7.80076 -12.60069,15.14343 -11.87577,16.31639 0.72491,1.17296 8.28156,2.13505 16.79387,2.13505 l 15.47739,0 23.83678,23.46504 c 15.70332,15.45892 24.26235,25.57501 25.08511,29.64845 l 1.24828,6.18011 14.9726,-14.85331 14.96921,-14.85661 0,-62.81333 c 0,-48.05899 -0.62787,-62.81332 -2.67051,-62.81332 -3.60651,0 -30.07141,-26.42016 -30.07141,-30.02025 0,-1.57305 1.55202,-3.45381 3.44814,-4.18141 2.29603,-0.88108 7.38065,2.55998 15.22499,10.30688 19.79007,19.54423 15.63317,10.411 -5.91743,-13.00128 -11.15858,-12.12249 -20.97846,-22.03939 -21.82113,-22.03939 z m -645.18978,37.45537 c 1.40177,0.11788 2.33091,1.20336 3.06274,3.1105 0.90375,2.35513 -3.45208,8.27437 -13.6527,18.55376 -8.23876,8.30239 -15.61947,15.09538 -16.40507,15.09538 -0.7856,0 -2.69659,-1.52982 -4.24621,-3.39698 -2.41098,-2.90506 -0.64873,-5.58196 12.22365,-18.55375 10.56594,-10.64755 15.93371,-15.06808 19.01759,-14.80891 z m 649.3064,0 c 3.0839,-0.25917 8.45163,4.16136 19.0176,14.80891 12.8724,12.97179 14.63464,15.64869 12.22365,18.55375 -1.5496,1.86716 -3.45723,3.39698 -4.24281,3.39698 -0.78561,0 -8.16972,-6.79299 -16.40847,-15.09538 -10.20062,-10.27941 -14.55644,-16.19864 -13.6527,-18.55376 0.73183,-1.90714 1.66096,-2.99268 3.06273,-3.1105 z m -358.23754,6.20052 -22.18265,21.82794 -22.17924,21.82795 -18.19564,0 -18.19566,0 -21.10488,20.73655 -21.10831,20.73656 -12.56812,0 c -10.85262,0 -13.58725,0.89406 -20.02715,6.54838 -5.98423,5.25421 -9.44839,6.54838 -17.53739,6.54838 -9.10384,0 -11.20239,1.05831 -21.6233,10.91398 l -11.53812,10.91397 -18.10355,0 -18.10357,0 -23.50255,23.42752 -23.49915,23.42747 0,27.30553 0,27.30868 59.4675,59.49478 c 40.84911,37.8739 19.11312,33.60146 19.11312,-0.4603 l 0,-17.30206 22.48959,-22.48959 22.48621,-22.48629 44.54948,0 44.55288,0 9.35872,-9.18817 9.35875,-9.18485 0,-16.36065 0,-16.36415 25.74674,-25.74676 25.75016,-25.74675 40.18048,0 40.18046,0 25.75017,25.74675 25.74674,25.74676 0,16.36415 0,16.36065 9.35872,9.18485 9.35875,9.18817 44.55288,0 44.54948,0 22.4896,22.48629 22.4862,22.48959 0,17.30206 c -4.67609,38.52714 -37.06818,56.17321 19.0858,0.49103 l 59.49482,-59.46753 0,-27.26433 0,-27.26118 -23.42754,-23.50252 -23.42752,-23.49915 -18.17519,0 -18.17857,0 -11.53813,-10.91397 c -10.42093,-9.85567 -12.51946,-10.91398 -21.62331,-10.91398 -8.089,0 -11.55317,-1.29417 -17.53739,-6.54838 -6.43989,-5.65432 -9.17454,-6.54838 -20.02714,-6.54838 l -12.56812,0 -21.1083,-20.73656 -21.10491,-20.73655 -18.19563,0 -18.19564,0 -22.17925,-21.82795 -22.18264,-21.82794 -33.58434,0 z m -286.65211,11.2482 c 1.36488,0.15385 2.28825,1.2358 3.01157,3.12072 0.89748,2.33879 -3.16148,7.98168 -12.55789,17.46235 -7.63534,7.70384 -14.52559,14.00741 -15.31367,14.00741 -0.78809,0 -2.70109,-1.5277 -4.24962,-3.39356 -2.40629,-2.89941 -0.78928,-5.43733 11.12884,-17.46236 9.83818,-9.92642 14.97805,-14.07298 17.98077,-13.73456 z m 640.4729,0 c 3.00271,-0.33842 8.14256,3.80814 17.98077,13.73456 11.91811,12.02503 13.53514,14.56295 11.12885,17.46236 -1.54851,1.86586 -3.46157,3.39356 -4.24964,3.39356 -0.7881,0 -7.67832,-6.30357 -15.31367,-14.00741 -9.39641,-9.48067 -13.45535,-15.12356 -12.55788,-17.46235 0.72331,-1.88492 1.64671,-2.96687 3.01157,-3.12072 z m -631.79288,13.11041 c 1.40177,0.11787 2.33091,1.20337 3.06273,3.1105 0.90376,2.35513 -3.45208,8.27436 -13.6527,18.55376 -8.23875,8.30239 -15.61947,15.09539 -16.40506,15.09539 -0.7856,0 -2.69659,-1.52983 -4.24621,-3.397 -2.41098,-2.90505 -0.64873,-5.58196 12.22364,-18.55375 10.56596,-10.64755 15.93371,-15.06807 19.0176,-14.8089 z m 623.11286,0 c 3.08389,-0.25917 8.45164,4.16135 19.0176,14.8089 12.87239,12.97179 14.63464,15.6487 12.22365,18.55375 -1.5496,1.86717 -3.45722,3.397 -4.24281,3.397 -0.78561,0 -8.16971,-6.793 -16.40847,-15.09539 -10.20062,-10.27941 -14.55645,-16.19864 -13.65269,-18.55376 0.73182,-1.90713 1.66094,-2.99268 3.06272,-3.1105 z m -618.69611,17.44872 c 1.36488,0.15384 2.28825,1.2358 3.01157,3.12071 0.89749,2.33879 -3.16148,7.98168 -12.5579,17.46236 -7.63533,7.70383 -14.52558,14.00742 -15.31366,14.00742 -0.78809,0 -2.70109,-1.52772 -4.24962,-3.39356 -2.40629,-2.89943 -0.78928,-5.43735 11.12883,-17.46237 9.83819,-9.92642 14.97806,-14.07298 17.98078,-13.73456 z m 614.27937,0 c 3.00271,-0.33842 8.14255,3.80814 17.98076,13.73456 11.91812,12.02502 13.53514,14.56294 11.12885,17.46237 -1.54851,1.86584 -3.46156,3.39356 -4.24965,3.39356 -0.78809,0 -7.67831,-6.30359 -15.31366,-14.00742 -9.3964,-9.48068 -13.45535,-15.12357 -12.55787,-17.46236 0.7233,-1.88491 1.64669,-2.96687 3.01157,-3.12071 z m -605.59935,13.1104 c 1.40177,0.11788 2.3309,1.20337 3.06273,3.11051 0.90375,2.35511 -3.45208,8.27436 -13.6527,18.55375 -8.23875,8.30239 -15.61946,15.09539 -16.40505,15.09539 -0.7856,0 -2.6966,-1.52983 -4.24623,-3.39698 -2.41097,-2.90506 -0.64873,-5.58197 12.22365,-18.55376 10.56596,-10.64756 15.93371,-15.06808 19.0176,-14.80891 z m 596.91932,0 c 3.0839,-0.25917 8.45164,4.16135 19.01761,14.80891 12.87238,12.97179 14.63464,15.6487 12.22364,18.55376 -1.54961,1.86715 -3.45722,3.39698 -4.24281,3.39698 -0.78561,0 -8.16971,-6.793 -16.40846,-15.09539 -10.20062,-10.27941 -14.55646,-16.19864 -13.6527,-18.55375 0.73182,-1.90714 1.66094,-2.99269 3.06272,-3.11051 z m -592.50257,17.44873 c 1.36488,0.15384 2.28825,1.23579 3.01158,3.12072 0.89748,2.33878 -3.16149,7.98167 -12.55791,17.46235 -7.63534,7.70384 -14.52558,14.00741 -15.31366,14.00741 -0.78809,0 -2.70109,-1.52771 -4.24962,-3.39356 -2.4063,-2.89942 -0.78928,-5.43734 11.12883,-17.46236 9.83819,-9.92643 14.97806,-14.07298 17.98078,-13.73456 z m 588.08583,0 c 3.00271,-0.33842 8.14256,3.80813 17.98077,13.73456 11.91811,12.02502 13.53514,14.56294 11.12884,17.46236 -1.54851,1.86585 -3.46156,3.39356 -4.24964,3.39356 -0.7881,0 -7.67832,-6.30357 -15.31367,-14.00741 -9.3964,-9.48068 -13.45536,-15.12357 -12.55787,-17.46235 0.7233,-1.88493 1.64669,-2.96688 3.01157,-3.12072 z m -579.40582,13.11041 c 1.40177,0.11786 2.33091,1.20336 3.06275,3.1105 0.90374,2.35513 -3.45209,8.27436 -13.65271,18.55374 -8.23875,8.3024 -15.61946,15.09539 -16.40506,15.09539 -0.78559,0 -2.69659,-1.52982 -4.24622,-3.39698 -2.41097,-2.90506 -0.64873,-5.58197 12.22365,-18.55376 10.56596,-10.64755 15.93371,-15.06808 19.01759,-14.80889 z m 570.72578,0 c 3.08391,-0.25919 8.45165,4.16134 19.01762,14.80889 12.87239,12.97179 14.63464,15.6487 12.22365,18.55376 -1.54962,1.86716 -3.45724,3.39698 -4.24282,3.39698 -0.78561,0 -8.16971,-6.79299 -16.40846,-15.09539 -10.20062,-10.2794 -14.55645,-16.19864 -13.6527,-18.55374 0.73183,-1.90714 1.66094,-2.99269 3.06271,-3.1105 z m -316.94178,43.30802 -23.50255,23.42748 -23.49916,23.4275 0,15.85599 c 0,15.18929 -0.33664,16.22691 -7.99449,24.70313 l -7.99448,8.85062 10.72297,10.90367 10.723,10.90368 1.09139,-18.54346 c 1.01772,-17.29245 1.57023,-19.03659 8.18547,-25.8525 3.90175,-4.02 7.09409,-8.54939 7.09409,-10.06478 0,-1.51538 4.91129,-7.95026 10.91397,-14.2973 8.49562,-8.98281 10.91398,-13.11109 10.91398,-18.63897 0,-5.16571 2.02293,-9.1238 7.4215,-14.52238 7.36456,-7.36456 7.57559,-7.4215 27.50322,-7.4215 19.92762,0 20.13865,0.0569 27.50321,7.4215 5.39858,5.39858 7.4215,9.35667 7.4215,14.52238 0,5.52788 2.41836,9.65616 10.91398,18.63897 6.00268,6.34704 10.91397,12.70998 10.91397,14.137 0,1.42702 3.43789,6.39943 7.63977,11.05053 7.42815,8.22198 7.63979,8.95435 7.63979,26.43225 l 0,17.974 11.29254,-11.29255 11.29597,-11.29606 -8.02178,-8.87437 c -7.68013,-8.50103 -8.01835,-9.54754 -8.01835,-24.66226 l 0,-15.7809 -23.42753,-23.50259 -23.42752,-23.49908 -31.65394,0 z m -163.29692,106.57834 -16.06741,15.95832 -16.06742,15.96165 0,12.00537 c 0,11.89484 0.13534,12.14105 14.67588,26.7939 l 14.67589,14.78834 30.4261,0 c 22.4324,0 33.48239,-0.96393 42.06656,-3.66989 14.51199,-4.57444 18.59789,-9.04411 24.45412,-26.73574 4.47623,-13.52286 4.51437,-14.4508 1.00954,-25.56944 -2.34957,-7.45363 -6.63008,-14.46372 -12.09405,-19.80196 l -8.45834,-8.26057 -37.31212,-0.73673 z m 389.75163,0 -37.30873,0.73325 -37.31215,0.73673 -8.45832,8.26057 c -5.46398,5.33824 -9.74449,12.34833 -12.09405,19.80196 -3.50267,11.11183 -3.46659,12.05497 0.98566,25.56944 8.45685,25.67001 17.74565,29.98129 65.14961,30.23519 l 31.59596,0.17044 14.78843,-14.67589 c 14.72497,-14.61216 14.78843,-14.7274 14.78843,-26.79372 l 0,-12.118 -16.06742,-15.96165 z m -343.30585,13.47535 c 12.89964,0 14.0519,0.44023 22.08374,8.47204 8.03185,8.03182 8.47539,9.18747 8.47539,22.08709 0,12.89961 -0.44354,14.05196 -8.47539,22.08377 -8.03184,8.03181 -9.1841,8.47536 -22.08374,8.47536 -12.89964,0 -14.0519,-0.44355 -22.08375,-8.47536 -8.03183,-8.03181 -8.47538,-9.18416 -8.47538,-22.08377 0,-12.89962 0.44355,-14.05527 8.47538,-22.08709 8.03185,-8.03181 9.18411,-8.47204 22.08375,-8.47204 z m 296.86009,0 c 12.89963,0 14.05189,0.44023 22.08373,8.47204 8.03185,8.03182 8.47539,9.18747 8.47539,22.08709 0,12.89961 -0.44354,14.05196 -8.47539,22.08377 -8.03184,8.03181 -9.1841,8.47536 -22.08373,8.47536 -12.89965,0 -14.05191,-0.44355 -22.08376,-8.47536 -8.03183,-8.03181 -8.47537,-9.18416 -8.47537,-22.08377 0,-12.89962 0.44354,-14.05527 8.47537,-22.08709 8.03185,-8.03181 9.18411,-8.47204 22.08376,-8.47204 z m -216.09668,3.60161 0,25.96845 0,25.96845 -18.35594,18.06952 -18.35595,18.06935 8.03541,0 c 7.20005,0 9.99427,-1.97936 26.96775,-19.09945 17.57691,-17.72866 18.70712,-19.40592 15.77752,-23.3388 -2.06213,-2.76848 -3.15482,-9.6338 -3.15482,-19.80895 0,-13.78915 -0.62515,-16.15966 -5.45698,-20.699 z m 135.33327,0 -5.45699,5.12957 c -4.83183,4.53934 -5.45698,6.90985 -5.45698,20.699 0,10.17515 -1.09269,17.04047 -3.15482,19.80895 -2.92961,3.93288 -1.79942,5.61014 15.7775,23.3388 16.97348,17.12009 19.76769,19.09945 26.96775,19.09945 l 8.0354,0 -18.35592,-18.06935 -18.35594,-18.06952 0,-25.96845 z"
       style="opacity:1;fill:#ffffff;fill-opacity:1;fill-rule:nonzero;stroke:none;stroke-width:5.5;stroke-miterlimit:4;stroke-dasharray:none;stroke-opacity:1" />
  </g>
</svg>
