<?xml version="1.0" encoding="UTF-8" standalone="no"?>
<!-- Created with Inkscape (http://www.inkscape.org/) -->

<svg
   xmlns:dc="http://purl.org/dc/elements/1.1/"
   xmlns:cc="http://creativecommons.org/ns#"
   xmlns:rdf="http://www.w3.org/1999/02/22-rdf-syntax-ns#"
   xmlns:svg="http://www.w3.org/2000/svg"
   xmlns="http://www.w3.org/2000/svg"
   xmlns:sodipodi="http://sodipodi.sourceforge.net/DTD/sodipodi-0.dtd"
   xmlns:inkscape="http://www.inkscape.org/namespaces/inkscape"
   width="420mm"
   height="297mm"
   viewBox="0 0 420 297"
   version="1.1"
   id="svg8"
   inkscape:version="0.91 r13725"
   sodipodi:docname="baruch1.svg">
  <defs
     id="defs2">
    <inkscape:path-effect
       effect="roughen"
       id="path-effect6157"
       is_visible="true"
       method="segments"
       max_segment_size="10"
       segments="2"
       displace_x="10;1"
       displace_y="10;1"
       global_randomize="1;1"
       handles="along"
       shift_nodes="true"
       fixed_displacement="false"
       spray_tool_friendly="false" />
  </defs>
  <sodipodi:namedview
     id="base"
     pagecolor="#ffffff"
     bordercolor="#666666"
     borderopacity="1.0"
     inkscape:pageopacity="0.0"
     inkscape:pageshadow="2"
     inkscape:zoom="0.5"
     inkscape:cx="990.4656"
     inkscape:cy="286.41319"
     inkscape:document-units="px"
     inkscape:current-layer="layer1"
     showgrid="false"
     showborder="true"
     inkscape:window-width="1855"
     inkscape:window-height="1056"
     inkscape:window-x="65"
     inkscape:window-y="24"
     inkscape:window-maximized="1"
     inkscape:pagecheckerboard="false" />
  <metadata
     id="metadata5">
    <rdf:RDF>
      <cc:Work
         rdf:about="">
        <dc:format>image/svg+xml</dc:format>
        <dc:type
           rdf:resource="http://purl.org/dc/dcmitype/StillImage" />
        <dc:title />
      </cc:Work>
    </rdf:RDF>
  </metadata>
  <g
     inkscape:label="Layer 1"
     inkscape:groupmode="layer"
     id="layer1"
     style="display:inline;opacity:1">
    <g
       id="g1163">
      <path
         inkscape:connector-curvature="0"
         id="path5618"
         d="m 116.62821,63.286117 c -18.285989,0.08467 -37.173509,4.775147 -50.322477,10.900472 -5.749823,2.768339 -13.154381,7.547613 -16.871879,10.889964 -2.640988,2.374466 -5.433424,7.000898 -5.433424,9.001767 0,0.57419 0.966987,3.032419 2.148781,5.462841 2.180679,4.484699 4.12854,11.474999 3.589356,12.880079 -0.162659,0.4239 -2.064296,1.65858 -4.226108,2.74351 -4.962258,2.49039 -8.347169,4.96969 -11.364902,8.32614 -8.536141,9.49425 -10.022773,24.7956 -3.148048,32.4051 3.470758,3.84171 10.309481,7.86786 18.111764,10.66405 3.42752,1.22836 4.788215,1.30399 4.380574,0.24167 -3.767423,-7.83075 -2.393472,-14.43212 1.297676,-20.09663 2.22794,0.43155 5.017928,0.70817 6.695371,1.36283 3.30988,1.4516 28.419707,5.87297 32.548004,8.22631 4.140553,0.66129 0.596758,4.50357 3.315114,7.68518 1.492086,1.62995 21.471508,3.69866 25.168588,0.15551 0.86079,-0.82467 1.86346,-2.25793 2.22759,-3.18482 2.90263,-7.38889 3.26159,-8.01313 4.85236,-8.43857 1.93245,-0.5168 3.5188,0.27498 3.94346,1.96701 1.5162,3.53306 2.98184,7.81285 5.53009,9.42101 2.54826,1.60817 14.05707,0.70626 17.85118,-0.3583 3.79411,-1.06457 4.47941,-3.33104 5.28317,-7.53493 -0.9009,-12.52453 -5.11953,-11.24091 -11.48364,-11.18311 -6.36411,0.0578 -5.95912,-0.0229 -19.21189,4.02121 -1.30113,0.75638 -4.40582,-0.0739 -7.80812,-1.62656 -3.40231,-1.55261 -7.91016,-0.85018 -16.7563,-0.87107 -8.84613,-0.0209 -6.39039,4.33804 -20.507467,2.60376 -10.126765,-1.24407 -21.858271,-5.29754 -28.225225,-6.61762 4.595531,-5.02418 10.664103,-9.23754 15.646708,-12.89795 7.468465,-4.47286 13.29878,-6.03681 22.326316,-6.09959 17.911118,1.91346 34.283298,-2.74206 49.167698,-5.37458 3.29015,-0.56358 3.6539,-0.52902 4.60649,0.44026 0.56878,0.57874 1.56256,2.98959 2.20867,5.35672 0.64609,2.36713 1.38839,4.86281 1.64968,5.54585 l 0.47493,1.24198 2.48503,-1.77996 c 3.18581,-2.28173 6.67078,-6.15965 9.03749,-10.05567 2.27004,-3.73686 5.31868,-11.19017 4.87232,-11.91234 -0.68124,-1.1023 -3.1041,-0.4224 -8.7107,2.44509 -24.92357,7.85277 -12.46355,-4.54961 -19.7688,-32.697213 -1.29505,-8.271513 -12.61532,-12.769598 -19.93061,-13.134362 -1.87175,-0.09333 -3.75717,-0.133796 -5.64882,-0.125038 z m 0.76704,75.309283 c -0.45921,-0.002 -1.1643,0.0859 -2.2465,0.23642 -1.70138,0.23665 -4.99452,0.49791 -7.31847,0.58002 -2.32394,0.0821 -4.34619,0.26931 -4.493,0.41609 -0.77691,0.77693 0.79582,1.4154 3.50425,1.42272 1.68392,0.004 3.425,0.25769 3.86886,0.5632 0.98301,0.67665 5.74391,0.24225 6.78153,-0.61889 0.4125,-0.34235 0.75024,-1.11157 0.75024,-1.70852 0,-0.63284 -0.0815,-0.88716 -0.84691,-0.89104 z m 26.03966,1.57088 c -2.79335,0 -3.22407,0.14387 -3.62718,1.21046 -0.25162,0.66575 -0.3514,1.39203 -0.22066,1.61395 0.13068,0.22191 0.75097,0.40349 1.37754,0.40349 1.77588,0 10.6322,-1.84419 10.63253,-2.21393 4.2e-4,-0.46639 -4.40999,-1.01397 -8.16223,-1.01397 z m 9.54606,7.69148 c 2.63989,0.0138 4.6817,0.25476 5.01523,0.72396 0.8894,1.25121 4.99847,7.3796 -0.39298,11.96593 -1.58079,0.82094 -7.84894,1.67595 -12.28852,1.67595 -4.29301,0.30321 -6.62977,-3.17393 -7.70514,-6.25826 -1.07537,-3.08434 -1.82324,-4.30159 2.32006,-6.28348 2.58955,-1.23869 8.65154,-1.84714 13.05135,-1.8241 z m -36.40425,0.65462 c 8.60045,-0.0228 9.40832,1.80354 5.40716,11.74737 -1.34257,2.27545 -1.48903,2.33538 -7.66417,3.09341 -6.89078,0.31177 -14.19554,0.40661 -14.88386,-2.66471 -1.60269,-8.26767 0.479199,-11.69269 5.8327,-11.76943 4.70893,-0.18632 8.44135,-0.39907 11.30817,-0.40664 z m -45.699182,25.27787 c -1.759244,3.56364 -1.631537,19.62166 -1.080169,21.20306 1.733163,4.91325 6.256873,8.67504 9.915919,12.8244 1.239401,1.40548 2.711851,3.28169 3.272032,4.16937 0.973718,1.54296 5.879832,6.84711 11.047578,11.94386 4.098272,3.51698 10.305732,7.30504 14.786142,9.10789 2.97241,1.11427 8.21468,0.83612 13.6051,-0.72081 5.29453,-2.50986 6.77237,0.2769 11.38381,0.38142 6.09352,-1.40817 10.13004,-8.10995 14.00334,-12.9116 2.86552,-3.51548 4.07676,-11.293 2.64473,-16.98011 -0.42994,-1.70769 -0.44335,-3.46136 -0.0483,-6.12271 0.91688,-6.17752 0.61155,-6.83212 -7.00009,-15.01836 l -3.18062,-3.42124 -3.86465,0.0778 c -3.22565,0.0646 -4.308,-0.156 -6.55353,-1.33761 -2.28615,-1.20299 -2.917,-1.32736 -4.2051,-0.82589 -1.16867,0.45526 -1.43875,0.83213 -1.17893,1.65073 0.68854,2.16943 -1.51608,5.57863 -5.39875,8.34925 -2.01826,1.44019 -4.41217,2.88836 -5.31995,3.2174 -5.96337,3.88053 -12.30634,9.78168 -17.480258,14.76933 -2.617634,1.86464 -2.987207,5.35634 -5.90416,3.4475 -0.769601,-0.50316 -3.48964,-2.58777 -6.043906,-4.6317 -4.518862,-3.75607 -8.155765,-9.01496 -11.005545,-13.70071 -2.322039,-3.44333 0.156962,-15.00846 -2.394661,-15.47123 z m 63.298182,14.01489 c 2.83425,0.0279 4.50981,0.84116 4.50981,2.18976 0,0.57423 -1.08335,0.74183 -4.81033,0.74183 -2.64556,0 -4.95279,-0.23198 -5.12766,-0.51487 -0.63332,-1.02473 2.55698,-2.44497 5.42818,-2.41672 z m 5.01417,6.28347 c 2.12464,-0.0739 2.78739,1.28706 2.61321,4.91436 -0.14121,2.93912 0.19444,6.17824 -0.76389,6.06492 -0.59178,-0.07 -2.95636,-3.17974 -4.67899,-3.37605 -2.88526,-0.32883 -10.6422,0.41392 -13.80264,1.32184 -0.73344,0.2107 -1.58077,0.8725 -1.88294,1.47 -0.30217,0.5975 -1.11072,1.68237 -1.79678,2.41146 -1.8597,5.09042 -7.21352,0.97948 -7.95627,-2.55752 -0.36724,-1.95751 0.90026,-6.05902 2.20762,-7.14404 1.45009,-1.20346 7.14054,-2.09467 15.09401,-2.36418 4.42248,-0.14987 8.90721,-0.43078 9.96531,-0.62415 0.36503,-0.0667 0.69784,-0.10608 1.00136,-0.11664 z"
         style="display:inline;fill:#000000;stroke-width:0.53798348" />
      <g
         id="g1129">
        <path
           style="color:#000000;font-style:normal;font-variant:normal;font-weight:normal;font-stretch:normal;font-size:medium;line-height:normal;font-family:sans-serif;text-indent:0;text-align:start;text-decoration:none;text-decoration-line:none;text-decoration-style:solid;text-decoration-color:#000000;letter-spacing:normal;word-spacing:normal;text-transform:none;direction:ltr;writing-mode:lr-tb;baseline-shift:baseline;text-anchor:start;white-space:normal;clip-rule:nonzero;display:inline;overflow:visible;visibility:visible;opacity:1;isolation:auto;mix-blend-mode:normal;color-interpolation:sRGB;color-interpolation-filters:linearRGB;solid-color:#000000;solid-opacity:1;fill:#000000;fill-opacity:1;fill-rule:nonzero;stroke:none;stroke-width:5.37983513;stroke-linecap:butt;stroke-linejoin:miter;stroke-miterlimit:4;stroke-dasharray:none;stroke-dashoffset:0;stroke-opacity:1;color-rendering:auto;image-rendering:auto;shape-rendering:auto;text-rendering:auto;enable-background:accumulate"
           d="m 194.52318,86.681084 12.68763,53.314776 -13.1774,19.76931 -41.81973,37.55528 124.51148,3.8621 106.49035,-0.91275 7.03985,-50.40667 3.0803,-59.593567 -98.0687,-3.151007 z m 8.90726,6.01396 94.59049,5.166459 88.05859,0.933574 -4.30499,43.812373 -4.1629,51.52152 -108.73825,-0.44208 -97.00263,-4.43576 22.12954,-14.12172 9.78323,-15.20295 12.27731,-24.63871 z"
           id="rect6134"
           inkscape:connector-curvature="0"
           sodipodi:nodetypes="ccccccccccccccccccccc" />
        <g
           aria-label="Обо мне говорят на t.me/jprof_by"
           transform="matrix(0.99917554,0.04059855,-0.04059855,0.99917554,0,0)"
           style="font-style:normal;font-variant:normal;font-weight:normal;font-stretch:normal;font-size:14.67797279px;line-height:1.25;font-family:'Aldo the Apache';-inkscape-font-specification:'Aldo the Apache';letter-spacing:0px;word-spacing:0px;fill:#000000;fill-opacity:1;stroke:none;stroke-width:0.36694935"
           id="text976">
          <path
             d="m 231.51127,119.89953 q -0.7786,0 -1.13688,0.83372 -0.35829,0.82682 -0.35829,2.68028 0,1.84657 0.35829,2.68028 0.35828,0.82683 1.13688,0.82683 0.78548,0 1.14377,-0.82683 0.35829,-0.83371 0.35829,-2.68028 0,-1.85346 -0.35829,-2.68028 -0.35829,-0.83372 -1.14377,-0.83372 z m -3.61046,3.514 q 0,-2.63894 0.9095,-3.98942 0.9164,-1.35048 2.70096,-1.35048 1.79145,0 2.70095,1.35048 0.9164,1.35048 0.9164,3.98942 0,2.63205 -0.9164,3.98253 -0.9095,1.35048 -2.70095,1.35048 -1.78456,0 -2.70096,-1.35048 -0.9095,-1.35048 -0.9095,-3.98253 z"
             style="font-style:normal;font-variant:normal;font-weight:bold;font-stretch:normal;font-size:14.11111069px;font-family:'DejaVu Sans Mono';-inkscape-font-specification:'DejaVu Sans Mono Bold';text-align:center;text-anchor:middle;stroke-width:0.36694935"
             id="path1042"
             inkscape:connector-curvature="0" />
          <path
             d="m 242.15661,117.44663 0.75792,1.46072 q -0.26182,0.0965 -0.59255,0.12402 l -1.99816,0.16536 q -0.80615,0.0689 -1.17822,0.31006 -1.12999,0.76481 -1.3367,1.83968 0.88195,-0.7028 2.19108,-0.7028 1.63987,0 2.60449,1.09554 0.97152,1.08865 0.97152,2.9559 0,1.86724 -0.97152,2.96278 -0.96462,1.08865 -2.60449,1.08865 -1.63297,0 -2.60449,-1.08865 -0.96463,-1.09554 -0.96463,-2.96278 0,-0.35829 -0.007,-0.4272 l -0.11713,-1.15066 q -0.10335,-1.01286 -0.10335,-1.26779 0,-0.25494 0.0138,-0.35829 0.1378,-1.02664 0.38585,-1.52963 0.62011,-1.25401 1.77767,-1.86035 0.83371,-0.44097 3.18327,-0.53054 0.35139,-0.0138 0.59255,-0.12402 z m -2.15663,4.83691 q -0.72347,0 -1.13688,0.64079 -0.41341,0.63389 -0.41341,1.77078 0,1.13688 0.41341,1.77766 0.41341,0.6339 1.13688,0.6339 0.73036,0 1.14377,-0.6339 0.41341,-0.64078 0.41341,-1.77766 0,-1.13689 -0.41341,-1.77078 -0.41341,-0.64079 -1.14377,-0.64079 z"
             style="font-style:normal;font-variant:normal;font-weight:bold;font-stretch:normal;font-size:14.11111069px;font-family:'DejaVu Sans Mono';-inkscape-font-specification:'DejaVu Sans Mono Bold';text-align:center;text-anchor:middle;stroke-width:0.36694935"
             id="path1044"
             inkscape:connector-curvature="0" />
          <path
             d="m 248.4887,122.28354 q -0.72347,0 -1.13688,0.64079 -0.41342,0.63389 -0.41342,1.77078 0,1.13688 0.41342,1.77766 0.41341,0.6339 1.13688,0.6339 0.73036,0 1.14377,-0.6339 0.41341,-0.64078 0.41341,-1.77766 0,-1.13689 -0.41341,-1.77078 -0.41341,-0.64079 -1.14377,-0.64079 z m -3.56912,2.41157 q 0,-1.86725 0.96462,-2.9559 0.97152,-1.09554 2.6045,-1.09554 1.63986,0 2.60449,1.09554 0.97152,1.08865 0.97152,2.9559 0,1.86724 -0.97152,2.96278 -0.96463,1.08865 -2.60449,1.08865 -1.63298,0 -2.6045,-1.08865 -0.96462,-1.09554 -0.96462,-2.96278 z"
             style="font-style:normal;font-variant:normal;font-weight:bold;font-stretch:normal;font-size:14.11111069px;font-family:'DejaVu Sans Mono';-inkscape-font-specification:'DejaVu Sans Mono Bold';text-align:center;text-anchor:middle;stroke-width:0.36694935"
             id="path1046"
             inkscape:connector-curvature="0" />
          <path
             d="m 261.81433,120.82971 2.42534,0 1.22646,4.51307 1.22645,-4.51307 2.42535,0 0,7.71701 -1.65365,0 -0.0138,-5.67062 -1.18511,4.49929 -1.59852,0 -1.1989,-4.49929 0,5.67062 -1.65364,0 z"
             style="font-style:normal;font-variant:normal;font-weight:bold;font-stretch:normal;font-size:14.11111069px;font-family:'DejaVu Sans Mono';-inkscape-font-specification:'DejaVu Sans Mono Bold';text-align:center;text-anchor:middle;stroke-width:0.36694935"
             id="path1048"
             inkscape:connector-curvature="0" />
          <path
             d="m 277.08988,120.82971 0,7.71701 -2.00505,0 0,-3.5829 -2.18419,0 0,3.5829 -2.00504,0 0,-7.71701 2.00504,0 0,2.62516 2.18419,0 0,-2.62516 z"
             style="font-style:normal;font-variant:normal;font-weight:bold;font-stretch:normal;font-size:14.11111069px;font-family:'DejaVu Sans Mono';-inkscape-font-specification:'DejaVu Sans Mono Bold';text-align:center;text-anchor:middle;stroke-width:0.36694935"
             id="path1050"
             inkscape:connector-curvature="0" />
          <path
             d="m 285.79219,128.16776 q -0.7028,0.28939 -1.43316,0.43408 -0.73036,0.1447 -1.5434,0.1447 -1.93615,0 -2.96279,-1.03353 -1.01974,-1.04042 -1.01974,-2.99034 0,-1.88792 0.98529,-2.98346 0.9853,-1.09554 2.68718,-1.09554 1.71565,0 2.65961,1.01975 0.95085,1.01286 0.95085,2.85943 l 0,0.81993 -5.22966,0 q 0.007,0.90951 0.53744,1.35737 0.53054,0.44786 1.58474,0.44786 0.69591,0 1.37115,-0.19981 0.67524,-0.19982 1.41249,-0.6339 z m -1.70877,-4.34082 q -0.0138,-0.79926 -0.41341,-1.20578 -0.39274,-0.41341 -1.16444,-0.41341 -0.69591,0 -1.10932,0.42719 -0.41341,0.4203 -0.48921,1.19889 z"
             style="font-style:normal;font-variant:normal;font-weight:bold;font-stretch:normal;font-size:14.11111069px;font-family:'DejaVu Sans Mono';-inkscape-font-specification:'DejaVu Sans Mono Bold';text-align:center;text-anchor:middle;stroke-width:0.36694935"
             id="path1052"
             inkscape:connector-curvature="0" />
          <path
             d="m 298.7113,122.33866 0,6.20806 -2.00505,0 0,-7.71701 5.50527,0 0,1.50895 z"
             style="font-style:normal;font-variant:normal;font-weight:bold;font-stretch:normal;font-size:14.11111069px;font-family:'DejaVu Sans Mono';-inkscape-font-specification:'DejaVu Sans Mono Bold';text-align:center;text-anchor:middle;stroke-width:0.36694935"
             id="path1054"
             inkscape:connector-curvature="0" />
          <path
             d="m 307.9097,122.28354 q -0.72347,0 -1.13688,0.64079 -0.41341,0.63389 -0.41341,1.77078 0,1.13688 0.41341,1.77766 0.41341,0.6339 1.13688,0.6339 0.73036,0 1.14378,-0.6339 0.41341,-0.64078 0.41341,-1.77766 0,-1.13689 -0.41341,-1.77078 -0.41342,-0.64079 -1.14378,-0.64079 z m -3.56911,2.41157 q 0,-1.86725 0.96462,-2.9559 0.97152,-1.09554 2.60449,-1.09554 1.63987,0 2.6045,1.09554 0.97151,1.08865 0.97151,2.9559 0,1.86724 -0.97151,2.96278 -0.96463,1.08865 -2.6045,1.08865 -1.63297,0 -2.60449,-1.08865 -0.96462,-1.09554 -0.96462,-2.96278 z"
             style="font-style:normal;font-variant:normal;font-weight:bold;font-stretch:normal;font-size:14.11111069px;font-family:'DejaVu Sans Mono';-inkscape-font-specification:'DejaVu Sans Mono Bold';text-align:center;text-anchor:middle;stroke-width:0.36694935"
             id="path1056"
             inkscape:connector-curvature="0" />
          <path
             d="m 314.98593,125.24632 0,1.79145 1.15066,0 q 0.86128,0 1.2678,-0.20671 0.40652,-0.21359 0.40652,-0.6959 0,-0.48232 -0.40652,-0.68213 -0.40652,-0.20671 -1.2678,-0.20671 z m 0,-2.90766 0,1.39871 1.07487,0 q 0.95085,0 1.21956,-0.16537 0.26872,-0.16536 0.26872,-0.50298 0,-0.33762 -0.26872,-0.53054 -0.26871,-0.19982 -1.21956,-0.19982 z m -2.01193,-1.50895 3.2246,0 q 1.73633,0 2.51492,0.4892 0.7786,0.48232 0.7786,1.59164 0,0.57188 -0.28939,0.94395 -0.2825,0.37207 -0.81993,0.565 0.68901,0.18603 1.06797,0.68902 0.37897,0.49609 0.37897,1.22645 0,1.08176 -0.80616,1.64676 -0.79926,0.56499 -2.48736,0.56499 l -3.56222,0 z"
             style="font-style:normal;font-variant:normal;font-weight:bold;font-stretch:normal;font-size:14.11111069px;font-family:'DejaVu Sans Mono';-inkscape-font-specification:'DejaVu Sans Mono Bold';text-align:center;text-anchor:middle;stroke-width:0.36694935"
             id="path1058"
             inkscape:connector-curvature="0" />
          <path
             d="m 324.88714,122.28354 q -0.72347,0 -1.13689,0.64079 -0.41341,0.63389 -0.41341,1.77078 0,1.13688 0.41341,1.77766 0.41342,0.6339 1.13689,0.6339 0.73036,0 1.14377,-0.6339 0.41341,-0.64078 0.41341,-1.77766 0,-1.13689 -0.41341,-1.77078 -0.41341,-0.64079 -1.14377,-0.64079 z m -3.56912,2.41157 q 0,-1.86725 0.96462,-2.9559 0.97152,-1.09554 2.6045,-1.09554 1.63986,0 2.60449,1.09554 0.97152,1.08865 0.97152,2.9559 0,1.86724 -0.97152,2.96278 -0.96463,1.08865 -2.60449,1.08865 -1.63298,0 -2.6045,-1.08865 -0.96462,-1.09554 -0.96462,-2.96278 z"
             style="font-style:normal;font-variant:normal;font-weight:bold;font-stretch:normal;font-size:14.11111069px;font-family:'DejaVu Sans Mono';-inkscape-font-specification:'DejaVu Sans Mono Bold';text-align:center;text-anchor:middle;stroke-width:0.36694935"
             id="path1060"
             inkscape:connector-curvature="0" />
          <path
             d="m 332.17695,127.45807 0,4.02387 -2.01193,0 0,-10.65223 2.01193,0 0,1.15755 q 0.31695,-0.66835 0.83371,-1.00597 0.51677,-0.33762 1.21268,-0.33762 1.32291,0 2.05328,1.06109 0.73036,1.06109 0.73036,2.99035 0,1.95681 -0.74415,3.00412 -0.73725,1.04731 -2.10839,1.04731 -0.62012,0 -1.11621,-0.31695 -0.48921,-0.32384 -0.86128,-0.97152 z m 2.8112,-2.77674 q 0,-1.11622 -0.37207,-1.75011 -0.37207,-0.6339 -1.02664,-0.6339 -0.65457,0 -1.03353,0.6339 -0.37896,0.63389 -0.37896,1.75011 0,1.11621 0.37896,1.7501 0.37896,0.6339 1.03353,0.6339 0.65457,0 1.02664,-0.6339 0.37207,-0.63389 0.37207,-1.7501 z"
             style="font-style:normal;font-variant:normal;font-weight:bold;font-stretch:normal;font-size:14.11111069px;font-family:'DejaVu Sans Mono';-inkscape-font-specification:'DejaVu Sans Mono Bold';text-align:center;text-anchor:middle;stroke-width:0.36694935"
             id="path1062"
             inkscape:connector-curvature="0" />
          <path
             d="m 340.74835,123.17926 q 0,0.48232 0.37896,0.69591 0.37896,0.20671 0.93018,0.20671 l 1.192,0 0,-1.79834 -1.192,0 q -0.55122,0 -0.93018,0.2067 -0.37896,0.20671 -0.37896,0.68902 z m -2.46669,5.36746 2.04639,-3.36241 q -0.29628,-0.15158 -0.90951,-0.62701 -0.61322,-0.47542 -0.61322,-1.57785 0,-1.09554 0.81993,-1.6192 0.81993,-0.53054 2.70784,-0.53054 l 2.92144,0 0,7.71701 -2.00504,0 0,-2.95589 -0.83371,0 -1.79834,2.95589 z"
             style="font-style:normal;font-variant:normal;font-weight:bold;font-stretch:normal;font-size:14.11111069px;font-family:'DejaVu Sans Mono';-inkscape-font-specification:'DejaVu Sans Mono Bold';text-align:center;text-anchor:middle;stroke-width:0.36694935"
             id="path1064"
             inkscape:connector-curvature="0" />
          <path
             d="m 353.48831,120.82971 0,1.50895 -2.12217,0 0,6.20806 -2.00505,0 0,-6.20806 -2.12218,0 0,-1.50895 z"
             style="font-style:normal;font-variant:normal;font-weight:bold;font-stretch:normal;font-size:14.11111069px;font-family:'DejaVu Sans Mono';-inkscape-font-specification:'DejaVu Sans Mono Bold';text-align:center;text-anchor:middle;stroke-width:0.36694935"
             id="path1066"
             inkscape:connector-curvature="0" />
          <path
             d="m 370.46575,120.82971 0,7.71701 -2.00505,0 0,-3.5829 -2.18419,0 0,3.5829 -2.00505,0 0,-7.71701 2.00505,0 0,2.62516 2.18419,0 0,-2.62516 z"
             style="font-style:normal;font-variant:normal;font-weight:bold;font-stretch:normal;font-size:14.11111069px;font-family:'DejaVu Sans Mono';-inkscape-font-specification:'DejaVu Sans Mono Bold';text-align:center;text-anchor:middle;stroke-width:0.36694935"
             id="path1068"
             inkscape:connector-curvature="0" />
          <path
             d="m 376.39819,124.92248 q -1.12999,0 -1.57785,0.28939 -0.44786,0.28939 -0.44786,0.99219 0,0.52365 0.31006,0.83371 0.31005,0.31006 0.8406,0.31006 0.79926,0 1.24023,-0.59945 0.44098,-0.60633 0.44098,-1.68809 l 0,-0.13781 z m 2.8112,-0.77859 0,4.40283 -2.00504,0 0,-0.86127 q -0.36518,0.50987 -0.93707,0.78548 -0.57189,0.27561 -1.2609,0.27561 -1.31603,0 -2.05328,-0.69591 -0.73036,-0.69591 -0.73036,-1.94304 0,-1.35047 0.87505,-1.99126 0.87506,-0.64768 2.70785,-0.64768 l 1.39871,0 0,-0.33762 q 0,-0.4892 -0.35829,-0.73725 -0.3514,-0.25493 -1.04042,-0.25493 -0.72347,0 -1.4056,0.18603 -0.67524,0.17915 -1.41249,0.57878 l 0,-1.72255 q 0.66835,-0.27561 1.35737,-0.40652 0.68902,-0.13092 1.46072,-0.13092 1.88102,0 2.63894,0.76481 0.76481,0.76482 0.76481,2.73541 z"
             style="font-style:normal;font-variant:normal;font-weight:bold;font-stretch:normal;font-size:14.11111069px;font-family:'DejaVu Sans Mono';-inkscape-font-specification:'DejaVu Sans Mono Bold';text-align:center;text-anchor:middle;stroke-width:0.36694935"
             id="path1070"
             inkscape:connector-curvature="0" />
          <path
             d="m 253.24293,138.59726 0,2.19108 2.63894,0 0,1.55029 -2.63894,0 0,3.6518 q 0,0.51677 0.24805,0.74414 0.25493,0.22049 0.8406,0.22049 l 1.55029,0 0,1.55029 -1.69499,0 q -1.73632,0 -2.34955,-0.55121 -0.61323,-0.55811 -0.61323,-2.06017 l 0,-3.55534 -1.97059,0 0,-1.55029 1.97059,0 0,-2.19108 z"
             style="font-style:normal;font-variant:normal;font-weight:bold;font-stretch:normal;font-size:14.11111069px;font-family:'DejaVu Sans Mono';-inkscape-font-specification:'DejaVu Sans Mono Bold';text-align:center;text-anchor:middle;stroke-width:0.36694935"
             id="path1072"
             inkscape:connector-curvature="0" />
          <path
             d="m 260.07111,145.97665 2.29443,0 0,2.5287 -2.29443,0 z"
             style="font-style:normal;font-variant:normal;font-weight:bold;font-stretch:normal;font-size:14.11111069px;font-family:'DejaVu Sans Mono';-inkscape-font-specification:'DejaVu Sans Mono Bold';text-align:center;text-anchor:middle;stroke-width:0.36694935"
             id="path1074"
             inkscape:connector-curvature="0" />
          <path
             d="m 270.22036,141.56004 q 0.22737,-0.4892 0.57877,-0.72347 0.3514,-0.23427 0.86128,-0.23427 0.99908,0 1.37804,0.68902 0.38585,0.68902 0.38585,2.86632 l 0,4.34771 -1.65365,0 0,-4.95404 q 0,-0.86128 -0.13091,-1.15067 -0.13092,-0.28938 -0.47543,-0.28938 -0.3445,0 -0.48231,0.29627 -0.1378,0.29628 -0.1378,1.14378 l 0,4.95404 -1.63298,0 0,-4.95404 q 0,-0.8475 -0.1378,-1.14378 -0.13781,-0.29627 -0.48231,-0.29627 -0.34451,0 -0.47543,0.28938 -0.13091,0.28939 -0.13091,1.15067 l 0,4.95404 -1.65365,0 0,-7.71701 1.46761,0 0,0.79926 q 0.17226,-0.45475 0.55122,-0.71658 0.37896,-0.26872 0.84749,-0.26872 0.46853,0 0.85439,0.2825 0.38585,0.27561 0.46853,0.67524 z"
             style="font-style:normal;font-variant:normal;font-weight:bold;font-stretch:normal;font-size:14.11111069px;font-family:'DejaVu Sans Mono';-inkscape-font-specification:'DejaVu Sans Mono Bold';text-align:center;text-anchor:middle;stroke-width:0.36694935"
             id="path1076"
             inkscape:connector-curvature="0" />
          <path
             d="m 281.54783,148.12639 q -0.7028,0.28939 -1.43316,0.43409 -0.73036,0.14469 -1.5434,0.14469 -1.93614,0 -2.96278,-1.03353 -1.01975,-1.04042 -1.01975,-2.99034 0,-1.88791 0.9853,-2.98345 0.98529,-1.09555 2.68717,-1.09555 1.71566,0 2.65961,1.01975 0.95085,1.01286 0.95085,2.85943 l 0,0.81994 -5.22965,0 q 0.007,0.9095 0.53743,1.35736 0.53055,0.44787 1.58474,0.44787 0.69591,0 1.37115,-0.19982 0.67524,-0.19982 1.41249,-0.6339 z m -1.70877,-4.34082 q -0.0138,-0.79926 -0.41341,-1.20578 -0.39274,-0.41341 -1.16444,-0.41341 -0.69591,0 -1.10932,0.42719 -0.41341,0.4203 -0.4892,1.19889 z"
             style="font-style:normal;font-variant:normal;font-weight:bold;font-stretch:normal;font-size:14.11111069px;font-family:'DejaVu Sans Mono';-inkscape-font-specification:'DejaVu Sans Mono Bold';text-align:center;text-anchor:middle;stroke-width:0.36694935"
             id="path1078"
             inkscape:connector-curvature="0" />
          <path
             d="m 288.63784,138.2183 1.52273,0 -5.41569,11.59619 -1.52273,0 z"
             style="font-style:normal;font-variant:normal;font-weight:bold;font-stretch:normal;font-size:14.11111069px;font-family:'DejaVu Sans Mono';-inkscape-font-specification:'DejaVu Sans Mono Bold';text-align:center;text-anchor:middle;stroke-width:0.36694935"
             id="path1080"
             inkscape:connector-curvature="0" />
          <path
             d="m 296.78894,148.20908 q 0,1.73632 -0.62701,2.47357 -0.62012,0.74414 -2.06706,0.74414 l -2.1773,0 0,-1.55029 1.61231,0 q 0.67523,0 0.95773,-0.37896 0.2825,-0.37896 0.2825,-1.28846 l 0,-5.87045 -2.04639,0 0,-1.55029 4.06522,0 z m 0,-8.81945 -2.01883,0 0,-2.35644 2.01883,0 z"
             style="font-style:normal;font-variant:normal;font-weight:bold;font-stretch:normal;font-size:14.11111069px;font-family:'DejaVu Sans Mono';-inkscape-font-specification:'DejaVu Sans Mono Bold';text-align:center;text-anchor:middle;stroke-width:0.36694935"
             id="path1082"
             inkscape:connector-curvature="0" />
          <path
             d="m 302.46645,147.4167 0,4.02388 -2.01194,0 0,-10.65224 2.01194,0 0,1.15755 q 0.31695,-0.66835 0.83371,-1.00597 0.51677,-0.33762 1.21268,-0.33762 1.32291,0 2.05327,1.06109 0.73036,1.06109 0.73036,2.99035 0,1.95681 -0.74414,3.00412 -0.73725,1.04731 -2.1084,1.04731 -0.62011,0 -1.11621,-0.31695 -0.4892,-0.32384 -0.86127,-0.97152 z m 2.8112,-2.77674 q 0,-1.11621 -0.37207,-1.75011 -0.37207,-0.6339 -1.02664,-0.6339 -0.65457,0 -1.03353,0.6339 -0.37896,0.6339 -0.37896,1.75011 0,1.11621 0.37896,1.75011 0.37896,0.63389 1.03353,0.63389 0.65457,0 1.02664,-0.63389 0.37207,-0.6339 0.37207,-1.75011 z"
             style="font-style:normal;font-variant:normal;font-weight:bold;font-stretch:normal;font-size:14.11111069px;font-family:'DejaVu Sans Mono';-inkscape-font-specification:'DejaVu Sans Mono Bold';text-align:center;text-anchor:middle;stroke-width:0.36694935"
             id="path1084"
             inkscape:connector-curvature="0" />
          <path
             d="m 315.84031,142.91741 q -0.33073,-0.30317 -0.77859,-0.45475 -0.44097,-0.15159 -0.97152,-0.15159 -0.64078,0 -1.1231,0.22738 -0.47542,0.22048 -0.73725,0.64768 -0.16536,0.26182 -0.23427,0.63389 -0.062,0.37207 -0.062,1.13 l 0,3.55533 -2.01882,0 0,-7.71701 2.01882,0 0,1.19889 q 0.29628,-0.66146 0.90951,-1.01974 0.61323,-0.36519 1.43316,-0.36519 0.41341,0 0.80615,0.10336 0.39963,0.0965 0.75792,0.28939 z"
             style="font-style:normal;font-variant:normal;font-weight:bold;font-stretch:normal;font-size:14.11111069px;font-family:'DejaVu Sans Mono';-inkscape-font-specification:'DejaVu Sans Mono Bold';text-align:center;text-anchor:middle;stroke-width:0.36694935"
             id="path1086"
             inkscape:connector-curvature="0" />
          <path
             d="m 320.64278,142.24217 q -0.72347,0 -1.13689,0.64079 -0.41341,0.6339 -0.41341,1.77078 0,1.13688 0.41341,1.77767 0.41342,0.63389 1.13689,0.63389 0.73036,0 1.14377,-0.63389 0.41341,-0.64079 0.41341,-1.77767 0,-1.13688 -0.41341,-1.77078 -0.41341,-0.64079 -1.14377,-0.64079 z m -3.56912,2.41157 q 0,-1.86724 0.96462,-2.95589 0.97152,-1.09555 2.6045,-1.09555 1.63986,0 2.60449,1.09555 0.97151,1.08865 0.97151,2.95589 0,1.86724 -0.97151,2.96278 -0.96463,1.08865 -2.60449,1.08865 -1.63298,0 -2.6045,-1.08865 -0.96462,-1.09554 -0.96462,-2.96278 z"
             style="font-style:normal;font-variant:normal;font-weight:bold;font-stretch:normal;font-size:14.11111069px;font-family:'DejaVu Sans Mono';-inkscape-font-specification:'DejaVu Sans Mono Bold';text-align:center;text-anchor:middle;stroke-width:0.36694935"
             id="path1088"
             inkscape:connector-curvature="0" />
          <path
             d="m 329.97899,140.1131 0,0.67524 2.37022,0 0,1.55029 -2.37022,0 0,6.16672 -2.01883,0 0,-6.16672 -1.87413,0 0,-1.55029 1.87413,0 0,-0.53743 q 0,-1.39182 0.57878,-1.92926 0.57877,-0.53743 2.14973,-0.53743 l 1.66054,0 0,1.55029 -1.57785,0 q -0.45476,0 -0.62012,0.16536 -0.15847,0.16537 -0.17225,0.61323 z"
             style="font-style:normal;font-variant:normal;font-weight:bold;font-stretch:normal;font-size:14.11111069px;font-family:'DejaVu Sans Mono';-inkscape-font-specification:'DejaVu Sans Mono Bold';text-align:center;text-anchor:middle;stroke-width:0.36694935"
             id="path1090"
             inkscape:connector-curvature="0" />
          <path
             d="m 341.87146,150.52418 0,1.30914 -8.49561,0 0,-1.30914 z"
             style="font-style:normal;font-variant:normal;font-weight:bold;font-stretch:normal;font-size:14.11111069px;font-family:'DejaVu Sans Mono';-inkscape-font-specification:'DejaVu Sans Mono Bold';text-align:center;text-anchor:middle;stroke-width:0.36694935"
             id="path1092"
             inkscape:connector-curvature="0" />
          <path
             d="m 347.72123,144.66752 q 0,-1.11621 -0.37207,-1.75011 -0.37207,-0.6339 -1.02664,-0.6339 -0.65457,0 -1.03353,0.6339 -0.37896,0.6339 -0.37896,1.75011 0,1.11621 0.37896,1.75011 0.37896,0.63389 1.03353,0.63389 0.65457,0 1.02664,-0.63389 0.37207,-0.6339 0.37207,-1.75011 z m -2.8112,-2.78364 q 0.37207,-0.64079 0.86127,-0.95774 0.4961,-0.32384 1.11622,-0.32384 1.37114,0 2.10839,1.04731 0.74414,1.04731 0.74414,3.00413 0,1.92925 -0.73036,2.99034 -0.73036,1.06109 -2.05327,1.06109 -0.69591,0 -1.21268,-0.33762 -0.51676,-0.33762 -0.83371,-1.00597 l 0,1.14377 -2.01194,0 0,-10.72113 2.01194,0 z"
             style="font-style:normal;font-variant:normal;font-weight:bold;font-stretch:normal;font-size:14.11111069px;font-family:'DejaVu Sans Mono';-inkscape-font-specification:'DejaVu Sans Mono Bold';text-align:center;text-anchor:middle;stroke-width:0.36694935"
             id="path1094"
             inkscape:connector-curvature="0" />
          <path
             d="m 355.2522,149.33907 q -0.40652,1.08865 -0.97841,1.58474 -0.56499,0.50298 -1.37803,0.50298 l -1.66743,0 0,-1.53651 0.81993,0 q 0.62012,0 0.90951,-0.21359 0.28938,-0.20671 0.58566,-0.97152 l 0.15159,-0.41341 -2.93522,-7.50342 2.12217,0 1.76389,5.00917 1.6881,-5.00917 2.12218,0 z"
             style="font-style:normal;font-variant:normal;font-weight:bold;font-stretch:normal;font-size:14.11111069px;font-family:'DejaVu Sans Mono';-inkscape-font-specification:'DejaVu Sans Mono Bold';text-align:center;text-anchor:middle;stroke-width:0.36694935"
             id="path1096"
             inkscape:connector-curvature="0" />
        </g>
      </g>
    </g>
  </g>
</svg>
