<?xml version="1.0" encoding="UTF-8" standalone="no"?>
<!-- Created with Inkscape (http://www.inkscape.org/) -->

<svg
   xmlns:dc="http://purl.org/dc/elements/1.1/"
   xmlns:cc="http://creativecommons.org/ns#"
   xmlns:rdf="http://www.w3.org/1999/02/22-rdf-syntax-ns#"
   xmlns:svg="http://www.w3.org/2000/svg"
   xmlns="http://www.w3.org/2000/svg"
   xmlns:sodipodi="http://sodipodi.sourceforge.net/DTD/sodipodi-0.dtd"
   xmlns:inkscape="http://www.inkscape.org/namespaces/inkscape"
   width="420mm"
   height="297mm"
   viewBox="0 0 420 297"
   version="1.1"
   id="svg8"
   inkscape:version="0.92.2 2405546, 2018-03-11"
   sodipodi:docname="free_tea.svg">
  <defs
     id="defs2" />
  <sodipodi:namedview
     id="base"
     pagecolor="#ffffff"
     bordercolor="#666666"
     borderopacity="1.0"
     inkscape:pageopacity="0.0"
     inkscape:pageshadow="2"
     inkscape:zoom="0.5"
     inkscape:cx="1181.669"
     inkscape:cy="663.49958"
     inkscape:document-units="px"
     inkscape:current-layer="layer1"
     showgrid="false"
     showborder="true"
     inkscape:window-width="1920"
     inkscape:window-height="1001"
     inkscape:window-x="0"
     inkscape:window-y="0"
     inkscape:window-maximized="1"
     inkscape:snap-global="false" />
  <metadata
     id="metadata5">
    <rdf:RDF>
      <cc:Work
         rdf:about="">
        <dc:format>image/svg+xml</dc:format>
        <dc:type
           rdf:resource="http://purl.org/dc/dcmitype/StillImage" />
        <dc:title />
      </cc:Work>
    </rdf:RDF>
  </metadata>
  <g
     inkscape:label="Layer 1"
     inkscape:groupmode="layer"
     id="layer1">
    <g
       id="g1005"
       transform="translate(24.833749,-12.216113)">
      <g
         id="g968">
        <path
           inkscape:connector-curvature="0"
           style="fill:#d5945e;stroke-width:0.58891565"
           d="m 151.69025,248.76665 v 22.8988 c 0,1.58065 -1.27971,2.86213 -2.8586,2.86213 H 101.3839 c -1.578882,0 -2.858596,-1.28148 -2.858596,-2.86213 v -22.8988 c 0,-1.58066 1.279714,-2.86214 2.858596,-2.86214 h 47.44775 c 1.57889,0 2.8586,1.28148 2.8586,2.86214 z m 166.92579,-2.86214 h -47.44775 c -1.57889,0 -2.8586,1.28148 -2.8586,2.86214 v 22.8988 c 0,1.58065 1.27971,2.86213 2.8586,2.86213 h 47.44775 c 1.57888,0 2.85859,-1.28148 2.85859,-2.86213 v -22.8988 c -5.8e-4,-1.58066 -1.28029,-2.86214 -2.85859,-2.86214 z"
           id="path2712" />
        <path
           inkscape:connector-curvature="0"
           style="fill:#e6af78;stroke-width:0.58891565"
           d="m 356.34552,231.59269 v 22.8988 c 0,1.58066 -1.27972,2.86214 -2.85861,2.86214 H 66.513027 c -1.578883,0 -2.858596,-1.28148 -2.858596,-2.86214 v -22.8988 c 0,-1.58065 1.279713,-2.86213 2.858596,-2.86213 95.658153,0 191.316323,0 286.974483,0 1.57829,0 2.85801,1.28148 2.85801,2.86213 z"
           id="path2714"
           sodipodi:nodetypes="ssssssccs" />
        <path
           inkscape:connector-curvature="0"
           style="fill:#963737;stroke-width:0.58891565"
           d="m 80.776564,205.83176 h 40.072176 v 14.31182 c 0,4.74254 -3.83914,8.58698 -8.5752,8.58698 H 89.351177 c -4.736061,0 -8.574613,-3.84444 -8.574613,-8.58698 0,0 0,-14.31182 0,-14.31182 z m 200.681256,-85.8698 v 0 -8.58698 c 0,-1.58065 -1.27972,-2.86213 -2.85859,-2.86213 h 2.85859 v 0 c 0,-13.857184 -9.83372,-25.412888 -22.8941,-28.054762 v -6.293153 c 0,-6.323188 -5.11885,-11.449109 -11.43321,-11.449109 v 0 c -6.31435,0 -11.4332,5.125921 -11.4332,11.449109 v 6.293153 c -13.06039,2.641286 -22.89469,14.196989 -22.89469,28.054762 v 0 h 2.85859 c -1.57828,0 -2.85859,1.28148 -2.85859,2.86213 v 8.58698 0 c -14.06919,0 -26.64903,6.36736 -35.03871,16.37539 l -20.39474,-20.4236 c -1.07242,-1.07359 -2.52586,-1.67664 -4.04232,-1.67664 h -18.21457 c -1.57888,0 -2.8586,1.28148 -2.8586,2.86213 0,10.95796 3.5494,21.62027 10.11463,30.38687 l 22.27927,29.74731 c 1.34743,1.79914 3.10948,3.06942 5.04053,3.81028 5.03817,14.24941 16.91129,25.26271 31.68071,29.06947 v 10.02982 c 0,4.74254 3.83915,8.58698 8.5752,8.58698 h 74.37181 c 4.73547,0 8.5752,-3.84444 8.5752,-8.58698 v -10.02982 c 19.72514,-5.08411 34.29962,-23.01482 34.29962,-44.35418 v 0 c 0,-25.29275 -20.47542,-45.79703 -45.73283,-45.79703 z"
           id="path2716" />
        <path
           inkscape:connector-curvature="0"
           style="fill:#aa4141;stroke-width:0.58891565"
           d="m 312.61322,165.75899 v 0 c 0,25.29333 -20.47542,45.79702 -45.73283,45.79702 h -54.07777 c -25.25741,0 -45.73283,-20.50427 -45.73283,-45.79702 v 0 c 0,-25.29334 20.47542,-45.79703 45.73283,-45.79703 v -8.58698 c 0,-1.58065 1.27971,-2.86213 2.85859,-2.86213 h -2.85859 v 0 c 0,-15.593307 12.45439,-28.265595 27.94404,-28.607166 15.48966,0.341571 27.94406,13.013269 27.94406,28.607166 v 0 h -4.66834 c 1.57889,0 2.8586,1.28148 2.8586,2.86213 v 8.58698 c 25.25682,0 45.73224,20.50428 45.73224,45.79703 z"
           id="path2718" />
        <path
           inkscape:connector-curvature="0"
           style="fill:#d24a4a;stroke-width:0.58891565"
           d="m 137.97029,180.07081 v 2.86213 c 0,15.80826 -12.79714,28.62307 -28.58303,28.62307 H 92.237452 c -15.785884,0 -28.583021,-12.81481 -28.583021,-28.62307 v -2.86213 c 0,-1.58064 1.279713,-2.86212 2.858596,-2.86212 h 68.599253 c 1.57829,0 2.85801,1.28148 2.85801,2.86212 z M 284.31583,102.788 h -74.37181 c -4.73547,0 -8.5752,3.84444 -8.5752,8.58698 0,4.74254 3.83915,8.58698 8.5752,8.58698 h 74.37181 c 4.73547,0 8.5752,-3.84444 8.5752,-8.58698 0,-4.74254 -3.83914,-8.58698 -8.5752,-8.58698 z"
           id="path2720" />
        <path
           inkscape:connector-curvature="0"
           style="fill:#d5945e;stroke-width:0.58891565"
           d="m 356.34552,231.59269 v 22.8988 c 0,1.58066 -1.27972,2.86214 -2.85861,2.86214 h -14.2918 c 1.57888,0 2.85859,-1.28148 2.85859,-2.86214 v -22.8988 c 0,-1.58065 -1.27971,-2.86213 -2.85859,-2.86213 h 14.2918 c 1.57889,0 2.85861,1.28148 2.85861,2.86213 z"
           id="path2722" />
        <path
           inkscape:connector-curvature="0"
           style="fill:#c83741;stroke-width:0.58891565"
           d="m 135.11228,177.20869 h -13.14813 c 1.57888,0 2.85859,1.28148 2.85859,2.86212 v 2.86213 c 0,15.80826 -12.79713,28.62307 -28.583018,28.62307 h 13.148128 c 15.78589,0 28.58302,-12.81481 28.58302,-28.62307 v -2.86213 c -5.8e-4,-1.58064 -1.2803,-2.86212 -2.85859,-2.86212 z M 284.31583,102.788 H 271.1677 c 4.73547,0 8.5752,3.84444 8.5752,8.58698 0,4.74254 -3.83914,8.58698 -8.5752,8.58698 h 13.14813 c 4.73547,0 8.5752,-3.84444 8.5752,-8.58698 0,-4.74254 -3.83914,-8.58698 -8.5752,-8.58698 z"
           id="path2724" />
        <path
           sodipodi:nodetypes="sccccsscccccsssccccccsccccsccssssssccsccssssccssssccccssssccsssscccccccssssccccssccccsccssccscccssssccccsscssssscssccccccccccssssscsccssssccssssssccccccccscssccscccccsssscccccsccsssscccccccccccccccccccccccccccccccc"
           style="stroke-width:0.58891565"
           d="m 247.13051,61.453324 c -7.28186,0 -13.154,5.857151 -13.154,13.09732 v 2.82865 c -5.3e-4,1.175771 -0.76235,2.215843 -1.88319,2.571032 -9.18164,2.909485 -16.51759,10.036131 -19.54808,19.452765 -0.35944,1.114839 -1.3971,1.870449 -2.56846,1.870309 h -0.0746 c -5.67776,0 -10.25322,4.57353 -10.25322,10.25064 0,1.78032 0.45138,3.43804 1.24688,4.89475 0.82312,1.50845 0.0452,3.39176 -1.60239,3.87973 -7.53007,2.2296 -14.28223,6.2701 -19.74645,11.62117 -1.0552,1.03368 -2.7454,1.02679 -3.79214,-0.0155 L 158.58192,114.8164 c -1.41606,-1.40951 -3.25063,-2.16657 -5.25542,-2.16657 h -18.21362 c -2.55171,0 -4.57788,2.0252 -4.57788,4.56242 0,11.1737 3.72135,22.29169 10.45931,31.23108 l 22.28141,29.55655 c 1.12923,1.49705 2.59133,2.75261 4.23009,3.64273 0.55186,0.29976 0.98188,0.78262 1.21597,1.36538 5.15163,12.84621 15.82561,22.93944 29.08254,27.34876 1.10195,0.36756 1.84499,1.3991 1.84454,2.56074 v 6.68777 c 0,1.13723 0.18916,2.22319 0.53584,3.25115 0.58939,1.74837 -0.71053,3.55935 -2.55557,3.56029 h -73.03996 c -1.84504,-9.4e-4 -3.14497,-1.81192 -2.55558,-3.56029 0.34567,-1.0249 0.53327,-2.1107 0.53327,-3.25115 v -8.56323 c -2e-5,-0.96754 0.51799,-1.86104 1.35765,-2.34176 9.40382,-5.37276 15.76625,-15.4753 15.76625,-27.07312 v -1.7415 c 0,-2.59568 -2.06863,-4.66288 -4.66547,-4.66288 H 66.599265 c -2.596837,0 -4.665468,2.0672 -4.665468,4.66288 v 1.7415 c 0,11.59782 6.362429,21.70037 15.766246,27.07312 0.839665,0.48072 1.357673,1.37422 1.357647,2.34176 v 8.56323 c 0,1.14045 0.1876,2.22625 0.533271,3.25115 0.589388,1.74837 -0.710537,3.55935 -2.555575,3.56029 H 66.599265 c -2.59569,0 -4.665468,2.06977 -4.665468,4.66547 v 22.5519 c 0,2.59571 2.069766,4.66547 4.665468,4.66547 h 27.508493 c 1.489416,5.8e-4 2.696679,1.20784 2.697265,2.69726 v 9.80238 c 0,2.53804 2.027058,4.565 4.577877,4.565 h 47.44816 c 2.55057,0 4.57787,-2.02777 4.57787,-4.565 v -9.80238 c 5.8e-4,-1.4894 1.20786,-2.69668 2.69727,-2.69726 h 107.78496 c 1.48941,5.8e-4 2.69668,1.20786 2.69726,2.69726 v 9.80238 c 0,2.53687 2.02965,4.565 4.58046,4.565 h 47.44558 c 2.55056,0 4.58046,-2.02893 4.58046,-4.565 v -9.80238 c 5.8e-4,-1.4894 1.20785,-2.69668 2.69726,-2.69726 h 27.5085 c 2.59571,0 4.66547,-2.06976 4.66547,-4.66547 v -22.5519 c 0,-2.5957 -2.06978,-4.66547 -4.66547,-4.66547 h -56.76879 c -1.84504,-9.4e-4 -3.14496,-1.81192 -2.55558,-3.56029 0.34568,-1.02491 0.53327,-2.1107 0.53327,-3.25115 l 0.003,-6.68777 c -4.4e-4,-1.16164 0.7426,-2.19318 1.84455,-2.56074 8.07365,-2.68526 15.18824,-7.47273 20.68418,-13.71559 0.51232,-0.58148 1.24991,-0.91461 2.02488,-0.91455 h 14.31327 c 13.58714,0 24.58711,-10.96122 24.58711,-24.47375 v -11.37643 c 0,-13.51252 -10.99997,-24.47374 -24.58711,-24.47374 h -14.31327 c -0.77497,7e-5 -1.51256,-0.33307 -2.02488,-0.91455 -5.83296,-6.62507 -13.48685,-11.61659 -22.17579,-14.18962 -1.64767,-0.48797 -2.4255,-2.37128 -1.60239,-3.87973 0.7955,-1.45673 1.24687,-3.11445 1.24687,-4.89475 0,-5.67761 -4.57422,-10.25322 -10.25063,-10.25322 h -0.0799 c -1.17066,5e-4 -2.2081,-0.75391 -2.56845,-1.867729 -3.03205,-9.394724 -10.38583,-16.525919 -19.54808,-19.442461 -1.11881,-0.357009 -1.87823,-1.396648 -1.87804,-2.571031 v -2.838955 c 0,-7.240172 -5.87213,-13.09732 -13.154,-13.09732 z m 0,3.439206 c 5.32058,0 9.7148,4.344371 9.71478,9.658114 v 1.298397 c 4.9e-4,1.530577 -1.27082,2.755111 -2.8003,2.697265 -0.40677,-0.01537 -0.79614,-0.02833 -1.16959,-0.02833 h -11.48978 c -0.37327,-2e-6 -0.76505,0.01306 -1.17216,0.02833 -1.52849,0.05635 -2.79817,-1.167737 -2.79773,-2.697265 v -1.298397 c 0,-5.313748 4.39421,-9.658114 9.71478,-9.658114 z m -5.74489,17.067219 h 11.48978 c 10.62859,0 20.05924,6.159743 24.381,15.482867 0.82648,1.787414 -0.47813,3.829464 -2.44736,3.830784 h -55.36477 c -1.96862,-3e-4 -3.2743,-2.040488 -2.44997,-3.828208 4.31209,-9.331154 13.73486,-15.485443 24.39132,-15.485443 z m -31.48355,22.752861 h 74.45688 c 3.73121,0 6.81142,3.07955 6.81142,6.81143 0,3.73142 -3.07796,6.814 -6.81142,6.814 h -74.45688 c -3.73325,0 -6.814,-3.08008 -6.814,-6.814 0,-3.73346 3.08259,-6.81143 6.814,-6.81143 z m -73.21772,11.37642 c 0.005,-10e-6 0.0103,-10e-6 0.0155,0 h 16.62669 c 1.07256,0 2.06838,0.40791 2.83123,1.16702 l 17.64944,17.56184 c 0.9354,0.93139 1.05965,2.40279 0.29367,3.47785 -5.50512,7.71531 -8.75184,17.10741 -8.75129,27.26891 0,0.40204 0.0235,0.86182 0.0387,1.38856 0.54922,9.29903 -1.65178,6.14846 -4.85096,1.70029 l -16.79415,-22.28142 c -5.97157,-7.92276 -9.39217,-17.6036 -9.74055,-27.49046 -0.0532,-1.52044 1.16047,-2.7842 2.68181,-2.79259 z m 76.11851,5.68822 h 68.6553 c 24.23696,0 44.0141,19.65859 44.0141,43.7874 0,24.12821 -19.77654,43.7874 -44.0141,43.7874 h -17.14965 c -0.98104,0 -1.7209,0.74037 -1.7209,1.72088 0,0.98099 0.73623,1.71809 1.7209,1.71833 h 17.14965 c 2.24891,0 4.46568,-0.16617 6.64398,-0.47144 1.62229,-0.22612 3.07022,1.03353 3.07082,2.6715 v 4.61394 c 0,3.74928 -3.11739,6.81144 -6.85781,6.81144 h -74.36928 c -3.73995,0 -6.8578,-3.06195 -6.8578,-6.81144 v -4.61394 c 6e-4,-1.63796 1.44854,-2.89761 3.07081,-2.6715 2.17838,0.30528 4.39444,0.47144 6.64398,0.47144 h 34.07003 c 0.98295,0 1.71831,-0.73588 1.71831,-1.71833 0,-0.98243 -0.73726,-1.72088 -1.71831,-1.72088 h -34.07003 c -24.23695,0 -44.0141,-19.65858 -44.0141,-43.7874 0,-10.35567 3.65041,-19.90165 9.71737,-27.40287 0.12082,-0.1498 0.25723,-0.28626 0.40703,-0.40704 0.0711,-0.057 0.12082,-0.10026 0.14941,-0.12881 0.10447,-0.10505 0.19965,-0.23147 0.28339,-0.38128 0.0925,-0.16564 0.20211,-0.32107 0.32717,-0.46371 8.07091,-9.18341 19.94267,-15.0037 33.12973,-15.0037 z m 112.59985,17.06464 h 8.07633 c 11.62743,0 21.14532,9.45136 21.14532,21.03454 v 11.37643 c 0,11.58319 -9.51789,21.03455 -21.14532,21.03455 h -8.07633 c -2.0558,-3.8e-4 -3.35606,-2.2077 -2.35979,-4.00597 3.73773,-6.74732 5.86855,-14.478 5.86855,-22.71679 0,-8.2388 -2.13073,-15.97133 -5.86855,-22.71937 -0.99337,-1.79766 0.30593,-4.00192 2.35979,-4.00339 z M 68.070266,178.66197 h 65.484024 c 1.48941,5.8e-4 2.69668,1.20784 2.69726,2.69726 v 0.26792 c 0,15.2647 -12.4631,27.7249 -27.72747,27.7249 H 93.10047 c -15.264363,0 -27.727468,-12.4602 -27.727469,-27.7249 v -0.26792 c 5.86e-4,-1.48942 1.20785,-2.69668 2.697265,-2.69726 z m 17.203757,33.18898 c 0.185849,0.005 0.370598,0.0309 0.551304,0.0747 2.339898,0.56231 4.770729,0.86559 7.275143,0.86559 h 15.42361 c 2.50466,0 4.93819,-0.30379 7.27772,-0.86559 1.69641,-0.40741 3.32768,0.8779 3.32843,2.62255 v 5.05704 c 0,3.7493 -3.11737,6.81144 -6.8578,6.81144 H 89.352122 c -3.740426,0 -6.855226,-3.06418 -6.855226,-6.81144 v -5.05704 c -5.1e-5,-1.52116 1.256624,-2.74169 2.777127,-2.69726 z M 68.070266,229.8559 H 351.92968 c 1.48941,5.8e-4 2.69668,1.20785 2.69726,2.69726 v 19.60992 c -5.8e-4,1.48941 -1.20785,2.69668 -2.69726,2.69726 H 68.070266 c -1.489415,-5.8e-4 -2.696679,-1.20784 -2.697265,-2.69726 v -19.60992 c 5.86e-4,-1.48942 1.20785,-2.69668 2.697265,-2.69726 z m 34.871224,28.44364 h 44.33098 c 1.48941,5.8e-4 2.69668,1.20786 2.69726,2.69726 v 8.23092 c -5.8e-4,1.48941 -1.20785,2.69668 -2.69726,2.69726 h -44.33098 c -1.48941,-5.8e-4 -2.69668,-1.20784 -2.69726,-2.69726 v -8.23092 c 5.8e-4,-1.48942 1.20785,-2.69668 2.69726,-2.69726 z m 169.78598,0 h 44.33098 c 1.48941,5.8e-4 2.69669,1.20786 2.69727,2.69726 v 8.23092 c -5.8e-4,1.48941 -1.20786,2.69668 -2.69727,2.69726 h -44.33098 c -1.4894,-5.8e-4 -2.69668,-1.20785 -2.69726,-2.69726 v -8.23092 c 5.8e-4,-1.4894 1.20786,-2.69668 2.69726,-2.69726 z"
           id="path2726"
           inkscape:connector-curvature="0" />
        <g
           id="g2728"
           transform="matrix(0.58891565,0,0,0.58891565,59.237563,-2.262183)" />
        <g
           id="g2730"
           transform="matrix(0.58891565,0,0,0.58891565,59.237563,-2.262183)" />
        <g
           id="g2732"
           transform="matrix(0.58891565,0,0,0.58891565,59.237563,-2.262183)" />
        <g
           id="g2734"
           transform="matrix(0.58891565,0,0,0.58891565,59.237563,-2.262183)" />
        <g
           id="g2736"
           transform="matrix(0.58891565,0,0,0.58891565,59.237563,-2.262183)" />
        <g
           id="g2738"
           transform="matrix(0.58891565,0,0,0.58891565,59.237563,-2.262183)" />
        <g
           id="g2740"
           transform="matrix(0.58891565,0,0,0.58891565,59.237563,-2.262183)" />
        <g
           id="g2742"
           transform="matrix(0.58891565,0,0,0.58891565,59.237563,-2.262183)" />
        <g
           id="g2744"
           transform="matrix(0.58891565,0,0,0.58891565,59.237563,-2.262183)" />
        <g
           id="g2746"
           transform="matrix(0.58891565,0,0,0.58891565,59.237563,-2.262183)" />
        <g
           id="g2748"
           transform="matrix(0.58891565,0,0,0.58891565,59.237563,-2.262183)" />
        <g
           id="g2750"
           transform="matrix(0.58891565,0,0,0.58891565,59.237563,-2.262183)" />
        <g
           id="g2752"
           transform="matrix(0.58891565,0,0,0.58891565,59.237563,-2.262183)" />
        <g
           id="g2754"
           transform="matrix(0.58891565,0,0,0.58891565,59.237563,-2.262183)" />
        <g
           id="g2756"
           transform="matrix(0.58891565,0,0,0.58891565,59.237563,-2.262183)" />
        <text
           xml:space="preserve"
           style="font-style:normal;font-variant:normal;font-weight:normal;font-stretch:normal;font-size:10.58333302px;line-height:1.25;font-family:'Sea Balance Personal Use';-inkscape-font-specification:'Sea Balance Personal Use';letter-spacing:0px;word-spacing:0px;fill:#000000;fill-opacity:1;stroke:none;stroke-width:0.26458332"
           x="245.53333"
           y="28.183331"
           id="text842"><tspan
             sodipodi:role="line"
             id="tspan840"
             x="245.53333"
             y="36.337925"
             style="font-style:normal;font-variant:normal;font-weight:normal;font-stretch:normal;font-family:'Sea Balance Personal Use';-inkscape-font-specification:'Sea Balance Personal Use';stroke-width:0.26458332"></tspan></text>
      </g>
      <g
         transform="matrix(0.84219422,0,0,0.84219422,-175.73881,13.283034)"
         id="text846"
         style="font-style:normal;font-variant:normal;font-weight:normal;font-stretch:normal;font-size:48.29257202px;line-height:1;font-family:Lactosa;-inkscape-font-specification:Lactosa;letter-spacing:0px;word-spacing:0px;fill:#000000;fill-opacity:1;stroke:none;stroke-width:0.50304765"
         aria-label="
Free tea">
        <path
           inkscape:connector-curvature="0"
           id="path850"
           style="font-style:normal;font-variant:normal;font-weight:normal;font-stretch:normal;font-family:Lactosa;-inkscape-font-specification:Lactosa;stroke-width:0.50304765"
           d="m 256.02271,65.054373 c 0.14488,1.931702 -1.88341,2.800969 -4.24975,2.800969 -1.3039,0 -2.51121,-0.193171 -3.71853,-0.579511 0.38634,-5.553646 1.15903,-11.397047 2.17317,-13.183872 0.28976,-0.531219 0.43463,-1.014144 0.43463,-1.545363 0,-1.497069 -1.11073,-2.511213 -2.6078,-3.042432 -1.69024,-0.57951 -3.28389,-1.207314 -4.58779,-1.207314 -1.3039,0 -2.22146,0.627804 -2.55951,2.607799 -1.15902,6.76096 -1.35219,14.680942 -1.35219,20.138002 0,4.587795 0.72439,19.413614 -3.04243,19.413614 -0.38634,0 -0.77268,0.386341 -0.77268,1.352192 0,1.014144 0.96585,3.380481 4.78096,3.380481 5.16731,0 6.03657,-6.857546 7.1956,-22.069706 2.07658,0.820974 4.15316,1.255607 6.32632,1.255607 4.05658,0 7.96828,-2.269751 7.96828,-6.422912 0,-2.752677 -2.46292,-3.718528 -4.24975,-3.718528 -0.96585,0 -1.78682,0.289755 -1.73853,0.820974 z m 16.2746,-24.291164 c 0.91755,3.139017 -2.70439,5.022427 -6.90584,5.408768 -8.20974,-0.19317 -17.38533,-7.099008 -26.7058,-7.099008 -9.46534,0 -15.45362,7.292178 -15.45362,13.087287 0,5.26389 3.47707,9.561929 9.46535,9.561929 1.73853,0 2.5595,-1.88341 2.5595,-3.477065 0,-1.352192 -0.57951,-2.366336 -1.69024,-1.448777 -0.96585,0 -2.41463,-1.400485 -2.41463,-4.201454 0,-5.360476 4.73268,-7.388764 9.36876,-7.388764 9.03071,0 17.77167,9.899978 29.21701,9.899978 5.8434,0 12.07314,-3.332188 12.3146,-10.238026 0.14488,-4.491209 -3.42877,-5.939986 -6.08486,-5.939986 -2.12487,0 -3.9117,0.869266 -3.67023,1.835118 z" />
        <path
           inkscape:connector-curvature="0"
           id="path852"
           style="font-style:normal;font-variant:normal;font-weight:normal;font-stretch:normal;font-family:Lactosa;-inkscape-font-specification:Lactosa;text-align:center;letter-spacing:0.00529167px;word-spacing:0.26458332px;text-anchor:middle;stroke-width:0.50304765"
           d="m 279.37293,61.43243 c -1.73853,0.241463 -3.42877,1.593655 -4.73267,3.187309 0.38634,-4.298038 -8.69266,-6.519497 -9.85169,-2.366336 -0.77268,2.897555 -3.57365,14.487772 -1.64194,20.717514 0.91755,2.607799 3.76682,2.511214 4.82925,2.511214 3.62195,0 3.86341,-1.255607 3.71853,-1.979996 -0.77268,-4.684379 0.0483,-9.417051 0.96585,-12.749239 v 0.04829 c 0.86927,-1.883411 2.55951,-4.346332 4.63609,-4.346332 -0.77268,1.979996 1.20731,3.815113 3.04243,3.815113 2.07658,-0.144877 3.81511,-1.835117 4.05658,-3.621943 0.77268,-4.056576 -3.2839,-5.505353 -5.02243,-5.215597 z" />
        <path
           inkscape:connector-curvature="0"
           id="path854"
           style="font-style:normal;font-variant:normal;font-weight:normal;font-stretch:normal;font-family:Lactosa;-inkscape-font-specification:Lactosa;text-align:center;letter-spacing:0.00529167px;word-spacing:0.26458332px;text-anchor:middle;stroke-width:0.50304765"
           d="m 313.84252,70.511433 c -1.11073,0 -1.64195,0.965852 -1.64195,2.269751 0,0.965852 -2.41463,5.795109 -8.25803,5.795109 -2.36634,0 -5.2156,-1.110729 -6.95413,-2.99414 4.82926,-0.531218 9.99656,-2.607799 10.86583,-7.437056 0.77268,-4.056576 -3.13902,-8.64437 -9.70681,-8.64437 -7.34047,0 -13.08729,6.809252 -13.08729,13.908261 0,6.905837 6.13316,12.073143 14.10144,12.073143 11.20387,0 16.41947,-9.368759 16.41947,-13.038995 0,-1.014144 -0.43463,-1.931703 -1.73853,-1.931703 z M 294.81524,69.88363 c 0,-3.766821 2.26975,-7.195593 4.82926,-6.809253 0.91756,0.144878 1.3039,0.917559 1.3039,2.028288 0,2.897554 -2.6078,7.678519 -5.31218,8.4512 -0.57951,-1.159021 -0.82098,-2.366336 -0.82098,-3.670235 z" />
        <path
           inkscape:connector-curvature="0"
           id="path856"
           style="font-style:normal;font-variant:normal;font-weight:normal;font-stretch:normal;font-family:Lactosa;-inkscape-font-specification:Lactosa;text-align:center;letter-spacing:0.00529167px;word-spacing:0.26458332px;text-anchor:middle;stroke-width:0.50304765"
           d="m 340.44645,70.511433 c -1.11073,0 -1.64194,0.965852 -1.64194,2.269751 0,0.965852 -2.41463,5.795109 -8.25803,5.795109 -2.36634,0 -5.2156,-1.110729 -6.95413,-2.99414 4.82925,-0.531218 9.99656,-2.607799 10.86582,-7.437056 0.77268,-4.056576 -3.13901,-8.64437 -9.7068,-8.64437 -7.34047,0 -13.08729,6.809252 -13.08729,13.908261 0,6.905837 6.13316,12.073143 14.10143,12.073143 11.20388,0 16.41948,-9.368759 16.41948,-13.038995 0,-1.014144 -0.43464,-1.931703 -1.73854,-1.931703 z M 321.41918,69.88363 c 0,-3.766821 2.26975,-7.195593 4.82926,-6.809253 0.91756,0.144878 1.3039,0.917559 1.3039,2.028288 0,2.897554 -2.6078,7.678519 -5.31219,8.4512 -0.57951,-1.159021 -0.82097,-2.366336 -0.82097,-3.670235 z" />
        <path
           inkscape:connector-curvature="0"
           id="path858"
           style="font-style:normal;font-variant:normal;font-weight:normal;font-stretch:normal;font-family:Lactosa;-inkscape-font-specification:Lactosa;text-align:center;letter-spacing:0.00529167px;word-spacing:0.26458332px;text-anchor:middle;stroke-width:0.50304765"
           d="m 381.30096,70.511433 c -1.15902,0 -1.64195,0.965852 -1.64195,2.269751 0,2.897554 -2.26975,5.26389 -4.78096,5.26389 -3.47707,0 -4.39463,-3.477065 -4.39463,-7.678519 0,-5.698523 1.78683,-12.652653 1.64195,-14.391186 0.82098,0.338048 1.73853,0.482926 3.2356,0.482926 3.62195,0 5.55365,-3.718528 3.71853,-3.718528 -0.77268,0 -1.01414,0.724388 -2.80097,0.724388 -1.49707,0 -3.38048,-0.772681 -3.71853,-1.014144 l 0.38635,-3.187309 c 0.38634,-4.394625 -2.55951,-5.795109 -5.11902,-5.795109 -2.80097,0 -4.20145,1.303899 -4.68438,2.173166 -0.28975,0.531218 1.49707,1.545362 1.49707,4.008283 0,0.434633 -0.0966,0.965852 -0.24146,1.593655 -2.26975,-0.386341 -7.48535,0.386341 -8.25803,3.621943 -0.33805,1.400484 0.82097,2.607799 2.17317,2.849262 1.3039,0.241462 2.80097,-0.820974 2.80097,-1.69024 0,-1.014144 1.54536,-1.593655 2.70438,-1.207315 -0.6278,5.167306 -2.55951,12.652654 -2.55951,18.834103 0,5.553646 2.12488,11.831681 10.04486,11.831681 7.72681,0 11.6868,-9.368759 11.6868,-13.038995 0,-1.014144 -0.48293,-1.931703 -1.69024,-1.931703 z" />
        <path
           inkscape:connector-curvature="0"
           id="path860"
           style="font-style:normal;font-variant:normal;font-weight:normal;font-stretch:normal;font-family:Lactosa;-inkscape-font-specification:Lactosa;text-align:center;letter-spacing:0.00529167px;word-spacing:0.26458332px;text-anchor:middle;stroke-width:0.50304765"
           d="m 407.22351,70.511433 c -1.11072,0 -1.64194,0.965852 -1.64194,2.269751 0,0.965852 -2.41463,5.795109 -8.25803,5.795109 -2.36634,0 -5.2156,-1.110729 -6.95413,-2.99414 4.82925,-0.531218 9.99656,-2.607799 10.86583,-7.437056 0.77268,-4.056576 -3.13902,-8.64437 -9.70681,-8.64437 -7.34047,0 -13.08729,6.809252 -13.08729,13.908261 0,6.905837 6.13316,12.073143 14.10143,12.073143 11.20388,0 16.41948,-9.368759 16.41948,-13.038995 0,-1.014144 -0.43464,-1.931703 -1.73854,-1.931703 z M 388.19624,69.88363 c 0,-3.766821 2.26975,-7.195593 4.82926,-6.809253 0.91756,0.144878 1.3039,0.917559 1.3039,2.028288 0,2.897554 -2.6078,7.678519 -5.31219,8.4512 -0.57951,-1.159021 -0.82097,-2.366336 -0.82097,-3.670235 z" />
        <path
           inkscape:connector-curvature="0"
           id="path862"
           style="font-style:normal;font-variant:normal;font-weight:normal;font-stretch:normal;font-family:Lactosa;-inkscape-font-specification:Lactosa;text-align:center;letter-spacing:0.00529167px;word-spacing:0.26458332px;text-anchor:middle;stroke-width:0.50304765"
           d="m 444.54841,72.443136 c 0,-1.014144 -0.38634,-1.931703 -1.69024,-1.931703 -1.11073,0 -1.64195,0.965852 -1.64195,2.269751 0,0.965852 -1.35219,5.26389 -5.02243,5.26389 -1.97999,-0.144877 -2.12487,-2.414628 -2.12487,-3.95999 0.24146,-5.891694 2.46292,-7.002423 2.46292,-9.56193 0,-3.621943 -9.27217,-6.229742 -10.43119,-1.931703 -0.53122,1.69024 -0.82098,4.201454 -0.96586,7.292179 -1.06243,3.525358 -3.28389,8.161444 -7.29217,8.161444 -2.07658,0 -4.20146,-1.400484 -4.20146,-4.249746 0,-4.008283 2.84926,-7.630226 6.76096,-7.630226 2.12488,0 2.75268,0.434633 3.33219,0.434633 0.82097,0 1.25561,-0.386341 1.25561,-1.207314 0,-1.883411 -2.46292,-5.022428 -6.85755,-5.022428 -7.87169,0 -12.94241,8.499493 -12.94241,15.308745 0,5.795109 3.86341,10.093148 10.62437,10.093148 4.29804,0 7.87169,-2.511214 10.57607,-6.181449 l 0.14488,0.09659 c 0.48292,3.18731 1.78682,5.795109 5.98828,5.795109 5.65023,0 12.02485,-8.402908 12.02485,-13.038995 z" />
      </g>
      <path
         inkscape:connector-curvature="0"
         id="path2830"
         d="m 179.52287,234.46274 -2.66034,15.48288 h 1.40072 l 2.6692,-15.48288 z m -33.52797,1.33051 v 2.43813 h 2.50902 v 10.38372 h 2.70465 v -10.38372 h 2.4211 v -2.43813 z m 12.41426,0 v 12.82185 h 2.48312 v -7.98035 l 1.99509,7.98035 h 0.79817 l 1.99509,-7.98035 v 7.98035 h 2.48244 v -12.82185 h -3.10339 l -1.77356,6.38402 -1.77357,-6.38402 z m 11.0667,0 v 12.82185 h 6.31381 v -2.42926 h -3.61802 v -3.08637 h 3.3515 v -2.39381 h -3.38694 v -2.47428 h 3.56416 v -2.43813 z m 12.5206,0 v 12.82185 h 2.68692 v -4.68201 h 2.70465 v 4.68201 h 2.68693 v -7.10241 h -2.47426 l 2.45654,-5.71944 h -2.67807 l -2.51857,5.71944 h -0.17722 v -5.71944 z m 9.32858,0 v 12.82185 h 7.74111 v -12.82185 z m 8.93871,0 v 2.43813 h 2.50902 v 10.38372 h 2.70465 v -10.38372 h 2.4211 v -2.43813 z m 8.72535,0 v 12.82185 h 6.44672 v -2.42926 h -3.75979 v -10.39259 z m 7.59047,0 v 2.42926 h 0.88679 v 7.96333 h -0.88679 v 2.42926 h 4.46049 v -2.42926 h -0.88678 v -7.96333 h 0.88678 v -2.42926 z m 5.60425,0 v 12.82185 h 2.51856 v -7.36006 l 2.6249,7.36006 h 2.65967 v -12.82185 h -2.53561 v 7.3594 l -2.60718,-7.3594 z m 18.79894,0 v 12.82185 h 6.44672 v -2.42926 h -3.75979 v -10.39259 z m 9.65645,0 -2.06598,2.03051 v 10.79134 h 2.69579 v -4.21168 h 2.28818 v 4.21168 h 2.68625 v -12.82185 z m 6.62462,0 v 12.82185 h 2.51789 v -7.36006 l 2.62489,7.36006 h 2.66035 v -12.82185 h -2.53629 v 7.3594 l -2.60718,-7.3594 z m 9.07979,0 v 12.82185 h 7.66136 v -6.68596 h -3.75093 v 2.27934 h 1.09127 v 1.97736 h -2.30591 v -7.95446 h 4.52252 v -2.43813 z m -72.32279,2.43813 h 2.35907 v 7.95446 h -2.35907 z m 57.24819,0 h 2.28818 v 3.73322 h -2.28818 z m -96.54876,7.50186 v 2.88186 h 2.71351 v -2.88186 z m 76.54403,4.07948 v 1.80831 h 8.72536 v -1.80831 z"
         style="font-style:normal;font-variant:normal;font-weight:normal;font-stretch:normal;font-size:medium;line-height:1.25;font-family:'Aldo the Apache';-inkscape-font-specification:'Aldo the Apache';letter-spacing:0px;word-spacing:0px;fill:#000000;fill-opacity:1;stroke:none;stroke-width:0.45401347" />
    </g>
  </g>
</svg>
