<?xml version="1.0" encoding="UTF-8" standalone="no"?>
<!-- Created with Inkscape (http://www.inkscape.org/) -->

<svg
   xmlns:dc="http://purl.org/dc/elements/1.1/"
   xmlns:cc="http://creativecommons.org/ns#"
   xmlns:rdf="http://www.w3.org/1999/02/22-rdf-syntax-ns#"
   xmlns:svg="http://www.w3.org/2000/svg"
   xmlns="http://www.w3.org/2000/svg"
   xmlns:sodipodi="http://sodipodi.sourceforge.net/DTD/sodipodi-0.dtd"
   xmlns:inkscape="http://www.inkscape.org/namespaces/inkscape"
   width="420mm"
   height="297mm"
   viewBox="0 0 420 297"
   version="1.1"
   id="svg8"
   inkscape:version="0.92.2 2405546, 2018-03-11"
   sodipodi:docname="kotlin1.svg">
  <sodipodi:namedview
     id="base"
     pagecolor="#ffffff"
     bordercolor="#666666"
     borderopacity="1.0"
     inkscape:pageopacity="0.0"
     inkscape:pageshadow="2"
     inkscape:zoom="0.32"
     inkscape:cx="1393.0035"
     inkscape:cy="531.95294"
     inkscape:document-units="px"
     inkscape:current-layer="layer1"
     showgrid="false"
     showborder="true"
     inkscape:window-width="1920"
     inkscape:window-height="1001"
     inkscape:window-x="0"
     inkscape:window-y="0"
     inkscape:window-maximized="1" />
  <defs
     id="defs2" />
  <metadata
     id="metadata5">
    <rdf:RDF>
      <cc:Work
         rdf:about="">
        <dc:format>image/svg+xml</dc:format>
        <dc:type
           rdf:resource="http://purl.org/dc/dcmitype/StillImage" />
        <dc:title></dc:title>
      </cc:Work>
    </rdf:RDF>
  </metadata>
  <g
     id="layer1"
     inkscape:groupmode="layer"
     inkscape:label="Layer 1">
    <g
       id="g2143"
       transform="matrix(4.2973119,0,0,4.2973119,-573.76403,-472.21261)">
      <path
         style="fill:#ee453b;fill-opacity:1;stroke-width:0.26458332"
         d="m 191.69424,115.10512 c -0.92737,0.0246 -1.84854,0.32879 -2.62413,0.92035 -2.74816,2.09614 -2.32996,6.42916 0.75551,7.83002 1.46879,0.66686 2.72534,0.64231 4.15737,-0.0811 2.91377,-1.47198 3.41873,-5.11632 1.02475,-7.39592 -0.91843,-0.87455 -2.12116,-1.30487 -3.3135,-1.27331 z"
         id="path1824"
         inkscape:connector-curvature="0" />
      <path
         style="fill:#fbdf17;stroke-width:0.26458332"
         d="m 182.36406,123.99398 c -2.10749,0.0234 -4.2472,0.18111 -5.58673,0.46354 -4.23818,0.89357 -8.24037,2.95748 -11.1156,5.73298 -1.82119,1.75802 -3.96565,4.75912 -3.96565,5.54953 0,0.37137 3.38947,1.12873 21.62968,4.83278 11.89633,2.4158 21.92735,4.37234 22.29115,4.34754 0.64467,-0.044 0.65954,-0.0925 0.59944,-1.89756 -0.11215,-3.36731 -1.45698,-6.81913 -3.92379,-10.07018 -3.28368,-4.32762 -8.31956,-7.31331 -14.53503,-8.61757 -1.21071,-0.25405 -3.28597,-0.3645 -5.39347,-0.34106 z"
         id="path1822"
         inkscape:connector-curvature="0" />
      <path
         sodipodi:nodetypes="ccccc"
         style="fill:#1275bb;fill-opacity:1;stroke-width:0.26458332"
         d="m 143.17162,131.54804 -1.34927,7.47396 20.46749,21.86017 -2.77399,-19.72903 z"
         id="path1820"
         inkscape:connector-curvature="0" />
      <path
         style="fill:#e9128f;fill-opacity:1;stroke-width:0.26458332"
         d="m 207.72272,138.53728 c -0.16005,0.005 -0.26854,0.0288 -0.31264,0.0729 -0.14264,0.14265 -0.0719,0.88366 0.17467,1.83503 0.22743,0.8777 0.41341,2.0022 0.41341,2.49908 0,1.22804 0.45161,1.70431 1.80764,1.90582 1.65466,0.24587 3.6807,1.3564 4.28604,2.34921 0.67373,1.10493 0.68869,3.18853 0.0315,4.42661 -0.27978,0.52711 -0.98796,1.20517 -1.65365,1.58336 -1.07635,0.61146 -1.42305,0.66146 -4.58783,0.66146 h -3.42357 l -2.46496,4.58628 c -1.35594,2.52253 -2.38725,4.71301 -2.29185,4.86741 0.11785,0.19069 1.66671,0.22945 4.83019,0.1204 9.0075,-0.3105 13.7575,-2.06158 16.42381,-6.05441 1.54819,-2.31843 1.99161,-3.86739 1.99161,-6.95926 0,-2.43655 -0.0618,-2.75771 -0.78238,-4.05867 -1.4227,-2.56842 -4.64567,-4.9921 -8.63359,-6.49315 -1.82022,-0.68512 -4.51641,-1.30198 -5.63169,-1.341 -0.0644,-0.002 -0.12339,-0.003 -0.17674,-0.001 z"
         id="path1818"
         inkscape:connector-curvature="0" />
      <path
         style="fill:#0e9548;fill-opacity:1;stroke-width:0.26458332"
         d="m 161.65112,141.03842 44.58797,5.27926 -13.12994,27.46292 c 0,0 -19.16154,-3.52276 -27.76472,-5.43997 z"
         id="path1816"
         inkscape:connector-curvature="0"
         sodipodi:nodetypes="ccccc" />
      <path
         inkscape:connector-curvature="0"
         style="font-style:normal;font-variant:normal;font-weight:bold;font-stretch:normal;font-size:medium;line-height:1;font-family:'DejaVu Sans Mono';-inkscape-font-specification:'DejaVu Sans Mono Bold';text-align:center;letter-spacing:0px;word-spacing:0px;text-anchor:middle;fill:#000000;fill-opacity:1;stroke:none;stroke-width:0.21975325"
         d="m 167.65152,144.08081 c 0,0 0.75538,7.91691 0.75538,7.91691 0,0 0.48711,0.0671 0.48711,0.0671 0,0 -0.30305,-3.52071 -0.30305,-3.52071 0,0 0.6507,0.0836 0.6507,0.0836 0,0 0.26194,3.52111 0.26194,3.52111 0,0 0.48747,0.0672 0.48747,0.0672 0,0 -0.51515,-7.91921 -0.51515,-7.91921 0,0 -0.56139,-0.0665 -0.56139,-0.0665 0,0 0.22449,3.01761 0.22449,3.01761 0,0 -0.66681,-0.0835 -0.66681,-0.0835 0,0 -0.25971,-3.01727 -0.25971,-3.01727 0,0 -0.56098,-0.0664 -0.56098,-0.0664 0,0 0,0 0,0 m 23.8481,2.82364 c 0,0 -0.41522,1.38361 -0.41522,1.38361 0,0 0.67121,0.0815 0.67121,0.0815 0,0 -1.25029,4.01438 -1.25029,4.01438 -0.14038,0.45074 -0.27325,0.77456 -0.39849,0.97222 -0.12478,0.19766 -0.2524,0.2881 -0.38321,0.27053 -0.11165,-0.015 -0.19835,-0.11196 -0.26036,-0.29004 -0.0615,-0.17793 -0.0957,-0.42915 -0.1025,-0.75444 0,0 -0.53238,1.82035 -0.53238,1.82035 0.0632,0.19691 0.13787,0.34894 0.22388,0.45683 0.0867,0.10805 0.18197,0.17007 0.28629,0.18449 0.28879,0.0399 0.56101,-0.1391 0.81837,-0.53707 0.26161,-0.40137 0.5488,-1.08693 0.85958,-2.05592 0,0 1.73146,-5.39862 1.73146,-5.39862 0,0 -1.24834,-0.14781 -1.24834,-0.14781 0,0 0,0 0,0 m -20.50078,-0.60007 c -0.30372,-0.0372 -0.52936,0.21464 -0.67437,0.75544 -0.14163,0.54077 -0.18306,1.29491 -0.12702,2.26393 0.0579,1.00084 0.18577,1.78026 0.38082,2.33674 0.19265,0.55313 0.44176,0.85099 0.75032,0.89364 0.12957,0.0179 0.2515,-0.002 0.36558,-0.0604 0.1144,-0.0582 0.22565,-0.15387 0.33445,-0.28698 0,0 -0.037,-1.4282 -0.037,-1.4282 -0.11546,0.20672 -0.22638,0.3547 -0.33375,0.44239 -0.10694,0.0877 -0.21715,0.12355 -0.33068,0.10824 -0.17198,-0.0232 -0.3062,-0.15517 -0.4035,-0.39674 -0.0982,-0.24159 -0.15944,-0.59663 -0.18298,-1.06363 0,0 1.3131,0.17223 1.3131,0.17223 0,0 -0.0154,-0.6311 -0.0154,-0.6311 -0.0231,-0.94811 -0.12398,-1.69296 -0.30483,-2.23379 -0.18276,-0.5442 -0.4286,-0.83429 -0.73479,-0.87178 0,0 0,0 0,0 m 6.80057,0.83259 c -0.29143,-0.0357 -0.54258,0.21736 -0.75094,0.75909 -0.2036,0.53832 -0.33244,1.28722 -0.38925,2.24669 -0.0568,0.95949 -0.023,1.73052 0.099,2.31471 0.12007,0.58082 0.30893,0.88999 0.56918,0.92597 0.26134,0.0361 0.4926,-0.21571 0.69611,-0.75402 0.20827,-0.54174 0.3577,-1.29173 0.44594,-2.25152 0.0882,-0.95978 0.0735,-1.73009 -0.0468,-2.31092 -0.12206,-0.58417 -0.33066,-0.89417 -0.62331,-0.93 0,0 0,0 0,0 m 9.08981,1.11287 c -0.29143,-0.0357 -0.5864,0.21777 -0.88242,0.76034 -0.29072,0.53915 -0.53819,1.28913 -0.7444,2.25003 -0.20621,0.96092 -0.29046,1.73313 -0.25606,2.31815 0.033,0.58166 0.17815,0.89124 0.43839,0.92722 0.26135,0.0361 0.53627,-0.21612 0.8269,-0.75527 0.29592,-0.54257 0.56377,-1.2937 0.80142,-2.25492 0.23764,-0.9612 0.34114,-1.73264 0.30799,-2.3143 -0.0344,-0.58501 -0.19917,-0.89542 -0.49182,-0.93125 0,0 0,0 0,0 m 6.81321,0.83414 c -0.13772,-0.0169 -0.27924,1.9e-4 -0.42508,0.0525 -0.14556,0.0524 -0.30166,0.14301 -0.46785,0.27045 0,0 -0.44463,1.33043 -0.44463,1.33043 0.19691,-0.18975 0.36986,-0.32342 0.51895,-0.40094 0.15187,-0.0809 0.29125,-0.11347 0.41782,-0.0976 0.12054,0.0151 0.1885,0.0926 0.2037,0.2316 0.0174,0.13567 -0.0183,0.32917 -0.10744,0.58125 0,0 -0.0924,0.26134 -0.0924,0.26134 0,0 -0.36072,-0.046 -0.36072,-0.046 -0.31489,-0.0402 -0.60392,0.0974 -0.8655,0.41191 -0.25862,0.31094 -0.50182,0.81354 -0.73191,1.5093 -0.21248,0.64249 -0.31906,1.15101 -0.32042,1.52562 -0.002,0.37477 0.10132,0.57744 0.31106,0.60643 0.1098,0.0152 0.23506,-0.0423 0.37593,-0.17173 0.14135,-0.12942 0.28794,-0.32146 0.43962,-0.57616 0,0 -0.23515,0.66534 -0.23515,0.66534 0,0 0.48074,0.0662 0.48074,0.0662 0,0 1.23396,-3.40346 1.23396,-3.40346 0.36819,-1.01554 0.55637,-1.72798 0.56369,-2.13884 0.007,-0.4107 -0.15872,-0.63661 -0.49441,-0.6777 0,0 0,0 0,0 m 4.5449,0.55643 c -0.13772,-0.0169 -0.28179,2.1e-4 -0.43287,0.0526 -0.15079,0.0524 -0.31548,0.14308 -0.4927,0.27063 0,0 -0.54793,1.33142 -0.54793,1.33142 0.2129,-0.1899 0.39781,-0.32363 0.55407,-0.40123 0.15931,-0.081 0.30241,-0.11357 0.42898,-0.0977 0.12054,0.0151 0.18336,0.0926 0.18837,0.23174 0.007,0.13576 -0.0434,0.32936 -0.15204,0.58163 0,0 -0.11265,0.26154 -0.11265,0.26154 0,0 -0.36034,-0.046 -0.36034,-0.046 -0.31488,-0.0402 -0.6169,0.0975 -0.90439,0.41228 -0.28426,0.31119 -0.5676,0.81412 -0.85172,1.51039 -0.26237,0.64297 -0.40744,1.15191 -0.43665,1.52678 -0.0297,0.37505 0.0595,0.57785 0.26923,0.60684 0.10981,0.0152 0.24061,-0.0423 0.39251,-0.17189 0.15237,-0.12953 0.31432,-0.32176 0.48639,-0.57666 0,0 -0.28679,0.66583 -0.28679,0.66583 0,0 0.48074,0.0662 0.48074,0.0662 0,0 1.49815,-3.40598 1.49815,-3.40598 0.44702,-1.01629 0.68985,-1.72926 0.72777,-2.14041 0.0373,-0.41099 -0.11243,-0.63699 -0.44813,-0.67809 0,0 0,0 0,0 m -23.55696,-2.74034 c 0,0 -0.026,1.16265 -0.026,1.16265 0,0 0.55526,0.0696 0.55526,0.0696 0,0 -0.15355,4.78302 -0.15355,4.78302 0,0 0.48074,0.0662 0.48074,0.0662 0,0 0.19754,-4.78344 0.19754,-4.78344 0,0 0.55525,0.0697 0.55525,0.0697 0,0 0.0593,-1.16297 0.0593,-1.16297 0,0 -1.66857,-0.20482 -1.66857,-0.20482 0,0 0,0 0,0 m 4.74705,0.58272 c 0,0 -0.23172,2.23148 -0.23172,2.23148 -0.0497,0.47819 -0.10429,0.93955 -0.16322,1.38417 -0.0576,0.44484 -0.11558,0.72897 -0.17435,0.85393 -0.0582,0.12142 -0.14347,0.17461 -0.25629,0.15946 0,0 -0.017,-0.002 -0.017,-0.002 0,0 -0.12391,1.27505 -0.12391,1.27505 0,0 0.15682,0.0216 0.15682,0.0216 0.23899,0.0329 0.42566,-0.14624 0.56059,-0.53762 0.13742,-0.39123 0.26254,-1.00867 0.375,-1.85301 0.0743,-0.55464 0.12773,-0.97364 0.15976,-1.25701 0,0 0.11826,-1.04639 0.11826,-1.04639 0,0 0.48146,0.0604 0.48146,0.0604 0,0 -0.58137,4.7871 -0.58137,4.7871 0,0 0.48074,0.0662 0.48074,0.0662 0,0 0.77738,-5.95137 0.77738,-5.95137 0,0 -1.56211,-0.19176 -1.56211,-0.19176 0,0 0,0 0,0 m 2.00369,0.24596 c 0,0 -0.82248,5.95181 -0.82248,5.95181 0,0 0.77315,0.10654 0.77315,0.10654 0.23348,0.0322 0.44166,-0.0967 0.62571,-0.38669 0.18674,-0.28982 0.33269,-0.74627 0.43704,-1.37005 0.10435,-0.62377 0.11123,-1.09765 0.0191,-1.42088 -0.0925,-0.32306 -0.26443,-0.50023 -0.51447,-0.53225 0,0 -0.31313,-0.0401 -0.31313,-0.0401 0,0 0.33049,-2.24266 0.33049,-2.24266 0,0 -0.53543,-0.0657 -0.53543,-0.0657 0,0 0,0 0,0 m 2.33489,0.28662 c 0,0 -1.06095,5.95408 -1.06095,5.95408 0,0 0.48392,0.0667 0.48392,0.0667 0,0 0.42645,-2.27542 0.42645,-2.27542 0,0 0.26979,-0.48776 0.26979,-0.48776 0,0 -0.024,2.85582 -0.024,2.85582 0,0 0.53525,0.0738 0.53525,0.0738 0,0 -0.007,-3.83502 -0.007,-3.83502 0,0 1.21613,-2.12632 1.21613,-2.12632 0,0 -0.65291,-0.0802 -0.65291,-0.0802 0,0 -1.02748,1.94637 -1.02748,1.94637 0,0 0.37969,-2.02589 0.37969,-2.02589 0,0 -0.53897,-0.0662 -0.53897,-0.0662 0,0 0,0 0,0 m 11.16107,1.37007 c 0,0 -1.61286,6.04601 -1.61286,6.04601 0,0 0.59649,0.0822 0.59649,0.0822 0,0 2.99049,-5.88587 2.99049,-5.88587 0,0 -0.54646,-0.0671 -0.54646,-0.0671 0,0 -2.23757,4.60118 -2.23757,4.60118 0,0 1.35637,-4.70936 1.35637,-4.70936 0,0 -0.54646,-0.0671 -0.54646,-0.0671 0,0 0,0 0,0 m -23.8889,-1.87704 c 0.13488,0.0169 0.24068,0.13577 0.31675,0.3566 0.0765,0.21745 0.12281,0.53187 0.13911,0.94251 0,0 -0.81422,-0.0999 -0.81422,-0.0999 -0.006,-0.39802 0.0212,-0.70039 0.0828,-0.90708 0.062,-0.21025 0.15393,-0.30739 0.27556,-0.29216 0,0 0,0 0,0 m 6.65578,0.89198 c 0.12752,0.016 0.2144,0.19319 0.25977,0.53157 0.0448,0.33486 0.0427,0.79521 -0.006,1.37951 -0.0483,0.58432 -0.12036,1.0366 -0.21548,1.35686 -0.094,0.3167 -0.20042,0.46662 -0.31963,0.45056 -0.1181,-0.0159 -0.19925,-0.19092 -0.24402,-0.52577 -0.0454,-0.33839 -0.0483,-0.79969 -0.008,-1.38393 0.04,-0.58423 0.10676,-1.03546 0.20083,-1.35217 0.0951,-0.32025 0.20618,-0.47246 0.3325,-0.45663 0,0 0,0 0,0 m 8.89311,1.11474 c 0.12752,0.016 0.18838,0.19339 0.18248,0.53225 -0.006,0.33535 -0.079,0.79638 -0.21826,1.38155 -0.13929,0.58519 -0.28244,1.03815 -0.42883,1.3589 -0.14474,0.31718 -0.27607,0.4674 -0.39529,0.45133 -0.1181,-0.0159 -0.17395,-0.19116 -0.168,-0.5265 0.006,-0.33888 0.074,-0.80086 0.20501,-1.38597 0.13096,-0.58509 0.2687,-1.037 0.41348,-1.3542 0.14641,-0.32073 0.28309,-0.47319 0.40941,-0.45736 0,0 0,0 0,0 m 6.10758,2.89548 c 0,0 0.20361,0.0265 0.20361,0.0265 0,0 -0.0375,0.10613 -0.0375,0.10613 -0.19701,0.55743 -0.3871,0.98713 -0.56967,1.28987 -0.1805,0.2992 -0.33543,0.43999 -0.46544,0.42241 -0.0863,-0.0117 -0.12717,-0.10078 -0.12306,-0.26735 0.004,-0.16658 0.0513,-0.38401 0.14316,-0.65381 0.1233,-0.36211 0.24767,-0.61281 0.37364,-0.75208 0.12639,-0.13927 0.285,-0.19651 0.47527,-0.17171 0,0 0,0 0,0 m 4.28776,0.55884 c 0,0 0.2036,0.0265 0.2036,0.0265 0,0 -0.0457,0.10621 -0.0457,0.10621 -0.24028,0.55783 -0.46375,0.98791 -0.67058,1.29088 -0.20447,0.29943 -0.37139,0.44034 -0.50141,0.42275 -0.0863,-0.0117 -0.12132,-0.10089 -0.10481,-0.26758 0.0162,-0.16669 0.0803,-0.38428 0.19312,-0.65428 0.15142,-0.36238 0.296,-0.61322 0.43356,-0.7526 0.13796,-0.13938 0.30199,-0.19672 0.49226,-0.17192 0,0 0,0 0,0 m -15.51789,-1.76826 c 0,0 0.21308,0.0279 0.21308,0.0279 0.12704,0.0166 0.21268,0.082 0.2572,0.19642 0.0448,0.11078 0.0478,0.29025 0.009,0.53832 -0.0392,0.24802 -0.0977,0.42255 -0.17482,0.52444 -0.0764,0.0984 -0.17612,0.13913 -0.29996,0.12246 0,0 -0.20772,-0.028 -0.20772,-0.028 0,0 0.2036,-1.38159 0.2036,-1.38159 0,0 0,0 0,0 m 3.05689,6.51244 c 0,0 -0.41388,1.81922 -0.41388,1.81922 0,0 0.4358,0.0671 0.4358,0.0671 0,0 0.4307,-1.81937 0.4307,-1.81937 0,0 -0.45262,-0.067 -0.45262,-0.067 0,0 0,0 0,0 m -8.16621,-0.62516 c 0,0 -0.50915,8.26451 -0.50915,8.26451 0,0 0.37078,0.0678 0.37078,0.0678 0,0 0.16113,-2.27402 0.16113,-2.27402 0,0 0.17159,-0.48683 0.17159,-0.48683 0,0 0.18235,2.85499 0.18235,2.85499 0,0 0.41011,0.075 0.41011,0.075 0,0 -0.26934,-3.83251 -0.26934,-3.83251 0,0 0.79336,-2.12342 0.79336,-2.12342 0,0 -0.51586,-0.0815 -0.51586,-0.0815 0,0 -0.6552,1.94281 -0.6552,1.94281 0,0 0.3075,-4.33977 0.3075,-4.33977 0,0 -0.44727,-0.067 -0.44727,-0.067 0,0 0,0 0,0 m 5.51511,0.82661 c 0,0 -0.20999,1.19625 -0.20999,1.19625 0,0 0.44227,0.0681 0.44227,0.0681 0,0 -0.84943,4.59403 -0.84943,4.59403 -0.16452,0.88975 -0.2429,1.53383 -0.23617,1.93067 0.005,0.39689 0.0955,0.61144 0.2719,0.64368 0,0 0.3998,0.0731 0.3998,0.0731 0,0 0.24789,-1.19662 0.24789,-1.19662 0,0 -0.30502,-0.0541 -0.30502,-0.0541 -0.0851,-0.0151 -0.12615,-0.12364 -0.12377,-0.32492 0.002,-0.20131 0.0483,-0.53632 0.1391,-1.00428 0,0 1.12417,-5.79091 1.12417,-5.79091 0,0 -0.90075,-0.135 -0.90075,-0.135 0,0 0,0 0,0 m 7.52438,1.12776 c 0,0 -0.39605,1.19803 -0.39605,1.19803 0,0 0.44227,0.0681 0.44227,0.0681 0,0 -1.56391,4.60086 -1.56391,4.60086 -0.30289,0.89107 -0.48035,1.53609 -0.53315,1.93351 -0.0543,0.39745 0.006,0.61229 0.18259,0.64453 0,0 0.40007,0.0731 0.40007,0.0731 0,0 0.43396,-1.1984 0.43396,-1.1984 0,0 -0.30502,-0.054 -0.30502,-0.054 -0.0851,-0.0151 -0.11121,-0.12383 -0.0785,-0.32541 0.0324,-0.20159 0.13019,-0.5371 0.2938,-1.00575 0,0 2.0247,-5.79951 2.0247,-5.79951 0,0 -0.90075,-0.13501 -0.90075,-0.13501 0,0 0,0 0,0 m -13.82887,-1.73587 c 0,0 -1.37731,8.7548 -1.37731,8.7548 0,0 0.2726,0.0512 0.2726,0.0512 0,0 1.43971,-8.7554 1.43971,-8.7554 0,0 -0.335,-0.0506 -0.335,-0.0506 0,0 0,0 0,0 m -8.19674,-0.95126 c 0,0 0.21277,1.68585 0.21277,1.68585 0,0 -0.41587,-0.0657 -0.41587,-0.0657 0,0 0.16135,1.1927 0.16135,1.1927 0,0 0.40506,0.0658 0.40506,0.0658 0,0 0.34525,2.73551 0.34525,2.73551 0.0972,0.77046 0.202,1.3053 0.31376,1.60529 0.11026,0.29647 0.27131,0.46489 0.48396,0.50376 0,0 0.31138,0.0569 0.31138,0.0569 0,0 -0.12503,-1.19306 -0.12503,-1.19306 0,0 -0.29329,-0.052 -0.29329,-0.052 -0.0739,-0.0131 -0.13338,-0.0797 -0.17867,-0.19858 -0.045,-0.12218 -0.0831,-0.31582 -0.11407,-0.58091 0,0 -0.32851,-2.80961 -0.32851,-2.80961 0,0 0.5422,0.088 0.5422,0.088 0,0 -0.12502,-1.19305 -0.12502,-1.19305 0,0 -0.55667,-0.0879 -0.55667,-0.0879 0,0 -0.19713,-1.68599 -0.19713,-1.68599 0,0 -0.44147,-0.0671 -0.44147,-0.0671 0,0 0,0 0,0 m 12.99688,1.97524 c 0,0 -0.24742,1.69023 -0.24742,1.69023 0,0 -0.41587,-0.0657 -0.41587,-0.0657 0,0 -0.16426,1.19581 -0.16426,1.19581 0,0 0.40506,0.0658 0.40506,0.0658 0,0 -0.40148,2.74265 -0.40148,2.74265 -0.11308,0.77247 -0.15244,1.30869 -0.11883,1.60943 0.0331,0.2972 0.1556,0.46604 0.36825,0.50491 0,0 0.31138,0.0569 0.31138,0.0569 0,0 0.20059,-1.19616 0.20059,-1.19616 0,0 -0.29329,-0.052 -0.29329,-0.052 -0.0739,-0.0131 -0.11803,-0.0799 -0.13243,-0.19907 -0.0132,-0.12249 8.5e-4,-0.31662 0.0422,-0.58241 0,0 0.43837,-2.81693 0.43837,-2.81693 0,0 0.54251,0.0881 0.54251,0.0881 0,0 0.20059,-1.19616 0.20059,-1.19616 0,0 -0.55698,-0.0879 -0.55698,-0.0879 0,0 0.26306,-1.69039 0.26306,-1.69039 0,0 -0.44147,-0.0671 -0.44147,-0.0671 0,0 0,0 0,0 m 14.32198,3.82419 c -0.18476,-0.0291 -0.45757,0.22494 -0.81648,0.76205 -0.35627,0.53707 -0.74515,1.27896 -1.16752,2.22425 -0.40808,0.9133 -0.6815,1.64482 -0.82289,2.19529 -0.1439,0.55048 -0.13574,0.84053 0.0266,0.87014 0.0862,0.0157 0.19138,-0.0402 0.31605,-0.16792 0.12505,-0.12767 0.27245,-0.32999 0.44265,-0.60772 0,0 -0.30216,0.64436 -0.30216,0.64436 -0.20667,0.44076 -0.3832,0.76044 -0.52866,0.95748 -0.14661,0.2006 -0.27055,0.29094 -0.37255,0.27179 -0.0749,-0.014 -0.12956,-0.0673 -0.16477,-0.15866 -0.0355,-0.0915 -0.0509,-0.22499 -0.0461,-0.40127 0,0 -0.64581,1.43358 -0.64581,1.43358 0.0296,0.11386 0.0694,0.20159 0.12025,0.26178 0.049,0.0637 0.11044,0.10228 0.18371,0.11651 0.21743,0.0422 0.47476,-0.1406 0.77397,-0.54844 0.3005,-0.40416 0.67996,-1.08356 1.13713,-2.03979 0,0 2.64123,-5.52446 2.64123,-5.52446 0,0 -0.42615,-0.0673 -0.42615,-0.0673 0,0 -0.35733,0.76204 -0.35733,0.76204 0.0954,-0.29805 0.14457,-0.53314 0.14667,-0.70456 0.002,-0.17142 -0.0445,-0.26447 -0.1378,-0.27916 0,0 0,0 0,0 m -23.38377,-3.66804 c -0.0661,-0.0104 -0.12261,0.0491 -0.16925,0.17868 -0.0465,0.12598 -0.0757,0.30341 -0.0877,0.53301 0,0 -0.0316,-0.61502 -0.0316,-0.61502 0,0 -0.30964,-0.0489 -0.30964,-0.0489 0,0 0.34548,5.94178 0.34548,5.94178 0,0 0.30379,0.0555 0.30379,0.0555 0,0 -0.19286,-3.8152 -0.19286,-3.8152 -0.0224,-0.44211 -0.0285,-0.73563 -0.0181,-0.88126 0.0106,-0.14564 0.0396,-0.21462 0.087,-0.20696 0.0474,0.008 0.0842,0.0895 0.11001,0.24462 0.0257,0.15515 0.0482,0.44948 0.0677,0.88454 0,0 0.1714,3.81541 0.1714,3.81541 0,0 0.29998,0.0548 0.29998,0.0548 0,0 -0.14279,-3.81569 -0.14279,-3.81569 -0.0163,-0.43509 -0.0179,-0.7264 -0.005,-0.87543 0.0133,-0.14904 0.0438,-0.22009 0.0912,-0.21242 0.0474,0.008 0.0825,0.0872 0.1053,0.23871 0.0227,0.15147 0.0411,0.44795 0.0551,0.89013 0,0 0.12131,3.8159 0.12131,3.8159 0,0 0.30378,0.0555 0.30378,0.0555 0,0 -0.081,-3.34881 -0.081,-3.34881 -0.0271,-1.11792 -0.0717,-1.85769 -0.13433,-2.22004 -0.0625,-0.36217 -0.16438,-0.55473 -0.30534,-0.57691 -0.0719,-0.0113 -0.13047,0.0396 -0.17562,0.15211 -0.0448,0.11231 -0.0784,0.29108 -0.10038,0.53669 -0.0195,-0.20694 -0.059,-0.38507 -0.11881,-0.53519 -0.0603,-0.15363 -0.12373,-0.23522 -0.18984,-0.24563 0,0 0,0 0,0 m 1.98175,0.3119 c -0.24012,-0.0378 -0.42651,0.21365 -0.55662,0.75431 -0.12672,0.54063 -0.17988,1.29485 -0.1616,2.26421 0.0189,1.00123 0.0977,1.78112 0.23388,2.33814 0.1336,0.5537 0.31735,0.85223 0.55356,0.89558 0.0992,0.0182 0.1934,-0.002 0.28307,-0.0597 0.09,-0.058 0.17914,-0.1534 0.26747,-0.2863 0,0 0.0187,-1.42759 0.0187,-1.42759 -0.0966,0.20653 -0.18781,0.35315 -0.27394,0.44064 -0.0857,0.0875 -0.17225,0.12312 -0.25977,0.10756 -0.13259,-0.0236 -0.23276,-0.15586 -0.30127,-0.39772 -0.0694,-0.24186 -0.10697,-0.59715 -0.11211,-1.06431 0,0 1.01996,0.17503 1.01996,0.17503 0,0 0.009,-0.63134 0.009,-0.63134 0.0138,-0.94845 -0.0407,-1.69375 -0.16572,-2.23511 -0.12709,-0.54472 -0.3127,-0.83535 -0.55477,-0.87345 0,0 0,0 0,0 m 5.37653,0.8462 c -0.2304,-0.0363 -0.44384,0.21641 -0.63781,0.75801 -0.18933,0.53816 -0.33004,1.28712 -0.4242,2.24697 -0.0942,0.95983 -0.10779,1.73252 -0.0437,2.31725 0.062,0.58138 0.19138,0.88998 0.39061,0.92654 0.20006,0.0367 0.39343,-0.21362 0.58267,-0.75179 0.19387,-0.5416 0.35491,-1.29286 0.4805,-2.25299 0.1256,-0.96015 0.15856,-1.73092 0.0964,-2.31228 -0.0641,-0.58474 -0.21307,-0.8953 -0.44445,-0.93171 0,0 0,0 0,0 m 7.38141,1.16173 c -0.10305,-0.0162 -0.21523,0.0604 -0.33652,0.22989 -0.1207,0.16944 -0.23965,0.41674 -0.35672,0.7419 0,0 0.23677,-0.89397 0.23677,-0.89397 0,0 -0.42302,-0.0668 -0.42302,-0.0668 0,0 -1.52389,5.95965 -1.52389,5.95965 0,0 0.36834,0.0673 0.36834,0.0673 0,0 0.90359,-3.41168 0.90359,-3.41168 0.11839,-0.44698 0.23181,-0.79258 0.34083,-1.03755 0.11044,-0.24482 0.20299,-0.36082 0.27769,-0.34872 0.0737,0.012 0.10123,0.1142 0.0819,0.30744 -0.0178,0.18985 -0.0863,0.50117 -0.20525,0.93402 0,0 -0.99756,3.62981 -0.99756,3.62981 0,0 0.36833,0.0673 0.36833,0.0673 0,0 1.09888,-3.86963 1.09888,-3.86963 0.21058,-0.74155 0.33009,-1.30444 0.35779,-1.6894 0.0274,-0.38848 -0.0365,-0.59527 -0.19111,-0.6196 0,0 0,0 0,0 m 5.19154,0.81708 c -0.10888,-0.0171 -0.22515,7.6e-4 -0.34786,0.0529 -0.12242,0.0521 -0.25686,0.14145 -0.40359,0.2687 0,0 -0.49671,1.33207 -0.49671,1.33207 0.17736,-0.18956 0.33006,-0.32299 0.45749,-0.4003 0.1301,-0.0807 0.24508,-0.11303 0.34461,-0.0969 0.0948,0.0153 0.14084,0.0918 0.13782,0.23104 -9.9e-4,0.13583 -0.0512,0.33062 -0.15011,0.5828 0,0 -0.10206,0.26029 -0.10206,0.26029 0,0 -0.28196,-0.0467 -0.28196,-0.0467 -0.24639,-0.0408 -0.49132,0.0963 -0.73315,0.41065 -0.23874,0.31074 -0.48624,0.81448 -0.74335,1.51049 -0.23743,0.64273 -0.37675,1.15162 -0.41933,1.52662 -0.0433,0.37517 0.0146,0.57708 0.17518,0.60654 0.0841,0.0154 0.18852,-0.0418 0.31353,-0.17113 0.12549,-0.12929 0.26241,-0.32123 0.41063,-0.57588 0,0 -0.26142,0.66672 -0.26142,0.66672 0,0 0.36834,0.0673 0.36834,0.0673 0,0 1.36605,-3.40472 1.36605,-3.40472 0.40761,-1.01591 0.63786,-1.72989 0.68907,-2.14117 0.0503,-0.4111 -0.0578,-0.63752 -0.32318,-0.67929 0,0 0,0 0,0 m 1.99488,0.31396 c -0.10305,-0.0162 -0.2296,0.0605 -0.37901,0.23024 -0.14882,0.16972 -0.30746,0.4174 -0.47579,0.74305 0,0 0.37569,-0.8953 0.37569,-0.8953 0,0 -0.42303,-0.0668 -0.42303,-0.0668 0,0 -2.45011,5.96849 -2.45011,5.96849 0,0 0.36834,0.0673 0.36834,0.0673 0,0 1.43378,-3.41674 1.43378,-3.41674 0.18785,-0.44765 0.35552,-0.79377 0.50368,-1.03911 0.14957,-0.2452 0.26194,-0.36134 0.33664,-0.34923 0.0737,0.012 0.0864,0.11428 0.0378,0.30781 -0.0464,0.19012 -0.16262,0.50194 -0.34884,0.93543 0,0 -1.56161,3.63521 -1.56161,3.63521 0,0 0.36834,0.0673 0.36834,0.0673 0,0 1.70014,-3.87537 1.70014,-3.87537 0.3258,-0.74266 0.53181,-1.30637 0.61739,-1.69188 0.0859,-0.38904 0.0512,-0.59612 -0.10338,-0.62045 0,0 0,0 0,0 m -9.78576,-1.39159 c 0,0 -0.26145,1.19675 -0.26145,1.19675 0,0 0.40659,0.066 0.40659,0.066 0,0 -0.81091,3.56434 -0.81091,3.56434 0,0 -0.47597,-0.0844 -0.47597,-0.0844 0,0 -0.25851,1.19672 -0.25851,1.19672 0,0 1.29379,0.23647 1.29379,0.23647 0,0 0.29709,-1.19709 0.29709,-1.19709 0,0 -0.47457,-0.0841 -0.47457,-0.0841 0,0 1.1272,-4.7616 1.1272,-4.7616 0,0 -0.84326,-0.13316 -0.84326,-0.13316 0,0 0,0 0,0 m -10.15619,-0.54292 c 0.10603,0.0172 0.18561,0.13624 0.23874,0.3573 0.0535,0.21766 0.08,0.53228 0.0797,0.94308 0,0 -0.63636,-0.10044 -0.63636,-0.10044 0.006,-0.39812 0.0368,-0.70052 0.0914,-0.90716 0.0551,-0.21018 0.13088,-0.30825 0.22651,-0.29278 0,0 0,0 0,0 m 5.22935,0.90675 c 0.10023,0.0162 0.159,0.19366 0.1761,0.53232 0.0167,0.33511 -0.0108,0.79457 -0.0818,1.3791 -0.0711,0.58454 -0.15315,1.03693 -0.24564,1.35715 -0.0913,0.31668 -0.18229,0.4665 -0.27421,0.45018 -0.0911,-0.0162 -0.14465,-0.19143 -0.16129,-0.52656 -0.0171,-0.33865 0.005,-0.80021 0.0682,-1.38467 0.0627,-0.58445 0.1394,-1.03464 0.2307,-1.35131 0.0925,-0.32024 0.18871,-0.47231 0.28799,-0.45621 0,0 0,0 0,0 m 15.69744,2.54438 c 0.0879,0.0143 0.0839,0.18671 -0.0135,0.51889 -0.0965,0.32864 -0.27003,0.75954 -0.52004,1.29271 -0.25168,0.53673 -0.47902,0.96319 -0.68074,1.27787 -0.19929,0.31112 -0.33916,0.45951 -0.4202,0.4452 -0.0802,-0.0142 -0.0716,-0.18556 0.025,-0.5142 0.0967,-0.32847 0.26836,-0.76356 0.5147,-1.30377 0.24472,-0.53665 0.46556,-0.95987 0.664,-1.27114 0.20012,-0.31113 0.34387,-0.45966 0.43085,-0.44556 0,0 0,0 0,0 m -4.13947,1.49755 c 0,0 0.15842,0.027 0.15842,0.027 0,0 -0.0416,0.10618 -0.0416,0.10618 -0.21865,0.55764 -0.41778,0.98855 -0.596,1.29125 -0.17599,0.29914 -0.31375,0.43979 -0.4139,0.42192 -0.0665,-0.0119 -0.0885,-0.10115 -0.0667,-0.26789 0.0216,-0.16675 0.0836,-0.38545 0.18595,-0.65536 0.13736,-0.36224 0.26332,-0.61297 0.37834,-0.75213 0.11545,-0.13917 0.24743,-0.19614 0.39547,-0.17093 0,0 0,0 0,0 m -20.28566,-2.62235 c 0,0 0.16651,1.94674 0.16651,1.94674 0,0 0.42149,0.077 0.42149,0.077 0,0 -0.146,-1.94694 -0.146,-1.94694 0,0 -0.442,-0.0768 -0.442,-0.0768 0,0 0,0 0,0 m 14.74164,6.25215 c 0,0 -0.29241,1.01165 -0.29241,1.01165 0,0 1.46074,0.28621 1.46074,0.28621 0,0 0.33174,-1.01203 0.33174,-1.01203 0,0 -1.50007,-0.28583 -1.50007,-0.28583 0,0 0,0 0,0"
         id="path2012" />
    </g>
  </g>
</svg>
