<?xml version="1.0" encoding="UTF-8" standalone="no"?>
<!-- Created with Inkscape (http://www.inkscape.org/) -->

<svg
   xmlns:dc="http://purl.org/dc/elements/1.1/"
   xmlns:cc="http://creativecommons.org/ns#"
   xmlns:rdf="http://www.w3.org/1999/02/22-rdf-syntax-ns#"
   xmlns:svg="http://www.w3.org/2000/svg"
   xmlns="http://www.w3.org/2000/svg"
   xmlns:sodipodi="http://sodipodi.sourceforge.net/DTD/sodipodi-0.dtd"
   xmlns:inkscape="http://www.inkscape.org/namespaces/inkscape"
   width="420mm"
   height="297mm"
   viewBox="0 0 420 297"
   version="1.1"
   id="svg8"
   inkscape:version="0.92.2 2405546, 2018-03-11"
   sodipodi:docname="red_heat.svg">
  <defs
     id="defs2" />
  <sodipodi:namedview
     id="base"
     pagecolor="#ffffff"
     bordercolor="#666666"
     borderopacity="1.0"
     inkscape:pageopacity="0"
     inkscape:pageshadow="2"
     inkscape:zoom="0.5"
     inkscape:cx="773.73275"
     inkscape:cy="589.28454"
     inkscape:document-units="px"
     inkscape:current-layer="layer1"
     showgrid="false"
     showborder="true"
     inkscape:window-width="1920"
     inkscape:window-height="1001"
     inkscape:window-x="0"
     inkscape:window-y="0"
     inkscape:window-maximized="1" />
  <metadata
     id="metadata5">
    <rdf:RDF>
      <cc:Work
         rdf:about="">
        <dc:format>image/svg+xml</dc:format>
        <dc:type
           rdf:resource="http://purl.org/dc/dcmitype/StillImage" />
        <dc:title></dc:title>
      </cc:Work>
    </rdf:RDF>
  </metadata>
  <g
     inkscape:label="Layer 1"
     inkscape:groupmode="layer"
     id="layer1">
    <rect
       style="opacity:1;vector-effect:none;fill:#cd0000;fill-opacity:1;fill-rule:nonzero;stroke:none;stroke-width:14.54238987;stroke-linecap:butt;stroke-linejoin:miter;stroke-miterlimit:4;stroke-dasharray:none;stroke-dashoffset:0;stroke-opacity:1"
       id="rect956"
       width="420"
       height="297"
       x="0"
       y="2.3448545e-05" />
    <g
       aria-label="НЕ ТОРМОЗИ, КАК и JAVA!
В НАШИ РЯДЫ ВСТУПАЙ
t.me/jprof_by!"
       transform="matrix(0.26458333,0,0,0.26458333,202.52345,-15.617629)"
       style="font-style:normal;font-variant:normal;font-weight:normal;font-stretch:normal;font-size:40px;line-height:1.25;font-family:'Aldo the Apache';-inkscape-font-specification:'Aldo the Apache';letter-spacing:0px;word-spacing:0px;fill:#ffd900;fill-opacity:1;stroke:none"
       id="flowRoot812">
      <path
         d="m -697.30859,452.28711 v -96 h 19.19531 v 38.41406 h 28.80469 v -38.41406 h 19.19531 v 96 h -19.19531 v -38.39063 h -28.80469 v 38.39063 z"
         style="font-style:normal;font-variant:normal;font-weight:normal;font-stretch:normal;font-size:96px;line-height:2.25;font-family:'soviet font';-inkscape-font-specification:'soviet font';text-align:center;text-anchor:middle;fill:#ffd900;fill-opacity:1"
         id="path857" />
      <path
         d="m -620.43359,452.28711 v -96 h 67.19531 v 19.21875 h -48 v 19.19531 h 48 v 19.19531 h -48 v 19.19532 h 48 v 19.19531 z"
         style="font-style:normal;font-variant:normal;font-weight:normal;font-stretch:normal;font-size:96px;line-height:2.25;font-family:'soviet font';-inkscape-font-specification:'soviet font';text-align:center;text-anchor:middle;fill:#ffd900;fill-opacity:1"
         id="path859" />
      <path
         d="m -485.87891,452.28711 v -76.78125 h -28.80468 v -19.21875 h 76.80468 v 19.21875 h -28.80468 v 76.78125 z"
         style="font-style:normal;font-variant:normal;font-weight:normal;font-stretch:normal;font-size:96px;line-height:2.25;font-family:'soviet font';-inkscape-font-specification:'soviet font';text-align:center;text-anchor:middle;fill:#ffd900;fill-opacity:1"
         id="path861" />
      <path
         d="m -380.24609,433.0918 v -57.58594 h -28.80469 v 57.58594 z m -48,19.19531 v -96 h 67.19531 v 96 z"
         style="font-style:normal;font-variant:normal;font-weight:normal;font-stretch:normal;font-size:96px;line-height:2.25;font-family:'soviet font';-inkscape-font-specification:'soviet font';text-align:center;text-anchor:middle;fill:#ffd900;fill-opacity:1"
         id="path863" />
      <path
         d="m -303.37109,394.70117 v -19.19531 h -28.80469 v 19.19531 z m -48,57.58594 v -96 h 67.19531 v 57.60937 h -48 v 38.39063 z"
         style="font-style:normal;font-variant:normal;font-weight:normal;font-stretch:normal;font-size:96px;line-height:2.25;font-family:'soviet font';-inkscape-font-specification:'soviet font';text-align:center;text-anchor:middle;fill:#ffd900;fill-opacity:1"
         id="path865" />
      <path
         d="m -274.49609,452.28711 v -96 h 19.19531 l 19.21875,38.41406 19.19531,-38.41406 h 19.19531 v 96 h -19.19531 v -57.58594 l -9.60937,19.19531 h -19.19532 l -9.60937,-19.19531 v 57.58594 z"
         style="font-style:normal;font-variant:normal;font-weight:normal;font-stretch:normal;font-size:96px;line-height:2.25;font-family:'soviet font';-inkscape-font-specification:'soviet font';text-align:center;text-anchor:middle;fill:#ffd900;fill-opacity:1"
         id="path867" />
      <path
         d="m -140.05859,433.0918 v -57.58594 h -28.80469 v 57.58594 z m -48,19.19531 v -96 h 67.19531 v 96 z"
         style="font-style:normal;font-variant:normal;font-weight:normal;font-stretch:normal;font-size:96px;line-height:2.25;font-family:'soviet font';-inkscape-font-specification:'soviet font';text-align:center;text-anchor:middle;fill:#ffd900;fill-opacity:1"
         id="path869" />
      <path
         d="M -111.18359,452.28711 V 433.0918 h 47.999996 v -9.58594 l -9.585937,-9.60938 h -38.414059 v -19.19531 h 38.414059 l 9.585937,-9.60937 v -9.58594 h -47.999996 v -19.21875 h 67.195309 v 38.41406 l -9.585938,9.58594 9.585938,9.60937 v 38.39063 z"
         style="font-style:normal;font-variant:normal;font-weight:normal;font-stretch:normal;font-size:96px;line-height:2.25;font-family:'soviet font';-inkscape-font-specification:'soviet font';text-align:center;text-anchor:middle;fill:#ffd900;fill-opacity:1"
         id="path871" />
      <path
         d="m -34.308594,452.28711 v -96 h 19.195313 v 57.60937 l 28.804687,-57.60937 h 19.195313 v 96 H 13.691406 v -57.58594 l -28.804687,57.58594 z"
         style="font-style:normal;font-variant:normal;font-weight:normal;font-stretch:normal;font-size:96px;line-height:2.25;font-family:'soviet font';-inkscape-font-specification:'soviet font';text-align:center;text-anchor:middle;fill:#ffd900;fill-opacity:1"
         id="path873" />
      <path
         d="M 42.566406,461.87305 V 433.0918 h 19.195313 v 9.60937 l -9.585938,19.17188 z"
         style="font-style:normal;font-variant:normal;font-weight:normal;font-stretch:normal;font-size:96px;line-height:2.25;font-family:'soviet font';-inkscape-font-specification:'soviet font';text-align:center;text-anchor:middle;fill:#ffd900;fill-opacity:1"
         id="path875" />
      <path
         d="m 100.31641,452.28711 v -96 h 19.19531 v 38.41406 h 9.60937 l 19.19532,-38.41406 h 19.19531 l -24,48 24,48 h -19.19531 l -19.19532,-38.39063 h -9.60937 v 38.39063 z"
         style="font-style:normal;font-variant:normal;font-weight:normal;font-stretch:normal;font-size:96px;line-height:2.25;font-family:'soviet font';-inkscape-font-specification:'soviet font';text-align:center;text-anchor:middle;fill:#ffd900;fill-opacity:1"
         id="path877" />
      <path
         d="m 225.19141,394.70117 v -19.19531 h -28.80469 v 19.19531 z m -48,57.58594 v -96 h 67.19531 v 96 h -19.19531 v -38.39063 h -28.80469 v 38.39063 z"
         style="font-style:normal;font-variant:normal;font-weight:normal;font-stretch:normal;font-size:96px;line-height:2.25;font-family:'soviet font';-inkscape-font-specification:'soviet font';text-align:center;text-anchor:middle;fill:#ffd900;fill-opacity:1"
         id="path879" />
      <path
         d="m 254.06641,452.28711 v -96 h 19.19531 v 38.41406 h 9.60937 l 19.19532,-38.41406 h 19.19531 l -24,48 24,48 h -19.19531 l -19.19532,-38.39063 h -9.60937 v 38.39063 z"
         style="font-style:normal;font-variant:normal;font-weight:normal;font-stretch:normal;font-size:96px;line-height:2.25;font-family:'soviet font';-inkscape-font-specification:'soviet font';text-align:center;text-anchor:middle;fill:#ffd900;fill-opacity:1"
         id="path881" />
      <path
         d="m 359.81641,452.28711 v -96 h 19.19531 v 57.60937 l 28.80469,-57.60937 h 19.19531 v 96 h -19.19531 v -57.58594 l -28.80469,57.58594 z"
         style="font-style:normal;font-variant:normal;font-weight:normal;font-stretch:normal;font-size:96px;line-height:2.25;font-family:'soviet font';-inkscape-font-specification:'soviet font';text-align:center;text-anchor:middle;fill:#ffd900;fill-opacity:1"
         id="path883" />
      <path
         d="M 465.56641,452.28711 V 433.0918 h 9.60937 v -76.80469 h 19.19531 v 96 z"
         style="font-style:normal;font-variant:normal;font-weight:normal;font-stretch:normal;font-size:96px;line-height:2.25;font-family:'soviet font';-inkscape-font-specification:'soviet font';text-align:center;text-anchor:middle;fill:#ffd900;fill-opacity:1"
         id="path885" />
      <path
         d="m 552.00391,394.70117 v -19.19531 h -28.80469 v 19.19531 z m -48,57.58594 v -96 h 67.19531 v 96 h -19.19531 v -38.39063 h -28.80469 v 38.39063 z"
         style="font-style:normal;font-variant:normal;font-weight:normal;font-stretch:normal;font-size:96px;line-height:2.25;font-family:'soviet font';-inkscape-font-specification:'soviet font';text-align:center;text-anchor:middle;fill:#ffd900;fill-opacity:1"
         id="path887" />
      <path
         d="m 619.29297,452.28711 -48,-96 h 24 l 33.58594,67.21875 v -67.21875 h 19.19531 v 96 z"
         style="font-style:normal;font-variant:normal;font-weight:normal;font-stretch:normal;font-size:96px;line-height:2.25;font-family:'soviet font';-inkscape-font-specification:'soviet font';text-align:center;text-anchor:middle;fill:#ffd900;fill-opacity:1"
         id="path889" />
      <path
         d="m 705.75391,394.70117 v -19.19531 h -28.80469 v 19.19531 z m -48,57.58594 v -96 h 67.19531 v 96 h -19.19531 v -38.39063 h -28.80469 v 38.39063 z"
         style="font-style:normal;font-variant:normal;font-weight:normal;font-stretch:normal;font-size:96px;line-height:2.25;font-family:'soviet font';-inkscape-font-specification:'soviet font';text-align:center;text-anchor:middle;fill:#ffd900;fill-opacity:1"
         id="path891" />
      <path
         d="M 734.62891,452.28711 V 433.0918 h 19.19531 v 19.19531 z m 0,-28.78125 v -67.21875 h 19.19531 v 67.21875 z"
         style="font-style:normal;font-variant:normal;font-weight:normal;font-stretch:normal;font-size:96px;line-height:2.25;font-family:'soviet font';-inkscape-font-specification:'soviet font';text-align:center;text-anchor:middle;fill:#ffd900;fill-opacity:1"
         id="path893" />
      <path
         d="m -615.46484,649.0918 v -9.58594 l -9.58594,-9.60938 h -19.21875 v 19.19532 z m -9.58594,-38.39063 9.58594,-9.60937 v -9.58594 h -28.80469 v 19.19531 z m -38.41406,57.58594 v -96 h 67.19531 v 38.41406 l -9.58594,9.58594 9.58594,9.60937 v 38.39063 z"
         style="font-style:normal;font-variant:normal;font-weight:normal;font-stretch:normal;font-size:96px;line-height:2.25;font-family:'soviet font';-inkscape-font-specification:'soviet font';text-align:center;text-anchor:middle;fill:#ffd900;fill-opacity:1"
         id="path895" />
      <path
         d="m -557.71484,668.28711 v -96 h 19.19531 v 38.41406 h 28.80469 v -38.41406 h 19.19531 v 96 h -19.19531 v -38.39063 h -28.80469 v 38.39063 z"
         style="font-style:normal;font-variant:normal;font-weight:normal;font-stretch:normal;font-size:96px;line-height:2.25;font-family:'soviet font';-inkscape-font-specification:'soviet font';text-align:center;text-anchor:middle;fill:#ffd900;fill-opacity:1"
         id="path897" />
      <path
         d="m -432.83984,610.70117 v -19.19531 h -28.80469 v 19.19531 z m -48,57.58594 v -96 h 67.19531 v 96 h -19.19531 v -38.39063 h -28.80469 v 38.39063 z"
         style="font-style:normal;font-variant:normal;font-weight:normal;font-stretch:normal;font-size:96px;line-height:2.25;font-family:'soviet font';-inkscape-font-specification:'soviet font';text-align:center;text-anchor:middle;fill:#ffd900;fill-opacity:1"
         id="path899" />
      <path
         d="m -403.96484,668.28711 v -96 h 19.19531 v 76.80469 h 19.21875 v -76.80469 h 19.19531 v 76.80469 h 19.19531 v -76.80469 h 19.19532 v 96 z"
         style="font-style:normal;font-variant:normal;font-weight:normal;font-stretch:normal;font-size:96px;line-height:2.25;font-family:'soviet font';-inkscape-font-specification:'soviet font';text-align:center;text-anchor:middle;fill:#ffd900;fill-opacity:1"
         id="path901" />
      <path
         d="m -298.40234,668.28711 v -96 h 19.19531 v 57.60937 l 28.80469,-57.60937 h 19.19531 v 96 h -19.19531 v -57.58594 l -28.80469,57.58594 z"
         style="font-style:normal;font-variant:normal;font-weight:normal;font-stretch:normal;font-size:96px;line-height:2.25;font-family:'soviet font';-inkscape-font-specification:'soviet font';text-align:center;text-anchor:middle;fill:#ffd900;fill-opacity:1"
         id="path903" />
      <path
         d="m -144.65234,610.70117 v -19.19531 h -28.80469 v 19.19531 z m -48,57.58594 v -96 h 67.19531 v 57.60937 h -48 v 38.39063 z"
         style="font-style:normal;font-variant:normal;font-weight:normal;font-stretch:normal;font-size:96px;line-height:2.25;font-family:'soviet font';-inkscape-font-specification:'soviet font';text-align:center;text-anchor:middle;fill:#ffd900;fill-opacity:1"
         id="path905" />
      <path
         d="m -58.167969,610.70117 v -19.19531 h -28.804687 v 19.19531 z m -57.609371,57.58594 19.195309,-38.39063 h -9.585939 v -57.60937 h 67.195314 v 96 h -19.195313 v -38.39063 h -14.414062 l -19.195313,38.39063 z"
         style="font-style:normal;font-variant:normal;font-weight:normal;font-stretch:normal;font-size:96px;line-height:2.25;font-family:'soviet font';-inkscape-font-specification:'soviet font';text-align:center;text-anchor:middle;fill:#ffd900;fill-opacity:1"
         id="path907" />
      <path
         d="M 13.855469,629.89648 V 591.50586 H -5.3398437 v 38.39062 z m -43.195313,38.39063 v -38.39063 h 4.804688 v -57.60937 h 57.609375 v 57.60937 h 4.78125 v 38.39063 H 18.660156 V 649.0918 h -28.804687 v 19.19531 z"
         style="font-style:normal;font-variant:normal;font-weight:normal;font-stretch:normal;font-size:96px;line-height:2.25;font-family:'soviet font';-inkscape-font-specification:'soviet font';text-align:center;text-anchor:middle;fill:#ffd900;fill-opacity:1"
         id="path909" />
      <path
         d="M 95.535156,649.0918 V 629.89648 H 66.730469 v 19.19532 z m -48,19.19531 v -96 h 19.195313 v 38.41406 h 48.000001 v 57.58594 z m 76.804684,0 v -96 h 19.19532 v 96 z"
         style="font-style:normal;font-variant:normal;font-weight:normal;font-stretch:normal;font-size:96px;line-height:2.25;font-family:'soviet font';-inkscape-font-specification:'soviet font';text-align:center;text-anchor:middle;fill:#ffd900;fill-opacity:1"
         id="path911" />
      <path
         d="m 229.97266,649.0918 v -9.58594 l -9.58594,-9.60938 h -19.21875 v 19.19532 z m -9.58594,-38.39063 9.58594,-9.60937 v -9.58594 h -28.80469 v 19.19531 z m -38.41406,57.58594 v -96 h 67.19531 v 38.41406 l -9.58594,9.58594 9.58594,9.60937 v 38.39063 z"
         style="font-style:normal;font-variant:normal;font-weight:normal;font-stretch:normal;font-size:96px;line-height:2.25;font-family:'soviet font';-inkscape-font-specification:'soviet font';text-align:center;text-anchor:middle;fill:#ffd900;fill-opacity:1"
         id="path913" />
      <path
         d="m 258.84766,668.28711 v -96 h 67.19531 v 19.21875 h -48 v 57.58594 h 48 v 19.19531 z"
         style="font-style:normal;font-variant:normal;font-weight:normal;font-stretch:normal;font-size:96px;line-height:2.25;font-family:'soviet font';-inkscape-font-specification:'soviet font';text-align:center;text-anchor:middle;fill:#ffd900;fill-opacity:1"
         id="path915" />
      <path
         d="m 364.52734,668.28711 v -76.78125 h -28.80468 v -19.21875 h 76.80468 v 19.21875 h -28.80468 v 76.78125 z"
         style="font-style:normal;font-variant:normal;font-weight:normal;font-stretch:normal;font-size:96px;line-height:2.25;font-family:'soviet font';-inkscape-font-specification:'soviet font';text-align:center;text-anchor:middle;fill:#ffd900;fill-opacity:1"
         id="path917" />
      <path
         d="M 422.16016,668.28711 V 649.0918 h 48 v -19.19532 h -48 v -57.60937 h 19.19531 v 38.41406 h 28.80469 v -38.41406 h 19.19531 v 96 z"
         style="font-style:normal;font-variant:normal;font-weight:normal;font-stretch:normal;font-size:96px;line-height:2.25;font-family:'soviet font';-inkscape-font-specification:'soviet font';text-align:center;text-anchor:middle;fill:#ffd900;fill-opacity:1"
         id="path919" />
      <path
         d="m 499.03516,668.28711 v -96 h 67.19531 v 96 h -19.19531 v -76.78125 h -28.80469 v 76.78125 z"
         style="font-style:normal;font-variant:normal;font-weight:normal;font-stretch:normal;font-size:96px;line-height:2.25;font-family:'soviet font';-inkscape-font-specification:'soviet font';text-align:center;text-anchor:middle;fill:#ffd900;fill-opacity:1"
         id="path921" />
      <path
         d="m 623.91016,610.70117 v -19.19531 h -28.80469 v 19.19531 z m -48,57.58594 v -96 h 67.19531 v 96 h -19.19531 v -38.39063 h -28.80469 v 38.39063 z"
         style="font-style:normal;font-variant:normal;font-weight:normal;font-stretch:normal;font-size:96px;line-height:2.25;font-family:'soviet font';-inkscape-font-specification:'soviet font';text-align:center;text-anchor:middle;fill:#ffd900;fill-opacity:1"
         id="path923" />
      <path
         d="m 652.78516,668.28711 v -96 h 19.19531 v 57.60937 l 28.80469,-57.60937 h 19.19531 v 96 h -19.19531 v -57.58594 l -28.80469,57.58594 z m 19.19531,-105.58594 v -19.19531 h 28.80469 v 19.19531 z"
         style="font-style:normal;font-variant:normal;font-weight:normal;font-stretch:normal;font-size:96px;line-height:2.25;font-family:'soviet font';-inkscape-font-specification:'soviet font';text-align:center;text-anchor:middle;fill:#ffd900;fill-opacity:1"
         id="path925" />
      <path
         d="m -413.69141,884.28711 v -76.78125 h -28.80468 v -19.21875 h 76.80468 v 19.21875 h -28.80468 v 76.78125 z"
         style="font-style:normal;font-variant:normal;font-weight:normal;font-stretch:normal;font-size:96px;line-height:2.25;font-family:'soviet font';-inkscape-font-specification:'soviet font';text-align:center;text-anchor:middle;fill:#ffd900;fill-opacity:1"
         id="path927" />
      <path
         d="M -356.05859,884.28711 V 865.0918 h 19.19531 v 19.19531 z"
         style="font-style:normal;font-variant:normal;font-weight:normal;font-stretch:normal;font-size:96px;line-height:2.25;font-family:'soviet font';-inkscape-font-specification:'soviet font';text-align:center;text-anchor:middle;fill:#ffd900;fill-opacity:1"
         id="path929" />
      <path
         d="m -327.18359,884.28711 v -96 h 19.19531 l 19.21875,38.41406 19.19531,-38.41406 h 19.19531 v 96 h -19.19531 v -57.58594 l -9.60937,19.19531 h -19.19532 l -9.60937,-19.19531 v 57.58594 z"
         style="font-style:normal;font-variant:normal;font-weight:normal;font-stretch:normal;font-size:96px;line-height:2.25;font-family:'soviet font';-inkscape-font-specification:'soviet font';text-align:center;text-anchor:middle;fill:#ffd900;fill-opacity:1"
         id="path931" />
      <path
         d="m -240.74609,884.28711 v -96 h 67.19531 v 19.21875 h -48 v 19.19531 h 48 v 19.19531 h -48 v 19.19532 h 48 v 19.19531 z"
         style="font-style:normal;font-variant:normal;font-weight:normal;font-stretch:normal;font-size:96px;line-height:2.25;font-family:'soviet font';-inkscape-font-specification:'soviet font';text-align:center;text-anchor:middle;fill:#ffd900;fill-opacity:1"
         id="path933" />
      <path
         d="m -173.45703,884.28711 48,-96 h 24 l -48,96 z"
         style="font-style:normal;font-variant:normal;font-weight:normal;font-stretch:normal;font-size:96px;line-height:2.25;font-family:'soviet font';-inkscape-font-specification:'soviet font';text-align:center;text-anchor:middle;fill:#ffd900;fill-opacity:1"
         id="path935" />
      <path
         d="M -86.996094,884.28711 V 865.0918 h 9.609375 v -76.80469 h 19.195313 v 96 z"
         style="font-style:normal;font-variant:normal;font-weight:normal;font-stretch:normal;font-size:96px;line-height:2.25;font-family:'soviet font';-inkscape-font-specification:'soviet font';text-align:center;text-anchor:middle;fill:#ffd900;fill-opacity:1"
         id="path937" />
      <path
         d="M -0.55859375,826.70117 V 807.50586 H -29.363281 v 19.19531 z M -48.558594,884.28711 v -96 h 67.195313 v 57.60937 h -48 v 38.39063 z"
         style="font-style:normal;font-variant:normal;font-weight:normal;font-stretch:normal;font-size:96px;line-height:2.25;font-family:'soviet font';-inkscape-font-specification:'soviet font';text-align:center;text-anchor:middle;fill:#ffd900;fill-opacity:1"
         id="path939" />
      <path
         d="M 76.316406,826.70117 V 807.50586 H 47.511719 v 19.19531 z m -48,57.58594 v -96 h 67.195313 v 48 l -9.585938,9.60937 19.195309,38.39063 H 81.121094 L 61.925781,845.89648 H 47.511719 v 38.39063 z"
         style="font-style:normal;font-variant:normal;font-weight:normal;font-stretch:normal;font-size:96px;line-height:2.25;font-family:'soviet font';-inkscape-font-specification:'soviet font';text-align:center;text-anchor:middle;fill:#ffd900;fill-opacity:1"
         id="path941" />
      <path
         d="m 162.75391,865.0918 v -57.58594 h -28.80469 v 57.58594 z m -48,19.19531 v -96 h 67.19531 v 96 z"
         style="font-style:normal;font-variant:normal;font-weight:normal;font-stretch:normal;font-size:96px;line-height:2.25;font-family:'soviet font';-inkscape-font-specification:'soviet font';text-align:center;text-anchor:middle;fill:#ffd900;fill-opacity:1"
         id="path943" />
      <path
         d="m 191.62891,884.28711 v -96 h 67.19531 v 19.21875 h -48 v 19.19531 h 48 v 19.19531 h -48 v 38.39063 z"
         style="font-style:normal;font-variant:normal;font-weight:normal;font-stretch:normal;font-size:96px;line-height:2.25;font-family:'soviet font';-inkscape-font-specification:'soviet font';text-align:center;text-anchor:middle;fill:#ffd900;fill-opacity:1"
         id="path945" />
      <path
         d="M 258.91797,884.28711 V 865.0918 h 57.58594 v 19.19531 z"
         style="font-style:normal;font-variant:normal;font-weight:normal;font-stretch:normal;font-size:96px;line-height:2.25;font-family:'soviet font';-inkscape-font-specification:'soviet font';text-align:center;text-anchor:middle;fill:#ffd900;fill-opacity:1"
         id="path947" />
      <path
         d="m 374.06641,865.0918 v -9.58594 l -9.58594,-9.60938 h -19.21875 v 19.19532 z m -9.58594,-38.39063 9.58594,-9.60937 v -9.58594 h -28.80469 v 19.19531 z m -38.41406,57.58594 v -96 h 67.19531 v 38.41406 l -9.58594,9.58594 9.58594,9.60937 v 38.39063 z"
         style="font-style:normal;font-variant:normal;font-weight:normal;font-stretch:normal;font-size:96px;line-height:2.25;font-family:'soviet font';-inkscape-font-specification:'soviet font';text-align:center;text-anchor:middle;fill:#ffd900;fill-opacity:1"
         id="path949" />
      <path
         d="m 422.13672,884.28711 v -38.39063 l -28.78125,-57.60937 h 19.19531 l 19.19531,38.41406 19.19532,-38.41406 h 19.19531 l -28.78125,57.60937 v 38.39063 z"
         style="font-style:normal;font-variant:normal;font-weight:normal;font-stretch:normal;font-size:96px;line-height:2.25;font-family:'soviet font';-inkscape-font-specification:'soviet font';text-align:center;text-anchor:middle;fill:#ffd900;fill-opacity:1"
         id="path951" />
      <path
         d="M 479.81641,884.28711 V 865.0918 h 19.19531 v 19.19531 z m 0,-28.78125 v -67.21875 h 19.19531 v 67.21875 z"
         style="font-style:normal;font-variant:normal;font-weight:normal;font-stretch:normal;font-size:96px;line-height:2.25;font-family:'soviet font';-inkscape-font-specification:'soviet font';text-align:center;text-anchor:middle;fill:#ffd900;fill-opacity:1"
         id="path953" />
    </g>
  </g>
</svg>
