<?xml version="1.0" encoding="UTF-8" standalone="no"?>
<!-- Created with Inkscape (http://www.inkscape.org/) -->

<svg
   xmlns:dc="http://purl.org/dc/elements/1.1/"
   xmlns:cc="http://creativecommons.org/ns#"
   xmlns:rdf="http://www.w3.org/1999/02/22-rdf-syntax-ns#"
   xmlns:svg="http://www.w3.org/2000/svg"
   xmlns="http://www.w3.org/2000/svg"
   xmlns:sodipodi="http://sodipodi.sourceforge.net/DTD/sodipodi-0.dtd"
   xmlns:inkscape="http://www.inkscape.org/namespaces/inkscape"
   width="420mm"
   height="297mm"
   viewBox="0 0 420 297"
   version="1.1"
   id="svg8"
   inkscape:version="0.92.2 2405546, 2018-03-11"
   sodipodi:docname="xxx.svg">
  <defs
     id="defs2" />
  <sodipodi:namedview
     id="base"
     pagecolor="#ffffff"
     bordercolor="#666666"
     borderopacity="1.0"
     inkscape:pageopacity="0.0"
     inkscape:pageshadow="2"
     inkscape:zoom="0.25"
     inkscape:cx="1164.6306"
     inkscape:cy="1008.5633"
     inkscape:document-units="px"
     inkscape:current-layer="layer1"
     showgrid="false"
     showborder="true"
     inkscape:window-width="1920"
     inkscape:window-height="1001"
     inkscape:window-x="0"
     inkscape:window-y="0"
     inkscape:window-maximized="1"
     inkscape:snap-object-midpoints="true"
     inkscape:snap-bbox="true"
     inkscape:bbox-paths="false"
     inkscape:bbox-nodes="true"
     inkscape:snap-bbox-edge-midpoints="true"
     inkscape:snap-bbox-midpoints="true"
     inkscape:snap-intersection-paths="false"
     inkscape:snap-smooth-nodes="false"
     inkscape:snap-nodes="true"
     inkscape:object-nodes="true"
     inkscape:object-paths="false" />
  <metadata
     id="metadata5">
    <rdf:RDF>
      <cc:Work
         rdf:about="">
        <dc:format>image/svg+xml</dc:format>
        <dc:type
           rdf:resource="http://purl.org/dc/dcmitype/StillImage" />
        <dc:title></dc:title>
      </cc:Work>
    </rdf:RDF>
  </metadata>
  <g
     inkscape:label="Layer 1"
     inkscape:groupmode="layer"
     id="layer1">
    <g
       id="g1127"
       transform="matrix(3.3088478,0,0,3.3088478,-273.34328,-22.676594)">
      <g
         transform="translate(2.246291,1.0930983)"
         id="g1048">
        <path
           inkscape:connector-curvature="0"
           style="opacity:1;vector-effect:none;fill:#71c9ee;fill-opacity:1;fill-rule:nonzero;stroke:none;stroke-width:0.99999994;stroke-linecap:square;stroke-linejoin:miter;stroke-miterlimit:2;stroke-dasharray:none;stroke-dashoffset:0;stroke-opacity:1"
           d="m 477.82617,535.29297 -97.95508,133 h 32.67969 l 82.08008,-109.91992 32.29687,43.25195 16.68165,-22.64648 -32.17579,-43.68555 h -16.80273 z m 196.83985,0 -82.08008,109.91992 v 0.26367 l -32.29688,-43.84961 -16.67968,22.33789 33.0996,44.32813 h 15.87696 16.80468 l 97.95508,-133 z"
           id="path1023"
           transform="matrix(0.26458333,0,0,0.26458333,0,-123)" />
        <path
           inkscape:connector-curvature="0"
           style="opacity:1;vector-effect:none;fill:#28373e;fill-opacity:1;fill-rule:nonzero;stroke:none;stroke-width:0.99999994;stroke-linecap:square;stroke-linejoin:miter;stroke-miterlimit:2;stroke-dasharray:none;stroke-dashoffset:0;stroke-opacity:1"
           d="m 379.87109,535.29297 48.97657,66.5 16.5664,-22.49024 -32.86328,-44.00976 z m 195.91211,0 -81.15234,110.18359 v -0.26367 l -32.42188,-43.41992 -16.79492,22.49023 32.41211,44.00977 32.68164,0.002 82.07813,-109.91992 32.42187,43.41797 16.79492,-22.49024 -32.41211,-44.00976 h -16.80468 z m 82.58399,66.5 -16.56446,22.49219 32.86329,44.00976 32.67968,-0.002 z"
           id="path977"
           transform="matrix(0.26458333,0,0,0.26458333,0,-123)" />
      </g>
      <g
         id="text1042"
         style="font-style:normal;font-variant:normal;font-weight:normal;font-stretch:normal;font-size:11.19614983px;line-height:1.25;font-family:'Aldo the Apache';-inkscape-font-specification:'Aldo the Apache';letter-spacing:0px;word-spacing:0px;fill:#000000;fill-opacity:1;stroke:none;stroke-width:0.27990374"
         aria-label="Горячие темы
t.me/jprof_by">
        <path
           id="path1050"
           style="font-style:normal;font-variant:normal;font-weight:bold;font-stretch:normal;font-family:'DejaVu Sans Mono';-inkscape-font-specification:'DejaVu Sans Mono Bold';text-align:center;text-anchor:middle;stroke-width:0.27990374"
           d="m 108.12227,58.980052 v 6.740651 h -1.61273 v -8.162037 h 5.08419 v 1.421386 z"
           inkscape:connector-curvature="0" />
        <path
           id="path1052"
           style="font-style:normal;font-variant:normal;font-weight:bold;font-stretch:normal;font-family:'DejaVu Sans Mono';-inkscape-font-specification:'DejaVu Sans Mono Bold';text-align:center;text-anchor:middle;stroke-width:0.27990374"
           d="m 115.61735,60.751318 q -0.57402,0 -0.90204,0.508419 -0.32801,0.502952 -0.32801,1.404986 0,0.902033 0.32801,1.410452 0.32802,0.502952 0.90204,0.502952 0.57949,0 0.9075,-0.502952 0.32801,-0.508419 0.32801,-1.410452 0,-0.902034 -0.32801,-1.404986 -0.32801,-0.508419 -0.9075,-0.508419 z m -2.83184,1.913405 q 0,-1.481522 0.76536,-2.345287 0.77083,-0.869233 2.06648,-0.869233 1.30111,0 2.06647,0.869233 0.77083,0.863765 0.77083,2.345287 0,1.481522 -0.77083,2.350754 -0.76536,0.863765 -2.06647,0.863765 -1.29565,0 -2.06648,-0.863765 -0.76536,-0.869232 -0.76536,-2.350754 z"
           inkscape:connector-curvature="0" />
        <path
           id="path1054"
           style="font-style:normal;font-variant:normal;font-weight:bold;font-stretch:normal;font-family:'DejaVu Sans Mono';-inkscape-font-specification:'DejaVu Sans Mono Bold';text-align:center;text-anchor:middle;stroke-width:0.27990374"
           d="m 121.4013,64.856938 v 3.192652 h -1.59633 v -8.451781 h 1.59633 v 0.918434 q 0.25147,-0.530287 0.66149,-0.798163 0.41001,-0.267877 0.96217,-0.267877 1.04963,0 1.62912,0.841898 0.57949,0.841898 0.57949,2.372622 0,1.552591 -0.59042,2.383555 -0.58496,0.830964 -1.67286,0.830964 -0.49202,0 -0.88564,-0.251476 -0.38814,-0.256943 -0.68335,-0.770828 z m 2.23048,-2.203149 q 0,-0.885633 -0.29521,-1.388585 -0.29521,-0.502952 -0.81457,-0.502952 -0.51935,0 -0.82003,0.502952 -0.30067,0.502952 -0.30067,1.388585 0,0.885633 0.30067,1.388585 0.30068,0.502952 0.82003,0.502952 0.51936,0 0.81457,-0.502952 0.29521,-0.502952 0.29521,-1.388585 z"
           inkscape:connector-curvature="0" />
        <path
           id="path1056"
           style="font-style:normal;font-variant:normal;font-weight:bold;font-stretch:normal;font-family:'DejaVu Sans Mono';-inkscape-font-specification:'DejaVu Sans Mono Bold';text-align:center;text-anchor:middle;stroke-width:0.27990374"
           d="m 128.20208,61.462011 q 0,0.382681 0.30068,0.552154 0.30068,0.164006 0.73803,0.164006 h 0.94577 v -1.426853 h -0.94577 q -0.43735,0 -0.73803,0.164006 -0.30068,0.164006 -0.30068,0.546687 z m -1.95714,4.258692 1.62366,-2.667832 q -0.23507,-0.120272 -0.72162,-0.497486 -0.48656,-0.377214 -0.48656,-1.251913 0,-0.869232 0.65056,-1.284714 0.65056,-0.420949 2.14848,-0.420949 h 2.31795 v 6.122894 h -1.59085 v -2.345287 h -0.6615 l -1.42685,2.345287 z"
           inkscape:connector-curvature="0" />
        <path
           id="path1058"
           style="font-style:normal;font-variant:normal;font-weight:bold;font-stretch:normal;font-family:'DejaVu Sans Mono';-inkscape-font-specification:'DejaVu Sans Mono Bold';text-align:center;text-anchor:middle;stroke-width:0.27990374"
           d="m 134.84433,61.440144 q 0,0.497485 0.25147,0.661491 0.25148,0.158539 0.98404,0.158539 h 0.58496 v -2.667832 h 1.58539 v 6.128361 h -1.58539 v -2.274218 h -1.03871 q -1.07151,0 -1.74393,-0.431883 -0.67243,-0.437349 -0.67243,-1.738464 v -1.678329 h 1.6346 z"
           inkscape:connector-curvature="0" />
        <path
           id="path1060"
           style="font-style:normal;font-variant:normal;font-weight:bold;font-stretch:normal;font-family:'DejaVu Sans Mono';-inkscape-font-specification:'DejaVu Sans Mono Bold';text-align:center;text-anchor:middle;stroke-width:0.27990374"
           d="m 145.15484,59.597809 v 6.122894 h -1.59085 v -3.908812 l -1.95168,3.908812 h -1.59086 v -6.122894 h 1.59086 v 3.908812 l 1.95168,-3.908812 z"
           inkscape:connector-curvature="0" />
        <path
           id="path1062"
           style="font-style:normal;font-variant:normal;font-weight:bold;font-stretch:normal;font-family:'DejaVu Sans Mono';-inkscape-font-specification:'DejaVu Sans Mono Bold';text-align:center;text-anchor:middle;stroke-width:0.27990374"
           d="m 151.95016,65.420025 q -0.55762,0.229609 -1.1371,0.344413 -0.57949,0.114804 -1.22458,0.114804 -1.53619,0 -2.35076,-0.82003 -0.80909,-0.825498 -0.80909,-2.372622 0,-1.497922 0.78176,-2.367154 0.78176,-0.869233 2.13208,-0.869233 1.36125,0 2.11021,0.809097 0.75443,0.80363 0.75443,2.268751 v 0.650558 h -4.14936 q 0.005,0.721626 0.42642,1.076973 0.42095,0.355347 1.25738,0.355347 0.55215,0 1.08791,-0.15854 0.53575,-0.158539 1.1207,-0.502952 z m -1.35578,-3.444128 q -0.0109,-0.634157 -0.32801,-0.956702 -0.31161,-0.328012 -0.9239,-0.328012 -0.55216,0 -0.88017,0.338946 -0.32801,0.333479 -0.38815,0.951235 z"
           inkscape:connector-curvature="0" />
        <path
           id="path1064"
           style="font-style:normal;font-variant:normal;font-weight:bold;font-stretch:normal;font-family:'DejaVu Sans Mono';-inkscape-font-specification:'DejaVu Sans Mono Bold';text-align:center;text-anchor:middle;stroke-width:0.27990374"
           d="m 165.25106,59.597809 v 1.197244 h -1.6838 v 4.92565 h -1.59086 v -4.92565 h -1.68379 v -1.197244 z"
           inkscape:connector-curvature="0" />
        <path
           id="path1066"
           style="font-style:normal;font-variant:normal;font-weight:bold;font-stretch:normal;font-family:'DejaVu Sans Mono';-inkscape-font-specification:'DejaVu Sans Mono Bold';text-align:center;text-anchor:middle;stroke-width:0.27990374"
           d="m 172.15572,65.420025 q -0.55763,0.229609 -1.13711,0.344413 -0.57949,0.114804 -1.22458,0.114804 -1.53619,0 -2.35076,-0.82003 -0.80909,-0.825498 -0.80909,-2.372622 0,-1.497922 0.78176,-2.367154 0.78176,-0.869233 2.13208,-0.869233 1.36125,0 2.11021,0.809097 0.75443,0.80363 0.75443,2.268751 v 0.650558 h -4.14936 q 0.005,0.721626 0.42642,1.076973 0.42095,0.355347 1.25738,0.355347 0.55215,0 1.08791,-0.15854 0.53575,-0.158539 1.12071,-0.502952 z m -1.35579,-3.444128 q -0.0109,-0.634157 -0.32801,-0.956702 -0.31161,-0.328012 -0.9239,-0.328012 -0.55216,0 -0.88017,0.338946 -0.32801,0.333479 -0.38815,0.951235 z"
           inkscape:connector-curvature="0" />
        <path
           id="path1068"
           style="font-style:normal;font-variant:normal;font-weight:bold;font-stretch:normal;font-family:'DejaVu Sans Mono';-inkscape-font-specification:'DejaVu Sans Mono Bold';text-align:center;text-anchor:middle;stroke-width:0.27990374"
           d="m 173.33656,59.597809 h 1.92434 l 0.9731,3.5808 0.9731,-3.5808 h 1.92434 v 6.122894 h -1.31205 l -0.0109,-4.499234 -0.9403,3.569866 h -1.26832 l -0.95123,-3.569866 v 4.499234 h -1.31205 z"
           inkscape:connector-curvature="0" />
        <path
           id="path1070"
           style="font-style:normal;font-variant:normal;font-weight:bold;font-stretch:normal;font-family:'DejaVu Sans Mono';-inkscape-font-specification:'DejaVu Sans Mono Bold';text-align:center;text-anchor:middle;stroke-width:0.27990374"
           d="m 181.36192,63.102072 v 1.421387 h 0.14761 q 0.27334,0 0.56309,-0.164007 0.28974,-0.169472 0.28974,-0.552153 0,-0.382681 -0.28974,-0.541221 -0.28975,-0.164006 -0.56309,-0.164006 z m 0,-3.504263 v 2.307019 h 0.11481 q 1.15897,0 1.82047,0.470151 0.66695,0.47015 0.66695,1.43232 0,0.962169 -0.66695,1.437786 -0.6615,0.475618 -1.82047,0.475618 h -1.70566 v -6.122894 z m 3.20359,6.122894 v -6.122894 h 1.60179 v 6.122894 z"
           inkscape:connector-curvature="0" />
        <path
           id="path1072"
           style="font-style:normal;font-variant:normal;font-weight:bold;font-stretch:normal;font-family:'DejaVu Sans Mono';-inkscape-font-specification:'DejaVu Sans Mono Bold';text-align:center;text-anchor:middle;stroke-width:0.27990374"
           d="m 105.91912,73.241431 v 1.738464 h 2.09381 v 1.230046 h -2.09381 v 2.897441 q 0,0.410015 0.19681,0.590422 0.20227,0.17494 0.66696,0.17494 h 1.23004 v 1.230046 h -1.34485 q -1.37765,0 -1.8642,-0.43735 -0.48655,-0.442816 -0.48655,-1.634594 v -2.820905 h -1.56353 v -1.230046 h 1.56353 v -1.738464 z"
           inkscape:connector-curvature="0" />
        <path
           id="path1074"
           style="font-style:normal;font-variant:normal;font-weight:bold;font-stretch:normal;font-family:'DejaVu Sans Mono';-inkscape-font-specification:'DejaVu Sans Mono Bold';text-align:center;text-anchor:middle;stroke-width:0.27990374"
           d="m 111.33679,79.096449 h 1.82047 v 2.006341 h -1.82047 z"
           inkscape:connector-curvature="0" />
        <path
           id="path1076"
           style="font-style:normal;font-variant:normal;font-weight:bold;font-stretch:normal;font-family:'DejaVu Sans Mono';-inkscape-font-specification:'DejaVu Sans Mono Bold';text-align:center;text-anchor:middle;stroke-width:0.27990374"
           d="m 119.38949,75.592185 q 0.1804,-0.388148 0.45921,-0.574022 0.27881,-0.185873 0.68336,-0.185873 0.7927,0 1.09338,0.546687 0.30614,0.546687 0.30614,2.274218 v 3.449595 h -1.31205 v -3.93068 q 0,-0.683359 -0.10387,-0.912967 -0.10387,-0.229609 -0.37721,-0.229609 -0.27335,0 -0.38268,0.235076 -0.10934,0.235075 -0.10934,0.9075 v 3.93068 h -1.29565 v -3.93068 q 0,-0.672425 -0.10934,-0.9075 -0.10933,-0.235076 -0.38268,-0.235076 -0.27334,0 -0.37721,0.229609 -0.10387,0.229608 -0.10387,0.912967 v 3.93068 h -1.31205 v -6.122895 h 1.16444 v 0.634157 q 0.13668,-0.360813 0.43735,-0.568554 0.30068,-0.213208 0.67243,-0.213208 0.37175,0 0.67789,0.224142 0.30614,0.218674 0.37175,0.535753 z"
           inkscape:connector-curvature="0" />
        <path
           id="path1078"
           style="font-style:normal;font-variant:normal;font-weight:bold;font-stretch:normal;font-family:'DejaVu Sans Mono';-inkscape-font-specification:'DejaVu Sans Mono Bold';text-align:center;text-anchor:middle;stroke-width:0.27990374"
           d="m 128.37702,80.802112 q -0.55762,0.229608 -1.13711,0.344413 -0.57949,0.114804 -1.22458,0.114804 -1.53619,0 -2.35075,-0.82003 -0.8091,-0.825498 -0.8091,-2.372622 0,-1.497922 0.78176,-2.367155 0.78177,-0.869232 2.13208,-0.869232 1.36125,0 2.11022,0.809097 0.75442,0.80363 0.75442,2.268751 v 0.650557 h -4.14935 q 0.005,0.721627 0.42642,1.076974 0.42094,0.355346 1.25738,0.355346 0.55215,0 1.0879,-0.158539 0.53576,-0.158539 1.12071,-0.502952 z m -1.35578,-3.444128 q -0.0109,-0.634157 -0.32801,-0.956702 -0.31162,-0.328013 -0.92391,-0.328013 -0.55215,0 -0.88016,0.338946 -0.32801,0.333479 -0.38815,0.951236 z"
           inkscape:connector-curvature="0" />
        <path
           id="path1080"
           style="font-style:normal;font-variant:normal;font-weight:bold;font-stretch:normal;font-family:'DejaVu Sans Mono';-inkscape-font-specification:'DejaVu Sans Mono Bold';text-align:center;text-anchor:middle;stroke-width:0.27990374"
           d="m 134.00243,72.940753 h 1.20818 l -4.29696,9.200742 h -1.20818 z"
           inkscape:connector-curvature="0" />
        <path
           id="path1082"
           style="font-style:normal;font-variant:normal;font-weight:bold;font-stretch:normal;font-family:'DejaVu Sans Mono';-inkscape-font-specification:'DejaVu Sans Mono Bold';text-align:center;text-anchor:middle;stroke-width:0.27990374"
           d="m 140.46974,80.867714 q 0,1.377652 -0.49749,1.962607 -0.49202,0.590422 -1.64006,0.590422 h -1.72753 v -1.230046 h 1.27925 q 0.53575,0 0.75989,-0.300678 0.22414,-0.300678 0.22414,-1.022305 v -4.657773 h -1.62366 v -1.230046 h 3.22546 z m 0,-6.997593 h -1.6018 v -1.86967 h 1.6018 z"
           inkscape:connector-curvature="0" />
        <path
           id="path1084"
           style="font-style:normal;font-variant:normal;font-weight:bold;font-stretch:normal;font-family:'DejaVu Sans Mono';-inkscape-font-specification:'DejaVu Sans Mono Bold';text-align:center;text-anchor:middle;stroke-width:0.27990374"
           d="m 144.97444,80.239024 v 3.192652 h -1.59633 v -8.451781 h 1.59633 v 0.918435 q 0.25147,-0.530287 0.66149,-0.798163 0.41001,-0.267877 0.96217,-0.267877 1.04964,0 1.62913,0.841898 0.57948,0.841898 0.57948,2.372621 0,1.552592 -0.59042,2.383556 -0.58495,0.830964 -1.67286,0.830964 -0.49202,0 -0.88563,-0.251476 -0.38815,-0.256943 -0.68336,-0.770829 z m 2.23048,-2.203148 q 0,-0.885633 -0.29521,-1.388585 -0.29521,-0.502952 -0.81456,-0.502952 -0.51936,0 -0.82003,0.502952 -0.30068,0.502952 -0.30068,1.388585 0,0.885633 0.30068,1.388585 0.30067,0.502952 0.82003,0.502952 0.51935,0 0.81456,-0.502952 0.29521,-0.502952 0.29521,-1.388585 z"
           inkscape:connector-curvature="0" />
        <path
           id="path1086"
           style="font-style:normal;font-variant:normal;font-weight:bold;font-stretch:normal;font-family:'DejaVu Sans Mono';-inkscape-font-specification:'DejaVu Sans Mono Bold';text-align:center;text-anchor:middle;stroke-width:0.27990374"
           d="m 155.58563,76.669158 q -0.26241,-0.240542 -0.61775,-0.360813 -0.34988,-0.120271 -0.77083,-0.120271 -0.50842,0 -0.8911,0.180406 -0.37722,0.17494 -0.58496,0.513886 -0.1312,0.207741 -0.18587,0.502952 -0.0492,0.295211 -0.0492,0.896567 v 2.820905 h -1.6018 v -6.122895 h 1.6018 v 0.951236 q 0.23507,-0.52482 0.72162,-0.809097 0.48656,-0.289744 1.13711,-0.289744 0.32802,0 0.63963,0.082 0.31708,0.07654 0.60135,0.229608 z"
           inkscape:connector-curvature="0" />
        <path
           id="path1088"
           style="font-style:normal;font-variant:normal;font-weight:bold;font-stretch:normal;font-family:'DejaVu Sans Mono';-inkscape-font-specification:'DejaVu Sans Mono Bold';text-align:center;text-anchor:middle;stroke-width:0.27990374"
           d="m 159.39604,76.133405 q -0.57402,0 -0.90203,0.508419 -0.32801,0.502952 -0.32801,1.404985 0,0.902034 0.32801,1.410453 0.32801,0.502952 0.90203,0.502952 0.57949,0 0.9075,-0.502952 0.32801,-0.508419 0.32801,-1.410453 0,-0.902033 -0.32801,-1.404985 -0.32801,-0.508419 -0.9075,-0.508419 z m -2.83184,1.913404 q 0,-1.481521 0.76536,-2.345287 0.77083,-0.869232 2.06648,-0.869232 1.30112,0 2.06648,0.869232 0.77083,0.863766 0.77083,2.345287 0,1.481522 -0.77083,2.350755 -0.76536,0.863765 -2.06648,0.863765 -1.29565,0 -2.06648,-0.863765 -0.76536,-0.869233 -0.76536,-2.350755 z"
           inkscape:connector-curvature="0" />
        <path
           id="path1090"
           style="font-style:normal;font-variant:normal;font-weight:bold;font-stretch:normal;font-family:'DejaVu Sans Mono';-inkscape-font-specification:'DejaVu Sans Mono Bold';text-align:center;text-anchor:middle;stroke-width:0.27990374"
           d="m 166.80365,74.444142 v 0.535753 h 1.8806 v 1.230046 h -1.8806 v 4.892849 h -1.60179 v -4.892849 h -1.48699 v -1.230046 h 1.48699 V 74.55348 q 0,-1.104308 0.45921,-1.530724 0.45922,-0.426416 1.70567,-0.426416 h 1.31751 v 1.230046 h -1.25191 q -0.36081,0 -0.49202,0.131205 -0.12574,0.131205 -0.13667,0.486551 z"
           inkscape:connector-curvature="0" />
        <path
           id="path1092"
           style="font-style:normal;font-variant:normal;font-weight:bold;font-stretch:normal;font-family:'DejaVu Sans Mono';-inkscape-font-specification:'DejaVu Sans Mono Bold';text-align:center;text-anchor:middle;stroke-width:0.27990374"
           d="m 176.23947,82.704583 v 1.038705 h -6.74065 v -1.038705 z"
           inkscape:connector-curvature="0" />
        <path
           id="path1094"
           style="font-style:normal;font-variant:normal;font-weight:bold;font-stretch:normal;font-family:'DejaVu Sans Mono';-inkscape-font-specification:'DejaVu Sans Mono Bold';text-align:center;text-anchor:middle;stroke-width:0.27990374"
           d="m 180.88084,78.057743 q 0,-0.885633 -0.29521,-1.388585 -0.29521,-0.502952 -0.81456,-0.502952 -0.51936,0 -0.82004,0.502952 -0.30067,0.502952 -0.30067,1.388585 0,0.885633 0.30067,1.388585 0.30068,0.502952 0.82004,0.502952 0.51935,0 0.81456,-0.502952 0.29521,-0.502952 0.29521,-1.388585 z m -2.23048,-2.208615 q 0.29521,-0.508419 0.68336,-0.759895 0.39361,-0.256943 0.88563,-0.256943 1.08791,0 1.67286,0.830964 0.59042,0.830964 0.59042,2.383555 0,1.530724 -0.57949,2.372622 -0.57948,0.841898 -1.62912,0.841898 -0.55216,0 -0.96217,-0.267877 -0.41002,-0.267876 -0.66149,-0.798163 v 0.907501 h -1.59633 v -8.50645 h 1.59633 z"
           inkscape:connector-curvature="0" />
        <path
           id="path1096"
           style="font-style:normal;font-variant:normal;font-weight:bold;font-stretch:normal;font-family:'DejaVu Sans Mono';-inkscape-font-specification:'DejaVu Sans Mono Bold';text-align:center;text-anchor:middle;stroke-width:0.27990374"
           d="m 186.85613,81.764281 q -0.32255,0.863766 -0.7763,1.25738 -0.44828,0.399082 -1.09337,0.399082 h -1.32298 v -1.219112 h 0.65055 q 0.49202,0 0.72163,-0.169473 0.22961,-0.164006 0.46468,-0.770829 l 0.12028,-0.328012 -2.32889,-5.953422 h 1.6838 l 1.39951,3.974415 1.33939,-3.974415 h 1.68379 z"
           inkscape:connector-curvature="0" />
      </g>
    </g>
  </g>
</svg>
