<?xml version="1.0" encoding="UTF-8" standalone="no"?>
<!-- Created with Inkscape (http://www.inkscape.org/) -->

<svg
   xmlns:dc="http://purl.org/dc/elements/1.1/"
   xmlns:cc="http://creativecommons.org/ns#"
   xmlns:rdf="http://www.w3.org/1999/02/22-rdf-syntax-ns#"
   xmlns:svg="http://www.w3.org/2000/svg"
   xmlns="http://www.w3.org/2000/svg"
   xmlns:sodipodi="http://sodipodi.sourceforge.net/DTD/sodipodi-0.dtd"
   xmlns:inkscape="http://www.inkscape.org/namespaces/inkscape"
   width="1052.3622"
   height="1488.189"
   id="svg3114"
   version="1.1"
   inkscape:version="0.48.4 r9939"
   sodipodi:docname="deus ex custom.svg">
  <defs
     id="defs3116" />
  <sodipodi:namedview
     id="base"
     pagecolor="#ffffff"
     bordercolor="#666666"
     borderopacity="1.0"
     inkscape:pageopacity="0.0"
     inkscape:pageshadow="2"
     inkscape:zoom="0.24748738"
     inkscape:cx="2472.122"
     inkscape:cy="636.34248"
     inkscape:document-units="px"
     inkscape:current-layer="layer1"
     showgrid="true"
     inkscape:window-width="1920"
     inkscape:window-height="1028"
     inkscape:window-x="-8"
     inkscape:window-y="-8"
     inkscape:window-maximized="1"
     inkscape:snap-from-guide="true"
     gridtolerance="10">
    <inkscape:grid
       type="xygrid"
       id="grid3122"
       empspacing="5"
       visible="true"
       enabled="true"
       snapvisiblegridlinesonly="true" />
  </sodipodi:namedview>
  <metadata
     id="metadata3119">
    <rdf:RDF>
      <cc:Work
         rdf:about="">
        <dc:format>image/svg+xml</dc:format>
        <dc:type
           rdf:resource="http://purl.org/dc/dcmitype/StillImage" />
        <dc:title />
      </cc:Work>
    </rdf:RDF>
  </metadata>
  <g
     inkscape:label="Layer 1"
     inkscape:groupmode="layer"
     id="layer1"
     transform="translate(0,435.82679)">
    <path
       style="fill:#cccccc"
       d="m 15.734416,934.4725 c -2.563597,-1.87455 -3.924835,-5.33395 -3.429703,-8.71615 0.722838,-4.93759 11.062568,-9.96983 86.496337,-42.09673 l 85.67535,-36.48875 307.37551,-0.0119 c 291.46198,-0.0119 307.33286,-0.22823 306.55172,-4.17741 -0.45308,-2.29063 -1.3769,-6.84213 -2.05293,-10.11445 l -1.22913,-5.94968 -246.7453,0.61703 c -180.95339,0.45251 -247.61065,-0.10115 -249.99059,-2.0763 -5.04623,-4.188 -3.98409,-15.32296 6.39869,-67.08011 26.54886,-132.34352 58.72672,-244.16087 101.49645,-352.69777 17.48346,-44.36782 66.43531,-156.831 74.79144,-171.82771 l 4.24398,-7.61661 -25.47671,-18.71908 C 417.3589,176.30337 372.40935,147.16387 322.50891,118.48864 285.0853,96.983197 240.2076,73.068137 239.24063,74.115446 238.85366,74.534565 224.439,129.49552 207.20804,196.2509 c -17.23095,66.75538 -35.69149,138.21269 -41.0234,158.79403 -7.71373,29.77518 -10.6271,37.71665 -14.25952,38.86953 -12.06666,3.8298 -11.47633,22.08991 -11.47633,-354.981097 l 0,-350.694203 5.75753,-1.44506 c 6.8867,-1.72845 33.54002,14.468 91.4248,55.55618 134.9007,95.75616 254.33217,210.509031 347.17362,333.573559 0.43416,0.575476 2.61236,-1.566407 4.84047,-4.759742 15.49657,-22.210002 56.93567,-70.70148959 85.03609,-99.508106 49.13517,-50.37 104.34085,-95.221571 180.91869,-146.986501 58.69047,-39.67344 70.57012,-44.87156 72.11602,-31.55542 0.58778,5.06303 -2.03258,8.55459 -14.27923,19.02681 -8.24951,7.05422 -20.31439,17.65055 -26.81084,23.54742 -6.49645,5.89686 -18.27681,16.56516 -26.17858,23.7073 C 816.41692,-100.8068 753.50053,-33.793009 722.93697,5.8612254 705.39456,28.621334 661.18493,94.442114 648.60763,116.52522 c -6.3367,11.1259 -12.90595,21.38007 -14.59835,22.78705 -2.43365,2.02323 -0.62031,6.39274 8.6719,20.89603 24.54394,38.30836 66.15631,117.04234 95.77531,181.21473 60.79092,131.70932 111.19701,295.72388 131.83456,428.97173 4.08346,26.36518 4.24329,26.77354 10.47972,26.77354 8.86956,0 135.74343,14.14891 140.82523,15.70475 4.7771,1.46255 5.5777,10.48887 1.3089,14.7576 -2.0937,2.09376 -21.831,2.85585 -73.96509,2.85585 l -71.10923,0 1.37821,6.54464 c 1.25455,5.95732 6.11113,75.57268 6.13116,87.88523 0.005,2.85161 -1.67447,6.86764 -3.73137,8.92452 -3.37216,3.37215 -45.90766,3.7398 -432.68164,3.7398 -349.21116,0 -429.731954,-0.57774 -433.192524,-3.10819 z M 872.37991,908.42727 C 871.719,900.24646 870.56855,883.9146 869.82336,872.13424 863.17229,766.99123 831.15458,621.3584 787.1546,496.11464 753.20402,399.476 701.70671,286.93483 651.43851,199.52346 564.86797,48.985961 429.55224,-98.073919 260.22624,-225.6424 c -32.36906,-24.38652 -102.19744,-71.92991 -105.64561,-71.92991 -1.38013,0 -2.16076,124.70718 -2.04459,326.637276 0.10328,179.650504 0.60948,325.566344 1.12477,324.257414 0.51529,-1.30893 17.67644,-67.70733 38.13588,-147.552 20.45944,-79.84467 38.14219,-146.172408 39.29498,-147.394971 3.79917,-4.029074 93.75832,44.871111 159.93836,86.939661 74.02339,47.05428 132.64901,92.87789 183.91131,143.7508 47.72986,47.36728 67.45042,72.03038 94.93022,118.72254 53.84275,91.48665 101.74614,229.34763 129.51157,372.7208 10.65009,54.9941 13.02511,70.54496 11.41496,74.74099 -1.32245,3.44622 -29.94287,3.79475 -311.62418,3.79475 l -310.16797,0 -74.85084,32.02973 -74.850823,32.02975 417.138653,0.0985 417.13865,0.0985 -1.20167,-14.8742 z m 51.0464,-94.71206 c -20.2884,-2.38798 -38.99391,-4.45676 -40.50753,-4.54084 -1.60127,-0.089 -1.48664,2 -0.63984,4.65303 2.28896,7.17132 1.22304,4.75987 39.64003,4.49465 l 38.39534,-0.26507 z m -137.06257,-6.49714 c -0.88077,-4.8729 -1.8602,-9.1715 -2.17656,-9.55242 -0.31635,-0.3809 -78.62077,-10.30553 -174.00983,-22.05469 C 514.78829,763.8618 434.33309,753.71139 431.388,753.05447 c -6.91857,-1.54323 -6.87761,-2.87636 1.68388,-54.8005 14.25379,-86.4469 35.6038,-181.75906 54.0755,-241.4072 13.58716,-43.87514 47.21376,-131.50006 60.33132,-157.21259 l 4.34681,-8.52046 -13.51379,-11.96378 c -23.9009,-21.1595 -45.89573,-39.4208 -46.41845,-38.53915 -6.84534,11.54594 -45.52424,99.94965 -67.16541,153.51188 -47.95687,118.694 -78.90695,223.95838 -107.08364,364.20226 -5.83245,29.0299 -10.60447,53.92792 -10.60447,55.32891 0,1.79335 71.16852,2.52901 240.46265,2.48568 l 240.46268,-0.0616 -1.60134,-8.85986 z m 1.39225,-23.73402 c -0.01,-0.9817 -3.7635,-18.38451 -8.34171,-38.67291 C 753.57443,630.30109 720.62685,533.71556 680.26148,454.1455 650.44265,395.36523 623.34449,356.39208 582.02841,312.86457 l -18.0717,-19.03896 -4.89956,10.70942 c -13.27035,29.00622 -31.91497,75.24354 -43.68036,108.32406 -31.13228,87.53418 -46.39596,152.2498 -76.09207,322.61846 l -1.06944,6.13555 159.905,19.67137 c 87.94775,10.81925 165.25971,20.51663 171.80436,21.5497 16.60334,2.62089 17.85132,2.66636 17.83135,0.64988 z M 568.65741,653.64921 c -54.19297,-15.34658 -77.62085,-76.02553 -47.40379,-122.77722 10.35667,-16.02379 21.11628,-24.98743 37.31687,-31.08804 25.08049,-9.44452 47.69633,-8.11017 70.47424,4.15799 36.1615,19.47656 51.396,66.39343 33.97002,104.61561 -15.90075,34.87674 -58.51544,55.24153 -94.35734,45.09166 z m 52.06272,-18.64009 c 18.01313,-8.69081 29.16987,-22.52331 35.04203,-43.4463 4.61971,-16.46038 3.43316,-28.37668 -4.52935,-45.48721 -24.47918,-52.60296 -97.81802,-52.92993 -123.91883,-0.55244 -7.91069,15.87471 -8.40746,40.41542 -1.14362,56.49573 5.85693,12.96582 19.26299,27.32891 31.31384,33.54935 21.26698,10.97765 39.66122,10.81499 63.23593,-0.55913 z m 19.664,-529.78828 c 51.6654,-86.253999 99.11196,-145.207059 183.32764,-227.78739 42.42969,-41.60579 50.15057,-50.07332 37.8379,-41.49712 -8.50804,5.92614 -24.57217,17.08947 -35.69806,24.80741 -37.80447,26.22461 -80.42103,60.286781 -114.03837,91.147541 -29.3773,26.96841 -84.16154,88.439756 -105.79043,118.70348 l -9.21022,12.887191 4.74908,5.217248 c 2.61201,2.869482 9.33895,12.44611 14.94878,21.28138 5.60983,8.83527 10.46984,16.06413 10.80002,16.06413 0.33018,0 6.21332,-9.37075 13.07366,-20.82387 z"
       id="path3076"
       inkscape:connector-curvature="0"
       sodipodi:nodetypes="ssscssscssssscssssssscsscssssssssssssssscscscssscssssssssssssssscccccccscsscscsssssscssssssccccssscssscsscssssssssssssssssssscssss" />
    <path
       style="fill:#808080"
       d="m 118.38914,890.51981 72.69191,-31.2518 303.08484,-0.022 c 166.69667,-0.012 306.4941,-0.5858 310.66098,-1.2745 9.14667,-1.5119 9.12378,-1.2848 3.4568,-34.302 C 777.82515,646.21091 719.82698,479.56776 654.26848,381.14541 598.09329,296.81012 494.5212,206.59711 360.86483,125.58595 301.42202,89.556761 239.00883,56.449811 232.78796,57.647831 c -3.51264,0.67648 -7.3276,14.27924 -47.75447,170.274829 -16.12596,62.2254 -29.69392,114.04623 -30.15103,115.15739 -0.45711,1.11117 -0.66408,-141.3205 -0.45993,-316.514829 0.20415,-175.194341 1.04399,-319.207801 1.86632,-320.029921 2.76341,-2.76271 77.99614,49.32744 129.82469,89.8889 123.81537,96.89898 231.32227,207.8107314 310.54639,320.38168 38.34494,54.48505 74.46044,117.50588 111.14694,193.94929 90.56729,188.71446 146.6012,382.84534 160.07213,554.57374 1.69968,21.6678 3.53258,43.2598 4.07309,47.9823 l 0.98278,8.5863 -413.61882,-0.063 -413.618817,-0.063 72.691907,-31.2518 z"
       id="path3913"
       inkscape:connector-curvature="0" />
    <path
       style="fill:#808080"
       d="m 620.89546,114.43875 c -3.4451,-5.36508 -9.91348,-14.643549 -14.3742,-20.618829 l -8.11038,-10.86411 14.99214,-19.55875 c 45.64548,-59.5491196 94.01076,-108.89967 153.74349,-156.87549 24.5272,-19.699631 82.0486,-61.446721 84.66462,-61.446721 0.90012,0 -16.02361,17.95546 -37.60831,39.90102 C 727.98414,-27.364019 693.77875,15.832291 635.4334,110.73501 l -8.27413,13.45844 -6.26381,-9.7547 0,0 z"
       id="path3915"
       inkscape:connector-curvature="0" />
    <path
       style="fill:#808080"
       d="m 315.91304,813.35981 c -4.49558,-0.5579 -6.56599,-1.8912 -6.56599,-4.2284 0,-6.94 20.74823,-105.8358 31.2533,-148.9679 20.53615,-84.31815 42.6701,-155.51035 72.20146,-232.23064 19.41342,-50.43461 75.2503,-180.38865 79.207,-184.34535 1.27694,-1.27694 29.47161,21.62206 55.31307,44.92387 2.10069,1.89423 0.47949,7.24495 -8.31706,27.4506 -48.08097,110.44175 -78.75593,219.26162 -105.31328,373.60042 -7.50094,43.5919 -9.03135,59.5925 -5.98192,62.5411 1.01507,0.9816 81.28872,11.8274 178.3859,24.102 97.0972,12.2745 176.7929,22.5752 177.1016,22.8904 0.3087,0.3152 1.19808,3.9824 1.97645,8.1492 l 1.41516,7.5762 -232.05485,-0.3233 c -127.63017,-0.1779 -235.00955,-0.69 -238.62084,-1.1382 z"
       id="path3917"
       inkscape:connector-curvature="0" />
    <path
       style="fill:#808080"
       d="m 570.60136,639.34322 c -14.98829,-5.17921 -25.5609,-12.81072 -34.64571,-25.00794 -9.90119,-13.29329 -13.06799,-23.01085 -12.98669,-39.85071 0.12685,-26.27656 14.77409,-49.21385 38.54138,-60.35505 16.03501,-7.51661 40.97805,-7.66472 55.93323,-0.33214 30.66863,15.03693 45.93912,50.01656 35.51272,81.34788 -7.24258,21.76395 -21.85064,35.56381 -46.40165,43.83445 -14.86574,5.00791 -22.2953,5.08302 -35.95328,0.36351 z"
       id="path3919"
       inkscape:connector-curvature="0" />
    <path
       style="fill:#808080"
       d="m 887.10534,818.53491 c -0.19643,-0.081 -0.79466,-0.2443 -1.3294,-0.362 -1.43186,-0.3154 -2.35286,-1.5077 -3.14454,-4.0708 -0.82727,-2.6784 -0.90098,-4.2961 -0.20788,-4.562 0.48666,-0.1868 31.17968,3.1878 59.86039,6.5813 l 14.46428,1.7115 -23.75,0.2446 c -13.0625,0.1345 -28.65178,0.3257 -34.64285,0.4249 -5.99107,0.099 -11.05357,0.1138 -11.25,0.033 l 0,0 z"
       id="path3921"
       inkscape:connector-curvature="0" />
  </g>
</svg>
