<?xml version="1.0" encoding="UTF-8" standalone="no"?>
<!-- Created with Inkscape (http://www.inkscape.org/) -->

<svg
   xmlns:dc="http://purl.org/dc/elements/1.1/"
   xmlns:cc="http://creativecommons.org/ns#"
   xmlns:rdf="http://www.w3.org/1999/02/22-rdf-syntax-ns#"
   xmlns:svg="http://www.w3.org/2000/svg"
   xmlns="http://www.w3.org/2000/svg"
   xmlns:sodipodi="http://sodipodi.sourceforge.net/DTD/sodipodi-0.dtd"
   xmlns:inkscape="http://www.inkscape.org/namespaces/inkscape"
   width="163.42847mm"
   height="221.04384mm"
   viewBox="0 0 163.42847 221.04384"
   version="1.1"
   id="svg8"
   sodipodi:docname="elegant_objects?.svg"
   inkscape:version="0.92.4 5da689c313, 2019-01-14"
   inkscape:export-filename="/home/madhead/New document 1.2019_04_07_16_20_17.0.svg.png"
   inkscape:export-xdpi="128.009"
   inkscape:export-ydpi="128.009">
  <defs
     id="defs2" />
  <sodipodi:namedview
     id="base"
     pagecolor="#ffffff"
     bordercolor="#666666"
     borderopacity="1.0"
     inkscape:pageopacity="0.0"
     inkscape:pageshadow="2"
     inkscape:zoom="0.35"
     inkscape:cx="174.97456"
     inkscape:cy="458.29618"
     inkscape:document-units="mm"
     inkscape:current-layer="layer1"
     showgrid="false"
     inkscape:snap-global="false"
     inkscape:window-width="1920"
     inkscape:window-height="999"
     inkscape:window-x="0"
     inkscape:window-y="0"
     inkscape:window-maximized="1"
     fit-margin-top="0"
     fit-margin-left="0"
     fit-margin-right="0"
     fit-margin-bottom="0" />
  <metadata
     id="metadata5">
    <rdf:RDF>
      <cc:Work
         rdf:about="">
        <dc:format>image/svg+xml</dc:format>
        <dc:type
           rdf:resource="http://purl.org/dc/dcmitype/StillImage" />
        <dc:title></dc:title>
      </cc:Work>
    </rdf:RDF>
  </metadata>
  <g
     inkscape:label="Layer 1"
     inkscape:groupmode="layer"
     id="layer1"
     transform="translate(-35.381231,-54.738113)">
    <g
       id="g1446"
       transform="translate(143.63095,361.34524)">
      <path
         transform="scale(0.26458333)"
         id="path1394"
         d="m -131.08008,-1128.75 c -10.70011,-0.018 -21.96525,0.6838 -33.77734,2.0977 0.2426,1.0767 0.489,2.1417 0.7168,3.2558 1.79958,8.8022 -1.14153,13.5112 -7.47852,11.9766 -2.678,-0.6484 -5.14775,-2.6394 -7.11524,-5.7363 -1.1298,-1.7786 -2.25235,-4.205 -3.31054,-6.9903 -15.59,2.6526 -32.04897,6.4467 -49.39258,11.4297 -6.66669,2.2621 -13.18549,4.902 -19.5625,7.9102 -0.5724,1.1393 -1.84471,1.9714 -3.66211,2.1914 -0.2805,0.034 -0.55687,0.026 -0.83398,0 -15.613,7.883 -30.34708,18.0717 -44.23829,30.6191 0.17478,0.2112 0.36488,0.4306 0.48243,0.6094 2.21899,3.3734 -0.3801,14.2825 -3.54883,14.8945 -1.24108,0.2397 -4.59436,-1.6078 -8.48047,-4.334 -2.30778,2.3879 -4.59108,4.8421 -6.84961,7.3711 -15.92397,17.8314 -29.26531,37.7734 -40.05469,59.88088 6.7521,4.34423 8.03409,7.38764 4.12696,9.64844 -1.48868,0.86162 -3.37619,0.75968 -8.18946,-0.92969 -4.88122,10.92956 -9.18142,22.35477 -12.875,34.30469 l -0.0117,0.008 v 0.0156 c -13.79418,44.11804 -17.52909,78.11721 -12.39453,101.14648 0.21083,0.94571 0.438,1.86693 0.67383,2.77734 1.99189,-1.50198 3.68935,-2.65643 4.83594,-3.23046 6.56781,-3.28823 9.44531,-3.17179 9.44531,0.38086 0,1.3342 -4.98815,6.74391 -11.00195,12.55664 6.54338,15.20133 18.19407,24.06409 36.64648,28.25586 5.44702,1.17946 10.58492,1.88632 15.45703,2.15429 1.4103,-3.93003 3.09871,-6.76654 4.72852,-7.19336 2.49989,-0.65465 3.4676,1.14708 3.06641,7.23242 12.04698,-0.59576 22.31276,-4.28072 31.30078,-10.92578 6.69185,-4.9475 14.73151,-14.21942 23.74414,-27.62695 -0.0114,-0.0439 -0.0258,-0.087 -0.0371,-0.13086 -1.93155,-7.48547 -1.92986,-9.53603 0.0176,-12.31641 2.39552,-3.42006 5.15497,-2.91544 7.41015,0.8711 4.39649,-7.2201 8.9754,-15.29404 13.71289,-24.26758 -5.7859,-3.694 -10.22764,-6.99169 -10.68554,-8.40039 -0.2589,-0.79684 0.10946,-3.0406 0.81836,-4.98438 0.7088,-1.94381 1.81327,-3.81629 2.45507,-4.1621 1.0106,-0.54437 6.74215,2.27027 13.31055,6.09765 1.4855,-2.96315 2.98179,-5.98979 4.49219,-9.11523 22.0476,-45.62491 45.80781,-73.7104 73.57031,-81.84961 -0.3194,-5.18559 -0.19528,-9.40611 0.57422,-11.17969 0.944,-2.17584 2.31487,-2.77419 5.35547,-2.33984 5.1376,0.73398 8.18741,4.34417 9.34961,11.12109 26.7365,-0.84597 59.167376,14.19376 98.392576,42.6875 l 0.08203,0.0586 47.6230468,33.65235 c 2.21710097,-2.23665 4.1178012,-3.9066 5.125,-4.32813 2.8019981,-1.17263 9.2748872,5.88981 8.8378902,9.64258 -0.0888,0.76301 -0.716176,1.9548 -1.671875,3.36914 l 13.652344,9.64844 c 8.483902,5.99418 11.563411,16.27542 9.257813,24.75195 -1.509302,5.54907 -4.472008,10.61597 -8.191407,15.50781 0.379699,3.13713 -2.02029,8.464 -5.08789,9.63868 -0.696,0.26653 -1.944729,0.38372 -3.548828,0.38672 -13.0363019,13.7959 -29.820848,27.19159 -37.28125,35.81054 -18.251199,21.08576 -48.12961,51.29137 -89.88281,90.95899 l -0.0508,0.0449 -0.0449,0.0332 c -10.1983,9.36416 -19.66255,18.47749 -28.46485,27.35938 0.299,0.47232 0.8301,1.34984 1.00781,1.61328 2.3725,3.51753 0.42505,6.94046 -4.25195,7.47265 -1.3867,0.1578 -2.69817,-0.21961 -4.32617,-1.33007 -22.845,23.78233 -40.55392,45.74271 -53.07813,65.70507 0.38511,0.76362 0.57019,1.42845 0.49219,1.95313 -0.2445,1.65377 -0.93133,2.28094 -3.26953,2.59765 -3.0596,5.12508 -5.78132,10.11834 -8.14063,14.96876 -16.21818,33.34196 -30.45887,67.09933 -28.48437,79.93359 4.6552,0.0178 36.08152,0.23387 41.63672,0.17187 23.5091,-0.26154 56.46904,-0.99845 73.24414,-1.63867 5.2903,-0.2019 44.740369,-4.23071 50.042967,-4.54101 1.6909,-26.1312 33.009766,-58.07813 33.009766,-58.07813 l 2.511718,-2.51367 h 0.002 c 0,0 15.048923,-15.24727 25.919922,-26.49024 -4.058098,-4.85377 -6.907754,-9.8782 -5.597657,-11.24023 2.263102,-2.35272 7.860121,-2.71079 12.3574221,-0.79101 0.7429002,0.31709 1.7575093,1.02315 2.9121094,1.94921 25.2122985,-26.4528 47.4077205,-50.49509 66.5742185,-72.0957 -4.063597,-3.97489 -7.092878,-7.4741 -7.705078,-9.31836 -0.714198,-2.15149 -0.02336,-3.3473 2.710938,-4.67187 4.5159,-2.18967 9.291957,-1.22089 14.660156,3.00976 26.7458,-30.63832 46.925328,-55.97353 60.365238,-75.78906 3.64689,-5.59227 6.99338,-11.16272 10.04687,-16.71484 -1.861,-1.55585 -3.1071,-2.71463 -3.30468,-3.13672 -1.3758,-2.93889 -0.0231,-7.01003 2.45897,-7.40235 0.9844,-0.15556 2.93924,0.5542 5.39454,1.82813 13.61879,-27.45389 20.00011,-54.45788 19.41211,-81.2207 -0.0606,-2.75513 -0.17903,-5.4677 -0.34375,-8.14844 -1.5709,-0.32451 -2.64995,-1.05276 -4.09375,-2.24414 -4.3614,-3.59925 -3.7966,-5.24357 2.65821,-7.75 0.15209,-0.0593 0.36262,-0.11959 0.54101,-0.17969 -2.0745,-17.97207 -6.65821,-34.18461 -13.72851,-48.77344 -4.2143,2.27845 -7.78986,3.70117 -9.81837,3.70117 -2.5,0 -4.70856,-0.69452 -5.00586,-1.57617 -0.8462,-2.50892 1.72573,-6.76452 8.39453,-13.85937 -2.4712,-4.00997 -5.15303,-7.88503 -8.04883,-11.62696 -14.80852,-17.49836 -75.986322,-68.34769 -75.986322,-68.34769 0,0 -4.999425,5.3467 -8.513672,4.6933 -1.188536,-0.221 -2.107651,-1.1213 -3.029297,-1.9941 -2.339584,-2.2157 -2.347668,-5.3149 0.207032,-10.3359 -6.986302,-5.1535 -14.273412,-10.4276 -21.945313,-15.8535 -10.891498,-7.7031 -21.4174302,-14.6836 -31.5820311,-20.9688 -2.5891992,3.1335 -4.714608,5.123 -5.7539063,5.123 -0.5786003,0 -2.0667436,-0.9723 -3.3066406,-2.1601 -2.357802,-2.2587 -2.747238,-4.6395 -1.056641,-9.0606 -27.019497,-15.8352 -51.287299,-26.4473 -72.625,-31.9492 -1.974599,2.6818 -3.894417,2.8547 -7.824218,1.8731 -3.756802,-0.9385 -5.06153,-1.7775 -4.927735,-4.6074 -1.476106,-0.2503 -2.942526,-0.482 -4.386726,-0.6778 -8.8533,-1.1991 -18.17649,-1.8092 -27.96289,-1.8242 z"
         style="opacity:1;fill:#53c033;fill-opacity:1;fill-rule:nonzero;stroke:none;stroke-width:1.00157475;stroke-linecap:round;stroke-linejoin:miter;stroke-miterlimit:4;stroke-dasharray:none;stroke-opacity:0.49090911"
         inkscape:connector-curvature="0" />
      <path
         transform="scale(0.26458333)"
         id="path82"
         d="m -24.964844,-572.91602 c -12.1883,12.2843 -20.160271,18.83483 -24.888672,26.87305 9.9875,-0.80606 18.500706,0.23552 19.033204,2.50781 0.746702,3.18558 -2.642081,5.58296 -8.955079,6.33399 -4.447801,0.52902 -9.640546,0.77318 -13.964843,0.76562 -1.079501,4.31309 -1.631632,9.37181 -1.71875,15.76367 6.951802,-0.63057 9.281743,-1.87864 25.05664,-4.91992 12.254699,-2.76465 31.6873635,-9.09733 41.351563,-13.47656 6.750701,-3.05907 11.767578,-9.21947 11.767578,-11.84375 0,-2.14246 -5.115344,-8.47072 -14.9941408,-12.30664 -4.237803,-1.64553 -16.7639824,-5.41699 -27.8339842,-8.38086 -1.648498,-0.44133 -3.238115,-0.87711 -4.853516,-1.31641 z"
         style="opacity:1;fill:#9e7407;fill-opacity:1;fill-rule:nonzero;stroke:none;stroke-width:15.11811066;stroke-linecap:round;stroke-linejoin:miter;stroke-miterlimit:4;stroke-dasharray:none;stroke-opacity:0.49090911"
         inkscape:connector-curvature="0" />
      <path
         transform="scale(0.26458333)"
         id="path84"
         d="m -234.73828,-577.29297 c -13.8459,2.67855 -60.52255,12.72125 -68.97656,15.75391 -9.2922,3.33328 -22.0339,9.84584 -25.44141,13.0039 -6.11512,5.66722 -1.15093,12.48665 14.47266,19.87891 22.5761,9.87851 56.97461,14.71094 56.97461,14.71094 0,0 3.44958,-10.67195 8.58398,-25.20703 -1.4068,-0.94787 -2.78156,-2.05614 -4.03906,-3.33204 -4.2839,-4.34683 -7.23519,-10.61414 -5.86719,-12.46093 1.2106,-1.63442 6.52149,-0.023 14.08789,4.17578 3.1244,-8.52953 6.57478,-17.63252 10.20508,-26.52344 z"
         style="opacity:1;fill:#9e7407;fill-opacity:1;fill-rule:nonzero;stroke:none;stroke-width:15.11811066;stroke-linecap:round;stroke-linejoin:miter;stroke-miterlimit:4;stroke-dasharray:none;stroke-opacity:0.49090911"
         inkscape:connector-curvature="0" />
      <path
         transform="scale(0.26458333)"
         id="rect897"
         d="m 28.203125,-535.08984 c -0.08071,0.0619 -0.160689,0.12395 -0.242187,0.18554 0.08148,-0.0615 0.161498,-0.12371 0.242187,-0.18554 z m -2.171875,1.5625 c -0.08436,0.0568 -0.170637,0.11338 -0.255859,0.16992 0.08521,-0.0564 0.171517,-0.11323 0.255859,-0.16992 z m -365.9668,1.64062 c -1.67765,0.0891 -1.86967,3.09046 -1.34765,9.58984 0.86702,10.79437 4.43218,40.31185 9.08398,75.22852 1.9417,14.57499 3.97979,31.97683 4.5293,38.66992 1.96607,23.94739 6.82407,36.42045 17.71289,45.48047 13.54617,11.27112 12.92367,11.04555 51.74609,18.76758 l 35,6.96094 36,0.9375 c 19.8,0.51527 52.1999,0.8373 72,0.71484 33.288007,-0.20587 37.284708,-0.42216 53.066409,-2.86328 -1.49101,0.23063 -2.801923,0.42245 -4.117188,0.61523 9.601287,-11.25907 17.627164,-25.51109 21.580078,-43.6875 12.91354,-59.37942 11.064303,-102.64682 5.507813,-132.89257 -8.055115,1.5198 -16.949044,3.12502 -27.046875,4.87695 -12.198599,2.11642 -31.693361,4.39648 -31.693359,4.39648 l -125.874998,2.91016 c 0,0 -24.98338,-0.30443 -33.42188,-1.31836 -36.80972,-4.42295 -64.04482,-13.09691 -76.66992,-24.41992 -2.66418,-2.38934 -4.49654,-3.75553 -5.69922,-3.94531 -0.12528,-0.0198 -0.24362,-0.0274 -0.35547,-0.0215 z m 348.4140656,6.39649 c -0.283098,0.0935 -0.5507045,0.18789 -0.8398437,0.28125 0.2891967,-0.0933 0.5566626,-0.1879 0.8398437,-0.28125 z m -4.0898437,1.2832 c -0.4186825,0.12525 -0.8351194,0.25163 -1.265625,0.37695 0.4309539,-0.12531 0.8464623,-0.2517 1.265625,-0.37695 z m -4.98437502,1.41992 c -0.30439707,0.0825 -0.61785988,0.16542 -0.92773438,0.24805 0.3101323,-0.0826 0.62306115,-0.16557 0.92773438,-0.24805 z M -318.09766,-492.18359 c 3.2947,0 12.14035,42.3802 14.58985,69.90234 0.81249,9.12896 1.9803,18.39767 2.5957,20.59766 2.9594,10.57886 9.84273,19.63732 23.64453,31.11718 5.6375,4.68906 10.25,8.85345 10.25,9.25391 0,0.40045 -0.53922,1.26969 -1.19922,1.92969 -0.66,0.66 -3.2475,1.18983 -5.75,1.17773 -21.537,-0.10396 -36.15229,-33.6723 -43.52929,-99.97851 -1.67701,-15.07299 -2.01176,-34 -0.60157,-34 z"
         style="opacity:1;fill:#e3ad26;fill-opacity:1;fill-rule:nonzero;stroke:none;stroke-width:1.00157475;stroke-linecap:round;stroke-linejoin:miter;stroke-miterlimit:4;stroke-dasharray:none;stroke-opacity:0.49090911"
         inkscape:connector-curvature="0" />
      <path
         transform="scale(0.26458333)"
         sodipodi:nodetypes="cccccccscccccccccccccccccssscccccccccscccccccccccccaccccccccccccccccccccccsccccccccccccccscccccccccccccccccccccsccccccccccscccccccccccccccccccccccccccccccsccccccsccccsccccscccccccccccccccccccccccscccccccccccccccccccccccccccccccccccccccccccccscccccccccccsccccccccccccscccccscsccccccscccssccsssccccccccccccccscccscssccccssscccsssccccccscccccccsccccsccccsccccccccccsccccscsccccsccccssccccscccccscsccccsccccssccsccscssscccccsscccccscscccccccsccsccccccccccccccsccccscccccccccsccccccscccccccccsccccccscccccccccccccccscccccccccccccccsscccsccccscccccsccsccccccscsccssaccccccccccccccccccccca"
         inkscape:connector-curvature="0"
         id="path3754"
         d="m -184.90625,-1158.8301 c -0.9426,0.023 -1.75583,0.2994 -2.36523,0.8555 -1.78841,1.6319 -1.02014,10.1121 0.97656,19.1934 -15.7676,2.7593 -32.27919,6.6249 -49.55078,11.5957 l -0.16992,0.045 -0.16211,0.059 c -7.1448,2.4192 -14.12989,5.2444 -20.95899,8.457 -4.2644,-7.6212 -8.8268,-11.7891 -12.9375,-11.7891 -1.2612,0 -2.58902,0.4758 -2.94922,1.0586 -0.7437,1.2034 2.88157,8.972 6.69727,15.3418 -15.97879,8.5335 -31.04477,19.3099 -45.16406,32.2871 -6.16162,-4.4024 -12.62852,-8.3961 -14.42383,-8.4394 -2.52662,-0.061 -3.48806,1.1821 -4.04297,5.2265 -0.61391,4.4773 -0.11228,6.0954 3.20898,10.3536 0.97709,1.2528 2.28571,2.6588 3.7793,4.1171 -2.1676,2.2621 -4.31456,4.5725 -6.43359,6.9454 -16.81758,18.8318 -30.91233,39.9031 -42.2793,63.1386 -7.24823,-2.9431 -14.21592,-4.8397 -16.11914,-4.0117 -2.29988,1.0006 -2.53897,5.38494 -0.43555,7.97267 0.58761,0.7228 5.6367,3.19673 11.94141,5.92774 -5.0405,11.33506 -9.46819,23.1544 -13.27149,35.45703 -7.9e-4,0.002 3.1e-4,0.004 0,0.008 0,0.004 -0.0117,0.008 -0.0117,0.0156 -14.20211,45.43037 -18.83665,81.4531 -12.71094,108.92773 0.77809,3.48952 1.75726,6.83237 2.92578,10.02539 -5.33639,4.86788 -9.76953,9.39405 -9.76953,10.47266 0,0.65918 0.87974,2.15823 1.95312,3.33007 1.07339,1.17185 2.47771,2.12891 3.1211,2.12891 1.08128,0 4.65929,-2.64654 9.02929,-6.34961 9.11343,16.68015 24.47995,27.99159 44.79102,32.59766 l 0.0293,0.008 0.0391,0.006 c 5.30861,1.15132 10.49464,1.90772 15.54492,2.27539 -0.25587,2.94346 -0.28062,5.77563 0.0293,8.18164 0.49889,3.85829 0.58164,3.97618 3.21484,4.54492 1.4866,0.32088 2.94028,0.41341 3.23047,0.20508 0.2502,-0.17953 1.29424,-5.67702 2.44727,-12.69727 15.89219,-0.34733 30.20702,-4.90459 42.3164,-13.85742 7.17174,-5.30229 14.39926,-13.00598 21.85547,-23.09765 0.79943,1.01578 1.51237,1.56129 2.05469,1.45703 1.79396,-0.34489 2.73224,-3.61925 2.79101,-8.2832 7.12443,-10.4871 14.48953,-23.12592 22.2461,-37.96094 8.3946,4.61314 16.10176,8.18557 17.44336,7.46289 3.4589,-1.86312 2.41305,-5.4857 -3.43164,-11.89453 -1.47201,-1.61401 -4.59308,-4.01889 -8.35938,-6.6211 1.7348,-3.46677 3.48247,-6.99987 5.25977,-10.67773 20.38899,-42.1923 41.65718,-65.84404 61.77148,-73.11914 1.2109,7.18851 2.84079,13.84272 4.52539,17.08594 2.3309,4.48803 8.17671,5.36683 9.94141,1.49414 0.7203,-1.58109 0.95026,-6.90793 0.50976,-11.83594 -0.22378,-2.50322 -0.44689,-5.85821 -0.625,-9.23242 5.30033,-0.0365 22.24007,3.64561 32.64215,7.7522 20.014244,7.90133 37.845612,18.77446 56.057112,32.00949 l 0.03906,0.0312 46.472657,32.83203 c -2.274199,2.93873 -3.959319,5.45787 -4.261719,6.64453 -0.7089,2.78245 -0.147058,4.32604 2.361328,6.49023 2.7766,2.39596 3.969931,2.46034 7.6445312,0.40235 1.7766993,-0.99504 4.0560318,-2.81309 6.3945313,-4.95899 l 15.0820315,10.6543 c 4.582998,3.23803 4.503928,4.35901 3.394531,8.4375 -0.973603,3.57929 -4.303691,8.90111 -9.1171875,14.56836 -8.41170161,-1.07853 -17.7111162,-1.7709 -20.1367185,-1.14063 -3.204597,0.83271 -4.377035,2.04145 -4.927735,5.08008 -0.609702,3.36389 0.08547,4.32798 4.455078,6.17383 2.0088988,0.84858 5.0468054,1.68231 8.4414068,2.41406 -10.4353018,9.85981 -22.2152758,19.70564 -29.6718748,28.32031 -11.594499,13.39507 -28.5776,31.13372 -50.654297,52.93555 -3.814103,-4.12327 -8.178778,-8.42977 -11.267578,-10.87305 -6.101397,-4.82615 -8.807267,-5.19065 -10.884767,-1.46679 -1.3005,2.33095 -0.6405,3.83227 5.0586,11.50195 2.557197,3.44145 5.724134,7.12485 8.181636,9.60547 -9.005296,8.79284 -18.762576,18.18528 -29.296876,28.19336 -9.3123,8.55296 -18.05897,16.91518 -26.26758,25.10156 -5.1288,-7.7653 -10.50257,-11.97461 -15.38867,-11.97461 -1.6583,0 -3.4015,0.59013 -3.875,1.31055 -1.0363,1.57618 4.36877,12.30161 9.69727,20.38281 -22.6332,23.43606 -40.58412,45.36162 -53.82422,65.91016 -7.179,-5.68638 -15.71076,-10.78393 -19.12695,-10.29883 -1.26491,0.17953 -2.79158,1.28538 -3.39258,2.45703 -1.411,2.75021 4.43331,9.28912 15.91601,17.80859 0.1245,0.0926 0.21668,0.15848 0.33789,0.24805 -2.71689,4.68008 -5.17866,9.28706 -7.38476,13.82227 -1.3398,2.7544 -2.69217,5.70484 -4.04297,8.72461 -28.1026,3.15288 -94.38085,18.71071 -108.06055,32.32812 -4.35371,4.33395 -7.75027,8.91305 -10,13.48242 -5.63448,11.44415 -5.5724,12.97748 3.58789,87.96289 2.41883,19.8 5.11016,42.51092 5.98047,50.46875 1.87839,17.17501 3.38441,24.11174 7.47461,34.40821 1.67702,4.22158 3.05078,8.30516 3.05078,9.07422 0,0.76906 3.26249,4.8318 7.25,9.02734 7.1737,7.54813 7.3709,7.67006 18.75,11.60937 17.80838,6.16509 28.97334,8.78155 60.39844,14.16016 10.0563,1.72123 18.43866,2.18723 49.60156,2.75 23.3209,0.42111 38.8233,1.10401 41,1.80859 v 0.002 c 4.4769,1.44923 80.346728,0.95548 82.236329,-0.53516 0.695297,-0.54849 4.638669,-1.27418 8.763672,-1.61328 9.915697,-0.81517 29.783602,-5.75287 40.4375,-10.04883 23.0701986,-9.30267 31.834245,-19.95343 37.527344,-45.60937 0.671202,-3.02502 3.879661,-13.66976 7.130859,-23.65625 6.589901,-20.24217 11.199024,-38.5561 12.919922,-51.34375 0.629102,-4.67501 1.976793,-13.225 2.996094,-19 2.714498,-15.38007 4.727971,-57.11489 3.105469,-64.36524 -7.521801,-29.37811 -61.53711,-43.05859 -61.53711,-43.05859 0,0 8.8698765,-8.28784 14.2343752,-13.36719 6.1540991,2.98012 14.2426878,3.53663 15.8046878,0.88477 0.562,-0.95414 -2.638178,-5.35903 -6.7382815,-10.05078 25.4170995,-26.65996 47.8003805,-50.87963 67.1757815,-72.70508 5.788701,4.71243 11.536688,8.79029 15.054687,10.30664 4.903601,2.11381 10.183871,-0.40212 8.980469,-4.27735 -0.491301,-1.58214 -3.906595,-5.71739 -7.591797,-9.18945 -2.022697,-1.90571 -4.705807,-4.55405 -7.316406,-7.19726 27.298005,-31.22578 48.022075,-57.22467 62.138675,-78.04688 l 0.0371,-0.0586 0.0391,-0.0508 c 3.4228,-5.24667 6.60083,-10.49974 9.54883,-15.75782 9.5014,6.84182 12.10298,8.17003 14.45508,7.52539 4.8668,-1.33345 3.74262,-5.11951 -3.60938,-12.15234 -1.7175,-1.643 -3.68894,-3.31931 -5.74414,-4.93555 15.1156,-29.92739 22.49659,-59.99383 21.83789,-89.9707 -0.068,-3.10877 -0.20674,-6.17855 -0.40234,-9.2168 11.4427,-1.8737 22.96297,-4.91015 25.45117,-6.75195 3.3335,-2.4675 0.0311,-6.0174 -5.76563,-6.19727 -4.9274,-0.15269 -13.21284,0.50245 -20.74804,1.44922 -2.4047,-19.75891 -7.67092,-37.89621 -15.82422,-54.26757 3.5816,-2.63256 7.04897,-5.46233 9.98047,-8.2461 6.1849,-5.87335 6.72163,-6.77819 5.48633,-9.26172 -1.88851,-3.79676 -3.32523,-4.60314 -8.23243,-4.62695 -3.84439,-0.0189 -8.94809,2.63549 -15.30859,7.94531 -2.2822,-3.53646 -4.71759,-6.97657 -7.30859,-10.31836 l -0.0977,-0.12695 -0.10351,-0.11719 c -16.76111,-19.84354 -42.90371,-43.04524 -78.53321,-69.97464 1.678499,-2.2463 3.212321,-4.4899 4.419922,-6.5547 4.858,-8.3062 5.363566,-9.8752 4.009765,-12.4219 l -1.548828,-2.914 -5.148437,2.25 c -4.516902,1.9749 -9.251054,5.7491 -13.626953,10.7695 -6.951701,-5.1168 -14.190166,-10.3475 -21.792969,-15.7246 -10.852199,-7.6752 -21.37695,-14.6829 -31.5937501,-21.041 0.5808982,-0.9388 1.1640745,-1.8737 1.734375,-2.8438 9.3615991,-15.9221 9.1339121,-22.6561 -0.5878907,-17.4472 -3.6403995,1.9505 -8.4490308,7.088 -12.7070312,13.2949 -26.657597,-15.6355 -51.095811,-26.5297 -73.474609,-32.5918 5.643397,-16.1759 2.507002,-24.6502 -7.716797,-15.1894 -2.918298,2.7005 -5.439764,6.6569 -7.509766,11.7558 -2.124699,-0.3781 -4.233356,-0.7176 -6.318361,-1 -9.57039,-1.2963 -19.55116,-1.9553 -29.94726,-1.9785 h -0.01 c -12.0978,-0.026 -24.76237,0.8155 -37.98437,2.4922 -1.8907,-5.2703 -3.91542,-9.3352 -5.88672,-11.6367 -3.1356,-3.6609 -7.13681,-5.8657 -9.97461,-5.8027 z m 53.82617,30.0801 c 9.7864,0.015 19.10959,0.6251 27.96289,1.8242 1.4442,0.1958 2.91062,0.4275 4.386721,0.6778 -0.133795,2.8299 1.170933,3.6689 4.927735,4.6074 3.929801,0.9816 5.849619,0.8087 7.824218,-1.8731 21.337701,5.5019 45.605502,16.114 72.625,31.9492 -1.690597,4.4211 -1.301161,6.8019 1.056641,9.0606 1.239897,1.1878 2.7280403,2.1601 3.3066406,2.1601 1.0392983,0 3.1647071,-1.9895 5.7539063,-5.123 10.1646011,6.2852 20.6905331,13.2657 31.5820311,20.9688 7.671901,5.4259 14.959011,10.7 21.945313,15.8535 -2.5547,5.021 -2.546616,8.1202 -0.207032,10.3359 0.921646,0.8728 1.840761,1.7731 3.029297,1.9941 3.514247,0.6534 8.513393,-4.6933 8.513393,-4.6933 0,0 61.178086,50.84928 75.986606,68.34764 2.8958,3.74193 5.57763,7.61699 8.04883,11.62696 -6.6688,7.09485 -9.24073,11.35045 -8.39453,13.85937 0.2973,0.88165 2.50586,1.57617 5.00586,1.57617 2.0285,0 5.60406,-1.42272 9.81836,-3.70117 7.0703,14.58883 11.65401,30.80137 13.72851,48.77344 -0.17839,0.0601 -0.38891,0.12035 -0.54101,0.17969 -6.45481,2.50643 -7.01961,4.15075 -2.65821,7.75 1.4438,1.19138 2.52285,1.91963 4.09375,2.24414 0.16472,2.68074 0.28317,5.39331 0.34375,8.14844 0.588,26.76283 -5.79331,53.76681 -19.41211,81.2207 -2.4553,-1.27393 -4.41013,-1.98369 -5.39453,-1.82813 -2.4821,0.39232 -3.83478,4.46346 -2.45898,7.40235 0.19759,0.42209 1.44368,1.58087 3.30469,3.13672 -3.0535,5.55212 -6.39998,11.12257 -10.04688,16.71484 -13.4399,19.81553 -33.619433,45.15074 -60.365233,75.78906 -5.368199,-4.23065 -10.144256,-5.19943 -14.660156,-3.00976 -2.7343,1.32457 -3.425136,2.52038 -2.710938,4.67187 0.6122,1.84426 3.641481,5.34347 7.705078,9.31836 -19.166498,21.60061 -41.36192,45.6429 -66.5742185,72.0957 -1.1546001,-0.92606 -2.1692092,-1.63211 -2.9121094,-1.94921 -4.4973011,-1.91978 -10.0943201,-1.56171 -12.3574221,0.79101 -1.310097,1.36203 1.539559,6.38645 5.597657,11.24023 -10.870999,11.24297 -25.919922,26.49024 -25.919922,26.49024 h -0.002 l -2.511718,2.51367 c 0,0 -31.318866,31.94693 -33.009766,58.07813 -5.302598,0.3103 -44.752672,4.33911 -50.042972,4.54101 -16.7751,0.64022 -49.73504,1.37713 -73.24414,1.63867 -5.5552,0.062 -36.98152,-0.15411 -41.63672,-0.17187 -1.9745,-12.83426 12.26618,-46.59162 28.48437,-79.93359 2.35931,-4.85042 5.08103,-9.84368 8.14063,-14.96876 2.3382,-0.31672 3.02503,-0.94388 3.26953,-2.59765 0.078,-0.52468 -0.10708,-1.18951 -0.49219,-1.95313 12.52421,-19.96236 30.23313,-41.92274 53.07813,-65.70507 1.628,1.11046 2.93947,1.48787 4.32617,1.33007 4.677,-0.53219 6.62445,-3.95512 4.25195,-7.47265 -0.17771,-0.26344 -0.70881,-1.14096 -1.00781,-1.61328 8.8023,-8.88189 18.26655,-17.99522 28.46485,-27.35938 l 0.0449,-0.0332 0.0508,-0.0449 c 41.753203,-39.66762 71.631616,-69.87323 89.882815,-90.95899 7.460402,-8.61895 24.2449483,-22.01463 37.28125,-35.81054 1.604099,-0.003 2.852828,-0.12019 3.548828,-0.38672 3.0676,-1.17468 5.467589,-6.50155 5.08789,-9.63868 3.719399,-4.89184 6.682105,-9.95874 8.191407,-15.50781 2.305598,-8.47653 -0.773911,-18.75777 -9.257813,-24.75195 l -13.652344,-9.64844 c 0.955699,-1.41434 1.583075,-2.60613 1.671875,-3.36914 0.436997,-3.75277 -6.035892,-10.81521 -8.8378902,-9.64258 -1.0071988,0.42153 -2.90789895,2.09148 -5.125,4.32813 l -47.6230468,-33.65235 -0.08203,-0.0586 c -39.2252,-28.49374 -71.656081,-43.53347 -98.392581,-42.6875 -1.1622,-6.77692 -4.21201,-10.38711 -9.34961,-11.12109 -3.0406,-0.43435 -4.41147,0.164 -5.35547,2.33984 -0.7695,1.77358 -0.89362,5.9941 -0.57422,11.17969 -27.7625,8.13921 -51.52271,36.2247 -73.57031,81.84961 -1.5104,3.12544 -3.00669,6.15208 -4.49219,9.11523 -6.5684,-3.82738 -12.29995,-6.64202 -13.31055,-6.09765 -0.6418,0.34582 -1.74627,2.21829 -2.45507,4.1621 -0.7089,1.94378 -1.07726,4.18754 -0.81836,4.98438 0.4579,1.4087 4.89964,4.70639 10.68554,8.40039 -4.73749,8.97354 -9.3164,17.04748 -13.71289,24.26758 -2.25518,-3.78654 -5.01463,-4.29116 -7.41015,-0.8711 -1.94744,2.78038 -1.94915,4.83094 -0.0176,12.31641 0.0113,0.0439 0.0257,0.087 0.0371,0.13086 -9.01263,13.40753 -17.05229,22.67945 -23.74414,27.62695 -8.98802,6.64506 -19.2538,10.33002 -31.30078,10.92578 0.40119,-6.08534 -0.56652,-7.88707 -3.06641,-7.23242 -1.62981,0.42682 -3.31822,3.26333 -4.72852,7.19336 -4.87211,-0.26797 -10.01001,-0.97482 -15.45703,-2.15429 -18.45241,-4.19177 -30.1031,-13.05453 -36.64648,-28.25586 6.0138,-5.81273 11.00195,-11.22243 11.00195,-12.55664 0,-3.55265 -2.8775,-3.66909 -9.44531,-0.38086 -1.14659,0.57403 -2.84405,1.72848 -4.83594,3.23046 -0.23583,-0.91041 -0.463,-1.83163 -0.67383,-2.77734 -5.13456,-23.02927 -1.39965,-57.02844 12.39453,-101.14648 v -0.0156 l 0.0117,-0.008 c 3.69358,-11.94992 7.99378,-23.37513 12.875,-34.30469 4.81327,1.68937 6.70078,1.79131 8.18946,0.92969 3.90713,-2.2608 2.62514,-5.30421 -4.12696,-9.64844 10.78938,-22.10753 24.13072,-42.04943 40.05469,-59.88083 2.25853,-2.529 4.54183,-4.9832 6.84961,-7.3711 3.88611,2.7262 7.23939,4.5737 8.48047,4.334 3.16873,-0.612 5.76783,-11.5211 3.54884,-14.8945 -0.11755,-0.1788 -0.30766,-0.3983 -0.48244,-0.6095 13.89121,-12.5474 28.62529,-22.736 44.23829,-30.619 0.27711,0.026 0.55348,0.034 0.83398,0 1.8174,-0.22 3.08971,-1.0521 3.66211,-2.1914 6.37701,-3.0082 12.89581,-5.6481 19.5625,-7.9102 17.34361,-4.983 33.80259,-8.7771 49.39259,-11.4297 1.05819,2.7853 2.18073,5.2117 3.31054,6.9903 1.96749,3.097 4.43724,5.0878 7.11524,5.7362 6.33699,1.5346 9.27811,-3.1743 7.47852,-11.9765 -0.2278,-1.1141 -0.4742,-2.1791 -0.7168,-3.2558 11.81209,-1.4139 23.07723,-2.1159 33.77734,-2.0977 z m 25.11719,19.6523 c -3.61455,0 -14.38837,17.9585 -19.72461,32.8789 l -1.92383,5.377 2.16211,2.3008 c 1.18817,1.2647 2.67378,2.0898 3.30274,1.834 3.23629,-1.3163 15.84817,-22.0988 18.24609,-30.0664 1.57277,-5.2259 0.38531,-12.3243 -2.0625,-12.3243 z m 39.624999,0.3809 c -1.697188,-0.01 -3.12329,0.4684 -4.373047,1.3945 -1.95674,1.4501 -2.063563,2.1311 -0.767578,4.8868 1.217473,2.589 3.345835,4.171 11.128907,8.2753 5.29316,2.7914 11.382678,5.6684 13.533203,6.3926 4.620941,1.5561 6.721005,0.1998 6.388672,-4.1269 -0.221299,-2.8812 -0.888809,-3.5318 -9.820313,-9.5489 -7.317589,-4.9297 -12.35603,-7.261 -16.089844,-7.2734 z m -139.701169,4.1582 c -0.85713,0.055 -1.51681,0.6153 -2.51367,1.7168 -5.2328,5.7822 3.03871,24.4244 12.9707,29.2324 4.57032,2.2125 4.69561,2.2204 6.08984,0.3496 3.68051,-4.9384 -5.40313,-26.1287 -12.85156,-29.9804 -1.78509,-0.9231 -2.83818,-1.3734 -3.69531,-1.3184 z m -46.24024,15.8887 c -1.60924,0.077 -3.3235,0.7923 -4.6914,2.25 -1.16126,1.2375 -3.53585,5.2962 -5.27735,9.0195 -3.61013,7.7184 -3.48987,11.7305 0.35157,11.7305 4.30934,0 14.6875,-13.0976 14.6875,-18.5352 0,-2.9467 -2.38824,-4.593 -5.07032,-4.4648 z m 85.42969,27.3672 c -3.81145,0.065 -5.8572,1.5574 -5,4.5644 1.05197,3.6904 6.29747,6.6797 17.77149,10.1328 8.96339,2.6976 10.81819,2.9029 13.29882,1.4707 4.56983,-2.6384 3.26072,-5.1227 -5.02343,-9.539 -8.32645,-4.4389 -16.14644,-6.7129 -21.04688,-6.6289 z m 113.078126,6.9961 c -2.677003,0.066 -2.747801,2.188 -0.291016,6.4433 3.161896,5.4766 24.285619,20.5279 28.078125,20.0059 4.188917,-0.5766 7.220281,-4.8667 5.519531,-7.8125 -1.321171,-2.2884 -22.604282,-15.5451 -28.033203,-17.461 -2.301714,-0.8122 -4.056618,-1.206 -5.273437,-1.1757 z m -32.625,10.9433 c -1.459494,0.021 -3.245653,2.1441 -5.074219,6.4219 -1.955883,4.5757 -2.747346,16.6353 -1.451172,22.1094 0.798062,3.3702 1.265296,3.9967 3.537109,4.7285 1.440178,0.4638 3.156287,0.3769 3.8125,-0.1914 1.481001,-1.2829 3.051688,-17.3011 2.462891,-25.1133 -0.399553,-5.3013 -1.633017,-7.9787 -3.287109,-7.9551 z m 87.07031212,1.166 c -0.82283845,0.055 -1.37759384,0.7251 -1.49609374,2 -0.25517318,2.7456 5.49008242,18.9725 7.39062502,20.8731 0.9271272,0.9271 2.7955252,1.7409 4.1503906,1.8086 3.193966,0.1593 3.677072,-0.4185 3.107422,-3.7051 -0.619306,-3.5735 -7.4539111,-16.6863 -10.0507814,-19.2832 -1.1877523,-1.1877 -2.278724,-1.7483 -3.10156248,-1.6934 z m -314.28905812,7.5274 c -2.84217,0 -4.19296,0.8707 -8.14454,5.25 -7.74085,8.5786 -13.65175,18.1039 -13.27539,21.3945 0.27402,2.3956 0.84039,2.9049 3.51758,3.1641 2.58452,0.2502 3.91504,-0.4186 7,-3.5215 5.08071,-5.1102 14.3086,-20.3693 14.3086,-23.6602 0,-2.3213 -0.39469,-2.6269 -3.40625,-2.6269 z m 164.29687,5.3476 c -0.605,0.037 -1.05202,0.2172 -1.32226,0.5508 -1.44653,1.7859 1.23024,8.1771 5.32226,12.7051 4.03146,4.461 9.40276,7.3361 13.30078,7.1211 h 0.002 c 3.35789,-0.1855 3.07561,-0.04 4.46874,-2.2832 2.49074,-4.0113 1.43536,-5.8366 -6.32617,-10.9414 -7.21863,-4.7477 -12.82363,-7.3103 -15.44531,-7.1504 z m -81.05469,8.8262 c -1.16022,-0.1075 -2.16531,0.5326 -3.29883,1.7852 -1.14274,1.2627 -1.55872,2.7742 -1.16992,4.25 1.49624,5.6787 19.825,26.29984 24.39649,27.44723 2.43394,0.61085 4.1874,-0.77488 4.2207,-3.33203 0.0227,-1.68949 -8.43841,-13.9152 -15.74609,-22.752 -4.10412,-4.9628 -6.46864,-7.2192 -8.40235,-7.3984 z m 202.671878,17.5508 c -0.776901,0.044 -1.951169,0.5988 -4.236328,1.7051 -9.931993,4.80798 -18.203497,23.4502 -12.970703,29.23239 1.993738,2.20305 2.640758,2.24462 6.210937,0.39843 7.448428,-3.85175 16.530114,-25.04003 12.84961,-29.97852 -0.697115,-0.9354 -1.076615,-1.4019 -1.853516,-1.3574 z m -264.423828,2.8379 c -0.72217,0 -1.9916,0.77419 -3.03125,1.88084 l -2.16016,2.30078 1.92383,5.37695 c 5.33624,14.92048 16.10811,32.87891 19.72266,32.87891 2.44781,0 3.63723,-7.09834 2.06445,-12.32422 -2.39792,-7.96766 -15.0098,-28.75011 -18.24609,-30.06636 -0.0786,-0.032 -0.17027,-0.047 -0.27344,-0.047 z m 362.626953,35.08201 c -0.321847,0.008 -0.623692,0.0255 -0.90625,0.0527 -4.906416,0.4726 -8.284953,2.81264 -7.289062,5.04883 1.393164,3.12805 24.451553,10.66399 33.443359,10.92969 2.914473,0.0861 5.13296,-0.53725 6.39062,-1.79492 2.97608,-2.97608 0.23886,-6.44643 -6.960932,-8.82617 -10.693684,-3.53463 -19.850027,-5.53307 -24.677735,-5.41016 z m -380.593753,4.35547 c -3.25712,0 -4.46235,0.64079 -7.4707,3.9707 -4.43924,4.91369 -9.86713,15.45904 -9.45312,18.36524 0.22903,1.6069 1.10859,2.24127 3.42578,2.46679 4.07924,0.39704 7.51206,-3.0413 13.13086,-13.15429 5.47502,-9.85418 5.5324,-11.64844 0.36718,-11.64844 z m 321.800784,15.5039 c -0.559051,-0.003 -1.076656,0.0322 -1.546875,0.11133 -4.0351449,0.67862 -7.8490834,2.92119 -7.4980465,4.40821 0.7239615,3.0667 20.7867505,13.87166 27.4140625,14.76367 4.640581,0.62464 8.309766,-1.89762 7.976563,-5.48242 -0.452593,-4.86968 -17.959926,-13.75211 -26.345704,-13.80079 z m -273.832034,12.4961 c -0.97591,0 -2.5822,0.89079 -3.56836,1.98047 -2.3472,2.59358 -1.42071,3.69108 8.17188,9.66992 8.84765,5.51448 18.51172,9.59376 20.7207,8.74609 2.55768,-0.98147 1.92466,-5.70271 -1.16015,-8.65429 -2.9819,-2.85313 -21.27458,-11.74219 -24.16407,-11.74219 z m -44.02734,18 c -0.39012,0 -1.75453,1.11173 -3.03125,2.4707 -2.28329,2.4305 -2.29325,2.54265 -0.64844,6.84961 2.91606,7.63548 11.76391,16.24637 15.3711,14.95899 2.03028,-0.72465 1.43504,-5.9796 -1.28516,-11.34766 -2.45454,-4.84384 -8.9624,-12.93164 -10.40625,-12.93164 z m 448.16016,1.32617 c -0.69089,0.0573 -1.47514,0.54427 -2.35938,1.44336 -4.7892,4.86943 -6.51115,16.38007 -4.36914,29.19531 1.38485,8.28544 1.9574,9.26068 5.54492,9.43946 1.35487,0.0676 2.78193,-0.19792 3.17188,-0.5879 1.2711,-1.27109 2.44161,-13.87971 2.13672,-23.02148 -0.38061,-11.41234 -1.65756,-16.67331 -4.125,-16.46875 z m -487.31641,8.67383 c -2.13929,0 -3.94866,0.91075 -5.84375,2.93945 -3.84888,4.12025 -10.25484,16.66148 -9.875,19.33399 0.38094,2.68013 4.02237,3.4892 7.44727,1.65625 2.78562,-1.49084 11.36914,-17.60066 11.36914,-21.33789 0,-2.23076 -0.42988,-2.5918 -3.09766,-2.5918 z m 408.656249,1.44726 c -1.4315,0.12584 -2.626335,0.95945 -4.453125,2.76954 -3.268716,3.24071 -5.014407,11.04056 -5.240234,23.41406 -0.178794,9.79404 0.655644,14.44643 2.771484,15.44922 0.670247,0.31767 2.369296,-0.60173 3.851563,-2.08399 3.259389,-3.25939 7.402081,-19.06365 8.027344,-30.625 0.376293,-6.95784 0.186466,-7.78425 -1.9375,-8.44336 -1.217611,-0.37784 -2.160631,-0.55597 -3.019532,-0.48047 z m -363.554689,29.74805 c -3.00668,0.0376 -6.88889,0.32662 -11.81836,0.84375 -10.03808,1.05309 -13.99592,5.00603 -9.50781,9.49414 1.42484,1.42485 3.37313,1.61487 12.99414,1.26367 10.85087,-0.39609 11.44369,-0.53323 14.32422,-3.29297 1.6526,-1.58332 3.00391,-3.67848 3.00391,-4.65625 0,-2.60138 -2.38139,-3.7351 -8.9961,-3.65234 z m -16.72461,24.80469 c -1.06102,0 -2.97068,1.10745 -4.24219,2.46094 -2.0945,2.2295 -2.19101,2.75051 -1.03515,5.54101 3.05098,7.36577 10.16325,12.35843 16.81836,11.80469 3.19215,-0.2657 3.72266,-0.67495 4,-3.08984 0.26457,-2.30419 -0.8804,-3.98388 -6.64649,-9.75 -3.83142,-3.83143 -7.83354,-6.9668 -8.89453,-6.9668 z m 424.45313,2.23828 c -1.5976,0.0798 -2.9755,0.71376 -4.16211,1.90039 -1.47665,1.47662 -1.6747,2.50188 -0.77539,4.00391 2.31007,3.85812 21.40783,15.14817 27.91992,16.50586 h 0.002 c 3.57257,0.74299 6.43555,-2.07563 4.86914,-4.79493 -0.63967,-1.11046 -3.67541,-3.6418 -6.74804,-5.625 -3.07261,-1.98319 -8.09463,-5.46587 -11.15821,-7.73828 -4.01218,-2.97602 -7.2846,-4.385 -9.94726,-4.25195 z m -46.224612,41.16602 c -6.280543,-0.0848 -11.870336,0.5266 -13.060547,1.71679 -1.510246,1.51026 -0.336815,5.12539 2.134766,6.57227 0.849464,0.49727 7.795372,1.08598 15.435547,1.30859 11.580846,0.33763 14.164326,0.0619 15.52539,-1.65625 2.668441,-3.36907 -0.06852,-5.55283 -8.785156,-7.00976 -3.464191,-0.57902 -7.481674,-0.88074 -11.25,-0.93164 z m -65.9804686,14.85546 c -8.6444184,0.19194 -18.1587664,2.58373 -19.6816404,6.11914 -0.923037,2.14285 -0.85355,2.24781 3.347656,5.09961 9.129858,6.19733 29.4096582,4.04003 31.800781,-3.38281 0.911027,-2.82814 0.624168,-3.40936 -2.7597654,-5.57812 -2.6474741,-1.69675 -7.52037994,-2.37298 -12.7070312,-2.25782 z m 33.2285156,36.28125 c -0.751459,-0.0415 -1.480821,0.51837 -2.814453,1.64649 -2.263312,1.91448 -2.708564,2.99402 -2.378906,5.7539 0.56238,4.70835 9.83104,14.05845 16.371093,16.51563 2.542912,0.95535 4.718702,1.17071 5.064453,0.5 0.816435,-1.58464 -9.549846,-19.09595 -13.289062,-22.44922 -1.428066,-1.28067 -2.201666,-1.92528 -2.953125,-1.9668 z M 16.25,-740.41602 c -0.738541,-0.005 -1.509813,0.19276 -2.275391,0.63477 -4.7091046,2.7188 -10.8617017,18.2563 -8.7070309,21.98828 1.9207181,3.32682 5.4547509,1.42512 10.3339839,-5.56055 2.353749,-3.36982 4.680805,-7.45567 5.171876,-9.08007 1.253323,-4.14589 -1.323093,-7.96181 -4.523438,-7.98243 z M -84.472656,-728.625 c -1.770086,-0.0223 -2.967128,0.0652 -3.330078,0.28125 -2.197913,1.30741 -2.519417,3.51789 -0.773438,5.32031 3.279413,3.38536 30.300745,8.94985 35.966797,7.40625 1.472443,-0.40116 2.573539,-1.51771 3.095703,-3.13867 1.381236,-4.2878 -0.55287,-5.60959 -10.71289,-7.32617 -8.480002,-1.43274 -18.935838,-2.47612 -24.246094,-2.54297 z m -49.884764,62.10352 c -3.27641,-0.11543 -6.11799,1.49297 -5.76953,3.6914 0.37038,2.33688 8.73408,8.66723 17.93359,13.57227 9.97412,5.31802 11.38647,5.57172 12.45898,2.24219 0.45062,-1.39888 0.42155,-3.23491 -0.0664,-4.08008 -1.44474,-2.50239 -18.29208,-13.90083 -22.25391,-15.05664 -0.76848,-0.2242 -1.54664,-0.34251 -2.30273,-0.36914 z m 76.578123,5.54687 c -5.604085,0.0729 -10.919847,0.44496 -13.957031,1.16016 -5.31213,1.25087 -10.866484,5.82935 -9.642578,7.94922 1.807275,3.13028 22.746304,3.48149 38.335937,0.64257 l 5.619141,-1.02343 0.912109,-3.02149 c 0.501215,-1.66137 0.471616,-3.36061 -0.06445,-3.77734 -1.723808,-1.34036 -11.862984,-2.05115 -21.203125,-1.92969 z m 59.826172,1.1543 c -0.4551156,-9.6e-4 -0.9922261,0.24444 -1.74609375,0.67969 -2.85001185,1.64545 -11.45070625,17.26753 -13.33593725,24.22265 -1.14469,4.22309 -1.059723,5.7091 0.449218,7.82227 1.563069,2.18891 2.288329,2.42533 4.5000005,1.46484 3.0379329,-1.31936 8.33177956,-11.2003 11.890625,-22.19336 1.8167671,-5.61177 1.8956928,-7.21632 0.4746094,-9.67773 -0.9411142,-1.63004 -1.4738958,-2.31677 -2.2324219,-2.31836 z m -66.355469,33.69336 c -1.587048,0.0349 -3.543232,2.67197 -7.166015,8.71484 -5.948712,9.92255 -7.209641,14.615 -4.826172,17.94922 1.353906,1.89411 2.343467,2.33948 3.849609,1.73437 2.723838,-1.09455 9.143928,-11.06975 11.179688,-17.37109 1.379603,-4.27026 1.331685,-5.63434 -0.296875,-8.45508 -0.968478,-1.67746 -1.788006,-2.5932 -2.740235,-2.57226 z m -112.408206,12.30664 c -1.61095,0.0427 -3.53207,0.33997 -5.72265,0.91211 -11.56859,3.0215 -21.48288,9.08309 -20.32422,12.42578 0.70203,2.02537 11.04793,1.43087 20.42383,-1.17383 7.44705,-2.06956 9.22418,-3.09839 10.6582,-6.17383 v -0.002 c 1.83938,-3.94818 -0.203,-6.11641 -5.03516,-5.98828 z m 59.16992,7.27929 c -0.80081,-0.0176 -1.55465,-0.0116 -2.23242,0.0254 -6.00898,0.32828 -10.85828,2.44188 -10.4707,4.5625 0.68869,3.76758 12.57008,7.1244 20.64062,5.83203 4.55235,-0.72904 4.6442,-0.79369 5.60743,-3.98633 0.53854,-1.78515 0.82006,-3.52149 0.625,-3.85938 -0.63169,-1.09411 -8.56422,-2.45068 -14.16993,-2.57422 z m -30.9121,11.63477 c -0.41123,0.0427 -0.81891,0.18539 -1.22852,0.42187 -0.84677,0.48889 -1.9844,2.70879 -2.5293,4.93165 -0.94973,3.87446 -0.77186,4.45561 4.31055,14.05078 4.50636,8.50764 5.64542,10.09955 7.5918,10.62109 6.13087,1.64277 7.57384,-3.76264 3.46679,-12.98242 -5.64727,-12.67732 -8.73274,-17.34201 -11.61132,-17.04297 z m -86.2793,17.61328 c -3.6303,8.89092 -7.08068,17.99391 -10.20508,26.52344 -7.5664,-4.19875 -12.87729,-5.8102 -14.08789,-4.17578 -1.368,1.84679 1.58329,8.1141 5.86719,12.46093 1.2575,1.2759 2.63226,2.38417 4.03906,3.33204 -5.1344,14.53508 -8.58398,25.20703 -8.58398,25.20703 0,0 -34.39851,-4.83243 -56.97461,-14.71094 -15.62359,-7.39226 -20.58778,-14.21169 -14.47266,-19.87891 3.40751,-3.15806 16.14921,-9.67062 25.44141,-13.0039 8.45401,-3.03266 55.13066,-13.07536 68.97656,-15.75391 z m 209.773436,4.37695 c 1.615401,0.4393 3.205018,0.87508 4.853516,1.31641 11.0700018,2.96387 23.5961812,6.73533 27.8339842,8.38086 9.8787968,3.83592 14.9941408,10.16418 14.9941408,12.30664 0,2.62428 -5.016877,8.78468 -11.767578,11.84375 -9.6641995,4.37923 -29.096864,10.71191 -41.351563,13.47656 -15.774897,3.04128 -18.104838,4.28935 -25.05664,4.91992 0.08712,-6.39186 0.639249,-11.45058 1.71875,-15.76367 4.324297,0.008 9.517042,-0.2366 13.964843,-0.76562 6.312998,-0.75103 9.701781,-3.14841 8.955079,-6.33399 -0.532498,-2.27229 -9.045704,-3.31387 -19.033204,-2.50781 4.728401,-8.03822 12.700372,-14.58875 24.888672,-26.87305 z m -149.962886,5.29883 c -1.04465,0.0644 -1.76615,0.36485 -2.46485,0.88281 -1.95269,1.44764 -2.04175,2.11242 -0.67578,5.00977 2.848,6.04033 10.72838,9.70472 18.63281,8.66406 2.99458,-0.39424 3.39769,-0.73932 4.28125,-3.66797 0.53633,-1.77789 0.54028,-3.98541 0.01,-4.90429 -0.5305,-0.91884 -5.24665,-2.81636 -10.48047,-4.21875 -4.92291,-1.31908 -7.56167,-1.87288 -9.30273,-1.76563 z m 80.373042,0.51172 c -0.446076,0.008 -0.972806,0.24189 -1.697265,0.66016 -3.236538,1.86863 -12.896627,17.3597 -12.794927,20.51758 0.12507,3.88252 2.64667,6.62933 5.15821,5.61914 2.50437,-1.00729 10.162835,-12.82541 11.806639,-18.21875 0.809367,-2.65558 0.692691,-4.67661 -0.376953,-6.5293 -0.833681,-1.44397 -1.352243,-2.06151 -2.095704,-2.04883 z m 129.650391,27.54297 c 0.131188,-1.9e-4 0.239091,0.0228 0.320313,0.0742 1.883799,1.16424 0.360951,16.36982 -4.597657,45.88086 -2.4914,14.82792 -4.529296,28.4007 -4.529297,30.16211 0,5.79424 -7.819282,34.49139 -16.4589839,60.40625 -10.44720016,31.33629 -15.0545975,42.17534 -20.0917971,47.27344 -8.043001,8.1401 -21.621413,12.68436 -51.882812,17.36523 -15.781701,2.44112 -19.778406,2.65741 -53.066409,2.86328 -19.8001,0.12246 -52.2,-0.19957 -72,-0.71484 l -36,-0.9375 -35,-6.96094 c -38.82242,-7.72203 -38.19992,-7.49646 -51.74609,-18.76758 -10.88882,-9.06002 -15.74682,-21.53308 -17.71289,-45.48047 -0.54951,-6.69309 -2.5876,-24.09493 -4.5293,-38.66992 -4.6518,-34.91667 -8.21696,-64.43415 -9.08398,-75.22852 -0.89091,-11.0923 0.29785,-11.99461 7.40234,-5.62304 12.6251,11.32301 39.8602,19.99697 76.66992,24.41992 8.4385,1.01393 33.42188,1.31836 33.42188,1.31836 l 125.874998,-2.91016 c 0,0 19.49476,-2.28006 31.693359,-4.39648 64.1825005,-11.13536 84.272494,-16.78572 96.246094,-27.07227 2.096999,-1.80147 4.152012,-3.00066 5.070312,-3.00195 z"
         style="color:#000000;font-style:normal;font-variant:normal;font-weight:normal;font-stretch:normal;font-size:383.59991455px;line-height:1.25;font-family:'Bryndan Write';-inkscape-font-specification:'Bryndan Write, Normal';font-variant-ligatures:normal;font-variant-position:normal;font-variant-caps:normal;font-variant-numeric:normal;font-variant-alternates:normal;font-feature-settings:normal;text-indent:0;text-align:start;text-decoration:none;text-decoration-line:none;text-decoration-style:solid;text-decoration-color:#000000;letter-spacing:0px;word-spacing:0px;text-transform:none;writing-mode:lr-tb;direction:ltr;text-orientation:mixed;dominant-baseline:auto;baseline-shift:baseline;text-anchor:start;white-space:normal;shape-padding:0;clip-rule:nonzero;display:inline;overflow:visible;visibility:visible;opacity:1;isolation:auto;mix-blend-mode:normal;color-interpolation:sRGB;color-interpolation-filters:linearRGB;solid-color:#000000;solid-opacity:1;vector-effect:none;fill:#000000;fill-opacity:1;fill-rule:nonzero;stroke:none;stroke-width:15.11811066;stroke-linecap:butt;stroke-linejoin:miter;stroke-miterlimit:4;stroke-dasharray:none;stroke-dashoffset:0;stroke-opacity:1;color-rendering:auto;image-rendering:auto;shape-rendering:auto;text-rendering:auto;enable-background:accumulate" />
      <path
         transform="scale(0.26458333)"
         id="path958"
         d="m 35.095703,-539.5625 c -0.9183,10e-4 -2.973313,1.20048 -5.070312,3.00195 -10.089808,8.66818 -26.0553649,14.05513 -69.199219,22.19532 5.55649,30.24575 7.405727,73.51315 -5.507813,132.89257 -3.952914,18.17641 -11.978791,32.42843 -21.580078,43.6875 1.315265,-0.19278 2.626178,-0.3846 4.117188,-0.61523 30.261399,-4.68087 43.839811,-9.22513 51.882812,-17.36523 5.0371996,-5.0981 9.64459694,-15.93715 20.0917971,-47.27344 8.6397019,-25.91486 16.4589839,-54.61201 16.4589839,-60.40625 10e-7,-1.76141 2.037897,-15.33419 4.529297,-30.16211 4.958608,-29.51104 6.481456,-44.71662 4.597657,-45.88086 -0.08122,-0.0514 -0.189125,-0.0744 -0.320313,-0.0742 z"
         style="opacity:1;fill:#9e7407;fill-opacity:1;stroke:none;stroke-width:0.99999994px;stroke-linecap:butt;stroke-linejoin:miter;stroke-opacity:1"
         inkscape:connector-curvature="0" />
      <path
         transform="scale(0.26458333)"
         id="path1417"
         d="m 61.626953,-1041.0078 c 0,0 -4.013733,4.2823 -7.376953,4.7031 5.197294,21.3751 15.341063,44.28424 25.550781,72.44532 4.411893,0.92212 9.661511,2.35435 15.378907,4.24415 7.199792,2.37974 9.937012,5.85009 6.960932,8.82617 -1.25765,1.25767 -3.476147,1.88102 -6.39062,1.79492 -2.80494,-0.0829 -6.979586,-0.87426 -11.4375,-2.01758 5.748661,16.93393 11.280322,35.72286 15.6875,57.10352 3.65753,17.74389 4.46689,34.28481 2.94531,49.82812 0.12737,-0.14658 0.2605,-0.29566 0.41602,-0.45117 1.18661,-1.18663 2.56451,-1.82059 4.16211,-1.90039 2.66266,-0.13305 5.93508,1.27593 9.94726,4.25195 3.06358,2.27241 8.0856,5.75509 11.15821,7.73828 3.07263,1.9832 6.10837,4.51454 6.74804,5.625 1.56641,2.7193 -1.29657,5.53792 -4.86914,4.79493 h -0.002 c -6.51209,-1.35769 -25.60985,-12.64774 -27.91992,-16.50586 -0.009,-0.0155 -0.0144,-0.0295 -0.0234,-0.0449 -5.189788,42.6632 -28.074013,77.74258 -58.003906,109.45508 0.24111,0.69529 0.338267,1.19507 0.230468,1.4043 -0.182407,0.35384 -0.882839,0.45388 -1.86914,0.33594 -23.867979,24.97996 -52.0067405,47.90293 -79.199219,70.84179 0.220721,0.72719 0.148096,2.00628 -0.232422,3.26758 l -0.912109,3.02149 -5.619141,1.02343 c -0.748291,0.13627 -1.518829,0.2573 -2.289062,0.37891 -47.810886,40.80702 -90.735539,82.40782 -99.277349,136.46484 7.60574,-0.20118 14.66294,-0.40768 19.89649,-0.60742 5.2903,-0.2019 44.74037,-4.23071 50.042968,-4.54101 1.6909,-26.1312 33.009766,-58.07813 33.009766,-58.07813 l 2.511718,-2.51367 h 0.002 c 0,0 15.048923,-15.24727 25.919922,-26.49024 -4.058098,-4.85377 -6.907754,-9.8782 -5.597657,-11.24023 2.263102,-2.35272 7.860121,-2.71079 12.3574221,-0.79101 0.7429002,0.31709 1.7575093,1.02315 2.9121094,1.94921 25.2122985,-26.4528 47.4077205,-50.49509 66.5742185,-72.0957 -4.063597,-3.97489 -7.092878,-7.4741 -7.705078,-9.31836 -0.714198,-2.15149 -0.02336,-3.3473 2.710938,-4.67187 4.5159,-2.18967 9.291957,-1.22089 14.660156,3.00976 26.7458,-30.63832 46.925337,-55.97353 60.365237,-75.78906 3.6469,-5.59227 6.99338,-11.16272 10.04688,-16.71484 -1.86101,-1.55585 -3.1071,-2.71463 -3.30469,-3.13672 -1.3758,-2.93889 -0.0231,-7.01003 2.45898,-7.40235 0.9844,-0.15556 2.93923,0.5542 5.39453,1.82813 13.6188,-27.45389 20.00011,-54.45788 19.41211,-81.2207 -0.0606,-2.75513 -0.17903,-5.4677 -0.34375,-8.14844 -1.5709,-0.32451 -2.64995,-1.05276 -4.09375,-2.24414 -4.3614,-3.59925 -3.7966,-5.24357 2.65821,-7.75 0.1521,-0.0593 0.36262,-0.11959 0.54101,-0.17969 -2.0745,-17.97207 -6.65821,-34.18461 -13.72851,-48.77344 -4.2143,2.27845 -7.78986,3.70117 -9.81836,3.70117 -2.5,0 -4.70856,-0.69452 -5.00586,-1.57617 -0.8462,-2.50892 1.72573,-6.76452 8.39453,-13.85937 -2.4712,-4.00997 -5.15303,-7.88503 -8.04883,-11.62696 -14.80852,-17.49836 -75.986331,-68.34767 -75.986331,-68.34767 z"
         style="opacity:1;fill:#1e8800;fill-opacity:1;stroke:none;stroke-width:0.99999994px;stroke-linecap:butt;stroke-linejoin:miter;stroke-opacity:1"
         inkscape:connector-curvature="0" />
      <path
         transform="scale(0.26458333)"
         id="path1436"
         d="m -191.08398,-1008.498 c -7.40768,-0.042 -15.47903,1.3057 -24.17969,4.0156 4.94804,6.68168 9.05484,12.96192 9.03906,14.1367 -0.0333,2.55715 -1.78676,3.94288 -4.2207,3.33203 -2.51248,-0.63061 -9.17468,-7.14461 -14.91992,-13.82613 -11.54165,4.70087 -24.0604,11.5474 -37.49219,20.50191 -3.62971,2.41981 -7.31529,5.66642 -11.01563,9.57031 0.0882,0.25694 0.19674,0.53804 0.26758,0.77344 1.57278,5.22588 0.38336,12.32422 -2.06445,12.32422 -1.15963,0 -3.06018,-1.86369 -5.27735,-4.86719 -29.01229,36.90258 -57.24688,109.95283 -64.45117,154.19922 4.87646,0.98633 9.51677,1.60906 13.92578,1.85156 1.4103,-3.93003 3.09871,-6.76654 4.72852,-7.19336 2.49989,-0.65465 3.4676,1.14708 3.06641,7.23242 12.04698,-0.59576 22.31276,-4.28072 31.30078,-10.92578 6.69185,-4.9475 14.73151,-14.21942 23.74414,-27.62695 -0.0114,-0.0439 -0.0258,-0.087 -0.0371,-0.13086 -1.93155,-7.48547 -1.92986,-9.53603 0.0176,-12.31641 2.39552,-3.42006 5.15497,-2.91544 7.41015,0.8711 4.39649,-7.2201 8.9754,-15.29404 13.71289,-24.26758 -5.7859,-3.694 -10.22764,-6.99169 -10.68554,-8.40039 -0.2589,-0.79684 0.10946,-3.0406 0.81836,-4.98438 0.7088,-1.94381 1.81327,-3.81629 2.45507,-4.1621 1.0106,-0.54437 6.74215,2.27027 13.31055,6.09765 1.4855,-2.96315 2.98179,-5.98979 4.49219,-9.11523 22.0476,-45.62491 45.80781,-73.7104 73.57031,-81.84961 -0.3194,-5.18559 -0.19528,-9.40611 0.57422,-11.17969 0.59435,-1.36993 1.36053,-2.11195 2.60352,-2.36719 -1.13904,-1.30684 -2.42813,-2.49253 -3.89454,-3.53321 -7.6116,-5.4018 -16.57337,-8.1021 -26.79882,-8.1601 z"
         style="opacity:1;fill:#1e8800;fill-opacity:1;stroke:none;stroke-width:0.99999994px;stroke-linecap:butt;stroke-linejoin:miter;stroke-opacity:1"
         inkscape:connector-curvature="0" />
    </g>
  </g>
</svg>
