<?xml version="1.0" encoding="UTF-8" standalone="no"?>
<!-- Created with Inkscape (http://www.inkscape.org/) -->

<svg
   xmlns:dc="http://purl.org/dc/elements/1.1/"
   xmlns:cc="http://creativecommons.org/ns#"
   xmlns:rdf="http://www.w3.org/1999/02/22-rdf-syntax-ns#"
   xmlns:svg="http://www.w3.org/2000/svg"
   xmlns="http://www.w3.org/2000/svg"
   xmlns:xlink="http://www.w3.org/1999/xlink"
   xmlns:sodipodi="http://sodipodi.sourceforge.net/DTD/sodipodi-0.dtd"
   xmlns:inkscape="http://www.inkscape.org/namespaces/inkscape"
   sodipodi:docname="flat_download.svg"
   inkscape:version="0.92.1 r"
   id="svg8"
   version="1.1"
   viewBox="0 0 210 297"
   height="297mm"
   width="210mm">
  <sodipodi:namedview
     inkscape:object-nodes="false"
     inkscape:snap-center="true"
     inkscape:snap-object-midpoints="true"
     inkscape:guide-bbox="true"
     showguides="true"
     inkscape:snap-nodes="true"
     inkscape:snap-midpoints="false"
     inkscape:snap-smooth-nodes="true"
     inkscape:snap-intersection-paths="false"
     inkscape:object-paths="false"
     inkscape:window-maximized="1"
     inkscape:window-y="0"
     inkscape:window-x="0"
     inkscape:window-height="1006"
     inkscape:window-width="1920"
     showborder="false"
     showgrid="false"
     inkscape:current-layer="layer1"
     inkscape:document-units="px"
     inkscape:cy="719.71393"
     inkscape:cx="-870.34089"
     inkscape:zoom="1"
     inkscape:pageshadow="2"
     inkscape:pageopacity="0.0"
     borderopacity="1.0"
     bordercolor="#666666"
     pagecolor="#ffffff"
     id="base" />
  <defs
     id="defs2">
    <linearGradient
       inkscape:collect="always"
       id="linearGradient5601">
      <stop
         style="stop-color:#000000;stop-opacity:1;"
         offset="0"
         id="stop5597" />
      <stop
         style="stop-color:#000000;stop-opacity:0;"
         offset="1"
         id="stop5599" />
    </linearGradient>
    <linearGradient
       inkscape:collect="always"
       id="linearGradient5593">
      <stop
         style="stop-color:#000000;stop-opacity:1;"
         offset="0"
         id="stop5589" />
      <stop
         style="stop-color:#000000;stop-opacity:0;"
         offset="1"
         id="stop5591" />
    </linearGradient>
    <linearGradient
       inkscape:collect="always"
       id="linearGradient5585">
      <stop
         style="stop-color:#000000;stop-opacity:1;"
         offset="0"
         id="stop5581" />
      <stop
         style="stop-color:#000000;stop-opacity:0;"
         offset="1"
         id="stop5583" />
    </linearGradient>
    <linearGradient
       id="linearGradient4515"
       inkscape:collect="always">
      <stop
         id="stop4511"
         offset="0"
         style="stop-color:#2e333c;stop-opacity:1" />
      <stop
         id="stop4513"
         offset="1"
         style="stop-color:#545d6c;stop-opacity:1" />
    </linearGradient>
    <linearGradient
       id="linearGradient4505"
       inkscape:collect="always">
      <stop
         id="stop4501"
         offset="0"
         style="stop-color:#6ec4b3;stop-opacity:1;" />
      <stop
         id="stop4503"
         offset="1"
         style="stop-color:#31796b;stop-opacity:1" />
    </linearGradient>
    <linearGradient
       gradientUnits="userSpaceOnUse"
       y2="118.05592"
       x2="-205.29442"
       y1="63.100182"
       x1="-260.27847"
       id="linearGradient4507"
       xlink:href="#linearGradient4505"
       inkscape:collect="always" />
    <linearGradient
       gradientUnits="userSpaceOnUse"
       y2="28.511553"
       x2="-329.83881"
       y1="152.73843"
       x1="-135.82787"
       id="linearGradient4517"
       xlink:href="#linearGradient4515"
       inkscape:collect="always" />
    <linearGradient
       inkscape:collect="always"
       xlink:href="#linearGradient5585"
       id="linearGradient5587"
       x1="-894.5"
       y1="504.01965"
       x2="-777.5"
       y2="621.01965"
       gradientUnits="userSpaceOnUse" />
    <linearGradient
       inkscape:collect="always"
       xlink:href="#linearGradient5593"
       id="linearGradient5595"
       x1="-911.53516"
       y1="437.99707"
       x2="-818.76758"
       y2="530.76465"
       gradientUnits="userSpaceOnUse" />
    <linearGradient
       inkscape:collect="always"
       xlink:href="#linearGradient5601"
       id="linearGradient5603"
       x1="-911.57227"
       y1="355.11914"
       x2="-764.08588"
       y2="502.60553"
       gradientUnits="userSpaceOnUse" />
  </defs>
  <metadata
     id="metadata5">
    <rdf:RDF>
      <cc:Work
         rdf:about="">
        <dc:format>image/svg+xml</dc:format>
        <dc:type
           rdf:resource="http://purl.org/dc/dcmitype/StillImage" />
        <dc:title></dc:title>
      </cc:Work>
    </rdf:RDF>
  </metadata>
  <g
     id="layer1"
     inkscape:groupmode="layer"
     inkscape:label="Layer 1">
    <rect
       y="28.511553"
       x="-329.83881"
       height="124.22688"
       width="194.01094"
       id="rect4509"
       style="opacity:1;fill:url(#linearGradient4517);fill-opacity:1;stroke-width:0.26458332" />
    <path
       style="fill:url(#linearGradient5587);fill-opacity:1;stroke-width:0.99999994;opacity:0.09"
       d="M -940 220.51953 C -974.34801 220.51953 -1002 248.17153 -1002 282.51953 L -1002 402.51953 C -1002 419.69352 -995.08735 435.1939 -983.88086 446.40039 L -853.00195 577.2793 L -513.36523 577.2793 L -513.36523 501.54492 L -773.61133 241.30078 C -784.9518 228.53758 -801.50492 220.51953 -820 220.51953 L -940 220.51953 z "
       transform="scale(0.26458333)"
       id="path4628" />
    <path
       inkscape:connector-curvature="0"
       id="rect4482"
       d="m -248.70833,58.34583 h 31.74999 c 9.08791,0 16.40417,7.31626 16.40417,16.40417 v 31.75 c 0,9.08791 -7.31626,16.40416 -16.40417,16.40416 h -31.74999 c -9.08791,0 -16.40417,-7.31625 -16.40417,-16.40416 V 74.75 c 0,-9.08791 7.31626,-16.40417 16.40417,-16.40417 z"
       style="opacity:1;fill:url(#linearGradient4507);fill-opacity:1;stroke-width:0.26458332" />
    <path
       style="fill:url(#linearGradient5595);fill-opacity:1;stroke-width:0.98745185;opacity:0.09"
       d="M -880 277.47461 C -908.73854 277.47462 -932.03516 300.77124 -932.03516 329.50977 C -932.0135 331.69187 -931.85573 333.87105 -931.56055 336.0332 C -934.94765 335.0171 -938.46376 334.49786 -942 334.49219 C -962.1781 334.4922 -978.53516 350.85118 -978.53516 371.0293 C -978.53516 381.11835 -974.44566 390.2516 -967.83398 396.86328 L -900.17773 464.51953 L -820 464.51953 C -785.65199 464.51953 -758 436.86754 -758 402.51953 L -758 377.92188 L -843.20508 292.7168 C -852.6217 283.30019 -865.63073 277.47462 -880 277.47461 z "
       transform="scale(0.26458333)"
       id="path5457" />
    <path
       inkscape:connector-curvature="0"
       id="path4485"
       d="m -232.83333,73.415263 a 13.767786,13.767786 0 0 0 -13.76778,13.767786 13.767786,13.767786 0 0 0 0.12587,1.725836 9.6667432,9.6667432 0 0 0 -2.76226,-0.407644 9.6667432,9.6667432 0 0 0 -9.66674,9.666743 9.6667432,9.6667432 0 0 0 9.66674,9.666746 h 32.80834 a 9.6667432,9.6667432 0 0 0 9.66674,-9.666746 9.6667432,9.6667432 0 0 0 -9.66674,-9.666743 9.6667432,9.6667432 0 0 0 -2.75853,0.409933 13.767786,13.767786 0 0 0 0.12214,-1.728125 13.767786,13.767786 0 0 0 -13.76778,-13.767786 z"
       style="opacity:1;fill:#f5f3f3;fill-opacity:1;stroke-width:0.26126331" />
    <path
       style="fill:url(#linearGradient5603);fill-opacity:1;stroke-width:0.17642483;opacity:0.09"
       d="M -880.00391 332.32031 C -883.81575 332.32031 -886.88281 335.38934 -886.88281 339.20117 L -886.88281 360.3457 L -901.83984 345.38867 C -904.53521 342.6933 -908.8769 342.6933 -911.57227 345.38867 C -914.2676 348.08405 -914.2676 352.42377 -911.57227 355.11914 L -885 381.68945 C -884.95735 381.73445 -884.91498 381.78033 -884.87109 381.82422 L -859.13086 407.56445 L -818 407.56445 A 36.535722 36.535722 0 0 0 -794.67969 399.13672 L -848.42773 345.38867 C -851.1231 342.6933 -855.46479 342.6933 -858.16016 345.38867 L -861.11523 348.34375 L -875.12695 334.33203 C -876.37061 333.08836 -878.09211 332.32031 -879.99805 332.32031 L -873.11719 339.20117 L -873.11719 339.20703 L -880.00391 332.32031 z "
       transform="scale(0.26458333)"
       id="path4869" />
    <path
       inkscape:connector-curvature="0"
       id="rect4494"
       d="m -232.83413,87.926523 c -1.00855,0 -1.82049,0.811936 -1.82049,1.820483 v 5.594288 l -3.95741,-3.95742 c -0.71315,-0.713151 -1.86141,-0.713151 -2.57456,0 -0.71314,0.713151 -0.71314,1.8614 0,2.574551 l 7.01545,7.015445 c 0.25698,0.27764 0.59971,0.47444 0.9871,0.5493 0.002,3.4e-4 0.004,0.001 0.006,0.001 0.0258,0.005 0.0516,0.009 0.0778,0.0132 0.011,0.002 0.0219,0.003 0.0329,0.004 0.0177,0.002 0.0354,0.004 0.0532,0.006 0.0198,0.002 0.0396,0.003 0.0593,0.004 0.01,10e-4 0.0193,0.002 0.029,0.002 0.0301,0.001 0.0602,0.002 0.0904,0.002 0.001,0 0.001,0 0.002,0 0.001,0 0.001,0 0.002,0 0.0301,0 0.0603,-10e-4 0.0904,-0.002 0.01,-0.001 0.0193,-0.001 0.029,-0.002 0.0198,-0.001 0.0396,-0.003 0.0594,-0.004 0.0178,-0.002 0.0355,-0.004 0.0533,-0.006 0.011,-0.001 0.0219,-0.003 0.0329,-0.004 0.0261,-0.004 0.052,-0.008 0.0778,-0.0132 0.002,-3.3e-4 0.004,-0.001 0.006,-0.001 0.38738,-0.0749 0.73012,-0.27166 0.9871,-0.5493 l 7.01545,-7.015445 c 0.71315,-0.713151 0.71315,-1.8614 0,-2.574551 -0.71315,-0.713151 -1.86141,-0.713151 -2.57456,0 l -3.95755,3.95742 v -5.594288 c 0,-1.008547 -0.81194,-1.820483 -1.82049,-1.820483 z"
       style="opacity:1;fill:#d35f5f;fill-opacity:1;stroke-width:0.04667907" />
  </g>
</svg>
