<?xml version="1.0" encoding="UTF-8" standalone="no"?>
<!-- Created with Inkscape (http://www.inkscape.org/) -->

<svg
   xmlns:dc="http://purl.org/dc/elements/1.1/"
   xmlns:cc="http://creativecommons.org/ns#"
   xmlns:rdf="http://www.w3.org/1999/02/22-rdf-syntax-ns#"
   xmlns:svg="http://www.w3.org/2000/svg"
   xmlns="http://www.w3.org/2000/svg"
   xmlns:sodipodi="http://sodipodi.sourceforge.net/DTD/sodipodi-0.dtd"
   xmlns:inkscape="http://www.inkscape.org/namespaces/inkscape"
   width="210mm"
   height="297mm"
   viewBox="0 0 210 297"
   version="1.1"
   id="svg8"
   sodipodi:docname="heartbeat.svg"
   inkscape:version="0.92.1 r">
  <defs
     id="defs2" />
  <sodipodi:namedview
     id="base"
     pagecolor="#ffffff"
     bordercolor="#666666"
     borderopacity="1.0"
     inkscape:pageopacity="0.0"
     inkscape:pageshadow="2"
     inkscape:zoom="0.35"
     inkscape:cx="-492.43098"
     inkscape:cy="436.3097"
     inkscape:document-units="mm"
     inkscape:current-layer="layer1"
     showgrid="false"
     showborder="false"
     inkscape:window-width="1366"
     inkscape:window-height="697"
     inkscape:window-x="0"
     inkscape:window-y="0"
     inkscape:window-maximized="1" />
  <metadata
     id="metadata5">
    <rdf:RDF>
      <cc:Work
         rdf:about="">
        <dc:format>image/svg+xml</dc:format>
        <dc:type
           rdf:resource="http://purl.org/dc/dcmitype/StillImage" />
        <dc:title></dc:title>
      </cc:Work>
    </rdf:RDF>
  </metadata>
  <g
     inkscape:label="Layer 1"
     inkscape:groupmode="layer"
     id="layer1">
    <path
       style="color:#000000;font-style:normal;font-variant:normal;font-weight:normal;font-stretch:normal;font-size:medium;line-height:normal;font-family:sans-serif;font-variant-ligatures:normal;font-variant-position:normal;font-variant-caps:normal;font-variant-numeric:normal;font-variant-alternates:normal;font-feature-settings:normal;text-indent:0;text-align:start;text-decoration:none;text-decoration-line:none;text-decoration-style:solid;text-decoration-color:#000000;letter-spacing:normal;word-spacing:normal;text-transform:none;writing-mode:lr-tb;direction:ltr;text-orientation:mixed;dominant-baseline:auto;baseline-shift:baseline;text-anchor:start;white-space:normal;shape-padding:0;clip-rule:nonzero;display:inline;overflow:visible;visibility:visible;opacity:1;isolation:auto;mix-blend-mode:normal;color-interpolation:sRGB;color-interpolation-filters:linearRGB;solid-color:#000000;solid-opacity:1;vector-effect:none;fill:#000000;fill-opacity:1;fill-rule:nonzero;stroke:none;stroke-width:2.64583325;stroke-linecap:butt;stroke-linejoin:round;stroke-miterlimit:4;stroke-dasharray:none;stroke-dashoffset:0;stroke-opacity:1;color-rendering:auto;image-rendering:auto;shape-rendering:auto;text-rendering:auto;enable-background:accumulate"
       d="m -37.423039,134.80727 c -0.186325,0.001 -0.374404,0.0244 -0.553453,0.0734 a 1.3230489,1.3230489 0 0 0 -0.38654,0.17776 c -4.165256,2.78977 -6.742428,7.26052 -7.992277,11.90263 -2.859799,2.03687 -5.718029,4.07375 -8.580355,6.10351 -0.468943,0.31133 -0.912818,0.74417 -1.216465,1.3162 -3.765314,6.61357 -8.193169,12.86223 -13.488579,18.27175 l 0.03927,-0.0372 c -0.679972,0.64117 -0.990727,1.39834 -1.21698,1.99988 -0.226254,0.60155 -0.391028,1.07375 -0.579808,1.36116 a 1.3230489,1.3230489 0 0 0 -0.06253,0.10387 c -1.333601,2.50698 -3.669337,4.47277 -6.306593,5.76554 a 1.3230489,1.3230489 0 0 0 -0.03927,0.0196 c -0.683835,0.36431 -1.913409,0.58888 -3.024103,1.61954 -3.534011,2.87935 -7.41054,5.29581 -11.477337,7.41763 h -32.797481 l -2.85564,-10.00197 c -0.35174,-1.23007 -2.07085,-1.29439 -2.51354,-0.094 l -8.17366,22.16816 -1.9513,-28.60342 c -0.10538,-1.52231 -2.27818,-1.68657 -2.61121,-0.19741 l -7.04867,31.71072 v -52.21283 c -2.7e-4,-0.74641 -0.61768,-1.34478 -1.36374,-1.32188 v -5.3e-4 c -0.58802,0.0182 -1.09337,0.42252 -1.24023,0.99219 l -9.67745,37.56102 h -32.1014 l -2.85564,-10.00198 c -0.35175,-1.23007 -2.07085,-1.29439 -2.51354,-0.094 l -8.17211,22.16402 -1.95286,-28.59928 c -0.10347,-1.52453 -2.28028,-1.68907 -2.61172,-0.19741 l -7.04867,31.71073 v -52.21283 c -2.6e-4,-0.74536 -0.6161,-1.3433 -1.36116,-1.32188 v -5.3e-4 c -0.58879,0.0173 -1.09522,0.4218 -1.2423,0.99219 l -9.67796,37.56102 h -8.90798 c -1.78235,-0.0182 -1.78235,2.66455 0,2.64635 h 9.93376 c 0.60387,-2.5e-4 1.13096,-0.40933 1.28106,-0.99426 l 7.3303,-28.44943 v 53.82256 c 0.008,1.57307 2.2643,1.8207 2.61328,0.2868 l 7.6755,-34.52709 1.75028,25.63668 c 0.0995,1.42079 2.0656,1.70292 2.56057,0.36742 l 8.91211,-24.1701 2.01745,7.06623 c 0.16162,0.56829 0.68042,0.96055 1.27124,0.96119 h 34.12505 c 0.0442,-3e-5 0.0883,-0.002 0.13229,-0.007 0.0878,-0.009 0.17457,-0.0266 0.2589,-0.0527 0.0844,-0.0261 0.1659,-0.0605 0.2434,-0.10284 0.11629,-0.0635 0.22237,-0.1442 0.31471,-0.23926 0.0307,-0.0318 0.0599,-0.065 0.0873,-0.0997 0.0548,-0.069 0.10258,-0.14323 0.14263,-0.22169 v -5.3e-4 c 0.0417,-0.0819 0.0748,-0.16802 0.0987,-0.25683 10e-4,-0.005 0.002,-0.009 0.004,-0.0139 l 7.32772,-28.44116 v 53.81429 c -0.003,1.58421 2.27486,1.834 2.61534,0.2868 l 7.67602,-34.52709 1.74977,25.63668 c 0.0994,1.4208 2.0656,1.70293 2.56056,0.36742 l 8.91212,-24.1701 2.01745,7.06623 c 0.16167,0.56847 0.68074,0.96078 1.27176,0.96118 h 34.125044 c 0.277471,0.003 0.535236,-0.0801 0.74931,-0.22376 4.245864,-2.20561 8.334193,-4.74202 12.088667,-7.80365 a 1.3230489,1.3230489 0 0 0 0.0801,-0.0703 c 0.422417,-0.40519 1.323858,-0.63373 2.458765,-1.23042 3.012654,-1.47679 5.774568,-3.75391 7.439339,-6.84971 0.430369,-0.67691 0.635889,-1.33303 0.820621,-1.82418 0.190466,-0.5064 0.353399,-0.81807 0.55449,-1.00769 a 1.3230489,1.3230489 0 0 0 0.03927,-0.0372 c 5.501315,-5.61987 10.057982,-12.07003 13.913879,-18.84795 a 1.3230489,1.3230489 0 0 0 0.01963,-0.0331 c 0.06153,-0.11591 0.167007,-0.23413 0.343648,-0.3514 a 1.3230489,1.3230489 0 0 0 0.03307,-0.0233 c 2.994618,-2.12347 5.980478,-4.25427 8.966896,-6.38101 a 1.3230489,1.3230489 0 0 0 0.513662,-0.76171 l 0.0021,0.002 c 1.018902,-4.12572 3.257251,-8.00135 6.609416,-10.46293 0.05179,0.0619 0.181776,0.16805 0.255799,0.25373 0.0016,3.91509 -0.0074,7.83463 0.0078,11.76001 a 1.3230489,1.3230489 0 0 0 1.408181,1.31413 c 0.163129,-0.0105 0.500862,-0.0302 0.636654,-0.0367 a 1.3230489,1.3230489 0 0 0 0.863513,-0.3793 c 0.980008,-0.96265 1.968516,-1.91136 2.951242,-2.86908 -0.690396,1.71861 -1.264299,3.51478 -1.455209,5.46685 a 1.3230489,1.3230489 0 0 0 0.359151,1.04283 c 1.663292,1.73878 3.234346,3.52843 4.527373,5.46892 0.713351,1.1123 1.267102,2.18172 1.396814,3.21479 -0.0546,0.61649 -0.33197,1.37995 -0.558622,2.39262 a 1.3230489,1.3230489 0 0 0 0.366903,1.23662 c 2.333605,2.27276 4.66847,4.5475 7.015591,6.8125 a 1.3230489,1.3230489 0 0 0 0.04134,0.0367 c 0.91087,0.80945 1.685393,1.85656 2.460831,2.9316 -1.360063,1.71598 -2.86663,3.29953 -4.605403,4.50619 -1.148774,0.74436 -2.324889,1.26828 -3.349667,1.18546 -2.153869,-0.5327 -4.313676,-1.11918 -6.496245,-1.67587 a 1.3230489,1.3230489 0 0 0 -0.0217,-0.006 c -1.167249,-0.27634 -2.5938,-0.8802 -4.347538,-0.72606 a 1.3230489,1.3230489 0 0 0 -1.17357,1.02888 c -0.842626,3.77254 -1.72398,7.54655 -2.585889,11.32851 l 0.0021,5.3e-4 a 1.323245,1.323245 0 0 0 1.288809,1.61644 l 37.48040009,0.002 a 1.3231323,1.3231323 0 0 0 1.28105874,-0.99425 l 7.32983777,-28.4493 v 53.82255 a 1.3231323,1.3231323 0 0 0 2.6153444,0.28681 l 7.673433,-34.52503 1.750281,25.63461 a 1.3231323,1.3231323 0 0 0 2.562634,0.36742 l 8.740034,-23.70915 1.412319,6.52364 a 1.3231323,1.3231323 0 0 0 1.292942,1.04283 h 34.87901 a 1.323245,1.323245 0 1 0 0,-2.64635 H 34.847485 l -2.14819,-9.91826 a 1.3231323,1.3231323 0 0 0 -2.535245,-0.17777 l -8.172111,22.16816 -1.952852,-28.60342 a 1.3231323,1.3231323 0 0 0 -2.61121,-0.19741 l -7.047115,31.70091 v -52.20302 a 1.3231323,1.3231323 0 0 0 -1.3632247,-1.3224 1.3231323,1.3231323 0 0 0 -1.2402344,0.99219 l -9.6795123,37.56102 -34.7963236,-0.002 c 0.649205,-2.83687 1.303631,-5.67618 1.944581,-8.52144 0.780788,0.0991 1.544701,0.24336 2.603461,0.49402 2.19892,0.56111 4.409701,1.16353 6.648689,1.71463 a 1.3230489,1.3230489 0 0 0 0.191203,0.0336 c 2.03174,0.19271 3.75223,-0.74372 5.093745,-1.61541 a 1.3230489,1.3230489 0 0 0 0.03307,-0.0217 c 2.233544,-1.54589 4.083004,-3.52375 5.664254,-5.60741 a 1.3230489,1.3230489 0 0 0 0.267684,-0.8475 c -0.0052,-0.1437 -0.0151,-0.43887 -0.01757,-0.55862 a 1.3230489,1.3230489 0 0 0 -0.240295,-0.73226 c -0.926727,-1.32005 -1.94223,-2.68706 -3.261817,-3.85971 -2.152138,-2.07705 -4.296456,-4.16491 -6.441467,-6.25388 0.193074,-0.65133 0.445248,-1.30017 0.49041,-2.24017 a 1.3230489,1.3230489 0 0 0 -0.0057,-0.19896 c -0.186155,-1.79147 -1.058404,-3.24243 -1.842264,-4.46329 a 1.3230489,1.3230489 0 0 0 -0.01137,-0.0176 c -1.284066,-1.9286 -2.80691,-3.62158 -4.343922,-5.25756 0.378643,-2.76424 1.622679,-5.46424 2.927988,-8.23619 a 1.3230489,1.3230489 0 0 0 -0.222727,-1.45727 c -0.202231,-0.22037 -0.40187,-0.44351 -0.60358,-0.66404 a 1.3230489,1.3230489 0 0 0 -1.892909,-0.0605 c -1.585939,1.52044 -3.152423,3.05688 -4.72064,4.59197 -0.0053,-3.24939 -0.0036,-6.49896 -0.0057,-9.75238 a 1.3230489,1.3230489 0 0 0 -0.552936,-1.07383 c -0.0099,-0.007 -0.270426,-0.32176 -0.683681,-0.7245 -0.206626,-0.20138 -0.476438,-0.4355 -0.876948,-0.60203 -0.25032,-0.10409 -0.555554,-0.16326 -0.866098,-0.16124 z"
       id="path4374"
       inkscape:connector-curvature="0" />
  </g>
</svg>
