<?xml version="1.0" encoding="UTF-8" standalone="no"?>
<!-- Created with Inkscape (http://www.inkscape.org/) -->

<svg
   xmlns:dc="http://purl.org/dc/elements/1.1/"
   xmlns:cc="http://creativecommons.org/ns#"
   xmlns:rdf="http://www.w3.org/1999/02/22-rdf-syntax-ns#"
   xmlns:svg="http://www.w3.org/2000/svg"
   xmlns="http://www.w3.org/2000/svg"
   xmlns:sodipodi="http://sodipodi.sourceforge.net/DTD/sodipodi-0.dtd"
   xmlns:inkscape="http://www.inkscape.org/namespaces/inkscape"
   width="297mm"
   height="210mm"
   viewBox="0 0 297 210"
   version="1.1"
   id="svg8"
   inkscape:version="0.92.4 5da689c313, 2019-01-14"
   sodipodi:docname="seats.svg">
  <defs
     id="defs2" />
  <sodipodi:namedview
     id="base"
     pagecolor="#ffffff"
     bordercolor="#666666"
     borderopacity="1.0"
     inkscape:pageopacity="0.0"
     inkscape:pageshadow="2"
     inkscape:zoom="0.35"
     inkscape:cx="1410.8548"
     inkscape:cy="302.97274"
     inkscape:document-units="mm"
     inkscape:current-layer="layer1"
     showgrid="false"
     inkscape:window-width="1920"
     inkscape:window-height="999"
     inkscape:window-x="0"
     inkscape:window-y="0"
     inkscape:window-maximized="1"
     inkscape:snap-bbox="false"
     inkscape:bbox-paths="false"
     inkscape:bbox-nodes="false"
     inkscape:snap-bbox-edge-midpoints="true"
     inkscape:snap-bbox-midpoints="false"
     inkscape:object-paths="true"
     inkscape:snap-intersection-paths="true"
     inkscape:snap-smooth-nodes="true"
     inkscape:snap-midpoints="true"
     inkscape:snap-object-midpoints="true"
     inkscape:snap-center="true"
     inkscape:snap-global="true"
     inkscape:snap-nodes="true"
     inkscape:snap-others="true"
     inkscape:snap-text-baseline="false"
     showguides="true"
     inkscape:guide-bbox="true"
     inkscape:snap-grids="true"
     inkscape:snap-page="true" />
  <metadata
     id="metadata5">
    <rdf:RDF>
      <cc:Work
         rdf:about="">
        <dc:format>image/svg+xml</dc:format>
        <dc:type
           rdf:resource="http://purl.org/dc/dcmitype/StillImage" />
        <dc:title />
      </cc:Work>
    </rdf:RDF>
  </metadata>
  <g
     inkscape:label="Layer 1"
     inkscape:groupmode="layer"
     id="layer1"
     transform="translate(0,-87)">
    <path
       id="path2266-2-8"
       style="fill:none;stroke:#000000;stroke-width:0.26499999;stroke-linecap:butt;stroke-linejoin:miter;stroke-miterlimit:4;stroke-dasharray:none;stroke-opacity:1"
       d="m 207.85656,189.99979 v 4.00001 m 0,90.53117 v 2 m 0,-189.062359 V 99.46861 M 89.142873,284.53097 v 2 m 0,-96.53119 v 4.00001 m 0,-96.663471 v 2 M 29.786294,191.99979 H 267.21366 M 148.49998,97.468611 V 286.53097 M 29.786294,97.468611 v 94.531179 94.53118 h 59.3571 59.356586 59.35658 59.3571 V 191.99979 97.468611 h -59.3571 -59.35658 -59.356586 z" />
    <path
       style="font-style:normal;font-variant:normal;font-weight:normal;font-stretch:normal;font-size:15.875px;line-height:1.25;font-family:'Lobster 1.4';-inkscape-font-specification:'Lobster 1.4, Normal';font-variant-ligatures:normal;font-variant-caps:normal;font-variant-numeric:normal;font-feature-settings:normal;text-align:start;letter-spacing:0px;word-spacing:0px;writing-mode:lr-tb;text-anchor:start;fill:#000000;fill-opacity:1;stroke:none;stroke-width:0.26458332"
       d="m 66.321027,129.98704 c 0,-0.48575 -0.124023,-0.96893 -0.37207,-1.44952 -0.707967,-1.36943 -2.144572,-2.73886 -4.309814,-4.10828 0.03101,-0.34107 0.04651,-0.61753 0.04651,-0.8294 0,-0.92501 -0.191202,-1.69757 -0.573608,-2.31769 -0.387573,-0.60978 -0.857829,-0.91468 -1.410767,-0.91468 -0.28422,0 -0.503845,0.093 -0.658874,0.27906 -0.155029,0.1912 -0.232544,0.41599 -0.232544,0.67438 0,0.26354 0.05426,0.48059 0.162781,0.65112 0.113688,0.1757 0.248047,0.26355 0.403076,0.26355 0.155029,0 0.284221,-0.0232 0.387573,-0.0698 0.108521,-0.0465 0.162781,-0.0904 0.162781,-0.13178 0.273885,0.10336 0.470256,0.31265 0.589111,0.62787 0.124023,0.32039 0.201538,0.72864 0.232544,1.22473 -0.604614,-0.34622 -1.21698,-0.66145 -1.837097,-0.94568 -1.984375,-0.925 -3.524332,-1.38751 -4.619873,-1.38751 -0.72347,0 -1.219564,0.26872 -1.488281,0.80615 -0.129192,0.25322 -0.193787,0.69505 -0.193787,1.3255 0.191203,-0.14986 0.490926,-0.22479 0.89917,-0.22479 0.403076,0 0.886251,0.0517 1.449524,0.15503 1.756999,0.3204 3.687114,0.95601 5.790344,1.90686 -0.06201,0.70797 -0.253214,1.41851 -0.573608,2.13165 l -5.759338,-1.22473 v 2.28669 l 11.681457,2.48821 c 0.149862,-0.32556 0.224792,-0.73122 0.224792,-1.21698 z m -1.123962,-1.27124 -4.317566,-0.92242 c 0.232544,-0.57877 0.415995,-1.22473 0.550354,-1.93787 2.015381,0.99735 3.271119,1.95079 3.767212,2.86029 z m -2.705261,17.97565 c 0,-0.53744 -0.0956,-1.01803 -0.286804,-1.44177 -0.521932,-1.15756 -1.532206,-1.98955 -3.030823,-2.49597 v -1.24024 l 3.178101,0.66663 v -2.28669 l -5.092713,-1.079 v -0.014 c -0.444417,-0.18604 -0.788065,-0.37466 -1.030945,-0.56586 -0.248046,-0.1912 -0.37207,-0.447 -0.37207,-0.76739 0,-0.42375 0.222209,-0.63562 0.666626,-0.63562 0.139527,0 0.361735,0.0362 0.666626,0.10852 l 1.224731,0.27905 3.937745,0.83716 v -2.1239 l -3.178101,-0.72089 v -1.77509 l 3.178101,0.68214 v -2.28669 l -7.9375,-1.68206 v 2.28668 l 3.81372,0.8139 v 1.75958 c -1.121378,-0.24288 -1.862936,-0.36431 -2.22467,-0.36431 -0.475424,0 -0.875916,0.16019 -1.201477,0.48058 -0.320394,0.31523 -0.480591,0.77773 -0.480591,1.38752 0,0.72019 0.301171,1.34283 0.900203,1.86862 l -0.807185,-0.17105 v 2.28668 l 3.81372,0.79065 v 1.19373 c -0.511597,-0.093 -0.981852,-0.13953 -1.410766,-0.13953 -0.428915,0 -0.800985,0.062 -1.116211,0.18603 -0.89917,0.3514 -1.348755,1.1343 -1.348755,2.3487 0,0.99218 0.434082,1.84226 1.302246,2.55023 0.868164,0.70797 2.025716,1.12396 3.472656,1.24799 0.08289,0.49529 0.205079,0.94004 0.362769,1.33893 l -5.075659,-1.07539 v 2.28669 l 5.092712,1.07745 c 0.403076,0.11369 0.749308,0.27906 1.038696,0.4961 0.294556,0.2222 0.441834,0.48834 0.441834,0.79839 0,0.31523 -0.232544,0.47284 -0.697632,0.47284 -0.139527,0 -0.271302,-0.0155 -0.395325,-0.0465 l -5.480285,-1.16272 v 2.28669 l 5.092713,1.07745 c 0.201538,0.0568 0.387573,0.12919 0.558104,0.21704 0.604615,0.29972 0.906922,0.64079 0.906922,1.0232 0,0.3824 -0.271301,0.5736 -0.813903,0.5736 -0.361736,0 -1.018027,-0.11885 -1.968873,-0.35656 -0.950847,-0.23772 -1.643311,-0.35657 -2.077393,-0.35657 -1.193725,0 -1.790588,0.67696 -1.790588,2.03088 0,0.45476 0.160197,0.88884 0.480591,1.30225 0.222703,0.28388 0.526723,0.54382 0.905888,0.78134 -0.0097,0.003 -0.02031,0.006 -0.02997,0.009 -0.904337,0.33073 -1.356506,0.96635 -1.356506,1.90686 0,0.94052 0.490926,1.73892 1.472778,2.39521 -0.470255,0.062 -0.834574,0.22737 -1.092956,0.49609 -0.253215,0.26872 -0.379822,0.61237 -0.379822,1.03095 0,0.42374 0.149862,0.77256 0.449585,1.04644 0.1757,0.15503 0.560689,0.34365 1.154967,0.56586 -0.04651,-0.093 -0.06976,-0.20929 -0.06976,-0.34882 0,-0.43408 0.180868,-0.65112 0.542603,-0.65112 0.191203,0 0.377239,0.0233 0.558105,0.0698 l 5.39502,1.13947 v -2.28668 l -0.84491,-0.17054 h 0.116272 c 0.232544,0 0.423747,-0.10077 0.573608,-0.3023 0.15503,-0.20154 0.232544,-0.52969 0.232544,-0.98444 0,-0.86817 -0.29714,-1.60972 -0.891418,-2.22467 -0.59428,-0.61495 -1.346172,-1.08779 -2.255677,-1.41852 -0.413412,-0.14986 -0.829407,-0.26097 -1.247985,-0.33331 -0.413412,-0.0724 -0.829408,-0.10852 -1.247986,-0.10852 -0.0018,0 -0.0034,-1e-5 -0.0052,0 -0.24244,-0.11797 -0.441242,-0.23657 -0.583944,-0.35657 -0.227376,-0.1912 -0.341064,-0.46509 -0.341064,-0.82165 0,-0.38758 0.227376,-0.58137 0.682129,-0.58137 0.211873,0 0.485758,0.0413 0.821655,0.12403 l 1.550293,0.37207 c 0.7028,0.1757 1.322916,0.26355 1.860352,0.26355 0.537434,0 0.945678,-0.16795 1.224731,-0.50385 0.279054,-0.33589 0.418579,-0.75447 0.418579,-1.25573 0,-0.88884 -0.449585,-1.62523 -1.348755,-2.20917 0.909506,-0.14986 1.364259,-0.69246 1.364259,-1.62781 0,-0.76481 -0.299723,-1.41077 -0.89917,-1.93787 l 0.821656,0.17054 v -2.28669 l -2.113567,-0.44803 c -0.01337,-0.0318 -0.02845,-0.0625 -0.04134,-0.0946 -0.180867,-0.44441 -0.2713,-0.80873 -0.2713,-1.09296 0,-0.12402 0.0052,-0.21187 0.0155,-0.26354 h 0.0155 c 1.689819,0 2.534729,-0.67696 2.534729,-2.03089 z m -0.961182,0.0775 c 0,0.24288 -0.06976,0.40566 -0.209289,0.48834 -0.139527,0.0879 -0.377239,0.14211 -0.713135,0.16278 -0.144694,-0.32556 -0.418578,-0.48834 -0.821655,-0.48834 -0.403077,0 -0.638204,0.14211 -0.705384,0.42633 -0.935342,-0.12402 -1.718242,-0.3669 -2.348693,-0.72864 -0.294556,-0.16536 -0.5271,-0.34623 -0.697631,-0.5426 -0.170534,-0.1912 -0.255799,-0.37207 -0.255799,-0.5426 0,-0.17053 0.01809,-0.30748 0.05426,-0.41083 0.03617,-0.10335 0.124022,-0.20154 0.263549,-0.29455 0.139527,-0.0879 0.462503,-0.13178 0.968934,-0.13178 0.868163,0 1.829346,0.22221 2.883544,0.66663 1.0542,0.44441 1.581299,0.9095 1.581299,1.39526 z m -0.08527,19.01434 c 0,0.29456 -0.07751,0.48576 -0.232544,0.57361 -0.149861,0.093 -0.273885,0.13953 -0.37207,0.13953 l -3.581176,-0.75965 c -0.434083,-0.0982 -0.777731,-0.27647 -1.030946,-0.53485 -0.248046,-0.25838 -0.372069,-0.54518 -0.372069,-0.86041 0,-0.17053 0.05684,-0.31264 0.170532,-0.42633 0.186035,-0.19637 0.51418,-0.29456 0.984436,-0.29456 0.24288,0 0.472838,0.0129 0.689881,0.0388 1.421102,0.17053 2.511474,0.5917 3.271118,1.26349 0.315225,0.27905 0.472838,0.56586 0.472838,0.86041 z"
       id="path3207"
       inkscape:connector-curvature="0" />
    <path
       style="font-style:normal;font-variant:normal;font-weight:normal;font-stretch:normal;font-size:15.875px;line-height:1.25;font-family:'Lobster 1.4';-inkscape-font-specification:'Lobster 1.4, Normal';font-variant-ligatures:normal;font-variant-caps:normal;font-variant-numeric:normal;font-feature-settings:normal;text-align:start;letter-spacing:0px;word-spacing:0px;writing-mode:lr-tb;text-anchor:start;fill:#000000;fill-opacity:1;stroke:none;stroke-width:0.26458332"
       d="m 66.321027,235.85086 c 0,-0.48576 -0.124024,-0.96893 -0.372071,-1.44952 -0.707966,-1.36943 -2.144572,-2.73886 -4.309813,-4.10828 0.03101,-0.34106 0.04651,-0.61753 0.04651,-0.82941 0,-0.92501 -0.191204,-1.69757 -0.573609,-2.31769 -0.387572,-0.60978 -0.857829,-0.91467 -1.410766,-0.91467 -0.284221,0 -0.503846,0.093 -0.658876,0.27906 -0.155027,0.1912 -0.232542,0.41599 -0.232542,0.67437 0,0.26355 0.05426,0.48059 0.162779,0.65112 0.113689,0.17571 0.248047,0.26356 0.403077,0.26356 0.15503,0 0.284221,-0.0233 0.387572,-0.0698 0.108522,-0.0465 0.162783,-0.0904 0.162783,-0.13178 0.273886,0.10335 0.470254,0.31264 0.58911,0.62787 0.124025,0.32039 0.201539,0.72864 0.232545,1.22473 -0.604614,-0.34623 -1.21698,-0.66146 -1.837097,-0.94568 -1.984375,-0.925 -3.524332,-1.38751 -4.619873,-1.38751 -0.723468,0 -1.219566,0.26872 -1.488281,0.80615 -0.129192,0.25322 -0.193787,0.69505 -0.193787,1.3255 0.191204,-0.14986 0.490927,-0.22479 0.899171,-0.22479 0.403074,0 0.886251,0.0517 1.449522,0.15503 1.757001,0.3204 3.687114,0.95601 5.790345,1.90686 -0.06201,0.70797 -0.253214,1.41852 -0.573607,2.13165 l -5.759339,-1.22473 v 2.28668 l 11.681457,2.48822 c 0.149862,-0.32556 0.224793,-0.73122 0.224793,-1.21698 z m -1.123964,-1.27124 -4.317566,-0.92242 c 0.232545,-0.57878 0.415998,-1.22474 0.550355,-1.93787 2.015381,0.99735 3.271118,1.95079 3.767211,2.86029 z m -2.844786,3.11609 -7.9375,-1.68207 v 2.28668 l 3.813721,0.81391 v 1.75958 c -1.121378,-0.24288 -1.862934,-0.36432 -2.224671,-0.36432 -0.475424,0 -0.875916,0.1602 -1.201477,0.48059 -0.320392,0.31523 -0.480589,0.77773 -0.480589,1.38751 0,0.72972 0.307975,1.35968 0.922941,1.88981 -0.149832,0.0713 -0.287359,0.16182 -0.411345,0.27285 -0.341064,0.30489 -0.511596,0.76223 -0.511596,1.37201 0,0.3359 0.07235,0.63045 0.21704,0.88367 0.149863,0.25321 0.403077,0.49092 0.759643,0.71313 0.361734,0.22221 1.157551,0.48059 2.387451,0.77515 0,0.30489 0.031,0.60203 0.09302,0.89142 -0.821655,-0.19121 -1.44177,-0.28681 -1.86035,-0.28681 -0.418579,0 -0.79065,0.15762 -1.116212,0.47284 -0.320392,0.3204 -0.480589,0.78549 -0.480589,1.39527 0.118856,0.88366 0.679546,1.38234 1.682068,1.49603 -0.09818,-0.1602 -0.147277,-0.34106 -0.147277,-0.5426 0,-0.42375 0.222206,-0.63562 0.666624,-0.63562 0.139527,0 0.428916,0.0491 0.868164,0.14727 0.444418,0.10336 2.098064,0.46251 4.960938,1.07746 v -2.41071 c 0,-0.79065 -0.07235,-1.45211 -0.217041,-1.98437 -0.403077,-1.46245 -1.245401,-2.19367 -2.526977,-2.19367 -0.997355,0 -1.612305,0.50385 -1.844849,1.51154 -0.728639,-0.17054 -1.31775,-0.34623 -1.767335,-0.5271 -0.449585,-0.1757 -0.674378,-0.45217 -0.674378,-0.82941 0,-0.37724 0.16795,-0.58136 0.503846,-0.61236 -0.02067,0.16536 0.02842,0.31264 0.147278,0.44183 0.124023,0.12919 0.312642,0.19379 0.565856,0.19379 0.258384,0 0.462505,-0.0775 0.612368,-0.23255 0.155027,-0.14986 0.232542,-0.32556 0.232542,-0.5271 0,-0.20154 -0.031,-0.36173 -0.09302,-0.48059 -0.19245,-0.37477 -0.554728,-0.56457 -1.084688,-0.57205 -0.231035,-0.18889 -0.349332,-0.43649 -0.349332,-0.7457 0,-0.42374 0.222207,-0.63562 0.666625,-0.63562 0.139526,0 0.361736,0.0362 0.666626,0.10852 l 1.224732,0.27906 3.937744,0.83716 v -2.12391 l -3.178101,-0.72088 v -1.77509 l 3.178101,0.68213 z m -0.860411,11.90625 v 0.37982 l -3.030823,-0.66663 c -0.02067,-0.062 -0.03101,-0.13177 -0.03101,-0.20928 v -0.24805 c 0,-0.3204 0.08785,-0.5917 0.263552,-0.81391 0.175699,-0.22221 0.514178,-0.33331 1.015441,-0.33331 0.506429,0 0.930175,0.15761 1.271239,0.47284 0.341063,0.31523 0.511598,0.78807 0.511598,1.41852 z"
       id="path3196"
       inkscape:connector-curvature="0" />
  </g>
</svg>
