<?xml version="1.0" encoding="UTF-8" standalone="no"?>
<!-- Created with Inkscape (http://www.inkscape.org/) -->

<svg
   xmlns:dc="http://purl.org/dc/elements/1.1/"
   xmlns:cc="http://creativecommons.org/ns#"
   xmlns:rdf="http://www.w3.org/1999/02/22-rdf-syntax-ns#"
   xmlns:svg="http://www.w3.org/2000/svg"
   xmlns="http://www.w3.org/2000/svg"
   xmlns:sodipodi="http://sodipodi.sourceforge.net/DTD/sodipodi-0.dtd"
   xmlns:inkscape="http://www.inkscape.org/namespaces/inkscape"
   width="30mm"
   height="30mm"
   viewBox="0 0 30 30"
   version="1.1"
   id="svg8"
   inkscape:version="0.92.2 5c3e80d, 2017-08-06"
   sodipodi:docname="crest.svg">
  <defs
     id="defs2" />
  <sodipodi:namedview
     id="base"
     pagecolor="#ffffff"
     bordercolor="#666666"
     borderopacity="1.0"
     inkscape:pageopacity="0.0"
     inkscape:pageshadow="2"
     inkscape:zoom="2.8284271"
     inkscape:cx="28.736314"
     inkscape:cy="51.108641"
     inkscape:document-units="px"
     inkscape:current-layer="layer1"
     showgrid="false"
     showborder="true"
     inkscape:window-width="1920"
     inkscape:window-height="999"
     inkscape:window-x="0"
     inkscape:window-y="0"
     inkscape:window-maximized="1" />
  <metadata
     id="metadata5">
    <rdf:RDF>
      <cc:Work
         rdf:about="">
        <dc:format>image/svg+xml</dc:format>
        <dc:type
           rdf:resource="http://purl.org/dc/dcmitype/StillImage" />
        <dc:title></dc:title>
      </cc:Work>
    </rdf:RDF>
  </metadata>
  <g
     inkscape:label="Layer 1"
     inkscape:groupmode="layer"
     id="layer1"
     transform="translate(0,-267)">
    <g
       id="l1"
       transform="matrix(0.04666667,0,0,0.04666667,-7.733335,262.8231)">
      <path
         id="p1"
         style="display:inline;opacity:1;fill:#000000;fill-opacity:1;stroke:none;stroke-width:3;stroke-miterlimit:4;stroke-dasharray:none;stroke-dashoffset:1.79999995;stroke-opacity:1"
         d="m 487.14284,110.93358 c -165.59998,0 -299.99998,134.40004 -299.99998,300.00004 0,165.6 134.39998,300.00004 299.99998,300 165.6,0 300.00002,-134.39996 300.00002,-300 0,-165.60002 -134.40002,-300.00004 -300.00002,-300.00004 z m -14.15816,24.87248 c 0.1688,-0.009 0.34134,0.008 0.5102,0 l 1.27552,20.34438 c -17.30332,0.82496 -34.14468,3.34834 -50.38266,7.46174 l 5.03828,19.8342 c -42.62194,10.79592 -80.5854,33.2414 -110.33164,63.7755 l -14.6046,-14.2857 c -11.87822,12.18596 -22.49774,25.57174 -31.76018,39.92346 l -17.09184,-11.28828 c 46.68098,-72.1773 126.19538,-121.13988 217.34692,-125.7653 z m 27.80612,0 c 91.36348,4.46928 171.08974,53.45432 217.85716,125.7653 l -17.09184,11.28828 c -9.24162,-14.31558 -19.85138,-27.69924 -31.69644,-39.8597 l -14.60458,14.22194 c -29.75088,-30.5504 -67.7586,-52.97584 -110.3954,-63.7755 l 5.03826,-19.8342 c -16.23798,-4.1134 -33.07932,-6.63678 -50.38266,-7.46174 z m -13.64796,89.92346 c 8.67348,-0.0199 17.34698,0.5102 24.48982,1.53064 l -11.16072,92.85714 c 23.45946,3.42092 44.02786,15.6988 58.22704,33.35458 l 74.48978,-55.86736 c 9.0481,11.2718 19.30572,28.95476 24.68114,42.34696 l -85.58674,36.60712 c 4.3019,10.62846 6.69644,22.21 6.69644,34.37502 0,11.7196 -2.17876,22.9187 -6.18624,33.22704 l 84.8852,36.28828 c -5.23758,13.47174 -15.3882,31.12314 -24.29846,42.47448 l -73.9796,-55.35714 c -14.1803,18.0591 -34.98424,30.66998 -58.73726,34.18366 l 10.96942,91.32654 c -14.28572,2.19998 -34.69388,2.1684 -48.9796,0.12756 l 10.96938,-91.4541 C 449.85228,498.23372 429.06618,485.58252 414.8852,467.5025 l -73.78826,55.35714 c -9.04808,-11.2718 -19.3057,-28.95476 -24.68114,-42.34694 l 85.07654,-36.41582 c -3.99384,-10.29306 -6.18622,-21.46466 -6.18622,-33.16326 0,-12.18602 2.38038,-23.79538 6.69642,-34.43878 l -85.3954,-36.4796 c 5.2376,-13.47174 15.3882,-31.12314 24.29848,-42.4745 l 74.6811,55.93114 C 429.7859,335.8161 450.3543,323.53822 473.81378,320.1173 l -11.16072,-92.72962 c 7.14286,-1.09998 15.81632,-1.63826 24.48978,-1.65816 z m -245.15304,59.4388 18.36734,9.05612 c -7.74674,15.01834 -14.08054,30.87462 -18.75,47.44896 l 19.64286,5.54848 c -5.71048,20.26526 -8.80102,41.62812 -8.80102,63.71174 0,22.10504 3.07982,43.49278 8.80102,63.7755 l -19.64286,5.54848 c 4.66624,16.54766 11.01278,32.38996 18.75,47.3852 l -18.36734,9.05612 c -19.39818,-37.71134 -30.35714,-80.46448 -30.35714,-125.7653 0,-45.30084 10.95896,-88.05396 30.35714,-125.7653 z m 490.30612,0 c 19.39818,37.71134 30.3571,80.46446 30.3571,125.7653 0,45.30082 -10.95892,88.05396 -30.3571,125.7653 l -18.36736,-9.05612 c 7.7405,-14.9997 14.08224,-30.83214 18.75002,-47.3852 l -19.64286,-5.54848 c 5.72118,-20.28272 8.80102,-41.67046 8.80102,-63.7755 0,-22.08362 -3.09052,-43.44648 -8.80102,-63.71174 l 19.64286,-5.54848 c -4.66816,-16.5697 -11.00646,-32.43422 -18.75002,-47.44896 z M 272.7296,549.00762 c 9.26598,14.35144 19.88144,27.73692 31.76018,39.92346 l 14.6046,-14.28572 c 29.74624,30.53408 67.7097,52.9796 110.33164,63.77552 l -5.03828,19.83416 c 16.23798,4.11338 33.07934,6.6368 50.38266,7.46176 l -1.27552,20.34438 C 382.13144,681.59186 302.40516,632.60682 255.63776,560.29588 Z m 428.8903,0 17.02806,11.28826 C 671.88054,632.60682 592.15428,681.59186 500.7908,686.06118 l -1.2755,-20.34438 c 17.30334,-0.82496 34.14468,-3.34838 50.38266,-7.46176 l -5.03826,-19.83416 c 42.6368,-10.7997 80.64452,-33.22514 110.3954,-63.77552 l 14.60458,14.22194 c 11.85988,-12.17568 22.5073,-25.52476 31.76022,-39.85968 z"
         inkscape:connector-curvature="0" />
    </g>
  </g>
</svg>
