<?xml version="1.0" encoding="UTF-8" standalone="no"?>
<!-- Created with Inkscape (http://www.inkscape.org/) -->

<svg
   xmlns:dc="http://purl.org/dc/elements/1.1/"
   xmlns:cc="http://creativecommons.org/ns#"
   xmlns:rdf="http://www.w3.org/1999/02/22-rdf-syntax-ns#"
   xmlns:svg="http://www.w3.org/2000/svg"
   xmlns="http://www.w3.org/2000/svg"
   xmlns:sodipodi="http://sodipodi.sourceforge.net/DTD/sodipodi-0.dtd"
   xmlns:inkscape="http://www.inkscape.org/namespaces/inkscape"
   width="30mm"
   height="30mm"
   viewBox="0 0 30 30"
   version="1.1"
   id="svg8"
   inkscape:version="0.92.2 5c3e80d, 2017-08-06"
   sodipodi:docname="trooper.svg">
  <defs
     id="defs2" />
  <sodipodi:namedview
     id="base"
     pagecolor="#ffffff"
     bordercolor="#666666"
     borderopacity="1.0"
     inkscape:pageopacity="0.0"
     inkscape:pageshadow="2"
     inkscape:zoom="1.4142136"
     inkscape:cx="-65.314469"
     inkscape:cy="57.492228"
     inkscape:document-units="px"
     inkscape:current-layer="layer1"
     showgrid="false"
     showborder="true"
     inkscape:window-width="1920"
     inkscape:window-height="999"
     inkscape:window-x="0"
     inkscape:window-y="0"
     inkscape:window-maximized="1"
     inkscape:snap-midpoints="false"
     inkscape:snap-smooth-nodes="true"
     inkscape:object-paths="false"
     inkscape:snap-intersection-paths="true"
     inkscape:snap-object-midpoints="true"
     inkscape:snap-center="true"
     inkscape:snap-bbox="true"
     inkscape:bbox-paths="true"
     inkscape:bbox-nodes="true"
     inkscape:snap-bbox-midpoints="true"
     inkscape:snap-bbox-edge-midpoints="true"
     inkscape:snap-nodes="true"
     inkscape:object-nodes="true"
     inkscape:snap-others="false" />
  <metadata
     id="metadata5">
    <rdf:RDF>
      <cc:Work
         rdf:about="">
        <dc:format>image/svg+xml</dc:format>
        <dc:type
           rdf:resource="http://purl.org/dc/dcmitype/StillImage" />
        <dc:title></dc:title>
      </cc:Work>
    </rdf:RDF>
  </metadata>
  <g
     inkscape:label="Layer 1"
     inkscape:groupmode="layer"
     id="layer1"
     transform="translate(0,-267)">
    <path
       id="path513"
       style="fill:#000000;stroke-width:0.05821211"
       d="m 4.9931551,283.96963 c 0,0.3319 -0.002,0.57669 0,0.7108 0.47096,0.47095 0.52873,0.49394 1.04898,1.01419 v 1.47972 c 0.41642,0.41502 0.76889,0.74739 1.15933,1.1008 l -0.12745,0.13563 c -0.11714,0.12468 -0.1751,0.13576 -0.71333,0.13576 h -0.58576 l -0.80121,0.79962 c -0.75478,0.75333 -0.8011,0.81265 -0.8011,1.02576 0,0.27091 0.0227,0.28498 -0.67978,-0.41908 h -1.2e-4 l -0.48446,-0.4856 v -2.34144 -2.34156 c 1.29465,-1.29465 -0.18013,0.18013 1.39975,-1.39975 0.28677,0.28677 0.23038,0.23038 0.58515,0.58515 z m -0.94504,0.2551 c -0.0714,-0.007 -0.1864,0.0877 -0.49105,0.38361 -0.30953,0.30063 -0.43758,0.46415 -0.41317,0.52778 0.0195,0.0507 0.0564,0.0922 0.0822,0.0922 0.0258,0 0.2507,-0.205 0.49991,-0.45569 0.38644,-0.38872 0.44037,-0.46644 0.36633,-0.52789 -0.0136,-0.0113 -0.0277,-0.0183 -0.0442,-0.02 z m 0.27242,0.42147 c -0.10758,0 -0.97373,0.87022 -0.94674,0.95118 0.0479,0.14372 0.16718,0.0745 0.58621,-0.34052 0.42958,-0.42542 0.53885,-0.61066 0.36053,-0.61066 z m 0.14291,0.57564 c -0.0655,-4.4e-4 -0.17946,0.10048 -0.47581,0.39509 -0.25088,0.24941 -0.44732,0.48008 -0.43648,0.51266 0.0497,0.14936 0.21685,0.0538 0.61282,-0.35053 0.36355,-0.37124 0.41675,-0.45047 0.35382,-0.52629 -0.016,-0.0193 -0.0325,-0.0308 -0.0543,-0.0309 z m 0.27765,0.43148 c -0.0652,-0.002 -0.1832,0.10309 -0.49935,0.4151 -0.35281,0.34818 -0.47177,0.50209 -0.44398,0.5745 0.0209,0.0544 0.0553,0.0989 0.0766,0.0989 0.0213,0 0.25278,-0.21611 0.51447,-0.48025 0.4046,-0.40839 0.46527,-0.49428 0.40532,-0.5745 -0.0154,-0.0206 -0.0313,-0.0332 -0.0531,-0.0338 z m 0.13996,0.57007 c -0.064,2.2e-4 -0.17414,0.1 -0.45308,0.38531 -0.40486,0.41417 -0.4753,0.53534 -0.33802,0.5811 0.0306,0.0102 0.24946,-0.17669 0.48639,-0.41522 0.36267,-0.36509 0.41927,-0.44747 0.35792,-0.5214 -0.0156,-0.0188 -0.0319,-0.0299 -0.0532,-0.0298 z m 0.29481,0.45285 c -0.0834,0.006 -0.21393,0.11876 -0.54221,0.44909 -0.39608,0.39855 -0.47349,0.50394 -0.40294,0.54881 0.048,0.0306 0.10042,0.0543 0.11642,0.0528 0.016,-0.002 0.24413,-0.22344 0.50697,-0.4931 0.41752,-0.42834 0.46477,-0.49742 0.37383,-0.54608 -0.0161,-0.009 -0.0328,-0.0129 -0.0521,-0.0115 z m 0.12506,0.56267 c -0.072,0.002 -0.18289,0.10104 -0.47604,0.39419 -0.39751,0.39751 -0.43658,0.45559 -0.35837,0.5338 0.0782,0.0782 0.13715,0.0382 0.54063,-0.36769 0.40404,-0.40643 0.44255,-0.46384 0.35825,-0.5338 -0.0207,-0.0172 -0.0404,-0.0272 -0.0645,-0.0265 z m 0.31688,0.4192 c -0.0727,-0.006 -0.19057,0.0973 -0.51345,0.42579 -0.43761,0.44533 -0.51458,0.57254 -0.37429,0.6193 0.0305,0.0102 0.27277,-0.19975 0.53823,-0.46661 0.41485,-0.417 0.47036,-0.49551 0.39464,-0.55836 -0.0139,-0.0116 -0.0283,-0.0187 -0.0451,-0.0201 z m 18.8574599,-14.12647 0.0157,-1.25007 -2.1402,-2.14078 L 20.210575,268 h -5.20999 -5.2099899 l -2.13958,2.139 -2.13959,2.139 v 1.2276 c 0,0.67518 0.0175,1.24515 0.039,1.26659 0.0214,0.0214 4.28475,0.0324 9.4740199,0.0242 l 9.43504,-0.0147 z m -18.9346899,2.76356 -0.0168,0.54938 c -0.0137,0.4464 -8e-5,0.55887 0.0728,0.59963 0.0764,0.0427 0.0896,0.23462 0.0896,1.29534 v 1.2453 l 1.08363,1.08034 1.08352,1.08033 h 0.66569 0.66557 l 0.55483,-0.55301 0.5548399,-0.55302 h 0.35962 0.35973 l 1.19232,-1.19335 1.19233,-1.19334 h 1.60186 1.60185 l 1.19233,1.19334 1.19232,1.19335 h 0.35973 0.35962 l 0.55484,0.55302 0.55483,0.55301 h 0.66569 0.66557 l 1.08363,-1.08033 1.08352,-1.08034 v -1.2453 c 0,-1.06072 0.0132,-1.2526 0.0896,-1.29534 0.0728,-0.0408 0.0865,-0.15323 0.0728,-0.59963 l -0.0168,-0.54938 h -9.45947 z m 1.05225,0.84408 h 8.4072199 8.40722 l 0.24967,0.24501 0.24956,0.24491 v 0.55995 c 0,0.52191 -0.01,0.56904 -0.14553,0.69649 -0.1216,0.11424 -0.14553,0.19035 -0.14553,0.46252 v 0.32562 l -0.5396,0.53733 c -0.50124,0.49915 -0.55614,0.53732 -0.77369,0.53732 -0.20066,0 -0.271,-0.0375 -0.49128,-0.26195 -0.24383,-0.24845 -0.27386,-0.26196 -0.5819,-0.26196 -0.31271,0 -0.33543,-0.0108 -0.61145,-0.29106 -0.28145,-0.28574 -0.29319,-0.29106 -0.63965,-0.29106 h -0.35291 l -0.43364,-0.43659 -0.43363,-0.43659 h -0.40987 -0.40976 l -0.72595,-0.72765 -0.72594,-0.72765 h -1.48612 -1.48611 l -0.72595,0.72765 -0.72595,0.72765 h -0.40976 -0.40987 l -0.43363,0.43659 -0.43364,0.43659 h -0.35291 c -0.3464699,0 -0.3581999,0.005 -0.6396499,0.29106 -0.27602,0.28024 -0.29874,0.29106 -0.61145,0.29106 -0.30804,0 -0.33807,0.0135 -0.5819,0.26196 -0.22108,0.22526 -0.29023,0.26195 -0.49355,0.26195 -0.22078,0 -0.27195,-0.0356 -0.7737,-0.53948 l -0.53732,-0.5396 v -0.32346 c 0,-0.26978 -0.0242,-0.34622 -0.14553,-0.46025 -0.13567,-0.12745 -0.14553,-0.17458 -0.14553,-0.69649 v -0.55995 l 0.24956,-0.24491 z m 3.24505,8.64455 c 0.0568,0 1.7410399,-1.65905 1.7410399,-1.65905 h 0.38719 0.38719 l 0.66754,-0.66944 0.66754,-0.66944 h 1.31167 1.31167 l 0.66754,0.66944 0.66754,0.66944 h 0.38719 0.38719 l 1.69248,1.63902 c 0.58517,0.53298 2.01159,1.85047 2.48528,2.31762 l 1.07474,-1.07471 c 0,-0.75857 -3e-5,-0.6166 0,-1.34148 l 0.5821,-0.57994 0.58212,-0.57994 v -0.55685 -0.55684 l 0.23285,-0.22737 0.23285,-0.22737 v -2.39126 -2.39126 l -0.3462,-0.34258 c -0.51464,-0.50927 -0.52699,-0.48554 -0.52699,1.01265 v 1.20518 l 0.14553,0.13671 0.14553,0.13672 v 1.84571 1.8457 l -0.40782,0.41764 c -0.2243,0.22971 -0.43387,0.40156 -0.4657,0.38189 -0.0318,-0.0197 -0.0579,-0.19745 -0.0579,-0.39506 v -0.3593 l -0.53728,-0.53952 -0.53728,-0.53953 0.50818,-0.51054 0.50817,-0.51054 v -0.58016 -0.58016 l -0.77209,0.7705 -0.77209,0.7705 h -0.72803 -0.72801 l -0.54163,-0.54389 -0.54163,-0.54389 -0.35083,0.008 -0.35084,0.008 -1.21133,-1.21087 -1.21134,-1.21086 h -1.524 -1.52399 l -1.21134,1.21086 -1.21134,1.21087 -0.35083,-0.008 -0.35083,-0.008 -0.5416299,0.54389 -0.54163,0.54389 h -0.72802 -0.72802 l -0.77209,-0.7705 -0.77209,-0.7705 v 0.58016 0.58016 l 0.50817,0.51054 0.50818,0.51054 -0.53729,0.53953 -0.53728,0.53952 v 0.3593 c 0,0.19761 -0.026,0.37539 -0.0579,0.39506 -0.0318,0.0197 -0.24139,-0.15218 -0.4657,-0.38189 l -0.40782,-0.41764 v -1.8457 -1.84571 l 0.14553,-0.13672 0.14553,-0.13671 v -1.20518 c 0,-1.49819 -0.0123,-1.52192 -0.52699,-1.01265 l -0.34619,0.34258 v 2.39126 2.39126 l 0.23285,0.22737 0.23285,0.22737 v 0.55684 0.55685 l 0.58212,0.57994 0.58212,0.57994 c 0,1.10924 0,0.40583 0,1.43204 0.89625,0.89624 0.1318,0.1318 0.98415,0.98415 1.54949,-1.54949 1.47927,-1.38277 2.52728,-2.29759 z m 15.1689699,-1.86997 c 0,0.3319 0.002,0.57669 0,0.71079 -0.47096,0.47096 -0.52873,0.49395 -1.04898,1.0142 v 1.47971 c -0.41642,0.41503 -0.76889,0.7474 -1.15933,1.1008 l 0.12745,0.13564 c 0.11713,0.12468 0.1751,0.13576 0.71333,0.13576 h 0.58576 l 0.80121,0.79962 c 0.75478,0.75333 0.8011,0.81265 0.8011,1.02576 0,0.27091 -0.0227,0.28498 0.67978,-0.41908 h 1.2e-4 l 0.48446,-0.4856 v -2.34144 -2.34156 c -1.29465,-1.29465 0.18013,0.18013 -1.39975,-1.39975 -0.28677,0.28677 -0.23038,0.23038 -0.58515,0.58515 z m 0.94504,0.2551 c 0.0714,-0.007 0.1864,0.0877 0.49105,0.38361 0.30953,0.30063 0.43758,0.46415 0.41317,0.52778 -0.0195,0.0507 -0.0564,0.0922 -0.0822,0.0922 -0.0258,0 -0.2507,-0.205 -0.49992,-0.45569 -0.38643,-0.38872 -0.44036,-0.46644 -0.36632,-0.52789 0.0136,-0.0113 0.0277,-0.0183 0.0442,-0.02 z m -0.27242,0.42147 c 0.10758,0 0.97373,0.87022 0.94674,0.95118 -0.0479,0.14372 -0.16718,0.0745 -0.58621,-0.34052 -0.42958,-0.42542 -0.53885,-0.61066 -0.36053,-0.61066 z m -0.14291,0.57564 c 0.0655,-4.4e-4 0.17946,0.10048 0.47581,0.39509 0.25088,0.24941 0.44732,0.48007 0.43648,0.51266 -0.0497,0.14936 -0.21685,0.0538 -0.61282,-0.35053 -0.36355,-0.37124 -0.41675,-0.45047 -0.35382,-0.52629 0.016,-0.0193 0.0325,-0.0308 0.0543,-0.0309 z m -0.27765,0.43148 c 0.0652,-0.002 0.1832,0.10309 0.49935,0.4151 0.35281,0.34818 0.47177,0.50209 0.44398,0.5745 -0.0209,0.0544 -0.0553,0.0989 -0.0766,0.0989 -0.0213,0 -0.25278,-0.21611 -0.51447,-0.48025 -0.4046,-0.40839 -0.46527,-0.49429 -0.40533,-0.57451 0.0154,-0.0206 0.0313,-0.0332 0.0531,-0.0338 z m -0.13996,0.57006 c 0.064,2.2e-4 0.17414,0.1 0.45308,0.38532 0.40486,0.41416 0.4753,0.53533 0.33802,0.5811 -0.0306,0.0102 -0.24946,-0.17669 -0.48639,-0.41522 -0.36267,-0.3651 -0.41927,-0.44747 -0.35792,-0.52141 0.0156,-0.0188 0.0319,-0.0299 0.0532,-0.0298 z m -0.29481,0.45286 c 0.0834,0.006 0.21393,0.11876 0.54221,0.44909 0.39608,0.39855 0.47349,0.50394 0.40294,0.54881 -0.048,0.0306 -0.10042,0.0543 -0.11642,0.0528 -0.016,-0.002 -0.24413,-0.22344 -0.50697,-0.4931 -0.41752,-0.42834 -0.46477,-0.49742 -0.37383,-0.54608 0.0161,-0.009 0.0328,-0.0129 0.0521,-0.0115 z m -0.12507,0.56267 c 0.0721,0.002 0.1829,0.10104 0.47605,0.39419 0.39751,0.39751 0.43658,0.45559 0.35837,0.5338 -0.0782,0.0782 -0.13715,0.0382 -0.54063,-0.36769 -0.40404,-0.40643 -0.44255,-0.46384 -0.35825,-0.5338 0.0207,-0.0172 0.0404,-0.0272 0.0645,-0.0265 z m -0.31687,0.4192 c 0.0727,-0.006 0.19057,0.0973 0.51345,0.42579 0.43761,0.44532 0.51458,0.57253 0.37429,0.6193 -0.0305,0.0102 -0.27277,-0.19975 -0.53823,-0.46661 -0.41485,-0.417 -0.47036,-0.49551 -0.39464,-0.55836 0.0139,-0.0116 0.0283,-0.0187 0.0451,-0.0201 z m -10.54901,-2.9537 -0.72606,0.72765 -0.72606,0.72766 h -0.61429 -0.61419 l -0.66512,0.66943 -0.6651099,0.66944 h -0.42636 c -0.42068,0 -0.42928,0.003 -0.65364,0.23285 -0.2185,0.22377 -0.2419,0.23285 -0.60031,0.23285 h -0.37304 l -0.33642,0.34927 -0.33654,0.34928 h -0.62214 -0.62203 l -0.75232,0.75914 -0.75221,0.75915 v 1.00143 1.00154 l 1.93521,1.93589 1.93521,1.93578 h 1.9804599 1.98046 l 0.66854,-0.6725 0.66852,-0.67263 -0.16008,-0.13961 c -0.15326,-0.13365 -0.16008,-0.16274 -0.16008,-0.68354 v -0.54404 l -0.23285,-0.22739 -0.23285,-0.22727 v -0.55859 -0.55847 l 0.23285,-0.22739 c 0.12807,-0.12506 0.23285,-0.28167 0.23285,-0.34814 0,-0.0715 0.15463,-0.27418 0.37838,-0.49594 0.34491,-0.34184 0.37838,-0.39637 0.37838,-0.61702 0,-0.20361 0.0369,-0.28021 0.23273,-0.48196 l 0.23285,-0.2399 h 0.58223 0.58224 l 0.23273,0.2399 c 0.1958,0.20175 0.23285,0.27835 0.23285,0.48196 0,0.22065 0.0335,0.27518 0.37838,0.61702 0.22375,0.22176 0.37838,0.42448 0.37838,0.49594 0,0.0665 0.10478,0.22308 0.23285,0.34814 l 0.23285,0.22739 v 0.55847 0.55859 l -0.23285,0.22727 -0.23285,0.22739 v 0.54404 c 0,0.5208 -0.007,0.54989 -0.16008,0.68354 l -0.16009,0.13961 0.66842,0.67263 0.66853,0.6725 h 1.97989 1.97978 l 1.9359,-1.93521 1.93589,-1.93521 v -1.00211 -1.00211 l -0.75232,-0.75915 -0.75221,-0.75914 h -0.62215 -0.62214 l -0.33642,-0.34928 -0.33654,-0.34927 h -0.37292 c -0.35841,0 -0.38181,-0.009 -0.60031,-0.23285 -0.22436,-0.22976 -0.23308,-0.23285 -0.65375,-0.23285 h -0.42636 l -0.66501,-0.66944 -0.66512,-0.66943 h -0.61429 -0.61419 l -0.72606,-0.72766 -0.72606,-0.72765 h -1.16697 z m -0.0831,3.95843 h 1.25156 1.25156 l 0.82873,0.83032 0.82884,0.8302 v 0.53642 0.53641 l 0.31141,0.32153 0.3113,0.32142 h 1.47952 1.47952 l 0.74129,0.74311 0.74141,0.743 v 0.47605 0.47593 l -0.67228,0.67285 -0.67217,0.67285 h -1.61368 -1.61368 l -0.56654,-0.5686 -0.56643,-0.56859 v -0.75709 -0.7571 l 0.46569,-0.46297 c 0.25613,-0.25463 0.4657,-0.49083 0.4657,-0.52493 0,-0.0341 -0.11788,-0.17775 -0.26195,-0.31915 l -0.26196,-0.25706 v -0.54358 -0.54358 l -0.77916,-0.78325 -0.77904,-0.78313 h -1.11956 -1.11967 l -0.77904,0.78313 -0.77904,0.78325 v 0.54358 0.54358 l -0.26196,0.25706 c -0.14407,0.1414 -0.26195,0.28504 -0.26195,0.31915 0,0.0341 0.20956,0.2703 0.46569,0.52493 l 0.4657,0.46297 v 0.75926 0.75925 l -0.56859,0.56644 -0.56871,0.56643 h -1.6115199 -1.61152 l -0.67228,-0.67285 -0.67217,-0.67285 v -0.47764 -0.47763 l 0.74301,-0.74141 0.743,-0.74141 h 1.47781 1.4778199 l 0.31141,-0.32142 0.31141,-0.32153 v -0.53789 -0.5379 l 0.8302,-0.82872 z m -4.9656499,3.75468 -0.5944,0.59315 -0.5944,0.59315 v 0.38201 0.38214 l 0.53766,0.53834 0.5379,0.53824 h 1.28919 1.2891999 l 0.45501,-0.45319 0.45478,-0.45308 v -0.60747 -0.60737 l -0.37247,-0.37042 c -0.20491,-0.2037 -0.37258,-0.39259 -0.37258,-0.41987 l -0.26548,-0.11563 H 9.9666451 Z m 10.0669399,0 -0.26536,0.11563 c 0,0.0273 -0.16768,0.21617 -0.37258,0.41987 l -0.37247,0.37042 v 0.60566 0.60566 l 0.45308,0.45489 0.4533,0.4549 h 1.2909 1.2909 l 0.53778,-0.53824 0.53778,-0.53834 v -0.38077 -0.38077 l -0.59304,-0.5944 -0.59303,-0.59451 h -1.18369 z m -8.71874,0.61122 h 0.39668 l 0.25616,0.27128 c 0.2535,0.26837 0.2562,0.27555 0.25525,0.68399 -8.8e-4,0.41111 -0.002,0.41372 -0.25718,0.66012 -0.25082,0.24219 -0.26455,0.2474 -0.65602,0.2474 H 9.7275351 l -0.27434,-0.27844 c -0.27028,-0.2744 -0.27424,-0.28405 -0.27424,-0.65704 0,-0.37498 0.003,-0.38124 0.27844,-0.65296 0.27704,-0.27287 0.28064,-0.27435 0.6752399,-0.27435 z m 9.33827,0 h 0.40089 0.40089 l 0.27435,0.27856 c 0.27028,0.2744 0.27434,0.28405 0.27434,0.65704 0,0.37498 -0.003,0.38124 -0.27855,0.65296 l -0.27844,0.27423 -0.40555,-0.002 c -0.39956,-0.002 -0.40906,-0.006 -0.65284,-0.25309 -0.24358,-0.24681 -0.2474,-0.25697 -0.2474,-0.65773 0,-0.40119 0.004,-0.411 0.25615,-0.67831 z"
       inkscape:connector-curvature="0" />
  </g>
</svg>
