<?xml version="1.0" encoding="UTF-8" standalone="no"?>
<!-- Created with Inkscape (http://www.inkscape.org/) -->

<svg
   xmlns:dc="http://purl.org/dc/elements/1.1/"
   xmlns:cc="http://creativecommons.org/ns#"
   xmlns:rdf="http://www.w3.org/1999/02/22-rdf-syntax-ns#"
   xmlns:svg="http://www.w3.org/2000/svg"
   xmlns="http://www.w3.org/2000/svg"
   xmlns:sodipodi="http://sodipodi.sourceforge.net/DTD/sodipodi-0.dtd"
   xmlns:inkscape="http://www.inkscape.org/namespaces/inkscape"
   width="210mm"
   height="297mm"
   viewBox="0 0 210 297"
   version="1.1"
   id="svg8"
   inkscape:version="0.92.1 r"
   sodipodi:docname="uhate.svg">
  <defs
     id="defs2">
    <style
       id="style4913">.cls-1{fill:#232323;}.cls-2{fill:#fff;}</style>
  </defs>
  <sodipodi:namedview
     id="base"
     pagecolor="#000000"
     bordercolor="#666666"
     borderopacity="1.0"
     inkscape:pageopacity="1"
     inkscape:pageshadow="2"
     inkscape:zoom="0.35355339"
     inkscape:cx="-34.867297"
     inkscape:cy="482.55876"
     inkscape:document-units="mm"
     inkscape:current-layer="layer2"
     showgrid="false"
     showborder="true"
     showguides="true"
     inkscape:guide-bbox="true"
     inkscape:window-width="1366"
     inkscape:window-height="697"
     inkscape:window-x="0"
     inkscape:window-y="0"
     inkscape:window-maximized="1"
     inkscape:object-nodes="true"
     inkscape:snap-nodes="true"
     inkscape:object-paths="true"
     inkscape:snap-intersection-paths="true"
     inkscape:snap-smooth-nodes="true"
     inkscape:snap-midpoints="true"
     inkscape:snap-object-midpoints="false"
     inkscape:snap-center="false"
     inkscape:pagecheckerboard="true"
     inkscape:lockguides="false" />
  <metadata
     id="metadata5">
    <rdf:RDF>
      <cc:Work
         rdf:about="">
        <dc:format>image/svg+xml</dc:format>
        <dc:type
           rdf:resource="http://purl.org/dc/dcmitype/StillImage" />
        <dc:title></dc:title>
      </cc:Work>
    </rdf:RDF>
  </metadata>
  <g
     inkscape:label="source"
     inkscape:groupmode="layer"
     id="layer1"
     style="opacity:0.77399998" />
  <g
     inkscape:groupmode="layer"
     id="layer2"
     inkscape:label="design"
     style="opacity:1">
    <path
       style="fill:#000000;stroke-width:1"
       d=""
       id="path6941"
       inkscape:connector-curvature="0" />
    <path
       style="fill:#000000;stroke-width:1"
       d=""
       id="path6939"
       inkscape:connector-curvature="0" />
    <path
       style="fill:#000000;stroke-width:1"
       d=""
       id="path6937"
       inkscape:connector-curvature="0" />
    <g
       aria-label="EVERYONE HATES"
       style="font-style:normal;font-variant:normal;font-weight:normal;font-stretch:normal;font-size:19.22357559px;line-height:12.01473427px;font-family:Helvetica-Normal;-inkscape-font-specification:Helvetica-Normal;letter-spacing:0px;word-spacing:0px;fill:#000000;fill-opacity:1;stroke:none;stroke-width:0.26458332px;stroke-linecap:butt;stroke-linejoin:miter;stroke-opacity:1"
       id="text24">
      <path
         d="M 18.669998,45.22707 V 31.155413 h 9.688682 v 1.499438 h -7.862442 v 4.555988 h 7.574088 v 1.653227 h -7.574088 v 4.690553 h 8.170019 v 1.672451 h -9.996259 z"
         style="fill:#ffffff;stroke-width:0.26458332px"
         id="path931" />
      <path
         d="M 35.181548,45.22707 30.202642,31.155413 h 1.960804 l 4.094622,11.803275 3.921609,-11.803275 h 1.980029 l -4.99813,14.071657 h -1.980028 z"
         style="fill:#ffffff;stroke-width:0.26458332px"
         id="path933" />
      <path
         d="M 44.426586,45.22707 V 31.155413 h 9.688682 v 1.499438 h -7.862442 v 4.555988 h 7.574088 v 1.653227 h -7.574088 v 4.690553 h 8.170019 v 1.672451 h -9.996259 z"
         style="fill:#ffffff;stroke-width:0.26458332px"
         id="path935" />
      <path
         d="M 57.304878,45.22707 V 31.155413 h 7.131947 q 1.480215,0 2.518288,0.961178 1.038073,0.961179 1.249532,2.672077 0,0.346025 -0.03845,0.74972 -0.03845,0.384471 -0.153788,0.788166 -0.173013,0.53826 -0.576708,1.057297 -0.403695,0.499813 -1.191861,0.884284 1.057296,0.519037 1.34565,1.364874 0.307577,0.826614 0.326801,1.710899 0,0.05767 0,0.134565 0,0.05767 0,0.115341 0,0.115342 0,0.249907 0,0.115341 0,0.249906 -0.01922,0.826614 0.05767,1.55711 0.09612,0.711272 0.692049,1.114967 v 0.461366 h -2.268382 q -0.134565,-0.384472 -0.211459,-0.788167 -0.05767,-0.403695 -0.07689,-0.826613 -0.01922,-0.192236 -0.03845,-0.403696 0,-0.211459 0,-0.403695 0,-0.05767 0,-0.09612 0,-0.05767 0,-0.115341 -0.03845,-1.230309 -0.3268,-2.210711 -0.288354,-0.980403 -1.922358,-1.211085 h -4.690552 v 6.055426 h -1.82624 z m 1.82624,-7.727878 h 4.844341 q 0.05767,0.01922 0.115341,0.01922 0.05767,0 0.115342,0 0.884284,0 1.480215,-0.730496 0.615154,-0.730496 0.634378,-1.61478 0,-0.01922 0,-0.01922 0,-0.01922 0,-0.03845 0,-0.01922 0,-0.01922 0,-0.01922 0,-0.03845 -0.01922,-0.788166 -0.672825,-1.460991 -0.634378,-0.692049 -2.133817,-0.788167 h -4.382975 v 4.690552 z"
         style="fill:#ffffff;stroke-width:0.26458332px"
         id="path937" />
      <path
         d="m 74.721138,45.22707 v -5.440272 l -5.440272,-8.631385 h 2.268382 l 4.094621,6.805145 3.92161,-6.805145 h 2.268382 l -5.286484,8.631385 v 5.440272 h -1.826239 z"
         style="fill:#ffffff;stroke-width:0.26458332px"
         id="path939" />
      <path
         d="m 82.755089,37.652981 q 0,-0.326801 0.03845,-0.653601 0.03845,-0.346025 0.115341,-0.692049 0.442142,-1.980029 2.133817,-3.633256 1.710898,-1.672451 4.536764,-1.672451 0.346024,0 0.692049,0.03845 0.346024,0.01922 0.692048,0.09612 1.980029,0.365248 3.65248,2.018475 1.672451,1.634004 1.768569,5.113471 0,2.960431 -1.82624,5.190366 -1.807016,2.210711 -5.440272,2.210711 -3.17189,0 -4.767447,-2.249158 -1.595556,-2.249159 -1.595556,-5.767073 z m 1.826239,0.922732 q 0.03845,0.461366 0.134565,1.018849 0.09612,0.557484 0.307578,1.134191 0.403695,1.153415 1.34565,2.153041 0.941955,0.980402 2.748971,1.134191 0.134565,0.01922 0.249907,0.03845 0.134565,0 0.26913,0 1.903134,0 3.402573,-1.614781 1.499438,-1.634004 1.384097,-4.940459 -0.115341,-1.922357 -1.403321,-3.383349 -1.28798,-1.460992 -3.44102,-1.460992 -0.249907,0 -0.499813,0.03845 -0.249906,0.01922 -0.499813,0.07689 -1.499439,0.307577 -2.748971,1.691675 -1.249533,1.384097 -1.249533,4.113845 z"
         style="fill:#ffffff;stroke-width:0.26458332px"
         id="path941" />
      <path
         d="M 98.504905,45.22707 V 31.155413 h 2.268385 l 6.95893,11.341909 V 31.155413 h 1.82624 V 45.22707 h -2.13382 L 100.31192,34.019725 V 45.22707 h -1.807015 z"
         style="fill:#ffffff;stroke-width:0.26458332px"
         id="path943" />
      <path
         d="M 112.72285,45.22707 V 31.155413 h 9.68868 v 1.499438 h -7.86244 v 4.555988 h 7.57409 v 1.653227 h -7.57409 v 4.690553 h 8.17002 v 1.672451 h -9.99626 z"
         style="fill:#ffffff;stroke-width:0.26458332px"
         id="path945" />
      <path
         d="M 130.60678,45.22707 V 31.155413 h 1.80702 v 5.901637 h 7.11272 v -5.901637 h 1.82624 V 45.22707 h -1.82624 v -6.363004 h -7.11272 v 6.363004 h -1.80702 z"
         style="fill:#ffffff;stroke-width:0.26458332px"
         id="path947" />
      <path
         d="m 143.32528,45.22707 4.99813,-14.071657 h 2.26838 l 5.13269,14.071657 h -2.11459 l -1.51866,-4.094622 h -5.28649 l -1.36487,4.094622 h -2.11459 z m 3.9216,-5.747849 h 4.24842 l -1.96081,-5.901638 -2.28761,5.901638 z"
         style="fill:#ffffff;stroke-width:0.26458332px"
         id="path949" />
      <path
         d="M 159.54246,45.22707 V 32.654851 h -4.69055 v -1.499438 h 11.05356 v 1.499438 h -4.4022 V 45.22707 h -1.96081 z"
         style="fill:#ffffff;stroke-width:0.26458332px"
         id="path951" />
      <path
         d="M 168.14081,45.22707 V 31.155413 h 9.68868 v 1.499438 h -7.86244 v 4.555988 h 7.57409 v 1.653227 h -7.57409 v 4.690553 h 8.17002 v 1.672451 h -9.99626 z"
         style="fill:#ffffff;stroke-width:0.26458332px"
         id="path953" />
      <path
         d="m 180.1156,40.690306 h 1.82624 q 0,1.710898 1.13419,2.537512 1.15341,0.80739 2.53751,0.865061 0.0385,0 0.0769,0 0.0385,0 0.0769,0 1.23031,0 2.24916,-0.557484 1.03807,-0.576707 1.19186,-1.634004 0.0192,-0.07689 0.0192,-0.134565 0,-0.07689 0,-0.153788 0,-1.345651 -1.13419,-1.807016 -1.11497,-0.48059 -2.55674,-0.768943 -0.17301,-0.03845 -0.3268,-0.05767 -0.15379,-0.03845 -0.30757,-0.0769 -1.7109,-0.365247 -3.11422,-1.153414 -1.3841,-0.788167 -1.21109,-3.114219 0.11534,-1.480216 1.36488,-2.556736 1.24953,-1.07652 3.63325,-1.07652 2.38372,0 3.80627,1.095744 1.44177,1.095744 1.32643,3.133443 h -1.80702 q 0,-0.03845 0,-0.05767 0,-0.01922 0,-0.05767 0,-0.01922 0,-0.03845 0,-0.03845 0,-0.05767 0,-1.191861 -1.01885,-1.826239 -0.99963,-0.634378 -2.21071,-0.672826 -0.0385,0 -0.0769,0 -0.0192,0 -0.0384,0 -1.17264,0 -2.15304,0.595931 -0.96118,0.576707 -1.01885,1.82624 0.15379,1.018849 1.15341,1.441768 1.01885,0.403695 2.34528,0.692049 0.23068,0.05767 0.48059,0.115341 0.2499,0.05767 0.49981,0.115342 1.55711,0.365248 2.88354,1.114967 1.34565,0.730496 1.57633,2.575959 0.11534,2.287606 -1.65323,3.479467 -1.76857,1.191862 -3.92161,1.230309 -0.0192,0 -0.0384,0 0,0 -0.0192,0 -2.11459,0 -3.88316,-1.211085 -1.74935,-1.230309 -1.69167,-3.806268 z"
         style="fill:#ffffff;stroke-width:0.26458332px"
         id="path955" />
    </g>
    <path
       style="opacity:1;fill:#ffffff;stroke-width:0.26458332"
       d="m 131.54683,74.689237 c -5.31872,0 -9.6351,4.364891 -9.6351,9.732121 v 8.487311 h -0.58163 v 5.738974 h 0.58163 v 6.547427 h -0.58163 v 10.62168 h 0.58163 v 2.34386 h -0.58163 v 10.60527 h 0.58163 v 79.08536 c 0,5.36721 4.31638,9.73257 9.6351,9.73257 h 49.46905 c 5.31873,0 9.63557,-4.36536 9.63557,-9.73257 v -92.05089 h 0.67865 v -10.62121 h -0.66272 V 84.421358 c 0,-5.36723 -4.31658,-9.732121 -9.6515,-9.732121 z m 49.85853,1.954863 c 0.0264,0.0017 0.0529,0.0034 0.0793,0.0051 0.0346,0.0034 0.069,0.0068 0.10359,0.01014 -0.0608,-0.0051 -0.1215,-0.01014 -0.18279,-0.01352 z m 0.82863,0.09328 c 0.0101,0.0017 0.0201,0.0034 0.0299,0.0051 0.0169,0.0034 0.0319,0.0068 0.0483,0.0084 -0.026,-0.0051 -0.0521,-0.0084 -0.0782,-0.01352 z m 1.53351,0.419003 c 0.003,9.13e-4 0.005,0.0017 0.007,0.0034 0.003,0.0017 0.007,0.0034 0.0101,0.0051 -0.007,-0.0017 -0.0118,-0.0051 -0.0177,-0.0068 z m 0.70255,0.311667 c 0.007,0.0034 0.0152,0.0068 0.022,0.01014 0.008,0.0051 0.0184,0.01014 0.0277,0.01521 -0.0169,-0.0084 -0.0331,-0.01707 -0.0497,-0.02535 z m 0.65803,0.373074 c 0.0152,0.0084 0.0302,0.01724 0.045,0.0267 0.0152,0.01014 0.0291,0.02028 0.0441,0.03008 -0.0296,-0.01926 -0.0591,-0.03785 -0.089,-0.05678 z m -58.42458,0.60647 c -0.0434,0.03633 -0.0853,0.07384 -0.12792,0.11102 0.0335,-0.02923 0.0657,-0.05999 0.0999,-0.08855 0.008,-0.0084 0.0188,-0.01521 0.028,-0.02247 z m 29.70722,0.202472 c 0.7202,0 1.08097,0.870602 0.5718,1.37979 -0.50919,0.50917 -1.37979,0.148871 -1.37979,-0.571322 0,-0.446428 0.36158,-0.808468 0.80799,-0.808468 z m 29.91154,0.116765 c 0.0265,0.02484 0.0546,0.04884 0.0806,0.07401 0.0135,0.01183 0.0243,0.02585 0.037,0.03853 -0.0385,-0.03785 -0.0782,-0.07536 -0.11761,-0.112541 z m -60.18352,0.201542 c -0.0404,0.04089 -0.0793,0.08297 -0.11863,0.124708 0.0276,-0.02923 0.0536,-0.06016 0.0815,-0.08905 0.0118,-0.01183 0.025,-0.02349 0.037,-0.03565 z m 60.71501,0.350567 c 0.0279,0.03194 0.0575,0.06303 0.0848,0.09564 0.008,0.01014 0.0169,0.02045 0.0243,0.03042 -0.0357,-0.04258 -0.0727,-0.08432 -0.10916,-0.126059 z m -61.23243,0.229643 c -0.0301,0.03734 -0.0591,0.0752 -0.0885,0.112879 0.0178,-0.02281 0.0341,-0.0463 0.0521,-0.06894 0.0118,-0.01521 0.0247,-0.02923 0.0367,-0.0441 z m 61.77234,0.461181 c 0.007,0.0084 0.0152,0.01893 0.0211,0.02856 0.002,0.0034 0.003,0.0051 0.005,0.0084 -0.008,-0.01183 -0.0174,-0.02484 -0.0262,-0.03701 z m -62.23915,0.181856 c -0.0172,0.02653 -0.0341,0.0534 -0.051,0.08027 0.008,-0.01352 0.0169,-0.02839 0.0259,-0.04224 0.008,-0.01352 0.0171,-0.02518 0.0254,-0.03802 z m 20.36036,2.710373 c 1.0443,-0.0068 1.57594,1.251737 0.84269,1.995148 -0.73327,0.743428 -1.99981,0.229289 -2.00689,-0.815025 -0.003,-0.646822 0.51738,-1.174732 1.1642,-1.180123 z m -21.50908,0.197301 c -0.005,0.02248 -0.008,0.04478 -0.0118,0.06759 0.002,-0.01183 0.003,-0.02332 0.005,-0.03515 0.002,-0.01014 0.005,-0.02163 0.007,-0.03244 z m 27.55504,0.562417 h 9.71618 c 0.26498,0.0068 0.47783,0.220096 0.48462,0.485091 v 0.0806 c 0,0.267851 -0.21677,0.485075 -0.48462,0.485075 h -9.71618 c -0.26785,0 -0.48508,-0.217224 -0.48508,-0.485075 v -0.0806 c 0,-0.267867 0.21723,-0.485091 0.48508,-0.485091 z m -27.64737,0.149547 c -0.005,0.0632 -0.0101,0.126566 -0.0135,0.190289 0.002,-0.03075 0.003,-0.06168 0.005,-0.09226 0.002,-0.03278 0.007,-0.06523 0.008,-0.09784 z m 1.83018,8.370141 h 61.10871 V 200.49589 h -30.08731 v -4.06953 h 1.19981 v -5.4587 l -0.17248,-4.7e-4 v -1.82507 c 0,-0.42301 -0.34046,-0.76349 -0.76347,-0.76349 h -1.35729 c -0.42301,0 -0.76347,0.34048 -0.76347,0.76349 v 1.82503 h -0.21278 v 5.45917 h 1.19981 v 4.06955 h -30.15153 z m 18.57658,48.744941 c -0.5344,0 -0.96878,0.43434 -0.96878,0.96876 v 8.48309 c 0,0.5344 0.43438,0.96923 0.96878,0.96923 h 23.33082 c 0.53442,0 0.96924,-0.43483 0.96924,-0.96923 v -2.26183 c 0.38145,0 0.68847,-0.30716 0.68847,-0.68851 v -2.58241 c 0,-0.3812 -0.30722,-0.68824 -0.68847,-0.68849 v -2.26185 c 0,-0.53442 -0.43482,-0.96876 -0.96924,-0.96876 z m 0,0.2409 h 23.33082 c 0.40562,0 0.72832,0.32224 0.72832,0.72786 v 8.48309 c 0,0.40562 -0.32268,0.73019 -0.72832,0.73019 h -23.33082 c -0.40564,0 -0.72789,-0.32457 -0.72789,-0.73019 v -8.48309 c 0,-0.40562 0.32225,-0.72786 0.72789,-0.72786 z m 12.83334,39.84006 -2.16855,2.93018 h 1.10842 l -0.58726,2.28106 2.16858,-2.93018 h -1.10843 z m -1.37932,7.60055 h 1.15155 c 0.35895,0 0.64819,0.28154 0.64819,0.63131 v 1.7285 h -2.44744 v -1.7285 c 0,-0.34977 0.28877,-0.63131 0.6477,-0.63131 z m 0.49588,14.29658 c 0.0199,0 0.04,-2.2e-4 0.06,0 2.69196,0.0372 4.84973,2.23883 4.83349,4.93099 -0.0198,1.96906 -1.22013,3.73351 -3.04453,4.47447 -1.82437,0.74095 -3.91506,0.31314 -5.30215,-1.08451 -3.05352,-3.07679 -0.88206,-8.31046 3.45321,-8.32095 z m 32.50568,5.48122 c -9e-4,0.025 -0.002,0.0498 -0.003,0.075 -0.003,0.0328 -0.007,0.0652 -0.008,0.098 0.005,-0.0576 0.008,-0.11508 0.0118,-0.17294 z m -0.0946,0.83049 c -9.1e-4,0.007 -0.002,0.0152 -0.003,0.0225 -0.003,0.0178 -0.007,0.0353 -0.0101,0.0531 0.005,-0.025 0.008,-0.0503 0.0135,-0.0755 z m -1.10795,2.88238 c -0.008,0.0135 -0.0169,0.0284 -0.0254,0.0422 -0.008,0.0135 -0.0174,0.0252 -0.0258,0.038 0.0172,-0.0265 0.0341,-0.0534 0.051,-0.0803 z m -61.86469,0.83003 c 0.0345,0.0409 0.0698,0.0806 0.10494,0.12099 -0.0292,-0.0335 -0.059,-0.0654 -0.0875,-0.0994 -0.007,-0.007 -0.0118,-0.0135 -0.0172,-0.0216 z m 0.51461,0.55773 c 0.0409,0.0404 0.083,0.0793 0.12471,0.11863 -0.0292,-0.0277 -0.0597,-0.0536 -0.0885,-0.0814 -0.0118,-0.0118 -0.0238,-0.025 -0.0362,-0.037 z m 0.58023,0.51742 c 0.0373,0.0301 0.075,0.0591 0.11288,0.0885 -0.0228,-0.0177 -0.0463,-0.034 -0.069,-0.052 -0.0152,-0.0118 -0.0292,-0.0248 -0.0441,-0.0367 z m 0.651,0.47149 c 0.0242,0.0152 0.0483,0.0314 0.0727,0.0468 -0.0135,-0.008 -0.0284,-0.0169 -0.0422,-0.0258 -0.0101,-0.007 -0.0203,-0.0135 -0.0304,-0.0209 z m 2.14935,0.97344 c 0.0101,0.003 0.021,0.007 0.0314,0.008 -0.005,-9.1e-4 -0.008,-0.002 -0.0135,-0.003 -0.007,-0.002 -0.0118,-0.003 -0.0183,-0.005 z m 0.72974,0.16729 c 0.0294,0.005 0.0595,0.0101 0.0891,0.0152 -0.0118,-0.002 -0.0243,-0.003 -0.0362,-0.005 -0.0178,-0.003 -0.0351,-0.007 -0.0531,-0.0101 z m 0.73301,0.0956 c 0.0632,0.005 0.12606,0.0101 0.18981,0.0135 -0.0308,-0.002 -0.0612,-0.003 -0.0919,-0.005 -0.0328,-0.003 -0.0652,-0.007 -0.098,-0.0101 z"
       id="path6274"
       inkscape:connector-curvature="0" />
    <path
       style="fill:#ffffff;stroke-width:0.99999994"
       d="m 53.61726,122.51962 v 2.2e-4 c -2.036789,6.2e-4 -4.07632,0.0857 -5.56174,0.25332 -2.838059,0.32026 -6.676709,1.15316 -9.453136,2.05131 -5.727795,1.8529 -11.284469,4.89473 -15.813375,8.65728 -0.893249,0.7421 -1.820789,1.56749 -2.549043,2.25517 -0.364119,0.34385 -0.67861,0.65273 -0.915255,0.90189 -0.23665,0.24916 -0.386703,0.40612 -0.466546,0.57438 -0.244634,0.51549 -0.250594,1.0987 -0.01942,1.63022 0.0368,0.0845 0.07964,0.13436 0.1466,0.21811 0.06697,0.0837 0.154805,0.186 0.261795,0.30636 0.213967,0.24072 0.504683,0.55268 0.847973,0.91214 0.686561,0.71891 1.583551,1.62791 2.486656,2.52453 0.903093,0.89663 1.811813,1.78 2.523641,2.44946 0.355913,0.33472 0.662625,0.61598 0.896095,0.81944 0.116748,0.10174 0.214973,0.18406 0.294773,0.24575 0.06804,0.0526 0.101603,0.089 0.180459,0.11987 l 0.0055,0.004 0.03698,0.0118 c 0.470461,0.14044 0.886881,0.15923 1.322971,-0.0312 0.43609,-0.19041 0.885495,-0.56174 1.534196,-1.1755 4.546425,-4.30147 10.60781,-7.49954 16.579586,-8.74931 2.93606,-0.61444 4.60331,-0.78307 7.71264,-0.78135 2.89443,9.8e-4 4.13816,0.11325 6.747461,0.60801 6.629509,1.25708 12.54942,4.28536 17.65659,9.0345 0.44907,0.41759 0.75187,0.68357 1.00215,0.86068 0.25028,0.17709 0.45946,0.26602 0.67441,0.30233 0.23979,0.0405 0.45119,0.0787 0.69068,0.0337 0.23948,-0.045 0.48067,-0.17039 0.79227,-0.4075 0.62323,-0.47425 1.56888,-1.41963 3.471,-3.3128 0.98072,-0.97612 1.89197,-1.90461 2.57087,-2.61545 0.33945,-0.3554 0.62117,-0.65602 0.82523,-0.8825 0.10204,-0.11325 0.18467,-0.2078 0.24687,-0.28295 0.0622,-0.0751 0.098,-0.11035 0.13635,-0.19116 0.25876,-0.54532 0.25109,-1.18198 -0.0328,-1.68571 -0.14169,-0.25145 -0.45111,-0.58139 -0.89764,-1.01818 -0.44655,-0.43679 -1.02355,-0.96116 -1.66655,-1.51748 -1.28597,-1.11265 -2.8345,-2.35204 -4.11955,-3.2629 -6.61475,-4.68861 -14.51531,-7.69862 -22.60452,-8.61206 -1.47351,-0.16639 -3.50756,-0.2493 -5.54434,-0.24842 z m 0,0.43379 c 2.0267,-6.2e-4 4.05049,0.0802 5.49555,0.2433 8.01534,0.90509 15.85061,3.89014 22.40421,8.53541 1.26771,0.89855 2.81029,2.13346 4.086591,3.23771 0.63814,0.55213 1.209879,1.07125 1.646929,1.49877 0.437061,0.42751 0.74591,0.78326 0.82368,0.92127 0.2077,0.36864 0.21923,0.86694 0.0185,1.29002 0.0144,-0.0305 -0.0234,0.033 -0.0791,0.10024 -0.0557,0.0672 -0.13543,0.15901 -0.235051,0.26958 -0.199259,0.22113 -0.47821,0.5196 -0.815889,0.87315 -0.67536,0.70713 -1.58485,1.63402 -2.5633,2.60787 -1.90212,1.89317 -2.85893,2.84278 -3.42799,3.27583 -0.28452,0.2165 -0.46174,0.29758 -0.61136,0.32571 -0.14962,0.0281 -0.29848,0.006 -0.53807,-0.0345 -0.153941,-0.0261 -0.280681,-0.0754 -0.49772,-0.22904 -0.21703,-0.15357 -0.51256,-0.41072 -0.95737,-0.82435 -5.16196,-4.80011 -11.16274,-7.87038 -17.87071,-9.14233 -2.62247,-0.49726 -3.920811,-0.61417 -6.82655,-0.6156 -3.12527,-0.002 -4.84919,0.17278 -7.80198,0.79072 -6.05867,1.26794 -12.179674,4.49829 -16.787449,8.85781 -0.638493,0.6041 -1.066674,0.94398 -1.40965,1.09372 -0.342969,0.14976 -0.60657,0.13857 -1.028217,0.0127 0.06151,0.0184 -0.01418,-0.0103 -0.08244,-0.0631 -0.06827,-0.0527 -0.162337,-0.13141 -0.275373,-0.22992 -0.226093,-0.19705 -0.529753,-0.47596 -0.883405,-0.80855 -0.70729,-0.66517 -1.615081,-1.54734 -2.516065,-2.44187 -0.900984,-0.89452 -1.795786,-1.8015 -2.478193,-2.51607 -0.341212,-0.35728 -0.62908,-0.66637 -0.837057,-0.90033 -0.103987,-0.11699 -0.18838,-0.21566 -0.24753,-0.28964 -0.05917,-0.0739 -0.09676,-0.13939 -0.08845,-0.12031 -0.185107,-0.42552 -0.179381,-0.86707 0.01338,-1.2733 0.007,-0.0147 0.161843,-0.22218 0.389884,-0.46231 0.228058,-0.2401 0.538277,-0.54562 0.898556,-0.88585 0.720548,-0.68041 1.643539,-1.50102 2.528767,-2.23645 4.483379,-3.72472 9.99614,-6.74358 15.670117,-8.57907 2.739783,-0.88629 6.570848,-1.71796 9.368925,-2.03371 1.457419,-0.16446 3.48711,-0.24667 5.513829,-0.24753 z m -0.17602,15.61707 c -2.60698,-0.002 -3.29393,0.0352 -4.82338,0.26692 -5.750875,0.87103 -10.917585,3.07235 -15.420803,6.57235 -0.673796,0.52369 -1.388693,1.13095 -1.982232,1.67321 -0.593563,0.54224 -1.05744,1.0039 -1.265724,1.30026 -0.492578,0.70086 -0.496924,1.53348 6.16e-4,2.18611 0.0622,0.0815 0.1784,0.20623 0.363828,0.40237 0.185434,0.19613 0.431091,0.45166 0.719193,0.74771 0.57623,0.59211 1.320758,1.34654 2.07984,2.10947 1.518128,1.52584 3.07794,3.07027 3.509742,3.44914 0.218986,0.19214 0.378414,0.31853 0.566805,0.39501 0.18838,0.0765 0.381402,0.09 0.638319,0.09 0.367622,0 0.642848,-0.0259 0.944665,-0.18936 0.301811,-0.16353 0.620348,-0.44048 1.179715,-0.93889 1.632602,-1.45464 3.172647,-2.4933 4.853012,-3.2767 7.377164,-3.43931 16.055465,-2.16039 22.039494,3.24551 0.52744,0.47648 0.81233,0.73084 1.03335,0.88919 0.221011,0.15836 0.394451,0.21516 0.598651,0.25935 0.11096,0.024 0.223259,0.0423 0.32083,0.053 0.0976,0.0106 0.15278,0.0271 0.26602,-6.2e-4 0.0544,-0.0133 0.26416,-0.0615 0.4514,-0.10271 0.0644,-0.0142 0.0889,-0.0332 0.12298,-0.0539 0.0341,-0.0208 0.0696,-0.0453 0.109399,-0.0748 0.0795,-0.059 0.17638,-0.13775 0.291421,-0.23572 0.23008,-0.19596 0.53086,-0.46776 0.880719,-0.79249 0.69972,-0.64946 1.59384,-1.51058 2.48176,-2.38641 0.88792,-0.8758 1.76915,-1.76553 2.44611,-2.47395 0.33847,-0.35421 0.6257,-0.66344 0.83794,-0.90369 0.10613,-0.12011 0.19403,-0.22215 0.26113,-0.30723 0.0671,-0.0851 0.11142,-0.14014 0.14727,-0.22325 0.217641,-0.50441 0.22487,-1.11365 0.0101,-1.59902 -0.0387,-0.0874 -0.0917,-0.15252 -0.1651,-0.24263 -0.0734,-0.0901 -0.16561,-0.19435 -0.273589,-0.30902 -0.21596,-0.22934 -0.49131,-0.49858 -0.77801,-0.75707 -5.29514,-4.7742 -10.86527,-7.45112 -17.70138,-8.5058 -1.44207,-0.22249 -2.1736,-0.26343 -4.74429,-0.26601 z m -8.7e-4,0.43112 c 2.56632,0.002 3.2506,0.0407 4.67922,0.26112 6.76262,1.04335 12.23494,3.67239 17.478131,8.39974 0.27796,0.25061 0.54681,0.51378 0.75285,0.73257 0.103009,0.10939 0.190749,0.20816 0.25443,0.2863 0.0637,0.0781 0.10514,0.14677 0.10427,0.14482 0.156019,0.3525 0.154309,0.86887 -0.0118,1.2539 0.005,-0.0125 -0.0311,0.0516 -0.09,0.12634 -0.0589,0.0747 -0.1422,0.17229 -0.24507,0.28875 -0.20577,0.2329 -0.49063,0.53916 -0.82681,0.89097 -0.67236,0.70362 -1.55232,1.59202 -2.43787,2.46549 -0.88555,0.87347 -1.77693,1.73256 -2.47151,2.37726 -0.34728,0.32235 -0.64571,0.59103 -0.86735,0.77979 -0.11082,0.0944 -0.20253,0.16898 -0.2687,0.21812 -0.0331,0.0246 -0.0603,0.043 -0.0766,0.053 -0.006,0.004 -0.0105,0.005 -0.0131,0.006 -0.18139,0.0401 -0.37281,0.0837 -0.4407,0.10048 0.0505,-0.0124 -0.0353,-4.3e-4 -0.11518,-0.009 -0.0799,-0.009 -0.18165,-0.0248 -0.27716,-0.0454 -0.18975,-0.0411 -0.25529,-0.0571 -0.4387,-0.18849 -0.18342,-0.13141 -0.46801,-0.38321 -0.99458,-0.85889 -6.11282,-5.52225 -14.97949,-6.82748 -22.511151,-3.31615 -1.72134,0.80252 -3.300192,1.86909 -4.957274,3.34556 -0.55663,0.49595 -0.868596,0.75598 -1.098856,0.88072 -0.230243,0.12475 -0.387675,0.13813 -0.739466,0.13813 -0.240978,0 -0.365298,-0.0136 -0.476562,-0.0588 -0.111277,-0.0452 -0.233951,-0.13513 -0.443814,-0.31926 -0.379009,-0.33255 -1.972174,-1.90476 -3.488592,-3.42888 -0.758195,-0.76205 -1.502001,-1.51579 -2.076481,-2.10612 -0.287252,-0.29516 -0.531978,-0.54993 -0.714965,-0.74347 -0.182975,-0.19355 -0.31205,-0.33785 -0.334414,-0.36718 -0.396331,-0.5196 -0.397822,-1.09812 0.0094,-1.67745 0.149633,-0.2129 0.618738,-0.69532 1.203351,-1.2294 0.584601,-0.53409 1.293254,-1.13527 1.956168,-1.6505 4.44628,-3.45576 9.538104,-5.62658 15.220506,-6.48724 1.51782,-0.22989 2.15567,-0.26479 4.75854,-0.262 z m -0.171999,17.01137 c -1.071551,-6.1e-4 -2.137771,0.0666 -2.821081,0.20253 -2.47001,0.49132 -5.408749,1.88113 -7.387348,3.49369 l -0.285184,0.2324 0.684439,0.65835 c 0.376439,0.36207 2.727633,2.56964 5.224863,4.90582 2.49722,2.33618 4.58526,4.24766 4.64,4.24766 0.0547,0 0.62954,-0.47777 1.27732,-1.06164 0.64777,-0.58386 2.18109,-1.95701 3.40748,-3.05145 5.416391,-4.83361 6.15455,-5.50157 6.15326,-5.56885 -8.6e-4,-0.0392 -0.44118,-0.39779 -0.97852,-0.79696 -1.84627,-1.37145 -4.655519,-2.58655 -7.06229,-3.05458 -0.7046,-0.13703 -1.78139,-0.20613 -2.852939,-0.20697 z"
       id="path6949"
       inkscape:connector-curvature="0" />
    <g
       aria-label="EVERYONE"
       style="font-style:normal;font-variant:normal;font-weight:normal;font-stretch:normal;font-size:26.77443886px;line-height:16.73402405px;font-family:Helvetica-Normal;-inkscape-font-specification:Helvetica-Normal;letter-spacing:0px;word-spacing:0px;fill:#000000;fill-opacity:1;stroke:none;stroke-width:0.26458332px;stroke-linecap:butt;stroke-linejoin:miter;stroke-opacity:1"
       id="text901">
      <path
         d="M 32.54063,266.37848 V 246.77959 H 46.034947 V 248.868 H 35.084201 v 6.34554 H 45.63333 v 2.3026 H 35.084201 v 6.53296 h 11.379137 v 2.32938 H 32.54063 Z"
         style="fill:#ffffff;stroke-width:0.26458332px"
         id="path971" />
      <path
         d="m 55.537781,266.37848 -6.934579,-19.59889 h 2.730992 l 5.702956,16.43951 5.461985,-16.43951 h 2.757768 l -6.961354,19.59889 h -2.757768 z"
         style="fill:#ffffff;stroke-width:0.26458332px"
         id="path973" />
      <path
         d="M 68.414195,266.37848 V 246.77959 H 81.908512 V 248.868 H 70.957767 v 6.34554 h 10.549129 v 2.3026 H 70.957767 v 6.53296 h 11.379136 v 2.32938 H 68.414195 Z"
         style="fill:#ffffff;stroke-width:0.26458332px"
         id="path975" />
      <path
         d="m 86.350978,266.37848 v -19.59889 h 9.933317 q 2.061632,0 3.507451,1.33872 1.445824,1.33872 1.740334,3.72165 0,0.48194 -0.0535,1.0442 -0.0536,0.53549 -0.2142,1.09775 -0.24097,0.74969 -0.80323,1.4726 -0.562266,0.69613 -1.660018,1.23162 1.472598,0.72291 1.874208,1.90099 0.42839,1.1513 0.45517,2.38292 0,0.0803 0,0.18742 0,0.0803 0,0.16065 0,0.16065 0,0.34807 0,0.16064 0,0.34807 -0.0268,1.1513 0.0803,2.16873 0.13387,0.99065 0.96388,1.55291 v 0.64259 h -3.159382 q -0.187421,-0.53549 -0.294519,-1.09775 -0.08032,-0.56227 -0.107098,-1.1513 -0.02677,-0.26775 -0.05355,-0.56227 0,-0.29452 0,-0.56226 0,-0.0803 0,-0.13387 0,-0.0803 0,-0.16065 -0.05355,-1.71356 -0.455165,-3.07906 -0.401617,-1.3655 -2.677444,-1.68679 H 88.89455 v 8.43395 h -2.543572 z m 2.543572,-10.76333 h 6.747158 q 0.08032,0.0268 0.160647,0.0268 0.08032,0 0.160647,0 1.231624,0 2.061631,-1.01743 0.856782,-1.01743 0.883557,-2.24905 0,-0.0268 0,-0.0268 0,-0.0268 0,-0.0536 0,-0.0268 0,-0.0268 0,-0.0268 0,-0.0536 -0.02678,-1.09775 -0.937105,-2.03486 -0.883557,-0.96388 -2.971963,-1.09775 H 88.89455 v 6.53296 z"
         style="fill:#ffffff;stroke-width:0.26458332px"
         id="path977" />
      <path
         d="m 110.6082,266.37848 v -7.57717 l -7.57717,-12.02172 h 3.15939 l 5.70295,9.47815 5.46199,-9.47815 h 3.15938 l -7.36297,12.02172 v 7.57717 h -2.54357 z"
         style="fill:#ffffff;stroke-width:0.26458332px"
         id="path979" />
      <path
         d="m 121.79783,255.82935 q 0,-0.45517 0.0535,-0.91033 0.0536,-0.48194 0.16065,-0.96388 0.61581,-2.75777 2.97196,-5.06037 2.38293,-2.32938 6.31877,-2.32938 0.48194,0 0.96388,0.0536 0.48194,0.0268 0.96388,0.13388 2.75777,0.50871 5.08714,2.81131 2.32938,2.27583 2.46325,7.122 0,4.12327 -2.54357,7.2291 -2.5168,3.07906 -7.57717,3.07906 -4.41778,0 -6.64006,-3.13261 -2.22227,-3.13261 -2.22227,-8.03233 z m 2.54357,1.28517 q 0.0536,0.64259 0.18742,1.41905 0.13387,0.77646 0.42839,1.57969 0.56226,1.60647 1.87421,2.99874 1.31195,1.36549 3.82874,1.57969 0.18743,0.0268 0.34807,0.0536 0.18742,0 0.37484,0 2.65067,0 4.73908,-2.24905 2.08841,-2.27583 1.92776,-6.88104 -0.16065,-2.67744 -1.95453,-4.7123 -1.79389,-2.03485 -4.79263,-2.03485 -0.34807,0 -0.69613,0.0535 -0.34807,0.0268 -0.69614,0.1071 -2.08841,0.42839 -3.82874,2.35615 -1.74034,1.92776 -1.74034,5.72973 z"
         style="fill:#ffffff;stroke-width:0.26458332px"
         id="path981" />
      <path
         d="m 143.73404,266.37848 v -19.59889 h 3.15938 l 9.69235,15.79692 v -15.79692 h 2.54357 v 19.59889 h -2.97196 l -9.90655,-15.6095 v 15.6095 h -2.51679 z"
         style="fill:#ffffff;stroke-width:0.26458332px"
         id="path983" />
      <path
         d="m 163.53666,266.37848 v -19.59889 h 13.49432 v 2.08841 h -10.95075 v 6.34554 h 10.54913 v 2.3026 h -10.54913 v 6.53296 h 11.37914 v 2.32938 h -13.92271 z"
         style="fill:#ffffff;stroke-width:0.26458332px"
         id="path985" />
    </g>
  </g>
</svg>
