<?xml version="1.0" encoding="UTF-8" standalone="no"?>
<!-- Created with Inkscape (http://www.inkscape.org/) -->

<svg
   xmlns:dc="http://purl.org/dc/elements/1.1/"
   xmlns:cc="http://creativecommons.org/ns#"
   xmlns:rdf="http://www.w3.org/1999/02/22-rdf-syntax-ns#"
   xmlns:svg="http://www.w3.org/2000/svg"
   xmlns="http://www.w3.org/2000/svg"
   xmlns:sodipodi="http://sodipodi.sourceforge.net/DTD/sodipodi-0.dtd"
   xmlns:inkscape="http://www.inkscape.org/namespaces/inkscape"
   sodipodi:docname="prism_cat.svg"
   inkscape:version="0.91 r13725"
   version="1.1"
   id="svg2"
   viewBox="0 0 531.49606 354.3307"
   height="100mm"
   width="150mm"
   inkscape:export-filename="D:\work_no_work\t-shirts\prism_cat\prism_cat.png"
   inkscape:export-xdpi="599.948"
   inkscape:export-ydpi="599.948">
  <sodipodi:namedview
     inkscape:window-maximized="1"
     inkscape:window-y="-8"
     inkscape:window-x="-8"
     inkscape:window-height="666"
     inkscape:window-width="1280"
     inkscape:snap-midpoints="true"
     inkscape:snap-center="true"
     inkscape:snap-object-midpoints="true"
     inkscape:snap-smooth-nodes="true"
     inkscape:object-nodes="true"
     inkscape:snap-intersection-paths="true"
     inkscape:object-paths="true"
     showgrid="false"
     inkscape:current-layer="layer1"
     inkscape:document-units="mm"
     inkscape:cy="198.09447"
     inkscape:cx="312.84126"
     inkscape:zoom="0.7"
     inkscape:pageshadow="2"
     inkscape:pageopacity="0"
     borderopacity="1.0"
     bordercolor="#666666"
     pagecolor="#ffffff"
     id="base"
     inkscape:snap-nodes="true"
     inkscape:snap-others="false" />
  <defs
     id="defs4" />
  <metadata
     id="metadata7">
    <rdf:RDF>
      <cc:Work
         rdf:about="">
        <dc:format>image/svg+xml</dc:format>
        <dc:type
           rdf:resource="http://purl.org/dc/dcmitype/StillImage" />
        <dc:title></dc:title>
      </cc:Work>
    </rdf:RDF>
  </metadata>
  <g
     transform="translate(0,-698.03145)"
     id="layer1"
     inkscape:groupmode="layer"
     inkscape:label="Layer 1">
    <rect
       y="698.03143"
       x="0"
       height="354.33072"
       width="531.49603"
       id="rect5181"
       style="opacity:1;fill:#000000;fill-opacity:1;stroke:none;stroke-width:3.54330707;stroke-linecap:round;stroke-linejoin:round;stroke-miterlimit:4;stroke-dasharray:none;stroke-opacity:1" />
    <path
       style="color:#000000;font-style:normal;font-variant:normal;font-weight:normal;font-stretch:normal;font-size:medium;line-height:normal;font-family:sans-serif;text-indent:0;text-align:start;text-decoration:none;text-decoration-line:none;text-decoration-style:solid;text-decoration-color:#000000;letter-spacing:normal;word-spacing:normal;text-transform:none;direction:ltr;block-progression:tb;writing-mode:lr-tb;baseline-shift:baseline;text-anchor:start;white-space:normal;clip-rule:nonzero;display:inline;overflow:visible;visibility:visible;opacity:1;isolation:auto;mix-blend-mode:normal;color-interpolation:sRGB;color-interpolation-filters:linearRGB;solid-color:#000000;solid-opacity:1;fill:#b3b3b3;fill-opacity:1;fill-rule:evenodd;stroke:none;stroke-width:3.54330707;stroke-linecap:round;stroke-linejoin:round;stroke-miterlimit:4;stroke-dasharray:none;stroke-dashoffset:0;stroke-opacity:1;color-rendering:auto;image-rendering:auto;shape-rendering:auto;text-rendering:auto;enable-background:accumulate"
       d="M 157.33398 176.31055 A 1.7718307 1.7718307 0 0 0 156.97656 176.4707 L 0 267.10156 L 0 271.19531 L 157.55664 180.22656 C 156.70532 180.41396 156.28171 180.14976 155.89844 179.43359 C 155.24475 178.21214 155.56832 177.38462 157.33398 176.31055 z "
       transform="translate(0,698.03143)"
       id="path4937" />
    <path
       inkscape:connector-curvature="0"
       id="path3785"
       d="m 196.49923,737.44037 c -0.58779,0.0196 -1.10219,0.62752 -1.80964,1.55505 -2.48739,3.26109 -8.72442,14.16123 -12.50428,21.85325 -10.42045,21.20556 -17.04966,43.59271 -19.69761,66.52304 -0.92115,7.97674 -1.61955,23.07996 -1.27686,27.61046 l 0.26343,3.47674 -1.89614,0 c -2.56208,0 -8.44069,1.23826 -10.80473,2.27556 -1.6667,0.73137 -1.92464,1.03229 -1.92464,2.24313 0,1.93268 0.92271,2.14051 4.47445,1.00753 2.61493,-0.83418 7.84417,-1.88901 9.41777,-1.89908 0.32562,-0.002 0.63723,1.17609 0.80799,3.05407 0.15295,1.68155 0.37972,3.88127 0.50328,4.88828 l 0.22412,1.83126 -3.18088,1.53832 c -3.31403,1.60324 -4.02871,2.51266 -3.19659,4.06754 0.64575,1.20661 1.37401,1.16438 4.14515,-0.23987 1.26213,-0.63956 2.36819,-1.08888 2.45742,-0.99965 0.0892,0.0892 0.5079,2.38311 0.93086,5.0986 l 0.76966,4.93745 -1.07241,0.70575 c -4.45235,2.93164 -6.36584,4.64786 -6.23101,5.58718 0.0828,0.57686 0.62049,1.15759 1.28966,1.39186 0.96855,0.33911 1.60738,0.0798 4.08814,-1.65432 l 2.94004,-2.05437 1.27491,3.69983 c 7.52264,21.84347 26.65616,39.41167 52.85788,48.53192 11.19329,3.89609 25.39455,6.55805 40.73696,7.63662 5.07012,0.35645 20.9535,0.2578 27.25463,-0.16904 18.94297,-1.28323 31.7947,-4.16763 43.13933,-9.68125 14.79374,-7.18987 26.08571,-17.90797 34.07443,-32.34242 l 2.33552,-4.21887 1.84797,2.6343 c 2.44584,3.48696 2.70041,3.76573 3.43841,3.76573 0.79649,0 2.05341,-1.2356 2.05341,-2.019 0,-0.783 -3.24363,-5.62081 -4.65925,-6.94955 l -1.10977,-1.04196 1.73592,-5.07208 c 0.95501,-2.79007 1.74408,-5.43036 1.75262,-5.86635 0.009,-0.43593 0.17907,-0.79226 0.37943,-0.79226 0.5533,0 4.60108,2.62203 6.77261,4.38697 2.13053,1.73162 3.05994,1.78704 4.08226,0.2448 0.64791,-0.97742 0.58774,-1.1206 -1.18546,-2.80738 -1.02759,-0.97752 -3.34921,-2.64201 -5.15859,-3.69889 -1.80933,-1.05693 -3.35327,-1.96344 -3.43153,-2.01508 -0.12647,-0.0834 1.45811,-10.59901 1.99149,-13.21495 0.23553,-1.15527 0.61854,-1.12552 5.32765,0.42068 2.94891,0.96821 3.92006,0.65844 3.92006,-1.25227 0,-1.42654 -1.45771,-2.30949 -5.37582,-3.25459 l -3.22412,-0.77752 -0.008,-10.8706 c -0.0111,-15.06686 -1.14484,-25.24365 -4.36436,-39.17994 -4.85995,-21.03741 -13.43088,-40.43084 -26.02494,-58.88641 -5.10887,-7.48665 -5.89059,-8.35209 -7.23167,-8.00624 -0.9063,0.23374 -2.34235,2.6676 -8.00426,13.56687 -3.88586,7.4803 -7.48533,13.84235 -8.24019,14.56556 -2.62757,2.51735 -4.00029,2.59699 -23.47809,1.36337 -9.65121,-0.61125 -21.92996,-1.4137 -27.28609,-1.78311 -12.22304,-0.84298 -28.56472,-1.87749 -39.21729,-2.48296 -4.54812,-0.25851 -9.21151,-0.76855 -10.48625,-1.14711 -3.01851,-0.89641 -6.49084,-4.60432 -9.15926,-9.7805 -1.07808,-2.09129 -4.8094,-8.84702 -8.29228,-15.0128 -4.81727,-8.52806 -6.46245,-11.33435 -7.75558,-11.2913 z m -2.48395,24.22907 c 0.45773,0.004 1.03252,0.17282 1.44987,0.44626 1.81834,1.19139 5.64199,10.25635 5.07701,12.03639 -0.15114,0.47633 -0.72751,0.98727 -1.27982,1.13533 -1.68603,0.452 -6.76919,0.2537 -9.01869,-0.35191 -2.52127,-0.67876 -3.53572,-1.42636 -3.53572,-2.60779 0,-1.23694 5.88468,-10.28443 6.89843,-10.60619 0.11641,-0.0369 0.25634,-0.0537 0.40892,-0.0521 z m 145.69978,9.01869 c 0.92815,-0.0202 2.12675,0.54816 3.05898,1.55407 1.54919,1.67163 6.09044,10.95529 6.09044,12.45119 0,0.78399 -0.33152,1.43968 -0.87581,1.731 -1.21245,0.64888 -6.19595,0.53344 -8.53705,-0.19757 -3.12887,-0.97699 -3.41961,-1.39797 -3.1268,-4.53147 0.38676,-4.13999 1.6591,-9.89909 2.3424,-10.60125 0.25925,-0.2664 0.62595,-0.39678 1.04784,-0.40597 z m -125.89699,51.46404 c 0.81043,0.0277 1.62601,0.69107 2.4692,1.99149 1.99867,3.08237 2.29862,4.88599 1.79293,10.77328 -0.33005,3.84222 -0.71409,5.74049 -1.45577,7.1943 -1.34904,2.64433 -2.89846,4.11863 -4.32897,4.11863 -0.98386,0 -1.36076,-0.39987 -2.28834,-2.42596 -2.93622,-6.41362 -2.40297,-14.12369 1.37222,-19.82834 0.82277,-1.24332 1.6283,-1.85118 2.43873,-1.8234 z m 113.06047,0.15334 c 0.79181,0.005 1.24134,0.36358 1.9905,1.47444 2.03702,3.02059 2.43776,5.01394 2.09961,10.44596 -0.32793,5.2673 -1.07497,7.71628 -3.20347,10.5069 -0.84551,1.10852 -1.49492,1.49706 -2.50264,1.49706 -1.21355,0 -1.48738,-0.27679 -2.53113,-2.55669 -1.81834,-3.97172 -2.28893,-8.39041 -1.35354,-12.70088 0.99906,-4.60378 3.29513,-8.46819 5.13894,-8.64811 0.12897,-0.0126 0.24861,-0.0193 0.36173,-0.0186 z m -56.36511,26.31492 c 0.8859,0.008 1.88699,0.12282 3.05015,0.33814 3.95344,0.73192 6.13037,1.85245 7.31226,3.76475 2.16651,3.50547 0.47939,9.36264 -3.30767,11.482 -0.62361,0.34897 -0.91394,1.3777 -1.24837,4.42137 -0.7903,7.19195 0.88695,15.48063 3.94366,19.48823 1.32744,1.74028 4.16507,3.38313 5.8673,3.39712 5.4486,0.0448 9.97683,-5.38678 11.16844,-13.39679 0.54877,-3.68907 1.30727,-5.16156 2.66088,-5.16156 1.72961,0 1.94848,1.08536 1.16186,5.77198 -1.74733,10.40994 -7.17148,16.43407 -14.76509,16.39975 -1.6193,-0.008 -3.58489,-0.29215 -4.3683,-0.63303 -3.57588,-1.55587 -7.09391,-6.31552 -8.34732,-11.29328 l -0.52588,-2.0878 -1.36141,2.05538 c -2.80663,4.23729 -6.90707,6.28765 -12.57408,6.28705 -3.34865,-4e-4 -4.19463,-0.17288 -6.49738,-1.32408 -5.40605,-2.70274 -8.44956,-7.77865 -8.44956,-14.09076 0,-3.89976 0.48844,-5.16156 1.99837,-5.16156 1.69066,0 2.10971,0.92032 1.79391,3.94167 -0.83826,8.01992 6.64573,14.77668 13.99936,12.63896 6.08081,-1.76777 9.93174,-7.93025 10.35258,-16.56686 l 0.16513,-3.38238 -1.87746,-0.32242 c -4.12441,-0.70785 -7.86076,-3.53898 -7.86076,-5.95577 0,-0.34781 -0.32761,-1.2894 -0.72837,-2.09273 -0.63353,-1.26992 -0.64915,-1.67165 -0.11402,-3.07765 0.3385,-0.8894 1.02326,-1.84303 1.52064,-2.11928 0.49744,-0.27625 1.56282,-1.0533 2.36796,-1.72608 1.32419,-1.10656 2.71421,-1.61079 4.66317,-1.59437 z"
       style="fill:#ff6600" />
    <path
       style="fill:#ff0000;fill-opacity:1;fill-rule:evenodd;stroke:none;stroke-width:1px;stroke-linecap:butt;stroke-linejoin:miter;stroke-opacity:1"
       d="M 376.38672 172.41602 C 375.67289 172.35971 375.51816 172.64112 375.40039 173.21875 C 375.39545 173.24299 375.38598 173.31035 375.38086 173.33594 L 531.49609 217.74805 L 531.49609 205.53906 L 384.61914 172.75977 C 384.48311 174.31688 383.46082 174.53641 380.72656 173.63867 C 378.37201 172.86557 377.10055 172.47232 376.38672 172.41602 z "
       transform="translate(0,698.03143)"
       id="path5120" />
    <path
       style="fill:#ff7f00;fill-opacity:1;fill-rule:evenodd;stroke:none;stroke-width:1px;stroke-linecap:butt;stroke-linejoin:miter;stroke-opacity:1"
       d="M 375.38086 173.33594 C 375.27006 173.88948 375.10654 174.83992 374.93555 175.86719 L 531.49609 230.03125 L 531.49609 217.74805 L 375.38086 173.33594 z "
       transform="translate(0,698.03143)"
       id="path5122" />
    <path
       style="fill:#ffff00;fill-opacity:1;fill-rule:evenodd;stroke:none;stroke-width:1px;stroke-linecap:butt;stroke-linejoin:miter;stroke-opacity:1"
       d="M 374.93555 175.86719 C 374.80272 176.66513 374.67262 177.48284 374.52734 178.4082 L 531.49609 242.39062 L 531.49609 230.03125 L 374.93555 175.86719 z "
       transform="translate(0,698.03143)"
       id="path5124" />
    <path
       style="fill:#00ff00;fill-opacity:1;fill-rule:evenodd;stroke:none;stroke-width:1px;stroke-linecap:butt;stroke-linejoin:miter;stroke-opacity:1"
       d="M 374.52734 178.4082 C 374.39134 179.27453 374.26007 180.09264 374.13086 180.95312 L 531.49609 254.82617 L 531.49609 242.39062 L 374.52734 178.4082 z "
       transform="translate(0,698.03143)"
       id="path5126" />
    <path
       style="fill:#0000ff;fill-opacity:1;fill-rule:evenodd;stroke:none;stroke-width:1px;stroke-linecap:butt;stroke-linejoin:miter;stroke-opacity:1"
       d="M 374.13086 180.95312 C 373.98635 181.9155 373.87504 182.70917 373.76172 183.51367 L 531.49609 267.33594 L 531.49609 254.82617 L 374.13086 180.95312 z "
       transform="translate(0,698.03143)"
       id="path5128" />
    <path
       style="fill:#4b0082;fill-opacity:1;fill-rule:evenodd;stroke:none;stroke-width:1px;stroke-linecap:butt;stroke-linejoin:miter;stroke-opacity:1"
       d="M 373.76172 183.51367 C 373.59534 184.69483 373.46317 185.68167 373.42773 186.09961 L 531.49609 279.92578 L 531.49609 267.33594 L 373.76172 183.51367 z "
       transform="translate(0,698.03143)"
       id="path5130" />
    <path
       style="fill:#8b00ff;fill-opacity:1;fill-rule:evenodd;stroke:none;stroke-width:1px;stroke-linecap:butt;stroke-linejoin:miter;stroke-opacity:1"
       d="M 373.42773 186.09961 C 373.41498 186.25009 373.3973 186.4264 373.4082 186.43359 C 373.48646 186.48523 375.03051 187.39034 376.83984 188.44727 C 378.64922 189.50415 380.97046 191.16896 381.99805 192.14648 C 383.77125 193.83326 383.8315 193.97766 383.18359 194.95508 C 383.12307 195.04639 383.06405 195.11327 383.00391 195.19336 L 531.49609 292.58984 L 531.49609 279.92578 L 373.42773 186.09961 z "
       transform="translate(0,698.03143)"
       id="path5132" />
  </g>
</svg>
