<?xml version="1.0" encoding="UTF-8" standalone="no"?>
<!-- Created with Inkscape (http://www.inkscape.org/) -->

<svg
   xmlns:dc="http://purl.org/dc/elements/1.1/"
   xmlns:cc="http://creativecommons.org/ns#"
   xmlns:rdf="http://www.w3.org/1999/02/22-rdf-syntax-ns#"
   xmlns:svg="http://www.w3.org/2000/svg"
   xmlns="http://www.w3.org/2000/svg"
   xmlns:sodipodi="http://sodipodi.sourceforge.net/DTD/sodipodi-0.dtd"
   xmlns:inkscape="http://www.inkscape.org/namespaces/inkscape"
   width="1950mm"
   height="955mm"
   viewBox="0 0 1950 955"
   version="1.1"
   id="svg8"
   inkscape:version="0.92.2 5c3e80d, 2017-08-06"
   sodipodi:docname="creazione.svg">
  <defs
     id="defs2" />
  <sodipodi:namedview
     id="base"
     pagecolor="#ffffff"
     bordercolor="#666666"
     borderopacity="1.0"
     inkscape:pageopacity="0.0"
     inkscape:pageshadow="2"
     inkscape:zoom="0.125"
     inkscape:cx="3813.3227"
     inkscape:cy="2074.5565"
     inkscape:document-units="px"
     inkscape:current-layer="layer1"
     showgrid="false"
     showborder="true"
     inkscape:window-width="1920"
     inkscape:window-height="999"
     inkscape:window-x="0"
     inkscape:window-y="0"
     inkscape:window-maximized="1"
     inkscape:snap-nodes="false"
     inkscape:snap-global="true"
     showguides="true"
     inkscape:guide-bbox="true"
     inkscape:snap-center="true" />
  <metadata
     id="metadata5">
    <rdf:RDF>
      <cc:Work
         rdf:about="">
        <dc:format>image/svg+xml</dc:format>
        <dc:type
           rdf:resource="http://purl.org/dc/dcmitype/StillImage" />
        <dc:title />
      </cc:Work>
    </rdf:RDF>
  </metadata>
  <g
     inkscape:label="Layer 1"
     inkscape:groupmode="layer"
     id="layer1"
     transform="translate(0,658.00001)">
    <path
       style="opacity:1;vector-effect:none;fill:#000000;fill-opacity:1;fill-rule:nonzero;stroke:#6f4f9b;stroke-width:0.37795275;stroke-linecap:butt;stroke-linejoin:miter;stroke-miterlimit:4;stroke-dasharray:none;stroke-dashoffset:0;stroke-opacity:1"
       d="M 7370.2676 334.83398 C 7367.024 341.08754 7363.7234 347.30737 7360.3359 353.47852 C 7304.809 434.79516 7199.4721 448.46942 7117.2832 487.65234 C 6886.0937 580.0345 6663.548 706.70824 6495.9785 896.26367 C 6452.8738 946.91629 6388.6713 972.10435 6323.832 973.42578 C 6184.5357 985.03796 6035.5024 963.04049 5909.9355 1039.0664 C 5793.2279 1098.238 5662.495 1122.3101 5550.1738 1190.8613 C 5486.6838 1227.705 5415.1152 1250.6849 5342.1719 1250.9922 C 5256.2976 1257.5054 5173.6664 1285.2614 5096.4121 1323.5 C 5026.1858 1351.8961 4945.7987 1347.2459 4881.123 1391.1074 C 4801.4616 1439.9244 4703.568 1410.7425 4621.8535 1453.3867 C 4563.4889 1473.6956 4504.8226 1492.0798 4456.3887 1533.0352 C 4380.4032 1588.5502 4282.5939 1590.6533 4193.9629 1607.4785 C 4084.3381 1626.3791 3968.2305 1618.8263 3870.8672 1681.2266 C 3819.0472 1713.4344 3751.8303 1728.9182 3714.25 1780.3398 C 3707.1469 1823.5993 3761.564 1848.671 3798.0156 1845.5801 C 3866.7819 1838.6871 3932.4552 1811.8496 4002 1801.291 C 4045.6947 1787.664 4090.5858 1791.0452 4134.7383 1799.5371 C 4177.5108 1805.184 4268.8435 1808.6751 4297.3457 1852.4844 C 4314.3944 1879.7525 4247.0947 1889.6664 4229.7168 1907.5996 C 4170.009 1981.052 4141.5936 1952.0835 4120.3633 1996.3691 C 4112.0835 2042.8771 4151.4173 2081.1882 4189.0293 2098.6797 C 4206.5021 2140.2257 4176.9968 2187.7242 4194.5645 2230.582 C 4212.1997 2280.2741 4222.8684 2332.1225 4230.0117 2384.1621 C 4242.1334 2405.3886 4280.4357 2406.1104 4297.9512 2392.2852 C 4330.2518 2366.7801 4388.7234 2404.144 4406.2559 2354.5254 C 4417.1503 2306.7824 4415.9994 2255.1529 4440.7168 2211.0547 C 4455.3742 2187.9925 4449.0867 2159.1883 4460.5977 2135.8477 C 4475.8428 2116.4853 4494.1315 2141.1542 4493.4043 2158.3027 C 4501.2502 2215.1597 4500.7853 2278.0271 4542.498 2323.418 C 4571.7981 2344.5733 4621.2708 2328.2287 4621.8105 2287.7402 C 4635.5975 2221.5244 4630.3368 2145.6508 4672.4785 2089.1543 C 4707.6999 2064.0037 4759.8097 2087.5844 4791.3574 2051.7578 C 4835.299 2009.1677 4900.7047 1993.7701 4933.8848 1939.2969 C 4966.9231 1898.6883 5026.3002 1890.497 5050.8652 1841.2676 C 5079.4438 1808.0787 5129.4883 1819.2026 5167.8086 1819.1426 C 5251.3615 1828.0811 5334.4157 1844.0406 5418.9648 1838.7598 C 5654.8247 1832.5613 5891.6586 1826.077 6127.3262 1815.7031 C 6217.4464 1811.7367 6301.3651 1788.2284 6382.4492 1747.6816 C 6474.4698 1707.829 6584.2904 1706.7595 6662.459 1637.9629 C 6714.1527 1588.3478 6778.7908 1556.0865 6836.1738 1515.7812 C 6883.2618 1477.2423 6921.7633 1424.0373 6982.8125 1406.8984 C 7115.4092 1368.3297 7246.3149 1320.0637 7370.2676 1258.0371 L 7370.2676 1231.084 C 7242.3775 1296.1041 7105.2925 1343.2481 6969.9258 1388.5391 C 6921.3978 1404.8361 6878.0299 1434.3021 6846.3691 1475.2207 C 6786.4005 1529.7035 6708.7188 1557.2505 6651.377 1614.8711 C 6594.0241 1669.8305 6514.7097 1684.6063 6441.0527 1701.8223 C 6357.6987 1725.8615 6281.6918 1775.3107 6193.8008 1787.5293 C 6017.1196 1819.2859 5837.0711 1794.2421 5659.3672 1806.3418 C 5525.9468 1810.1805 5390.9342 1832.0314 5258.7188 1803.7285 C 5193.393 1794.6505 5127.31 1793.2374 5061.2246 1794.1406 C 5031.3115 1828.6606 5001.9846 1871.0597 4956.2617 1883.625 C 4913.3543 1917.2995 4884.0012 1970.1918 4829.8027 1988.3125 C 4798.4754 2005.1175 4779.6148 2040.6108 4742.7637 2048.7051 C 4697.9672 2065.4352 4646.8954 2060.9608 4606.8789 2034.6074 C 4578.8405 2022.0543 4531.2457 2043.4763 4516.4141 2007.2246 C 4520.2442 1987.9911 4508.9157 1973.1997 4495.4023 1960.5508 C 4481.0186 1936.0543 4518.9019 1928.0597 4536.0273 1929.8164 C 4579.5777 1931.1662 4618.5487 1960.8954 4646.0293 1990.2969 C 4657.0481 1975.072 4677.9126 1990.8108 4689.6133 1991.5781 C 4660.3616 1959.9036 4623.1839 1937.1064 4591.748 1908.8379 C 4564.8873 1898.6953 4529.942 1914.0718 4501.3242 1921.7832 C 4475.99 1926.8981 4448.9365 1955.7975 4423.416 1942.8105 C 4416.2444 1916.9039 4454.6035 1911.3617 4469.5039 1898.7461 C 4516.254 1868.5546 4575.0373 1857.5622 4615.1562 1817.5273 C 4626.2295 1813.2251 4630.1096 1773.2017 4621.4961 1785.9258 C 4597.7489 1840.4988 4530.211 1845.4138 4486.0117 1875.1953 C 4449.4074 1890.7184 4420.8396 1920.8061 4386.4297 1938.875 C 4239.8369 1902.9779 4316.9311 1913.5957 4464.8535 1747.7852 C 4478.7316 1727.3272 4500.6412 1701.7716 4497.5586 1679.0488 C 4471.6915 1703.3951 4446.1499 1752.1097 4403.8223 1731.5957 C 4416.9969 1742.2928 4436.6891 1768.7405 4411.8398 1778.8594 C 4386.5903 1787.3556 4364.7779 1762.1662 4342.1348 1764.2363 C 4353.2764 1782.3237 4385.4369 1786.811 4371.3574 1814.4258 C 4357.3093 1831.7223 4335.6668 1849.0032 4325.3574 1821.4941 C 4302.2494 1816.2947 4275.8225 1814.9706 4258.2832 1795.1602 C 4236.3113 1779.1432 4225.0357 1745.0922 4215.1738 1727.1523 C 4221.4414 1750.6542 4211.071 1781.2545 4182.3848 1777.4531 C 4139.8118 1778.6636 4089.132 1777.0977 4056.4512 1746.2266 C 4048.2307 1735.8314 4056.822 1720.651 4069.0938 1719.3516 C 4065.7088 1711.3229 4105.8757 1704.5846 4062.1484 1702.8809 C 3983.5694 1695.0935 3915.3525 1743.3621 3845 1770.6895 C 3816.0757 1776.4661 3835.5063 1787.8016 3854.8828 1776.3203 C 3901.1907 1762.8506 3941.462 1728.1383 3991.7539 1724.2578 C 4011.5061 1716.0073 4041.2265 1724.0938 4037.0898 1750.7227 C 4037.0483 1786.3458 3991.9765 1779.0143 3968.709 1783.9336 C 3901.0861 1790.3647 3833.9797 1836.4049 3764.7734 1815.6211 C 3748.0938 1811.1384 3724.1653 1789.1509 3745.1211 1774.1055 C 3787.0368 1753.9517 3825.7995 1726.2887 3868.9727 1708.9629 C 3923.3691 1692.0298 3970.1809 1650.0985 4029.9258 1650.4199 C 4130.9117 1642.6072 4232.247 1637.193 4329.7988 1606.207 C 4444.9346 1588.2296 4533.6008 1503.2304 4643.793 1470.7383 C 4713.7074 1443.1043 4789.848 1446.1246 4861.5215 1427.6621 C 4919.0988 1402.9564 4972.6879 1360.7409 5038.3379 1362.4531 C 5124.8535 1354.1987 5195.0347 1290.6376 5282.3633 1284.3555 C 5372.5458 1270.5549 5465.6925 1269.9123 5546.3594 1220.4082 C 5642.1851 1168.5567 5743.1081 1127.562 5846.7012 1095.25 C 5906.7492 1075.6814 5959.5291 1036.9234 6017.5879 1014.8164 C 6147.2763 1004.1043 6279.0694 1009.8937 6406.6738 983.23828 C 6494.4991 958.39469 6542.921 871.67408 6610.8281 816.4375 C 6745.4904 696.77331 6903.5073 606.26394 7066.8535 534.02734 C 7150.5961 494.26486 7243.1653 474.28022 7322.8105 425.96875 C 7341.2664 412.21777 7356.7726 396.31062 7370.2676 378.92383 L 7370.2676 334.83398 z M 6629.3379 1062.959 C 6628.1406 1062.969 6631.1099 1064.9239 6634.1602 1066.8633 L 6634.166 1066.8652 C 6676.1018 1097.7761 6727.4572 1112.4205 6769.7539 1141.9316 C 6809.5448 1182.2743 6784.7519 1246.1902 6760.4941 1288.084 C 6747.3244 1314.5158 6722.7178 1338.6737 6710.2715 1362.0137 C 6718.8635 1379.3962 6732.0481 1351.1709 6741.4395 1346.0801 C 6790.3446 1292.5154 6826.0229 1204.2226 6785.418 1136.2676 C 6749.3624 1089.7276 6684.9743 1084.41 6633.9355 1064.3359 C 6631.2868 1063.3528 6629.8821 1062.9544 6629.3379 1062.959 z M 6428.1016 1257.5449 C 6417.0618 1257.4398 6406.0205 1257.7685 6395.0117 1258.7656 C 6381.8975 1260.361 6367.7688 1261.5731 6356.4473 1269.0059 C 6419.9002 1281.6492 6495.5124 1260.3079 6550.6973 1302.6543 C 6567.0622 1314.1305 6565.3442 1350.1224 6539.668 1341.3867 C 6531.1013 1339.4623 6504.0298 1323.5168 6519.959 1341.9824 C 6536.5847 1362.8288 6585.0516 1365.3867 6577.9238 1327.9102 C 6573.2932 1268.2937 6506.142 1262.4413 6461.1875 1258.9316 C 6450.1804 1258.1896 6439.1413 1257.6501 6428.1016 1257.5449 z M 2437.957 1319.4199 C 2406.667 1319.3536 2375.6511 1320.104 2344.2266 1322.3965 C 2250.5512 1325.9685 2172.2098 1390.6527 2092.1016 1433.7051 C 2017.4054 1487.1157 1924.6972 1498.6464 1843.5762 1537.2441 C 1739.4677 1596.6739 1645.4244 1678.2615 1527.8926 1710.1914 C 1404.0983 1746.9681 1277.8134 1773.027 1155.6055 1815.3652 C 1024.6082 1853.838 878.37281 1869.8862 772.125 1964.9609 C 711.59991 2017.3176 650.41966 2077.5905 568.78516 2091.7734 C 490.90864 2115.8515 408.19907 2115.0767 329.52148 2096.9141 C 219.36547 2083.6911 108.84753 2092.2043 0.18945312 2112.8145 L 0.18945312 2136.334 C 84.759857 2118.6402 170.19054 2107.4007 256.90625 2111.3184 C 321.80601 2117.0669 386.39745 2136.2346 451.41016 2129.2188 C 538.32942 2125.0892 632.2982 2118.7314 700.57812 2056.3516 C 775.63807 1997.116 846.10666 1925.8666 939.99609 1898.5254 C 1053.4414 1862.6026 1170.7946 1840.1641 1282.9082 1800.7656 C 1402.7483 1762.082 1530.7882 1748.3784 1644.1289 1690.959 C 1753.1882 1629.8523 1851.8462 1543.9556 1975.998 1515.625 C 2093.5849 1485.7751 2179.8868 1388.4405 2294.8027 1352.8789 C 2412.406 1337.1142 2533.6761 1336.2364 2650.2031 1360.5098 C 2735.8587 1380.5358 2820.9998 1415.3976 2907.3945 1423.7363 C 2913.9467 1399.9159 2947.336 1404.4793 2965.9492 1397.4785 C 3016.5528 1390.5162 3081.8441 1387.3278 3116.9004 1432.1445 C 3126.4318 1444.9066 3120.9719 1476.4063 3142.5723 1462.6738 C 3170.89 1471.1272 3187.8311 1516.6576 3222.1426 1506.0605 C 3282.9015 1514.162 3345.7257 1527.2403 3399.5879 1558.0254 C 3467.1847 1607.9652 3520.1798 1676.1808 3569.0254 1744.3984 C 3585.2082 1765.167 3588.7966 1791.3386 3592.2656 1816.0547 C 3619.8087 1808.9405 3661.4127 1849.3973 3639.4199 1877.6855 C 3609.5104 1890.5919 3578.5969 1863.2942 3553.9551 1848.6035 C 3520.2383 1818.9369 3496.6523 1777.052 3453.5723 1758.7461 C 3438.7542 1754.0729 3446.6656 1732.6754 3430.291 1734.7422 C 3402.3619 1726.8111 3389.4488 1693.4804 3385.0918 1670.5488 C 3325.6474 1685.4594 3257.7327 1676.8333 3206.2188 1642.8594 C 3196.8323 1637.0521 3198.6347 1617.3515 3185.6289 1631.6035 C 3146.6907 1656.1268 3090.5887 1673.4992 3049.0547 1647.1152 C 3036.9975 1642.0103 3048.1506 1614.4401 3033.1094 1628.709 C 3009.0881 1639.4558 3004.3144 1686.3913 2973.5957 1678.5332 C 2964.0968 1671.8331 2959.4009 1655.6584 2946.2695 1669.1387 C 2927.9039 1683.1668 2905.063 1676.6192 2888.4297 1665.1055 C 2885.1888 1685.7789 2908.6234 1705.4978 2917.9805 1723.543 C 2963.5692 1790.3033 3024.1423 1849.0801 3101.8301 1874.2012 C 3128.3515 1890.3038 3171.4644 1896.3027 3181.3574 1930.3359 C 3177.0543 1964.6835 3134.7156 1975.5656 3114.8887 1999.3262 C 3105.6294 2015.165 3086.8533 2023.7888 3071.4102 2010.334 C 3055.4948 2003.0008 3039.8315 1985.2108 3032.498 1974.7227 C 3020.3568 1981.9395 3012.1059 1966.2594 3009.2773 1960.2617 C 2989.7133 1965.3348 2988.8763 1941.6647 2996.9531 1932.9082 C 2978.66 1943.3081 2964.0021 1935.8305 2946.4629 1921.8145 C 2897.4074 1886.5466 2838.563 1874.8963 2780.8438 1863.6348 C 2763.3138 1860.6746 2742.6179 1847.4712 2729.9766 1842.9082 C 2719.0057 1875.2354 2681.9914 1852.3448 2664.9766 1838.8418 C 2652.3587 1834.4595 2642.7164 1809.167 2630.8516 1825.9062 C 2598.5668 1838.7613 2570.2678 1805.3278 2546.666 1787.4082 C 2512.9861 1752.6594 2473.073 1717.1285 2459.3477 1668.9746 C 2458.3708 1633.4937 2434.2185 1599.5036 2409.2422 1576.0293 C 2387.6848 1566.4476 2395.5054 1581.6218 2409.6875 1590.918 C 2425.0736 1598.7501 2426.7849 1628.2595 2404.3223 1623.168 C 2400.9437 1627.3213 2417.6429 1644.0109 2422.7168 1651.252 C 2444.1008 1671.3592 2462.956 1711.8776 2431.8184 1732.7695 C 2391.5282 1758.7605 2342.8598 1771.1378 2309.7383 1808.5176 C 2203.4521 1905.0308 2149.0666 2049.5534 2029.1914 2131.9766 C 1909.8597 2217.5738 1778.4193 2288.3689 1677.6699 2398.1797 C 1578.9633 2497.3133 1463.3086 2584.1222 1327.3594 2620.3965 C 1147.6575 2670.5265 961.67689 2691.5526 777.41211 2716.0234 C 727.80169 2724.4526 678.34381 2716.7695 629.92969 2706.2715 C 504.50917 2701.9783 396.01923 2776.6888 283.91406 2822.6328 C 192.64878 2861.9263 97.117603 2887.8443 0.18945312 2907.6172 L 0.18945312 2934.4785 C 130.53672 2908.1038 258.9452 2871.1988 377.76758 2808.9531 C 461.46919 2768.5192 550.62854 2719.9669 646.50586 2736.7715 C 706.65761 2745.3816 768.74916 2755.8556 827.89453 2734.8652 C 1027.0742 2695.0764 1233.9591 2688.2141 1425.5039 2614.832 C 1566.8752 2553.7463 1673.2265 2436.182 1783.9961 2331.9062 C 1913.782 2228.3921 2077.0673 2163.0121 2173.1406 2020.4375 C 2230.5977 1949.3559 2276.7691 1866.7061 2346.6855 1807.0723 C 2383.9526 1781.3778 2427.4949 1767.3848 2467.459 1746.8496 C 2524.6924 1805.4284 2589.2252 1865.6498 2673.4492 1876.8633 C 2760.685 1889.3316 2853.8039 1893.7456 2931.7773 1942.0156 C 2967.4645 1966.5731 3012.1486 1985.2369 3035.5215 2023.5977 C 3049.0784 2058.5591 3026.0007 2108.9048 3062.1699 2132.4277 C 3085.5498 2140.0336 3112.9248 2132.1686 3122.4453 2107.957 C 3156.5809 2081.6273 3211.0513 2115.8774 3239.1348 2074.5605 C 3268.2958 2018.3496 3222.6008 1961.1138 3202.2246 1909.9727 C 3194.8166 1893.7533 3181.2924 1855.0232 3209.4102 1852.957 C 3253.5878 1862.9528 3270.4897 1910.1337 3286.9355 1946.1523 C 3308.8042 1971.1411 3329.9444 1998.4134 3335.1914 2032.875 C 3355.8216 2080.0202 3389.1466 2071.4821 3427.7109 2069.3672 C 3450.4805 2079.0035 3502.07 2089.1265 3503.3867 2070.3535 C 3509.5185 1982.8681 3476.5161 1899.5939 3450.1895 1817.3867 C 3447.4741 1791.8527 3479.552 1795.9203 3488.6504 1812.5156 C 3521.9762 1860.7946 3576.0761 1897.0351 3635.3945 1896.3887 C 3658.5734 1892.9132 3678.2423 1862.3225 3656.375 1843.7051 C 3610.3207 1773.6966 3572.964 1697.1375 3514.9844 1636.207 C 3478.0393 1593.4718 3440.7984 1542.8307 3382.0273 1532.6699 C 3329.6308 1509.181 3275.6871 1489.8435 3221.8809 1470.0566 C 3153.7685 1443.5051 3108.7115 1367.4555 3029.7148 1369.709 C 2946.5998 1368.5083 2862.0484 1382.2771 2779.6914 1361.5801 C 2677.3454 1340.4936 2573.9402 1317.825 2469.3633 1319.7324 C 2458.8468 1319.5554 2448.387 1319.442 2437.957 1319.4199 z M 2996.9531 1932.9082 C 2998.4514 1932.0564 2999.9708 1931.1001 3001.5215 1930.002 C 2999.7903 1930.4525 2998.2592 1931.4922 2996.9531 1932.9082 z M 5071.127 1443.6992 C 4993.305 1459.1526 4958.5052 1543.0384 4892.2168 1578.6152 C 4879.6355 1579.6976 4861.2486 1557.9993 4853.0527 1579.7891 C 4849.2717 1586.7624 4844.1987 1608.0258 4853.2832 1609.1699 C 4881.39 1595.3574 4915.7613 1596.0572 4937.0703 1568.8184 C 4979.8629 1534.3823 5010.6998 1473.5003 5068.9688 1463.2852 C 5111.9374 1459.9294 5151.8201 1502.4763 5191.8438 1490.3027 C 5190.9559 1473.8315 5169.1672 1483.041 5158.4258 1474.9004 C 5128.4349 1467.6926 5102.465 1443.8298 5071.1289 1443.6992 L 5071.127 1443.6992 z M 5079.2793 1620.0469 C 5037.2109 1642.258 4990.0107 1665.3812 4956.6719 1697.5254 C 5014.9409 1684.3944 5068.6505 1651.297 5130.0859 1652.002 C 5296.957 1640.2301 5467.8437 1640.1127 5632.1035 1621.0156 C 5599.095 1619.7689 5554.9466 1629.9508 5517.1445 1628.5996 C 5385.6317 1629.5602 5254.874 1612.721 5123.8457 1630.459 C 5107.8572 1632.0853 5086.553 1633.6905 5079.2793 1620.0488 L 5079.2793 1620.0469 z M 4804.6875 1672.8457 L 4803.4512 1675.8926 C 4787.0212 1718.5344 4750.8511 1748.176 4713.7305 1770.8105 C 4718.0516 1786.3045 4740.0972 1762.1937 4748.8926 1760.752 C 4778.8204 1743.6858 4819.6541 1712.3412 4804.6875 1672.8457 z M 3177.5684 1674.1113 C 3193.6488 1674.1082 3208.2015 1677.8458 3213.4922 1694.8887 C 3218.3417 1736.8781 3251.369 1768.1509 3284.3613 1789.5781 C 3300.6607 1810.2853 3298.5412 1845.5225 3293.959 1866.3242 C 3318.1163 1883.6964 3327.7504 1918.256 3351.3906 1938.0176 C 3370.2652 1955.3307 3342.9836 1979.7768 3326.3691 1962.0938 C 3302.0887 1940.0784 3281.3935 1906.4295 3281.2617 1873.0469 C 3273.972 1862.16 3256.183 1848.956 3239.5332 1843.9238 C 3203.0411 1820.1548 3188.8879 1775.1375 3156.9043 1746.3613 C 3145.4646 1734.8219 3153.8003 1720.0311 3163.9395 1714.3281 C 3144.3297 1718.6309 3118.9496 1720.5982 3103.1465 1732.5234 C 3102.9571 1746.7713 3124.717 1738.2019 3130.6426 1750.5371 C 3168.9767 1788.791 3168.213 1848.3925 3177.0371 1898.4238 C 3143.0688 1865.5441 3083.1036 1852.4243 3071.1133 1800.8477 C 3055.1361 1782.6223 3036.2357 1766.125 3025.4785 1744.0684 C 3005.4924 1731.9736 2965.5512 1754.9199 2957.9453 1726.0566 C 2965.6037 1709.0332 2989.8196 1706.8666 3003.9238 1694.6836 C 3046.8201 1681.6655 3092.4352 1679.9557 3136.75 1676.2891 C 3148.0013 1677.0301 3163.3797 1674.114 3177.5684 1674.1113 z M 3245.3906 1685.9629 C 3293.6628 1705.7329 3354.2911 1695.636 3393.3789 1736.9551 C 3436.4617 1771.931 3420.8135 1833.9046 3449.4629 1876.9141 C 3470.7824 1931.4818 3492.0705 1989.2133 3492.6621 2048.5391 C 3488.6556 2079.6648 3451.4319 2068.0533 3436.9238 2052.1348 C 3395.7367 2016.5464 3383.856 1959.6179 3377.1895 1908.2793 C 3333.075 1901.8908 3315.3228 1847.483 3314.4941 1807.7891 C 3310.7483 1794.6955 3333.02 1774.7433 3323.416 1768.0742 C 3279.2621 1776.5651 3239.6348 1737.3995 3232.7871 1696.0508 C 3233.8112 1690.0278 3239.4969 1685.8182 3245.3906 1685.9629 z M 5181.7168 1686.2305 C 5168.1967 1686.6304 5154.6957 1687.5195 5141.2168 1688.6816 C 5111.1885 1692.4755 5074.3019 1694.5526 5048.9941 1706.373 C 5071.5621 1714.5451 5104.3072 1701.6561 5130.9688 1702.9316 C 5285.3076 1695.6171 5443.1274 1735.1487 5593.5605 1714.2695 C 5586.63 1703.6022 5584.8355 1703.2526 5551.3398 1704.252 C 5427.8105 1705.2138 5305.0265 1687.5966 5181.7168 1686.2305 z M 2327 1687.418 C 2193.115 1720.1649 2106.6918 1834.8253 2008.6191 1923.6543 C 2002.075 1931.6815 1972.6515 1947.8057 1986.4004 1956.1074 C 2083.6448 1887.3793 2156.4504 1787.7454 2261.3789 1729.5488 C 2282.7563 1715.8806 2309.8751 1703.2466 2327 1687.418 z M 4810.1406 1701.4961 C 4809.2094 1701.5602 4808.4837 1703.3007 4808.7207 1708.25 C 4816.2482 1712.1142 4812.5205 1701.3322 4810.1406 1701.4961 z M 4935.6406 1713.2168 C 4923.7412 1715.9351 4933.8738 1738.0643 4925.8809 1747.5918 C 4904.3035 1804.7128 4863.3598 1859.288 4807.3223 1884.3496 C 4762.5711 1898.8529 4713.7736 1893.5412 4669.7266 1881.8672 C 4669.084 1925.4065 4712.5849 1945.4766 4749.6133 1946.3926 C 4783.2046 1949.7952 4818.6217 1944.5653 4848.791 1928.6582 C 4825.1259 1923.8888 4833.8121 1895.1714 4850.7852 1887.4922 C 4891.2556 1854.1506 4928.7373 1808.8594 4938.6816 1755.8359 C 4937.4132 1742.451 4938.4953 1724.1093 4935.6406 1713.2168 z M 4967.7031 1734.877 C 4961.7535 1735.1131 4970.4895 1740.4261 4974.457 1749.7617 L 4974.4551 1749.7617 C 4989.7864 1771.1804 4989.4554 1802.2861 4987.2383 1824.4082 C 5004.9193 1799.814 4996.5887 1754.8831 4974.4082 1735.5371 C 4971.2321 1735.0378 4969.0761 1734.8224 4967.7031 1734.877 z M 4248.7051 1926.6641 C 4278.9375 1982.0252 4349.4932 1912.8341 4346.8789 1948.0938 C 4342.41 1956.9993 4326.9578 1977.2087 4344.5605 1962.5215 C 4357.2703 1950.3176 4375.942 1933.3334 4392.9102 1946.3164 C 4405.2994 1933.4163 4434.7559 1938.2451 4421.8945 1960.1035 C 4382.3765 2009.8253 4329.9493 2054.9796 4267.4238 2069.4199 C 4247.7506 2076.9044 4123.4323 2095.0462 4250.5 2039.2148 C 4268.8764 2022.3044 4285.035 1990.0843 4258.6523 1972.2051 C 4246.8776 1962.8374 4218.2772 1932.979 4248.7051 1926.6641 z M 4478.9473 1948.9082 C 4497.4035 1949.1108 4486.6519 1966.7995 4489.6797 1975.6797 C 4508.0716 1984.6894 4518.8285 2005.7876 4507.8867 2025.3887 C 4495.6331 2064.8763 4474.4574 2102.8946 4440.8223 2126.6191 C 4437.9351 2170.9854 4418.2104 2212.0682 4401.582 2252.8652 C 4388.969 2284.1023 4407.4159 2321.009 4386.5352 2350.0332 C 4378.5762 2372.651 4342.4303 2378.7167 4337.1816 2351.3066 C 4330.8634 2321.1389 4329.1587 2289.5306 4330.8984 2258.7773 C 4318.2525 2263.3046 4331.7075 2196.1961 4329.334 2172.5293 C 4325.6705 2094.7562 4387.242 2038.2779 4433.8848 1985.0703 C 4447.9945 1972.9314 4460.1373 1953.1462 4478.9473 1948.9082 z M 3184.7969 1969.8555 C 3219.3089 1972.4483 3235.0167 2008.8584 3230.1621 2041.4062 C 3219.7087 2085.9205 3168.9214 2100.1979 3139.5039 2065.1133 C 3118.7012 2055.6045 3103.976 2030.0628 3121.5059 2009.9043 C 3137.4869 1987.2471 3156.9178 1973.7548 3184.7969 1969.8555 z M 4210.8145 1970.1562 C 4233.9619 1969.9317 4264.0753 1983.5581 4249.957 2010.3652 C 4231.7034 2040.6633 4187.9161 2063.7607 4154.959 2046.2578 C 4134.5246 2025.8606 4137.4015 1980.8936 4170.8027 1976.3047 C 4180.7652 1973.3019 4191.1186 1971.7411 4201.4707 1971.1016 C 4204.3439 1970.5022 4207.5077 1970.1883 4210.8145 1970.1562 z M 3357.3633 1980.0332 C 3379.9116 1985.7224 3386.5978 1999.4328 3396.1328 2020.2363 C 3404.7482 2039.032 3419.3319 2057.2028 3403.709 2060.793 C 3368.9119 2068.7894 3349.8041 2033.1472 3343.6094 1998.1934 C 3343.0979 1989.7498 3348.1186 1980.0803 3357.3633 1980.0332 z M 4560.498 2042.3105 C 4588.504 2045.5059 4632.1562 2048.2042 4640.0547 2082.1914 C 4640.9697 2118.3209 4611.3835 2153.9036 4573.8438 2149.9551 C 4566.6211 2147.3247 4535.2139 2157.6036 4555.9238 2155.8047 C 4583.4267 2151.9243 4628.914 2181.9264 4603.9102 2208.4922 C 4583.1197 2211.9921 4560.1162 2196.1569 4544.0801 2187.9316 C 4540.3856 2210.6751 4509.71 2203.6218 4512.1523 2182.166 C 4509.896 2135.8987 4540.6841 2095.7562 4545.3945 2050.9355 C 4548.4801 2045.5538 4554.5687 2042.7383 4560.498 2042.3105 z M 3070.6152 2044.2148 C 3100.6867 2044.1351 3129.3863 2084.5251 3102.0605 2108.2129 C 3085.8105 2127.6718 3052.5405 2116.8586 3055.1758 2089.6992 C 3054.499 2074.8318 3048.1931 2045.6503 3070.6152 2044.2148 z M 4286.002 2090.5859 C 4313.5626 2090.924 4314.7026 2128.9965 4312.0742 2150.8184 C 4312.7723 2170.4231 4299.5507 2194.7195 4278.2402 2190.2383 C 4270.5035 2210.6383 4274.4543 2243.6349 4292.1992 2256.1211 C 4324.47 2265.6776 4315.4165 2313.3464 4310.5488 2335.2109 C 4305.5825 2360.0651 4276.4101 2396.0978 4250.6855 2374.793 C 4230.4878 2326.3973 4230.6939 2271.104 4215.6348 2220.9727 C 4212.2185 2184.1813 4205.8391 2141.8552 4223.7109 2108.0039 C 4237.64 2092.9233 4261.5979 2094.0425 4280.1309 2091.0371 C 4282.2098 2090.7082 4284.1646 2090.5634 4286.002 2090.5859 z M 4402.6094 2123.002 L 4391.2949 2128.5273 C 4397.3395 2175.592 4368.0918 2215.417 4338.8477 2248.4219 C 4349.4084 2246.8058 4354.3458 2253.7576 4362.8066 2244.5801 C 4384.737 2223.2138 4392.4386 2186.8905 4401.3594 2157.2754 C 4406.1133 2145.8889 4400.8315 2134.4547 4402.6094 2123.002 z M 4377.8652 2133.3008 C 4375.2736 2133.1824 4371.2548 2135.2373 4365.4941 2141.1426 C 4378.1863 2161.8494 4387.1212 2133.7236 4377.8652 2133.3008 z M 4572.6328 2207.5352 C 4589.5884 2207.1565 4606.1436 2218.6713 4603.4043 2238.2129 C 4605.601 2263.5776 4601.3445 2313.0116 4565.5996 2305.7676 C 4539.5212 2291.6112 4528.3525 2256.7672 4526.2266 2228.4863 C 4529.2827 2210.9779 4549.5147 2209.751 4563.293 2208.9922 C 4566.3404 2208.0816 4569.4929 2207.6053 4572.6328 2207.5352 z M 737.47656 2277.248 C 732.63688 2277.2661 727.79228 2277.4111 722.93359 2277.748 C 717.75927 2280.7471 741.63159 2289.6072 748.55859 2290.7969 C 780.76962 2294.5098 821.16676 2303.4381 848.34375 2282.0801 C 839.803 2273.2458 814.65886 2281.6714 800.49414 2278.9746 C 779.29813 2279.484 758.44851 2277.1699 737.47656 2277.248 z M 664.24414 2310.1797 C 688.29702 2337.6532 723.12428 2358.8768 732.60156 2397.6152 C 750.96508 2448.1422 738.18189 2504.986 706.62695 2547.1387 C 709.22417 2554.0012 732.86026 2535.9357 738.74219 2525.8027 C 769.93387 2482.7073 778.14977 2421.1051 745.0918 2376.4277 C 726.49637 2348.5073 698.75349 2312.2611 664.24414 2310.1797 z "
       transform="matrix(0.26458334,0,0,0.26458334,0,-658.00001)"
       id="rect648" />
    <circle
       id="path653"
       style="fill:#c30000;stroke:none;stroke-width:6.95909739"
       cx="975"
       cy="-180.5"
       r="7.8906307" />
  </g>
</svg>
