<?xml version="1.0" encoding="UTF-8" standalone="no"?>
<!-- Created with Inkscape (http://www.inkscape.org/) -->

<svg
   xmlns:dc="http://purl.org/dc/elements/1.1/"
   xmlns:cc="http://creativecommons.org/ns#"
   xmlns:rdf="http://www.w3.org/1999/02/22-rdf-syntax-ns#"
   xmlns:svg="http://www.w3.org/2000/svg"
   xmlns="http://www.w3.org/2000/svg"
   xmlns:sodipodi="http://sodipodi.sourceforge.net/DTD/sodipodi-0.dtd"
   xmlns:inkscape="http://www.inkscape.org/namespaces/inkscape"
   width="1950mm"
   height="955mm"
   viewBox="0 0 1950 955"
   version="1.1"
   id="svg8"
   inkscape:version="0.92.2 5c3e80d, 2017-08-06"
   sodipodi:docname="creazione_di_onega.svg">
  <defs
     id="defs2" />
  <sodipodi:namedview
     id="base"
     pagecolor="#ffffff"
     bordercolor="#666666"
     borderopacity="1.0"
     inkscape:pageopacity="0.0"
     inkscape:pageshadow="2"
     inkscape:zoom="0.5"
     inkscape:cx="3402.0067"
     inkscape:cy="1661.1949"
     inkscape:document-units="px"
     inkscape:current-layer="layer1"
     showgrid="false"
     showborder="true"
     inkscape:window-width="1920"
     inkscape:window-height="999"
     inkscape:window-x="0"
     inkscape:window-y="0"
     inkscape:window-maximized="1"
     inkscape:snap-nodes="true"
     inkscape:snap-global="true"
     showguides="true"
     inkscape:guide-bbox="true"
     inkscape:snap-center="true" />
  <metadata
     id="metadata5">
    <rdf:RDF>
      <cc:Work
         rdf:about="">
        <dc:format>image/svg+xml</dc:format>
        <dc:type
           rdf:resource="http://purl.org/dc/dcmitype/StillImage" />
        <dc:title />
      </cc:Work>
    </rdf:RDF>
  </metadata>
  <g
     inkscape:label="Layer 1"
     inkscape:groupmode="layer"
     id="layer1"
     transform="translate(0,658.00001)">
    <path
       style="opacity:1;vector-effect:none;fill:#000000;fill-opacity:1;fill-rule:nonzero;stroke:none;stroke-width:0.37795275;stroke-linecap:butt;stroke-linejoin:miter;stroke-miterlimit:4;stroke-dasharray:none;stroke-dashoffset:0;stroke-opacity:1"
       d="M 2437.957 1319.4199 C 2406.667 1319.3539 2375.6511 1320.104 2344.2266 1322.3965 C 2250.5512 1325.9685 2172.2098 1390.6527 2092.1016 1433.7051 C 2017.4054 1487.1157 1924.6972 1498.6464 1843.5762 1537.2441 C 1739.4677 1596.6739 1645.4244 1678.2615 1527.8926 1710.1914 C 1404.0983 1746.9681 1277.8134 1773.027 1155.6055 1815.3652 C 1024.6082 1853.838 878.37281 1869.8862 772.125 1964.9609 C 711.59991 2017.3176 650.41966 2077.5905 568.78516 2091.7734 C 490.90864 2115.8515 408.19907 2115.0767 329.52148 2096.9141 C 219.36547 2083.6911 108.84753 2092.2043 0.18945312 2112.8145 L 0.18945312 2136.334 C 84.759857 2118.6402 170.19054 2107.4007 256.90625 2111.3184 C 321.80601 2117.0669 386.39745 2136.2346 451.41016 2129.2188 C 538.32942 2125.0885 632.2982 2118.7314 700.57812 2056.3516 C 775.63814 1997.116 846.10666 1925.8666 939.99609 1898.5254 C 1053.4414 1862.6026 1170.7946 1840.1641 1282.9082 1800.7656 C 1402.7483 1762.082 1530.7882 1748.3784 1644.1289 1690.959 C 1753.1882 1629.8523 1851.8462 1543.9556 1975.998 1515.625 C 2093.5849 1485.7751 2179.8868 1388.4405 2294.8027 1352.8789 C 2412.406 1337.1142 2533.6761 1336.2364 2650.2031 1360.5098 C 2735.8587 1380.5358 2820.9998 1415.3976 2907.3945 1423.7363 C 2913.9467 1399.9159 2947.336 1404.4793 2965.9492 1397.4785 C 3016.5528 1390.5162 3081.8441 1387.3278 3116.9004 1432.1445 C 3126.4318 1444.9066 3120.9719 1476.4063 3142.5723 1462.6738 C 3170.89 1471.1272 3187.8311 1516.6576 3222.1426 1506.0605 C 3282.9015 1514.162 3345.7257 1527.2403 3399.5879 1558.0254 C 3467.1847 1607.9652 3520.1798 1676.1808 3569.0254 1744.3984 C 3585.2082 1765.167 3588.7966 1791.3386 3592.2656 1816.0547 C 3619.8087 1808.9405 3661.4127 1849.3973 3639.4199 1877.6855 C 3609.5104 1890.5919 3578.5969 1863.2942 3553.9551 1848.6035 C 3520.2383 1818.9369 3496.6523 1777.052 3453.5723 1758.7461 C 3438.7542 1754.0729 3446.6656 1732.6754 3430.291 1734.7422 C 3402.3619 1726.8111 3389.4488 1693.4804 3385.0918 1670.5488 C 3325.6474 1685.4594 3257.7327 1676.8333 3206.2188 1642.8594 C 3196.8316 1637.0521 3198.6347 1617.3515 3185.6289 1631.6035 C 3146.6907 1656.1268 3090.5887 1673.4992 3049.0547 1647.1152 C 3036.9975 1642.0103 3048.1506 1614.4401 3033.1094 1628.709 C 3009.0881 1639.4558 3004.3144 1686.3913 2973.5957 1678.5332 C 2964.0968 1671.8331 2959.4009 1655.6584 2946.2695 1669.1387 C 2927.9039 1683.1668 2905.063 1676.6192 2888.4297 1665.1055 C 2885.1888 1685.7789 2908.6234 1705.4978 2917.9805 1723.543 C 2963.5692 1790.3033 3024.1423 1849.0801 3101.8301 1874.2012 C 3128.3515 1890.3038 3171.4644 1896.3027 3181.3574 1930.3359 C 3177.0543 1964.6835 3134.7156 1975.5656 3114.8887 1999.3262 C 3105.6294 2015.165 3086.8533 2023.7888 3071.4102 2010.334 C 3055.4948 2003.0008 3039.8315 1985.2108 3032.498 1974.7227 C 3020.3568 1981.9395 3012.1059 1966.2594 3009.2773 1960.2617 C 2989.7133 1965.3348 2988.8763 1941.6647 2996.9531 1932.9082 C 2978.66 1943.3081 2964.0021 1935.8305 2946.4629 1921.8145 C 2897.4074 1886.5466 2838.563 1874.8963 2780.8438 1863.6348 C 2763.3131 1860.6746 2742.6179 1847.4712 2729.9766 1842.9082 C 2719.0057 1875.2354 2681.9914 1852.3448 2664.9766 1838.8418 C 2652.3587 1834.4595 2642.7164 1809.167 2630.8516 1825.9062 C 2598.5668 1838.762 2570.2678 1805.3278 2546.666 1787.4082 C 2512.9861 1752.6594 2473.073 1717.1285 2459.3477 1668.9746 C 2458.3708 1633.4937 2434.2185 1599.5036 2409.2422 1576.0293 C 2387.6848 1566.4476 2395.5054 1581.6218 2409.6875 1590.918 C 2425.0736 1598.7501 2426.7849 1628.2595 2404.3223 1623.168 C 2400.9437 1627.3213 2417.6429 1644.0109 2422.7168 1651.252 C 2444.1008 1671.3592 2462.956 1711.8776 2431.8184 1732.7695 C 2391.5282 1758.7605 2342.8598 1771.1378 2309.7383 1808.5176 C 2203.4521 1905.0308 2149.0666 2049.5534 2029.1914 2131.9766 C 1909.8597 2217.5738 1778.4193 2288.3689 1677.6699 2398.1797 C 1578.9633 2497.3133 1463.3086 2584.1222 1327.3594 2620.3965 C 1147.6575 2670.5265 961.67689 2691.5526 777.41211 2716.0234 C 727.80169 2724.4526 678.34381 2716.7695 629.92969 2706.2715 C 504.50917 2701.9783 396.01923 2776.6888 283.91406 2822.6328 C 192.64878 2861.9263 97.117603 2887.8443 0.18945312 2907.6172 L 0.18945312 2934.4785 C 130.53672 2908.1038 258.9452 2871.1988 377.76758 2808.9531 C 461.46919 2768.5192 550.62854 2719.9669 646.50586 2736.7715 C 706.65761 2745.3816 768.74916 2755.8556 827.89453 2734.8652 C 1027.0742 2695.0764 1233.9591 2688.2141 1425.5039 2614.832 C 1566.8752 2553.7463 1673.2265 2436.1827 1783.9961 2331.9062 C 1913.782 2228.3921 2077.0673 2163.0121 2173.1406 2020.4375 C 2230.5977 1949.3559 2276.7691 1866.7061 2346.6855 1807.0723 C 2383.9526 1781.3778 2427.4949 1767.3848 2467.459 1746.8496 C 2524.6924 1805.4284 2589.2252 1865.6498 2673.4492 1876.8633 C 2760.685 1889.3316 2853.8039 1893.7456 2931.7773 1942.0156 C 2967.4645 1966.5731 3012.1486 1985.2369 3035.5215 2023.5977 C 3049.0784 2058.5591 3026.0007 2108.9048 3062.1699 2132.4277 C 3071.3422 2135.4117 3081.1008 2135.927 3090.1836 2134.0957 C 3096.0672 2132.9094 3101.6131 2130.6828 3106.5469 2127.4395 C 3113.4108 2122.9273 3119.0793 2116.5171 3122.4453 2107.957 C 3139.1569 2095.0669 3160.7399 2096.6915 3181.7168 2096.8652 C 3203.5879 2097.0464 3224.8 2095.6501 3239.1348 2074.5605 C 3239.3551 2074.1358 3239.4815 2073.71 3239.6934 2073.2852 C 3267.5169 2017.484 3222.4468 1960.7273 3202.2246 1909.9727 C 3194.8166 1893.7533 3181.2924 1855.0232 3209.4102 1852.957 C 3253.5878 1862.9528 3270.4897 1910.1337 3286.9355 1946.1523 C 3308.8042 1971.1411 3329.9444 1998.4134 3335.1914 2032.875 C 3335.3968 2033.3445 3335.6241 2033.7231 3335.832 2034.1816 C 3351.358 2068.4141 3373.8567 2072.2826 3400.2715 2071.1621 C 3415.0104 2066.957 3429.7494 2062.752 3444.4883 2058.5469 C 3441.6347 2056.5529 3439.0066 2054.42 3436.9238 2052.1348 C 3422.1755 2039.3912 3411.2336 2023.8839 3402.8945 2006.9043 C 3387.9455 1976.4656 3381.4688 1941.2345 3377.1895 1908.2793 C 3333.075 1901.8908 3315.3228 1847.483 3314.4941 1807.7891 C 3310.7483 1794.6955 3333.02 1774.7433 3323.416 1768.0742 C 3279.2621 1776.5651 3239.6348 1737.3995 3232.7871 1696.0508 C 3233.8112 1690.0278 3239.4969 1685.8182 3245.3906 1685.9629 C 3293.6628 1705.7329 3354.2911 1695.636 3393.3789 1736.9551 C 3436.4617 1771.931 3420.8135 1833.9046 3449.4629 1876.9141 C 3461.8066 1908.5081 3474.0125 1941.187 3482.3242 1974.5977 C 3488.0701 1997.6943 3491.8936 2021.1388 3492.4707 2044.8574 C 3496.306 2043.7632 3500.1412 2042.6685 3503.9766 2041.5742 C 3503.4306 2017.2139 3500.1531 1993.1663 3495.2324 1969.3477 C 3484.5899 1917.832 3466.2074 1867.4042 3450.1895 1817.3867 C 3447.4741 1791.8527 3479.552 1795.9203 3488.6504 1812.5156 C 3521.9762 1860.7946 3576.0761 1897.0351 3635.3945 1896.3887 C 3658.5734 1892.9132 3678.2423 1862.3225 3656.375 1843.7051 C 3610.3207 1773.6966 3572.964 1697.1375 3514.9844 1636.207 C 3478.0393 1593.4718 3440.7984 1542.8307 3382.0273 1532.6699 C 3329.6308 1509.181 3275.6871 1489.8435 3221.8809 1470.0566 C 3153.7685 1443.5051 3108.7115 1367.4555 3029.7148 1369.709 C 2946.5998 1368.5083 2862.0484 1382.2771 2779.6914 1361.5801 C 2677.3454 1340.4936 2573.9402 1317.825 2469.3633 1319.7324 C 2458.8468 1319.5554 2448.387 1319.442 2437.957 1319.4199 z M 3177.5684 1674.1113 C 3193.6488 1674.1113 3208.2015 1677.8458 3213.4922 1694.8887 C 3218.3417 1736.8781 3251.369 1768.1509 3284.3613 1789.5781 C 3300.6607 1810.2853 3298.5412 1845.5225 3293.959 1866.3242 C 3318.1163 1883.6964 3327.7504 1918.256 3351.3906 1938.0176 C 3370.2652 1955.3307 3342.9836 1979.7768 3326.3691 1962.0938 C 3302.0887 1940.0777 3281.3935 1906.4295 3281.2617 1873.0469 C 3273.972 1862.16 3256.183 1848.956 3239.5332 1843.9238 C 3203.0411 1820.1548 3188.8879 1775.1375 3156.9043 1746.3613 C 3145.4646 1734.8219 3153.8003 1720.0311 3163.9395 1714.3281 C 3144.3297 1718.6309 3118.9496 1720.5982 3103.1465 1732.5234 C 3102.9571 1746.7713 3124.717 1738.2019 3130.6426 1750.5371 C 3168.9767 1788.791 3168.213 1848.3925 3177.0371 1898.4238 C 3143.0688 1865.5441 3083.1036 1852.4243 3071.1133 1800.8477 C 3055.1361 1782.6223 3036.2357 1766.125 3025.4785 1744.0684 C 3005.4924 1731.9736 2965.5512 1754.9199 2957.9453 1726.0566 C 2965.6037 1709.0332 2989.8196 1706.8666 3003.9238 1694.6836 C 3046.8201 1681.6655 3092.4352 1679.9557 3136.75 1676.2891 C 3148.0013 1677.0301 3163.3797 1674.114 3177.5684 1674.1113 z M 2327 1687.418 C 2193.115 1720.1649 2106.6918 1834.8253 2008.6191 1923.6543 C 2002.075 1931.6815 1972.6515 1947.8057 1986.4004 1956.1074 C 2083.6448 1887.3793 2156.4504 1787.7454 2261.3789 1729.5488 C 2282.7563 1715.8806 2309.8751 1703.2466 2327 1687.418 z M 3184.7969 1969.8555 C 3219.3089 1972.4483 3235.0167 2008.8584 3230.1621 2041.4062 C 3219.7087 2085.9212 3168.9214 2100.1979 3139.5039 2065.1133 C 3118.7012 2055.6045 3103.976 2030.0628 3121.5059 2009.9043 C 3137.4869 1987.2471 3156.9178 1973.7548 3184.7969 1969.8555 z M 3357.3633 1980.0332 C 3376.4174 1984.8408 3384.1586 1995.6953 3391.8496 2011.3984 C 3393.26 2014.2781 3394.6552 2017.0125 3396.1328 2020.2363 C 3404.7482 2039.032 3419.3319 2057.2028 3403.709 2060.793 C 3378.956 2066.4812 3362.2807 2049.9594 3352.4062 2027.4395 C 3348.3996 2018.3014 3345.3975 2008.2828 3343.6094 1998.1934 C 3343.0979 1989.7498 3348.1186 1980.0803 3357.3633 1980.0332 z M 3070.6152 2044.2148 C 3100.6867 2044.1348 3129.3863 2084.5251 3102.0605 2108.2129 C 3085.8105 2127.6718 3052.5405 2116.8586 3055.1758 2089.6992 C 3054.499 2074.8318 3048.1931 2045.6503 3070.6152 2044.2148 z M 737.47656 2277.248 C 732.63688 2277.266 727.79228 2277.4111 722.93359 2277.748 C 717.75927 2280.7471 741.63159 2289.6072 748.55859 2290.7969 C 780.76962 2294.5098 821.16676 2303.4381 848.34375 2282.0801 C 839.803 2273.2458 814.65886 2281.6714 800.49414 2278.9746 C 779.29813 2279.484 758.44851 2277.1699 737.47656 2277.248 z M 664.24414 2310.1797 C 688.29702 2337.6532 723.12428 2358.8768 732.60156 2397.6152 C 750.96508 2448.1422 738.18189 2504.986 706.62695 2547.1387 C 709.22417 2554.0012 732.86026 2535.9357 738.74219 2525.8027 C 769.93387 2482.7073 778.14977 2421.1051 745.0918 2376.4277 C 726.49637 2348.5073 698.75349 2312.2611 664.24414 2310.1797 z "
       id="path3218"
       transform="matrix(0.26458334,0,0,0.26458334,0,-658.00001)" />
    <path
       style="opacity:1;fill:#000000;stroke:none;stroke-width:1.96511436"
       d="m 4333.6797,1559.9102 c -22.0644,11.8699 -44.0895,23.8227 -66.1406,35.7207 -24.3989,13.1647 -48.7922,26.3408 -73.1817,39.5253 -42.047,22.7303 -84.1175,45.4101 -126.166,68.1368 -13.9886,7.5606 -27.989,15.0959 -41.9805,22.6504 -50.9005,27.483 -101.8414,54.8804 -152.8222,82.1933 -19.1028,10.2343 -38.1843,20.514 -57.3047,30.711 -5.2682,2.1427 -10.5365,4.285 -15.8047,6.4277 -101.6824,41.3575 -203.3647,82.7147 -305.0469,124.0723 1.2302,5.9546 2.3575,11.9236 3.3653,17.9082 1.0077,5.9845 1.8951,11.9848 2.6464,18.0019 0.7514,6.0171 1.3672,12.0512 1.8282,18.1035 0.3958,5.1983 0.6698,10.4107 0.8281,15.6367 l -113.2149,32.3008 c -0.043,-8e-4 -0.088,9e-4 -0.1308,0 -3.1735,-0.065 -6.2793,-0.2589 -9.3125,-0.6289 -3.0332,-0.37 -5.994,-0.9157 -8.875,-1.6894 -2.881,-0.7737 -5.6816,-1.7743 -8.3984,-3.0508 -2.7171,-1.2765 -5.348,-2.8305 -7.8887,-4.709 -2.5407,-1.8785 -4.9911,-4.0826 -7.3438,-6.6621 -2.3526,-2.5796 -4.609,-5.5343 -6.7617,-8.9141 -2.1527,-3.3797 -4.2018,-7.1838 -6.1426,-11.4629 -32.0463,13.0343 -64.0924,26.0692 -96.1386,39.1036 -0.2119,0.4248 -0.3383,0.8506 -0.5586,1.2753 -1.7919,2.6362 -3.691,4.9654 -5.6856,7.0215 -1.9946,2.0562 -4.0847,3.8397 -6.2578,5.3868 -2.1731,1.5468 -4.4286,2.8564 -6.7559,3.9648 -2.3272,1.1084 -4.7264,2.0152 -7.1835,2.7559 -2.4572,0.7406 -4.9724,1.3141 -7.5352,1.7578 -2.5628,0.4436 -5.1723,0.7571 -7.8164,0.9746 -5.2882,0.4349 -10.7158,0.4886 -16.1836,0.4433 -25.0566,10.1914 -50.1133,20.3829 -75.1699,30.5743 -2.4669,1.6216 -5.0875,2.9892 -7.8262,4.0996 -2.7386,1.1103 -5.5953,1.9635 -8.5371,2.5566 h -0 c -36.4661,14.832 -72.9322,29.664 -109.3984,44.4961 l 0.6172,1.8652 0.5371,1.627 c 14.1769,39.5995 28.7633,80.8435 56.6582,113.1055 11.1469,11.7943 27.8336,16.2442 37.5918,29.5507 49.4958,54.6949 69.5898,127.789 110.873,187.918 57.6001,93.3189 113.7559,187.6089 176.2129,277.8047 33.763,55.7582 55.7384,117.7665 81.4278,177.5781 32.7693,80.9215 60.063,164.0506 85.2636,247.7383 19.4047,101.4811 77.4483,189.716 104.5586,288.5859 8.8078,28.3215 19.3633,58.9531 9.8653,88.7696 -5.8519,20.2452 10.5967,37.0598 16.9023,54.9687 12.8639,22.6989 17.9201,50.1906 36.0606,69.6641 8.747,6.7413 19.2146,-10.961 28.6757,-14.3574 88.1191,-61.8682 175.5724,-125.0266 264.1075,-186.0899 206.4903,-72.7263 413.1942,-144.9268 619.5507,-217.9805 146.6431,-68.4379 293.2844,-136.8797 439.9278,-205.3164 -16.656,-36.9923 -33.8054,-74.0916 -49.7637,-111.1972 -9.1173,-8.6771 -24.0391,-7.1744 -33.6406,-15.6758 -16.9882,-15.0036 -33.8506,-31.3285 -41.4649,-53.3418 -25.3406,-56.1777 -52.0017,-111.8887 -84.8847,-164.1094 -67.8429,-113.5926 -144.4329,-222.0756 -204.5742,-339.9844 -13.7618,-27.1388 -27.5276,-54.3296 -40.9141,-81.7031 -3.8731,-7.9198 -7.6415,-15.8858 -11.4297,-23.8457 -12.2,-25.6348 -24.0228,-51.4449 -34.8184,-77.6953 -1.4909,-4.9474 -2.7106,-9.9687 -4.0039,-14.9707 -1.279,-4.9472 -2.5957,-9.8843 -3.7617,-14.8633 -5.1945,-22.1816 -9.6998,-44.5608 -16.9765,-66.209 -0.368,-1.1601 -0.7361,-2.3221 -1.1036,-3.4824 -7.9855,-25.2134 -16.0034,-50.4382 -23.9785,-75.6719 -10.2547,-32.4463 -20.6445,-64.8432 -31.5547,-97.0722 -1.7302,1.0971 -3.4064,2.3113 -5.039,3.6133 -1.6326,1.3019 -3.2216,2.6915 -4.7813,4.1386 6.8696,19.6851 13.5089,39.4574 19.6543,59.4278 20.5198,64.1262 41.4214,128.3594 55.375,194.3398 16.5479,49.3132 42.0826,95.0344 63.8379,142.1504 65.9135,139.7223 154.2679,266.8811 234.4902,398.4219 35.1326,57.6225 62.0335,119.6484 91.4004,180.6679 10.1197,17.3441 25.3801,31.244 41.0157,43.4493 8.2223,5.755 19.383,6.6726 27.4629,11.5625 12.4645,32.443 28.5347,63.711 42.3515,95.7148 -144.5616,67.2438 -288.7298,135.4519 -433.5371,202.0937 -205.6252,72.3235 -411.4373,144.2824 -616.9453,216.8321 -93.0365,65.8483 -186.1895,132.596 -279.1543,197.8828 -13.4484,-19.6818 -19.5529,-43.3985 -30.9492,-64.2852 -4.4908,-12.9176 -14.8935,-24.4971 -15.6738,-38.2695 3.6286,-18.7218 7.7681,-37.9324 2.7089,-56.8945 -17.6029,-81.9942 -60.4376,-155.4215 -85.2109,-235.0821 -46.8378,-142.0643 -88.176,-286.4865 -149.9746,-423.0996 -23.8775,-53.8705 -45.9513,-109.5478 -83.0957,-156.0273 -57.0917,-79.715 -107.3392,-163.8853 -156.9981,-248.3535 -33.9993,-57.1527 -55.3868,-123.1692 -102.7578,-171.5664 -12.4984,-13.638 -32.1249,-18.579 -41.5703,-35.2891 -18.3249,-26.6768 -30.5083,-56.7957 -41.4004,-87.082 l 631.1836,-180.0821 c 235.2508,-155.2802 491.1872,-303.6921 699.0488,-430.9628 15.1953,30.7001 32.6262,60.5019 46.502,91.7324 4.0724,17.2159 -3.5612,34.4775 -0.6914,51.9277 -0.042,25.4408 9.3612,48.8284 18.5996,72.1367 2.7957,-2.8385 5.3135,-5.3056 7.2891,-7.0586 1.2044,-1.0686 1.9866,-1.5889 2.9492,-2.3418 -4.5601,-12.4953 -8.9457,-25.0491 -12.8848,-37.7558 -4.2451,-21.2135 -3.9493,-42.9734 -0.7949,-64.2422 0.7291,-25.5309 -18.2597,-45.4804 -27.4961,-67.9121 -2.2315,-4.3133 -4.4639,-8.6261 -6.6953,-12.9395 -3.3926,-6.558 -6.785,-13.1158 -10.1777,-19.6738 -3.7017,-7.1551 -7.4032,-14.31 -11.1055,-21.4648 z m 745.5996,60.1367 v 0 z"
       transform="matrix(0.26458334,0,0,0.26458334,0,-658.00001)"
       id="path3242"
       inkscape:connector-curvature="0"
       sodipodi:nodetypes="ccccsscccccccccsscscccccccccccccccccccccccccccccccccccccccccccccccccccccccccccccccccccccccccccccccccccccc" />
    <path
       style="opacity:1;vector-effect:none;fill:#000000;fill-opacity:1;fill-rule:nonzero;stroke:#6f4f9b;stroke-width:0.37795275;stroke-linecap:butt;stroke-linejoin:miter;stroke-miterlimit:4;stroke-dasharray:none;stroke-dashoffset:0;stroke-opacity:1"
       d="M 2996.9531 1932.9082 C 2998.4514 1932.0564 2999.9708 1931.1001 3001.5215 1930.002 C 2999.7903 1930.4525 2998.2592 1931.4922 2996.9531 1932.9082 z "
       id="path3214"
       transform="matrix(0.26458334,0,0,0.26458334,0,-658.00001)" />
    <path
       id="path2729"
       style="opacity:1;vector-effect:none;fill:#000000;fill-opacity:1;fill-rule:nonzero;stroke:none;stroke-width:0.37795275;stroke-linecap:butt;stroke-linejoin:miter;stroke-miterlimit:4;stroke-dasharray:none;stroke-dashoffset:0;stroke-opacity:1"
       d="m 7370.2676,334.83398 c -3.2436,6.25356 -6.5442,12.47339 -9.9317,18.64454 -55.5269,81.31664 -160.8638,94.9909 -243.0527,134.17382 -231.1895,92.38216 -453.7352,219.0559 -621.3047,408.61133 -43.1047,50.65262 -107.3072,75.84068 -172.1465,77.16211 -139.2963,11.61218 -288.3296,-10.38527 -413.8965,65.64062 -116.7076,59.1716 -247.4405,83.2437 -359.7617,151.7949 -63.49,36.8437 -135.0586,59.8236 -208.0019,60.1309 -85.8743,6.5132 -168.5055,34.2692 -245.7598,72.5078 -70.2263,28.3961 -150.6134,23.7459 -215.2891,67.6074 -79.6614,48.817 -177.555,19.6351 -259.2695,62.2793 -58.3646,20.3089 -117.0309,38.6931 -165.4648,79.6485 -33.7912,24.6878 -71.907,38.7856 -111.6035,48.3398 3.3927,6.558 6.7851,13.1158 10.1777,19.6738 103.2043,-25.2404 186.8116,-100.2286 288.8301,-130.3105 69.9144,-27.634 146.055,-24.6137 217.7285,-43.0762 57.5773,-24.7057 111.1664,-66.9212 176.8164,-65.209 86.5156,-8.2544 156.6968,-71.8155 244.0254,-78.0976 90.1825,-13.8006 183.3292,-14.4432 263.9961,-63.9473 95.8257,-51.8515 196.7487,-92.8462 300.3418,-125.1582 60.048,-19.5686 112.8279,-58.3266 170.8867,-80.4336 129.6884,-10.7121 261.4815,-4.9227 389.0859,-31.57812 87.8253,-24.84359 136.2472,-111.5642 204.1543,-166.80078 134.6623,-119.66419 292.6792,-210.17356 456.0254,-282.41016 83.7426,-39.76248 176.3118,-59.74712 255.957,-108.05859 18.4559,-13.75098 33.9621,-29.65813 47.4571,-47.04492 z M 4194.3574,1635.1562 c 24.3895,-13.1845 48.7828,-26.3606 73.1817,-39.5253 -24.7888,3.7599 -49.5199,7.2809 -73.5762,11.8476 -109.6248,18.9006 -225.7324,11.3478 -323.0957,73.7481 -51.82,32.2078 -119.0369,47.6916 -156.6172,99.1132 -7.1031,43.2595 47.314,68.3312 83.7656,65.2403 0.7585,-0.076 1.506,-0.2239 2.2637,-0.3047 5.2682,-2.1427 10.5365,-4.285 15.8047,-6.4277 19.1204,-10.197 38.2019,-20.4767 57.3047,-30.711 -35.8784,10.6759 -71.947,18.4965 -108.6153,7.4844 -16.6796,-4.4827 -40.6081,-26.4702 -19.6523,-41.5156 41.9157,-20.1538 80.6784,-47.8168 123.8516,-65.1426 54.3964,-16.9331 101.2082,-58.8644 160.9531,-58.543 54.9357,-4.25 109.9545,-7.9304 164.4316,-15.2637 z m -168.1465,90.7872 c 13.9915,-7.5545 27.9919,-15.0898 41.9805,-22.6504 -2.0323,-0.136 -3.4452,-0.3109 -6.043,-0.4121 -78.579,-7.7874 -146.7959,40.4812 -217.1484,67.8086 -28.9243,5.7766 -9.4937,17.1121 9.8828,5.6308 46.3079,-13.4697 86.5792,-48.182 136.8711,-52.0625 10.9137,-4.5586 24.8495,-4.1028 34.457,1.6856 z m 435.5801,213.414 c 1.6981,4.9316 3.2807,9.9033 4.9531,14.8438 3.7846,-2.3998 7.7982,-4.3005 12.2032,-5.293 18.4562,0.2026 7.7046,17.8913 10.7324,26.7715 18.3919,9.0097 29.1488,30.1079 18.207,49.709 -2.7177,8.758 -5.9538,17.4112 -9.5879,25.8847 7.9751,25.2337 15.993,50.4585 23.9785,75.6719 8.7672,-25.1722 20.3626,-49.7983 23.1172,-76.0098 3.0856,-5.3817 9.1742,-8.1972 15.1035,-8.625 28.006,3.1954 71.6582,5.8937 79.5567,39.8809 0.915,36.1295 -28.6712,71.7122 -66.2109,67.7637 -7.2229,-2.6304 -38.6299,7.6485 -17.92,5.8496 27.5029,-3.8804 72.9902,26.1217 47.9864,52.6875 -20.7905,3.4999 -43.794,-12.3353 -59.8301,-20.5606 -0.5995,3.6902 -1.9593,6.518 -3.7227,8.7051 0.46,1.9644 0.8894,3.938 1.3633,5.8985 0.7272,3.0085 1.624,5.9694 2.3984,8.9648 6.3642,-1.6978 13.3286,-2.1859 19.1739,-2.5078 3.0474,-0.9106 6.1999,-1.3869 9.3398,-1.457 16.9556,-0.3787 33.5108,11.1361 30.7715,30.6777 1.7725,20.4662 -0.6811,56.5643 -20.4629,65.9531 2.3408,4.9185 4.5763,9.8846 6.9512,14.7871 1.4686,3.0316 2.9986,6.0325 4.4785,9.0586 15.385,-6.7592 27.1778,-20.6462 27.4394,-40.2715 13.787,-66.2158 8.5263,-142.0894 50.668,-198.5859 35.2214,-25.1506 87.3312,-1.5699 118.8789,-37.3965 43.9416,-42.5901 109.3473,-57.9877 142.5274,-112.4609 33.0383,-40.6086 92.4154,-48.7999 116.9804,-98.0293 28.5786,-33.1889 78.6231,-22.065 116.9434,-22.125 83.5529,8.9385 166.6071,24.898 251.1562,19.6172 235.8599,-6.1985 472.6938,-12.6828 708.3614,-23.0567 90.1202,-3.9664 174.0389,-27.4747 255.123,-68.0215 92.0206,-39.8526 201.8412,-40.9221 280.0098,-109.7187 51.6937,-49.6151 116.3318,-81.8762 173.7148,-122.1817 47.088,-38.5389 85.5895,-91.7439 146.6387,-108.8828 132.5967,-38.5687 263.5024,-86.8347 387.4551,-148.8613 v -26.9531 c -127.8901,65.0201 -264.9751,112.1641 -400.3418,157.4551 -48.528,16.297 -91.8959,45.763 -123.5567,86.6816 -59.9686,54.4828 -137.6503,82.0298 -194.9921,139.6504 -57.3529,54.9594 -136.6673,69.7352 -210.3243,86.9512 -83.354,24.0392 -159.3609,73.4884 -247.2519,85.707 -176.6812,31.7566 -356.7297,6.7128 -534.4336,18.8125 -133.4204,3.8387 -268.433,25.6896 -400.6484,-2.6133 -65.326,-9.078 -131.4088,-10.4911 -197.4942,-9.5879 -29.9131,34.52 -59.24,76.9191 -104.9629,89.4844 -42.9074,33.6745 -72.2605,86.5668 -126.459,104.6875 -31.3273,16.805 -50.1879,52.2983 -87.039,60.3926 -44.7965,16.7301 -95.8683,12.2557 -135.8848,-14.0977 -28.0384,-12.5531 -75.6332,8.8689 -90.4648,-27.3828 3.8301,-19.2335 -7.4984,-34.0249 -21.0118,-46.6738 -14.3837,-24.4965 23.4996,-32.4911 40.625,-30.7344 43.5504,1.3498 82.5214,31.079 110.002,60.4805 11.0188,-15.2249 31.8833,0.5139 43.584,1.2812 -29.2517,-31.6745 -66.4294,-54.4717 -97.8653,-82.7402 -26.8607,-10.1426 -61.806,5.2339 -90.4238,12.9453 -12.8757,2.5996 -26.1962,11.3086 -39.5332,17.5742 z M 6629.3379,1062.959 c -1.1973,0.01 1.772,1.9649 4.8223,3.9043 h 0.01 c 41.9358,30.9109 93.2912,45.5553 135.5879,75.0664 39.7909,40.3427 14.998,104.2586 -9.2598,146.1524 -13.1697,26.4318 -37.7763,50.5897 -50.2226,73.9297 8.592,17.3825 21.7766,-10.8428 31.168,-15.9336 48.9051,-53.5647 84.5834,-141.8575 43.9785,-209.8125 -36.0556,-46.54 -100.4437,-51.8576 -151.4825,-71.9317 -2.6487,-0.9831 -4.0534,-1.3815 -4.5976,-1.3769 z m -201.2363,194.5859 c -11.0398,-0.1051 -22.0811,0.2236 -33.0899,1.2207 -13.1142,1.5954 -27.2429,2.8075 -38.5644,10.2403 63.4529,12.6433 139.0651,-8.698 194.25,33.6484 16.3649,11.4762 14.6469,47.4681 -11.0293,38.7324 -8.5667,-1.9244 -35.6382,-17.8699 -19.709,0.5957 16.6257,20.8464 65.0926,23.4043 57.9648,-14.0722 -4.6306,-59.6165 -71.7818,-65.4689 -116.7363,-68.9786 -11.0071,-0.742 -22.0462,-1.2815 -33.0859,-1.3867 z M 5071.127,1443.6992 c -77.822,15.4534 -112.6218,99.3392 -178.9102,134.916 -12.5813,1.0824 -30.9682,-20.6159 -39.1641,1.1739 -3.781,6.9733 -8.854,28.2367 0.2305,29.3808 28.1068,-13.8125 62.4781,-13.1127 83.7871,-40.3515 42.7926,-34.4361 73.6293,-95.3181 131.8985,-105.5332 42.9686,-3.3558 82.8511,39.1911 122.875,27.0175 -0.8881,-16.4712 -22.6766,-7.2617 -33.418,-15.4023 -29.9909,-7.2078 -55.9608,-31.0706 -87.2969,-31.2012 z m 8.1523,176.3477 c -42.0684,22.2111 -89.2686,45.3343 -122.6074,77.4785 58.269,-13.131 111.9786,-46.2284 173.414,-45.5234 166.8711,-11.7719 337.7578,-11.8893 502.0176,-30.9864 -33.0085,-1.2467 -77.1569,8.9352 -114.959,7.584 -131.5128,0.9606 -262.2705,-15.8786 -393.2988,1.8594 -15.9885,1.6263 -37.2927,3.2315 -44.5664,-10.4102 z m 102.4375,66.1836 c -13.5201,0.3999 -27.0211,1.289 -40.5,2.4511 -30.0283,3.7939 -66.9149,5.871 -92.2227,17.6914 22.568,8.1721 55.3129,-4.7169 81.9747,-3.4414 154.3388,-7.3145 312.1586,32.2171 462.5917,11.3379 -6.9305,-10.6673 -8.725,-11.0169 -42.2207,-10.0175 -123.5293,0.9618 -246.3133,-16.6554 -369.623,-18.0215 z m -377.0293,-13.3848 -1.2363,3.0469 c -16.43,42.6418 -52.6001,72.2834 -89.7207,94.9179 4.3211,15.494 26.3667,-8.6168 35.1621,-10.0585 29.9278,-17.0662 70.7615,-48.4108 55.7949,-87.9063 z m 130.9531,40.3711 c -11.8994,2.7183 -1.7668,24.8475 -9.7597,34.375 -21.5774,57.121 -62.5211,111.6962 -118.5586,136.7578 -44.7512,14.5033 -93.5487,9.1916 -137.5957,-2.4824 -0.6426,43.5393 42.8583,63.6094 79.8867,64.5254 33.5913,3.4026 69.0084,-1.8273 99.1777,-17.7344 -23.6651,-4.7694 -14.9789,-33.4868 1.9942,-41.166 40.4704,-33.3416 77.9521,-78.6328 87.8964,-131.6563 -1.2684,-13.3849 -0.1863,-31.7266 -3.041,-42.6191 z m 32.0625,21.6602 c -5.9496,0.2361 2.7864,5.5491 6.7539,14.8847 v 0 c 15.3313,21.4187 15.0003,52.5244 12.7832,74.6465 17.681,-24.5942 9.3504,-69.5251 -12.8301,-88.8711 -3.1761,-0.4993 -5.3321,-0.7147 -6.7051,-0.6601 z m -470.1445,-55.8282 c -25.8671,24.3463 -51.4087,73.0609 -93.7363,52.5469 13.1746,10.6971 32.8668,37.1448 8.0175,47.2637 -3.4825,1.1718 -6.8948,1.6569 -20.2841,15.4455 -13.3893,13.7886 -21.6093,21.7351 -21.878,22.3299 -14.0481,17.2965 -34.0101,32.3676 -44.6465,47.7422 -10.6362,15.3747 -77.9365,25.2894 -95.3144,43.2226 -59.7078,73.4524 -88.1232,44.4839 -109.3535,88.7695 -8.2798,46.508 41.754,99.4539 83.1621,97.0079 118.6725,-7.0101 122.2486,-17.0194 230.3594,-108.3067 7.7842,-6.6969 15.0023,-15.6603 23.039,-23.1172 -2.1096,-6.0451 -4.3258,-12.0505 -6.4922,-18.0742 -9.0989,2.8448 -18.1503,3.443 -27.0156,-1.0684 -3.7737,-13.6321 5.1193,-21.583 16.5078,-27.9355 -1.1824,-3.1559 -2.4304,-6.2897 -3.625,-9.4414 -16.328,11.9259 -32.3438,24.2387 -49.8691,33.4414 -123.2342,-30.1771 -88.1119,-27.8915 14.0019,-124.7734 3.3591,-3.1869 6.6198,-6.2335 10.1211,-9.6407 16.6743,-16.2254 34.8208,-34.8401 54.3008,-56.6757 13.8781,-20.458 35.7877,-46.0136 32.7051,-68.7364 z m -248.8535,247.6153 c 30.2324,55.3611 100.7881,-13.8304 98.1738,21.4297 -4.4689,8.9055 -19.9211,29.1149 -2.3184,14.4277 12.7098,-12.2039 31.3815,-29.1881 48.3497,-16.2051 12.3892,-12.9001 41.8457,-8.0713 28.9843,13.7871 -39.518,49.7218 -91.9452,94.8761 -154.4707,109.3164 -19.6732,7.4845 -143.9915,25.6263 -16.9238,-30.2051 18.3764,-16.9104 34.535,-49.1305 8.1523,-67.0097 -11.7747,-9.3677 -40.3751,-39.2261 -9.9472,-45.541 z m -37.8906,43.4921 c 23.1474,-0.2245 53.2608,13.4019 39.1425,40.209 -18.2536,30.2981 -62.0409,53.3955 -94.998,35.8926 -20.4344,-20.3972 -17.5575,-65.3642 15.8437,-69.9531 9.9625,-3.0028 20.3159,-4.5636 30.668,-5.2031 2.8732,-0.5994 6.037,-0.9129 9.3438,-0.9454 z m 236.2187,-72.4257 c -3.6066,2.5246 -7.1769,5.1047 -10.7344,7.7031 1.1946,3.1517 2.4426,6.2855 3.625,9.4414 3.6295,-2.0245 7.4347,-3.908 11.2578,-5.7285 -0.4665,-1.3023 -0.91,-2.6126 -1.3789,-3.9141 -0.9034,-2.5076 -1.8572,-4.9974 -2.7695,-7.5019 z m 0,0 c 0.9123,2.5045 1.8661,4.9943 2.7695,7.5019 0.4689,1.3015 0.9124,2.6118 1.3789,3.9141 6.9783,-3.323 13.7613,-6.5388 18.3223,-10.4004 46.7501,-30.1915 105.5334,-41.1839 145.6523,-81.2188 11.0735,-4.3022 14.9534,-44.3256 6.3399,-31.6015 -23.7472,54.573 -91.2851,59.488 -135.4844,89.2695 -13.8996,5.8945 -26.6366,13.896 -38.9785,22.5352 z m 14.7578,41.6269 c -3.7889,1.78 -7.5775,3.3391 -11.3594,4.5215 2.1664,6.0237 4.3826,12.0291 6.4922,18.0742 3.1193,-2.8942 6.3598,-5.5576 9.8203,-7.7519 -1.6724,-4.9405 -3.255,-9.9122 -4.9531,-14.8438 z"
       transform="matrix(0.26458334,0,0,0.26458334,0,-658.00001)" />
    <circle
       id="path653"
       style="fill:#c30000;stroke:none;stroke-width:6.95909739"
       cx="975"
       cy="-180.5"
       r="7.8906307" />
    <g
       id="g3255"
       transform="translate(7.4835469,14.218739)">
      <path
         id="path2618"
         d="m 1040.7934,-147.50045 c -3.475,1.55237 -7.0499,3.43019 -10.0334,5.32384 -9.2744,5.88664 -21.5756,16.46518 -33.98999,29.22991 -2.23326,2.29623 -4.13371,4.14828 -4.22298,4.11561 -0.089,-0.0328 2.29519,-2.93567 5.29758,-6.45131 6.62109,-7.75301 6.68719,-7.84888 5.68169,-8.21699 -0.5672,-0.20767 -2.5086,0.98679 -7.35263,4.52664 -14.224,10.39442 -17.5222,12.73356 -21.33163,15.12817 -2.17496,1.36717 -4.34874,2.74876 -4.83032,3.0697 -9.30552,6.201726 -24.36871,14.681922 -29.08596,16.37411 -4.0435,1.450482 -9.28421,2.844018 -9.4391,2.510197 -0.0597,-0.128701 0.16022,-2.548391 0.48878,-5.376461 0.5503,-4.736288 0.511,-5.158463 -0.50123,-5.360423 -0.60442,-0.120578 -2.72085,0.355834 -4.70293,1.059312 -5.57551,1.978538 -8.6209,4.499253 -9.06111,7.501267 -0.27949,1.399452 -1.62737,2.504445 -2.55623,3.191109 -3.29636,2.416745 -5.5868,5.330807 -6.49549,8.265452 -0.6939,2.241056 -0.63368,2.916484 0.548,6.139156 1.86942,5.097957 4.98287,12.589901 13.45725,32.382818 l 7.37068,17.214498 2.37055,2.339147 c 6.23057,6.146945 19.9918,6.9574806 34.40652,2.026728 8.59664,-2.940591 16.41748,-7.174049 25.28599,-13.687346 9.25966,-6.800713 15.46466,-13.04555 29.82896,-30.018465 10.1817,-12.030612 10.8054,-12.650349 4.9041,-4.877182 -4.7917,6.311517 -5.615,8.500611 -2.6858,7.141437 0.8258,-0.383168 6.4464,-4.013095 12.4906,-8.067096 6.0443,-4.054041 12.89,-8.557103 15.2125,-10.006204 4.6838,-2.922403 18.6746,-9.696021 19.4446,-9.414135 0.27,0.09886 0.272,2.885272 0,6.190962 -0.081,5.431676 -0.1797,2.393561 0.017,6.497557 0.7285,0.706345 7.3824,-0.755921 13.0735,-2.873339 11.6491,-4.334092 20.5189,-10.909272 20.5706,-15.248556 0.013,-1.090957 -3.1218,-7.951443 -13.1773,-28.840793 -7.2568,-15.07493 -13.5565,-27.75672 -13.9989,-28.18192 -2.086,-2.00492 -7.5598,-5.04122 -11.2176,-6.22284 -4.5265,-1.46228 -11.798,-1.79927 -16.3386,-0.75683 -2.5823,0.59283 -5.9571,1.81986 -9.432,3.37227 z m -0.5557,1.44448 c 7.8734,-3.68164 14.8752,-4.86968 21.6595,-3.89279 4.4783,0.64485 8.6742,2.33271 12.9715,5.21867 l 2.8964,1.94515 12.7256,27.03977 c 6.9988,14.87211 12.8332,27.605777 12.9651,28.296653 0.3205,1.67938 -2.7029,5.183481 -7.3455,8.513219 -2.6488,1.899777 -5.1405,3.204724 -9.5991,5.029387 -5.7314,2.345531 -12.6492,4.284522 -13.7464,3.852749 -0.071,-0.02801 -0.1238,-0.216263 -0.1585,-0.529837 0.4496,-0.08384 1.0008,-0.181128 1.8114,-0.308737 2.499,-0.39338 5.1623,-1.716858 7.3457,-3.171088 1.0917,-0.727119 2.0576,-1.487789 2.8184,-2.196615 0.7608,-0.708807 1.3157,-1.331922 1.5985,-1.964196 0.5348,-1.19545 0.6288,-3.242349 0.5138,-5.65788 -0.115,-2.415524 -0.5033,-5.105336 -1.2327,-7.24321 -1.4785,-4.333942 -4.9192,-5.933262 -6.3743,-6.516576 -0.8853,-0.354889 -3.1921,-0.551115 -4.4176,-0.682924 -5.4021,0.169276 -11.5961,2.954081 -22.4693,10.384349 -9.1796,6.272908 -16.6331,13.506484 -32.4373,32.004518 -14.7163,17.224634 -21.24129,23.612492 -31.17028,30.51768 -6.92887,4.818708 -18.52094,10.609893 -24.68291,12.330568 -13.54821,3.7832259 -23.6742,3.1641924 -29.8237,-1.822378 -2.95842,-2.398973 -2.66777,-1.802961 -14.979,-30.711725 -8.16187,-19.165355 -9.79731,-23.633271 -9.47061,-25.861054 0.30546,-2.083174 3.86768,-6.564086 7.06994,-8.892472 0.374,-0.271888 0.68396,-0.51256 0.96216,-0.741994 0.6873,2.794248 0.20849,1.404843 1.94375,8.440272 0.31739,1.286727 1.75419,4.952378 4.54741,7.49637 2.84084,2.587301 6.70704,2.9292 9.96581,2.321197 1.84344,-0.34395 4.82012,-1.039469 6.97319,-2.099281 13.14851,-6.472053 22.48216,-12.704928 30.33907,-20.371134 10.86375,-10.359034 20.89445,-22.005501 32.24697,-32.735671 0.1307,-0.12261 2.2939,-2.48541 5.4717,-5.38577 12.1154,-11.05745 22.1582,-18.4326 31.0813,-22.60524 z m -114.99425,56.645362 v 0 c 5.92015,-2.686293 5.87771,-2.709949 5.2407,2.973228 -0.29807,2.660306 -0.29054,5.28191 0.0165,5.826028 1.76407,1.526695 11.9446,-3.406637 13.35433,-4.070503 12.64101,-5.970508 40.36591,-23.412995 53.69504,-33.780915 1.01265,-0.78772 1.96387,-1.38689 2.11342,-1.33215 0.86226,0.31571 -14.86414,19.41864 -24.3749,28.549043 -8.5621,9.617722 -19.06216,16.729531 -33.76714,24.479504 -2.18588,1.152033 -5.81989,2.038025 -7.68539,2.386076 -2.93972,0.548489 -6.26691,0.215467 -8.63746,-1.943439 -4.4078,-3.765794 -4.6111,-6.092589 -5.52108,-12.082307 -0.37237,-2.152468 -0.6533,-4.067339 -0.67433,-4.210978 0.15996,-0.322211 0.24449,-0.64959 0.26563,-1.019967 0.13441,-2.356817 1.62989,-3.802131 5.97379,-5.773205 z m 116.22675,-45.614782 c -0.851,0.39597 -1.7055,0.87883 -2.5484,1.44666 -8.4977,5.7248 -12.8298,16.82875 -10.0214,25.68631 l 0.9131,2.87994 -1.1221,-2.2568 c -1.3524,-2.71953 -3.3026,-4.16526 -5.8221,-4.31551 -2.6357,-0.15716 -7.0718,2.42337 -10.032,5.83591 -3.0948,3.56775 -3.5572,5.18104 -2.2959,8.010617 0.7615,1.707754 0.7995,2.057225 0.1549,1.417075 -2.5182,-2.501495 -9.8196,-0.246037 -14.06338,4.344633 -4.01623,4.344524 -5.80453,9.897866 -4.67084,14.499608 0.35814,1.453735 0.0892,1.096391 -1.24648,-1.656141 -2.39087,-4.926784 -2.48013,-4.955236 -6.20907,-1.971987 -2.13331,1.706721 -3.28691,3.041788 -3.77038,4.362352 -0.65544,1.790419 -0.58162,2.148408 1.24518,6.085462 l 1.94135,4.183946 -1.60243,1.335746 -1.60107,1.336224 -1.60226,-2.681076 c -0.88112,-1.474637 -1.98083,-3.499428 -2.44462,-4.498986 -0.75493,-1.627006 -0.96773,-1.759737 -2.02976,-1.266952 -0.65242,0.302722 -2.30462,1.503051 -3.67133,2.66739 -3.30908,2.819102 -3.9334,4.997652 -2.39835,8.361547 l 1.11626,2.446474 -1.91739,-1.98743 c -4.42141,-4.583974 -8.27,-5.30644 -14.0186,-2.630423 -3.27279,1.523161 -3.87259,2.019571 -6.68434,5.522998 -3.7387,4.658517 -5.79927,10.322415 -5.82304,16.00707 -0.0133,3.194222 0.26757,4.412756 1.91027,8.295719 1.71211,4.047012 2.14016,4.700129 3.86025,5.887446 2.57687,1.778992 5.34279,1.87913 8.71274,0.31547 4.44609,-2.062987 4.42521,-1.553317 0.38549,-9.321768 -3.2041,-6.1616 -3.58577,-7.156124 -4.07037,-10.606012 -0.38893,-2.769237 -0.28922,-4.333186 0.36572,-5.73581 l 0.90001,-1.927805 1.50254,0.497327 c 1.96477,0.650564 3.95402,2.94174 5.5435,6.385991 2.24048,4.857033 2.77208,11.503128 1.31418,16.459135 -0.90739,3.084562 -3.87789,6.730707 -6.45841,7.928071 -3.28176,1.522736 -2.24323,3.598494 1.78622,3.569684 1.15596,-0.0083 3.07378,-0.701186 5.89132,-2.12681 3.53743,-1.789982 4.55896,-2.566721 6.66064,-5.069808 5.4383,-6.477008 7.07316,-16.143546 3.96757,-23.456128 l -0.82863,-1.947419 1.46175,2.187649 c 0.80387,1.203283 2.12355,3.557121 2.93213,5.231065 2.74195,5.676395 2.99703,5.728554 7.70803,1.56418 3.74091,-3.306798 3.81361,-4.001372 1.03991,-9.979176 l -2.2226,-4.790073 1.61543,-1.314905 1.61585,-1.313985 1.27631,1.988224 c 0.70213,1.09396 1.89266,3.316575 2.64534,4.938733 0.98987,2.133343 1.59008,2.934259 2.16939,2.894836 0.99865,-0.06806 5.99411,-4.345011 7.04028,-6.027367 1.04809,-1.685462 0.65829,-3.255458 -2.0288,-8.172431 -2.14585,-3.926599 -2.19142,-4.082392 -0.7826,-2.651663 1.84155,1.870201 4.71629,3.051977 7.81889,3.214381 1.8541,0.09706 3.1426,-0.252839 6.108,-1.659783 6.1385,-2.912172 10.1555,-7.821876 9.6886,-11.8405 l -0.215,-1.848177 2.1448,0.349358 c 4.0808,0.666116 7.9864,-1.332248 11.9852,-6.133216 2.9922,-3.592502 3.3268,-5.261949 1.7323,-8.643615 -0.7345,-1.559503 -1.1148,-2.586216 -0.8442,-2.28274 0.7618,0.854307 4.036,2.072573 5.7925,2.155186 2.0974,0.09868 6.4966,-1.98575 8.2616,-3.91398 0.7777,-0.849741 1.7905,-2.522321 2.2504,-3.717541 0.7124,-1.85139 0.9349,-2.07761 1.5021,-1.52766 0.3662,0.35501 1.0239,0.47872 1.4613,0.27577 1.3817,-0.6411 8.1016,-6.67905 8.4533,-7.59536 0.2403,-0.6266 -0.4406,-2.54892 -2.3835,-6.73162 -4.9716,-10.70088 -9.4408,-13.91426 -15.4625,-11.12017 -3.233,1.50013 -3.2408,1.55703 -0.8399,6.04316 2.7296,5.10039 3.4293,9.05228 2.2668,12.80639 -0.9627,3.10931 -2.0353,3.80028 -4.0035,2.57634 -2.2745,-1.41454 -4.0404,-6.00707 -4.0202,-10.45688 0.022,-4.79484 0.7709,-7.29806 3.0339,-10.1308 2.1403,-2.67908 4.3151,-3.85943 7.7088,-4.18368 2.9142,-0.2784 3.3393,-1.07318 1.3841,-2.5879 -2.2142,-1.71532 -5.8249,-1.63067 -9.5127,0.086 z m 0.38,1.14466 c 3.1445,-1.49048 5.2273,-1.62444 7.974,-0.51164 l 1.7346,0.7031 -2.0696,0.0804 c -4.9085,0.18983 -8.7852,3.31477 -10.774,8.68564 -1.673,4.51814 -1.5897,8.81776 0.2635,13.65197 1.6539,4.31431 3.684,5.95358 6.2235,5.02376 2.2473,-0.82281 3.5052,-3.33016 3.5898,-7.15455 0.051,-2.32632 -0.304,-3.55775 -2.3692,-8.20144 l -2.43,-5.46402 1.6759,-0.96012 c 4.9393,-2.82901 9.7443,0.5465 13.897,9.76094 2.954,6.55458 2.9817,6.35082 -1.4104,10.1578 l -3.7674,3.26612 -0.6228,-1.34215 c -0.8921,-1.92269 -1.6597,-1.27792 -3.1914,2.67867 -0.7894,2.03926 -1.9759,3.992523 -2.9053,4.783808 -3.1555,2.686566 -5.9339,3.113103 -9.6343,1.479035 -4.4838,-1.979925 -8.8334,-10.148203 -8.7701,-16.468913 0.084,-8.42089 5.2431,-16.68776 12.5862,-20.16839 z m -21.5049,24.13542 4e-4,9.4e-4 c 1.8456,-0.8332 2.4696,-0.84009 3.8634,-0.33054 2.3571,0.86169 4.2745,3.85975 4.161,6.50688 -0.044,1.02426 -0.7603,3.91444 -1.592,6.422349 -1.7661,5.325525 -1.736,6.698941 0.173,7.886047 1.1867,0.73789 1.5794,0.70119 3.1377,-0.292702 0.9799,-0.624951 2.3987,-2.232922 3.1553,-3.574313 l 1.3756,-2.437311 0.8505,1.833126 c 1.0464,2.255026 0.5067,3.813445 -2.5732,7.427309 -4.2527,4.990223 -9.1008,6.454444 -12.5427,3.787974 -3.1777,-2.461641 -3.5533,-6.048573 -1.2447,-11.872358 1.9981,-5.040338 2.1942,-7.050621 0.7921,-8.105451 -0.8457,-0.63627 -1.2896,-0.56807 -2.9697,0.45433 -1.0865,0.6612 -2.5607,2.153138 -3.2763,3.315904 l -1.3018,2.114191 -0.7796,-1.680212 c -0.5595,-1.205786 -0.5807,-2.163683 -0.076,-3.394793 1.0771,-2.62838 4.6394,-6.0469 7.9755,-7.65248 0.3189,-0.15445 0.6084,-0.28891 0.8715,-0.40896 z m -16.3912,14.211648 c 1.3833,-0.640697 2.1167,-0.677941 3.534,-0.444191 2.8604,0.471609 4.8834,2.563965 5.4215,5.606384 0.4961,2.805201 -1.481,8.10094 -4.5153,12.096633 -2.437,3.209169 -2.4336,4.6151 0.011,4.598234 2.9484,-0.02039 6.8159,-2.791053 8.8273,-6.323645 l 0.9266,-1.626698 0.5728,1.234367 c 1.3996,3.016463 0.084,6.256295 -3.9952,9.834647 -4.8116,4.221171 -10.5018,5.336272 -14.6537,2.872134 -2.43452,-1.4449 -3.95867,-3.294647 -5.60805,-6.807206 -3.40183,-7.245054 -0.0671,-15.841676 7.83025,-20.186055 0.6548,-0.360201 1.1876,-0.641046 1.6488,-0.854604 z m 13.9069,-5.784468 c 0.5189,-0.26658 0.9645,-0.24543 1.3077,0.0873 0.4901,0.47516 0.1509,2.113098 -1.2297,5.934086 -1.937,5.360871 -2.2418,8.363698 -1.0992,10.82616 0.6497,1.400299 -0.32,3.566512 -2.8984,6.473232 -1.1886,1.339989 -4.9787,3.253599 -5.6144,2.834599 -0.2296,-0.151302 0.4321,-1.331152 1.4715,-2.621715 2.4727,-3.070347 4.532,-7.854693 4.6413,-10.782624 0.061,-1.643264 -0.2683,-2.982389 -1.1093,-4.501732 -0.8169,-1.475817 -0.9963,-2.175579 -0.5671,-2.204235 0.3462,-0.0233 1.2588,-1.11396 2.0281,-2.423252 1.1361,-1.933704 2.2045,-3.177549 3.0695,-3.621809 z m 11.9048,-3.02514 c 0.1699,-0.01 0.5772,0.63974 1.497,2.11643 0.909,1.45935 2.0012,3.00273 2.4264,3.429379 0.5321,0.53396 0.5901,1.04297 0.1876,1.632486 -0.3216,0.471059 -1.1757,1.96819 -1.8982,3.327987 -1.2125,2.282051 -3.1964,3.885045 -4.3057,3.478915 -1.0637,-0.389484 -0.9591,-1.682846 0.5088,-6.295895 0.8529,-2.680203 1.5231,-5.627282 1.4895,-6.549402 -0.026,-0.72575 -0.038,-1.13237 0.095,-1.1399 z m -27.6862,13.561754 c -0.828,0.385939 -1.5824,1.302981 -2.09451,2.798883 -0.67083,1.95949 -0.59755,2.365825 1.18701,6.613977 1.8627,4.433619 1.9226,4.516165 2.9704,4.029989 1.6148,-0.749266 3.1918,-5.951866 2.6569,-8.766989 -0.722,-3.800096 -2.8982,-5.524535 -4.7198,-4.67586 z m 0.675,1.763475 c 0.9233,-0.428424 1.2818,-0.262428 1.9715,0.912237 0.959,1.632988 0.9994,4.428322 0.1036,7.152499 -0.3364,1.023049 -0.8088,1.951514 -1.0499,2.063385 -0.2448,0.113622 -0.9791,-1.18555 -1.664,-2.94685 -1.4179,-3.646559 -1.1786,-6.337991 0.6388,-7.181271 z m -15.64418,7.553338 c 0.18291,-0.09571 0.3223,-0.136483 0.40426,-0.105862 0.34359,0.125816 6.95219,12.133309 9.94324,18.066143 2.3144,4.590523 2.23695,5.003579 -1.54386,8.272936 l -2.69182,2.327078 -1.28498,-2.002114 c -0.70687,-1.101435 -1.85012,-3.220073 -2.54075,-4.708503 -1.6668,-3.592234 -2.37032,-3.750089 -5.16975,-1.155625 l -2.17061,2.012469 2.09796,4.173974 c 2.52864,5.030884 2.79959,6.187642 1.76774,7.559173 -0.43502,0.578297 -1.81708,1.966514 -3.07104,3.085175 l -2.28025,2.034235 -1.95253,-3.460047 c -1.07399,-1.903291 -3.71555,-6.898975 -5.86963,-11.101113 -3.91159,-7.6304 -3.9157,-7.641849 -3.25657,-9.146523 0.36295,-0.828606 1.71198,-2.396827 2.99731,-3.485323 2.82636,-2.393505 2.78884,-2.414695 5.26535,2.922605 2.04499,4.407296 2.40475,4.525219 5.61467,1.83694 l 2.14286,-1.794727 -2.01188,-4.335942 c -1.73364,-3.736286 -1.94048,-4.532635 -1.49746,-5.753461 0.42752,-1.178015 3.82708,-4.57159 5.10774,-5.241488 z m -32.21516,19.037354 c 1.56031,-0.69475 3.14069,-1.04976 4.64768,-0.987776 4.44653,0.182753 7.31778,2.543438 10.83468,8.908157 5.64777,10.22087 3.64211,22.149345 -4.909,29.195991 -3.29359,2.714121 -5.30118,3.55297 -8.39378,3.508495 l -2.59638,-0.0368 2.46236,-1.487341 c 6.13765,-3.707201 8.3981,-11.225378 6.21857,-20.679764 -2.3484,-10.186851 -10.00554,-15.963666 -12.29332,-9.274714 -1.50547,4.401726 0.4899,12.042342 5.0252,19.243179 1.2268,1.94787 2.19115,3.649921 2.14255,3.782733 -0.0486,0.132839 -0.87139,0.74172 -1.82873,1.352303 -1.19565,0.762542 -2.54182,1.124614 -4.29864,1.156074 -7.92873,0.142474 -11.77259,-12.244885 -7.26133,-23.398939 1.98715,-4.913177 5.67894,-8.976478 9.58299,-10.963083 0.22145,-0.113585 0.44421,-0.219409 0.66716,-0.318505 z m 108.02394,-30.292463 c 4.1639,-1.683769 8.7918,-4.543448 12.5521,-4.233396 1.1876,0.127705 2.5905,0.355144 3.1135,0.564854 1.3615,0.545766 4.2911,1.869057 5.5981,5.700148 0.6634,1.944625 1.0507,4.552821 1.1609,6.86902 0.1102,2.316199 -0.1228,4.433326 -0.3968,5.046101 -0.1217,0.271795 -0.5912,0.876431 -1.2858,1.52355 -0.6945,0.647094 -1.6121,1.371608 -2.6482,2.061635 -2.0721,1.380104 -4.6329,2.622689 -6.8077,2.965111 -0.6946,0.109353 -1.2099,0.196798 -1.6468,0.274917 0,-1.037687 0.073,-2.401473 0.2095,-3.888941 0.6473,-7.048377 0.4454,-7.535482 -2.7141,-6.565917 -7.8752,2.658271 -15.0439,7.361635 -20.2033,10.437849 -1.7234,1.019845 -8.1266,5.202151 -14.2284,9.294395 -6.1019,4.092222 -11.2398,7.38724 -11.418,7.321974 -0.7368,-0.269746 14.8733,-18.851304 19.7342,-23.490639 7.7623,-7.408548 12.2192,-10.702344 18.9808,-13.880661 z m 19.2273,49.035782 c -7.5384,6.0215 -17.3306,6.676305 -24.9091,12.48481 -12.4269,4.828021 -24.2119,11.37386 -36.7035,16.78078 -13.1222,6.3374626 -27.26469,12.222337 -39.63285,19.1050283 -2.26377,8.8462627 -2.8178,18.1081937 -5.83993,26.5985917 -0.1149,5.530852 6.87932,8.045659 11.06081,10.032438 4.91073,2.96301 10.13581,6.086643 15.45327,8.108531 23.7304,-8.689599 46.2079,-21.239472 69.5226,-31.331612 11.5199,-6.562848 25.1139,-9.9076776 35.5787,-17.87543028 0.8131,-7.67318922 3.6749,-14.53882372 3.6569,-22.13761972 4.2584,-9.364902 -8.2768,-10.705035 -13.511,-15.32257 -4.4584,-2.248618 -9.5343,-7.766387 -14.6759,-6.442947 z M 998.68079,-2.1414683 C 1027.1448,-13.722702 1054.843,-28.860151 1083.56,-40.48097 c 8.9357,1.767835 17.4131,8.290266 24.8796,14.025068 -2.4124,9.169116 -0.393,21.7882044 -7.3475,27.8443974 -5.0925,4.6432429 -12.3532,3.2524846 -16.8794,8.2037606 -16.0992,6.333726 -31.7142,15.254716 -47.71,21.621376 -7.8071,3.597319 -15.0068,7.791433 -23.2365,10.781746 -5.2642,3.894759 -13.6309,6.753824 -19.19196,1.048465 -5.85805,-4.864693 -19.14844,-6.849438 -15.24415,-16.850275 2.65195,-8.908963 0.82842,-22.1112705 12.57415,-24.3754552 2.8118,-0.6365518 5.04433,-2.43739565 7.27655,-3.9595811 z m 50.31061,-16.2868697 c -0.8883,0.413305 -1.7751,1.101865 -2.8549,2.15648 -2.3954,2.339653 -3.023,4.237211 -2.2602,6.8353621 1.3396,4.5625233 4.402,7.0203959 7.8434,6.2950706 3.9623,-0.8350848 7.7027,-4.3800468 6.7615,-6.408507 -0.724,-1.5602267 -1.9424,-1.2624507 -3.6791,0.8988408 -1.3636,1.6968334 -1.6656,1.8705959 -3.1401,1.8073861 -1.723,-0.073767 -3.9011,-1.1042639 -4.3421,-2.05462 -0.1445,-0.3114888 -0.016,-1.4744386 0.2855,-2.5841376 0.437,-1.610019 0.9137,-2.188311 2.3634,-2.860961 0.9993,-0.463679 2.0468,-0.691793 2.3274,-0.506732 0.6263,0.412757 1.938,-0.168903 2.5598,-1.135116 0.7259,-1.12801 -1.0413,-2.863813 -3.0011,-2.94776 -1.0857,-0.04661 -1.9753,0.09123 -2.8635,0.504699 z m -36.3873,17.3416024 1.0185,2.5713353 1.018,2.5704203 -1.8819,0.8732173 -1.882,0.8732173 -1.5606,-2.3186662 c -1.4641,-2.1756984 -1.6324,-2.2741625 -2.7449,-1.5922503 -1.3983,0.8572197 -1.2675,1.7486908 0.7253,4.9362494 2.0287,3.2448955 2.4473,3.3966245 5.8384,2.1115311 l 2.9637,-1.1232887 1.0314,2.2227801 c 0.5669,1.221633 1.2376,2.296996 1.4913,2.391131 0.94,0.344157 2.595,-0.842569 2.4493,-1.756689 -0.082,-0.513674 -1.3112,-3.6187855 -2.7325,-6.8999248 l -2.5844,-5.9655746 -1.575,0.5527937 z m 5.6931,-2.5733088 c -1.1413,0.5295721 -1.2943,0.8840225 -0.9669,2.2398117 0.5476,2.26630541 4.9681,11.6714497 5.5958,11.9054647 0.2858,0.106312 2.0046,-0.587967 3.8194,-1.5426708 4.1136,-2.1639597 4.8642,-3.522236 3.5329,-6.3915331 -1.2919,-2.78415692 -4.4256,-3.9850495 -7.1269,-2.73166248 -1.2576,0.58351629 -1.3537,0.51351291 -2.4041,-1.75038442 -1.0593,-2.2829751 -1.1376,-2.3380587 -2.4502,-1.7290256 z m 7.9589,-3.6929333 3.0274,6.52463623 c 1.665,3.58838527 3.2342,6.60035047 3.4874,6.69298717 0.7176,0.2628255 2.5973,-0.7563428 2.6808,-1.4532393 0.041,-0.3444541 -1.4031,-3.41432745 -3.209,-6.8221249 l -3.2838,-6.1963684 -1.3513,0.6270218 z m 4.2447,-1.9695644 2.4095,5.330289 c 2.6231,5.8021296 3.4848,7.4498558 4.1132,7.8680278 0.2253,0.149972 0.9424,-0.053861 1.5943,-0.4531782 l 1.1856,-0.7259074 -2.1714,-5.2974426 -2.1714,-5.2974426 1.7007,-0.9671192 1.7002,-0.9680388 2.4081,5.1898665 c 1.4553,3.1363953 2.6607,5.21805186 3.0484,5.26444223 0.3528,0.0423309 1.089,-0.28420215 1.6355,-0.72642293 0.9702,-0.78506558 0.9337,-0.9421827 -1.5404,-6.6470307 -1.3939,-3.2136784 -2.7844,-6.178619 -3.0908,-6.588182 -0.4882,-0.654339 -1.1806,-0.455264 -5.6889,1.636588 z m 24.905,-11.4876449 c -0.6387,0.346878 -0.5885,0.768877 -0.2062,2.146619 0.7144,2.576841 4.8158,11.4027983 5.3986,11.6152017 0.9121,0.3339367 6.4796,-2.6220069 7.5566,-4.0122887 1.0261,-1.324496 1.0115,-1.50646 -0.3063,-3.994414 -1.2719,-2.401843 -1.5498,-2.63367 -3.5453,-2.950483 -1.2461,-0.19785 -2.5722,-0.05071 -3.1232,0.345356 -1.1169,0.802939 -2.0459,0.02699 -2.8958,-2.416743 -0.5092,-1.464012 -0.6793,-1.549373 -2.0873,-1.055543 -0.178,0.06312 -0.3355,0.118952 -0.473,0.17474 -0.12,0.04918 -0.2247,0.09777 -0.316,0.146602 z m 8.9262,-3.924555 2.7012,6.168887 c 1.4854,3.392342 2.9469,6.406661 3.2481,6.69875 0.3288,0.318767 1.039,0.229154 1.7775,-0.222493 l 1.231,-0.751388 -3.0638,-6.602937 -3.0638,-6.602938 -1.4149,0.656522 z m -2.1633,10.470201 c 1.0864,-0.488909 2.2957,-0.05492 2.357,0.845322 0.033,0.489233 -0.3703,1.090932 -0.8973,1.335443 -0.7075,0.328282 -1.1011,0.136164 -1.5051,-0.734566 -0.3009,-0.648498 -0.2805,-1.299334 0.045,-1.446199 z m -37.6923,17.6728407 c 0.3141,-0.118229 0.7677,-0.1130321 1.3594,0.01744 1.082,0.2387031 1.185,0.3844588 0.7631,1.0777504 -0.8852,1.4547183 -2.1663,1.7184718 -2.5222,0.5187561 -0.26,-0.8764116 -0.1237,-1.4169703 0.3997,-1.6139465 z m -18.9043,18.9746743 c -1.1312,0.562576 -1.5462,1.038025 -1.8634,1.90465 -1.2266,3.350296 2.2942,5.7035 3.6154,2.416426 0.6472,-1.610182 1.372,-2.155488 2.1672,-1.631367 0.2811,0.185362 0.063,0.795509 -0.4836,1.356159 -1.2363,1.267291 -0.4767,3.409179 1.1359,3.20311 1.2068,-0.154199 2.3581,0.894474 2.4491,2.23104 0.092,1.346229 -2.1211,2.196979 -2.9868,1.148547 -0.5222,-0.632521 -1.0029,-0.667279 -1.8715,-0.134663 -1.0103,0.619341 -1.0657,0.938891 -0.4091,2.353806 0.5904,1.272415 1.0834,1.647349 2.2151,1.68581 1.8279,0.062 7.2728,-2.398204 7.3852,-3.337155 0.045,-0.380007 -0.532,-2.239986 -1.2832,-4.13336 -0.7511,-1.893388 -1.5494,-4.13091 -1.7743,-4.972348 -0.2903,-1.086038 -0.9542,-1.858652 -2.2874,-2.664296 -1.7302,-1.045482 -2.0935,-1.048291 -4.6164,-0.03539 -0.5593,0.224585 -1.015,0.421674 -1.3922,0.609009 z m 32.4657,-14.9723281 c -0.9552,0.4763433 -0.9446,1.7979526 0.043,3.9272351 0.9989,2.152826 1.038,2.586391 0.2761,3.065773 -1.5504,0.975538 -2.5566,0.448228 -3.7217,-1.950655 -1.0608,-2.183595 -1.1537,-2.24509 -2.6412,-1.723245 -1.2835,0.450406 -1.5011,0.757196 -1.2969,1.827624 0.3984,2.087864 3.0505,5.407025 4.6386,5.806147 0.8317,0.209026 2.2059,-0.0025 3.2952,-0.507973 1.5252,-0.707686 1.9107,-0.702017 2.0954,0.03078 0.173,0.685515 -0.3599,1.237861 -2.2536,2.335342 -2.4141,1.399079 -2.4654,1.480349 -1.9171,3.038947 l 0.563,1.601628 2.6391,-1.224566 c 3.6002,-1.670475 5.2186,-3.542658 4.9963,-5.780868 -0.098,-0.981457 -1.0949,-3.761431 -2.2161,-6.177884 -1.8192,-3.920532 -2.1669,-4.4014535 -3.2245,-4.4618023 -0.5326,-0.030363 -0.9576,0.034705 -1.276,0.1935182 z m 30.0752,-13.9502844 c -0.4531,0.2015865 -0.9509,0.4372026 -1.4981,0.7040582 l -4.0558,1.9859917 2.8115,6.4042907 c 1.5461,3.5225724 3.0689,6.6559762 3.385,6.9621447 0.4584,0.4444766 1.1733,0.1997027 3.5428,-1.2095028 3.6198,-2.1527683 5.1023,-3.957866 4.753,-5.7889076 -0.5652,-2.96242624 -3.5407,-4.1948975 -7.7186,-3.19598577 -0.9736,0.2327484 -1.5547,0.0463486 -1.8522,-0.59478713 -0.3834,-0.8262775 -0.1095,-1.0843435 2.3651,-2.2325777 2.4057,-1.1162396 2.7778,-1.4539613 2.656,-2.4067369 -0.2329,-1.8225318 -1.2162,-2.0376977 -4.3887,-0.6280015 z m -45.8212,21.2912705 c -1.6732,0.827863 -2.05,1.242126 -2.0872,1.895399 -0.071,1.247989 5.0851,11.956388 6.0641,12.593836 0.9787,0.637288 6.3929,-2.610223 7.4439,-4.464895 0.8059,-1.422099 0.4686,-3.426631 -0.8509,-5.057135 -0.775,-0.957805 -3.3857,-1.198374 -6.2059,-0.572971 -1.1703,0.259538 -1.8125,0.103578 -2.0968,-0.50925 -0.3499,-0.754098 0.011,-1.104418 2.4724,-2.392095 2.8648,-1.4989 2.8788,-1.516414 2.2262,-2.922684 l -0.6565,-1.414915 -4.1691,1.854989 c -0.8816,0.391771 -1.5818,0.71543 -2.1403,0.989655 z M 1044.8863,4.35505 c -2.0853,1.0380084 -1.8393,1.9241361 -0.3552,4.587972 2.2177,3.980979 2.7963,6.833925 1.5516,7.646005 -0.7865,0.513127 -0.8286,0.942945 -0.2212,2.252062 0.6733,1.451066 0.8838,1.554551 2.0463,1.012999 3.0009,-1.398884 3.3914,-5.256645 1.0495,-10.3709932 -0.8689,-1.8961637 -0.8871,-2.3109897 -0.121,-2.6664305 0.8344,-0.3871945 1.0128,-0.1381839 2.2415,3.1154965 0.7344,1.9447282 1.876,4.1878432 2.5368,4.9846122 1.0283,1.239951 1.4016,1.355759 2.5871,0.805725 l 1.3844,-0.642406 -3.0637,-6.6029376 -3.0638,-6.6029376 -3.6692,1.320771 c -1.2537,0.451104 -2.2078,0.814081 -2.9031,1.1600622 z m 10.9157,-4.85551627 -1.4645,0.8586186 -1.464,0.85954297 2.1777,5.5811223 c 1.1978,3.0696205 2.5795,6.1303154 3.0707,6.8012224 l 0.893,1.220101 3.5995,-1.873909 c 4.4616,-2.321717 5.206,-3.6038914 3.8218,-6.587108 -0.7937,-1.7104155 -1.2789,-2.1042008 -3.3451,-2.7120243 -1.8211,-0.535623 -2.726,-0.5073137 -3.673,0.1134826 -1.2502,0.8193335 -1.2632,0.8100075 -2.4364,-1.7186205 z m 26.8834,-12.47390773 3.0411,6.5541181 c 1.6726,3.6048219 3.2627,6.63526475 3.5333,6.73432852 0.2703,0.0982697 1.0013,-0.1327769 1.6239,-0.51502059 l 1.132,-0.6943158 -3.0637,-6.60293763 -3.0638,-6.6029376 -1.6016,0.56292 z m -9.2677,4.3729843 2.6249,6.5233332 c 1.4438,3.5879147 2.8537,6.6737197 3.1326,6.8575771 0.814,0.5365663 6.4974,-2.3358364 7.7044,-3.89390625 1.0262,-1.32454063 1.0125,-1.50689815 -0.3053,-3.99485195 -1.272,-2.4018245 -1.5508,-2.6332185 -3.5463,-2.9500455 -1.23,-0.1953241 -2.5736,-0.049943 -3.1107,0.3361802 -1.1098,0.7979095 -1.7519,0.301883 -2.9497,-2.2797382 -0.7972,-1.718042 -0.9515,-1.8042065 -2.2033,-1.2234038 z m -46.001,31.3124277 c 0.2951,-0.172218 0.738,-0.246248 1.3184,-0.213192 1.2515,0.07134 1.2749,0.109678 0.7117,1.128485 -0.8238,1.490256 -1.7453,1.783092 -2.2421,0.712318 -0.363,-0.782425 -0.2797,-1.340617 0.212,-1.627611 z m 53.7511,-24.8755902 c 0.1847,-0.090303 0.4288,-0.1593076 0.7355,-0.2147552 1.2377,-0.2235003 1.8241,0.7726931 0.9722,1.65130419 -1.0087,1.04026297 -1.4578,1.0806245 -1.8805,0.16949929 -0.4038,-0.87022948 -0.3813,-1.33481958 0.1728,-1.60604828 z m -20.842,9.7199381 c 0.2674,-0.1580907 0.693,-0.2483352 1.2939,-0.2925103 1.0843,-0.079751 1.2657,0.071748 1.0529,0.8772134 -0.3763,1.4246614 -1.9402,1.985401 -2.4532,0.8797064 -0.347,-0.7477167 -0.3393,-1.2008588 0.1064,-1.4644095 z m 9.9227,-4.5995804 c 0.2796,-0.1567607 0.7234,-0.2448716 1.3524,-0.2894107 1.3484,-0.0956 1.3703,-0.067212 0.7849,1.0015804 -0.8386,1.5312328 -1.7593,1.8395233 -2.2615,0.7571792 -0.351,-0.7563618 -0.3417,-1.2081104 0.1242,-1.4693489 z m -51.8104,84.6078455 c -0.2032,0.08972 -0.4022,0.193094 -0.5956,0.311057 l -5e-4,-9.44e-4 c -3.0952,1.888062 -5.0042,6.849418 -5.6733,13.231796 -1.3382,12.76474 2.6161,31.48673 16.3997,43.15169 l 0.016,0.014 0.019,0.0134 c 12.7451,9.49553 23.7689,10.55939 36.4886,8.62506 1.6013,-0.24352 3.0876,-0.55016 4.4748,-0.91652 l -0.074,-0.27893 c 8.4403,1.34852 16.37,0.40105 24.7494,-2.23001 13.448,-4.22263 18.3132,-11.58767 24.0772,-20.94165 l -0.087,-0.0525 c 3.6389,-2.08696 7.147,-4.47395 10.549,-7.42146 6.3844,-5.53131 9.5183,-10.88063 11.3106,-16.61318 l -0.2279,-0.0712 c 6.9688,-5.178438 11.8465,-11.620941 15.8081,-19.584458 6.3703,-12.805369 4.2852,-21.478553 1.4761,-32.338564 -0.7182,-2.776527 -1.6149,-4.64604 -2.6882,-5.839095 -1.0735,-1.192902 -2.3851,-1.670348 -3.6351,-1.54192 -2.4999,0.256811 -4.6507,2.522518 -6.1645,4.696288 v 0.0022 0.006 c -8.8725,13.170453 -17.7326,21.306517 -28.0799,25.930097 -10.346,4.622934 -22.2317,5.750131 -37.1883,4.748425 l -0.01,-0.0016 c -4.0507,-0.307312 -7.0301,0.08741 -9.1072,1.090069 -2.0781,1.00322 -3.2149,2.709396 -3.3433,4.68697 -0.1042,1.606669 0.5025,3.384833 1.4623,5.219011 -2.7197,-1.139945 -5.4585,-2.327984 -8.3444,-3.765399 l -0.01,-0.0016 c -3.6199,-1.843172 -6.5199,-2.62786 -8.8229,-2.50224 -2.3041,0.125665 -4.0121,1.259896 -4.892,3.035619 -0.6205,1.252301 -0.7666,2.854572 -0.7073,4.584515 -0.3771,-0.439347 -0.7522,-0.864964 -1.131,-1.315652 -2.5878,-3.135394 -4.9356,-5.012836 -7.0991,-5.815359 -2.1635,-0.802502 -4.182,-0.441991 -5.6964,0.836293 -1.7047,1.438963 -2.711,4.041426 -3.3229,7.165056 -1.7745,-2.868098 -3.5194,-4.79737 -5.2555,-5.765105 -1.6087,-0.896735 -3.2538,-0.975574 -4.6768,-0.348844 z m 0.5527,1.226894 c 1.0443,-0.481114 2.1441,-0.434232 3.465,0.302064 1.5096,0.841492 3.2539,2.665222 5.0653,5.710046 v 0.0038 c 0.2046,0.337256 0.4105,0.673535 0.6153,1.005251 l 0.074,-0.04778 c -0.2334,1.956733 -0.5726,3.805837 -0.4598,6.111974 0.6923,14.15347 8.1655,33.92496 25.1718,44.3285 l 0.019,0.0125 0.02,0.007 c 4.8333,2.55932 9.2875,4.00929 13.6181,5.00037 -0.5744,0.11096 -1.0864,0.25436 -1.6962,0.34709 -12.5352,1.90627 -22.9847,0.92978 -35.4706,-8.37087 -7e-4,-0.001 -9e-4,-0.002 -0.01,-0.002 -13.3079,-11.28659 -17.1879,-29.6102 -15.8941,-41.9511 0.6473,-6.175374 2.6738,-10.780443 5.0317,-12.21873 l -4e-4,-9.44e-4 c 0.1474,-0.08988 0.2958,-0.169057 0.4449,-0.237811 z m 14.4976,-1.854882 c 0.3222,-0.156492 0.6595,-0.263434 1.0166,-0.318335 0.7138,-0.109342 1.5064,-0.008 2.4111,0.327613 1.8105,0.671575 4.0333,2.378558 6.5318,5.405777 v 0.0038 c 0.7692,0.915078 1.5348,1.803827 2.2985,2.673711 0.4565,2.671963 1.52,5.686051 3.0843,8.854791 6.2727,12.70647 21.0046,27.86327 40.7475,30.63186 l 0.018,0.004 0.023,0.002 c 10.8647,0.8415 19.0677,-1.18731 26.3881,-4.89908 -5.24,8.38877 -9.9562,14.73334 -22.1742,18.56971 -13.38,4.20125 -24.9947,4.89917 -40.2151,-3.15238 -16.4932,-10.09861 -23.847,-29.49627 -24.5188,-43.22991 -0.3359,-6.868911 1.0926,-12.262438 3.4613,-14.261902 0.2961,-0.24993 0.6031,-0.455313 0.9252,-0.611773 z m 15.949,0.0062 c 0.5184,-0.228337 1.1297,-0.365754 1.8528,-0.405209 1.9282,-0.105163 4.6458,0.57591 8.1433,2.357452 v 0.0028 l 0.01,0.0016 c 3.5567,1.771711 6.9786,3.321838 10.3071,4.64922 1.4222,2.039583 3.1686,4.123855 5.522,6.17544 10.6814,9.311694 30.1148,17.627754 49.4016,12.581214 l 0.02,-0.006 0.022,-0.006 c 5.3164,-1.7497 9.5133,-4.02022 13.2862,-6.52866 -1.7992,4.86561 -4.5397,9.46063 -10.1034,14.28091 -10.6007,9.18435 -20.978,14.45214 -38.1501,13.12743 -19.1471,-2.6961 -33.613,-17.55903 -39.6988,-29.887 -3.0441,-6.166648 -3.8851,-11.684275 -2.5088,-14.46179 0.3441,-0.694372 0.8014,-1.238803 1.4128,-1.623873 l -5e-4,-9.44e-4 c 0.1528,-0.09624 0.3154,-0.181766 0.4882,-0.257879 z m 21.4241,-4.17544 c 1.7391,-0.839428 4.5059,-1.25549 8.4197,-0.957984 l 0.01,0.0016 v -0.0022 c 15.0743,1.010063 27.2093,-0.114655 37.8341,-4.862238 10.6248,-4.747512 19.6882,-13.102282 28.6498,-26.405032 1.405,-2.015119 3.4814,-3.940875 5.1866,-4.116066 0.8536,-0.08769 1.6439,0.160325 2.4921,1.1028 0.8482,0.9425 1.6963,2.619826 2.3821,5.271356 2.8071,10.852035 4.8379,18.910701 -1.374,31.397872 -6.2479,12.559361 -13.7961,21.415779 -30.1582,26.804879 -18.7079,4.88221 -37.782,-3.26313 -48.1446,-12.296872 -5.1838,-4.519108 -8.0824,-9.289713 -7.8817,-12.382999 0.1004,-1.546628 0.8461,-2.716524 2.585,-3.555986 z m 47.1682,79.796397 c -0.95,0.47912 -2.1223,1.37434 -1.1727,2.41143 1.5052,2.89231 2.6368,6.02997 4.1375,8.86877 1.7392,1.60161 4.2958,0.21849 5.6886,-1.19088 1.5396,-1.33163 2.7056,-4.18131 0.9371,-5.77591 -0.5508,-0.63225 -1.9781,-0.16659 -1.5945,-1.44094 0.2031,-2.4331 -2.3008,-4.23771 -4.5884,-3.88603 -1.049,0.0664 -2.0846,0.35414 -3.0194,0.83455 -0.1197,0.051 -0.2525,0.11061 -0.3883,0.17901 z m -54.0298,25.08549 c -4.1456,2.11658 -4.4037,8.70491 -0.5776,11.27936 2.6847,2.14162 7.5121,1.35457 8.8632,-1.94183 0.3303,-1.35145 -0.2984,-2.68604 -0.5554,-3.98853 -0.3388,2.05804 -1.5703,4.75381 -4.0853,4.47265 -2.813,-0.11316 -5.3051,-3.05221 -4.4076,-5.8126 -0.1739,-1.75705 2.1016,-2.03844 3.4179,-1.89377 1.1906,0.0644 2.874,-1.00769 2.0432,-2.33284 -1.187,-0.93819 -3.3712,-0.38926 -4.6984,0.21756 z m 46.9142,-21.76821 c -4.1485,2.11902 -4.4025,8.71555 -0.5696,11.28685 2.7145,2.15582 7.6452,1.32189 8.886,-2.08564 0.2597,-1.29853 -0.3302,-2.55979 -0.6009,-3.80175 -0.3311,2.10344 -1.6859,4.83903 -4.2434,4.39713 -2.7454,-0.18854 -5.1083,-3.09266 -4.2339,-5.78796 -0.1614,-1.83014 2.189,-2.00529 3.5415,-1.90969 1.1946,0.047 2.7646,-1.09562 1.8878,-2.36602 -1.2808,-0.88723 -3.3177,-0.32923 -4.6675,0.26708 z m 39.62,-18.30758 c -0.1435,0.062 -0.2849,0.12764 -0.4233,0.19755 -3.6004,1.62834 -4.1814,6.86618 -1.604,9.64649 1.9013,2.68572 6.2249,3.67298 8.7046,1.21709 3.9195,-3.40121 1.3022,-10.41981 -3.469,-11.45486 -1.0768,-0.24925 -2.202,-0.037 -3.2083,0.39375 z m -80.3678,37.35229 c -1.3709,0.77496 0.1102,2.342 0.461,3.23972 1.2763,2.41688 2.1237,5.04737 3.3819,7.43823 0.6684,0.83691 2.5264,1.1048 2.6976,-0.28556 -0.9234,-2.27298 -2.1975,-4.38687 -3.0457,-6.69417 1.4492,1.1417 2.2686,3.38114 4.246,3.74153 1.9218,-0.21356 2.1166,-2.62531 2.0362,-4.14542 0.072,-0.46229 -0.3723,-2.26863 0.1211,-1.22273 1.1328,1.66737 0.9307,4.31794 2.9062,5.32709 1.0103,0.62191 2.8646,-0.43377 1.652,-1.50877 -1.7285,-2.97058 -2.5743,-6.54625 -4.6753,-9.30882 -1.0228,-0.81986 -2.5327,0.0471 -2.6518,1.2674 -0.8981,2.08054 0.2337,4.38229 0.1142,6.43224 -0.9525,-0.49065 -1.4346,-1.7014 -2.2609,-2.42136 -1.2024,-1.46168 -3.0513,-2.79227 -4.9825,-1.85936 z m 21.9705,-10.07454 c -1.025,0.90523 0.3833,2.06189 0.6145,3.00842 1.5425,2.54025 1.9091,5.91856 4.2397,7.93582 0.9231,0.54616 1.9326,-0.58239 1.4158,-1.48203 -0.2496,-1.21398 -1.5314,-2.72954 -0.4216,-3.80879 2.3358,-0.8123 3.7002,1.73183 5.668,2.39098 0.8874,0.41941 2.2265,-0.33439 1.6196,-1.38067 -1.1737,-2.39425 -4.7949,-1.70026 -5.8383,-4.1188 -0.5922,-1.85128 1.1599,-3.4777 1.0791,-5.17792 -0.4974,-1.18795 -2.0999,-0.50703 -2.2922,0.52956 -1.1355,1.78064 -1.638,4.04152 -2.2769,5.88486 -0.6359,-1.47543 -1.1289,-3.85073 -3.079,-4.04228 -0.2596,0.0288 -0.496,0.15158 -0.7287,0.26085 z m 37.5398,-17.38382 c -1.4319,0.75387 -0.3186,2.4598 -0.5052,3.63543 0.3646,3.02792 0.091,6.26884 0.9177,9.16267 0.7761,0.82988 2.2069,-0.0145 1.9514,-1.08792 -0.071,-1.22296 0.159,-3.05802 1.7181,-3.10338 0.8167,-0.75116 2.088,-1.13889 2.8906,-0.17586 1.1316,0.84269 2.9375,1.40326 4.0006,0.12189 -2.8841,-2.68151 -5.6606,-5.49506 -8.4348,-8.27419 -0.7361,-0.48344 -1.7235,-0.69071 -2.5384,-0.27864 z m 12.8682,-5.9651 c -2.1651,1.10987 -4.4526,2.05306 -6.6449,3.14479 1.5003,3.14691 2.9745,6.29807 4.135,9.52929 1.6192,1.95992 4.5684,0.87962 6.1615,-0.56507 1.9947,-1.25359 2.962,-4.5544 0.8359,-6.14097 -1.9487,-1.58439 -4.8778,-1.24762 -6.7956,0.05 -0.8771,-0.38899 -1.2958,-1.75574 -0.1475,-2.10564 1.4285,-0.79735 3.8995,-1.59835 3.6563,-3.69144 0.1931,-1.1095 -0.6712,-0.37818 -1.2007,-0.22092 z m 26.3334,-12.21641 c -1.2869,0.93024 0.5498,2.31029 0.7038,3.40131 1.5171,2.42474 1.9021,5.62978 3.9962,7.64244 1.3099,0.62395 2.4823,-0.66147 3.7777,-0.68151 3.1941,-1.16009 4.1027,-6.51289 0.8213,-8.11006 -1.7149,-0.89776 -3.4654,0.38844 -4.8318,1.27136 -1.7358,-0.49924 -1.5012,-3.35631 -3.4854,-3.66342 -0.331,-0.0594 -0.6815,-0.0126 -0.9818,0.13988 z m -8.3829,3.89635 c -1.0727,0.51504 -1.493,1.84289 -0.9262,2.91615 0.6871,2.5058 3.1181,4.98521 1.8995,7.68386 -0.8041,1.12324 -0.4686,2.56194 0.4448,3.50142 0.38,0.75729 1.8762,1.79726 1.9342,0.38546 0.1291,-1.1141 -0.039,-2.89216 1.5315,-2.92163 1.6782,-0.43673 3.1034,-1.93007 4.8499,-1.89327 0.3551,0.78363 0.992,1.81902 2.0332,1.43332 1.1065,-1.58874 -0.01,-4.59335 -2.158,-4.28159 l -4.2918,-9.24945 c -1.679,0.81915 -3.4123,1.5189 -5.0932,2.33413 -0.077,0.0271 -0.1519,0.0582 -0.2239,0.0916 z m 16.7593,-7.76292 c -0.8204,0.61526 0.026,1.94568 0.4195,2.73283 1.5367,2.31723 2.0158,5.14659 3.5012,7.48254 0.4519,1.22874 3.1236,1.27387 2.7965,-0.32811 -1.7596,-2.98615 -2.839,-6.36363 -4.4495,-9.40126 -0.5621,-0.60096 -1.5124,-0.87991 -2.2675,-0.48607 z m -92.2643,42.81529 c -0.824,0.70645 0.02,2.38669 -0.1804,3.4668 0.2439,3.07789 0.1679,6.30603 0.9528,9.26502 0.6972,0.94779 2.1664,0.0645 1.8974,-0.99455 0,-1.15807 -0.057,-2.80685 1.4319,-2.98179 0.9321,-0.6136 2.6096,-1.85281 3.3873,-0.42759 0.6931,0.88246 2.5429,1.5572 2.9881,0.0969 0.2379,-1.93151 -2.1048,-2.52487 -3.1792,-3.63085 -1.8393,-2.09832 -3.9308,-5.8181 -7.2979,-4.79389 z m 35.1527,-14.05736 c 0.3664,-0.16599 0.8933,-0.22401 1.2234,-0.42769 1.7255,-0.55309 2.4045,2.63235 0.4875,2.81208 -1.0903,0.58434 -2.23,-0.96896 -2.1198,-1.91475 0.027,-0.23127 0.1891,-0.37008 0.4089,-0.46964 z m 43.0506,-19.93518 c 0.1754,-0.0879 0.3559,-0.16458 0.5204,-0.24149 1.3838,-0.11089 1.4128,1.7666 1.9192,2.68851 0.6505,1.47607 1.808,2.82951 1.8665,4.493 -1.0095,0.14629 -1.9402,1.54554 -2.8802,1.06212 -0.2382,-2.41952 -1.9997,-4.34678 -2.3465,-6.70737 -0.095,-0.68446 0.3931,-1.03321 0.9206,-1.29477 z m -11.9524,5.56941 c 2.5135,-1.19527 4.9569,1.59453 5.2413,3.9469 0.5333,2.12338 -1.5612,4.76657 -3.7854,3.55545 -2.6213,-1.25548 -4.9329,-5.75677 -1.4559,-7.50235 z m -64.0115,31.4881 c 0.8958,0.88044 2.259,1.42413 2.625,2.72595 -0.555,0.48818 -2.0058,1.68078 -2.4018,0.45732 -0.2636,-1.04029 -0.2313,-2.13066 -0.2232,-3.18327 z m 44.3775,-20.58109 c 0.8422,0.87472 2.521,1.53478 2.5056,2.80153 -0.5537,0.56367 -2.1286,1.59533 -2.3246,0.20651 -0.2412,-0.97969 -0.2011,-2.02536 -0.181,-3.00804 z m 11.6273,-1.97054 c 1.5544,-0.61489 3.4697,1.93322 1.6949,2.88323 -0.9257,1.03604 -3.198,1.47523 -3.3622,-0.41809 -0.054,-1.06252 0.7135,-2.06372 1.6673,-2.46514 z m 32.2962,-14.98546 c 1.5686,-0.60504 3.4451,1.96926 1.6666,2.90196 -0.9002,0.90934 -2.9344,1.51712 -3.3131,-0.21585 -0.2025,-1.13542 0.6283,-2.26285 1.6465,-2.68611 z m -53.6763,25.05133 c 0.118,0.0562 0.2277,-0.0818 0.38,-0.0957 0.36,-0.17165 0.7079,-0.36952 1.0684,-0.53943 1.0651,-0.59471 2.6082,-0.0136 2.4057,1.35334 -0.024,1.78605 -2.6503,2.86928 -3.6684,1.20176 -0.4548,-0.48225 -0.8984,-1.57908 -0.1857,-1.92 z"
         style="opacity:1;fill:#000000;stroke:none;stroke-width:0.5199365"
         inkscape:connector-curvature="0" />
      <g
         id="g3248">
        <path
           inkscape:connector-curvature="0"
           style="opacity:1;vector-effect:none;fill:#008000;fill-opacity:1;fill-rule:nonzero;stroke:none;stroke-width:1.35183477;stroke-linecap:butt;stroke-linejoin:miter;stroke-miterlimit:4;stroke-dasharray:none;stroke-dashoffset:0;stroke-opacity:1"
           d="m 925.24345,-89.410608 c -4.34388,1.971087 -5.83937,3.416387 -5.97379,5.773204 -0.0211,0.370377 -0.10566,0.697761 -0.26562,1.019967 0.0208,0.143727 0.30195,2.058511 0.67433,4.210979 0.90998,5.989717 1.11327,8.316512 5.52108,12.082307 2.37055,2.158906 5.69774,2.491927 8.63746,1.943438 1.8655,-0.348051 5.4995,-1.234043 7.68539,-2.386076 14.70497,-7.749972 25.20504,-14.861782 33.76714,-24.479504 9.51076,-9.130407 25.23716,-28.233337 24.3749,-28.549047 -0.14955,-0.0547 -1.10079,0.54441 -2.11343,1.33216 -13.32912,10.36792 -41.05402,27.810402 -53.69504,33.780909 -1.40973,0.663861 -11.59026,5.597199 -13.35433,4.070503 -0.30694,-0.544162 -0.31457,-3.165722 -0.0165,-5.826027 0.63701,-5.683164 0.67945,-5.659522 -5.2407,-2.973229 z"
           id="path2480" />
        <path
           inkscape:connector-curvature="0"
           style="opacity:1;vector-effect:none;fill:#008000;fill-opacity:1;fill-rule:nonzero;stroke:none;stroke-width:1.35183477;stroke-linecap:butt;stroke-linejoin:miter;stroke-miterlimit:4;stroke-dasharray:none;stroke-dashoffset:0;stroke-opacity:1"
           d="m 1062.9192,-92.719812 c -6.7616,3.178303 -11.2185,6.472113 -18.9808,13.880661 -4.8609,4.639335 -20.471,23.220893 -19.7342,23.490639 0.1782,0.06527 5.3161,-3.229752 11.418,-7.321974 6.1018,-4.092244 12.505,-8.27455 14.2284,-9.294395 5.1594,-3.076214 12.3281,-7.779578 20.2033,-10.437849 3.1595,-0.969565 3.3614,-0.48246 2.7141,6.565917 -0.1366,1.487468 -0.2047,2.851254 -0.2095,3.888941 0.4369,-0.07812 0.9522,-0.165564 1.6468,-0.274917 2.1748,-0.342422 4.7356,-1.585007 6.8077,-2.965111 1.0361,-0.690027 1.9537,-1.414541 2.6482,-2.061635 0.6946,-0.647119 1.1641,-1.251755 1.2858,-1.52355 0.274,-0.612775 0.507,-2.729902 0.3968,-5.046101 -0.1102,-2.316199 -0.4975,-4.924395 -1.1609,-6.86902 -1.307,-3.831091 -4.2366,-5.154382 -5.5981,-5.700148 -0.523,-0.20971 -1.9259,-0.437149 -3.1135,-0.564854 -3.7603,-0.310052 -8.3882,2.549627 -12.5521,4.233396 z"
           id="rect2426" />
        <path
           style="opacity:1;vector-effect:none;fill:#d40000;fill-opacity:1;fill-rule:nonzero;stroke:none;stroke-width:5.1092968;stroke-linecap:butt;stroke-linejoin:miter;stroke-miterlimit:4;stroke-dasharray:none;stroke-dashoffset:0;stroke-opacity:1"
           d="m 3994.0449,1918.9785 c -19.6552,0.3575 -40.1192,5.4916 -62.4375,15.9277 -33.7251,15.7707 -71.6821,43.6456 -117.4726,85.4376 -12.0106,10.9619 -20.1877,19.892 -20.6817,20.3554 -8.0451,7.6041 -15.9146,15.3304 -23.6621,23.1231 -5.165,5.1951 -10.2751,10.4199 -15.3476,15.6582 -27.8989,28.8104 -54.6386,58.0262 -82.8672,84.9433 -29.6954,28.9747 -64.9728,52.5329 -114.668,76.9942 -8.1376,4.0056 -19.3881,6.6336 -26.3555,7.9336 -0.7698,0.1436 -1.5477,0.2743 -2.3339,0.3886 -1.5725,0.2288 -3.1749,0.3967 -4.795,0.4942 -10.5304,0.6333 -21.8132,-1.7091 -30.5371,-9.6543 -7.2573,-6.6098 -12.092,-15.2245 -14.7949,-21.543 -2e-4,-6e-4 2e-4,-0 0,-0 -0.7368,-1.7226 -1.3164,-3.2742 -1.7422,-4.5684 -2e-4,-7e-4 2e-4,-0 0,-0 -0.2839,-0.863 -0.5004,-1.6108 -0.6504,-2.2187 -6.5584,-26.5906 -4.748,-21.3395 -7.3457,-31.9004 -1.0514,0.8672 -2.2232,1.7771 -3.6367,2.8047 -6.808,4.9501 -14.0472,12.4742 -19.2832,19.5117 -1.1636,1.5639 -2.2269,3.1037 -3.166,4.5859 -2.3477,3.7056 -3.9107,7.0513 -4.2715,9.5118 -1.2348,8.4199 4.9469,25.3062 35.7949,97.7422 23.2653,54.6307 34.6231,81.3834 41.5625,95.6113 1.7349,3.557 3.1927,6.3311 4.4922,8.5625 1.9493,3.347 3.54,5.4717 5.168,7.1855 0.5426,0.5713 1.0908,1.0977 1.6562,1.6075 0.5655,0.5097 1.1481,1.0034 1.7656,1.5117 4e-4,3e-4 0,-4e-4 0,0 0.6172,0.5079 1.2684,1.0313 1.9668,1.5976 21.0632,17.08 54.4694,20.6028 98.6602,10.4707 3.0476,-0.6987 6.1471,-1.4623 9.2968,-2.291 1.5749,-0.4143 3.1616,-0.8442 4.7617,-1.291 8.7335,-2.4388 20.3538,-7.0422 32.8477,-12.8027 4.1647,-1.9202 8.4265,-3.969 12.7109,-6.1094 17.1378,-8.5615 34.6366,-18.5852 47.7305,-27.6914 25.7994,-17.9424 45.5202,-34.9617 73.3984,-65 4e-4,-4e-4 -3e-4,-0 0,-0 7.6031,-8.1921 15.8143,-17.3519 24.92,-27.7636 3e-4,-4e-4 -3e-4,-0 0,-0 3.035,-3.4704 6.1693,-7.079 9.414,-10.8379 3e-4,-3e-4 -3e-4,-0 0,-0 3.2452,-3.7593 6.6019,-7.6676 10.0782,-11.7364 18.6663,-21.848 34.2498,-39.5385 47.914,-54.2597 5.4657,-5.8885 10.6251,-11.302 15.5508,-16.3164 22.1657,-22.5649 39.6171,-37.0487 59.1328,-50.3848 34.6744,-23.695 56.7572,-34.8909 75.0762,-38.1953 1.3569,-0.2448 2.6944,-0.4454 4.0137,-0.6055 1.9788,-0.2401 3.9179,-0.3873 5.832,-0.4473 4.6318,0.4982 13.3512,1.2388 16.6973,2.5801 0.6874,0.2756 1.4919,0.6113 2.3847,1.0196 0.8928,0.4082 1.8742,0.8887 2.9141,1.455 2.0798,1.1327 4.3944,2.6083 6.7129,4.5254 4e-4,4e-4 0,-3e-4 0,0 1.1589,0.9584 2.3181,2.0284 3.4492,3.2207 1.1315,1.1928 2.2358,2.5087 3.2813,3.961 0.2614,0.363 0.5178,0.7349 0.7715,1.1152 0.5074,0.7606 0.9993,1.5549 1.4707,2.3867 0.2356,0.4159 0.4661,0.8411 0.6914,1.2754 0.4506,0.8686 0.8796,1.7742 1.2832,2.7188 0.4035,0.9446 0.7816,1.9293 1.1308,2.9531 2.7568,8.0801 4.2236,18.2454 4.6583,27.375 0.1086,2.2824 0.1678,4.4769 0.164,6.5566 0,7e-4 0,0 0,0 -0,1.0391 -0.02,2.0495 -0.055,3.0273 0,7e-4 1e-4,0 0,0 -0.1757,4.8916 -0.7876,8.9733 -2.0508,11.7968 -1.0688,2.3897 -3.1655,4.7449 -6.041,7.4239 -2.8754,2.679 -6.5262,5.5526 -10.6523,8.3008 -8.2522,5.4963 -18.3186,10.4995 -27.7637,11.9863 -3.0637,0.4823 -5.1464,0.8491 -6.8457,1.166 0.066,0.5926 0.1482,1.067 0.2481,1.4063 0.1,0.3392 0.2183,0.5447 0.3515,0.5976 4.1469,1.6319 30.2912,-5.6975 51.9531,-14.5625 16.8514,-6.8964 26.2701,-11.8275 36.2813,-19.0078 13.1592,-9.438 22.8764,-19.2478 26.4023,-26.2402 3e-4,-6e-4 -2e-4,-0 0,-0 1.1751,-2.3308 1.6623,-4.3468 1.3594,-5.9336 -0.4985,-2.6112 -22.5498,-50.7397 -49.0019,-106.9492 l -48.0957,-102.1973 -10.9473,-7.3515 c -8.1203,-5.4534 -16.1458,-9.7762 -24.2559,-13.0391 -5e-4,-2e-4 -0,2e-4 -0,0 -2.0277,-0.8157 -4.0604,-1.5655 -6.1016,-2.25 -2.0412,-0.6845 -4.09,-1.3038 -6.1504,-1.8594 -4.1207,-1.1112 -8.2861,-1.9668 -12.5175,-2.5761 -6.4104,-0.9231 -12.8721,-1.334 -19.4239,-1.2149 z m -37.7148,52.5918 c 0.775,-0.01 1.539,0 2.291,0.045 5.265,0.285 9.9359,1.8196 13.5977,4.6563 0.4618,0.3578 0.8878,0.7062 1.2792,1.043 1.9581,1.684 3.0341,3.1056 3.2168,4.291 0.055,0.3555 0.03,0.6885 -0.076,1.0019 -0.071,0.209 -0.1775,0.4089 -0.3203,0.5996 -1.0711,1.4302 -4.1672,2.3525 -9.3301,2.8457 -0.8017,0.077 -1.5868,0.1651 -2.3535,0.2676 -4.5998,0.6149 -8.5918,1.707 -12.211,3.4024 -1.2065,0.5652 -2.3733,1.198 -3.5058,1.9023 -3.9633,2.4648 -7.5278,5.8108 -11.0664,10.2402 -0.5346,0.6692 -1.0466,1.3343 -1.5371,1.9961 -0.9812,1.3237 -1.8755,2.6375 -2.6895,3.961 -0.814,1.3234 -1.5467,2.6556 -2.2051,4.0175 -1.6459,3.4049 -2.8243,6.9901 -3.625,11.0586 -0.3202,1.6275 -0.5798,3.3335 -0.7851,5.1348 -0.2054,1.8014 -0.357,3.6989 -0.459,5.7129 -0.1021,2.014 -0.1556,4.1429 -0.166,6.4082 -0.014,3.1534 0.2101,6.3269 0.6386,9.4355 0.2857,2.0724 0.6622,4.1163 1.1211,6.1075 2.524,10.9516 7.5255,20.3049 13.4356,23.9804 0.9298,0.5783 1.8068,1.0423 2.6367,1.3907 0.4149,0.1741 0.8169,0.3202 1.209,0.4355 2.3529,0.6924 4.3074,0.3153 6.0215,-1.2285 0.5713,-0.5148 1.1171,-1.1594 1.6406,-1.9375 0.2615,-0.3886 0.5178,-0.8119 0.7695,-1.2676 3e-4,-5e-4 -2e-4,-0 0,-0 0.252,-0.4563 0.5005,-0.9463 0.7442,-1.4707 0.4873,-1.0489 0.9591,-2.2335 1.4218,-3.5606 0.2314,-0.6635 0.4601,-1.3632 0.6875,-2.0976 0.8239,-2.6604 1.3999,-5.3474 1.7246,-8.084 0.4331,-3.6489 0.4188,-7.3869 -0.053,-11.2696 -0.943,-7.7653 -3.7145,-16.1101 -8.3945,-25.4843 -0.585,-1.1718 -1.2009,-2.3597 -1.8457,-3.5645 -1.1343,-2.1194 -2.125,-3.9775 -2.9688,-5.6172 -1.2656,-2.4594 -2.1973,-4.427 -2.7754,-6.0508 -0.289,-0.8119 -0.4901,-1.5374 -0.5996,-2.1953 -0.073,-0.4385 -0.1063,-0.8468 -0.098,-1.2304 0.022,-0.9591 0.301,-1.7637 0.8496,-2.4981 0.11,-0.1472 0.2315,-0.2913 0.3633,-0.4336 0.1311,-0.1416 0.2729,-0.2818 0.4257,-0.4199 0.6125,-0.5532 1.4003,-1.0845 2.3692,-1.6348 0.4848,-0.2753 1.0155,-0.5549 1.5918,-0.8457 1.1525,-0.5816 2.4902,-1.2053 4.0176,-1.914 1.4218,-0.6598 2.8212,-1.2318 4.1992,-1.7129 0.6892,-0.2407 1.3737,-0.4589 2.0527,-0.6543 0.6784,-0.1953 1.3529,-0.3678 2.0215,-0.5176 0.6692,-0.1499 1.3343,-0.2769 1.9941,-0.3809 2.6394,-0.416 5.2058,-0.4645 7.7149,-0.1328 0.6273,0.083 1.2508,0.1898 1.8711,0.3203 6e-4,2e-4 0,-10e-5 0,0 1.2401,0.261 2.4666,0.6192 3.6817,1.0723 4.8632,1.8137 9.5411,5.1775 14.1562,10.1797 1.1537,1.2504 2.3036,2.6021 3.4512,4.0586 1.1476,1.4565 2.2921,3.0164 3.4375,4.6816 1.7181,2.4979 3.4364,5.2317 5.1601,8.2071 3e-4,5e-4 -2e-4,0 0,0 1.7235,2.975 3.4535,6.1908 5.1954,9.6524 1.1614,2.308 2.3295,4.7261 3.5039,7.2539 5.5074,11.8564 8.3307,18.9078 9.0156,22.6914 0.057,0.3153 0.099,0.6061 0.1269,0.8769 10e-5,6e-4 0,0 0,0 0.055,0.5407 0.053,0.9953 -0.01,1.3691 -0.029,0.1872 -0.072,0.354 -0.1289,0.502 -0.042,0.1082 -0.1062,0.236 -0.1934,0.3808 -0.2616,0.4345 -0.7237,1.0279 -1.3476,1.7481 -4.5754,5.2809 -17.9124,17.3624 -25.6348,23.3261 -0.702,0.5422 -1.3586,1.0336 -1.957,1.4649 -1.1962,0.8621 -2.1639,1.4843 -2.8164,1.7871 -0.2067,0.096 -0.4274,0.1725 -0.6563,0.2305 -1.6019,0.4051 -3.6566,-0.098 -4.8672,-1.2715 -0.6699,-0.6496 -1.2129,-1.0135 -1.7246,-0.9922 -0.1023,0 -0.204,0.025 -0.3047,0.061 -0.3014,0.1078 -0.5983,0.3606 -0.9121,0.7793 -0.3143,0.4195 -0.6454,1.0056 -1.0137,1.7793 -0.4909,1.0317 -1.0495,2.3972 -1.7226,4.1465 -0.4346,1.1294 -0.9992,2.3704 -1.6484,3.6485 -1.6231,3.1952 -3.772,6.6153 -5.7188,9.0605 -0.3894,0.489 -0.7693,0.9404 -1.1367,1.3418 -0.4169,0.4555 -0.8731,0.9132 -1.3633,1.3711 -0.4902,0.4579 -1.016,0.915 -1.5703,1.3711 -0.5539,0.4557 -1.1372,0.9117 -1.7461,1.3613 -0.6093,0.4499 -1.2452,0.8946 -1.9004,1.334 -1.31,0.8785 -2.7038,1.7323 -4.1426,2.543 -0.7196,0.4054 -1.4512,0.8016 -2.1894,1.1836 -4.4289,2.2916 -9.1109,4.1216 -13.0606,5.0254 -0.6583,0.1506 -1.297,0.276 -1.9101,0.373 -1.2256,0.1937 -2.3534,0.2771 -3.3438,0.2305 -0.4155,-0.02 -0.8519,-0.056 -1.3086,-0.1074 -0.456,-0.052 -0.9302,-0.1202 -1.4199,-0.2012 -3.9179,-0.6485 -8.7929,-2.1918 -12.7227,-3.9238 -0.4911,-0.2165 -0.9659,-0.4354 -1.4238,-0.6563 -0.4585,-0.2212 -0.8987,-0.4431 -1.3164,-0.666 -0.4172,-0.2227 -0.8106,-0.4464 -1.1797,-0.668 -1.1071,-0.6648 -1.9816,-1.3184 -2.5215,-1.9238 -1.0227,-1.147 0.4154,2.7328 3.1914,8.6269 0.7534,1.5977 1.3921,3.0954 1.9122,4.5176 0.52,1.4223 0.9211,2.7698 1.1972,4.0703 0.6903,3.2513 0.6007,6.2057 -0.3515,9.2832 -0.3809,1.231 -0.9,2.4822 -1.5625,3.7793 -0.3313,0.6486 -0.6979,1.3092 -1.1016,1.9844 -0.8074,1.3503 -1.7601,2.7609 -2.8652,4.2578 -1.1052,1.497 -2.3618,3.0801 -3.7754,4.7774 -1.8892,2.2681 -3.7742,4.3704 -5.6543,6.3086 -0.9401,0.969 -1.8798,1.8981 -2.8184,2.7851 -7.5082,7.0952 -14.9753,11.5669 -22.5293,13.4805 -0.9443,0.2392 -1.8906,0.4382 -2.8379,0.5976 -0.4736,0.08 -0.9474,0.1492 -1.4218,0.209 -0.4745,0.06 -0.9505,0.1105 -1.4258,0.1504 -2.8514,0.2393 -5.7201,0.1204 -8.6114,-0.3516 l -8.1054,-1.3203 0.8125,6.9864 c 0.055,0.4746 0.093,0.9527 0.1152,1.4336 0.022,0.4808 0.028,0.9647 0.018,1.4511 -0.03,1.4594 -0.2031,2.9419 -0.5137,4.4395 -0.3106,1.4976 -0.7573,3.0095 -1.334,4.5273 -0.3844,1.0119 -0.827,2.0268 -1.3242,3.041 -0.2486,0.5071 -0.5111,1.0148 -0.7871,1.5215 -0.552,1.0134 -1.1582,2.0236 -1.8164,3.0313 -0.6582,1.0077 -1.3688,2.0111 -2.1289,3.0078 -0.7601,0.9967 -1.5701,1.9864 -2.4277,2.9668 -0.8576,0.9803 -1.7622,1.9515 -2.7129,2.9101 -0.4754,0.4794 -0.9631,0.9568 -1.461,1.4297 -2.489,2.3643 -5.2558,4.6449 -8.2656,6.7989 -0.602,0.4308 -1.2147,0.8569 -1.8359,1.2773 -3.7271,2.5223 -7.795,4.8525 -12.1446,6.916 -11.2078,5.3176 -16.0783,6.6383 -23.0859,6.2715 -1.4665,-0.077 -2.918,-0.2134 -4.3516,-0.4082 -0.7164,-0.097 -1.4268,-0.2081 -2.1328,-0.334 -4.2367,-0.7556 -8.2719,-2.019 -11.9453,-3.7265 -0.6121,-0.2846 -1.2134,-0.5819 -1.8047,-0.8907 -3.5478,-1.8529 -6.7063,-4.1384 -9.3164,-6.789 -1.6665,-1.6925 -2.7938,-2.796 -3.3086,-3.0606 -0.1031,-0.053 -0.1807,-0.072 -0.2344,-0.057 -0.054,0.016 -0.083,0.066 -0.086,0.1543 -0.01,0.1774 0.091,0.5062 0.2949,1 0.7139,1.7283 2.7428,5.4935 6.291,11.9863 1.9043,3.4845 3.5033,6.5238 4.8184,9.2051 0.8768,1.7875 1.627,3.4157 2.2578,4.9101 0.3154,0.7473 0.6011,1.461 0.8574,2.1446 0.5126,1.367 0.9097,2.613 1.1954,3.7636 0.2856,1.1507 0.4598,2.206 0.5312,3.1914 0.1429,1.9709 -0.1296,3.661 -0.7676,5.2774 -0.319,0.8082 -0.7294,1.5982 -1.2246,2.3945 -0.9885,1.5896 -2.9099,3.7915 -5.2949,6.2051 -0.3003,0.304 -0.6273,0.6179 -0.9414,0.9277 -0.3098,0.3056 -0.6063,0.6063 -0.9277,0.916 -2.5874,2.4938 -5.5215,5.1008 -8.3321,7.4141 -0.7027,0.5784 -1.3981,1.1381 -2.0781,1.6738 -2.0396,1.6069 -3.9441,2.9932 -5.5156,3.9903 -1.048,0.6648 -1.9494,1.1576 -2.6426,1.4258 -0.3458,0.1336 -0.6415,0.2124 -0.877,0.2285 -0.1374,0.01 -0.2736,0.01 -0.4121,-0.01 -0.1378,-0.016 -0.2746,-0.046 -0.414,-0.088 -0.5578,-0.1685 -1.131,-0.5502 -1.7422,-1.1738 -0.3059,-0.3121 -0.6217,-0.6821 -0.9492,-1.1192 -1.3085,-1.746 -2.8111,-4.5192 -4.6817,-8.5507 -1.4224,-3.0655 -3.2581,-6.6988 -5.0703,-10.0821 -1.8122,-3.3833 -3.6008,-6.5166 -4.9277,-8.584 l -4.8242,-7.5136 -6.1055,4.9648 h -0 l -6.1035,4.9707 8.4004,18.1035 c 0.6552,1.4121 1.2675,2.7464 1.8379,4.0098 1.1408,2.5267 2.1099,4.7698 2.9023,6.7891 0.7925,2.0193 1.4079,3.8149 1.8399,5.4433 0.216,0.8142 0.3861,1.5859 0.5098,2.3242 0.4326,2.5843 0.2955,4.7482 -0.4454,6.8047 -2e-4,6e-4 3e-4,0 0,0 -0.3174,0.8808 -0.7458,1.7416 -1.2871,2.6074 -3e-4,5e-4 3e-4,0 0,0 -0.1803,0.2883 -0.3746,0.5768 -0.58,0.8671 -0.6175,0.8724 -1.349,1.7587 -2.1973,2.6817 -1.6967,1.8459 -3.8607,3.8421 -6.5117,6.1855 -1.1129,0.9837 -2.1588,1.9058 -3.1465,2.7637 -0.9877,0.8579 -1.9177,1.6514 -2.793,2.3809 -3.063,2.5527 -5.4774,4.312 -7.5176,5.2207 -0.2915,0.1298 -0.5765,0.2429 -0.8535,0.3379 -0.5533,0.1895 -1.0807,0.3089 -1.5859,0.3574 -0.2522,0.024 -0.4996,0.031 -0.7422,0.02 -4.1344,-0.1966 -6.9887,-5.5947 -12.4941,-16.9922 -0.7642,-1.5816 -1.6489,-3.3243 -2.5938,-5.1191 -1.8897,-3.5896 -4.0191,-7.3884 -5.9043,-10.5332 -0.9425,-1.5725 -1.8244,-2.9822 -2.584,-4.1192 l -5.5195,-8.2597 3.1269,7.3515 c 4.0349,9.5006 5.9521,20.0526 5.8965,30.8047 -0.01,1.955 -0.085,3.9178 -0.2246,5.8809 -0.3492,4.9076 -1.0999,9.8234 -2.2402,14.6699 -0.4561,1.9386 -0.975,3.8664 -1.5547,5.7774 -3.478,11.4655 -9.1652,22.3414 -16.873,31.5214 -1.9859,2.3652 -3.7164,4.3219 -5.4043,6.0332 -0.422,0.4279 -0.8418,0.8407 -1.2618,1.2403 -3.7791,3.5959 -7.6099,6.1521 -13.9121,9.5097 -1.4006,0.7463 -2.9245,1.5333 -4.5957,2.3789 -1.3311,0.6736 -2.6081,1.3033 -3.834,1.8907 -7.3552,3.524 -12.8354,5.5028 -16.6582,6.0136 -0.3185,0.043 -0.6262,0.075 -0.9218,0.098 -0.295,0.022 -0.5792,0.033 -0.8516,0.035 -2.3804,0.017 -4.4841,-0.1589 -6.293,-0.4922 -0.3617,-0.067 -0.7109,-0.14 -1.0488,-0.2188 -0.3386,-0.079 -0.6641,-0.1634 -0.9785,-0.2539 -0.3139,-0.09 -0.6148,-0.1858 -0.9043,-0.2871 -0.2901,-0.1015 -0.5667,-0.2085 -0.832,-0.3203 -0.2648,-0.1116 -0.5161,-0.2283 -0.7559,-0.3496 -0.9592,-0.4852 -1.7166,-1.0461 -2.2637,-1.6621 -0.1371,-0.1544 -0.2606,-0.3097 -0.3711,-0.4707 -1.5431,-2.2491 -0.4724,-5.121 3.6328,-7.7715 0.2934,-0.1894 0.6033,-0.3777 0.9278,-0.5645 0.6489,-0.3735 1.3595,-0.7418 2.1347,-1.1015 1.8283,-0.8484 3.7093,-2.0215 5.5801,-3.4453 0.6238,-0.4748 1.2478,-0.9783 1.8672,-1.5059 2.4777,-2.1105 4.9016,-4.6214 7.1289,-7.3555 1.1137,-1.367 2.1791,-2.7898 3.1758,-4.2461 0.9967,-1.4562 1.9259,-2.9462 2.7695,-4.4472 0.8436,-1.5011 1.6016,-3.0123 2.2559,-4.5137 0.6542,-1.5014 1.2041,-2.9919 1.6328,-4.4492 0.6888,-2.3414 1.2609,-4.7835 1.7168,-7.2989 0.4559,-2.5153 0.7963,-5.1042 1.0234,-7.7421 0.5678,-6.5955 0.4263,-13.4933 -0.3906,-20.293 -0.1632,-1.3592 -0.3533,-2.7144 -0.5703,-4.0625 -1e-4,-6e-4 1e-4,-0 0,-0 -0.2171,-1.348 -0.4621,-2.6889 -0.7324,-4.0195 -1e-4,-6e-4 10e-5,-0 0,-0 -0.2705,-1.3312 -0.5674,-2.6518 -0.8906,-3.959 -1.2931,-5.2291 -3.0061,-10.2408 -5.1231,-14.8301 -1.8773,-4.068 -3.9019,-7.7105 -6.0254,-10.8711 -1.2741,-1.8964 -2.5834,-3.619 -3.918,-5.1562 -0.4448,-0.5125 -0.8937,-1.0039 -1.3437,-1.4747 -0.9,-0.9414 -1.8087,-1.799 -2.7246,-2.5683 -2.2897,-1.9232 -4.6189,-3.2961 -6.9395,-4.0645 l -5.6797,-1.8808 -3.4003,7.2871 c -0.1548,0.3313 -0.3031,0.6649 -0.4414,1.0019 -1.2454,3.0335 -1.8306,6.3376 -1.8028,10.6153 0.012,1.9011 0.1454,3.9945 0.3965,6.3418 0.1255,1.1736 0.2811,2.4104 0.4648,3.7187 0.229,1.6299 0.4511,3.1156 0.6895,4.5117 0.2384,1.3962 0.4922,2.7036 0.7832,3.9785 0.4365,1.9124 0.9564,3.7509 1.6328,5.7071 0.4509,1.3041 0.9725,2.6607 1.584,4.125 2.1404,5.125 5.3952,11.5752 10.6934,21.7636 8.5883,16.5157 12.3719,23.1329 11.0468,27.1485 -0.2208,0.6693 -0.5838,1.2656 -1.0898,1.8242 -1.8553,2.0482 -5.6377,3.5795 -11.4141,6.2598 -4.7763,2.2162 -9.2303,3.5476 -13.4472,3.9922 -0.7029,0.074 -1.3999,0.1236 -2.0899,0.1484 -6.2097,0.2231 -11.9142,-1.5519 -17.3926,-5.334 -0.8131,-0.5613 -1.5491,-1.09 -2.2285,-1.6172 -0.3395,-0.2634 -0.6633,-0.5252 -0.9765,-0.791 -0.6266,-0.5315 -1.2059,-1.0757 -1.7559,-1.6601 -0.55,-0.5845 -1.0706,-1.209 -1.582,-1.9043 -2.3017,-3.129 -4.407,-7.6755 -8.0469,-16.2793 -5.4326,-12.8413 -6.9233,-17.9708 -7.1777,-27.1407 -0.036,-1.31 -0.049,-2.7038 -0.043,-4.2129 0.01,-1.3428 0.042,-2.684 0.1074,-4.0253 0.2617,-5.3653 0.9992,-10.7123 2.1914,-15.9805 0.5961,-2.6341 1.3062,-5.2479 2.127,-7.836 1.6415,-5.176 3.7278,-10.2457 6.2363,-15.1503 1.2543,-2.4524 2.6131,-4.864 4.0762,-7.2266 0.7315,-1.1813 1.4887,-2.3497 2.2715,-3.5059 1.5654,-2.3123 3.2336,-4.5725 5,-6.7734 6.6412,-8.275 10.0173,-12.1137 14.6347,-15.2324 0.4618,-0.3119 0.9366,-0.6167 1.4278,-0.918 0.9818,-0.6023 2.0323,-1.1905 3.1855,-1.7949 0.5769,-0.3023 1.1812,-0.6098 1.8145,-0.9238 1.2665,-0.6282 2.6549,-1.2863 4.2011,-2.0059 2.0363,-0.9479 4.0099,-1.7831 5.9278,-2.5039 0.6394,-0.2403 1.2729,-0.4687 1.9004,-0.6836 3.7645,-1.2892 7.3192,-2.1194 10.7226,-2.4785 1.1345,-0.1197 2.252,-0.1865 3.3555,-0.2012 1.1034,-0.015 2.1925,0.024 3.2695,0.1152 0.5385,0.046 1.0727,0.1036 1.6055,0.1758 0.5334,0.072 1.0636,0.1587 1.5918,0.2578 0.5275,0.099 1.0512,0.2101 1.5742,0.336 6e-4,1e-4 0,-2e-4 0,0 0.5224,0.1257 1.0423,0.2653 1.5606,0.4179 2.5952,0.7641 5.1428,1.8662 7.6797,3.3125 0.5072,0.2892 1.0129,0.5915 1.5195,0.9082 3.0403,1.9009 6.0742,4.2989 9.1641,7.2071 0.5149,0.4846 1.0305,0.9831 1.5488,1.4961 0.5186,0.5133 1.0399,1.0402 1.5625,1.582 l 7.2461,7.5117 -4.2188,-9.2461 c -1.9943,-4.3704 -3.0248,-8.2107 -3.0097,-11.8027 0.01,-1.3062 0.1498,-2.5802 0.4355,-3.834 0.1429,-0.6269 0.3208,-1.2483 0.5352,-1.8672 0.2144,-0.6188 0.4651,-1.2354 0.7519,-1.8496 0.4303,-0.9212 0.943,-1.8395 1.5391,-2.7598 0.7948,-1.2269 1.7376,-2.4583 2.834,-3.707 1.6446,-1.873 3.6335,-3.7854 5.9785,-5.7832 2.5824,-2.2 5.4345,-4.4346 7.9492,-6.2617 0.6288,-0.4568 1.2374,-0.8881 1.8145,-1.2871 0.5766,-0.3987 1.1228,-0.7665 1.6289,-1.0938 0.5064,-0.3275 0.9738,-0.6152 1.3906,-0.8574 0.4168,-0.2421 0.7836,-0.437 1.0918,-0.5801 1.5052,-0.6984 2.5596,-1.0654 3.4395,-0.9257 0.1466,0.023 0.2875,0.061 0.4257,0.1132 1.2452,0.4686 2.2009,2.139 3.8067,5.5996 0.8764,1.889 2.3548,4.748 4.0293,7.8301 1.6745,3.0821 3.5458,6.3871 5.2109,9.1738 l 6.0547,10.1348 6.0508,-5.0508 6.0566,-5.0488 -7.3359,-15.8125 c -0.8631,-1.86 -1.6236,-3.5101 -2.2871,-4.9844 -0.9954,-2.2114 -1.7743,-4.0304 -2.3633,-5.582 -1.178,-3.1033 -1.5944,-5.1372 -1.4531,-7.0996 0.047,-0.6541 0.1568,-1.2993 0.3203,-1.9746 0.2452,-1.013 0.6117,-2.0925 1.0762,-3.3613 1.8272,-4.9912 6.187,-10.0358 14.25,-16.4864 1.7612,-1.409 3.3081,-2.642 4.6835,-3.6816 0.6879,-0.5199 1.3337,-0.9918 1.9415,-1.4141 6.6855,-4.6448 8.8597,-3.2765 13.8183,6.4199 0.9016,1.763 1.8959,3.8013 3.0254,6.129 1.2621,2.6008 2.2706,4.6349 3.0547,6.1386 1.1742,2.2519 1.8423,3.3122 2.0898,3.2969 0.041,-0 0.072,-0.035 0.09,-0.098 0.091,-0.3127 -0.1005,-1.3611 -0.5235,-3.0781 -0.2678,-1.087 -0.4936,-2.1896 -0.6757,-3.3027 -0.4554,-2.7828 -0.644,-5.6406 -0.5782,-8.543 0.053,-2.3219 0.2679,-4.6707 0.6426,-7.0332 0.094,-0.5906 0.1971,-1.1835 0.3106,-1.7754 0.2268,-1.1838 0.494,-2.3686 0.7988,-3.5547 0.3048,-1.186 0.6478,-2.3724 1.0293,-3.5566 0.5721,-1.7764 1.2296,-3.5495 1.9707,-5.3106 0.7411,-1.761 1.565,-3.5098 2.4707,-5.2421 1.5094,-2.8873 3.2447,-5.7268 5.1953,-8.4844 0.7803,-1.1031 1.5948,-2.1923 2.4434,-3.2676 1.2729,-1.613 2.6218,-3.193 4.0449,-4.7324 1.5034,-1.6263 3.109,-3.175 4.791,-4.6387 1.1216,-0.9759 2.278,-1.9144 3.4609,-2.8125 10.0545,-7.633 22.0649,-12.3711 31.586,-12.8437 0.56,-0.028 1.1123,-0.041 1.6543,-0.039 2.7097,0.01 5.1817,0.3961 7.3027,1.1934 0.4242,0.1594 0.8333,0.3347 1.2285,0.5273 0.7911,0.3854 1.5215,0.8378 2.1856,1.3594 0.3318,0.2606 0.6459,0.5385 0.9433,0.834 4e-4,3e-4 0,-4e-4 0,0 0.7613,0.756 1.2707,1.1458 1.5234,1.1289 0.05,-0 0.09,-0.023 0.1192,-0.059 0.03,-0.036 0.051,-0.09 0.061,-0.1602 0.084,-0.63 -0.6701,-2.635 -2.2891,-6.2656 -1.1917,-2.6736 -1.977,-5.0614 -2.3007,-7.3477 -0.1619,-1.1431 -0.2081,-2.2604 -0.1329,-3.3769 0.1129,-1.6748 0.4995,-3.3453 1.1836,-5.0918 0.4561,-1.1643 1.0448,-2.3625 1.7715,-3.6172 1.8169,-3.1368 4.501,-6.6299 8.1563,-10.8438 10.8378,-12.4939 26.9101,-22.0365 36.9609,-22.082 7e-4,0 0,0 0,0 0.3242,-0 0.6418,0.01 0.9531,0.025 5.9516,0.3549 11.0624,2.6231 15.3066,6.7832 0.8489,0.832 1.6621,1.7394 2.4414,2.7227 0.7793,0.9832 1.5251,2.0415 2.2344,3.1757 0.7093,1.1343 1.3826,2.3441 2.0215,3.629 l 4.2422,8.5292 -3.4512,-10.8847 c -0.6634,-2.0924 -1.2224,-4.2175 -1.6777,-6.3692 -0.9106,-4.3032 -1.4103,-8.7119 -1.5215,-13.1679 -0.083,-3.342 0.052,-6.7096 0.3965,-10.0821 0.2298,-2.2483 0.5536,-4.4998 0.9668,-6.7441 0.4132,-2.2443 0.9167,-4.4828 1.5078,-6.709 0.5911,-2.2262 1.2697,-4.4388 2.0332,-6.6328 0.7635,-2.194 1.6106,-4.3679 2.541,-6.5156 2.3261,-5.3694 5.1654,-10.5736 8.4746,-15.5 1.9856,-2.9559 4.1403,-5.8119 6.4551,-8.5449 1.5435,-1.8224 3.1588,-3.5892 4.8418,-5.295 0.841,-0.8523 1.6994,-1.6891 2.5742,-2.5097 2.6252,-2.4624 5.4011,-4.7792 8.3184,-6.9239 0.9725,-0.7149 1.9611,-1.4117 2.9648,-2.0878 3.1858,-2.1462 6.4164,-3.9703 9.6328,-5.4668 0.8706,-0.4053 1.7403,-0.7876 2.6074,-1.1446 6e-4,-2e-4 0,3e-4 0,0 1.7347,-0.7141 3.4599,-1.3326 5.166,-1.8515 0.8534,-0.2596 1.7024,-0.4948 2.5449,-0.7051 0.842,-0.2101 1.6791,-0.396 2.5079,-0.5567 0.8293,-0.1606 1.6531,-0.2954 2.4667,-0.4062 1.6273,-0.2216 3.2196,-0.3431 4.7696,-0.3633 z m -64.3028,120.9902 c -0.1247,0.01 -0.2147,0.1088 -0.2793,0.2989 -2e-4,6e-4 3e-4,0 0,0 -0.032,0.095 -0.058,0.2127 -0.078,0.3516 -10e-5,7e-4 1e-4,0 0,0 -0.02,0.1393 -0.035,0.3005 -0.045,0.4825 -0.039,0.7306 -0,1.8003 0.045,3.1718 0.048,1.307 -0.2783,3.6907 -0.875,6.6934 -0.3977,2.0018 -0.9162,4.2782 -1.5234,6.6953 -0.6072,2.4171 -1.3036,4.9735 -2.0586,7.5352 -0.3775,1.2808 -0.7689,2.5638 -1.1719,3.83 -1.387,4.3588 -2.4526,7.9341 -3.207,10.8672 -0.3772,1.4666 -0.677,2.772 -0.9004,3.9356 -0.4468,2.3272 -0.5887,4.0845 -0.4375,5.414 0.076,0.6648 0.2245,1.2226 0.4453,1.6914 0.1104,0.2345 0.2386,0.4466 0.3848,0.6387 0.1461,0.1922 0.3106,0.3633 0.4922,0.5176 0.1812,0.1539 0.3796,0.2915 0.5957,0.4121 0.217,0.1213 0.4513,0.2262 0.7031,0.3184 0.262,0.096 0.5359,0.1633 0.8223,0.2011 0.859,0.114 1.8205,-0.03 2.8437,-0.3945 0.341,-0.1217 0.6898,-0.2694 1.043,-0.4394 0.7059,-0.3398 1.4336,-0.7731 2.1699,-1.2911 0.7368,-0.5184 1.4837,-1.1216 2.2266,-1.7988 0.3711,-0.3383 0.7413,-0.6961 1.1093,-1.0703 2.2105,-2.2475 4.3401,-5.1211 6.0586,-8.3555 2.7307,-5.1394 5.9584,-10.7977 7.1739,-12.5781 0.3803,-0.557 0.6525,-1.0959 0.8144,-1.6211 0.162,-0.5252 0.2143,-1.0371 0.1563,-1.543 -0.058,-0.5058 -0.2263,-1.0049 -0.5059,-1.5039 -0.2796,-0.4989 -0.6711,-0.9974 -1.1738,-1.5019 -1.2053,-1.2094 -3.828,-4.7928 -6.5137,-8.836 -0.8952,-1.3477 -1.7974,-2.746 -2.6563,-4.125 -2.6073,-4.1858 -4.1253,-6.6142 -4.9921,-7.5507 -0.2881,-0.3113 -0.5037,-0.4575 -0.6641,-0.4493 z m -42.2734,10.75 c -0.8283,-0.051 -1.7401,0.1799 -2.7207,0.6836 -1.6346,0.8396 -3.4611,2.4357 -5.416,4.7344 -0.4887,0.5747 -0.9846,1.1917 -1.4883,1.8535 -1.5115,1.9858 -3.0867,4.3603 -4.6973,7.1016 -2.9075,4.9485 -6.3555,9.0701 -7.664,9.1582 -0.3042,0.02 -0.5282,0.1308 -0.6699,0.332 -0.094,0.1342 -0.1521,0.3089 -0.1739,0.5254 -0.1195,1.191 0.8637,3.6398 2.9864,7.4746 0.7946,1.4356 1.4691,2.828 2.0293,4.2071 1.6802,4.1371 2.3369,8.1485 2.164,12.8066 -0.4131,11.0662 -8.1973,29.1494 -17.543,40.7539 -1.9642,2.4389 -3.5703,4.7724 -4.5781,6.5684 -0.2519,0.449 -0.4674,0.8633 -0.6406,1.2382 -0.5202,1.1257 -0.6674,1.8871 -0.3418,2.1016 1.3515,0.8908 6.4739,-1.0089 11.498,-3.7422 1.1165,-0.6074 2.2289,-1.2554 3.293,-1.9238 2.6604,-1.6709 5.0239,-3.4642 6.4278,-5.0469 9.7451,-10.986 13.4106,-19.1743 10.955,-24.4668 -3.5089,-7.5622 -3.4074,-16.4717 0.6817,-30.416 0.3145,-1.0726 0.6537,-2.1748 1.0156,-3.3086 0.7237,-2.2676 1.5419,-4.6607 2.457,-7.1933 5.218,-14.4416 6.5008,-20.6319 4.6485,-22.4278 -0.6486,-0.6288 -1.3944,-0.9624 -2.2227,-1.0137 z m -57.0664,46.3614 c -0.7769,0.019 -1.6575,0.3045 -2.748,0.8105 -6.869,3.1872 -7.7751,13.3603 -2.4161,27.1426 2.5886,6.6569 5.3639,11.5662 6.2891,11.1367 0.9112,-0.4228 2.6973,-3.9302 3.9687,-7.7969 3.3858,-10.2961 3.234,-20.8612 -0.3906,-27.0332 -1.7921,-3.0522 -2.9939,-4.3025 -4.7031,-4.2597 z"
           id="path2466"
           transform="matrix(0.26458334,0,0,0.26458334,0,-658.00001)"
           inkscape:connector-curvature="0" />
      </g>
    </g>
    <path
       style="opacity:1;vector-effect:none;fill:#000000;fill-opacity:1;fill-rule:nonzero;stroke:none;stroke-width:0.68791664;stroke-linecap:butt;stroke-linejoin:miter;stroke-miterlimit:4;stroke-dasharray:none;stroke-dashoffset:0;stroke-opacity:1"
       d="m 899.65519,-110.00502 27.43864,-7.82847"
       id="path839"
       inkscape:connector-curvature="0" />
  </g>
</svg>
