<?xml version="1.0" encoding="UTF-8" standalone="no"?>
<!-- Created with Inkscape (http://www.inkscape.org/) -->

<svg
   xmlns:dc="http://purl.org/dc/elements/1.1/"
   xmlns:cc="http://creativecommons.org/ns#"
   xmlns:rdf="http://www.w3.org/1999/02/22-rdf-syntax-ns#"
   xmlns:svg="http://www.w3.org/2000/svg"
   xmlns="http://www.w3.org/2000/svg"
   xmlns:sodipodi="http://sodipodi.sourceforge.net/DTD/sodipodi-0.dtd"
   xmlns:inkscape="http://www.inkscape.org/namespaces/inkscape"
   width="1950mm"
   height="955mm"
   viewBox="0 0 1950 955"
   version="1.1"
   id="svg8"
   inkscape:version="0.92.2 5c3e80d, 2017-08-06"
   sodipodi:docname="horns.svg">
  <defs
     id="defs2" />
  <sodipodi:namedview
     id="base"
     pagecolor="#ffffff"
     bordercolor="#666666"
     borderopacity="1.0"
     inkscape:pageopacity="0.0"
     inkscape:pageshadow="2"
     inkscape:zoom="0.1767767"
     inkscape:cx="4142.7798"
     inkscape:cy="1288.0271"
     inkscape:document-units="mm"
     inkscape:current-layer="layer1"
     showgrid="false"
     showborder="true"
     inkscape:window-width="1920"
     inkscape:window-height="999"
     inkscape:window-x="0"
     inkscape:window-y="0"
     inkscape:window-maximized="1"
     inkscape:object-nodes="false"
     inkscape:snap-others="false"
     inkscape:snap-global="false" />
  <metadata
     id="metadata5">
    <rdf:RDF>
      <cc:Work
         rdf:about="">
        <dc:format>image/svg+xml</dc:format>
        <dc:type
           rdf:resource="http://purl.org/dc/dcmitype/StillImage" />
        <dc:title></dc:title>
      </cc:Work>
    </rdf:RDF>
  </metadata>
  <g
     inkscape:label="Layer 1"
     inkscape:groupmode="layer"
     id="layer1"
     transform="translate(0,658.00001)">
    <path
       style="opacity:1;vector-effect:none;fill:#000000;fill-opacity:1;fill-rule:nonzero;stroke:none;stroke-width:0.37795275;stroke-linecap:butt;stroke-linejoin:miter;stroke-miterlimit:4;stroke-dasharray:none;stroke-dashoffset:0;stroke-opacity:1"
       d="m 3631.7051,493.9043 c -48.355,0.32693 -94.9175,24.70331 -112.6875,64.69922 -20.1049,46.73537 -27.308,99.93953 -36.3809,267.70312 -7.8322,144.91283 -4.4337,328.35926 7.8496,421.79496 7.4729,56.8346 17.067,152.7315 27.2637,272.8515 4.0263,47.3822 10.6708,88.2084 14.7715,90.7403 5.2923,3.2668 5.2274,6.0108 -0.2442,9.3691 -4.2714,2.638 -7.6367,23.7404 -7.6367,47.7754 0,23.6976 -4.9811,61.6573 -11.0566,84.3242 -6.0763,22.6678 -15.2045,60.5012 -20.3008,84.0723 -5.0962,23.5702 -12.8765,49.9921 -17.3047,58.748 -10.511,20.7853 -88.786,95.033 -108.2539,102.6856 -22.1508,8.7069 -89.1399,3.1516 -107.5371,-8.9063 -15.3304,-10.0439 -54.1995,-18.2771 -99.6445,-21.1445 -11.9975,-0.735 -20.5554,-3.4624 -18.9922,-5.9942 7.3341,-11.8701 -256.0508,-157.147 -285.9375,-157.7187 -4.7532,-0.082 -8.6504,-2.834 -8.6504,-6.1172 0,-3.2831 -18.9679,-14.4914 -42.1641,-24.9004 -45.85,-20.5778 -127.7307,-37.66 -182.5351,-38.0683 -44.6079,-0.327 -153.0487,19.3178 -179.791,32.582 -45.9334,22.7813 -72.6329,60.226 -72.6329,101.9238 0,49.6412 32.1342,74.7402 129.1446,100.8692 35.7751,9.6362 72.8546,26.4825 109.4375,49.6738 99.1902,62.8776 105.1593,66.3135 118.3418,68.584 7.1706,1.2332 18.6858,9.2539 25.6172,17.8105 6.9338,8.5592 20.1847,15.5723 29.416,15.5723 9.232,0 16.7558,2.9248 16.7558,6.5019 0,3.5773 36.9068,32.9827 82.0039,65.375 65.8937,47.3308 91.5448,71.0083 130.6661,120.5352 33.6508,42.602 68.2607,76.3409 112.0527,109.2266 34.8433,26.1657 88.1422,68.5704 118.4258,94.2421 30.2835,25.6708 59.6274,46.6778 65.248,46.6778 5.6189,0 10.2149,3.4964 10.2149,7.8086 0,7.2034 14.6855,24.4962 73.4355,86.5195 11.8529,12.5144 19.8355,24.4396 17.7676,26.5059 -2.0663,2.0662 4.3128,12.2863 14.1387,22.705 9.8273,10.4196 26.709,39.1783 37.5214,63.8985 18.7967,42.976 19.6012,49.3576 18.8653,145.2246 -1.0536,137.2472 -25.2836,304.6846 -85.043,587.7422 -9.0068,42.6623 -17.1525,87.9033 -18.6992,103.6523 h 17.2695 c 1.0584,-3.6182 2.1358,-8.1497 3.2871,-13.7461 l 32.918,-163.332 c 55.2397,-274.2371 85.8977,-533.5561 70.8613,-599.2637 l -7.0156,-30.498 31.6543,10.3828 c 33.4582,10.9684 212.0896,14.8261 373.9336,8.1016 l 79.5137,-3.2911 48.4082,24.9434 c 26.6218,13.7019 63.9583,30.4727 82.9746,37.3086 19.0152,6.8358 53.2319,21.1001 76.0508,31.6953 22.8192,10.5952 54.7114,21.2789 70.8632,23.7617 16.153,2.4828 35.5115,9.7158 43.0059,16.0371 13.3168,11.2371 13.3611,12.2683 1.3066,47.1426 -10.2455,29.6433 -13.5984,33.7617 -19.6679,24.2266 -9.58,-15.0536 -59.7125,-40.384 -179.875,-90.8672 -122.6325,-51.5189 -160.0886,-61.8272 -170.8867,-47.0586 -6.8928,9.4305 -15.7296,9.2584 -83.6485,-1.5606 -41.7796,-6.6561 -88.4004,-15.5542 -103.6133,-19.7929 -36.5387,-10.1746 -42.6699,-9.7834 -42.6699,2.7441 0,14.2932 67.3079,33.7066 186.166,53.7266 90.8791,15.2929 116.0244,15.1323 106.1856,-0.8164 -2.4586,-3.9774 21.2703,5.4378 52.7148,20.9316 31.4446,15.493 85.168,39.7861 119.3965,53.9805 118.6662,49.2092 121.0872,50.542 116.5703,64.9961 -2.279,7.285 -7.8423,36.8639 -12.3672,65.7109 -7.7835,49.562 -8.7848,51.5902 -18.1894,36.7188 -22.8049,-36.0594 -136.755,-102.0681 -224.3184,-129.9473 -42.1436,-13.4193 -48.7001,-17.7698 -50.6035,-33.4277 -2.7526,-22.6336 -28.9102,-25.9472 -28.9102,-3.6739 0,17.3543 -8.2302,15.4454 -82.9726,-19.2461 -74.2178,-34.4471 -89.8965,-38.546 -89.8965,-23.4238 0,7.8323 12.3295,17.9494 34.5645,28.3633 19.0046,8.9013 33.7766,16.9192 32.8359,17.8086 -0.9388,0.8902 -43.7456,-8.9356 -95.0879,-21.8184 -103.1161,-25.8741 -124.4609,-28.3125 -124.4609,-14.0976 0,6.55 32.1432,17.6329 102.0078,35.1562 56.0963,14.0703 125.0699,34.0383 153.2871,44.3574 l 51.3223,18.7403 1.3945,121.6758 c 0.7355,66.9079 3.5548,125.0838 6.168,129.3144 2.6135,4.2306 9.2056,7.6758 14.6855,7.6758 8.2209,0 10.0093,-17.8144 10.0879,-101.9649 0.083,-118.3649 2.5074,-132.9417 21.2285,-128.0488 19.0322,4.9738 17.9762,-23.4071 -1.0937,-29.459 -7.8894,-2.5073 -12.7885,-6.1167 -10.8477,-8.0605 5.4391,-5.4393 71.9925,18.01 121.9707,43.0078 24.7211,12.3634 69.2651,39.9476 98.9707,61.2793 29.7052,21.3316 58.5085,38.7871 63.9824,38.7871 6.0027,0 9.918,6.8677 9.918,17.3027 0,19.8779 18.0133,23.9567 22.918,5.1954 1.7397,-6.6562 3.5936,17.4272 4.0918,53.5585 0.8413,60.3768 5.6095,130.6917 18.4414,271.418 l 6.6679,63.1445 c 0.081,1.4545 0.1764,2.834 0.2735,4.2012 h 18.123 c -0.3273,-10.528 -4.624,-58.1125 -8.2597,-91.789 -13.1528,-121.7975 -19.3485,-284.8003 -13.42,-353.252 6.8036,-78.5707 18.0735,-117.3842 56.2168,-193.8887 15.0089,-30.1022 42.2418,-92.5035 60.5196,-138.6425 18.2781,-46.1392 39.8259,-96.852 47.9043,-112.6856 8.0776,-15.8327 14.6855,-36.6834 14.6855,-46.3418 0,-10.5788 3.9047,-17.5566 9.834,-17.5566 15.1196,0 57.9331,-73.8868 74.1113,-127.9219 7.971,-26.6214 17.571,-54.3751 21.3555,-61.6602 5.8806,-11.3154 39.2001,-185.8264 67.4433,-353.2109 4.4916,-26.6223 12.3673,-67.0776 17.4727,-89.8965 5.1046,-22.8188 11.4046,-57.0794 14.0117,-76.0957 11.3337,-82.6787 69.5873,-293.3246 89.5156,-323.7519 11.8201,-18.0468 87.6592,-197.2638 100.0254,-236.3457 4.8106,-15.1965 17.6527,-46.89 28.5313,-70.3965 43.8376,-128.5697 98.5155,-248.6259 82.3398,-366.12503 0.1626,-24.66625 -3.6343,-32.02051 -27.5175,-53.59961 -24.4067,-22.0487 -31.9872,-25.00915 -63.9805,-24.98633 -74.3343,0.0412 -95.9271,27.63104 -184.0547,235.08007 -34.7365,81.7681 -79.958,181.3463 -100.4902,221.2793 -33.9527,66.0301 -116.1257,279.3182 -135.0547,350.5508 -12.2234,46.0011 -63.451,79.0731 -57.2715,36.9726 3.275,-22.3028 -15.9689,-180.7868 -27.2637,-224.5722 -3.8638,-14.9736 -17.5156,-43.6304 -30.3437,-63.6856 -31.3618,-49.0254 -65.1021,-66.1218 -137.9688,-69.9765 -52.337,-2.7687 -56.6958,-1.8619 -80.9902,16.7558 -14.1218,10.8223 -26.065,24.3482 -26.5469,30.0489 -0.4872,5.7088 -3.7981,0.3284 -7.3418,-11.9844 -10.4613,-36.2056 -72.8137,-94.7555 -111.168,-104.3731 -72.8265,-18.2615 -121.9643,-7.1958 -164.8925,37.0977 -12.7593,13.1645 -25.2588,23.9297 -27.7696,23.9297 -4.7043,0 -12.0847,-63.6081 -17.3047,-148.6856 -1.6331,-26.6206 -4.4348,-59.2802 -6.207,-72.5918 -30.0523,-225.83225 -32.195,-248.83925 -27.9824,-301.21481 5.2678,-65.44943 -12.7811,-248.5379 -28.1074,-285.21875 -27.1017,-32.75739 -65.7929,-47.0595 -103.4024,-46.80468 z m -6.1348,11.98437 v 0 0.002 c 1.474,-0.002 2.9962,0.0377 4.6074,0.10157 v -0.0195 c 4.2959,0.16327 9.2311,0.57209 15.5312,0.84179 l 20.5118,4.05078 c 76.0446,24.85652 63.5475,88.39344 69.2578,135.94141 5.6762,45.49312 10.3531,114.64232 10.3808,153.62305 l 0.082,70.86328 -60.5215,0.81641 c -68.6721,0.93102 -102.7316,6.54887 -100.3614,16.54296 0.8902,3.76498 22.6786,8.62406 48.4083,10.80469 38.7151,3.28316 32.1625,4.18259 -37.9415,5.19531 -69.6505,1.00453 -84.705,3.06147 -84.705,11.47852 0,16.38074 30.192,19.76072 135.8554,15.19531 98.38,-4.2469 99.1131,-4.19054 102.2207,11.05664 1.7232,8.44316 8.5218,59.94541 15.1094,114.45901 10.3191,85.3984 10.5881,99.9989 2.1074,105.5117 -11.5156,7.4811 -14.0774,8.0519 -113.2773,23.4649 -76.1949,11.8382 -121.3236,27.2981 -126.5293,43.3457 -1.6743,5.1534 3.7151,8.8726 13.3359,9.1992 14.1013,0.4899 13.5386,1.3736 -4.3457,6.7148 -13.4291,4.0101 -22.0307,3.5838 -25.0273,-1.2676 -14.6346,-23.6796 -18.4233,-321.88573 -6.1172,-481.04685 13.3246,-172.36324 30.6365,-221.95956 84.1562,-246.26562 19.0174,-8.58906 26.9413,-10.59271 37.2598,-10.60938 z m 1281.0899,381.96094 c 29.7872,0.23584 53.2945,10.25658 71.6992,50.13086 11.5329,30.20028 6.0523,62.41873 4.0918,106.14453 -29.3933,110.1676 -57.3413,198.8341 -75.8848,240.8203 -17.26,39.0837 -20.9977,43.274 -35.0723,39.166 -36.1542,-10.5412 -101.065,-44.2917 -124.164,-64.5722 -28.4292,-24.962 -40.2637,-27.4614 -40.2637,-8.4844 0,26.1388 85.2331,84.2944 139.4024,95.1289 11.4564,2.2949 22.3216,8.0527 24.1406,12.7871 1.8214,4.737 -19.1901,63.6759 -46.6797,130.9629 l -49.9688,122.3496 -24.2246,-4.5566 c -40.3635,-7.571 -96.9949,-31.2008 -118.8496,-49.5899 -11.3496,-9.5906 -20.6387,-13.7734 -20.6387,-9.4121 0,4.5654 -3.6343,5.6596 -8.6093,2.6133 -5.0967,-3.1198 -4.0909,1.6173 2.4511,11.5215 17.3639,26.3102 71.3493,59.9465 104.2032,64.9121 16.4327,2.491 33.5323,6.8032 37.9824,9.5801 5.8726,3.667 0.7361,29.4105 -18.6953,93.8203 -14.731,48.8171 -28.8009,102.2333 -31.2735,118.7226 -4.2066,28.0255 -5.5215,29.515 -20.0058,22.916 -10.8245,-4.9329 -14.6091,-11.5532 -12.6192,-21.9882 2.2783,-11.9673 -4.4763,-19.2823 -33.9336,-36.6758 -84.3579,-49.8168 -105.9449,-60.7074 -96.3105,-48.7051 8.5549,10.6581 8.1674,11.4632 -3.4629,7.3438 -10.7176,-3.7978 -11.5131,-2.9489 -4.4336,4.6875 4.7531,5.1206 8.6504,14.5655 8.6504,21.0175 0,6.452 14.9739,21.3551 33.2578,33.0879 36.9876,23.7352 70.4052,56.1758 57.8633,56.1758 -4.4674,0 -8.1426,5.3569 -8.1426,11.9004 0,6.5418 -3.7733,28.1748 -8.3984,48.0723 -8.036,34.559 -9.4948,36.2664 -32.836,38.2363 -16.1956,1.3639 -24.4355,5.5299 -24.4355,12.4082 0,7.4729 10.6629,11.5201 38.1094,14.4766 20.9632,2.2541 45.3003,8.4947 54.1074,13.8418 14.4079,8.7542 15.5737,13.1438 11.6055,43.8945 -2.4253,18.7957 -5.8393,36.4918 -7.5957,39.334 -1.7556,2.8421 -13.9039,0.7351 -27.0098,-4.7696 -30.4774,-12.7365 -31.1895,-12.6346 -31.1895,4.0508 0,8.2316 6.5161,16.4594 15.8262,20.0039 31.8569,12.1126 33.2489,19.8987 18.6543,104.7949 -7.4729,43.4562 -17.2044,100.014 -21.6094,125.6856 -4.4015,25.6708 -10.5166,46.6777 -13.5879,46.6777 -3.0712,0 -6.4766,-21.0069 -7.5957,-46.6777 -1.5761,-35.9703 -4.4596,-46.6769 -12.4511,-46.6777 -14.57,0 -17.9494,100.0833 -4.6875,138.3046 8.7961,25.34 8.2279,31.6532 -6.584,75.25 -8.8933,26.1722 -22.3231,57.2723 -29.8379,69.1309 l -13.6738,21.5664 3.0781,-48.4082 c 9.2137,-145.9606 9.2161,-155.5664 0.4121,-155.5664 -15.6907,0 -27.1714,36.9468 -28.9961,93.3145 -0.988,30.4256 -3.8859,72.4406 -6.459,93.3574 -29.2464,91.8757 -108.4442,260.3368 -179.4551,271.248 -7.6033,1.1516 -13.8418,6.7148 -13.8417,12.3672 0,7.4239 7.8972,10.2539 28.4453,10.2539 27.7584,0 28.1657,0.41 18.3593,15.3223 -8.9381,13.6145 -11.6989,14.2739 -24.9843,5.9941 -8.2106,-5.1207 -32.0083,-11.0527 -52.9258,-13.1679 -43.3409,-4.3939 -128.9121,-38.5053 -201.3574,-80.2735 -66.1942,-38.1615 -91.3879,-43.01 -175.5293,-33.8906 -82.5396,8.9462 -332.7964,3.3972 -374.6504,-8.3145 -25.3841,-7.1053 -42.8474,-23.6675 -34.1446,-32.3711 1.6334,-1.6253 17.3808,1.9697 34.9883,7.9317 40.2923,13.6562 93.8075,13.9047 125.7285,0.5703 25.273,-10.56 29.3301,-29.8363 5.3164,-25.2383 -7.1952,1.3803 -36.4296,2.8007 -64.9531,3.209 -42.2043,0.5717 -59.5516,-2.7847 -93.3144,-17.8105 l -41.4883,-18.4434 31.1055,-0.3262 c 53.6145,-0.5716 152.1054,-34.8587 152.1054,-52.9668 0,-12.4131 -4.2225,-12.0508 -50.8984,4.0098 -49.1298,16.9002 -112.0699,23.685 -139.2344,15.0254 -19.3323,-6.1662 -18.4193,-6.6084 13.8008,-7.2617 41.6807,-0.8167 107.2012,-28.8833 107.2012,-45.959 0,-11.5891 -11.2151,-11.5932 -44.9493,0 -7.6036,2.6135 -2.9311,-1.4382 10.3829,-8.9903 13.3115,-7.5546 35.0975,-23.0249 48.4082,-34.3984 35.246,-30.1153 12.6345,-36.431 -31.1036,-8.6934 -57.9234,36.734 -149.5335,45.392 -157.5078,14.8985 -2.4664,-9.4273 -12.2285,-14.4457 -34.6504,-17.8106 -24.1068,-3.618 -41.627,-13.4521 -77.1914,-43.3437 l -46.0468,-38.7012 4.8925,-69.5527 c 7.5546,-107.0681 7.4159,-110.4127 -4.7285,-112.8555 -9.09,-1.8294 -12.4587,11.3399 -19.8359,77.5293 -6.2071,55.6914 -11.2443,78.2628 -16.7129,74.9551 -4.3042,-2.6053 -22.2932,-15.0528 -39.9668,-27.6856 -29.525,-21.1046 -32.9982,-26.752 -42.8379,-69.5117 -15.4555,-67.1604 -13.4281,-109.3012 -14.9414,-139.6133 -1.9846,-39.7035 -1.4697,-37.1668 -16.7969,-46.5507 -7.7179,31.538 -9.0376,73.991 -8.9902,79.7675 0.2452,36.734 3.8068,77.469 7.8496,90.5274 4.0427,13.0592 6.3943,24.7032 5.2344,25.8711 -1.1678,1.1679 -24.2213,-25.4738 -51.2364,-59.2129 -38.2881,-47.8183 -66.0909,-73.5287 -126.1484,-116.4844 -66.7832,-47.7669 -79.2039,-59.7673 -93.3574,-90.3164 -13.4979,-29.1336 -22.491,-38.3572 -51.7422,-53.1797 -19.4622,-9.861 -37.1202,-22.4714 -39.25,-28.0234 -5.5619,-14.4909 -23.1289,-12.4715 -23.1289,2.6621 0,7.0155 6.5178,18.6685 14.4766,25.8711 39.9077,36.1189 20.1324,32.7455 -41.3184,-7.0078 -88.5689,-57.2906 -99.6418,-62.7746 -153.2441,-76.4317 -90.0806,-22.9519 -127.2003,-53.7213 -118.6797,-98.2949 4.8432,-25.3498 50.9583,-68.9798 82.2129,-77.7832 45.7357,-12.8836 97.2284,-19.4318 147.2519,-19.582 50.0235,-0.1633 98.5763,6.1078 138.4317,18.7383 67.2977,21.3193 68.5968,22.9723 38.6171,49.2949 -30.4845,26.766 -54.7041,72.1583 -65.416,122.6465 -11.6659,54.9817 -10.4551,63.6035 8.8633,63.6035 12.4099,0 21.2694,-7.9384 34.9453,-31.2735 10.5339,-17.9741 30.6804,-38.7186 47.3535,-48.832 15.9527,-9.6763 43.1525,-33.1218 60.4356,-52.0801 l 31.4004,-34.4824 53.4746,30.4727 c 109.0519,52.8827 90.9827,48.0509 139.6113,81.1172 l 3.5039,3.4218 -16.0781,54.9512 c -11.7647,41.7004 -9.969,56.3344 -6.168,63.1367 5.8885,10.5225 8.217,8.0291 15.6172,-16.6699 4.0345,-13.4773 6.9989,-21.4706 10.2559,-25.1973 l 10.9297,-42.7109 c 38.699,-14.6044 77.9763,12.3498 131.9746,18.6973 32.9249,3.8711 48.1569,9.065 97.6601,8.6093 75.2499,3.1035 68.8034,-26.4461 109.5645,-75.4609 11.1767,-11.3155 19.9969,-12.3848 194.1406,-23.2969 2.8503,-0.1633 5.1467,-5.1776 5.1465,-11.0996 0,-9.2966 -11.7802,-10.4397 -85.3379,-8.6094 -99.7693,2.4828 -106.9931,-4.8358 -38.5332,-39.082 22.4897,-11.2493 40.8965,-23.4986 40.8965,-27.2226 0,-0.9311 0.5718,-1.3061 1.5195,-1.1836 2.9238,0.4084 9.7992,5.1932 17.7246,12.7871 10.5666,10.1238 30.0151,22.1061 43.2188,26.5898 13.2029,4.4756 32.2754,13.9184 42.414,20.9746 10.1386,7.0564 45.1209,32.9866 56.1269,35.1836 42.3673,113.774 -24.5386,120.5189 41.0274,259.1094 8.694,8.1426 24.579,18.1402 35.2852,22.1992 31.3697,11.8889 95.4437,8.986 124.082,-5.6094 l 25.4902,-13 20.3008,23.9792 c 39.9666,34.8318 48.3471,47.129 103.6136,47.9538 36.6021,0.5715 47.7277,7.2373 72.6325,-7.3622 37.0564,-21.7163 51.7612,-51.1487 57.0982,-77.8356 5.0638,-25.3253 29.8723,-14.5778 91.3354,11.5773 56.3735,23.9876 66.3387,19.6192 56.4278,10.5938 -16.617,-15.1322 -66.1052,-8.1882 -107.3038,-66.8145 -55.4688,-78.9332 -1.8141,-90.4562 58.21,-86.5744 66.4849,4.2996 127.9911,21.4744 159.1548,30.4366 51.2359,11.2536 36.8645,-4.2407 -1.1716,-18.5239 -64.8534,-24.3537 -198.5043,-63.3926 -193.0477,-92.256 7.4382,-32.9226 59.2556,-10.3876 94.623,-15.5586 92.4676,-13.5197 154.2548,19.9757 195.375,2.8164 3.1121,-15.3051 -44.8777,-26.8418 -111.7148,-26.8418 h -51.9121 l 23.8027,-25.914 c 29.8205,-32.4683 33.0786,-69.2838 3.6758,-41.4864 -101.0629,108.1382 -149.0838,77.1851 -8.1582,-9.7988 13.7805,-26.735 5.0056,-33.1052 -18.2793,-11.3848 -10.4833,9.7793 -26.8305,21.7461 -36.3379,26.6309 -9.5078,4.8839 -28.9578,18.2426 -43.2187,29.6699 -14.2605,11.4258 -27.8082,18.9075 -30.0899,16.6289 -4.876,-4.8757 6.8512,-42.8035 28.4024,-91.9629 15.3037,-34.9021 15.5566,-35.066 78.4589,-57.5664 71.8163,-25.6888 84.6799,-37.9031 101.543,-96.3125 22.8601,-79.1775 88.9574,-248.7001 125.2227,-321.1757 20.4926,-40.9564 46.3345,-96.9627 57.4414,-124.4629 46.9901,-116.3452 116.9778,-267.59783 134.3769,-290.41019 21.7954,-28.57335 47.9005,-42.95462 73.3106,-43.76563 h 0.041 c 2.042,-0.0654 4.0533,-0.0917 6.0391,-0.0762 z M 3776.373,1193.7832 v 0 c 3.6669,0 4.1163,2.7278 4.0918,8.1426 -0.045,11.906 -17.3525,24.029 -82.2148,57.8203 -37.2379,19.4018 -84.1536,25.5338 -103.1895,13.4629 -5.6027,-3.5609 9.6571,-7.3497 39.7578,-9.875 51.3971,-4.3122 90.3241,-21.2073 90.4434,-39.25 0.041,-5.8394 12.4708,-15.7879 27.6445,-22.1582 12.9048,-5.423 19.7993,-8.1426 23.4648,-8.1426 z m -84.3632,18.1484 v 0 c 12.9141,0.042 12.6802,3.986 -4.8535,11.8594 v 0.041 c -11.4087,5.1208 -45.627,10.312 -76.0527,11.5215 l -55.3301,2.1973 62.209,-13.9278 c 35.0196,-7.84 61.1094,-11.7236 74.0254,-11.6914 z m 83.4277,51.3477 v 0 c 2.5645,0.023 4.2392,0.7352 5.1055,2.1563 2.7277,4.4184 6.8831,28.3661 9.1992,53.1777 3.2179,34.4692 1.1042,54.2817 -8.8613,84.0703 -7.1709,21.4411 -15.1384,53.3386 -17.7266,70.9043 -4.059,27.5428 -8.2496,33.9216 -30.3457,46.3398 -14.0915,7.9219 -55.8624,22.2979 -92.8496,31.9082 -36.9871,9.6084 -73.1784,20.6329 -80.4414,24.5196 -19.1045,10.226 -21.0416,9.1465 -21.1445,-11.9434 -0.1633,-39.4177 -20.1214,-262.0464 -24.4786,-273.4004 -3.0709,-7.9954 -1.1275,-11.8613 5.9942,-11.8613 5.7986,0 16.2463,-1.78 23.2129,-3.9688 11.5883,-3.6426 11.6514,-3.3476 0.8398,3.627 -20.0623,12.94 -7.374,24.6259 27.4766,25.2793 18.0125,0.3269 48.9049,1.3648 68.666,2.3203 29.7503,1.4293 44.496,-2.6299 85.7187,-23.6348 26.1942,-13.3702 41.9286,-19.5927 49.6309,-19.498 z m 167.3105,34.5059 v 0 c 9.6336,0.1176 20.1525,1.3733 31.9961,3.5234 51.1219,9.2901 71.0675,21.156 102.6836,61.1543 27.1382,34.332 27.2732,34.7693 17.7246,61.8301 -10.8015,30.616 -31.5379,143.5782 -48.2812,262.8496 -6.1414,43.7373 -14.6251,97.7883 -18.8223,120.0723 l -7.6367,40.4746 -62.8848,-2.4493 c -37.635,-1.4865 -64.2893,0.3278 -66.3027,4.4356 -5.4474,11.1947 48.7756,12.4625 88.0801,10.0859 19.9706,-1.2087 36.1154,-0.6536 35.875,1.2656 -0.2457,1.9029 -4.2542,36.5182 -8.9473,61.2383 l -8.5683,44.9493 -12.4922,23.9863 c -96.1028,-5.8068 -222.3405,25.0054 -209.9688,-51.8418 l 6.7129,-41.6973 40.6856,5.3164 c 28.8276,14.2917 43.214,18.098 49.4218,13.125 4.8189,-3.8629 29.7432,-9.197 55.4141,-11.8594 39.7376,-4.1245 46.6777,8.0123 46.6777,-3.291 0,-11.9802 -5.3659,-3.1289 -55.0761,-3.1289 -38.1166,0 -62.9699,-3.7392 -80.6524,-12.1113 -17.7827,-8.4202 -26.3331,-9.6797 -28.1933,-4.1816 -1.4703,4.353 -8.8252,-3.8232 -16.334,-5.7832 -11.593,-3.0302 -12.9442,-7.3573 -9.0293,-28.6563 7.0564,-38.3829 20.7631,-43.0721 72.5898,-24.7754 34.7868,12.2817 82.1309,7.7516 82.1309,-7.8476 0,-6.1498 -7.3679,-9.75 -19.8789,-9.75 -10.9319,0 -33.0828,-4.6704 -49.252,-10.3809 -16.168,-5.7006 -41.9515,-10.3828 -57.2715,-10.3828 h -27.8554 l 5.2343,-98.5488 c 2.8751,-54.1953 6.3299,-131.2057 7.6856,-171.1387 3.3324,-98.3016 11.2106,-122.8148 53.9805,-168.3555 31.6441,-33.7169 54.2746,-47.4816 86.4765,-48.1113 1.3418,-0.03 2.7016,-0.037 4.0781,-0.019 z m 282.9024,72.9609 c 5.6451,0.034 10.9833,0.6817 15.7851,2.0234 10.8034,3.0219 22.023,4.9972 24.9434,4.3438 11.9811,-2.6543 54.6926,20.1957 71.4941,38.2793 9.8956,10.6515 24.2156,31.5478 31.8223,46.4258 14.7455,28.8404 39.7134,166.0804 39.9258,219.3789 0.083,30.1848 -1.0543,32.2381 -20.0899,35.0312 l -20.2167,2.9551 16.7558,-33.0469 c 19.0057,-37.5049 21.1903,-54.2734 7.0469,-54.2734 -5.3496,0 -19.6571,21.0061 -31.8223,46.6777 -22.9394,48.4072 -123.7108,350.5962 -123.7108,362.2091 0,14.2964 -49.515,18.6725 -126.1915,11.1425 v 0.041 c -37.0756,-3.6426 -50.8914,-12.8692 -64.5215,-3.9426 -16.6239,10.8933 -17.2985,-15.4919 -21.6934,-32.9989 -2.4911,-9.9378 1.3557,-44.9438 8.5254,-77.8262 12.4445,-34.4087 5.3092,-43.1799 43.8086,-42.2031 42.8413,1.2006 155.8207,42.8916 157.9297,32.5391 -43.7083,-32.7549 -180.4912,-42.0542 -184.1797,-77.7403 3.9693,-3.9692 163.3067,15.4292 172.2774,20.9746 3.5773,2.2133 8.5033,-1.1431 10.9316,-7.4726 -161.2615,-32.1988 -104.0781,-37.3913 -165.9062,-49.9278 -1.7473,-2.8503 4.116,-56.3522 13.041,-118.8476 36.6043,-109.0405 26.6806,-161.7966 40.9804,-215.3711 10.1182,-37.8096 23.3081,-70.4538 32.4141,-80.1465 14.7436,-15.6914 41.6037,-26.6332 64.9102,-28.1074 v 0.012 0.041 c 1.9415,-0.1224 3.8584,-0.1789 5.7402,-0.168 z m 401.1973,104.998 c -9.207,-0.1065 -10.7936,5.1436 0.6757,17.8184 6.7219,7.4321 17.7213,15.2571 24.4356,17.3887 7.5628,2.4011 10.9794,8.5113 8.9902,16.123 -2.2949,8.7829 7.204,19.575 33.2578,37.8145 38.2885,26.8003 41.5194,27.8334 66.4707,21.1445 21.9338,-5.8803 19.4385,-16.7758 -10.3808,-45.4121 -33.6647,-32.3286 -97.5751,-62.886 -121.5078,-64.7832 -0.68,-0.054 -1.328,-0.087 -1.9414,-0.094 z m -871.4317,74.086 c 0.4298,0 0.7299,0.081 0.877,0.2441 1.1841,1.2332 -0.491,36.454 -3.7578,78.2891 -3.2425,41.8342 -6.052,117.331 -6.2481,167.7226 -0.1633,50.3918 -3.0139,91.584 -6.248,91.584 -3.2343,0 -19.11,-9.5558 -35.2832,-21.2715 -16.1726,-11.7156 -41.5851,-25.6001 -56.4688,-30.8515 -14.8829,-5.2515 -37.1222,-17.0797 -49.4219,-26.293 -29.7347,-22.2741 -49.8534,-27.7144 -67.5703,-18.2324 -13.7722,7.3667 -14.1038,6.8839 -5.8633,-8.2735 4.8105,-8.8434 10.7169,-45.2944 13.127,-81.0312 4.1325,-61.2867 5.5926,-66.0494 25.5742,-83.9043 15.2872,-13.6594 38.7929,-23.0069 84.4102,-33.5098 34.7714,-8.0037 72.7554,-19.4649 84.4082,-25.4922 8.7396,-4.5165 16.8091,-7.8731 20.8086,-8.7363 0.6655,-0.1633 1.2264,-0.2441 1.6562,-0.2441 z m -95.6875,68.2363 c -8.1712,0 -10.5924,8.2837 -10.5508,36.2969 0.062,43.8393 11.8407,120.01 21.2696,137.6289 3.765,7.0237 11.7237,12.7461 17.7265,12.7461 8.5461,0 10.0147,-4.8514 6.7969,-22.4531 -2.2623,-12.3593 -7.6208,-50.4769 -11.9453,-84.7051 -9.8086,-77.5841 -10.3765,-79.5137 -23.2969,-79.5137 z m 167.4277,97.4356 c -2.2108,-0.2136 3.4772,3.865 21.0997,15.039 11.882,4.0346 25.6108,12.2728 30.5136,18.3164 4.9002,6.0437 23.6735,16.3867 41.6993,23.002 18.0251,6.6153 34.5534,14.8986 36.7187,18.4023 2.1642,3.5037 9.9643,6.3692 17.3457,6.3692 10.7142,0 13.4199,17.0925 13.4199,-2.1075 0,-21.0988 -3.4141,-25.8126 -27.6015,-38.1523 -33.8355,6.1171 -122.2669,-38.2973 -132.6485,-40.7695 -0.2154,-0.052 -0.3991,-0.084 -0.5469,-0.1 z m -290.9355,96.4472 c 7.5498,0.1981 15.657,1.8473 20.6543,5.0274 4.9901,3.177 -2.4341,9.6246 -19.625,16.9668 -24.1983,10.3321 -27.2198,10.4942 -23.6328,1.1347 2.2541,-5.8885 4.1308,-13.5553 4.1308,-17.0508 0,-3.7813 6.9187,-5.8556 15.2793,-6.0761 1.0451,-0.03 2.113,-0.03 3.1915,0 z m -662.2168,20.4746 c 11.496,0 -15.9382,38.0578 -38.6582,53.6407 -9.6478,6.6153 -31.2138,24.1245 -47.9023,38.871 -16.6887,14.7498 -30.3457,24.9954 -30.3457,22.7911 0,-8.1263 108.6656,-115.3028 116.9062,-115.3028 z m 1767.4043,55.791 21.1016,13.4219 21.1445,13.4219 -6.875,41.6562 c -5.0064,30.2697 -9.8475,41.6042 -17.6836,41.5274 -23.7524,-0.2453 -27.0623,-9.1156 -22.3262,-60.1836 z m -767.7441,129.918 v 0 c 0,0 50.7693,4.2794 83.1855,18.6543 2.4578,45.0898 4.5573,167.8208 -114.5859,146.2695 -72.5607,-13.1253 -67.5975,-149.5343 -55.3731,-160.4921 34.8133,-1.0045 61.095,-4.6479 86.7735,-4.4356 z m -376.7188,32.2305 c -17.6115,0.8739 217.3136,218.5498 265.8457,302.3965 19.6034,33.8664 38.4492,43.2678 38.4492,19.1601 0,-15.8368 -46.0992,-94.0068 -80.3144,-136.1523 -12.8698,-15.854 -186.0214,-170.8993 -221.4903,-184.8145 -1.1106,-0.4084 -1.9185,-0.6521 -2.4902,-0.5703 z m 709.5254,55.8729 c -3.1929,90.1416 -24.8674,126.4534 -98.6626,133.58 -108.7127,10.4987 -96.9884,-105.4418 -85.9061,-149.3602 11.8166,-46.8286 185.4527,-9.1762 184.5687,15.7802 z m 316.3848,44.2344 c -16.7433,0 -10.0573,14.0203 26.7148,55.7949 35.9101,40.7963 53.8106,50.8236 53.8106,30.2188 0,-13.5337 -67.8561,-86.0137 -80.5254,-86.0137 z m -742.9356,55.9063 v 0 0.041 c -3.61,0.1633 -4.4755,3.9926 -3.4219,11.4785 2.4664,17.4155 46.1904,44.7156 121.5898,75.9687 36.1145,14.9686 92.0937,43.258 124.42,62.8868 32.327,19.6288 64.2059,35.6966 70.8613,35.7031 19.3716,0.023 14.0066,-19.409 -8.6094,-31.1035 -26.2632,-13.5811 -26.865,-18.3519 -1.0527,-8.6094 20.4537,7.7179 42.543,3.5515 42.543,-7.9805 0,-3.6425 -17.4586,-14.5902 -38.7872,-24.3515 -21.3275,-9.7654 -53.6254,-28.6603 -71.789,-41.9922 -36.6131,-26.8779 -41.5723,-28.5902 -41.5723,-14.6465 0,9.2729 34.0267,42.9819 69.2149,68.625 16.4991,12.0244 0.057,3.472 -66.6407,-34.5645 -15.7081,-8.9601 -58.3858,-28.4318 -94.8339,-43.2617 -36.4479,-14.8305 -73.287,-31.8364 -81.877,-37.8554 -10.0464,-7.0401 -16.4359,-10.5207 -20.0469,-10.3418 z m -653.4043,13.2675 c -7.6117,0 -9.834,11.6716 -9.834,51.8692 0,40.5447 2.1728,51.8281 9.961,51.8281 16.3734,0 19.4384,-12.568 14.4336,-59.2969 -3.373,-31.5192 -7.5875,-44.4004 -14.5606,-44.4004 z m 658.5489,62.461 c -0.6498,-10e-5 -1.2718,0.015 -1.8633,0.045 h -0.037 c -9.5237,0.4899 -11.5252,4.8096 -6.4102,13.082 2.197,3.5609 21.1837,12.9006 42.2051,20.7656 65.3373,36.4461 125.4328,71.0628 193.1914,114.2481 7.6036,3.0382 21.1191,7.1128 30.0078,9.0312 13.598,2.932 15.8026,0.9955 13.8418,-12.0293 -1.4865,-9.8708 -13.5019,-21.714 -33.1309,-32.707 -16.9285,-9.4803 -43.3928,-27.4174 -58.791,-39.8828 -37.6577,-30.4845 -64.7824,-43.5745 -129.3144,-62.3359 -23.4408,-6.8195 -39.8749,-10.2108 -49.6875,-10.2168 z m -348.0879,48.5859 c -5.7971,-0.3759 -17.0425,12.3521 -31.6153,40.8887 -10.4588,20.4798 -18.9922,44.4363 -18.9922,53.2617 0,8.8253 -2.3368,16.0727 -5.1953,16.0801 -2.8503,0.01 -5.9686,10.8802 -6.916,24.1836 -2.3766,33.3258 15.4046,32.1187 26.293,-1.7715 4.5817,-14.2622 15.7086,-43.7481 24.7324,-65.502 16.9974,-40.9751 19.4596,-65.4851 12.2383,-67.1054 v 0.041 c -0.1758,-0.039 -0.3579,-0.064 -0.5449,-0.076 z m 149.4785,47.8418 c -0.5882,-0.024 -1.1901,0.024 -1.8047,0.1406 -17.2547,3.226 -44.6336,60.4547 -45.75,102.2188 -0.3269,13.5484 1.5189,14.7774 13.041,8.6113 14.6657,-7.8487 48.0537,-100.0424 39.377,-108.7207 -1.4579,-1.4579 -3.0949,-2.1764 -4.8594,-2.248 z m 806.832,36.9961 v 0.027 c -14.8108,0 -14.4968,2.2139 9.0742,61.1133 11.1432,27.8466 23.4982,59.2046 27.4746,69.6797 9.6533,25.4201 28.3184,25.1401 28.3184,-0.4082 0,-27.8652 -51.0054,-130.4121 -64.8672,-130.4121 z m -427.125,40.8789 c -7.307,-0.3721 -20.4436,16.0542 -39.4883,49.3418 -44.8565,78.3992 -84.1429,131.4832 -118.5117,160.166 -29.2798,24.4343 -106.619,66.0402 -137.9668,74.2383 -7.7832,2.0336 -14.1387,7.1141 -14.1387,11.2695 0,22.8271 82.1426,-2.7118 147.168,-45.75 52.3979,-34.6807 99.4002,-88.6837 141.9766,-163.1211 31.5326,-55.1295 38.4341,-82.5284 21.6504,-86.0566 -0.223,-0.047 -0.454,-0.076 -0.6895,-0.088 z m -464.9961,39.8008 c -1.5191,0 -18.9634,10.913 -38.7441,24.2246 -23.3914,15.7412 -44.7831,24.4943 -61.1973,24.9844 -13.8792,0.4084 -19.3206,2.3359 -12.1133,4.1816 10.5299,2.6952 11.17,4.5499 3.4219,9.4551 -6.5091,4.1244 -0.4888,6.1335 18.4023,6.207 35.2607,0.1634 92.9766,-34.0626 92.9766,-55.0781 0,-7.6934 -1.2251,-13.9688 -2.7441,-13.9688 z m 841.1797,41.5703 c -12.5348,-0.1633 -10.7797,10.0101 8.3145,47.6914 9.3343,18.4233 20.6007,47.9215 25.0273,65.502 9.6374,38.2742 27.1387,43.7861 27.1387,8.5664 0,-38.2547 -41.3784,-121.5965 -60.4805,-121.7598 z m -527.4883,62.8516 c -6.7204,-0.078 -18.1278,7.5897 -34.0449,22.9941 -32.671,31.6132 -90.5373,60.7275 -101.9238,51.2773 -7.7343,-6.4193 -57.7375,4.4513 -133.4922,28.9942 -14.6109,4.7369 -15.1501,5.7511 -3.4629,6.625 l 13.8418,1.0117 -13.8418,5.9531 c -11.1366,4.786 -8.8353,6.0038 11.7734,6.4121 24.4311,0.49 94.8965,-14.853 109.3106,-23.7617 3.7569,-2.3194 6.8359,-0.9072 6.8359,3.1192 0,11.8512 14.5456,8.5992 62.252,-13.8848 49.7816,-23.4632 89.8965,-57.818 89.8965,-76.9805 0,-7.0808 -1.9697,-10.9411 -5.8653,-11.6484 v 0.01 c -0.4063,-0.074 -0.833,-0.1141 -1.2812,-0.1192 z m 200.0996,20.0312 v 0 c -4.165,0 -15.8615,5.8728 -25.957,13.041 -10.094,7.1708 -29.505,17.6965 -43.1329,23.3808 -26.3833,10.9978 -36.4341,36.6616 -11.2265,28.6563 8.1725,-2.5972 11.8568,-1.5829 9.2871,2.5742 -2.3441,3.7895 -12.8453,9.0166 -23.3399,11.6055 -10.4943,2.589 -42.8317,15.3599 -71.8339,28.4043 -29.0019,13.0445 -57.761,23.7187 -63.9375,23.7187 -6.1745,0 -11.2266,4.6787 -11.2266,10.3809 0,16.5997 26.0889,12.4509 107.2402,-17.0078 82.5634,-29.9699 109.464,-46.1011 112.6875,-67.6524 1.1596,-7.7751 8.1792,-19.6474 15.5723,-26.3379 14.635,-13.2429 17.976,-30.7656 5.8652,-30.7656 z m 52.2813,1.043 c -0.48,-0.027 -0.9808,0.01 -1.502,0.1 -6.9418,1.2577 -17.6391,13.3872 -36.7597,39.5039 -30.5976,41.7935 -75.9098,77.6525 -115.3457,91.2891 -12.3602,4.2713 -22.4942,12.1395 -22.4942,17.4726 0,26.2687 84.2962,-6.7134 133.7891,-52.334 33.0236,-30.4387 56.4105,-70.9826 50.2226,-87.1093 -2.1509,-5.6098 -4.5513,-8.735 -7.9101,-8.9219 z m 166.1347,77.3769 c -9.1993,0 -9.2038,1.3061 0.061,11.5215 5.7332,6.3377 15.1022,11.5235 20.8066,11.5235 9.1986,0 9.2116,-1.3081 -0.057,-11.5235 -5.7332,-6.3376 -15.1018,-11.5215 -20.8066,-11.5215 z m 17.42,32.252 c -0.038,0 -0.061,0.011 -0.072,0.037 -0.155,0.415 3.0431,4.269 9.5371,11.9414 7.1622,8.4685 15.5388,13.855 18.5703,11.9863 3.0301,-1.8784 7.448,-0.2444 9.834,3.586 2.3928,3.8712 6.0852,7.0488 8.2305,7.0488 2.1399,0 0,-4.7549 -4.8106,-10.5527 -4.8106,-5.7987 -10.4065,-8.8809 -12.4082,-6.875 -2.0005,2.0009 -10.1064,-1.8225 -18.0215,-8.4844 -6.7298,-5.6659 -10.2988,-8.6728 -10.8593,-8.6875 z m -372.5684,400.8398 v 0.012 c -2.3603,-0.065 -5.138,1.6748 -8.3574,4.8926 -7.3262,7.3177 -17.4077,244.3007 -11.0996,260.7403 5.4969,14.3136 22.7334,14.4908 28.1933,0.2441 2.3112,-6.0191 4.1817,-66.5002 4.1817,-134.4219 0,-96.954 -2.6883,-131.2307 -12.916,-131.4668 z m 164.9277,16.8887 c -5.0316,-0.63 -4.5653,47.1456 6.2618,168.7246 7.7586,86.3017 16.1233,184.1169 18.6132,217.3945 l 5.6114,74.2676 h 40.5234 l -4.3965,-32.7812 c -2.0742,-10.4588 -11.7126,-85.9141 -21.3965,-167.6797 -16.139,-140.1603 -37.3674,-258.9429 -45.2168,-259.9258 z"
       transform="matrix(0.26458333,0,0,0.26458333,0,-658.00001)"
       id="rect2352"
       inkscape:connector-curvature="0"
       sodipodi:nodetypes="cccccccsccccccccscccsccccssccscssccccscccccccccccccccccccccscccccccccscscccscccccsccccccsscccccccccccsscccccccccccccccccscccccsccccccccccccccccccccscccccccccccccsccccsccccccsccccccccccccscssccscccccscccscccccccsccccsccccccccccccccscccsccccccccccscccccccccccccscccccccccscccccccccccccccccccsccccccccccccccsssscsccsccccccccccccsccccssccccccscccccccccccccccccccsccccccccccccccccccccccccccsscccccsscscccccccccccccccscsccccccccccccccccccccccccccccscccsccscccccccssccsccssccccsscccccccsccccccsscccscccscscsccccsccscccscccccssssccccccssscscccccccccccccccsccccccccccccccscccscccccsccccccccccscccccsccccccccccscsccccccccccccssccccccccscccscscsscccccscscccccccsccccccccccccccccccccccscccccccccc" />
  </g>
</svg>
