<?xml version="1.0" encoding="UTF-8" standalone="no"?>
<!-- Created with Inkscape (http://www.inkscape.org/) -->

<svg
   xmlns:dc="http://purl.org/dc/elements/1.1/"
   xmlns:cc="http://creativecommons.org/ns#"
   xmlns:rdf="http://www.w3.org/1999/02/22-rdf-syntax-ns#"
   xmlns:svg="http://www.w3.org/2000/svg"
   xmlns="http://www.w3.org/2000/svg"
   version="1.1"
   width="328.01743"
   height="259.92346"
   id="svg2"
   style="display:inline">
  <defs
     id="defs4" />
  <metadata
     id="metadata7">
    <rdf:RDF>
      <cc:Work
         rdf:about="">
        <dc:format>image/svg+xml</dc:format>
        <dc:type
           rdf:resource="http://purl.org/dc/dcmitype/StillImage" />
        <dc:title></dc:title>
      </cc:Work>
    </rdf:RDF>
  </metadata>
  <g
     transform="translate(-135.99128,-632.17309)"
     id="g2834"
     style="display:inline" />
  <g
     transform="translate(-135.99128,-179.81091)"
     id="layer2"
     style="display:inline">
    <g
       id="g3049">
      <path
         d="m 313.71094,393.96094 -3.33985,21.86719 c -0.72658,5.08594 -1.83986,8.54297 -3.33984,10.37109 -1.47658,1.82813 -3.64455,2.74219 -6.50391,2.74219 -1.03126,0 -2.00392,-0.19922 -2.91797,-0.59766 -0.89063,-0.39844 -1.81641,-1.04297 -2.77734,-1.93359 l -2.00391,13.32422 -10.4414,0 8.71875,-58.67579 10.51172,0 -0.31641,2.25 c 1.24217,-0.89057 2.36717,-1.5351 3.375,-1.93359 1.00779,-0.39839 2.02732,-0.59761 3.05859,-0.59766 2.13279,5e-5 3.77342,0.60943 4.92188,1.82813 1.17185,1.21879 1.75778,2.96489 1.75781,5.23828 -3e-5,0.46879 -0.0586,1.14848 -0.17578,2.03906 -0.0938,0.86723 -0.26956,2.2266 -0.52734,4.07813 m -10.30079,-1.3711 c -10e-6,-0.0937 0.0117,-0.23433 0.0352,-0.42187 0.0703,-0.44528 0.10545,-0.73824 0.10547,-0.87891 -2e-5,-0.44527 -0.14064,-0.79683 -0.42188,-1.05468 -0.25782,-0.25778 -0.62111,-0.38668 -1.08984,-0.38672 -0.60939,4e-5 -1.08986,0.21097 -1.44141,0.63281 -0.32813,0.42191 -0.57423,1.12504 -0.73828,2.10937 l -3.65625,24.60938 c -0.0234,0.25782 -0.0586,0.52735 -0.10547,0.80859 -0.0234,0.25783 -0.0352,0.39845 -0.0351,0.42188 -10e-6,0.4922 0.12889,0.8672 0.38672,1.125 0.2578,0.25782 0.6328,0.38673 1.125,0.38672 0.60936,10e-6 1.07811,-0.21093 1.40625,-0.63282 0.35155,-0.42186 0.59764,-1.12498 0.73828,-2.10937 l 3.6914,-24.60938"
         id="path3653"
         style="font-size:72px;font-style:italic;font-variant:normal;font-weight:bold;font-stretch:normal;text-align:start;line-height:100%;writing-mode:lr-tb;text-anchor:start;fill:#002c78;fill-opacity:1;stroke:none;font-family:Compacta Bd BT;-inkscape-font-specification:Compacta Bd BT Bold Italic" />
      <g
         transform="translate(5e-6,0)"
         id="g3045">
        <path
           d="m 142.18623,786.84042 -0.037,-3 0.49804,1.23097 c 0.27392,0.67703 0.2906,2.02703 0.037,3 l -0.46099,1.76903 -0.037,-3 -5e-5,0 z m 3.80505,-0.90072 0,-3.73406 -1.91584,0.60807 -1.91585,0.60806 -0.64317,-1.04067 -0.64317,-1.04068 3.60433,0 3.60433,0 -0.67798,3.75 c -0.91391,5.05501 -1.41265,5.35485 -1.41265,0.84928 z m 4.44411,1.5768 0.63724,-2.00777 -1.14744,-0.70915 -1.14744,-0.70916 1.35677,-0.84449 1.35676,-0.84448 -1.28021,-2.06532 -1.28021,-2.06532 0.9998,-1.7152 0.9998,-1.71519 0.0304,1.75 0.0304,1.75 1.07647,0 1.07647,0 -0.28574,-3.9574 -0.28573,-3.9574 0.58879,-0.5888 0.5888,-0.58879 0.66595,4.44089 0.66595,4.44089 -0.65389,2.60531 -0.65389,2.6053 1.35841,0.0153 1.35841,0.0153 -1.49126,0.9428 -1.49125,0.94281 -0.009,1.77552 -0.009,1.77552 -1.84657,0.35828 -1.84656,0.35828 0.63724,-2.00776 5.3e-4,3e-5 z m 38.57142,0.30521 1.26041,-1.51871 -0.48765,-5.23129 -0.48765,-5.23129 0.75,-2.5 0.75,-2.5 0.0997,6.75 0.0997,6.75 1.5,0 1.5,0 0,0.91821 c 0,0.50502 0.27315,1.63002 0.60699,2.5 l 0.60699,1.58179 -3.72944,0 -3.72943,0 1.26042,-1.51871 -4e-5,0 z m -51.86072,-8.73129 c 0.37739,-4.5375 0.72194,-8.83906 0.76567,-9.55902 l 0.0795,-1.30901 0.83327,0.51498 0.83327,0.51499 -0.44677,3.04403 -0.44677,3.04403 1.1135,0 1.1135,0 0,-1.94098 0,-1.94099 1.10693,-0.68412 1.10694,-0.68412 -0.65406,3.3751 -0.65405,3.37511 1.54712,-1.94113 1.54712,-1.94113 0,2.19113 0,2.19113 -2,0 -2,0 -0.0789,1.75 -0.0789,1.75 -0.50646,-1.25623 -0.50647,-1.25623 -0.91459,0.56525 -0.91458,0.56524 0,3.94099 0,3.94098 -0.76567,0 -0.76567,0 0.68615,-8.25 -8e-5,0 z m 1.84519,6.25 0,-2 1,0 1,0 0,2 0,2 -1,0 -1,0 0,-2 z m 201.75,0.26779 c 2.3375,-0.21053 6.1625,-0.21053 8.5,0 l 4.25,0.3828 -8.5,0 -8.5,0 4.25,-0.3828 z m 72.5,0.0429 c 0.9625,-0.25152 2.5375,-0.25152 3.5,0 l 1.75,0.45733 -3.5,0 -3.5,0 1.75,-0.45733 z m 10.01375,-0.0282 c 1.52006,-0.22986 3.77006,-0.22371 5,0.0136 l 2.23625,0.43157 -5,-0.0137 -5,-0.0136 2.76375,-0.41792 0,5e-5 z m 10.98625,10e-4 c 1.5125,-0.22913 3.9875,-0.22913 5.5,0 l 2.75,0.41659 -5.5,0 -5.5,0 2.75,-0.41659 z m 14.5,-0.016 c 2.3375,-0.21053 6.1625,-0.21053 8.5,0 l 4.25,0.3828 -8.5,0 -8.5,0 4.25,-0.3828 z m -282.75,-5.15984 0,-4.22568 1.00349,0.62018 1.00348,0.62019 -0.55644,3.15845 c -0.82527,4.6844 -1.45053,4.60977 -1.45053,-0.17314 z m 174.75,2.16014 c 2.3375,-0.21053 6.1625,-0.21053 8.5,0 l 4.25,0.3828 -8.5,0 -8.5,0 4.25,-0.3828 z m 22.98097,0.0763 c 0.67703,-0.27392 2.02703,-0.29059 3,-0.0371 l 1.76903,0.46099 -3,0.037 -3,0.0371 1.23097,-0.49805 0,6e-5 z m 8.01903,-0.006 1.25,-0.50439 1.25,0.50439 1.25,0.50439 -2.5,0 -2.5,0 1.25,-0.50439 z m 12.5,-0.0767 c 3.1625,-0.19845 8.3375,-0.19845 11.5,0 l 5.75,0.36082 -11.5,0 -11.5,0 5.75,-0.36082 z m 21.5,0.0767 1.25,-0.50439 1.25,0.50439 1.25,0.50439 -2.5,0 -2.5,0 1.25,-0.50439 z m 7.98097,0.006 c 0.67703,-0.27392 2.02703,-0.29059 3,-0.0371 l 1.76903,0.46099 -3,0.037 -3,0.0371 1.23097,-0.49805 0,6e-5 z m 20.51903,-0.0603 c 1.5125,-0.22913 3.9875,-0.22913 5.5,0 l 2.75,0.41659 -5.5,0 -5.5,0 2.75,-0.41659 z m 14.52643,-0.0172 c 2.35204,-0.21124 5.95204,-0.20827 8,0.007 l 3.72357,0.39068 -8,-0.007 -8,-0.007 4.27643,-0.38409 0,4.1e-4 z m -254.77643,-6.53602 0,-5.26944 7.75,0.32935 c 4.2625,0.18114 8.28005,0.5008 8.92788,0.71037 l 1.17788,0.38103 0.32212,2.78589 0.32212,2.78589 2.33846,1.15948 2.33845,1.15949 -1.11285,0.68778 -1.11286,0.68778 -2.9756,-0.65355 -2.9756,-0.65355 0,-2.42055 0,-2.42054 -0.94098,0 c -0.51754,0 -1.2191,0.45 -1.55902,1 l -0.61803,1 -5.05762,0 -5.05761,0 0.52301,2 0.52301,2 -1.40638,0 -1.40638,0 0,-5.26943 z m -37.5541,3.37995 c -0.21534,-0.21421 -0.1522,-0.77671 0.1403,-1.25 l 0.53183,-0.86052 2.44099,0 2.44098,0 0,1.39421 0,1.39422 -2.58129,-0.14422 c -1.41971,-0.0793 -2.75747,-0.31948 -2.97281,-0.53369 z m 184.3041,0.15727 c 2.3375,-0.21053 6.1625,-0.21053 8.5,0 l 4.25,0.3828 -8.5,0 -8.5,0 4.25,-0.3828 z m 22.5,0.0429 c 0.9625,-0.25152 2.5375,-0.25152 3.5,0 l 1.75,0.45733 -3.5,0 -3.5,0 1.75,-0.45733 z m 21.53919,-0.0521 c 3.45905,-0.19583 8.85905,-0.19422 12,0.004 l 5.71081,0.35965 -12,-0.004 -12,-0.004 6.28919,-0.35605 0,4e-4 z m 20.96081,0.0791 1.25,-0.50439 1.25,0.50439 1.25,0.50439 -2.5,0 -2.5,0 1.25,-0.50439 z m 7.98097,0.006 c 0.67703,-0.27392 2.02703,-0.29059 3,-0.0371 l 1.76903,0.46099 -3,0.037 -3,0.0371 1.23097,-0.49805 0,6e-5 z m 20.51903,-0.0603 c 1.5125,-0.22913 3.9875,-0.22913 5.5,0 l 2.75,0.41659 -5.5,0 -5.5,0 2.75,-0.41659 z m 14.52643,-0.0172 c 2.35204,-0.21124 5.95204,-0.20827 8,0.007 l 3.72357,0.39068 -8,-0.007 -8,-0.007 4.27643,-0.38409 0,4.1e-4 z m -288.77643,-6.26619 0,-2 1,0 1,0 0,2 0,2 -1,0 -1,0 0,-2 z m -13,-1 0,-1 2,0 2,0 0,1 0,1 -2,0 -2,0 0,-1 z m 192.23209,0.28546 c 1.50265,-0.22817 4.20265,-0.23275 6,-0.0102 l 3.26791,0.40466 -6,0.0102 -6,0.0102 2.73209,-0.41487 z m 60.03874,0.11037 0.60417,-0.60416 1.3125,0.52522 1.3125,0.52522 -1.91667,0.0789 -1.91666,0.0789 0.60416,-0.60417 0,9e-5 z m 5.46014,-0.0518 c 0.67703,-0.27392 2.02703,-0.29059 3,-0.0371 l 1.76903,0.46099 -3,0.037 -3,0.0371 1.23097,-0.49805 0,6e-5 z m 8,0 c 0.67703,-0.27392 2.02703,-0.29059 3,-0.0371 l 1.76903,0.46099 -3,0.037 -3,0.0371 1.23097,-0.49805 0,6e-5 z m 21.53278,-0.0616 c 1.52006,-0.22986 3.77006,-0.22371 5,0.0136 l 2.23625,0.43157 -5,-0.0137 -5,-0.0136 2.76375,-0.41792 0,5e-5 z m 13.48625,-0.0146 c 2.3375,-0.21053 6.1625,-0.21053 8.5,0 l 4.25,0.3828 -8.5,0 -8.5,0 4.25,-0.3828 z m -212.42527,-3.34306 -0.99543,-0.99543 -4.65769,-0.21465 -4.6577,-0.21465 -0.007,-1.89246 -0.007,-1.89245 -5.85825,0.61231 c -3.22204,0.33677 -10.30954,0.91288 -15.75,1.28026 l -9.89175,0.66795 0.65808,-0.71255 0.65808,-0.71256 14.34192,-1.39553 c 7.88806,-0.76755 16.89192,-1.40891 20.00859,-1.42526 l 5.66666,-0.0297 0.44643,-1.25 0.44643,-1.25 0.84905,0.79548 0.84905,0.79548 -1.23479,1.97721 -1.23479,1.97722 1.52264,0.58429 1.52265,0.5843 0,1.33399 c 0,0.7337 -0.37796,1.56759 -0.83992,1.85309 l -0.83992,0.5191 -0.99543,-0.99543 9e-5,-1e-5 z m 102.42527,0.41299 1.25,-0.50439 1.25,0.50439 1.25,0.50439 -2.5,0 -2.5,0 1.25,-0.50439 z m 66.98097,0.006 c 0.67703,-0.27392 2.02703,-0.29059 3,-0.0371 l 1.76903,0.46099 -3,0.037 -3,0.0371 1.23097,-0.49805 0,6e-5 z m 8,0 c 0.67703,-0.27392 2.02703,-0.29059 3,-0.0371 l 1.76903,0.46099 -3,0.037 -3,0.0371 1.23097,-0.49805 0,6e-5 z m 21.53278,-0.0616 c 1.52006,-0.22986 3.77006,-0.22371 5,0.0136 l 2.23625,0.43157 -5,-0.0137 -5,-0.0136 2.76375,-0.41792 0,5e-5 z m 13.51268,-0.0159 c 2.35204,-0.21124 5.95204,-0.20827 8,0.007 l 3.72357,0.39068 -8,-0.007 -8,-0.007 4.27643,-0.38409 0,4.1e-4 z m -95.17992,-2.11035 -0.52153,-0.84384 1.06955,-3.90616 c 0.58825,-2.14838 1.29717,-4.28286 1.57538,-4.74328 l 0.50583,-0.83713 0.82537,0.83713 0.82537,0.83713 -1.01923,4.75 -1.01922,4.75 -0.86,0 c -0.473,0 -1.09468,-0.37973 -1.38152,-0.84385 z m -199.13695,-1.70143 1.95957,-1.48168 0.97793,0.32598 c 0.53787,0.17929 1.15607,0.86035 1.37377,1.51348 l 0.39584,1.18774 -3.33334,-0.0318 -3.33333,-0.0318 1.95956,-1.48167 0,-2.5e-4 z m 11.01343,-2.49843 -0.52901,-0.85594 2.04868,-1.09642 2.04867,-1.09642 0.99565,0.61534 0.99564,0.61535 -0.50072,0.81019 c -0.2754,0.44561 -1.4073,1.04727 -2.51532,1.33702 l -2.01459,0.52683 -0.529,-0.85595 z m 181.22937,0.29395 c -0.22863,-0.4125 0.43684,-2.6625 1.47882,-5 l 1.8945,-4.25 0.96216,0 c 1.22397,0 1.24669,-0.19133 -0.63184,5.32186 l -1.594,4.67814 -0.84699,0 c -0.46583,0 -1.03403,-0.3375 -1.26265,-0.75 z m -3.23803,-2.30772 -0.65371,-1.05772 2.6696,-4.03404 2.6696,-4.03403 0.531,0.531 0.531,0.531 -1.74177,4.56075 -1.74177,4.56076 -0.80512,0 c -0.44282,0 -1.09929,-0.47597 -1.45883,-1.05772 z m -206.46433,-0.94228 0,-1 1.5,0 1.5,0 0,1 0,1 -1.5,0 -1.5,0 0,-1 z m 231.86379,0.5 c -0.34992,-0.55 -0.90124,-3.925 -1.22515,-7.5 l -0.58893,-6.5 1.47748,5 1.47748,5 -0.25233,2.5 -0.25234,2.5 -0.63621,-1 z m -28.80356,-1.92743 -1.18466,-1.42742 2.6951,-4.07258 c 2.84277,-4.29572 4.14273,-4.98301 5.03364,-2.66133 l 0.54155,1.41124 -2.70582,4.08876 c -1.4882,2.24882 -2.81591,4.08876 -2.95048,4.08876 -0.13457,0 -0.77777,-0.64234 -1.42933,-1.42743 z m 72.67074,0.77149 c 0.67703,-0.27392 2.02703,-0.29059 3,-0.0371 l 1.76903,0.46099 -3,0.037 -3,0.0371 1.23097,-0.49805 0,6e-5 z m 9.53278,-0.0616 c 1.52006,-0.22986 3.77006,-0.22371 5,0.0136 l 2.23625,0.43157 -5,-0.0137 -5,-0.0136 2.76375,-0.41792 0,5e-5 z m 12.48625,0.0119 c 1.2375,-0.23836 3.2625,-0.23836 4.5,0 l 2.25,0.43337 -4.5,0 -4.5,0 2.25,-0.43337 z m 12.5,-0.0227 c 2.0625,-0.21574 5.4375,-0.21574 7.5,0 l 3.75,0.39226 -7.5,0 -7.5,0 3.75,-0.39226 z m -274.75,-1.27166 0.61803,-1 7.44099,0 7.44098,0 0,1 0,1 -8.05902,0 -8.05901,0 0.61803,-1 z m 189.62742,-6.05 0.12743,-7.45 0.9731,6.34948 0.97309,6.34948 -1.10052,1.10052 -1.10052,1.10052 0.12742,-7.45 z m 20.3011,0.50827 -3.67839,-5.54173 0.53477,-0.53478 0.53478,-0.53478 4.09016,5.41738 c 4.22835,5.6004 4.75818,6.73564 3.14361,6.73564 l -0.94654,0 -3.67839,-5.54173 z m -149.82153,2.95994 c -0.87732,-2.28626 -0.80586,-2.41821 1.30968,-2.41821 l 1.91666,0 0.41369,1.24107 0.41369,1.24107 1.74108,-1.74107 c 0.95758,-0.95759 2.15892,-1.74107 2.66964,-1.74107 0.96334,0 4.92857,3.62043 4.92857,4.5 0,0.275 -2.87686,0.5 -6.39301,0.5 l -6.39301,0 -0.60699,-1.58179 z m 126.95987,-3.16822 c 0.93726,-6.45777 1.43314,-6.60194 1.43314,-0.41667 l 0,5.16667 -1.06127,0 -1.06128,0 0.68941,-4.75 z m 53.16411,4.09406 c 0.67703,-0.27392 2.02703,-0.29059 3,-0.0371 l 1.76903,0.46099 -3,0.037 -3,0.0371 1.23097,-0.49805 0,6e-5 z m 9.01903,-0.0498 c 1.2375,-0.23836 3.2625,-0.23836 4.5,0 l 2.25,0.43337 -4.5,0 -4.5,0 2.25,-0.43337 z m 12.51375,-0.0119 c 1.52006,-0.22986 3.77006,-0.22371 5,0.0136 l 2.23625,0.43157 -5,-0.0137 -5,-0.0136 2.76375,-0.41792 0,5e-5 z m 12.48625,-0.006 c 1.7875,-0.22182 4.7125,-0.22182 6.5,0 l 3.25,0.40333 -6.5,0 -6.5,0 3.25,-0.40333 z m -272.09518,-1.33142 1.05482,-1.05482 6.326,-1.47576 c 7.03361,-1.64083 29.48363,-5.4141 32.21436,-5.4144 l 1.75,4e-5 0,1 0,1 -3.75,0.0137 c -2.0625,0.008 -4.875,0.34501 -6.25,0.75 l -2.5,0.73635 6.5,0.58199 6.5,0.58199 -13,0.0793 -13,0.0793 -6.99682,2.08876 c -3.84825,1.14867 -7.65075,2.08861 -8.45,2.08861 l -1.45318,0 1.05482,-1.05482 0,-2.4e-4 z m 161.42632,-0.79356 -0.98922,-1.84838 3.25286,-3.1528 3.25286,-3.1528 1.11246,1.11246 1.11245,1.11245 -2.66128,3.85077 c -3.03336,4.38917 -3.69789,4.66104 -5.08013,2.0783 z m 18.1631,-0.29392 c -1.78433,-1.12951 -3.24424,-2.24963 -3.24424,-2.48891 0,-0.49452 5.05169,-10.66 5.59613,-11.26105 0.19555,-0.21588 1.04879,0.18285 1.8961,0.88605 l 1.54056,1.27855 -0.66078,5.11395 c -0.36342,2.81267 -0.93589,5.88161 -1.27215,6.81986 l -0.61138,1.7059 -3.24424,-2.05411 0,-2.4e-4 z m 67.50576,-0.56319 c 1.2375,-0.23836 3.2625,-0.23836 4.5,0 l 2.25,0.43337 -4.5,0 -4.5,0 2.25,-0.43337 z m 23.9777,-0.016 c 1.77523,-0.22091 4.92523,-0.22454 7,-0.008 l 3.7723,0.39359 -7,0.008 -7,0.008 3.2277,-0.40166 0,7e-5 z m -277.2277,-2.27827 c 0.33992,-0.55 1.04148,-1 1.55902,-1 0.51754,0 0.94098,0.45 0.94098,1 l 0,1 -1.55902,0 -1.55901,0 0.61803,-1 z m 8.5,0.0385 0,-0.96146 3.85316,-1.03755 c 2.11923,-0.57065 5.94423,-1.32416 8.5,-1.67447 l 4.64684,-0.63688 0,1.07465 0,1.07465 -4.75,0.63519 c -2.6125,0.34935 -6.05465,1.05193 -7.64922,1.56127 -3.67124,1.17269 -4.60078,1.16554 -4.60078,-0.0354 z m 172,-0.57839 c 0,-0.29691 0.93314,-2.36895 2.07366,-4.60454 l 2.07365,-4.0647 -0.94345,0.58309 c -0.51889,0.32069 -1.50663,1.94273 -2.19497,3.60453 -1.29328,3.12224 -2.42932,3.76825 -3.52084,2.00212 l -0.62999,-1.01934 3.76512,-5.12912 3.76511,-5.12911 0.895,2.00577 0.89501,2.00578 -2.606,5.14268 c -2.32476,4.58773 -3.5723,6.19517 -3.5723,4.60288 l 0,-4e-5 z m 65,0.0989 c 0,-0.24254 0.45,-0.7191 1,-1.05902 l 1,-0.61803 0,1.05901 0,1.05902 -1,0 c -0.55,0 -1,-0.19844 -1,-0.44098 z m 5.5,-0.55902 0.61803,-1 3.44099,0 3.44098,0 0,1 0,1 -4.05902,0 -4.05901,0 0.61803,-1 z m 11.5,0 0,-1 4,0 4,0 0,1 0,1 -4,0 -4,0 0,-1 z m -208,-1.87756 0,-1.87755 1.5,-1.24489 c 0.825,-0.68469 1.5,-1.83823 1.5,-2.56343 0,-0.72519 0.51046,-1.63402 1.13435,-2.0196 l 1.13435,-0.70107 -0.46966,3.19999 -0.46966,3.19999 2.83531,0.56706 2.83531,0.56706 0,0.75 0,0.75 -3.125,0.625 c -1.71875,0.34375 -3.96875,0.625 -5,0.625 l -1.875,0 0,-1.87756 z m 177.75229,-0.48927 -3.74771,-2.30442 0.58132,-0.58132 0.58132,-0.58132 3.45909,2.04091 c 1.9025,1.12251 3.65984,1.84017 3.9052,1.5948 0.24536,-0.24536 -1.35535,-1.4586 -3.55715,-2.69607 l -4.00326,-2.24996 0.55775,-0.90247 0.55776,-0.90247 4.20669,1.63719 c 2.31369,0.90046 4.33605,1.73087 4.49414,1.84535 0.47851,0.34652 -2.06411,5.46896 -2.69796,5.4354 -0.32421,-0.0172 -2.27595,-1.0682 -4.33719,-2.33562 z m 43.97541,1.6451 c 1.77523,-0.22091 4.92523,-0.22454 7,-0.008 l 3.7723,0.39359 -7,0.008 -7,0.008 3.2277,-0.40166 0,7e-5 z m -270.7277,-1.03442 0,-0.92282 2.64862,-1.20679 c 3.27939,-1.49419 14.06434,-4.07951 17.10138,-4.09946 l 2.25,-0.0148 0,0.79887 0,0.79887 -9.75,2.28095 c -5.3625,1.25453 -10.3125,2.50753 -11,2.78447 l -1.25,0.50351 0,-0.92282 0,2e-5 z m 246.75,-1.94958 c 1.2375,-0.23836 3.2625,-0.23836 4.5,0 l 2.25,0.43337 -4.5,0 -4.5,0 2.25,-0.43337 z m 11,0 c 1.2375,-0.23836 3.2625,-0.23836 4.5,0 l 2.25,0.43337 -4.5,0 -4.5,0 2.25,-0.43337 z m 11.9777,-0.016 c 1.77523,-0.22091 4.92523,-0.22454 7,-0.008 l 3.7723,0.39359 -7,0.008 -7,0.008 3.2277,-0.40166 0,7e-5 z m -23.9777,-2.984 c 1.2375,-0.23836 3.2625,-0.23836 4.5,0 l 2.25,0.43337 -4.5,0 -4.5,0 2.25,-0.43337 z m 11,0 c 1.2375,-0.23836 3.2625,-0.23836 4.5,0 l 2.25,0.43337 -4.5,0 -4.5,0 2.25,-0.43337 z m 10.98097,0.0498 c 0.67703,-0.27392 2.02703,-0.29059 3,-0.0371 l 1.76903,0.46099 -3,0.037 -3,0.0371 1.23097,-0.49805 0,6e-5 z m -272.23097,-1.34407 0.61803,-1 6.94099,0 6.94098,0 0,1 0,1 -7.55902,0 -7.55901,0 0.61803,-1 z m 170.5,0.53239 c 0,-0.7234 10.56991,-8.53239 11.54908,-8.53239 0.47703,0 -1.12005,2.025 -3.54908,4.5 l -4.41642,4.5 -1.79179,0 c -0.98548,0 -1.79179,-0.21042 -1.79179,-0.46761 z m -138.52699,-1.57606 -0.59104,-0.95633 2.05901,0 c 2.41457,0 2.65816,0.55611 0.59105,1.34934 l -1.46798,0.56331 -0.59104,-0.95632 z m 217.27699,-0.66206 c 1.2375,-0.23836 3.2625,-0.23836 4.5,0 l 2.25,0.43337 -4.5,0 -4.5,0 2.25,-0.43337 z m 12,0 c 1.2375,-0.23836 3.2625,-0.23836 4.5,0 l 2.25,0.43337 -4.5,0 -4.5,0 2.25,-0.43337 z m 10.5,0.0164 c 0.9625,-0.25152 2.5375,-0.25152 3.5,0 l 1.75,0.45733 -3.5,0 -3.5,0 1.75,-0.45733 z m -47.75,-1.83575 c -0.55,-0.20195 -2.89445,-0.85391 -5.20989,-1.4488 l -4.20989,-1.08161 -0.65891,-3.51225 -0.6589,-3.51225 1.77378,-1.96 1.77379,-1.96001 4.18672,0 4.18672,0 1.15829,3.86602 c 0.63706,2.12631 1.15829,4.60131 1.15829,5.5 l 0,1.63398 -1.25,-0.006 c -0.6875,-0.003 -2.96432,-0.48162 -5.05961,-1.06346 l -3.80961,-1.05789 -1.19039,0.41943 -1.19039,0.41942 5.73256,1.21132 5.73257,1.21132 0.57645,0.93272 0.57645,0.93272 -1.30901,-0.079 c -0.71996,-0.0434 -1.75902,-0.24418 -2.30902,-0.44613 l 0,4.7e-4 z m -1.23625,-11.17885 c -1.22994,-0.23736 -3.47994,-0.24351 -5,-0.0136 l -2.76375,0.41792 5,0.0136 5,0.0136 -2.23625,-0.43157 0,5e-5 z m -67.26375,9.37241 0,-1.33153 4.52341,-1.0351 4.52341,-1.0351 0.51691,0.83636 0.5169,0.83636 -3.66244,1.53027 c -2.01434,0.84164 -4.28248,1.53026 -5.04031,1.53026 l -1.37788,0 0,-1.33152 z m -132,-0.56149 c 0,-1.01369 3.04579,-2.39454 3.74326,-1.69706 0.79474,0.79473 -0.80111,2.59007 -2.30228,2.59007 l -1.44098,0 0,-0.89301 z m -12.44721,-1.02158 -0.58541,-0.94721 0.94721,-0.58541 0.94721,-0.58541 0.58541,0.94721 0.58541,0.94721 -0.94721,0.58541 -0.94721,0.58541 -0.58541,-0.94721 z m 22.44721,-0.82112 0,-1.01429 3.125,-0.625 c 1.71875,-0.34375 5.76875,-0.625 9,-0.625 l 5.875,0 0,1 0,1 -3.75,0.009 c -2.0625,0.005 -6.1125,0.29246 -9,0.63929 l -5.25,0.6306 0,-1.01429 0,-3.1e-4 z m 120.60478,-0.85182 c -0.33263,-0.86683 -0.60478,-1.71315 -0.60478,-1.88071 0,-0.16757 2.07929,-0.61648 4.62064,-0.99758 l 4.62063,-0.69291 1.00657,1.00657 1.00657,1.00657 -4.37721,1.17412 c -2.40746,0.64577 -4.66755,1.35095 -5.02242,1.56706 l -0.64521,0.39292 -0.60479,-1.57604 z m 116.62731,-0.12701 c 1.50265,-0.22817 4.20265,-0.23275 6,-0.0102 l 3.26791,0.40466 -6,0.0102 -6,0.0102 2.73209,-0.41487 z m -246.49095,-1.42661 1.14113,-1.14112 5.05887,-0.4861 5.05886,-0.48609 0,0.99639 0,0.99639 -3.75,0.61983 c -2.0625,0.34091 -4.8525,0.62479 -6.2,0.63084 l -2.45,0.011 1.14114,-1.14114 z m 245.49095,-1.57339 c 1.50265,-0.22817 4.20265,-0.23275 6,-0.0102 l 3.26791,0.40466 -6,0.0102 -6,0.0102 2.73209,-0.41487 z m -117.23209,-1.55837 0,-1.5 4.49706,-0.67438 4.49707,-0.67437 1.09006,0.6737 1.09007,0.6737 -0.83713,0.80486 c -0.46042,0.44268 -2.97463,1.11798 -5.58713,1.50068 l -4.75,0.69581 0,-1.5 z m -125,-2.61768 0,-0.8906 3.25,-0.36475 c 1.7875,-0.20061 5.90302,-0.2044 9.14561,-0.008 l 5.89561,0.35633 -1.39561,0.8837 -1.39561,0.88369 -7.75,0.0153 -7.75,0.0149 0,-0.89059 0,2e-5 z m 37.71536,-0.85448 -8.78465,-0.33381 0.43657,-0.71056 0.43657,-0.71056 12.09808,0.3088 12.09807,0.3088 0,0.9412 0,0.9412 -3.75,-0.20564 c -2.0625,-0.11309 -7.70309,-0.35584 -12.53464,-0.53943 z m 52.03464,-1.96066 c 1.2375,-0.23836 3.2625,-0.23836 4.5,0 l 2.25,0.43337 -4.5,0 -4.5,0 2.25,-0.43337 z m 130.96983,-0.025 c 2.3209,-0.20972 6.3709,-0.21222 9,-0.006 l 4.78017,0.37577 -9,0.006 -9,0.006 4.21983,-0.38132 0,-4.5e-4 z m 18.51226,0.0162 c 1.50265,-0.22817 4.20265,-0.23275 6,-0.0102 l 3.26791,0.40466 -6,0.0102 -6,0.0102 2.73209,-0.41487 z m -243.96834,-2.00304 c 1.52006,-0.22986 3.77006,-0.22371 5,0.0136 l 2.23625,0.43157 -5,-0.0136 -5,-0.0136 2.76375,-0.41792 0,-5e-5 z m 12.73625,-0.28242 c 0,-0.55 0.45,-1 1,-1 0.55,0 1,0.45 1,1 0,0.55 -0.45,1 -1,1 -0.55,0 -1,-0.45 -1,-1 z m 82.26375,-0.71758 c 1.52006,-0.22986 3.77006,-0.22371 5,0.0136 l 2.23625,0.43157 -5,-0.0136 -5,-0.0136 2.76375,-0.41792 0,-5e-5 z m 129.45608,-0.0131 c 2.3209,-0.20972 6.3709,-0.21222 9,-0.006 l 4.78017,0.37577 -9,0.006 -9,0.006 4.21983,-0.38132 0,-4.5e-4 z m 18.51226,0.0162 c 1.50265,-0.22817 4.20265,-0.23275 6,-0.0102 l 3.26791,0.40466 -6,0.0102 -6,0.0102 2.73209,-0.41487 z m -223.23209,-1.28551 0,-1 11,0 11,0 0,1 0,1 -11,0 -11,0 0,-1 z m -20,-2 0,-1 3.55902,0 3.55901,0 -0.61803,1 -0.61803,1 -2.94099,0 -2.94098,0 0,-1 z m 12.86978,-0.0805 -1.03885,-0.64204 2.33454,-0.62509 c 1.28399,-0.34379 3.57203,-0.63123 5.08453,-0.63874 l 2.75,-0.0136 0,0.89496 0,0.89497 -4.04568,0.38582 -4.04569,0.38582 -1.03885,-0.64205 0,-5e-5 z m 83.85792,0.35875 c 1.77523,-0.22091 4.92523,-0.22454 7,-0.008 l 3.7723,0.39359 -7,0.008 -7,0.008 3.2277,-0.40166 0,7e-5 z m 49.0223,-1.07221 -5.75,-1.6008 0,-1.30263 c 0,-1.62647 -0.0223,-1.62774 4.48596,0.25595 2.05162,0.85722 3.91661,1.37219 4.14442,1.14437 0.22781,-0.22781 -1.62082,-1.19139 -4.10809,-2.14129 l -4.52229,-1.72706 0,-0.91729 c 0,-1.47046 1.60167,-1.09092 7.40278,1.75421 l 5.44708,2.6715 -0.13773,1.8285 c -0.0758,1.00568 -0.37948,1.78504 -0.67493,1.73193 -0.29546,-0.0531 -3.1247,-0.81692 -6.2872,-1.69737 l 0,-2e-5 z m -119.75,-1.02393 0,-0.9768 6.33191,-1.10266 c 3.48256,-0.60646 8.00911,-1.10265 10.05902,-1.10265 l 3.7271,0 -0.54511,0.88201 -0.54512,0.88202 -6.7639,0.66006 c -3.72014,0.36304 -8.0014,0.90189 -9.5139,1.19744 l -2.75,0.53738 0,-0.9768 z m -17,-2.18211 0,-1 5.75,-0.16004 5.75,-0.16003 -3.25,-0.40333 -3.25,-0.40332 0,-0.80743 0,-0.80743 6.77282,-0.66738 6.77282,-0.66737 5.29618,1.13583 5.29619,1.13583 -0.57238,0.57237 c -0.63145,0.63145 -20.15926,3.07906 -25.31563,3.17305 l -3.25,0.0592 0,-1 0,5e-5 z m 86.75,0.29427 c 1.2375,-0.23836 3.2625,-0.23836 4.5,0 l 2.25,0.43337 -4.5,0 -4.5,0 2.25,-0.43337 z m 128.02643,-0.0278 c 2.35204,-0.21125 5.95204,-0.20828 8,0.007 l 3.72357,0.39068 -8,-0.007 -8,-0.007 4.27643,-0.38408 0,4e-4 z m 16.47357,0.0172 c 1.5125,-0.22913 3.9875,-0.22913 5.5,0 l 2.75,0.41659 -5.5,0 -5.5,0 2.75,-0.41659 z m -94,-3.10659 -5.25,-2.5908 0,-1.26723 0,-1.26723 5.25,3.08016 c 5.92608,3.47682 6.2467,3.71739 5.66667,4.25192 -0.22917,0.21119 -2.77917,-0.78188 -5.66667,-2.20682 z m -50.5,0.11711 c 1.2375,-0.23836 3.2625,-0.23836 4.5,0 l 2.25,0.43337 -4.5,0 -4.5,0 2.25,-0.43337 z m 13,-0.0265 c 2.3375,-0.21054 6.1625,-0.21054 8.5,0 l 4.25,0.38279 -8.5,0 -8.5,0 4.25,-0.38279 z m 113.02643,-10e-4 c 2.35204,-0.21125 5.95204,-0.20828 8,0.007 l 3.72357,0.39068 -8,-0.007 -8,-0.007 4.27643,-0.38408 0,4e-4 z m 16.97357,0.0278 c 1.2375,-0.23836 3.2625,-0.23836 4.5,0 l 2.25,0.43337 -4.5,0 -4.5,0 2.25,-0.43337 z m -105.5,-2.26733 -4.25,-1.92915 0,-1.04889 0,-1.04889 1.03984,0 c 0.57191,0 2.82191,0.90915 5,2.02032 l 3.96016,2.02033 0,0.97967 c 0,1.36758 -0.8858,1.21455 -5.75,-0.99339 z m 47.11217,-1.27693 c 3.83201,-8.96616 4.70488,-10.06857 6.13713,-7.75113 l 0.61734,0.99887 -2.80832,5.00012 -2.80832,5.00011 -1.26342,10e-4 -1.26342,10e-4 1.38901,-3.25 0,3e-5 z m -167.36217,0.52627 0,-0.95969 3.86602,-1.15829 3.86602,-1.15829 5.63398,0 5.63398,0 0,0.86833 0,0.86833 -4.25,0.66118 c -2.3375,0.36365 -6.6125,0.926 -9.5,1.24965 l -5.25,0.58847 0,-0.95969 z m 82.75,0.018 c 1.2375,-0.23835 3.2625,-0.23835 4.5,0 l 2.25,0.43337 -4.5,0 -4.5,0 2.25,-0.43337 z m 11.9777,-0.016 c 1.77523,-0.22091 4.92523,-0.22454 7,-0.008 l 3.7723,0.39359 -7,0.008 -7,0.008 3.2277,-0.40166 0,7e-5 z m 112.0223,-0.0105 c 2.3375,-0.21053 6.1625,-0.21053 8.5,0 l 4.25,0.3828 -8.5,0 -8.5,0 4.25,-0.3828 z m 17,0.0265 c 1.2375,-0.23835 3.2625,-0.23835 4.5,0 l 2.25,0.43337 -4.5,0 -4.5,0 2.25,-0.43337 z m -103,-2.95274 -3.75,-1.55543 0,-1.33403 c 0,-0.73372 0.38291,-1.57068 0.85091,-1.85992 l 0.85092,-0.5259 4.14908,2.69032 c 6.39734,4.14811 5.20492,5.61527 -2.10091,2.58496 z m -132.30887,-0.77591 1.94113,-1.56561 -2.19113,0 c -2.49154,0 -2.61389,-0.34154 -1.12139,-3.13031 l 1.06974,-1.99882 1.41752,1.17644 1.41753,1.17644 1.51273,-0.58049 1.51274,-0.58049 0,0.88528 c 0,0.48691 -0.5625,1.10725 -1.25,1.37854 l -1.25,0.49325 3.75,-0.072 3.75,-0.0719 0,-1.33797 0,-1.33797 0.95031,0 c 0.52267,0 1.31017,0.5625 1.75,1.25 0.43983,0.6875 1.36219,1.295 2.04969,1.35 0.6875,0.055 2.375,0.1675 3.75,0.25 l 2.5,0.15 0,0.85198 0,0.85198 -8.75,0.65153 c -4.8125,0.35834 -10.1,0.90448 -11.75,1.21363 l -3,0.5621 1.94113,-1.56561 z m 42.30887,0.64233 -7.75,-0.29207 0,-0.95793 0,-0.95794 10.91667,0 10.91666,0 0.41369,-1.24107 0.41369,-1.24107 1.7334,1.7334 1.73341,1.7334 -0.65071,1.05286 -0.6507,1.05286 -4.66306,-0.29519 c -2.56468,-0.16236 -8.15055,-0.42662 -12.41305,-0.58725 z m 108.95605,-5.04898 -4.73296,-6.0243 1.07999,-0.66746 c 0.59399,-0.36711 1.20846,-0.50991 1.36549,-0.31734 0.15703,0.19258 1.96641,2.82514 4.02085,5.85014 l 3.73533,5.5 -0.69977,-2.5 -0.69977,-2.5 1.27977,1.21737 1.27977,1.21738 -0.94787,2.12425 -0.94787,2.12426 -4.73296,-6.0243 z m 62.56478,5.23687 0.60417,-0.60416 1.3125,0.52522 1.3125,0.52522 -1.91667,0.0789 -1.91666,0.0789 0.60416,-0.60416 0,8e-5 z m 5.96126,-0.11036 c 1.50265,-0.22817 4.20265,-0.23276 6,-0.0102 l 3.26791,0.40466 -6,0.0102 -6,0.0102 2.73209,-0.41486 z m -125.48209,-0.9912 c 1.2375,-0.23836 3.2625,-0.23836 4.5,0 l 2.25,0.43337 -4.5,0 -4.5,0 2.25,-0.43337 z m 9.52083,0.10156 0.60417,-0.60416 1.3125,0.52522 1.3125,0.52522 -1.91667,0.0789 -1.91666,0.0789 0.60416,-0.60416 0,8e-5 z m 129.96751,-0.0829 c 0.95609,-0.25029 2.75609,-0.25937 4,-0.0202 l 2.26166,0.4349 -4,0.0202 -4,0.0202 1.73834,-0.45508 0,-2e-5 z m -77.17286,-6.18321 c -3.50666,-6.94664 -3.54998,-7.12971 -1.68741,-7.12971 l 1.37808,0 2.25603,6.03256 2.25603,6.03257 -0.56863,0.56862 -0.56863,0.56863 -3.06547,-6.07267 z m 6.23579,5.05649 c -1.07478,-0.66426 -5.30127,-10.30048 -5.30127,-12.08669 l 0,-0.82644 2.20532,0.11347 2.20531,0.11346 1.29772,6.41363 c 1.38912,6.86535 1.35684,7.36273 -0.40708,6.27257 z m -1.8727,-8.61477 c -0.36782,-1.46551 -0.86162,-2.47171 -1.09733,-2.236 -0.23572,0.23571 -0.12763,1.62763 0.24019,3.09314 0.36782,1.46551 0.86162,2.47171 1.09733,2.236 0.23572,-0.23572 0.12763,-1.62763 -0.24019,-3.09314 z m -121.42857,4.86955 0,-1.55901 1,0.61803 c 0.55,0.33992 1,1.04148 1,1.55902 0,0.51754 -0.45,0.94098 -1,0.94098 l -1,0 0,-1.55902 z m 15.0318,0.30902 -0.0318,-1.75 -4.44098,0 -4.44099,0 -0.57353,-0.928 -0.57354,-0.92801 2.01452,-0.63938 2.01452,-0.63939 0,-0.93261 0,-0.93261 -1.75,0.009 c -0.9625,0.005 -6.925,0.65406 -13.25,1.44241 l -11.5,1.43335 -0.91722,-0.90962 -0.91721,-0.90962 1.41721,-0.45543 c 0.77947,-0.25049 8.72455,-1.19499 17.65573,-2.0989 l 16.2385,-1.64348 1.20625,0.7455 1.20625,0.7455 -3.44476,1.15984 -3.44475,1.15984 0.5,0.91078 0.5,0.91078 9.25125,0 9.25126,0 -10e-4,0.75 -0.002,0.75005 -3.75,0.13618 -3.75,0.13618 2.25,0.43337 2.25,0.43337 0,0.93045 0,0.93045 -4.41667,0 -4.41666,0 -0.46858,-1.25 -0.46859,-1.25 -1.58294,2 -1.58295,2 -0.0318,-1.75 4.8e-4,0 z m 80.69302,-1.90073 -3.77518,-3.08366 1.18585,-1.42886 1.18585,-1.42887 3.79791,3.70857 3.79792,3.70856 -0.5176,0.83749 c -0.81473,1.31826 -1.6415,0.98124 -5.67475,-2.31323 z m 17.38925,-1.16471 c -2.28933,-3.7042 -2.56123,-4.68456 -1.29928,-4.68456 0.95151,0 4.47626,7.04228 3.84214,7.6764 -0.23584,0.23584 -1.38013,-1.11049 -2.54286,-2.99184 z m 11.43138,-1.23001 -0.69548,-4.63785 0.5,-0.5 0.5,-0.5 0.69548,4.63785 c 0.38252,2.55081 0.47049,4.86284 0.19549,5.13784 -0.275,0.275 -0.81297,-1.58703 -1.19549,-4.13784 z m -134.54545,1.54545 c 0,-0.55 0.42344,-1 0.94098,-1 0.51754,0 1.2191,0.45 1.55902,1 l 0.61803,1 -1.55901,0 -1.55902,0 0,-1 z m 108.08375,-2.41359 -3.30859,-3.4136 0.72515,-1.17331 0.72515,-1.17331 3.38727,3.28307 3.38727,3.28307 0,1.30384 c 0,2.11869 -1.40032,1.51775 -4.91625,-2.10976 z m -98.08375,1.41359 c 0,-0.55 0.45,-1 1,-1 0.55,0 1,0.45 1,1 0,0.55 -0.45,1 -1,1 -0.55,0 -1,-0.45 -1,-1 z m 141.68237,-0.75001 c -0.23962,-0.4125 0.19744,-2.88749 0.97124,-5.49999 l 1.40691,-4.75 0.71974,0.0153 c 0.39586,0.008 1.35405,0.41686 2.12932,0.90764 l 1.40957,0.89233 -1.32717,3.34236 c -2.0801,5.23852 -4.0996,7.17539 -5.30961,5.09236 z m 47.0486,0.0941 c 0.67703,-0.27392 2.02703,-0.2906 3,-0.0371 l 1.76903,0.46099 -3,0.0371 -3,0.0371 1.23097,-0.49804 0,-5e-5 z M 206.99128,693.3407 c 0,-0.55 0.42344,-1 0.94098,-1 0.51754,0 1.2191,0.45 1.55902,1 l 0.61803,1 -1.55901,0 -1.55902,0 0,-1 z m 54.23517,0.22978 -2.26483,-0.37277 0.57385,-0.9285 0.57384,-0.92851 2.44099,0 2.44098,0 0,0.94098 c 0,1.32867 -1.14376,1.72021 -3.76483,1.2888 z m 71.26811,-2.81437 -2.7341,-3.58459 1,-1 1,-1 2.61541,3.42898 c 2.65247,3.47757 3.33601,5.7402 1.7341,5.7402 -0.48472,0 -2.11166,-1.61307 -3.61541,-3.58459 z m -48.75328,0.92231 1.25,-0.50439 1.25,0.50439 1.25,0.50438 -2.5,0 -2.5,0 1.25,-0.50438 z m 13.48834,-0.0248 c 0.95609,-0.25029 2.75609,-0.25938 4,-0.0202 l 2.26166,0.4349 -4,0.0202 -4,0.0202 1.73834,-0.45508 0,-2e-5 z m 38.42386,-3.07887 c -1.46421,-2.11285 -2.6622,-4.15486 -2.6622,-4.5378 0,-1.716 2.12296,-0.40159 4.60298,2.84988 l 2.70476,3.54613 -0.99167,0.99167 -0.99167,0.99167 -2.6622,-3.84155 z m 62.3378,2.96675 0,-0.7992 3.75,0.37168 c 5.80545,0.57539 6.22843,1.06087 1,1.14777 l -4.75,0.0789 0,-0.7992 0,5e-5 z m -30.9847,-4.4508 0.0153,-4.25 0.76108,-1.19721 0.76108,-1.19722 1.15248,0.71228 1.15249,0.71227 -1.00987,4.73494 -1.00984,4.73494 -0.91901,0 -0.91902,0 0.0153,-4.25 z m -3.34863,2.58333 -0.66667,-0.66666 0,-4.83334 0,-4.83333 1.5,0 1.5,0 0,5.5 0,5.5 -0.83333,0 c -0.45834,0 -1.13334,-0.3 -1.5,-0.66667 z m -25.50017,-3.53934 -2.0299,-3.206 0.49072,-0.794 c 0.26989,-0.43669 1.05581,-0.79399 1.74648,-0.79399 l 1.25578,0 1.68521,3.53393 c 2.04136,4.28078 2.05312,4.46607 0.28341,4.46607 l -1.4018,0 -2.0299,-3.20601 z m 6.08093,1.95601 c -0.54861,-0.6875 -1.71076,-2.65545 -2.58257,-4.37322 l -1.5851,-3.12321 0.62679,-0.62679 c 0.34473,-0.34473 1.24878,-0.62678 2.00901,-0.62678 l 1.38222,0 1.88297,4.20574 1.88297,4.20575 -0.49088,0.79425 c -0.71567,1.15798 -1.98546,0.97282 -3.12541,-0.45574 z m -134.74743,-0.75 0.61803,-1 7.44099,0 7.44098,0 0,1 0,1 -8.05902,0 -8.05901,0 0.61803,-1 z m 76.75,0.28375 c 1.5125,-0.22913 3.9875,-0.22913 5.5,0 l 2.75,0.41659 -5.5,0 -5.5,0 2.75,-0.41659 z m 114,-0.0188 c 2.6125,-0.206 6.8875,-0.206 9.5,0 l 4.75,0.37454 -9.5,0 -9.5,0 4.75,-0.37454 z m -171.25,-1.26497 0,-1 3.5,0 3.5,0 0,1 0,1 -3.5,0 -3.5,0 0,-1 z m 74.25,-1.74155 c 3.7125,-0.19241 9.7875,-0.19241 13.5,0 l 6.75,0.34983 -13.5,0 -13.5,0 6.75,-0.34983 z m 95.46983,0.0108 c 2.3209,-0.20972 6.3709,-0.21222 9,-0.005 l 4.78017,0.37578 -9,0.006 -9,0.005 4.21983,-0.38132 0,-4.6e-4 z m -180.71983,-2.76927 0,-2.5 -2.5,0 -2.5,0 0,-0.89301 c 0,-0.49116 0.6316,-1.13538 1.40355,-1.4316 l 1.40355,-0.5386 2.10177,0.54963 2.10178,0.54963 1.6573,-1.36803 1.65729,-1.36802 0.42071,1.25 0.42072,1.25 3.35765,0 3.35765,0 0.57532,0.9309 0.57533,0.9309 -1.18925,0.735 c -0.65408,0.40425 -2.91142,1.04992 -5.01631,1.43482 l -3.82706,0.69983 0,-0.86572 c 0,-0.47615 -0.45,-0.86573 -1,-0.86573 l -1,0 0,2 0,2 -1,0 -1,0 0,-2.5 z m 67.23209,-0.21453 c 1.50265,-0.22817 4.20265,-0.23276 6,-0.0102 l 3.26791,0.40466 -6,0.0102 -6,0.0102 2.73209,-0.41486 z m 18.51791,-0.028 c 3.9875,-0.18981 10.5125,-0.18981 14.5,0 l 7.25,0.34512 -14.5,0 -14.5,0 7.25,-0.34512 z m 94.46648,0.009 c 2.59406,-0.20524 7.09406,-0.20737 10,-0.005 l 5.28352,0.36844 -10,0.005 -10,0.005 4.71648,-0.37317 0,-2.7e-4 z m -110.95273,-6.98387 c 1.52006,-0.22986 3.77006,-0.22371 5,0.0136 l 2.23625,0.43157 -5,-0.0136 -5,-0.0137 2.76375,-0.41792 0,5e-5 z m 16.48625,-0.0249 c 3.9875,-0.18981 10.5125,-0.18981 14.5,0 l 7.25,0.34512 -14.5,0 -14.5,0 7.25,-0.34512 z m 25.98097,0.0866 c 0.67703,-0.27392 2.02703,-0.29059 3,-0.0371 l 1.76903,0.46099 -3,0.0371 -3,0.0371 1.23097,-0.49804 0,-5e-5 z m 45.51903,-0.0334 c 0.9625,-0.25152 2.5375,-0.25152 3.5,0 l 1.75,0.45733 -3.5,0 -3.5,0 1.75,-0.45733 z m 15.02083,0.0852 0.60417,-0.60416 1.3125,0.52522 1.3125,0.52522 -1.91667,0.0789 -1.91666,0.0789 0.60416,-0.60417 0,9e-5 z m -80.05435,-3.1295 c 2.59406,-0.20525 7.09406,-0.20738 10,-0.005 l 5.28352,0.36844 -10,0.005 -10,0.005 4.71648,-0.37318 0,-2.6e-4 z m 20.51122,0.0119 c 1.77523,-0.22091 4.92523,-0.22454 7,-0.008 l 3.7723,0.39359 -7,0.008 -7,0.008 3.2277,-0.40166 0,7e-5 z m 67.54313,0.11756 0.60417,-0.60416 1.3125,0.52522 1.3125,0.52522 -1.91667,0.0789 -1.91666,0.0789 0.60416,-0.60417 0,9e-5 z m -36.52083,-3.10156 c 1.2375,-0.23836 3.2625,-0.23836 4.5,0 l 2.25,0.43337 -4.5,0 -4.5,0 2.25,-0.43337 z m -48.5,-4.02274 c 2.0625,-0.21574 5.4375,-0.21574 7.5,0 l 3.75,0.39226 -7.5,0 -7.5,0 3.75,-0.39226 z m 18.5,-0.0119 c 3.4375,-0.19527 9.0625,-0.19527 12.5,0 l 6.25,0.35504 -12.5,0 -12.5,0 6.25,-0.35504 z m 25,0.017 c 1.7875,-0.22182 4.7125,-0.22182 6.5,0 l 3.25,0.40332 -6.5,0 -6.5,0 3.25,-0.40332 z m 13.98097,0.0675 c 0.67703,-0.27392 2.02703,-0.2906 3,-0.0371 l 1.76903,0.46099 -3,0.0371 -3,0.0371 1.23097,-0.49804 0,-5e-5 z m -49.42903,-3.09019 c 5.39107,-0.18015 13.94107,-0.17937 19,0.002 l 9.19806,0.3293 -19,-0.002 -19,-0.002 9.80194,-0.32755 0,2.5e-4 z m 33.44806,0.0227 c 1.7875,-0.22182 4.7125,-0.22182 6.5,0 l 3.25,0.40332 -6.5,0 -6.5,0 3.25,-0.40332 z m 16.96349,-0.0126 c 2.86742,-0.20131 7.81742,-0.20315 11,-0.004 l 5.78651,0.36191 -11,0.004 -11,0.004 5.21349,-0.36601 0,10e-5 z m -46.46349,-3.00733 c 4.2625,-0.18745 11.2375,-0.18745 15.5,0 l 7.75,0.34082 -15.5,0 -15.5,0 7.75,-0.34082 z m 27.98209,0.0288 c 1.50265,-0.22817 4.20265,-0.23277 6,-0.0102 l 3.26791,0.40466 -6,0.0102 -6,0.0102 2.73209,-0.41486 z m 16.01791,-0.0205 c 2.6125,-0.206 6.8875,-0.206 9.5,0 l 4.75,0.37454 -9.5,0 -9.5,0 4.75,-0.37454 z m -137.25,-2.26496 0,-1 1.55902,0 1.55901,0 -0.61803,1 c -0.33992,0.55 -1.04148,1 -1.55902,1 -0.51754,0 -0.94098,-0.45 -0.94098,-1 z m 124.70841,-0.73932 c 3.41463,-0.19468 9.26463,-0.19611 13,-0.003 l 6.79159,0.35078 -13,0.003 -13,0.003 6.20841,-0.35396 0,1.8e-4 z m -94.70841,-3.76068 0,-1.5 9,0 9,0 0,1.5 0,1.5 -9,0 -9,0 0,-1.5 z m -27,-2.32947 c 0,-1.59009 2.79697,-2.17053 10.45912,-2.17053 l 7.29555,0 7.17011,-1.61922 7.17012,-1.61922 0.63588,0.63589 0.63589,0.63588 -0.93334,0.91127 -0.93333,0.91127 -7.57884,1.41961 -7.57884,1.41961 -8.17116,0.21599 -8.17116,0.216 0,-0.95655 z m 105.25,-3.90557 c 2.6125,-0.206 6.8875,-0.206 9.5,0 l 4.75,0.37454 -9.5,0 -9.5,0 4.75,-0.37454 z m -69.25,-1.26496 c 0,-0.55 0.45,-1 1,-1 0.55,0 1,0.45 1,1 0,0.55 -0.45,1 -1,1 -0.55,0 -1,-0.45 -1,-1 z m 24,-1 0,-1 5.25,0.11832 5.25,0.11831 -3,0.76337 c -1.65,0.41985 -4.0125,0.81661 -5.25,0.88168 l -2.25,0.11832 0,-1 z m -27.72374,-3.33018 0.38947,-1.16982 1.7823,-0.3455 1.78231,-0.34551 -0.41938,1.25813 -0.41938,1.25813 -1.7524,0.2572 -1.7524,0.2572 0.38948,-1.16983 z m 26.58855,-2.20896 c 1.85065,-0.80347 3.81825,-1.46086 4.37244,-1.46086 l 1.00764,0 -1.24489,1.5 -1.24489,1.5 -3.12755,-0.0391 -3.12756,-0.0391 3.36481,-1.46086 0,-8e-5 z m 12.88519,0.8019 c 2.8875,-0.202 7.6125,-0.202 10.5,0 l 5.25,0.36727 -10.5,0 -10.5,0 5.25,-0.36727 z"
           transform="translate(0,-452.36218)"
           id="path4683"
           style="fill:#828282;fill-opacity:1;display:inline" />
        <path
           d="m 188.34401,335.10046 1.64727,-1.36712 0,-3.17755 0,-3.17756 -1.17979,-1.17979 -1.1798,-1.1798 1.10667,-2.2702 c 0.60867,-1.24862 1.32906,-2.94521 1.60085,-3.77021 l 0.49418,-1.5 0.19726,4.5 c 0.20583,4.69557 1.55286,11.23342 1.95734,9.5 0.12833,-0.55 0.13704,-3.88173 0.0193,-7.40385 l -0.214,-6.40384 6.84897,0.64673 c 3.76694,0.35571 8.08648,0.64994 9.59898,0.65385 l 2.75,0.007 0,2.42857 0,2.42857 1.52894,1.52894 1.52894,1.52894 1.60751,-0.61686 1.60751,-0.61686 -0.46978,1.40935 -0.46979,1.40935 -4.41666,0 -4.41667,0 -0.1437,-2 c -0.079,-1.1 -0.20522,-2.45 -0.28041,-3 l -0.13671,-1 -1.01928,1.75 -1.01928,1.75 -5.00933,0 -5.00932,0 0.58687,0.94959 0.58688,0.94958 5.22214,-0.5897 5.22214,-0.58969 -0.83333,0.89011 c -0.98085,1.04768 -1.28743,1.1018 -7.16667,1.26511 l -4.5,0.125 0,3.5 0,3.5 48.75,0.10025 c 60.98644,0.12541 197.46508,0.12211 210.50874,-0.005 l 9.75873,-0.0952 -0.59099,-5.75 c -0.32504,-3.1625 -1.27555,-10.025 -2.11224,-15.25 l -1.52126,-9.5 -3.9249,-12 -3.92489,-12 -6.03121,-12.24976 -6.03121,-12.24976 -7.30711,-9.75024 -7.30711,-9.75029 -7.38328,-7.57274 c -13.65648,-14.00691 -28.03112,-24.51777 -45.38327,-33.18464 l -9,-4.49523 -11,-3.54312 c -6.05,-1.94871 -14.60398,-4.22436 -19.00885,-5.05699 l -8.00885,-1.51388 -14.76686,-1.1503 -14.76687,-1.15031 -3.72429,2.21894 -3.72428,2.21894 -6.75,0.49903 -6.75,0.49903 0,0.78385 c 0,0.43111 0.27314,1.49565 0.60699,2.36563 l 0.60699,1.58179 5.96633,0 5.96634,0 -0.33152,1.75 -0.33151,1.75 -3.24181,0.31336 -3.24181,0.31336 0,0.93664 0,0.93664 41.75,0.21653 41.75,0.21652 -32.16823,0.53348 -32.16822,0.53347 -0.68191,0.68347 -0.68191,0.68347 0.52493,0.84936 0.52494,0.84936 7.8252,-0.71168 7.8252,-0.71168 27.69098,-0.0712 27.69099,-0.0711 0.61803,1 0.61803,1 -31.05901,0 -31.05902,0 0,1 0,1 2,0 2,0 0,0.89301 c 0,0.49116 -0.61959,1.13077 -1.37686,1.42136 l -1.37685,0.52835 -4.14753,-0.5563 -4.14752,-0.5563 -0.53464,-0.86506 -0.53463,-0.86506 -3.834,0 -3.83399,0 -0.5702,-1.48591 -0.5702,-1.48592 -4.78679,0.61555 c -2.63273,0.33854 -5.21429,1.0072 -5.73679,1.48591 l -0.95,0.87037 -4.8,0 -4.8,0 0,0.95228 0,0.95228 6.17063,0.29772 6.17063,0.29772 0.4127,1.25 0.41271,1.25 -2.08334,0 -2.08333,0 0,1 0,1 1.5,0 1.5,0 0,1 0,1 2.75,0.0997 2.75,0.0997 -2.5,0.74686 -2.5,0.74686 -3.17834,-0.46575 -3.17833,-0.46576 -4.6218,3.11922 -4.62179,3.11921 -2.44987,0 -2.44987,0 0,-1.43045 0,-1.43045 2.25,-0.31955 2.25,-0.31955 0,-1 0,-1 -2.25,-0.31955 -2.25,-0.31955 0,-0.93045 0,-0.93045 3.89301,0 3.89301,0 0.53809,-1.40223 0.53809,-1.40224 -0.59777,-0.59776 c -0.32877,-0.32878 -2.49962,-0.59777 -4.82411,-0.59777 l -4.22634,0 -0.57561,-1.5 -0.5756,-1.5 -1.40894,0 -1.40894,0 -1.33316,-1.60636 -1.33316,-1.60635 -5.28928,0.43863 -5.28929,0.43862 0,-1.33227 0,-1.33227 -1.08045,0 -1.08044,0 -1.59844,4.06923 -1.59844,4.06924 -4.57112,-0.55295 c -4.3332,-0.52417 -12.10447,-0.8798 -14.82111,-0.67826 -0.6875,0.051 -1.25,0.47613 -1.25,0.94472 l 0,0.85198 8.75,0.57463 c 4.8125,0.31604 9.49689,0.86521 10.40975,1.22037 l 1.65976,0.64575 0.60929,2.42765 0.6093,2.42764 5.73095,0.0222 5.73095,0.0222 -2.39928,1.84467 -2.39929,1.84467 1.28553,0.42851 1.28552,0.4285 -1.37679,2.20459 c -0.75723,1.21252 -1.71854,2.20458 -2.13624,2.20458 l -0.75945,0 0,-2.06127 0,-2.06128 -4.75,0.66782 -4.75,0.66782 -1.25,1.58458 -1.25,1.58459 0,2.77748 0,2.77749 1.51134,-0.57996 1.51134,-0.57995 -0.61833,1.61134 -0.61833,1.61134 1.60699,0 1.60699,0 0,-1.5 0,-1.5 1.53138,0 1.53139,0 0.5756,-1.5 c 0.31659,-0.825 1.02754,-1.5 1.57991,-1.5 l 1.0043,0 -0.6566,3.5 -0.65661,3.5 1.09734,0 1.09733,0 1.0458,-3 1.04581,-3 0.90218,0 0.90217,0 0.0316,2.25 0.0316,2.25 2.42044,-2.75 2.42043,-2.75 6.04796,0 6.04797,0 0,-1 0,-1 -4.12244,0 -4.12245,0 1.24489,-1.5 1.24489,-1.5 5.54881,0 5.54882,0 1.57874,-1.36726 1.57874,-1.36726 7.31719,-0.64597 7.31719,-0.64596 -0.62621,1.01322 -0.6262,1.01323 -5.94099,0 -5.94098,0 0,5.5 0,5.5 -7,0 -7,0 0,0.94521 0,0.94521 4.75,0.37454 4.75,0.37454 -7.58333,0.18025 -7.58334,0.18025 -0.67578,0.67578 -0.67579,0.67579 3.75912,1.30916 c 2.06752,0.72004 4.97006,1.31593 6.4501,1.32421 l 2.69099,0.0151 0.72369,1.17097 0.7237,1.17097 0.77826,-2.10382 0.77825,-2.10381 2.54926,1.18284 2.54927,1.18285 0.007,2 0.007,2 18.63793,-0.31329 18.63794,-0.31329 1.06329,1.06329 1.06244,1.06329 -17.2,0 -17.2,0 0,1 0,1 16.75,0.22343 16.75,0.22344 -16.47585,0.30242 -16.47586,0.30242 -0.97414,0.97414 -0.97415,0.97415 -10.55,0.0153 -10.55,0.0153 -1.5,1.06082 -1.5,1.06082 1.25,0.5072 1.25,0.5072 0,2.39761 0,2.39762 -2.65559,0.66651 -2.65559,0.66651 -1.34441,-1.83859 -1.34441,-1.83858 0,1.0745 0,1.0745 -2.10062,0.54932 -2.10061,0.54932 0.65963,1.06731 0.65963,1.06731 6.5,0 6.5,0 -0.61803,1 -0.61803,1 -7.94099,0 -7.94098,0 0,-2 0,-2 -1.02475,0 -1.02475,0 -0.97525,2.5651 c -0.53639,1.4108 -0.97525,2.96229 -0.97525,3.44774 l 0,0.88264 5.25,0.36728 5.25,0.36728 -6.69098,0.18498 -6.69099,0.18498 -0.67188,-1.08713 -0.67189,-1.08713 -1.12877,1.12877 -1.12877,1.12877 1.49164,0.94305 1.49164,0.94304 7.25,0.0153 7.25,0.0153 0,1.5 0,1.5 10.05,0 10.05,0 -0.48781,4.25 c -0.2683,2.3375 -0.5158,4.3625 -0.55,4.5 -0.0342,0.13753 -3.12219,0.25003 -6.86219,0.25003 l -6.8,0 -1.03144,-1.03144 -1.03144,-1.03144 -5.91856,-0.27232 -5.91856,-0.27232 -2.37352,0.82597 -2.37351,0.82597 -1.34468,-1.77221 -1.34468,-1.77221 -0.0318,2.14301 -0.0318,2.14301 -1.58179,0.60699 c -0.86999,0.33385 -2.92155,0.60699 -4.55902,0.60699 l -2.97723,0 0.61803,-1 0.61803,-1 3,0 3,0 -0.6203,-1.00367 -0.6203,-1.00367 -2.68872,0.60566 -2.68871,0.60566 -4.11196,4.39801 -4.11196,4.39801 -4.55625,0 c -2.50594,0 -5.30579,0.28762 -6.22189,0.63916 l -1.66563,0.63917 1.32897,0.82135 1.32898,0.82135 -1.99513,1.50768 -1.99513,1.50768 4,-0.0385 c 2.2,-0.0212 4.9,-0.42522 6,-0.89791 l 2,-0.85943 -2.69098,-0.0703 -2.69099,-0.0702 -0.61803,-1 -0.61803,-1 4.30901,-0.0749 c 2.36996,-0.0412 11.95902,-0.29334 21.30902,-0.56026 l 17,-0.48531 5.30877,0.63955 5.30877,0.63956 -0.30877,2.6707 -0.30877,2.67066 -13.5,0.5 -13.5,0.5 -0.95058,2.16512 -0.95058,2.16511 -2.92442,0.58489 c -1.60843,0.32168 -4.41661,0.58488 -6.2404,0.58488 l -3.31599,0 -0.61803,1 -0.61803,1 4.05901,0 4.05902,0 0,2 0,2 -4.25,0.003 c -7.85995,0.005 -47.20576,2.11968 -47.64681,2.56074 -0.24009,0.24009 -0.18017,0.69287 0.13315,1.00619 l 0.56967,0.56967 21.84699,-1.08647 c 12.01585,-0.59783 23.5345,-1.34373 25.597,-1.65783 l 3.75,-0.5711 0,1.71035 0,1.71034 1.58896,-1.31872 1.58897,-1.31872 8.91103,-0.42605 8.91104,-0.42604 0,-1.87768 0,-1.87768 12,0 12,0 0,1.5 0,1.5 -8.05902,0 -8.05901,0 0.56986,0.92206 0.56987,0.92207 7.48915,-0.5664 7.48915,-0.56641 0,1.52411 0,1.5241 -10.85805,-0.51465 -10.85805,-0.51465 -3.1189,2.3059 -3.1189,2.3059 -2.41961,-1.10245 -2.41962,-1.10245 -0.42461,2.89307 -0.42461,2.89306 1.18889,0.45623 1.1889,0.45622 0.47898,2.5056 0.47897,2.50561 -2.09669,0.56288 c -1.15319,0.30959 -2.7717,0.56214 -3.5967,0.56123 l -1.5,-0.002 1.47104,-0.93031 1.47104,-0.93031 -0.68483,-0.68484 -0.68483,-0.68483 -4.51395,1.48605 -4.51395,1.48605 -0.51358,-0.51358 -0.51359,-0.51358 1.01685,-1.22523 1.01685,-1.22522 -1.52553,-0.5854 -1.52552,-0.5854 0,1.96861 0,1.96862 -0.93261,0 c -0.51294,0 -1.19605,-0.7875 -1.51803,-1.75 l -0.58541,-1.75 -3.80959,-1.75 -3.80959,-1.75 -11.92238,-0.0703 -11.92239,-0.0699 -1.69304,-0.67972 -1.69304,-0.67971 -10.05696,0.31641 -10.05696,0.31642 0,0.78142 0,0.78142 9.97487,-0.48032 9.97488,-0.48032 -1.26292,4.38248 -1.26291,4.38249 -3.21196,0.31336 -3.21196,0.31336 0,-1.50434 0,-1.50435 1.10676,-0.68401 1.10677,-0.68402 -1.06108,-0.65578 -1.06108,-0.65579 -4.04569,0.38582 -4.04568,0.38582 0,0.89497 0,0.89496 2.5,0 2.5,0 0,1 0,1 -3.60699,0 -3.60699,0 0.56332,1.46797 0.56331,1.46798 -0.95632,0.59104 -0.95633,0.59104 0,2.01255 0,2.01255 2.25,-0.18226 c 1.2375,-0.10024 2.7,-0.12967 3.25,-0.0654 l 1,0.11685 -2.86431,1.49384 c -1.57537,0.82161 -3.68254,1.49384 -4.68261,1.49384 l -1.81831,0 -0.63477,-2 -0.63478,-2 -2.73261,0 -2.73261,0 -1.2,1.2 c -0.66,0.66 -1.2,1.90941 -1.2,2.77646 l 0,1.57645 14.85273,-0.0318 14.85272,-0.0318 1.64728,-1.36711 4e-5,8e-5 z m 155.14727,-1.12223 -7,-0.64683 9,-0.16127 9,-0.16127 -1.5,0.96937 c -0.825,0.53316 -1.725,0.8968 -2,0.8081 -0.275,-0.0887 -3.65,-0.45235 -7.5,-0.8081 z m 69,0 -0.61803,-1 3.61803,0 3.61803,0 -0.61803,1 -0.61803,1 -2.38197,0 -2.38197,0 -0.61803,-1 z m 8.5,0 0,-1 4.5,0 4.5,0 0,1 0,1 -4.5,0 -4.5,0 0,-1 z m 11.5,0 -0.61803,-1 5.61803,0 5.61803,0 -0.61803,1 -0.61803,1 -4.38197,0 -4.38197,0 -0.61803,-1 z m 12,0 -0.61803,-1 8.61803,0 8.61803,0 -0.61803,1 -0.61803,1 -7.38197,0 -7.38197,0 -0.61803,-1 z m -103.75,-3.73221 c 2.3375,-0.21053 6.1625,-0.21053 8.5,0 l 4.25,0.3828 -8.5,0 -8.5,0 4.25,-0.3828 z m 22.48834,0.0451 c 0.95609,-0.25029 2.75609,-0.25937 4,-0.0202 l 2.26166,0.4349 -4,0.0202 -4,0.0202 1.73834,-0.45508 0,-2e-5 z m 8.51166,0.0248 1.25,-0.50439 1.25,0.50439 1.25,0.50439 -2.5,0 -2.5,0 1.25,-0.50439 z m 12,-0.0781 c 3.4375,-0.19527 9.0625,-0.19527 12.5,0 l 6.25,0.35504 -12.5,0 -12.5,0 6.25,-0.35504 z m 21.5,0.0511 c 0.9625,-0.25152 2.5375,-0.25152 3.5,0 l 1.75,0.45733 -3.5,0 -3.5,0 1.75,-0.45733 z m 7.98834,0.002 c 0.95609,-0.25029 2.75609,-0.25937 4,-0.0202 l 2.26166,0.4349 -4,0.0202 -4,0.0202 1.73834,-0.45508 0,-2e-5 z m 20.99375,-0.0274 c 1.50265,-0.22817 4.20265,-0.23274 6,-0.0102 l 3.26791,0.40466 -6,0.0102 -6,0.0102 2.73209,-0.41487 z m 13.48774,-0.0162 c 2.3209,-0.20972 6.3709,-0.21222 9,-0.006 l 4.78017,0.37577 -9,0.006 -9,0.006 4.21983,-0.38132 0,-4.5e-4 z m -106.96983,-3.0013 c 2.3375,-0.21053 6.1625,-0.21053 8.5,0 l 4.25,0.3828 -8.5,0 -8.5,0 4.25,-0.3828 z m 22.48834,0.0451 c 0.95609,-0.25029 2.75609,-0.25937 4,-0.0202 l 2.26166,0.4349 -4,0.0202 -4,0.0202 1.73834,-0.45508 0,-2e-5 z m 8.03249,0.0829 0.60417,-0.60416 1.3125,0.52522 1.3125,0.52522 -1.91667,0.0789 -1.91666,0.0789 0.60416,-0.60417 0,9e-5 z m 13.51836,-0.13724 c 3.45905,-0.19583 8.85905,-0.19422 12,0.004 l 5.71081,0.35965 -12,-0.004 -12,-0.004 6.28919,-0.35605 0,4e-4 z m 20.46081,0.0521 c 0.9625,-0.25152 2.5375,-0.25152 3.5,0 l 1.75,0.45733 -3.5,0 -3.5,0 1.75,-0.45733 z m 7.98834,0.002 c 0.95609,-0.25029 2.75609,-0.25937 4,-0.0202 l 2.26166,0.4349 -4,0.0202 -4,0.0202 1.73834,-0.45508 0,-2e-5 z m 21.01166,-0.0292 c 1.5125,-0.22913 3.9875,-0.22913 5.5,0 l 2.75,0.41659 -5.5,0 -5.5,0 2.75,-0.41659 z m 13.46983,-0.0145 c 2.3209,-0.20972 6.3709,-0.21222 9,-0.006 l 4.78017,0.37577 -9,0.006 -9,0.006 4.21983,-0.38132 0,-4.5e-4 z m -215.24682,-2.31262 -0.59104,-0.95633 2.05901,0 c 2.41457,0 2.65816,0.55611 0.59105,1.34934 l -1.46798,0.56331 -0.59104,-0.95632 z m 104.52699,-0.95633 0,-1 8,0 8,0 0,1 0,1 -8,0 -8,0 0,-1 z m 52.5,0 0.61803,-1 5.94099,0 5.94098,0 0,1 0,1 -6.55902,0 -6.55901,0 0.61803,-1 z m 15.5,0 0,-1 2.5,0 2.5,0 0,1 0,1 -2.5,0 -2.5,0 0,-1 z m 7,0 0,-1 3,0 3,0 0,1 0,1 -3,0 -3,0 0,-1 z m 20,0 0,-1 5,0 5,0 0,1 0,1 -5,0 -5,0 0,-1 z m 12,0 0,-1 8,0 8,0 0,1 0,1 -8,0 -8,0 0,-1 z m -80.5,-2.11254 -5,-1.00433 -7,-3.38669 -7,-3.3867 -5.2628,-4.64362 -5.2628,-4.64361 -4.48886,-6.29056 -4.48885,-6.29056 -2.35578,-5.3707 c -2.54316,-5.79787 -4.30204,-12.77595 -4.98482,-19.77649 l -0.42971,-4.4058 0.87673,-6.98231 0.87673,-6.98231 2.46388,-5.38181 2.46387,-5.38181 5.03466,-4.90391 5.03466,-4.90391 5.26155,-1.9577 c 2.89385,-1.07673 7.55371,-2.26856 10.35526,-2.64851 l 5.09371,-0.69082 6.40629,1.15023 6.40628,1.15022 8.96607,4.67212 8.96607,4.67212 5.6124,5.57847 5.6124,5.57847 3.10925,5.43441 c 1.71009,2.98892 4.43214,9.02861 6.04899,13.42153 l 2.93972,7.98712 0.68821,6 0.6882,6 -0.9807,6.06753 -0.98071,6.06753 -3.21956,6.81422 -3.21956,6.81421 -3.94114,3.82475 -3.94114,3.82475 -5.32668,1.99296 -5.32667,1.99296 -7.34758,0.49644 -7.34757,0.49644 -5,-1.00433 z m 23.43133,-3.35968 4.43133,-1.56702 3.24894,-2.47809 c 3.8193,-2.91311 6.86111,-6.97644 8.93086,-11.93005 l 1.48888,-3.56339 -4.49373,-2.18322 c -2.47155,-1.20077 -4.62503,-1.98585 -4.78551,-1.74462 -0.16048,0.24124 -2.00389,2.99524 -4.09646,6.12 l -3.80469,5.68139 -4.60361,1.56861 -4.60362,1.56861 -6.19613,0 -6.19614,0 -4.28171,-1.51068 c -2.35495,-0.83087 -4.38564,-1.39337 -4.51266,-1.25 -0.12701,0.14338 -0.54905,2.62318 -0.93785,5.51068 l -0.70691,5.25 0.84384,0.0441 c 0.46411,0.0243 3.09384,0.69864 5.84384,1.49859 l 5,1.45446 7.5,-0.45119 7.5,-0.45119 4.43133,-1.56702 0,3e-5 z m -6.64881,-10.58934 3.78252,-1.05041 -2.28252,-4.09069 c -1.25539,-2.24988 -3.41723,-5.31224 -4.8041,-6.80524 l -2.52157,-2.71455 2.00382,-0.88878 2.00382,-0.88877 1.31725,-2.5 1.31724,-2.5 -0.44012,-5.58958 -0.44011,-5.58958 -2.82142,-5.76208 -2.82141,-5.76208 -4.53796,-4.0367 -4.53796,-4.03671 -4.35238,-1.95372 -4.35239,-1.95372 -3.44531,0.64635 -3.44531,0.64634 -1.94857,3.19574 -1.94856,3.19574 -0.004,5.28212 -0.004,5.28212 1.54627,3.71788 c 0.85045,2.04483 2.72096,5.41881 4.15669,7.49773 l 2.61041,3.77985 4.7587,3.4932 c 2.61728,1.92126 6.48427,4.12612 8.59331,4.89969 l 3.83462,1.40649 -1.75,0.0705 -1.74948,0.0704 0.006,1.75 c 0.005,1.55376 1.38323,7.57592 2.51755,11 l 0.4141,1.25 2.78139,-0.006 c 1.52976,-0.003 4.48351,-0.47826 6.5639,-1.05598 l -4.2e-4,4.4e-4 z m -14.28252,-2.29887 c 0,-1.29823 -0.28617,-4.44823 -0.63592,-7 l -0.63593,-4.63957 -0.86407,0 -0.86408,0 0,6.33333 0,6.33334 0.66667,0.66666 c 0.36666,0.36667 1.04166,0.66667 1.5,0.66667 l 0.83333,0 0,-2.36043 z m -29.14206,-9.59315 3.35794,-2.8723 -3.11303,-4.52463 -3.11302,-4.52463 -4.48212,1.52721 -4.48213,1.52722 1.14782,2.16035 c 2.0948,3.94272 6.08312,9.66097 6.70949,9.61972 0.33941,-0.0224 2.12818,-1.33318 3.97505,-2.91294 z m 10.9747,-5.98778 c 1.74205,-2.16775 3.16736,-4.51144 3.16736,-5.20821 l 0,-1.26685 -4.5,4.41642 c -4.68086,4.59392 -5.42312,6 -3.16736,6 l 1.33263,0 3.16737,-3.94136 z m -17.46664,-16.84182 0.48403,-0.78318 -1.00042,-4.69064 -1.00041,-4.69063 -3.6746,-1.02061 c -2.02103,-0.56133 -4.2371,-1.02312 -4.9246,-1.02618 l -1.25,-0.006 0.011,2.75 c 0.006,1.5125 0.28993,4.4375 0.63084,6.5 l 0.61983,3.75 4.81015,0 4.81014,0 0.48403,-0.78318 10e-6,4.2e-4 z m 62.8934,-1.80956 0.59273,-0.59273 -2.17606,-6.09709 -2.17607,-6.0971 -4.74928,-5.06017 -4.74928,-5.06017 -2.42044,2.91574 c -1.33125,1.60366 -2.99829,3.99546 -3.70454,5.3151 l -1.2841,2.39936 1.17811,1.6849 c 0.64797,0.92669 2.42719,3.82194 3.95382,6.43388 l 2.77571,4.74899 6.08333,10e-4 c 3.34584,5.6e-4 6.35007,-0.26571 6.67607,-0.59171 z m -47.65145,-14.15726 c 0.73065,-0.9625 1.34275,-2.36255 1.36025,-3.11122 l 0.0318,-1.36122 -4.09312,-4.88878 c -2.25121,-2.68883 -4.43868,-4.88878 -4.86104,-4.88878 -0.95774,0 -5.65944,8.7359 -5.01583,9.31959 0.79638,0.72224 10.4458,6.64123 10.85975,6.66141 0.21436,0.0104 0.98755,-0.7685 1.71819,-1.731 z m 26.91105,-6.28749 2.55269,-5.0375 -0.65632,-1.06194 c -0.9077,-1.46869 -12.50134,-6.86131 -14.75327,-6.86228 l -1.8379,-7.9e-4 0.64143,4.25 c 0.35278,2.3375 0.85565,5.375 1.11749,6.75 l 0.47605,2.5 3.72042,2.20573 c 2.04622,1.21316 4.27533,2.22566 4.95356,2.25 l 1.23316,0.0443 2.55269,-5.03749 0,-3e-5 z m 1.49632,-14.51723 1.27524,-4.55472 -1.14528,-1.14528 -1.14528,-1.14528 -0.91773,0.95 -0.91774,0.95 -0.69581,4.75 -0.69581,4.75 1.48359,0 1.48358,0 1.27524,-4.55472 z m -12.01532,-5.39997 0,-4.95468 -3.56247,-0.66833 -3.56248,-0.66832 -4.48692,0.50574 c -2.46781,0.27816 -4.701,0.71982 -4.96266,0.98148 -0.26165,0.26165 0.41958,2.56442 1.51386,5.11726 l 1.9896,4.64154 6.53553,0 6.53554,0 0,-4.95469 z m -25,89.95469 0,-1 5.75,0.0997 5.75,0.0997 -2.5,0.8006 c -1.375,0.44035 -3.9625,0.8455 -5.75,0.90032 l -3.25,0.0997 0,-1 0,-2e-5 z m 59.5,-10e-6 0.61803,-0.99999 2.69099,0.0153 2.69098,0.0153 -1.5,0.9694 c -0.825,0.53316 -2.31406,0.97627 -3.30902,0.98469 l -1.80901,0.0153 0.61803,-1 z m 7.5,10e-6 0,-1 3.25,0.0703 3.25,0.0703 -2,0.85943 c -1.1,0.47269 -2.5625,0.89106 -3.25,0.92971 l -1.25,0.0703 0,-1 0,-4e-5 z m 8,0 0,-1 3,0 3,0 0,1 0,1 -3,0 -3,0 0,-1 z m 20,0 0,-1 5.25,0.11831 5.25,0.11832 -3,0.76337 c -1.65,0.41985 -4.0125,0.81661 -5.25,0.88169 l -2.25,0.11831 0,-1 z m 12,0 0,-1 8.25,0.13361 8.25,0.13362 -5,0.77878 c -2.75,0.42833 -6.4625,0.8182 -8.25,0.86638 l -3.25,0.0876 0,-1 0,10e-6 z m -107,-3.86133 0,-0.86133 2.5,0.47791 c 1.375,0.26285 2.5,0.65044 2.5,0.86133 0,0.21088 -1.125,0.38342 -2.5,0.38342 l -2.5,0 0,-0.86133 z m 67.5,-0.13867 0.61803,-1 1.94099,0 1.94098,0 0,1 0,1 -2.55902,0 -2.55901,0 0.61803,-1 z m 7,0 0.61803,-1 2.44099,0 2.44098,0 0,1 0,1 -3.05902,0 -3.05901,0 0.61803,-1 z m 21,0 0.61803,-1 3.88197,0 3.88197,0 0.61803,1 0.61803,1 -5.11803,0 -5.11803,0 0.61803,-1 z m 11.5,0 0,-1 7.44098,0 7.44099,0 0.61803,1 0.61803,1 -8.05901,0 -8.05902,0 0,-1 z m -39.5,-3 0.61803,-1 1.94099,0 1.94098,0 0,1 0,1 -2.55902,0 -2.55901,0 0.61803,-1 z m 6.5,0 0,-1 3,0 3,0 0,1 0,1 -3,0 -3,0 0,-1 z m 8.5,0 0.61803,-1 4.44099,0 4.44098,0 0,1 0,1 -5.05902,0 -5.05901,0 0.61803,-1 z m 12.5,0 0,-1 4.5,0 4.5,0 0,1 0,1 -4.5,0 -4.5,0 0,-1 z m 12,0 0,-1 6.94098,0 6.94099,0 0.61803,1 0.61803,1 -7.55901,0 -7.55902,0 0,-1 z m -37.72917,-2.60417 0.60417,-0.60416 1.3125,0.52522 1.3125,0.52522 -1.91667,0.0789 -1.91666,0.0789 0.60416,-0.60417 0,9e-5 z m 4.72917,-0.39583 0,-1 2.44098,0 2.44099,0 0.61803,1 0.61803,1 -3.05901,0 -3.05902,0 0,-1 z m 8,0 0,-1 5,0 5,0 0,1 0,1 -5,0 -5,0 0,-1 z m 13,0 0,-1 4.5,0 4.5,0 0,1 0,1 -4.5,0 -4.5,0 0,-1 z m 11,0 0,-1 7.5,0 7.5,0 0,1 0,1 -7.5,0 -7.5,0 0,-1 z m -30.75,-3.68933 c 0.9625,-0.25152 2.5375,-0.25152 3.5,0 l 1.75,0.45733 -3.5,0 -3.5,0 1.75,-0.45733 z m 9,-0.0269 c 1.5125,-0.22913 3.9875,-0.22913 5.5,0 l 2.75,0.41659 -5.5,0 -5.5,0 2.75,-0.41659 z m 12.01375,-10e-4 c 1.52006,-0.22986 3.77006,-0.22371 5,0.0136 l 2.23625,0.43157 -5,-0.0137 -5,-0.0136 2.76375,-0.41792 0,5e-5 z m 13.51268,-0.0159 c 2.35204,-0.21124 5.95204,-0.20827 8,0.007 l 3.72357,0.39068 -8,-0.007 -8,-0.007 4.27643,-0.38409 0,4.1e-4 z m -215.77643,-4.38345 0,-2.11657 2.52387,0.48246 2.52386,0.48247 0.53515,-0.86589 0.53515,-0.86589 2.286,0 2.28599,0 1.8419,2.03527 1.84189,2.03526 1.31309,-0.50388 1.3131,-0.50388 0,0.96861 0,0.96862 -8.5,0 -8.5,0 0,-2.11658 z m 180,1.11659 c 0.825,-0.53316 2.2875,-0.97628 3.25,-0.9847 l 1.75,-0.0153 0,1 0,1 -3.25,-0.0153 -3.25,-0.0153 1.5,-0.9694 z m 8.5,-1e-5 c 1.1,-0.47269 3.21094,-0.89106 4.69098,-0.92971 l 2.69099,-0.0703 0.61803,1 0.61803,1 -5.30901,-0.0703 -5.30902,-0.0703 2,-0.85943 0,4e-5 z m 12.75,0.28375 c 1.5125,-0.22913 3.9875,-0.22913 5.5,0 l 2.75,0.41659 -5.5,0 -5.5,0 2.75,-0.41659 z m 11.75,-0.28375 c 1.375,-0.44035 4.61094,-0.8455 7.19098,-0.90032 l 4.69099,-0.0997 0.61803,1 0.61803,1 -7.80901,-0.0997 -7.80902,-0.0996 2.5,-0.80064 0,-4e-5 z m -33,-3 0,-1 2.5,0 2.5,0 0,1 0,1 -2.5,0 -2.5,0 0,-1 z m 7,0 0,-1 5,0 5,0 0,1 0,1 -5,0 -5,0 0,-1 z m 12,0 0,-1 4.5,0 4.5,0 0,1 0,1 -4.5,0 -4.5,0 0,-1 z m 12,0 0,-1 6.44098,0 6.44099,0 0.61803,1 0.61803,1 -7.05901,0 -7.05902,0 0,-1 z m -29.5,-3 c 0.33992,-0.55 1.26648,-1 2.05902,-1 l 1.44098,0 0,1 0,1 -2.05902,0 -2.05901,0 0.61803,-1 z m 5.5,0 0,-1 4.5,0 4.5,0 0,1 0,1 -4.5,0 -4.5,0 0,-1 z m 11,0 0,-1 5,0 5,0 0,1 0,1 -5,0 -5,0 0,-1 z m 12,0 0,-1 7.05902,0 7.05901,0 -0.61803,1 -0.61803,1 -6.44099,0 -6.44098,0 0,-1 z m -28.25,-3.66228 1.25,-0.50439 1.25,0.50439 1.25,0.50439 -2.5,0 -2.5,0 1.25,-0.50439 z m 6.51375,-0.0553 c 1.52006,-0.22986 3.77006,-0.22371 5,0.0136 l 2.23625,0.43157 -5,-0.0137 -5,-0.0136 2.76375,-0.41792 0,5e-5 z m 11.48625,0.0119 c 1.2375,-0.23836 3.2625,-0.23836 4.5,0 l 2.25,0.43337 -4.5,0 -4.5,0 2.25,-0.43337 z m 12.5,-0.0227 c 2.0625,-0.21574 5.4375,-0.21574 7.5,0 l 3.75,0.39226 -7.5,0 -7.5,0 3.75,-0.39226 z m -24.98625,-2.98911 c 1.52006,-0.22986 3.77006,-0.22371 5,0.0136 l 2.23625,0.43157 -5,-0.0137 -5,-0.0136 2.76375,-0.41792 0,5e-5 z m 10.98625,10e-4 c 1.5125,-0.22913 3.9875,-0.22913 5.5,0 l 2.75,0.41659 -5.5,0 -5.5,0 2.75,-0.41659 z m 13,-0.0122 c 2.0625,-0.21574 5.4375,-0.21574 7.5,0 l 3.75,0.39226 -7.5,0 -7.5,0 3.75,-0.39226 z m -26.25,-3.27131 0,-1 4,0 4,0 0,1 0,1 -4,0 -4,0 0,-1 z m 11,0 0,-1 3.94098,0 3.94099,0 0.61803,1 0.61803,1 -4.55901,0 -4.55902,0 0,-1 z m 12,0 0,-1 6,0 6,0 0,1 0,1 -6,0 -6,0 0,-1 z m -1,-3 0,-1 6,0 6,0 0,1 0,1 -6,0 -6,0 0,-1 z m 0.7277,-3.72173 c 1.77523,-0.22091 4.92523,-0.22454 7,-0.008 l 3.7723,0.39359 -7,0.008 -7,0.008 3.2277,-0.40166 0,7e-5 z m -3.7277,-3.27827 0,-1 5.94098,0 5.94099,0 0.61803,1 0.61803,1 -6.55901,0 -6.55902,0 0,-1 z m -1,-3 0,-1 6,0 6,0 0,1 0,1 -6,0 -6,0 0,-1 z m -149,-3 -2.5,-0.80064 4.75,-0.0997 4.75,-0.0997 0,1 0,1 -2.25,-0.0997 c -1.2375,-0.0548 -3.375,-0.45995 -4.75,-0.9003 l 0,4e-5 z m 128,0 0,-1 8.5,0 8.5,0 0,1 0,1 -8.5,0 -8.5,0 0,-1 z m 19.50104,0.002 -0.61907,-1.00168 6.72568,0 c 7.97122,0 8.04253,0.48014 0.2024,1.36278 l -5.68994,0.64057 -0.61907,-1.00167 z m -148.91642,-3.9863 0.98462,-0.98462 4.46538,0.87505 4.46538,0.87506 -5.45,0.10956 -5.45,0.10957 0.98462,-0.98462 z m 128.41538,0.0789 0,-0.90544 8.25,0.53982 c 4.5375,0.29691 8.4375,0.70435 8.66667,0.90544 0.22916,0.20109 -3.48334,0.36562 -8.25,0.36562 l -8.66667,0 0,-0.90544 z m 19.5,-0.0946 0.61803,-1 4.88197,0 4.88197,0 0.61803,1 0.61803,1 -6.11803,0 -6.11803,0 0.61803,-1 z m -147.5,-3 0,-1 7,0 7,0 0,1 0,1 -7,0 -7,0 0,-1 z m 127,0 0,-1 8.5,0 8.5,0 0,1 0,1 -8.5,0 -8.5,0 0,-1 z m 19.5,0 0.61803,-1 4.38197,0 4.38197,0 0.61803,1 0.61803,1 -5.61803,0 -5.61803,0 0.61803,-1 z m -144.23625,-3.71758 c 1.52006,-0.22986 3.77006,-0.22371 5,0.0136 l 2.23625,0.43157 -5,-0.0136 -5,-0.0137 2.76375,-0.41792 0,5e-5 z m 127.48625,-0.0146 c 2.3375,-0.21053 6.1625,-0.21053 8.5,0 l 4.25,0.3828 -8.5,0 -8.5,0 4.25,-0.3828 z m 17.5,0.016 c 1.5125,-0.22912 3.9875,-0.22912 5.5,0 l 2.75,0.41659 -5.5,0 -5.5,0 2.75,-0.41659 z m -144.98625,-3.00132 c 1.52006,-0.22986 3.77006,-0.22371 5,0.0136 l 2.23625,0.43157 -5,-0.0136 -5,-0.0137 2.76375,-0.41792 0,5e-5 z m 12.98625,-0.0175 c 2.6125,-0.206 6.8875,-0.206 9.5,0 l 4.75,0.37454 -9.5,0 -9.5,0 4.75,-0.37454 z m 113.5,0.003 c 2.3375,-0.21053 6.1625,-0.21053 8.5,0 l 4.25,0.38279 -8.5,0 -8.5,0 4.25,-0.38279 z m 16.5,0.0159 c 1.5125,-0.22912 3.9875,-0.22912 5.5,0 l 2.75,0.41659 -5.5,0 -5.5,0 2.75,-0.41659 z m -142.98625,-3.00129 c 1.52006,-0.22986 3.77006,-0.22371 5,0.0136 l 2.23625,0.43157 -5,-0.0136 -5,-0.0137 2.76375,-0.41792 0,5e-5 z m 12.98625,-0.0175 c 2.6125,-0.206 6.8875,-0.206 9.5,0 l 4.75,0.37454 -9.5,0 -9.5,0 4.75,-0.37454 z m 111.5,0.003 c 2.3375,-0.21053 6.1625,-0.21053 8.5,0 l 4.25,0.38279 -8.5,0 -8.5,0 4.25,-0.38279 z m 17.51375,0.0146 c 1.52006,-0.22985 3.77006,-0.22371 5,0.0137 l 2.23625,0.43157 -5,-0.0136 -5,-0.0136 2.76375,-0.41792 0,-1.5e-4 z m -144.26375,-3.28238 0,-1 4.5,0 4.5,0 0,1 0,1 -4.5,0 -4.5,0 0,-1 z m 11,0 0,-1 9,0 9,0 0,1 0,1 -9,0 -9,0 0,-1 z m 110,0 0,-1 7.94098,0 7.94099,0 0.61803,1 0.61803,1 -8.55901,0 -8.55902,0 0,-1 z m 19,0 0,-1 4,0 4,0 0,1 0,1 -4,0 -4,0 0,-1 z m -140,-3 0,-1 4.5,0 4.5,0 0,1 0,1 -4.5,0 -4.5,0 0,-1 z m 11.5,0 -0.61803,-1 10.11803,0 10.11803,0 -0.61803,1 -0.61803,1 -8.88197,0 -8.88197,0 -0.61803,-1 z m 108,0 -0.61803,-1 8.61803,0 8.61803,0 -0.61803,1 -0.61803,1 -7.38197,0 -7.38197,0 -0.61803,-1 z m 19,0 -0.61803,-1 4.61803,0 4.61803,0 -0.61803,1 -0.61803,1 -3.38197,0 -3.38197,0 -0.61803,-1 z m -17.78017,-3.73073 c 2.3209,-0.20973 6.3709,-0.21222 9,-0.005 l 4.78017,0.37577 -9,0.005 -9,0.006 4.21983,-0.38131 0,-4.6e-4 z m 15.51851,-2.95635 c 0.95609,-0.25029 2.75609,-0.25937 4,-0.0202 l 2.26166,0.4349 -4,0.0202 -4,0.0202 1.73834,-0.45508 0,-2e-5 z m -137.23834,-3.31292 0,-1 5.5,0 5.5,0 0,1 0,1 -5.5,0 -5.5,0 0,-1 z m 13,0 0,-1 10.55902,0 10.55901,0 -0.61803,1 -0.61803,1 -9.94099,0 -9.94098,0 0,-1 z m 101.5,0 0.61803,-1 12.44099,0 12.44098,0 0,1 0,1 -13.05902,0 -13.05901,0 0.61803,-1 z m -113.5,-3 0,-1 5.55902,0 5.55901,0 -0.61803,1 -0.61803,1 -4.94099,0 -4.94098,0 0,-1 z m 22.75,0.29427 c 1.2375,-0.23836 3.2625,-0.23836 4.5,0 l 2.25,0.43337 -4.5,0 -4.5,0 2.25,-0.43337 z m 89.71453,-0.35167 -0.58256,-0.9426 11.72568,0 c 6.44913,0 11.53818,0.16308 11.30902,0.36239 -0.22917,0.19932 -5.24357,0.6235 -11.14312,0.94261 l -10.72646,0.58021 -0.58256,-0.94261 z m -118.29609,-3.44438 c 0.27598,-0.27598 3.91517,-0.74094 8.0871,-1.03326 l 7.58531,-0.53149 0.63859,1.03327 0.63859,1.03326 -8.72568,0 -8.72568,0 0.50177,-0.50178 z m 25.08156,-0.23977 c 3.7125,-0.19241 9.7875,-0.19241 13.5,0 l 6.75,0.34983 -13.5,0 -13.5,0 6.75,-0.34983 z m 86.02083,0.13738 0.60417,-0.60416 1.3125,0.52522 1.3125,0.52521 -1.91667,0.0789 -1.91666,0.0789 0.60416,-0.60416 0,9e-5 z m 10.44266,-0.13181 c 2.86742,-0.2013 7.81742,-0.20315 11,-0.004 l 5.78651,0.36191 -11,0.004 -11,0.004 5.21349,-0.36601 0,1e-4 z m -117.21349,-3.26402 0.61803,-1 5.38197,0 5.38197,0 0.61803,1 0.61803,1 -6.61803,0 -6.61803,0 0.61803,-1 z m 14.5,0 0,-1 14.5,0 14.5,0 0,1 0,1 -14.5,0 -14.5,0 0,-1 z m 90.5,0 -0.61803,-1 1,0 c 0.55,0 1.27811,0.45 1.61803,1 l 0.61803,1 -1,0 c -0.55,0 -1.27811,-0.45 -1.61803,-1 z m 5.5,0 0,-1 9.94098,0 9.94099,0 0.61803,1 0.61803,1 -10.55901,0 -10.55902,0 0,-1 z m -110,-3 0,-1 5.75,0.0153 5.75,0.0153 -1.5,0.96938 -1.5,0.96937 -4.25,0.0153 -4.25,0.0153 0,-1 0,5e-5 z m 14,0 0,-1 14.44098,0 14.44099,0 0.61803,1 0.61803,1 -15.05901,0 -15.05902,0 0,-1 z m 82.5,0 -0.61803,-1 1,0 c 0.55,0 1.27811,0.45 1.61803,1 l 0.61803,1 -1,0 c -0.55,0 -1.27811,-0.45 -1.61803,-1 z m 7,0 -0.61803,-1 1,0 c 0.55,0 1.27811,0.45 1.61803,1 l 0.61803,1 -1,0 c -0.55,0 -1.27811,-0.45 -1.61803,-1 z m 5.5,0 0,-1 8.44098,0 8.44099,0 0.61803,1 0.61803,1 -9.05901,0 -9.05902,0 0,-1 z m -107.62317,-3.19929 -0.49486,-0.80071 5.80901,0.0153 5.80902,0.0153 -1.5,0.98427 -1.5,0.98426 -3.81415,-0.19887 -3.81416,-0.19887 -0.49486,-0.80071 0,3e-5 z m 99.62317,0.19929 -1.5,-0.96937 2.25,-0.0153 2.25,-0.0153 0,1 c 0,1.25292 -1.06124,1.25292 -3,0 l 0,-3e-5 z m 6.5,0 -0.61803,-1 3.05901,0 3.05902,0 0,1 0,1 -2.44098,0 -2.44099,0 -0.61803,-1 z m -86.20429,-0.74413 c 4.28763,-0.18791 11.03763,-0.18676 15,0.002 l 7.20429,0.34419 -15,-0.003 -15,-0.002 7.79571,-0.34164 0,4.5e-4 z m 26.45429,0.0384 c 1.2375,-0.23835 3.2625,-0.23835 4.5,0 l 2.25,0.43337 -4.5,0 -4.5,0 2.25,-0.43337 z m 43,0 c 1.2375,-0.23835 3.2625,-0.23835 4.5,0 l 2.25,0.43337 -4.5,0 -4.5,0 2.25,-0.43337 z m -68.25,-3.29427 0.61803,-1 9.38197,0 9.38197,0 0.61803,1 0.61803,1 -10.61803,0 -10.61803,0 0.61803,-1 z m 23,0 0.61803,-1 5.38197,0 5.38197,0 0.61803,1 0.61803,1 -6.61803,0 -6.61803,0 0.61803,-1 z m 15,0 c 0.33992,-0.55 1.26648,-1 2.05902,-1 l 1.44098,0 0,1 0,1 -2.05902,0 -2.05901,0 0.61803,-1 z m 15.94687,-0.086 -0.67117,-1.08597 5.86215,0.71117 c 7.65746,0.92897 8.0535,1.46077 1.08783,1.46077 l -5.60765,0 -0.67116,-1.08597 z m 30.05313,0.086 -0.61803,-1 6.55901,0 6.55902,0 0,1 0,1 -5.94098,0 -5.94099,0 -0.61803,-1 z m -74.85144,-3.04856 1.04856,-1.04856 4.90144,0.93672 4.90144,0.93672 -5.95,0.11184 -5.95,0.11184 1.04856,-1.04856 z m 14.10144,0.38628 1.25,-0.50439 1.25,0.50439 1.25,0.50438 -2.5,0 -2.5,0 1.25,-0.50438 z m 26.25,-0.33772 0,-1 6.44098,0 6.44099,0 0.61803,1 0.61803,1 -7.05901,0 -7.05902,0 0,-1 z m 17,-0.0158 0,-1.01584 12.75,0.65408 c 7.0125,0.35974 12.9375,0.81687 13.16667,1.01584 0.22916,0.19897 -5.50834,0.36176 -12.75,0.36176 l -13.16667,0 0,-1.01584 z m -22.72917,-0.58832 0.60417,-0.60417 1.3125,0.52522 1.3125,0.52522 -1.91667,0.0789 -1.91666,0.079 0.60416,-0.60417 z m -28.96648,-3.1426 c 5.94239,-0.1771 15.39239,-0.17644 21,0.002 l 10.19565,0.32348 -21,-0.001 -21,-0.001 10.80435,-0.322 0,-0.001 0,-4.8e-4 z m 35.42335,0.025 c 1.77523,-0.22091 4.92523,-0.22454 7,-0.008 l 3.7723,0.39359 -7,0.008 -7,0.008 3.2277,-0.40166 0,7e-5 z m 19.0223,-0.0187 c 3.4375,-0.19527 9.0625,-0.19527 12.5,0 l 6.25,0.35504 -12.5,0 -12.5,0 6.25,-0.35504 z m -44.75,-3.25271 18.5,-0.63312 0.95,0.81311 0.95,0.81311 -19.45,-0.17999 -19.45,-0.17999 18.5,-0.63312 z m 22.08333,0.57915 c 0.22917,-0.22768 2.76867,-0.53818 5.64333,-0.69001 l 5.22667,-0.27604 0.69,0.69 0.69,0.69 -6.33333,0 c -3.48333,0 -6.14583,-0.18628 -5.91667,-0.41395 z m 20.16667,-0.32504 c 3.1625,-0.19845 8.3375,-0.19845 11.5,0 l 5.75,0.36082 -11.5,0 -11.5,0 5.75,-0.36082 z m -53.983,-2.86134 0.60033,-0.60033 14.78111,0.14844 c 8.12961,0.0816 14.98446,0.35179 15.233,0.60033 0.24854,0.24854 -6.67311,0.45189 -15.38144,0.45189 l -15.83333,0 0.60033,-0.60033 z m 34.483,-0.12307 c 1.7875,-0.22182 4.7125,-0.22182 6.5,0 l 3.25,0.40333 -6.5,0 -6.5,0 3.25,-0.40333 z m 16.5,-0.0116 c 2.6125,-0.20599 6.8875,-0.20599 9.5,0 l 4.75,0.37455 -9.5,0 -9.5,0 4.75,-0.37455 z m -51.25,-3.29026 -1.5,-0.99468 25.5,0.14382 25.5,0.14382 5,0.73256 5,0.73255 -29,0.1183 -29,0.1183 -1.5,-0.99467 z m -9.54654,-10.05 -0.66457,-1.0753 21.93529,0.25249 21.93529,0.25249 1.92027,0.75252 1.92026,0.75253 -23.19098,0.0703 -23.19099,0.0703 -0.66457,-1.0753 0,-3e-5 z m -13.45346,-1.6408 0,-0.99469 6.75,-0.6375 c 3.7125,-0.35062 14.9625,-0.64069 25,-0.6446 l 18.25,-0.007 0,1 0,1 -19.75,0.009 c -10.8625,0.005 -22.1125,0.29246 -25,0.63929 l -5.25,0.6306 0,-0.99469 0,-4.1e-4 z m 18,-4.2839 -11.5,-0.60107 14.80902,-0.19946 14.80901,-0.19947 -0.61803,1 -0.61803,1 -2.69099,-0.19947 c -1.48004,-0.1097 -7.86598,-0.46994 -14.19098,-0.80053 z m -19.07163,-2.02437 c 5.79003,-2.08228 7.12603,-1.95103 5.09169,0.5002 l -1.26495,1.52417 -4.62755,-0.0361 -4.62756,-0.0361 5.42837,-1.95222 0,5e-5 z"
           id="path4685"
           style="fill:#dcdcdc;fill-opacity:1;display:inline" />
      </g>
      <g
         transform="translate(0.71429,0)"
         id="g3678">
        <path
           d="m 223.19664,340.34607 0,8.39844 -1.44531,0 0,10.9375 c -0.0781,2.16147 -0.39064,3.64584 -0.9375,4.45313 -0.54689,0.80729 -1.34767,1.59505 -2.40235,2.36328 -1.0547,0.76823 -2.4935,1.36067 -4.3164,1.77734 -1.77084,0.13021 -3.20964,0.20182 -4.31641,0.21484 -1.10677,0.013 -2.29818,0.0326 -3.57422,0.0586 l 0,-8.39844 c 1.01563,0.26042 2.16146,0.26042 3.4375,0 1.01562,-0.23437 1.71875,-0.5078 2.10938,-0.82031 0.39062,-0.31249 0.66405,-1.05468 0.82031,-2.22656 l 0,-16.75782 10.625,0"
           id="path3735"
           style="font-size:40px;font-style:normal;font-variant:normal;font-weight:normal;font-stretch:normal;text-align:center;writing-mode:lr-tb;text-anchor:middle;fill:#ecc760;fill-opacity:1;stroke:none;font-family:Star Jedi Logo MonoLine;-inkscape-font-specification:Star Jedi Logo MonoLine" />
        <path
           d="m 255.81383,354.60389 c -4e-5,3.08594 -0.64457,5.71615 -1.9336,7.89062 -1.28909,2.17448 -3.15758,3.8086 -5.60547,4.90234 -2.43491,1.09375 -5.34507,1.64063 -8.73046,1.64063 -3.38543,0 -6.29559,-0.54688 -8.73047,-1.64063 -2.42188,-1.10676 -4.25782,-2.73437 -5.50782,-4.88281 -1.25,-2.16145 -1.875,-4.79816 -1.875,-7.91015 0,-2.35676 0.35808,-4.42707 1.07422,-6.21094 0.71615,-1.79686 1.76432,-3.30727 3.14453,-4.53125 1.38021,-1.22393 3.07291,-2.14841 5.07813,-2.77344 2.0052,-0.63799 4.27733,-0.957 6.81641,-0.95703 3.37237,3e-5 6.28253,0.55992 8.73046,1.67969 2.44789,1.10679 4.31638,2.74742 5.60547,4.92187 1.28903,2.16148 1.93356,4.78517 1.9336,7.8711 m -22.36328,0.0781 c -1e-5,1.80991 0.40363,3.38543 1.21093,4.72656 0.8203,1.34116 2.42838,2.01173 4.82422,2.01172 1.84894,10e-6 3.22915,-0.35155 4.14063,-1.05469 0.92446,-0.70311 1.49737,-1.50389 1.71875,-2.40234 0.23435,-0.91145 0.3906,-2.0052 0.46875,-3.28125 -0.0781,-1.80988 -0.51435,-3.3854 -1.3086,-4.72656 -0.79429,-1.35415 -2.46746,-2.03123 -5.01953,-2.03125 -4.02345,2e-5 -6.03516,2.25262 -6.03515,6.75781"
           id="path3737"
           style="font-size:40px;font-style:normal;font-variant:normal;font-weight:normal;font-stretch:normal;text-align:center;writing-mode:lr-tb;text-anchor:middle;fill:#ecc760;fill-opacity:1;stroke:none;font-family:Star Jedi Logo MonoLine;-inkscape-font-specification:Star Jedi Logo MonoLine" />
        <path
           d="m 256.75133,340.34607 9.17968,0 0,28.20313 -9.17967,0 0,-28.20313"
           id="path3739"
           style="font-size:40px;font-style:normal;font-variant:normal;font-weight:normal;font-stretch:normal;text-align:center;writing-mode:lr-tb;text-anchor:middle;fill:#ecc760;fill-opacity:1;stroke:none;font-family:Star Jedi Logo MonoLine;-inkscape-font-specification:Star Jedi Logo MonoLine" />
        <path
           d="m 267.9232,368.5492 0,-28.20313 9.17969,0 8.39844,10.54688 0,-10.54688 9.17968,0 0,28.20313 -9.17968,0 -8.39844,-10.54688 0,10.54688 -9.17969,0"
           id="path3741"
           style="font-size:40px;font-style:normal;font-variant:normal;font-weight:normal;font-stretch:normal;text-align:center;writing-mode:lr-tb;text-anchor:middle;fill:#ecc760;fill-opacity:1;stroke:none;font-family:Star Jedi Logo MonoLine;-inkscape-font-specification:Star Jedi Logo MonoLine" />
        <path
           d="m 340.18883,340.34607 0,8.39844 -8.94532,0 0,19.80469 -9.17968,0 0,-19.80469 -8.94532,0 0,-8.39844 27.07032,0"
           id="path3743"
           style="font-size:40px;font-style:normal;font-variant:normal;font-weight:normal;font-stretch:normal;text-align:center;writing-mode:lr-tb;text-anchor:middle;fill:#ecc760;fill-opacity:1;stroke:none;font-family:Star Jedi Logo MonoLine;-inkscape-font-specification:Star Jedi Logo MonoLine" />
        <path
           d="m 357.37633,350.07264 0,-9.72657 9.17968,0 0,28.20313 -9.17968,0 0,-10.15625 -7.38282,0 0,10.15625 -9.17968,0 0,-28.20313 9.17968,0 0,9.72657 7.38282,0"
           id="path3745"
           style="font-size:40px;font-style:normal;font-variant:normal;font-weight:normal;font-stretch:normal;text-align:center;writing-mode:lr-tb;text-anchor:middle;fill:#ecc760;fill-opacity:1;stroke:none;font-family:Star Jedi Logo MonoLine;-inkscape-font-specification:Star Jedi Logo MonoLine" />
        <path
           d="m 368.5482,368.5492 0,-28.20313 24.17969,0 0,8.39844 -15,0 0,3.24219 9.6875,0 0,4.92187 -9.6875,0 0,3.24219 17.38281,0 0,8.39844 -26.5625,0"
           id="path3747"
           style="font-size:40px;font-style:normal;font-variant:normal;font-weight:normal;font-stretch:normal;text-align:center;writing-mode:lr-tb;text-anchor:middle;fill:#ecc760;fill-opacity:1;stroke:none;font-family:Star Jedi Logo MonoLine;-inkscape-font-specification:Star Jedi Logo MonoLine" />
        <path
           d="m 210.76841,386.75391 0,7.69922 -31.39453,12.83203 31.39453,12.79687 0,7.69922 -41.41406,-17.05078 0,-6.99609 41.41406,-16.98047"
           id="path3647"
           style="font-size:72px;font-style:italic;font-variant:normal;font-weight:bold;font-stretch:normal;text-align:start;line-height:100%;writing-mode:lr-tb;text-anchor:start;fill:#002c78;fill-opacity:1;stroke:none;font-family:Compacta Bd BT;-inkscape-font-specification:Compacta Bd BT Bold Italic" />
        <path
           d="m 226.41797,398.21484 3.48047,0 0.91406,-6.32812 c 0.0469,-0.35153 0.11717,-0.70309 0.21094,-1.05469 0.0234,-0.0703 0.0351,-0.10543 0.0352,-0.10547 -1e-5,-0.63277 -0.12892,-1.07808 -0.38672,-1.33593 -0.25783,-0.25778 -0.69142,-0.38668 -1.30078,-0.38672 -0.56251,4e-5 -0.99611,0.18754 -1.30078,0.5625 -0.28126,0.3516 -0.51564,1.11332 -0.70312,2.28515 l -0.94922,6.36328 m -1.19532,8.19141 -1.72265,11.60156 c -0.0234,0.0938 -0.0469,0.23439 -0.0703,0.42188 -0.0703,0.44532 -0.10548,0.73829 -0.10547,0.8789 -10e-6,0.56251 0.11718,0.97267 0.35156,1.23047 0.23436,0.23439 0.59765,0.35157 1.08984,0.35157 0.65624,0 1.13671,-0.17578 1.44141,-0.52735 0.30467,-0.37499 0.55077,-1.16014 0.73828,-2.35547 l 1.01953,-6.78515 10.51172,0 -0.80859,5.55468 c -0.7969,5.39064 -2.01565,8.77735 -3.65625,10.16016 -1.64065,1.38281 -5.12111,2.07422 -10.44141,2.07422 -4.5,0 -7.46484,-0.42187 -8.89453,-1.26563 -1.42969,-0.86718 -2.14453,-2.41405 -2.14453,-4.64062 0,-0.70312 0.0586,-1.60546 0.17578,-2.70703 0.0937,-1.12499 0.23438,-2.33202 0.42187,-3.6211 l 3.58594,-23.76562 c 0.84375,-5.50777 2.07422,-8.91792 3.69141,-10.23047 1.64062,-1.33589 5.08592,-2.00386 10.33594,-2.00391 4.54685,5e-5 7.53513,0.45708 8.96484,1.3711 1.42966,0.89067 2.1445,2.49614 2.14453,4.8164 -3e-5,0.60942 -0.0586,1.41801 -0.17578,2.42579 -0.0938,1.00785 -0.25784,2.2266 -0.49219,3.65625 l -2.0039,13.35937 -13.95704,0"
           id="path3649"
           style="font-size:72px;font-style:italic;font-variant:normal;font-weight:bold;font-stretch:normal;text-align:start;line-height:100%;writing-mode:lr-tb;text-anchor:start;fill:#002c78;fill-opacity:1;stroke:none;font-family:Compacta Bd BT;-inkscape-font-specification:Compacta Bd BT Bold Italic" />
        <path
           d="m 270.32812,383.94141 c 1.31247,-1.05464 2.61325,-1.8398 3.90235,-2.35547 1.31246,-0.53902 2.62496,-0.80855 3.9375,-0.8086 2.13277,5e-5 3.76168,0.60943 4.88672,1.82813 1.14839,1.21879 1.72261,2.96489 1.72265,5.23828 -4e-5,0.58598 -0.0586,1.3477 -0.17578,2.28516 -0.0938,0.93754 -0.26957,2.21488 -0.52734,3.83203 l -5.20313,34.76953 -10.4414,0 5.41406,-36.28125 c 0.0234,-0.11715 0.0468,-0.26949 0.0703,-0.45703 0.0468,-0.30465 0.0703,-0.51559 0.0703,-0.63281 -3e-5,-0.53903 -0.12893,-0.93747 -0.38672,-1.19532 -0.25784,-0.25777 -0.65628,-0.38668 -1.19531,-0.38672 -0.63284,4e-5 -1.11331,0.19926 -1.4414,0.59766 -0.30472,0.37504 -0.53909,1.05473 -0.70313,2.03906 l -5.41406,36.31641 -10.3711,0 5.41407,-36.28125 c 0.0234,-0.16403 0.0469,-0.38668 0.0703,-0.66797 0.0469,-0.28121 0.0703,-0.44527 0.0703,-0.49219 -2e-5,-0.49215 -0.1172,-0.86715 -0.35156,-1.125 -0.23439,-0.25777 -0.57424,-0.38668 -1.01953,-0.38672 -0.72658,4e-5 -1.26564,0.19926 -1.61719,0.59766 -0.35158,0.37504 -0.60939,1.06644 -0.77344,2.07422 l -5.3789,36.28125 -10.44141,0 7.06641,-47.67188 10.51172,0 -0.38672,2.53125 c 1.31248,-1.0312 2.46092,-1.75776 3.44531,-2.17968 1.00779,-0.42183 2.02732,-0.63277 3.05859,-0.63282 1.26561,5e-5 2.36717,0.24615 3.30469,0.73829 0.96091,0.46879 1.92185,1.27739 2.88281,2.42578"
           id="path3651"
           style="font-size:72px;font-style:italic;font-variant:normal;font-weight:bold;font-stretch:normal;text-align:start;line-height:100%;writing-mode:lr-tb;text-anchor:start;fill:#002c78;fill-opacity:1;stroke:none;font-family:Compacta Bd BT;-inkscape-font-specification:Compacta Bd BT Bold Italic" />
        <path
           d="m 320.21484,381.05859 10.51172,0 -7.13672,47.67188 -10.4414,0 7.0664,-47.67188 m 1.65235,-10.79296 10.51171,0 -1.08984,7.13671 -10.51172,0 1.08985,-7.13671"
           id="path3655"
           style="font-size:72px;font-style:italic;font-variant:normal;font-weight:bold;font-stretch:normal;text-align:start;line-height:100%;writing-mode:lr-tb;text-anchor:start;fill:#002c78;fill-opacity:1;stroke:none;font-family:Compacta Bd BT;-inkscape-font-specification:Compacta Bd BT Bold Italic" />
        <path
           d="m 357.33984,393.96094 -1.01953,6.60937 -9.42187,0 1.23046,-8.12109 c 0.0234,-0.2109 0.0351,-0.41012 0.0352,-0.59766 0.0234,-0.18746 0.0351,-0.37496 0.0352,-0.5625 -2e-5,-0.53902 -0.11721,-0.92574 -0.35157,-1.16015 -0.21095,-0.23434 -0.57423,-0.35153 -1.08984,-0.35157 -0.60939,4e-5 -1.07814,0.19926 -1.40625,0.59766 -0.3047,0.39848 -0.53908,1.08988 -0.70312,2.07422 l -5.44922,36.28125 -10.44141,0 7.06641,-47.67188 10.51172,0 -0.31641,2.25 c 1.1953,-0.8437 2.30858,-1.47651 3.33984,-1.89843 1.05467,-0.42183 2.00389,-0.63277 2.84766,-0.63282 1.92185,5e-5 3.37497,0.59771 4.35937,1.79297 0.98435,1.19536 1.47654,2.95317 1.47657,5.27344 -3e-5,0.42192 -0.0703,1.18363 -0.21094,2.28516 -0.11721,1.07816 -0.28128,2.3555 -0.49219,3.83203"
           id="path3657"
           style="font-size:72px;font-style:italic;font-variant:normal;font-weight:bold;font-stretch:normal;text-align:start;line-height:100%;writing-mode:lr-tb;text-anchor:start;fill:#002c78;fill-opacity:1;stroke:none;font-family:Compacta Bd BT;-inkscape-font-specification:Compacta Bd BT Bold Italic" />
        <path
           d="m 370.55859,398.21484 3.48047,0 0.91406,-6.32812 c 0.0469,-0.35153 0.11717,-0.70309 0.21094,-1.05469 0.0234,-0.0703 0.0351,-0.10543 0.0352,-0.10547 -2e-5,-0.63277 -0.12893,-1.07808 -0.38672,-1.33593 -0.25783,-0.25778 -0.69142,-0.38668 -1.30078,-0.38672 -0.56252,4e-5 -0.99611,0.18754 -1.30078,0.5625 -0.28127,0.3516 -0.51564,1.11332 -0.70313,2.28515 l -0.94922,6.36328 m -1.19531,8.19141 -1.72266,11.60156 c -0.0234,0.0938 -0.0469,0.23439 -0.0703,0.42188 -0.0703,0.44532 -0.10548,0.73829 -0.10547,0.8789 -1e-5,0.56251 0.11718,0.97267 0.35156,1.23047 0.23437,0.23439 0.59765,0.35157 1.08985,0.35157 0.65624,0 1.13671,-0.17578 1.4414,-0.52735 0.30468,-0.37499 0.55077,-1.16014 0.73829,-2.35547 l 1.01953,-6.78515 10.51172,0 -0.8086,5.55468 c -0.7969,5.39064 -2.01564,8.77735 -3.65625,10.16016 -1.64064,1.38281 -5.12111,2.07422 -10.4414,2.07422 -4.50001,0 -7.46485,-0.42187 -8.89454,-1.26563 -1.42968,-0.86718 -2.14453,-2.41405 -2.14453,-4.64062 0,-0.70312 0.0586,-1.60546 0.17578,-2.70703 0.0938,-1.12499 0.23438,-2.33202 0.42188,-3.6211 l 3.58594,-23.76562 c 0.84374,-5.50777 2.07421,-8.91792 3.6914,-10.23047 1.64062,-1.33589 5.08593,-2.00386 10.33594,-2.00391 4.54685,5e-5 7.53513,0.45708 8.96484,1.3711 1.42967,0.89067 2.14451,2.49614 2.14454,4.8164 -3e-5,0.60942 -0.0586,1.41801 -0.17579,2.42579 -0.0938,1.00785 -0.25784,2.2266 -0.49218,3.65625 l -2.00391,13.35937 -13.95703,0"
           id="path3659"
           style="font-size:72px;font-style:italic;font-variant:normal;font-weight:bold;font-stretch:normal;text-align:start;line-height:100%;writing-mode:lr-tb;text-anchor:start;fill:#002c78;fill-opacity:1;stroke:none;font-family:Compacta Bd BT;-inkscape-font-specification:Compacta Bd BT Bold Italic" />
        <path
           d="m 387.803,386.75391 41.41407,16.98047 0,6.99609 -41.41407,17.05078 0,-7.69922 31.46485,-12.79687 -31.46485,-12.83203 0,-7.69922"
           id="path3661"
           style="font-size:72px;font-style:italic;font-variant:normal;font-weight:bold;font-stretch:normal;text-align:start;line-height:100%;writing-mode:lr-tb;text-anchor:start;fill:#002c78;fill-opacity:1;stroke:none;font-family:Compacta Bd BT;-inkscape-font-specification:Compacta Bd BT Bold Italic" />
      </g>
    </g>
  </g>
</svg>
