<?xml version="1.0" encoding="UTF-8" standalone="no"?>
<!-- Created with Inkscape (http://www.inkscape.org/) -->

<svg
   xmlns:dc="http://purl.org/dc/elements/1.1/"
   xmlns:cc="http://creativecommons.org/ns#"
   xmlns:rdf="http://www.w3.org/1999/02/22-rdf-syntax-ns#"
   xmlns:svg="http://www.w3.org/2000/svg"
   xmlns="http://www.w3.org/2000/svg"
   version="1.2"
   width="499.0387"
   height="669.41431"
   id="svg2">
  <defs
     id="defs4" />
  <metadata
     id="metadata7">
    <rdf:RDF>
      <cc:Work
         rdf:about="">
        <dc:format>image/svg+xml</dc:format>
        <dc:type
           rdf:resource="http://purl.org/dc/dcmitype/StillImage" />
        <dc:title></dc:title>
      </cc:Work>
    </rdf:RDF>
  </metadata>
  <g
     transform="translate(-115.18972,-169.13253)"
     id="layer1">
    <g
       transform="translate(-2.0203046,18.182745)"
       id="flowRoot2985"
       style="font-size:40px;font-style:normal;font-variant:normal;font-weight:normal;font-stretch:normal;line-height:125%;letter-spacing:0px;word-spacing:0px;fill:#000000;fill-opacity:1;stroke:none;font-family:Keep Calm;-inkscape-font-specification:Keep Calm" />
    <g
       id="g3302"
       style="fill:#9aa423;fill-opacity:1">
      <g
         transform="translate(121.16283,78.791898)"
         id="flowRoot3004"
         style="font-size:40px;font-style:normal;font-variant:normal;font-weight:normal;font-stretch:normal;line-height:125%;letter-spacing:0px;word-spacing:0px;fill:#9aa423;fill-opacity:1;stroke:none;font-family:Keep Calm;-inkscape-font-specification:Keep Calm">
        <path
           d="m 324.97949,160.89209 c -1.8e-4,0.7921 -0.28379,1.47172 -0.85083,2.03888 -0.5674,0.56728 -1.24702,0.85089 -2.03888,0.85083 -0.79567,6e-5 -1.47616,-0.28355 -2.04147,-0.85083 -0.56567,-0.56716 -0.84841,-1.24678 -0.84824,-2.03888 -1.7e-4,-0.79543 0.25404,-1.47678 0.76264,-2.04407 0.50824,-0.56715 1.1602,-0.85076 1.95587,-0.85083 0.79185,7e-5 1.50001,0.28368 2.12448,0.85083 0.62411,0.56729 0.93625,1.24864 0.93643,2.04407 z m -6.46423,-6.63025 c -1.8e-4,0.90624 -0.33999,1.69914 -1.01944,2.37869 -0.6798,0.6797 -1.4727,1.01951 -2.37869,1.01944 -0.90634,7e-5 -1.69924,-0.33974 -2.3787,-1.01944 -0.67979,-0.67955 -1.0196,-1.47245 -1.01944,-2.37869 -1.6e-4,-0.90955 0.33965,-1.70418 1.01944,-2.38388 0.67946,-0.67955 1.47236,-1.01936 2.3787,-1.01944 0.90599,8e-5 1.69889,0.33989 2.37869,1.01944 0.67945,0.6797 1.01926,1.47433 1.01944,2.38388 z m -8.49793,-6.12183 c -1.6e-4,1.02039 -0.33997,1.87035 -1.01944,2.5499 -0.67979,0.6797 -1.47268,1.01952 -2.37869,1.01944 -0.90633,8e-5 -1.72776,-0.33974 -2.46429,-1.01944 -0.73686,-0.67955 -1.1052,-1.52951 -1.10504,-2.5499 -1.6e-4,-0.90608 0.33965,-1.69898 1.01944,-2.37869 0.67946,-0.67954 1.47236,-1.01936 2.37869,-1.01944 0.906,8e-5 1.72743,0.3399 2.46429,1.01944 0.73653,0.67971 1.10488,1.47261 1.10504,2.37869 z m -8.84033,-5.95062 c -1.5e-4,1.13453 -0.3685,2.09863 -1.10504,2.89231 -0.73685,0.79384 -1.67242,1.19072 -2.8067,1.19064 -1.13113,8e-5 -2.09351,-0.3968 -2.88712,-1.19064 -0.79391,-0.79368 -1.19079,-1.75778 -1.19064,-2.89231 -1.5e-4,-1.02022 0.3682,-1.92725 1.10504,-2.7211 0.73655,-0.79367 1.67211,-1.19055 2.8067,-1.19064 1.02015,9e-5 1.95486,0.39697 2.80411,1.19064 0.84895,0.79385 1.2735,1.70088 1.27365,2.7211 z m -9.85718,-5.09979 c -1.4e-4,1.2452 -0.39702,2.29318 -1.19064,3.14392 -0.79391,0.85092 -1.81507,1.27633 -3.06351,1.27625 -1.24525,8e-5 -2.3209,-0.42533 -3.22692,-1.27625 -0.90631,-0.85074 -1.3594,-1.89872 -1.35926,-3.14392 -1.4e-4,-1.24503 0.42441,-2.293 1.27365,-3.14392 0.84896,-0.85074 1.8978,-1.27615 3.14652,-1.27625 1.24497,1e-4 2.29294,0.42551 3.14392,1.27625 0.85068,0.85092 1.2761,1.89889 1.27624,3.14392 z m -11.73004,-4.75739 c -1.3e-4,1.24521 -0.45408,2.32086 -1.36184,3.22693 -0.90804,0.90626 -1.98454,1.35935 -3.22953,1.35926 -1.2487,9e-5 -2.32607,-0.453 -3.23211,-1.35926 -0.9063,-0.90607 -1.35938,-1.98172 -1.35926,-3.22693 -1.2e-4,-1.24848 0.42529,-2.32585 1.27625,-3.23211 0.8507,-0.90607 1.89867,-1.35916 3.14392,-1.35926 1.24844,10e-5 2.35435,0.45319 3.31772,1.35926 0.9631,0.90626 1.44472,1.98363 1.44485,3.23211 z m -12.75207,-3.57452 c -1.2e-4,1.24867 -0.45321,2.35458 -1.35926,3.31772 -0.90628,0.96333 -1.98366,1.44495 -3.23211,1.44485 -1.24524,1e-4 -2.37795,-0.48152 -3.39813,-1.44485 -1.02042,-0.96314 -1.53057,-2.06905 -1.53046,-3.31772 -1.1e-4,-1.24502 0.45297,-2.34919 1.35925,-3.31253 0.90606,-0.96313 2.03877,-1.44475 3.39813,-1.44485 1.24846,1e-4 2.35437,0.48172 3.31772,1.44485 0.96312,0.96334 1.44474,2.06751 1.44486,3.31253 z m 52.69958,37.74262 c -0.11431,0.22487 -0.22758,0.42288 -0.33981,0.59402 -0.11258,0.17126 -0.22585,0.36927 -0.33981,0.59402 -0.5674,0.90623 -0.90808,1.24691 -1.02204,1.02204 l -2.88971,-2.03888 c -8.49808,-6.79966 -17.50702,-12.46666 -27.02682,-17.00104 -9.52009,-4.53422 -19.43692,-8.10528 -29.75052,-10.71319 -1.35937,2.83618 -2.57768,6.12363 -3.65494,9.86236 -1.07748,3.73889 -1.78564,6.85513 -2.12448,9.34876 -0.22838,0.56728 -0.73853,0.85089 -1.53046,0.85083 -0.90627,6e-5 -1.44496,-0.0285 -1.61605,-0.0856 -0.17131,-0.057 -0.19985,-0.31207 -0.0856,-0.76522 0.22817,-1.69814 0.56885,-3.59607 1.02204,-5.69382 0.45298,-2.0976 0.9908,-4.22295 1.61346,-6.37604 0.62245,-2.15293 1.24587,-4.24974 1.87027,-6.29043 0.62418,-2.04052 1.21993,-3.79579 1.78726,-5.26581 6.68547,1.69829 12.7485,3.51062 18.18909,5.43701 5.44034,1.92656 10.56866,4.07957 15.38498,6.45904 4.81603,2.37964 9.4342,4.9866 13.85452,7.8209 4.42001,2.83444 8.95257,6.00862 13.59772,9.52255 z m -64.93805,-67.319341 -0.1712,10.536801 -9.18274,-3.22693 0,6.11664 c 2.38291,0.22839 4.42438,1.36283 6.12442,3.40332 1.69982,2.04072 2.54979,4.30787 2.5499,6.80146 -1.1e-4,2.83274 -1.02042,5.24083 -3.06092,7.22427 -2.04071,1.98363 -4.47733,2.9754 -7.30987,2.97531 -3.06101,9e-5 -5.63944,-0.99168 -7.73529,-2.97531 -2.09604,-1.98344 -3.14401,-4.4486 -3.14392,-7.39548 -9e-5,-2.49358 0.84987,-4.70367 2.54989,-6.63025 1.69984,-1.92636 3.79665,-3.0608 6.29044,-3.40332 l 0,-6.11664 -9.01154,3.22693 -0.50842,-10.536801 8.32672,2.210081 -3.56933,-11.050413 12.91809,0 -3.22693,11.050413 z m -6.97265,40.118711 c -1.1e-4,1.24521 -0.42466,2.29318 -1.27365,3.14392 -0.84921,0.85092 -1.89804,1.27633 -3.14652,1.27625 -1.13108,8e-5 -2.12198,-0.42533 -2.97272,-1.27625 -0.85092,-0.85074 -1.27634,-1.89871 -1.27624,-3.14392 -1e-4,-1.24503 0.42532,-2.293 1.27624,-3.14392 0.85074,-0.85074 1.89871,-1.27615 3.14392,-1.27624 1.13434,9e-5 2.12611,0.45317 2.97532,1.35925 0.84899,0.90626 1.27354,1.92656 1.27365,3.06091 z m -19.03992,-11.05041 c -8e-5,1.24867 -0.45317,2.35458 -1.35925,3.31772 -0.90625,0.96333 -1.98362,1.44494 -3.23212,1.44485 -1.2452,9e-5 -2.3779,-0.48152 -3.39813,-1.44485 -1.02038,-0.96314 -1.53053,-2.06905 -1.53046,-3.31772 -7e-5,-1.24502 0.45301,-2.3492 1.35925,-3.31253 0.9061,-0.96314 2.04054,-1.44475 3.40332,-1.44486 1.24504,1.1e-4 2.34922,0.48172 3.31254,1.44486 0.96315,0.96333 1.44477,2.06751 1.44485,3.31253 z m 18.36029,20.74157 c -1e-4,1.02039 -0.36845,1.87035 -1.10504,2.5499 -0.7368,0.6797 -1.55823,1.01951 -2.4643,1.01944 -0.90626,7e-5 -1.78476,-0.33974 -2.63549,-1.01944 -0.85093,-0.67955 -1.27634,-1.52951 -1.27625,-2.5499 -9e-5,-1.02022 0.39679,-1.87019 1.19064,-2.54989 0.79367,-0.67955 1.64363,-1.01936 2.5499,-1.01944 0.90607,8e-5 1.75603,0.33989 2.5499,1.01944 0.79366,0.6797 1.19054,1.52967 1.19064,2.54989 z m -0.50842,8.16071 c -10e-5,0.90624 -0.31225,1.64207 -0.93643,2.20749 -0.62439,0.56556 -1.33255,0.8483 -2.12449,0.84824 -0.79213,6e-5 -1.52882,-0.28268 -2.21008,-0.84824 -0.68145,-0.56542 -1.02213,-1.30125 -1.02203,-2.20749 -1e-4,-0.79542 0.31205,-1.47591 0.93643,-2.04147 0.62419,-0.56542 1.33235,-0.84817 2.12448,-0.84824 0.79539,7e-5 1.53295,0.28282 2.21268,0.84824 0.67952,0.56556 1.01934,1.24605 1.01944,2.04147 z M 216.0058,131.6474 c -7e-5,1.24867 -0.45316,2.32604 -1.35925,3.23212 -0.90624,0.90626 -1.98188,1.35934 -3.22693,1.35925 -1.24864,9e-5 -2.32602,-0.45299 -3.23212,-1.35925 -0.90623,-0.90608 -1.35932,-1.98345 -1.35925,-3.23212 -7e-5,-1.24502 0.42448,-2.32066 1.27365,-3.22693 0.84903,-0.90607 1.89787,-1.35915 3.14651,-1.35925 1.24505,10e-5 2.34923,0.45318 3.31253,1.35925 0.96317,0.90627 1.44479,1.98191 1.44486,3.22693 z m -12.23847,4.76257 c -6e-5,1.24521 -0.39694,2.29318 -1.19064,3.14392 -0.79382,0.85092 -1.81326,1.27633 -3.05832,1.27625 -1.24863,8e-5 -2.326,-0.42533 -3.23212,-1.27625 -0.90621,-0.85074 -1.3593,-1.89871 -1.35925,-3.14392 -5e-5,-1.24502 0.42537,-2.293 1.27625,-3.14392 0.85077,-0.85073 1.89875,-1.27615 3.14392,-1.27624 1.24852,9e-5 2.29735,0.42551 3.14651,1.27624 0.84904,0.85092 1.27359,1.8989 1.27365,3.14392 z m 33.32245,21.75843 c 0.22472,0.56728 -0.23009,0.85089 -1.36444,0.85083 -0.90626,6e-5 -1.47175,-0.11234 -1.69647,-0.33722 -0.56731,-2.83603 -1.36107,-6.09582 -2.38129,-9.77936 -1.02039,-3.68339 -2.21017,-6.94144 -3.56933,-9.77417 -4.7592,1.02039 -9.60391,2.40904 -14.53415,4.16595 -4.93038,1.75708 -9.77596,3.76916 -14.53675,6.03623 -4.76089,2.26722 -9.32286,4.73238 -13.68591,7.39548 -4.36313,2.66323 -8.30168,5.41113 -11.81564,8.24371 -0.56725,0.45314 -1.19067,0.99183 -1.87027,1.61606 -0.67965,0.62434 -1.24601,1.04889 -1.69907,1.27365 -0.22484,0.11419 -0.59232,-0.19709 -1.10245,-0.93384 -0.51017,-0.73663 -0.70818,-1.21912 -0.59402,-1.44745 0.22479,-0.45302 0.73408,-1.04791 1.52786,-1.78467 0.79374,-0.73663 1.41716,-1.27445 1.87027,-1.61346 4.19187,-3.28566 8.44169,-6.2601 12.74948,-8.92334 4.30772,-2.66309 8.84115,-5.09971 13.60032,-7.30988 4.75905,-2.21 9.8303,-4.22207 15.21377,-6.03622 5.38333,-1.81398 11.30541,-3.51477 17.76627,-5.10239 0.56713,1.35935 1.16202,3.05928 1.78466,5.0998 0.62247,2.04069 1.21736,4.1375 1.78467,6.29043 0.56713,2.15309 1.07728,4.27844 1.53046,6.37604 0.45299,2.09775 0.79367,3.99568 1.02203,5.69382 z m -43.69323,-16.65863 c -5e-5,1.13452 -0.3684,2.09776 -1.10505,2.88971 -0.73674,0.79211 -1.67057,1.18813 -2.80151,1.18804 -1.13448,9e-5 -2.09858,-0.39593 -2.8923,-1.18804 -0.79381,-0.79195 -1.19069,-1.75519 -1.19065,-2.88971 -4e-5,-1.02022 0.36831,-1.92726 1.10504,-2.7211 0.73666,-0.79368 1.67222,-1.19056 2.80671,-1.19065 1.02026,9e-5 1.95496,0.39697 2.8041,1.19065 0.84906,0.79384 1.27361,1.70088 1.27366,2.7211 z m 145.86029,30.59875 c -0.45328,1.13449 -0.9349,2.46694 -1.44486,3.99735 -0.51034,1.5305 -1.04903,3.03242 -1.61606,4.50576 -0.225,0.90622 -0.50775,1.78385 -0.84823,2.63291 -0.34087,0.84914 -0.68068,1.72677 -1.01944,2.6329 0.45289,1.92997 0.48142,3.71637 0.0856,5.35919 -0.39621,1.6429 -0.87782,2.91741 -1.44486,3.82355 -0.22846,0.45312 -0.59767,0.99094 -1.10763,1.61347 -0.51034,0.62258 -1.2185,1.16213 -2.12448,1.61865 l -7.30988,17.16705 c 0.45291,1.4734 0.93453,3.39987 1.44486,5.77942 0.50997,2.37956 0.87918,4.30603 1.10763,5.77942 0.1105,1.47339 -0.23018,2.72023 -1.02203,3.74054 l -9.69116,12.07245 c -5.44064,-2.49371 -11.13531,-4.59052 -17.08405,-6.29044 -5.94904,-1.69994 -11.92732,-3.06005 -17.93487,-4.08035 -6.00782,-1.02031 -11.98611,-1.757 -17.93488,-2.21008 -5.949,-0.45309 -11.70075,-0.67963 -17.25525,-0.67963 -5.32643,0 -11.13438,0.22654 -17.42386,0.67963 -6.28964,0.45308 -12.60774,1.2183 -18.95431,2.29568 -6.3467,1.07737 -12.46679,2.43748 -18.36029,4.08035 -5.8936,1.64285 -11.16459,3.65406 -15.81299,6.03363 -1.13101,-0.90618 -2.34846,-1.95415 -3.65235,-3.14392 -1.30393,-1.18979 -2.57845,-2.29483 -3.82354,-3.31512 l -4.42017,-3.56934 c -0.90964,-0.90617 -1.47686,-1.757 -1.70166,-2.55249 -0.11415,-0.22481 -0.17122,-0.53609 -0.1712,-0.93384 -2e-5,-0.39774 -2e-5,-0.70902 0,-0.93383 -2e-5,-0.56723 0.057,-1.53133 0.1712,-2.89231 0.11412,-1.36098 0.25593,-2.77816 0.42542,-4.25155 0.16945,-1.47339 0.31039,-2.86117 0.42282,-4.16336 0.11239,-1.30218 0.16859,-2.29395 0.16861,-2.97532 l -5.0998,-16.32141 c -0.45309,-0.22478 -0.87764,-0.47899 -1.27365,-0.76263 -0.39602,-0.28358 -0.70817,-0.59486 -0.93643,-0.93384 -1.58407,-1.47336 -2.57498,-3.37216 -2.97272,-5.69641 -0.39775,-2.32418 -0.0294,-4.56193 1.10505,-6.71326 l -3.91175,-11.39282 c 1.70166,-0.56716 4.05441,-1.21912 7.05826,-1.95587 3.00383,-0.73664 5.52433,-1.27446 7.56149,-1.61347 -0.33896,0.90623 -0.79205,2.12454 -1.35925,3.65494 -0.56724,1.53051 -1.16212,3.08864 -1.78467,4.67438 -0.62257,1.58584 -1.13186,3.00216 -1.52786,4.24896 -0.39603,1.24689 -0.59404,1.98445 -0.59402,2.21268 -2e-5,0.56726 0.11239,0.73674 0.33721,0.50842 1.47338,-0.3389 3.20184,-1.38688 5.1854,-3.14392 1.98352,-1.75695 3.48544,-3.31507 4.50577,-4.67438 l 4.24896,21.42121 c -1.24514,-1.02028 -2.54819,-1.81404 -3.90915,-2.38129 -1.361,-0.56719 -2.94766,-1.13441 -4.75998,-1.70166 -0.56724,-0.1141 -1.02119,-0.19884 -1.36185,-0.25421 -0.34069,-0.0553 -0.62344,-0.083 -0.84823,-0.083 0.68134,2.37959 1.55983,4.67441 2.6355,6.88446 1.07562,2.21011 2.43487,4.16511 4.07775,5.86502 1.64284,1.69995 3.54164,3.06007 5.69642,4.08036 2.15471,1.02032 4.59133,1.53047 7.30987,1.53045 2.04057,2e-5 4.05264,-0.34066 6.03623,-1.02203 1.98349,-0.68134 3.79669,-1.64458 5.4396,-2.88971 1.64282,-1.2451 2.94586,-2.80322 3.90915,-4.67438 0.96318,-1.87111 1.4448,-3.93938 1.44485,-6.20483 -5e-5,-2.15472 -0.70821,-4.25153 -2.12448,-6.29044 -1.41637,-2.03884 -3.3143,-3.05828 -5.69381,-3.05832 -2.94682,4e-5 -5.04363,0.85001 -6.29044,2.5499 -1.24688,1.69996 -1.87031,3.90918 -1.87027,6.62765 -4e-5,1.24861 0.16944,2.55252 0.50842,3.91175 -2.83267,-0.45306 -4.84388,-1.92645 -6.03363,-4.42017 -1.18981,-2.49366 -1.78469,-4.98735 -1.78466,-7.48108 -3e-5,-3.96704 1.21828,-7.3669 3.65493,-10.19958 2.43659,-2.83259 5.75085,-4.24891 9.94278,-4.24897 1.58748,6e-5 2.86286,0.2266 3.82614,0.67963 0.96319,0.45314 2.0691,1.13276 3.31772,2.03888 -1.24862,-1.92642 -2.07092,-3.68342 -2.46689,-5.271 -0.39606,-1.58746 -0.59407,-3.51393 -0.59402,-5.77941 -5e-5,-2.3795 0.48157,-4.64578 1.44485,-6.79886 0.96319,-2.15295 2.06737,-4.13735 3.31253,-5.95322 2.94673,2.04068 5.18534,4.3649 6.71586,6.97266 1.53039,2.60789 2.29562,5.72414 2.29568,9.34875 -6e-5,1.24863 -0.14187,2.43928 -0.42541,3.57193 -0.28367,1.13276 -0.59495,2.32168 -0.93384,3.56674 1.35919,-1.3592 2.91731,-2.63371 4.67438,-3.82354 1.75693,-1.18973 3.65573,-1.78462 5.69641,-1.78467 2.83257,5e-5 5.24065,1.18983 7.22427,3.56933 1.98346,2.37961 2.97523,4.93037 2.97531,7.65229 -8e-5,4.53434 -2.15309,8.10367 -6.45904,10.708 0.1106,-0.1141 0.16594,-0.45305 0.16601,-1.01684 -7e-5,-2.04057 -0.6797,-3.8261 -2.03888,-5.3566 -1.35932,-1.53041 -3.17166,-2.29564 -5.43701,-2.29568 -2.26894,4e-5 -3.99827,0.82147 -5.18799,2.46429 -1.18984,1.6429 -1.78473,3.5417 -1.78467,5.69641 -6e-5,2.04064 0.53863,3.85384 1.61606,5.43961 1.07731,1.58582 2.43743,2.94594 4.08036,4.08035 1.64279,1.13446 3.45599,1.98443 5.4396,2.5499 1.98347,0.56551 3.82434,0.84825 5.52261,0.84823 2.26881,2e-5 4.56449,-0.28272 6.88706,-0.84823 2.3224,-0.56547 4.41835,-1.47164 6.28784,-2.71851 1.86931,-1.24682 3.37124,-2.86201 4.50577,-4.84558 1.13434,-1.98351 1.70156,-4.3916 1.70166,-7.22427 -1e-4,-0.56719 -0.0286,-1.04967 -0.0856,-1.44745 -0.0572,-0.39771 -0.14277,-0.87846 -0.25681,-1.44226 -1.58416,0.67793 -3.36796,1.46996 -5.35141,2.37609 -1.98363,0.90621 -3.88329,1.81411 -5.699,2.7237 l -0.67963,-20.74158 c 2.04052,1.35931 3.85459,2.54909 5.4422,3.56934 1.58743,1.02035 3.28736,1.98359 5.09979,2.88971 0.45299,0.22832 0.62247,0.0588 0.50842,-0.50843 -0.79212,-2.83259 -1.66976,-5.38248 -2.6329,-7.64968 -0.96333,-2.2671 -2.01216,-4.70458 -3.14651,-7.31247 l 19.71954,0 c -1.35936,2.94683 -2.4644,5.7518 -3.31513,8.41491 -0.85093,2.66322 -1.55822,4.9027 -2.12188,6.71845 -0.22838,0.67794 -0.11597,0.90449 0.33722,0.67962 1.58742,-0.90957 3.34441,-1.98694 5.27099,-3.23211 1.92637,-1.24507 3.68336,-2.49191 5.271,-3.74054 l -0.51361,20.91278 c -1.81245,-1.02027 -3.51151,-1.89877 -5.0972,-2.6355 -1.5859,-0.73666 -3.34203,-1.55809 -5.2684,-2.46429 l 0,3.05572 c -1.1e-4,5.10155 1.38768,9.01243 4.16336,11.73264 2.77546,2.72025 6.59987,4.08037 11.47323,4.08035 2.04049,2e-5 4.02403,-0.28359 5.95063,-0.85083 1.92634,-0.5672 3.68334,-1.38949 5.27099,-2.46689 1.5874,-1.07735 2.86278,-2.43746 3.82614,-4.08035 0.96311,-1.64283 1.44472,-3.59698 1.44486,-5.86243 -1.4e-4,-1.92644 -0.59502,-3.59783 -1.78467,-5.01419 -1.18991,-1.41628 -2.8051,-2.12444 -4.84558,-2.12448 -1.70179,4e-5 -3.1475,0.79294 -4.33716,2.37869 -1.1899,1.58583 -2.0684,3.00302 -2.6355,4.25156 -1.24523,-1.24854 -2.26467,-2.66573 -3.05832,-4.25156 -0.79387,-1.58575 -1.19076,-3.22948 -1.19064,-4.93118 -1.2e-4,-3.28568 0.82131,-6.06212 2.4643,-8.32932 1.64274,-2.26709 4.27823,-3.40067 7.90649,-3.40072 1.92634,5e-5 3.76808,0.68054 5.52521,2.04147 1.75686,1.36104 3.25792,2.72115 4.50317,4.08035 -0.33908,-2.04055 -0.50856,-4.02409 -0.50842,-5.95062 -1.4e-4,-3.62807 0.84983,-6.85846 2.54989,-9.69116 1.69979,-2.83257 3.85367,-5.2692 6.46164,-7.30988 1.47325,1.81241 2.63449,3.68181 3.48374,5.60822 0.84895,1.92654 1.2735,4.02421 1.27365,6.29303 -1.5e-4,2.49375 -0.3685,4.8733 -1.10504,7.13867 -0.73685,2.26547 -1.72775,4.47555 -2.97272,6.63025 1.24497,-1.13439 2.60422,-2.1547 4.07776,-3.06091 1.47324,-0.90612 3.1161,-1.35921 4.92859,-1.35926 2.94662,5e-5 5.55358,1.1051 7.82089,3.31513 2.26699,2.21013 3.40056,4.78855 3.40073,7.73529 -1.7e-4,1.58756 -0.33998,3.17422 -1.01944,4.75998 -0.67979,1.58583 -1.58596,3.05921 -2.71851,4.42016 -1.13287,1.36102 -2.40825,2.57933 -3.82614,3.65494 -1.41821,1.07567 -2.86393,1.84003 -4.33716,2.29309 0.6812,-0.792 1.16368,-1.92471 1.44745,-3.39813 0.28345,-1.47336 0.42526,-2.66314 0.42542,-3.56934 -1.6e-4,-3.96704 -1.9837,-5.95058 -5.95063,-5.95062 -2.3797,4e-5 -4.1367,1.13361 -5.27099,3.40073 -1.13459,2.26718 -1.70181,4.42106 -1.70166,6.46164 -1.5e-4,4.30605 1.19049,7.36523 3.57193,9.17755 2.38113,1.81235 5.38411,3.1716 9.00894,4.07776 1.58736,0.56723 3.17489,0.73844 4.76257,0.51361 5.55098,-0.22826 9.68667,-1.90052 12.40708,-5.01679 2.72005,-3.11623 4.87393,-7.90473 6.46163,-14.36554 -2.15492,0.79553 -4.19552,1.53309 -6.12182,2.21268 -1.92665,0.67966 -3.90846,1.58496 -5.94544,2.71591 0.906,-3.28569 1.89691,-7.05303 2.97272,-11.30203 1.07547,-4.24892 2.06638,-7.90385 2.97272,-10.96481 1.2484,1.47344 2.55231,2.94682 3.91174,4.42016 1.35908,1.47344 2.77539,2.83269 4.24896,4.07776 0.56704,0.56726 0.85065,0.34072 0.85083,-0.67962 l -0.50842,-5.60822 c -0.22845,-1.58747 -0.42732,-3.14646 -0.59662,-4.67697 -0.16965,-1.5304 -0.36853,-2.86112 -0.59662,-3.99216 2.49351,0.33901 4.90247,0.76356 7.22687,1.27365 2.32403,0.51021 4.39231,1.1613 6.20484,1.95328 z M 183.53937,147.46039 c -4e-5,1.02038 -0.34072,1.87035 -1.02204,2.54989 -0.68139,0.67971 -1.47515,1.01952 -2.38128,1.01944 -0.90621,8e-5 -1.72764,-0.33973 -2.4643,-1.01944 -0.73672,-0.67954 -1.10507,-1.52951 -1.10504,-2.54989 -3e-5,-0.90609 0.33978,-1.69899 1.01944,-2.37869 0.67959,-0.67955 1.47422,-1.01936 2.38388,-1.01944 0.90613,8e-5 1.72756,0.33989 2.4643,1.01944 0.73665,0.6797 1.105,1.4726 1.10504,2.37869 z m -8.33191,6.12182 c -3e-5,0.90624 -0.33985,1.69914 -1.01944,2.3787 -0.67966,0.67969 -1.47255,1.01951 -2.37869,1.01944 -0.9062,7e-5 -1.69996,-0.33975 -2.38129,-1.01944 -0.68138,-0.67956 -1.02206,-1.47246 -1.02203,-2.3787 -3e-5,-0.90955 0.31212,-1.70418 0.93643,-2.38388 0.62426,-0.67955 1.38949,-1.01936 2.29568,-1.01944 0.90614,8e-5 1.72757,0.33989 2.4643,1.01944 0.73666,0.6797 1.10501,1.47433 1.10504,2.38388 z m -7.13867,6.62507 c -3e-5,0.79555 -0.28364,1.47691 -0.85083,2.04406 -0.56725,0.56729 -1.24687,0.8509 -2.03888,0.85083 -0.79551,7e-5 -1.476,-0.28354 -2.04148,-0.85083 -0.56551,-0.56715 -0.84825,-1.24851 -0.84823,-2.04406 -2e-5,-0.79197 0.25506,-1.4716 0.76523,-2.03888 0.51013,-0.56716 1.16122,-0.85076 1.95327,-0.85083 0.79202,7e-5 1.50017,0.28367 2.12448,0.85083 0.62427,0.56728 0.93641,1.24691 0.93644,2.03888 z m 140.92651,85.51361 c -1.6e-4,0.90614 -0.73686,1.58577 -2.21008,2.03888 -9.74666,3.73878 -19.29427,6.20307 -28.64289,7.39288 -9.34888,1.18975 -19.46371,1.78464 -30.34454,1.78467 -12.12615,-3e-5 -23.65731,-0.65113 -34.59351,-1.95328 -10.93633,-1.30221 -22.07147,-3.87978 -33.40545,-7.7327 -1.24861,-0.34242 -1.8729,-0.85258 -1.87287,-1.53045 -3e-5,-0.56724 0.56719,-1.07739 1.70166,-1.53046 4.75908,-1.92649 9.85887,-3.54168 15.29938,-4.84558 5.44042,-1.30393 10.99415,-2.38043 16.66123,-3.22952 5.66694,-0.84911 11.27688,-1.47254 16.82983,-1.87027 5.55279,-0.39776 10.82291,-0.59663 15.81039,-0.59662 4.5342,-1e-5 9.49218,0.17033 14.87397,0.51101 5.38155,0.34067 10.82115,0.90789 16.31881,1.70166 5.49741,0.79376 10.93787,1.84173 16.32142,3.14393 5.38325,1.30217 10.28502,2.86116 14.70535,4.67697 1.69804,0.56374 2.54714,1.24337 2.5473,2.03888 z m 22.95166,-57.11975 c -1.9e-4,-0.45305 -0.0849,-0.93467 -0.25421,-1.44486 -0.16966,-0.51011 -0.53801,-0.76519 -1.10504,-0.76523 -0.56741,4e-5 -1.07756,0.25512 -1.53046,0.76523 -0.45327,0.51019 -0.85015,1.10508 -1.19064,1.78467 -0.34086,0.67966 -0.59594,1.38782 -0.76523,2.12448 -0.16966,0.73673 -0.25439,1.33162 -0.25421,1.78467 -1.8e-4,0.45312 0.0845,0.93473 0.25421,1.44485 0.16929,0.51019 0.53764,0.76526 1.10504,0.76523 0.56704,3e-5 1.07719,-0.25504 1.53046,-0.76523 0.4529,-0.51012 0.84978,-1.10501 1.19064,-1.78467 0.34049,-0.67959 0.59557,-1.38775 0.76523,-2.12448 0.16929,-0.73665 0.25402,-1.33154 0.25421,-1.78466 z M 250.5163,121.2818 c -0.22492,-1.36261 -0.81895,-2.49704 -1.78208,-3.40332 -0.96334,-0.90606 -2.12631,-1.64275 -3.48892,-2.21008 -0.11078,0.22838 -0.13845,0.68233 -0.083,1.36184 0.0552,0.67974 0.0829,1.47263 0.083,2.3787 l 0,3.23211 c 1.81569,0.22492 3.57269,-0.22817 5.271,-1.35925 z m -8.84034,1.35925 -0.16601,-6.97265 c -2.94687,0.90627 -4.81801,2.83275 -5.6134,5.77941 1.47329,0.7956 3.39976,1.19335 5.77941,1.19324 z m 7.82349,4.07776 c -1.58763,-1.0202 -3.62823,-1.53035 -6.12183,-1.53046 -1.0204,1.1e-4 -2.0969,0.11338 -3.22952,0.33982 -1.1328,0.22664 -2.15224,0.62352 -3.05832,1.19064 0.67781,1.13454 1.69725,1.95684 3.05832,2.46689 1.36089,0.51025 2.49446,0.76532 3.40073,0.76523 0.90607,9e-5 1.98257,-0.31205 3.22952,-0.93643 1.24674,-0.62419 2.15378,-1.38942 2.7211,-2.29569 z m 72.24793,100.81299 c -1.8e-4,-0.56722 -0.19819,-1.55899 -0.59403,-2.97531 -0.39619,-1.41632 -0.82074,-2.57929 -1.27365,-3.48892 l -5.271,5.27099 3.22693,6.97266 c 0.68118,-1.02031 1.50348,-2.09768 2.46689,-3.23212 0.96306,-1.13444 1.44468,-1.98354 1.44486,-2.5473 z m -14.79096,-7.65228 c -1.6e-4,-0.90616 -0.33997,-1.67139 -1.01944,-2.29569 -0.67979,-0.62428 -1.47268,-0.93642 -2.37869,-0.93643 -2.1549,1e-5 -3.23227,1.07738 -3.23212,3.23212 -1.5e-4,0.90617 0.33966,1.69907 1.01944,2.37869 0.67947,0.67963 1.4741,1.01944 2.38388,1.01944 0.90601,0 1.67037,-0.33981 2.29309,-1.01944 0.6224,-0.67962 0.93368,-1.47252 0.93384,-2.37869 z m -2.7185,9.18274 c -1.6e-4,-0.90963 -0.36851,-1.70426 -1.10505,-2.38388 -0.73685,-0.67963 -1.55828,-1.01944 -2.46429,-1.01944 -0.90632,0 -1.70009,0.33981 -2.38129,1.01944 -0.68151,0.67962 -1.02218,1.47425 -1.02203,2.38388 -1.5e-4,0.90616 0.36819,1.69906 1.10504,2.37869 0.73654,0.67962 1.5597,1.01943 2.46948,1.01944 0.90601,-1e-5 1.69891,-0.33982 2.3787,-1.01944 0.67946,-0.67963 1.01928,-1.47253 1.01944,-2.37869 z m -12.9181,-8.67432 c 0.33881,-2.26541 -0.39875,-4.30516 -2.21267,-6.11923 -1.81421,-1.81406 -4.19463,-3.00297 -7.14127,-3.56674 -2.94691,-0.45307 -5.58154,-0.0847 -7.9039,1.10504 -2.32262,1.18979 -3.65333,2.91739 -3.99216,5.1828 -0.34253,2.15475 0.3933,4.13829 2.20749,5.95062 1.81394,1.81234 4.19436,3.00212 7.14127,3.56934 2.94664,0.56722 5.58127,0.2274 7.9039,-1.01944 2.32234,-1.24685 3.65479,-2.94764 3.99734,-5.10239 z m -45.05249,-38.58826 c -10e-5,-0.79198 -0.28371,-1.47161 -0.85083,-2.03888 -0.56732,-0.56717 -1.30401,-0.85078 -2.21008,-0.85083 -0.79213,5e-5 -1.44322,0.28366 -1.95328,0.85083 -0.51025,0.56727 -0.76532,1.2469 -0.76522,2.03888 -1e-4,0.79208 0.28351,1.47171 0.85083,2.03888 0.56712,0.56726 1.24674,0.85087 2.03887,0.85083 0.79194,4e-5 1.47156,-0.28357 2.03888,-0.85083 0.56712,-0.56717 0.85073,-1.2468 0.85083,-2.03888 z m 17.00104,30.94116 c -1.2e-4,-0.90615 -0.33993,-1.67138 -1.01944,-2.29568 -0.67974,-0.62427 -1.47437,-0.93641 -2.38388,-0.93643 -2.1514,2e-5 -3.22704,1.07739 -3.22693,3.23211 -1.1e-4,0.90619 0.3397,1.69908 1.01944,2.3787 0.67951,0.67963 1.47241,1.01945 2.37869,1.01944 0.90606,1e-5 1.67128,-0.33981 2.29569,-1.01944 0.62417,-0.67962 0.93631,-1.47251 0.93643,-2.3787 z m -1.02203,9.51996 c -1.2e-4,-0.90616 -0.36847,-1.69992 -1.10504,-2.38128 -0.73681,-0.68135 -1.55824,-1.02203 -2.4643,-1.02204 -1.02042,1e-5 -1.84185,0.34069 -2.46429,1.02204 -0.62267,0.68136 -0.93395,1.47512 -0.93384,2.38128 -1.1e-4,1.02031 0.3397,1.87028 1.01944,2.5499 0.67951,0.67963 1.47241,1.01944 2.37869,1.01944 1.02019,0 1.87016,-0.33981 2.5499,-1.01944 0.67951,-0.67962 1.01932,-1.52959 1.01944,-2.5499 z m -13.76892,-7.48108 -2.38129,-3.74054 c -0.56732,-0.90615 -1.16221,-1.78465 -1.78467,-2.63549 -0.62266,-0.85081 -1.04807,-1.27623 -1.27624,-1.27625 -0.33905,2e-5 -0.79213,0.42544 -1.35926,1.27625 -0.56731,0.85084 -1.1328,1.72934 -1.69647,2.63549 l -2.04407,3.74054 2.21009,3.91175 c 0.56712,1.02031 1.13434,1.92648 1.70166,2.7185 0.56712,0.79204 1.0202,1.18806 1.35925,1.18805 0.34231,1e-5 0.79626,-0.39601 1.36185,-1.18805 0.56539,-0.79202 1.13174,-1.69819 1.69906,-2.7185 z m -19.21112,-2.03888 c -9e-5,-0.90615 -0.3399,-1.67138 -1.01944,-2.29568 -0.67971,-0.62427 -1.47261,-0.93641 -2.3787,-0.93643 -2.15482,2e-5 -3.23219,1.07739 -3.23211,3.23211 -8e-5,0.90619 0.33973,1.69908 1.01944,2.3787 0.67954,0.67963 1.47417,1.01945 2.38388,1.01944 0.90608,1e-5 1.67045,-0.33981 2.29309,-1.01944 0.62247,-0.67962 0.93375,-1.47251 0.93384,-2.3787 z m 1.19323,9.69117 c -8e-5,-0.90963 -0.36843,-1.70425 -1.10504,-2.38388 -0.73678,-0.67962 -1.55994,-1.01944 -2.46948,-1.01944 -0.90625,0 -1.69915,0.33982 -2.37869,1.01944 -0.67971,0.67963 -1.01952,1.47425 -1.01944,2.38388 -8e-5,1.01685 0.36827,1.86595 1.10504,2.5473 0.73661,0.68136 1.55804,1.02203 2.46429,1.02203 0.90609,0 1.69985,-0.34067 2.38129,-1.02203 0.68127,-0.68135 1.02195,-1.53045 1.02203,-2.5473 z m -15.47058,-5.61341 c -0.34247,-2.15127 -1.64639,-3.85033 -3.91174,-5.09719 -2.26549,-1.24684 -4.87158,-1.58665 -7.8183,-1.01944 -2.94683,0.45309 -5.32725,1.61434 -7.14126,3.48373 -1.81412,1.86942 -2.55168,3.88149 -2.21268,6.03622 0.34236,2.26543 1.64713,3.99303 3.91434,5.1828 2.26709,1.18978 4.87232,1.55813 7.8157,1.10505 2.94671,-0.56722 5.35567,-1.757 7.22687,-3.56934 1.87106,-1.81233 2.58009,-3.85294 2.12707,-6.12183 z m -56.61133,-24.64813 c -1e-5,-0.45305 -0.11328,-1.04794 -0.33981,-1.78467 -0.22655,-0.73665 -0.51016,-1.44481 -0.85083,-2.12448 -0.34069,-0.67959 -0.7661,-1.27447 -1.27624,-1.78467 -0.51017,-0.51011 -0.99178,-0.76518 -1.44486,-0.76522 -0.56723,4e-5 -0.90704,0.33985 -1.01944,1.01944 -0.11241,0.67966 -0.16862,1.24602 -0.16861,1.69906 -1e-5,0.45312 0.0847,1.01948 0.25421,1.69907 0.16947,0.67966 0.42454,1.35929 0.76523,2.03888 0.34067,0.67966 0.73755,1.24688 1.19065,1.70166 0.45307,0.45484 0.96322,0.68225 1.53045,0.68222 0.56721,3e-5 0.93556,-0.28358 1.10504,-0.85083 0.16946,-0.56719 0.2542,-1.07734 0.25421,-1.53046 z m 25.16175,28.21747 c -4e-5,-0.90616 -0.34072,-1.69906 -1.02204,-2.37869 -0.68139,-0.67962 -1.47515,-1.01943 -2.38128,-1.01944 -0.90621,1e-5 -1.67057,0.33982 -2.29309,1.01944 -0.62259,0.67963 -0.93387,1.47253 -0.93384,2.37869 -3e-5,0.90617 0.33978,1.6714 1.01944,2.29568 0.67959,0.6243 1.47249,0.93644 2.37869,0.93644 2.15471,0 3.23208,-1.07737 3.23212,-3.23212 z m 3.39813,9.01154 c -4e-5,-0.90618 -0.36839,-1.69907 -1.10504,-2.3787 -0.73674,-0.67962 -1.55817,-1.01944 -2.4643,-1.01944 -0.9062,0 -1.6991,0.33982 -2.37869,1.01944 -0.67966,0.67963 -1.01947,1.47252 -1.01944,2.3787 -3e-5,0.90616 0.36745,1.69906 1.10245,2.37869 0.73493,0.67962 1.55722,1.01943 2.46689,1.01944 0.90613,-1e-5 1.69902,-0.33982 2.37869,-1.01944 0.67958,-0.67963 1.0194,-1.47253 1.01944,-2.37869 z m -17.33826,-3.06092 -5.6134,-4.59137 c -0.22483,1.24858 -0.42284,2.66577 -0.59402,4.25156 -0.17123,1.58579 -0.25683,2.49283 -0.25681,2.7211 -2e-5,0.56722 0.70901,1.44571 2.12707,2.6355 1.41803,1.18977 2.69255,2.23774 3.82355,3.14392 0.34238,-1.02031 0.51359,-2.60611 0.51361,-4.75739 z"
           id="path3226"
           style="font-size:170px;fill:#9aa423;fill-opacity:1;-inkscape-font-specification:Keep Calm" />
      </g>
      <g
         transform="translate(1.010153,13.131982)"
         id="flowRoot3012"
         style="font-size:40px;font-style:normal;font-variant:normal;font-weight:normal;font-stretch:normal;line-height:114.99999762%;letter-spacing:0px;word-spacing:0px;fill:#9aa423;fill-opacity:1;stroke:none;font-family:Keep Calm;-inkscape-font-specification:Keep Calm">
        <path
           d="m 306.21448,425.21484 -20.19959,0 -32.00073,-35.40039 0,35.40039 -15.49988,0 0,-79.99878 15.49988,0 0,35.69947 32.70264,-35.69947 18.39904,0 -36.09924,39.29749 z"
           id="path3229"
           style="font-size:100px;text-align:center;line-height:114.99999762%;text-anchor:middle;fill:#9aa423;fill-opacity:1" />
        <path
           d="m 365.92517,425.21484 -52.80151,0 0,-79.90112 52.80151,0 0,12.80212 -37.60071,0 0,19.0979 37.10022,0 0,12.5 -37.10022,0 0,22.00013 37.60071,0 z"
           id="path3231"
           style="font-size:100px;text-align:center;line-height:114.99999762%;text-anchor:middle;fill:#9aa423;fill-opacity:1" />
        <path
           d="m 430.76892,425.21484 -52.80151,0 0,-79.90112 52.80151,0 0,12.80212 -37.60071,0 0,19.0979 37.10022,0 0,12.5 -37.10022,0 0,22.00013 37.60071,0 z"
           id="path3233"
           style="font-size:100px;text-align:center;line-height:114.99999762%;text-anchor:middle;fill:#9aa423;fill-opacity:1" />
        <path
           d="m 498.81396,372.11426 c -6e-5,3.8005 -0.71722,7.35071 -2.15148,10.65063 -1.43439,3.30001 -3.38446,6.16662 -5.85022,8.59985 -2.46588,2.4333 -5.36555,4.33353 -8.69904,5.70069 -3.33358,1.36721 -6.867,2.05081 -10.60028,2.05078 l -13.2019,0 0,26.09863 -15.49988,0 0,-79.90112 28.70178,0 c 3.73328,8e-5 7.2667,0.68367 10.60028,2.05078 3.33349,1.36726 6.23316,3.25071 8.69904,5.65033 2.46576,2.39977 4.41583,5.23281 5.85022,8.49915 1.43426,3.26645 2.15142,6.79988 2.15148,10.60028 z m -15.40222,-0.19837 c -5e-5,-2.067 -0.38304,-4.0008 -1.14898,-5.80139 -0.76604,-1.80048 -1.81585,-3.36704 -3.14942,-4.69971 -1.33366,-1.33253 -2.90073,-2.39912 -4.70123,-3.19977 -1.80058,-0.80051 -3.73335,-1.20079 -5.79834,-1.20086 l -10.30273,0 0,30.20019 10.30273,0 c 2.06499,4e-5 3.99776,-0.41652 5.79834,-1.24969 1.8005,-0.83309 3.36757,-1.94952 4.70123,-3.34931 1.33357,-1.39969 2.38338,-3.01661 3.14942,-4.85076 0.76594,-1.83406 1.14893,-3.78362 1.14898,-5.8487 z"
           id="path3235"
           style="font-size:100px;text-align:center;line-height:114.99999762%;text-anchor:middle;fill:#9aa423;fill-opacity:1" />
        <path
           d="m 283.00586,525.8136 c -3.99992,4.86654 -8.85017,8.73362 -14.55078,11.60125 -5.70075,2.86764 -11.98431,4.30146 -18.85071,4.30146 -5.93266,0 -11.49906,-1.08338 -16.69922,-3.25013 -5.20022,-2.16674 -9.7336,-5.11677 -13.60016,-8.85009 -3.86659,-3.73331 -6.91682,-8.11664 -9.15069,-13.15003 -2.2339,-5.03333 -3.35084,-10.4502 -3.35083,-16.25061 -1e-5,-5.80033 1.11693,-11.21719 3.35083,-16.25061 2.23387,-5.0333 5.2841,-9.43342 9.15069,-13.20038 3.86656,-3.76681 8.39994,-6.71684 13.60016,-8.85009 5.20016,-2.1331 10.76656,-3.19969 16.69922,-3.19977 6.8664,8e-5 13.14996,1.43339 18.85071,4.29992 5.70061,2.8667 10.45016,6.60001 14.24866,11.19996 l -10.69947,11.00158 c -2.46589,-3.60101 -5.64887,-6.46814 -9.54895,-8.60138 -3.9002,-2.13311 -8.18385,-3.1997 -12.85095,-3.19976 -3.73336,6e-5 -7.25,0.71672 -10.54993,2.14996 -3.3,1.43337 -6.1834,3.36666 -8.6502,5.79986 -2.46687,2.43333 -4.41694,5.26688 -5.85022,8.50068 -1.43333,3.23389 -2.14999,6.6839 -2.14997,10.35003 -2e-5,3.59908 0.71664,7.01552 2.14997,10.24933 1.43328,3.23387 3.38335,6.06743 5.85022,8.50067 2.4668,2.43329 5.3502,4.36658 8.6502,5.79987 3.29993,1.43332 6.81657,2.14997 10.54993,2.14996 5.00076,10e-6 9.3841,-1.11693 13.15002,-3.35083 3.76581,-2.23387 6.91624,-5.1839 9.4513,-8.8501 z"
           id="path3237"
           style="font-size:100px;text-align:center;line-height:114.99999762%;text-anchor:middle;fill:#9aa423;fill-opacity:1" />
        <path
           d="m 371.75403,540.21484 -16.99829,0 -7.40052,-16.00036 -38.80004,0 -7.50122,16.00036 -16.9983,0 37.79908,-79.99878 12.10022,0 z M 341.25476,511.3147 327.9552,482.51526 314.45422,511.3147 z"
           id="path3239"
           style="font-size:100px;text-align:center;line-height:114.99999762%;text-anchor:middle;fill:#9aa423;fill-opacity:1" />
        <path
           d="m 433.82678,540.21484 -54.10156,0 0,-79.90112 15.802,0 0,64.90173 38.29956,0 z"
           id="path3241"
           style="font-size:100px;text-align:center;line-height:114.99999762%;text-anchor:middle;fill:#9aa423;fill-opacity:1" />
        <path
           d="m 522.61157,540.21484 -15.19775,0 0,-53.39966 -25.20142,42.49878 -24.20044,-42.89856 0,53.79944 -15.2008,0 0,-79.99878 17.50183,0 22.19848,39.69727 23.20252,-39.69727 16.89758,0 z"
           id="path3243"
           style="font-size:100px;text-align:center;line-height:114.99999762%;text-anchor:middle;fill:#9aa423;fill-opacity:1" />
        <path
           d="m 347.49756,607.32812 -8.15918,0 -3.55225,-7.68017 -18.62402,0 -3.60059,7.68017 -8.15918,0 18.14356,-38.39941 5.8081,0 z m -14.63965,-13.87207 -6.38379,-13.82373 -6.48047,13.82373 z"
           id="path3245"
           style="font-size:48px;text-align:center;line-height:114.99999762%;text-anchor:middle;fill:#9aa423;fill-opacity:1" />
        <path
           d="m 383.24414,607.32812 -7.29639,0 -17.32763,-26.92822 0,26.92822 -7.29639,0 0,-38.39941 8.35254,0 16.27148,25.05469 0,-25.05469 7.29639,0 z"
           id="path3247"
           style="font-size:48px;text-align:center;line-height:114.99999762%;text-anchor:middle;fill:#9aa423;fill-opacity:1" />
        <path
           d="m 424.54541,588.12842 c -4e-5,2.65626 -0.44804,5.1443 -1.34399,7.46411 -0.89604,2.31983 -2.14384,4.35181 -3.74341,6.09595 -1.59964,1.74414 -3.51151,3.12012 -5.7356,4.12793 -2.22414,1.00781 -4.64821,1.51171 -7.27221,1.51171 l -16.03272,0 0,-38.39941 16.03272,0 c 2.624,4e-5 5.04807,0.50394 7.27221,1.51172 2.22409,1.00785 4.13596,2.38382 5.7356,4.12793 1.59957,1.74417 2.84737,3.78421 3.74341,6.12012 0.89595,2.33596 1.34395,4.81594 1.34399,7.43994 z m -7.53516,-0.1919 c -3e-5,-1.63181 -0.32815,-3.23972 -0.98437,-4.82373 -0.65628,-1.58396 -1.55228,-2.99216 -2.68799,-4.22461 -1.13577,-1.23239 -2.47976,-2.22458 -4.03198,-2.97656 -1.55227,-0.75192 -3.20827,-1.1279 -4.96802,-1.12793 l -6.48047,0 0,26.20898 6.48047,0 c 1.75975,10e-6 3.41575,-0.35204 4.96802,-1.05615 1.55222,-0.70409 2.89621,-1.65624 4.03198,-2.85644 1.13571,-1.20019 2.03171,-2.59228 2.68799,-4.17627 0.65622,-1.58397 0.98434,-3.23973 0.98437,-4.96729 z"
           id="path3249"
           style="font-size:48px;text-align:center;line-height:114.99999762%;text-anchor:middle;fill:#9aa423;fill-opacity:1" />
        <path
           d="m 236.72595,710.41485 -52.80151,0 0,-79.90112 52.80151,0 0,12.80213 -37.60071,0 0,19.0979 37.10022,0 0,12.5 -37.10022,0 0,22.00012 37.60071,0 z"
           id="path3251"
           style="font-size:100px;text-align:center;line-height:114.99999762%;text-anchor:middle;fill:#9aa423;fill-opacity:1" />
        <path
           d="m 315.26904,710.41485 -15.2008,0 -36.09925,-56.10046 0,56.10046 -15.2008,0 0,-79.99878 17.40112,0 33.89893,52.19727 0,-52.19727 15.2008,0 z"
           id="path3253"
           style="font-size:100px;text-align:center;line-height:114.99999762%;text-anchor:middle;fill:#9aa423;fill-opacity:1" />
        <path
           d="m 374.31445,683.61432 c -5e-5,5.3996 -0.95016,9.89941 -2.85034,13.49945 -1.90027,3.60006 -4.21706,6.50025 -6.95038,8.70056 -2.73339,2.20032 -5.64985,3.76739 -8.74939,4.70123 -3.0996,0.93384 -5.88229,1.40076 -8.34808,1.40076 -4.60004,0 -8.91674,-1.05031 -12.95013,-3.15094 -4.03342,-2.10062 -7.45088,-4.95045 -10.25238,-8.5495 l 10.20202,-10.10132 c 1.33259,2.13422 3.06548,3.80098 5.19867,5.00031 2.13316,1.19935 4.33297,1.79902 6.59943,1.79901 1.53399,1e-5 3.03443,-0.28329 4.50134,-0.84992 1.46685,-0.56659 2.78368,-1.38294 3.9505,-2.44903 1.16676,-1.06607 2.10008,-2.36611 2.79999,-3.90015 0.69983,-1.53399 1.04977,-3.30096 1.0498,-5.3009 l 0,-53.90015 15.79895,0 z"
           id="path3255"
           style="font-size:100px;text-align:center;line-height:114.99999762%;text-anchor:middle;fill:#9aa423;fill-opacity:1" />
        <path
           d="m 470.12134,670.41546 c -9e-5,5.73327 -1.11653,11.13335 -3.34931,16.20026 -2.23295,5.06695 -5.28267,9.46708 -9.14917,13.20038 -3.86665,3.73332 -8.36646,6.68335 -13.49945,8.8501 -5.13311,2.16674 -10.59982,3.25012 -16.40014,3.25012 -5.80042,0 -11.28391,-1.08338 -16.4505,-3.25012 -5.16666,-2.16675 -9.68325,-5.11678 -13.54981,-8.8501 -3.86659,-3.7333 -6.91682,-8.11664 -9.15069,-13.15003 -2.2339,-5.03333 -3.35084,-10.4502 -3.35083,-16.25061 -10e-6,-5.80032 1.11693,-11.23397 3.35083,-16.30096 2.23387,-5.06687 5.2841,-9.467 9.15069,-13.20038 3.86656,-3.73324 8.38315,-6.66649 13.54981,-8.79974 5.16659,-2.1331 10.65008,-3.19969 16.4505,-3.19977 5.80032,8e-5 11.26703,1.06667 16.40014,3.19977 5.13299,2.13325 9.6328,5.08328 13.49945,8.8501 3.8665,3.76695 6.91622,8.16707 9.14917,13.20037 2.23278,5.03342 3.34922,10.45029 3.34931,16.25061 z m -15.59754,0 c -7e-5,-3.66613 -0.70045,-7.11614 -2.10113,-10.35003 -1.40083,-3.23379 -3.31784,-6.06735 -5.75104,-8.50067 -2.43333,-2.43321 -5.28316,-4.3665 -8.5495,-5.79987 -3.26645,-1.43324 -6.73274,-2.1499 -10.39886,-2.14996 -3.73336,6e-5 -7.23322,0.71672 -10.49958,2.14996 -3.26643,1.43337 -6.11677,3.36666 -8.55102,5.79987 -2.43431,2.43332 -4.35132,5.26688 -5.75104,8.50067 -1.39976,3.23389 -2.09963,6.6839 -2.09961,10.35003 -2e-5,3.59908 0.69985,7.0323 2.09961,10.29969 1.39972,3.26744 3.31673,6.11778 5.75104,8.55102 2.43425,2.43329 5.28459,4.36658 8.55102,5.79987 3.26636,1.43332 6.76622,2.14997 10.49958,2.14996 3.66612,10e-6 7.13241,-0.71664 10.39886,-2.14996 3.26634,-1.43329 6.11617,-3.36658 8.5495,-5.79987 2.4332,-2.43324 4.35021,-5.28358 5.75104,-8.55102 1.40068,-3.26739 2.10106,-6.70061 2.10113,-10.29969 z"
           id="path3257"
           style="font-size:100px;text-align:center;line-height:114.99999762%;text-anchor:middle;fill:#9aa423;fill-opacity:1" />
        <path
           d="m 554.86865,630.51373 -32.60193,47.20154 0,32.80029 -15.69824,0 0,-33.00171 -30.89905,-47.00012 17.99927,0 20.80078,33.59985 21.698,-33.59985 z"
           id="path3259"
           style="font-size:100px;text-align:center;line-height:114.99999762%;text-anchor:middle;fill:#9aa423;fill-opacity:1" />
        <path
           d="m 174.07947,759.31378 -22.10083,0 0,66.10107 -15.69824,0 0,-66.10107 -22.10083,0 0,-13.80005 59.8999,0 z"
           id="path3261"
           style="font-size:100px;text-align:center;line-height:114.99999762%;text-anchor:middle;fill:#9aa423;fill-opacity:1" />
        <path
           d="m 246.52209,825.41485 -15.49987,0 0,-35.40039 -31.50025,0 0,35.40039 -15.49988,0 0,-79.90112 15.49988,0 0,31.70166 31.50025,0 0,-31.70166 15.49987,0 z"
           id="path3263"
           style="font-size:100px;text-align:center;line-height:114.99999762%;text-anchor:middle;fill:#9aa423;fill-opacity:1" />
        <path
           d="m 314.36267,825.41485 -52.80151,0 0,-79.90112 52.80151,0 0,12.80213 -37.60071,0 0,19.0979 37.10022,0 0,12.5 -37.10022,0 0,22.00012 37.60071,0 z"
           id="path3265"
           style="line-height:114.99999762%;fill:#9aa423;fill-opacity:1" />
        <path
           d="m 418.05225,825.41485 -17.10205,0 -5.69764,-18.20068 c -0.60022,-1.9999 -1.33366,-3.83299 -2.20031,-5.49927 -0.86675,-1.66623 -1.95012,-3.09954 -3.25013,-4.29992 -1.30008,-1.20033 -2.83359,-2.13366 -4.60052,-2.79999 -1.767,-0.66627 -3.85084,-0.99942 -6.25153,-0.99945 l -5.79834,0 0,31.79931 -15.30151,0 0,-79.90112 31.60095,-0.0977 c 3.39962,8e-5 6.56632,0.58297 9.50012,1.74866 2.93371,1.16585 5.46717,2.78226 7.60041,4.84925 2.13312,2.06712 3.79988,4.5009 5.0003,7.30133 1.2003,2.80056 1.80048,5.83349 1.80054,9.09881 -6e-5,2.33363 -0.36678,4.60058 -1.10016,6.80084 -0.7335,2.20037 -1.76703,4.23386 -3.10059,6.10047 -1.33367,1.8667 -2.91702,3.51668 -4.75006,4.94995 -1.83314,1.43335 -3.85035,2.51621 -6.05163,3.2486 2.53494,0.93387 4.6025,2.28427 6.2027,4.0512 1.60008,1.767 2.86605,3.88339 3.79791,6.34919 0.93378,2.26646 1.80047,4.56646 2.6001,6.90002 0.79949,2.33359 1.79945,5.26735 2.99987,8.80127 0.7344,2.19931 1.41799,4.08224 2.05078,5.6488 0.63267,1.56658 1.31626,2.95004 2.05079,4.15039 z m -20.3003,-55.89904 c -4e-5,-1.86762 -0.34998,-3.56796 -1.0498,-5.10102 -0.69992,-1.53293 -1.65003,-2.86604 -2.85034,-3.99933 -1.2004,-1.13315 -2.61744,-2.01663 -4.2511,-2.65045 -1.63375,-0.63368 -3.38342,-0.95055 -5.24903,-0.95062 l -11.19995,0 0,24.89929 11.19995,0 c 1.86561,5e-5 3.61528,-0.28326 5.24903,-0.84991 1.63366,-0.56657 3.0507,-1.38291 4.2511,-2.44904 1.20031,-1.06603 2.15042,-2.34929 2.85034,-3.84979 0.69982,-1.5004 1.04976,-3.18344 1.0498,-5.04913 z"
           id="path3267"
           style="line-height:114.99999762%;fill:#9aa423;fill-opacity:1" />
        <path
           d="m 508.27747,825.41485 -16.9983,0 -7.40051,-16.00036 -38.80005,0 -7.50122,16.00036 -16.99829,0 37.79907,-79.99878 12.10022,0 z m -30.49927,-28.90014 -13.29956,-28.79944 -13.50098,28.79944 z"
           id="path3269"
           style="line-height:114.99999762%;fill:#9aa423;fill-opacity:1" />
        <path
           d="m 531.74854,825.41485 -15.49988,0 0,-79.90112 15.49988,0 z"
           id="path3271"
           style="line-height:114.99999762%;fill:#9aa423;fill-opacity:1" />
        <path
           d="m 613.21826,825.41485 -15.2008,0 -36.09925,-56.10046 0,56.10046 -15.2008,0 0,-79.99878 17.40112,0 33.89893,52.19727 0,-52.19727 15.2008,0 z"
           id="path3273"
           style="font-size:100px;text-align:center;line-height:114.99999762%;text-anchor:middle;fill:#9aa423;fill-opacity:1" />
      </g>
    </g>
  </g>
</svg>
