<?xml version="1.0" encoding="UTF-8" standalone="no"?>
<!-- Created with Inkscape (http://www.inkscape.org/) -->

<svg
   xmlns:dc="http://purl.org/dc/elements/1.1/"
   xmlns:cc="http://creativecommons.org/ns#"
   xmlns:rdf="http://www.w3.org/1999/02/22-rdf-syntax-ns#"
   xmlns:svg="http://www.w3.org/2000/svg"
   xmlns="http://www.w3.org/2000/svg"
   xmlns:xlink="http://www.w3.org/1999/xlink"
   xmlns:sodipodi="http://sodipodi.sourceforge.net/DTD/sodipodi-0.dtd"
   xmlns:inkscape="http://www.inkscape.org/namespaces/inkscape"
   sodipodi:docname="scl_mg_1.svg"
   inkscape:version="0.92.1 r"
   id="svg8"
   version="1.1"
   viewBox="0 0 200 90"
   height="90mm"
   width="200mm">
  <defs
     id="defs2">
    <inkscape:path-effect
       effect="envelope"
       id="path-effect121280"
       is_visible="true"
       yy="true"
       xx="true"
       bendpath1="M 2.3946917,128.98388 H 331.48646"
       bendpath2="m 331.48646,128.98388 v 57.05863"
       bendpath3="M 2.3946917,186.04251 H 331.48646"
       bendpath4="m 2.3946917,128.98388 v 57.05863" />
    <linearGradient
       id="a"
       y2="50%"
       y1="50%"
       x1="0%">
      <stop
         id="stop4482"
         offset="0%"
         stop-color="#4F4F4F" />
      <stop
         id="stop4484"
         offset="100%" />
    </linearGradient>
    <linearGradient
       id="b"
       y2="50%"
       y1="50%"
       x1="0%">
      <stop
         id="stop4487"
         offset="0%"
         stop-color="#C40000" />
      <stop
         id="stop4489"
         offset="100%"
         stop-color="#F00" />
    </linearGradient>
    <linearGradient
       inkscape:collect="always"
       xlink:href="#a"
       id="linearGradient4533"
       x1="0"
       y1="444.17414"
       y2="444.17414"
       gradientTransform="matrix(4.82183,0,0,-0.5007285,0,444.82135)"
       x2="156.76734"
       gradientUnits="userSpaceOnUse" />
    <linearGradient
       inkscape:collect="always"
       xlink:href="#a"
       id="linearGradient4535"
       x1="0"
       y1="235.15102"
       y2="235.15102"
       gradientTransform="matrix(4.82183,0,0,-0.5007285,0,235.49367)"
       x2="156.76734"
       gradientUnits="userSpaceOnUse" />
    <linearGradient
       inkscape:collect="always"
       xlink:href="#b"
       id="linearGradient4537"
       x1="0"
       y1="263.1015"
       y2="263.1015"
       gradientTransform="matrix(0.98820095,0,0,-0.17103477,0,296.99971)"
       x2="202.38577"
       gradientUnits="userSpaceOnUse" />
    <clipPath
       id="clipPath4568"
       clipPathUnits="userSpaceOnUse">
      <path
         inkscape:connector-curvature="0"
         id="path4566"
         d="M 9610.3,7729.37 H 377.379 V 9265.95 H 9610.3 Z" />
    </clipPath>
    <clipPath
       id="clipPath15448"
       clipPathUnits="userSpaceOnUse">
      <path
         inkscape:connector-curvature="0"
         id="path15446"
         d="M 9615.52,5346 H 377.379 V 7096.71 H 9615.52 Z" />
    </clipPath>
    <clipPath
       id="clipPath17926"
       clipPathUnits="userSpaceOnUse">
      <path
         inkscape:connector-curvature="0"
         id="path17924"
         d="M 9619.07,3040.03 H 380.934 V 4713.34 H 9619.07 Z" />
    </clipPath>
    <clipPath
       id="clipPath23522"
       clipPathUnits="userSpaceOnUse">
      <path
         inkscape:connector-curvature="0"
         id="path23520"
         d="M 9615.52,734.051 H 377.379 V 2407.36 H 9615.52 Z" />
    </clipPath>
    <linearGradient
       inkscape:collect="always"
       xlink:href="#b-6"
       id="linearGradient4537-3"
       x1="0"
       y1="263.1015"
       y2="263.1015"
       gradientTransform="matrix(3.7349738,0,0,-0.64643774,0,235.49363)"
       x2="202.38577"
       gradientUnits="userSpaceOnUse" />
    <linearGradient
       id="b-6"
       y2="0.5"
       y1="0.5"
       x1="0">
      <stop
         id="stop4487-7"
         offset="0%"
         stop-color="#C40000" />
      <stop
         id="stop4489-5"
         offset="100%"
         stop-color="#F00" />
    </linearGradient>
    <linearGradient
       id="b-7"
       y2="0.5"
       y1="0.5"
       x1="0">
      <stop
         id="stop4487-5"
         offset="0%"
         stop-color="#C40000" />
      <stop
         id="stop4489-9"
         offset="100%"
         stop-color="#F00" />
    </linearGradient>
    <linearGradient
       inkscape:collect="always"
       xlink:href="#b-2"
       id="linearGradient4537-2"
       x1="0"
       y1="263.1015"
       y2="263.1015"
       gradientTransform="matrix(3.7349328,0,0,-0.64643063,0,235.49106)"
       x2="202.38577"
       gradientUnits="userSpaceOnUse" />
    <linearGradient
       id="b-2"
       y2="0.5"
       y1="0.5"
       x1="0">
      <stop
         id="stop4487-8"
         offset="0%"
         stop-color="#C40000" />
      <stop
         id="stop4489-97"
         offset="100%"
         stop-color="#F00" />
    </linearGradient>
    <linearGradient
       inkscape:collect="always"
       xlink:href="#b"
       id="linearGradient2652"
       gradientUnits="userSpaceOnUse"
       gradientTransform="matrix(0.98820095,0,0,-0.17103477,-0.00109813,324.69222)"
       x1="0"
       y1="263.1015"
       x2="202.38577"
       y2="263.1015" />
    <linearGradient
       inkscape:collect="always"
       xlink:href="#b"
       id="linearGradient2656"
       gradientUnits="userSpaceOnUse"
       gradientTransform="matrix(0.98820095,0,0,-0.17103477,2.8046998e-6,352.38434)"
       x1="0"
       y1="263.1015"
       x2="202.38577"
       y2="263.1015" />
  </defs>
  <sodipodi:namedview
     inkscape:window-maximized="1"
     inkscape:window-y="0"
     inkscape:window-x="0"
     inkscape:window-height="999"
     inkscape:window-width="1920"
     showborder="true"
     showgrid="false"
     inkscape:current-layer="layer1"
     inkscape:document-units="mm"
     inkscape:cy="124.7221"
     inkscape:cx="272.28683"
     inkscape:zoom="0.70710678"
     inkscape:pageshadow="2"
     inkscape:pageopacity="0.0"
     borderopacity="1.0"
     bordercolor="#666666"
     pagecolor="#ffffff"
     id="base"
     inkscape:snap-nodes="false"
     showguides="false" />
  <metadata
     id="metadata5">
    <rdf:RDF>
      <cc:Work
         rdf:about="">
        <dc:format>image/svg+xml</dc:format>
        <dc:type
           rdf:resource="http://purl.org/dc/dcmitype/StillImage" />
        <dc:title></dc:title>
      </cc:Work>
    </rdf:RDF>
  </metadata>
  <g
     inkscape:label="Layer 1"
     inkscape:groupmode="layer"
     id="layer1"
     transform="translate(0,-207)">
    <path
       style="fill:url(#linearGradient4533);stroke-width:1.55384302;opacity:0.6"
       d="M 708.97461 196.71289 C 704.57184 197.32613 699.93791 197.93206 695.01172 198.52734 L 695.10352 200.08203 C 689.73489 200.73026 684.05373 201.36719 678.11133 201.99414 L 677.00391 202.11328 L 677.00391 200.55078 C 675.54942 200.70322 674.0396 200.85465 672.55273 201.00586 L 672.55273 202.57031 L 671.65234 202.6582 C 661.70561 203.6625 651.08201 204.64481 639.82227 205.5957 L 638.73633 205.68555 L 638.73633 204.12305 C 637.26287 204.24695 635.77906 204.37112 634.28516 204.49414 L 634.28516 206.05469 L 633.36914 206.12695 C 632.32535 206.21275 631.26996 206.30168 630.2168 206.38672 L 630.17383 206.38672 L 627.82617 206.38672 L 627.82617 206.57812 L 626.91016 206.65234 C 620.71052 207.14576 614.35656 207.63426 607.84961 208.11328 L 606.77344 208.1875 L 606.77344 206.61914 C 601.12732 207.03352 595.4221 207.44584 589.56641 207.84961 L 589.56641 209.41211 L 588.63477 209.4707 C 582.42893 209.89692 575.99018 210.31218 569.57617 210.72656 L 568.51172 210.80078 L 568.51172 209.24414 C 562.84633 209.60911 557.11167 209.97013 551.29883 210.32617 L 551.29883 211.89258 L 550.36133 211.95117 C 545.83731 212.2273 541.1481 212.49306 536.54883 212.76367 L 536.51758 212.76367 L 530.08789 212.76367 L 530.08789 211.59766 C 526.54368 211.80275 522.91756 212.00109 519.33203 212.20312 L 519.33203 213.76758 L 518.38672 213.82031 C 507.94018 214.4072 497.31097 214.98539 486.57031 215.54688 L 485.52344 215.59961 L 485.52344 214.03711 C 479.81106 214.33524 474.08676 214.63076 468.30859 214.92188 L 468.30859 216.4707 L 467.36328 216.52148 C 465.21186 216.62958 463.06456 216.73836 460.9043 216.8457 L 459.85547 216.89844 L 459.85547 215.3418 C 454.18001 215.62307 448.52068 215.90497 442.79883 216.17969 L 442.79883 217.73242 L 441.85352 217.77539 C 429.17112 218.38306 416.40632 218.97854 403.58594 219.55469 L 402.53711 219.59961 L 402.53711 218.04492 C 398.95247 218.20583 395.37248 218.36884 391.7832 218.52734 L 391.7832 219.07031 L 383.33008 219.07031 L 383.33008 218.90039 C 379.74171 219.0569 376.15673 219.20718 372.56836 219.36133 L 372.56836 220.91602 L 371.61523 220.96094 C 365.20335 221.23594 358.79934 221.50585 352.40039 221.77344 L 351.35938 221.81836 L 351.35938 220.25977 C 349.91658 220.32003 348.50417 220.37371 347.0625 220.43359 L 347.0625 221.99414 L 346.10352 222.03906 C 339.66991 222.3059 333.28932 222.56261 326.88867 222.82227 L 325.84766 222.86523 L 325.84766 221.29492 C 315.90202 221.69774 305.85805 222.11843 296.03906 222.50391 L 296.03906 224.03906 L 295.08008 224.07812 C 288.57817 224.33298 282.29597 224.56885 275.87305 224.81641 L 274.83203 224.86133 L 274.83203 223.31641 C 273.33556 223.37402 271.86473 223.42911 270.37305 223.48633 L 270.37305 225.03125 L 269.41211 225.06836 C 260.92314 225.39359 252.21158 225.73821 243.90039 226.05078 L 242.86719 226.08789 L 242.86719 224.53906 C 237.00283 224.75954 231.4099 224.96931 225.65234 225.18359 L 225.65234 226.73438 L 224.69336 226.77148 C 217.8401 227.02622 212.31067 227.23442 205.63281 227.48047 L 204.59961 227.51953 L 204.59961 225.96289 C 198.90024 226.17308 192.94217 226.39555 187.38477 226.59961 L 187.38477 228.1543 L 186.42578 228.19336 C 179.89545 228.43294 173.5168 228.67104 167.21094 228.90234 L 166.17773 228.93945 L 166.17773 227.38086 C 160.38971 227.59315 154.70726 227.80236 149.125 228.00781 L 149.125 229.55664 L 148.1582 229.59375 C 142.10033 229.81686 134.73678 230.08768 128.95117 230.30273 L 127.91602 230.3457 L 127.91602 228.79297 C 121.90022 229.01682 116.55236 229.22397 110.85742 229.43945 L 110.85742 230.98828 L 109.89844 231.02734 C 103.35905 231.27498 97.593747 231.50521 91.517578 231.74219 L 91.494141 231.74219 L 89.648438 231.74219 L 89.648438 230.24414 C 83.330382 230.49092 78.200649 230.71374 72.435547 230.94922 L 72.435547 231.74609 L 66.138672 231.74609 L 66.138672 232.75 L 65.177734 232.78711 C 62.943697 232.88046 60.864033 232.96908 58.726562 233.06055 L 57.685547 233.10547 L 57.685547 231.74609 L 53.107422 231.74609 C 43.467562 232.16934 35.092462 232.57267 27.869141 232.95898 L 27.869141 234.51367 L 26.925781 234.56641 C 24.720862 234.68622 22.415883 234.81208 20.472656 234.92773 L 19.417969 234.98633 L 19.417969 233.44141 C 7.1185504 234.19043 3.3643457e-14 234.87394 0 235.49414 C 0 238.26795 135.9398 242.22326 292.50195 248.34766 C 293.27985 248.31895 294.05419 248.29088 294.84766 248.25977 L 295.88867 248.2168 L 295.88867 248.48242 C 301.58347 248.70591 307.36196 248.94259 313.10352 249.17188 L 313.10352 247.54492 L 314.0625 247.5 C 324.66854 247.07601 335.3162 246.65319 346.02539 246.20898 L 347.06641 246.16406 L 347.06641 250.55273 C 348.49664 250.61214 349.93194 250.6746 351.36328 250.73438 L 351.36328 245.97852 L 352.32227 245.94141 C 356.57134 245.76407 360.82225 245.58338 365.07812 245.40234 L 366.11914 245.35938 L 366.11914 245.83008 L 370.57031 245.83008 L 370.57031 245.16602 L 371.53125 245.12305 C 377.94164 244.84812 384.32953 244.57177 390.73828 244.28906 L 391.78711 244.23633 L 391.78711 247.83398 L 385.33398 247.83398 L 385.33398 252.17383 C 388.93112 252.33114 392.49579 252.50044 396.08984 252.66016 L 396.08984 252.20312 L 402.54102 252.20312 L 402.54102 245.83203 L 410.83984 245.83203 L 410.83984 252.20312 L 417.29883 252.20312 L 417.29883 253.62109 C 422.98203 253.88222 428.69369 254.13304 434.34766 254.40039 L 434.34766 252.20117 L 440.80664 252.20117 L 440.80664 245.83203 L 449.10352 245.83203 L 449.10352 252.20117 L 455.55664 252.20117 L 455.55664 255.42188 C 461.28038 255.70312 466.94668 255.99133 472.61523 256.2793 L 472.61523 254.20312 L 466.31836 254.20312 L 466.31836 247.83203 L 459.85938 247.83203 L 459.85938 241.0625 L 460.80469 241.01172 C 467.22875 240.69284 473.67219 240.37809 480.01953 240.05078 L 481.06836 239.99219 L 481.06836 245.83203 L 485.52734 245.83203 L 485.52734 239.76367 L 486.4707 239.71094 C 487.5913 239.65235 488.68502 239.59412 489.80859 239.53516 L 489.83203 239.53516 L 491.82617 239.53516 L 491.82617 239.42383 L 492.77148 239.37109 C 499.21467 239.02961 505.64357 238.68863 511.97852 238.33789 L 513.0332 238.2793 L 513.0332 239.53516 L 519.33789 239.53516 L 519.33789 245.83008 L 523.78906 245.83008 L 523.78906 239.53516 L 530.09375 239.53516 L 530.09375 237.30469 L 531.03906 237.24609 C 537.47435 236.87279 543.96682 236.50637 550.24609 236.12305 L 551.30078 236.05664 L 551.30273 241.53516 L 545.00586 241.53516 L 545.00586 247.83203 L 538.54688 247.83203 L 538.54688 254.20117 L 532.09375 254.20117 L 532.09375 258.50586 L 538.54688 258.50586 L 538.54688 259.88477 C 540.02679 259.97228 541.53217 260.05842 543.00391 260.14648 L 543.00391 258.50586 L 549.30078 258.50586 L 549.30078 252.20117 L 555.75977 252.20117 L 555.75977 245.83008 L 564.05859 245.83008 L 564.05859 252.20117 L 570.51758 252.20117 L 570.51758 260.50586 L 564.05859 260.50586 L 564.05859 261.44531 C 565.20011 261.51782 566.38411 261.58729 567.51953 261.66016 C 574.31762 261.2238 581.00388 260.78135 587.56836 260.33203 L 587.56836 252.20117 L 594.02148 252.20117 L 594.02148 245.83203 L 602.32617 245.83203 L 602.32617 252.20117 L 608.77734 252.20117 L 608.77734 258.50586 L 612.90234 258.50586 C 617.25691 258.17874 621.61796 257.85131 625.83008 257.51758 L 625.83008 254.20312 L 619.5332 254.20312 L 619.5332 247.83203 L 613.08008 247.83203 L 613.08008 241.53516 L 606.77734 241.53516 L 606.77734 233.23047 L 613.08008 233.23047 L 613.08008 231.87891 L 614.00391 231.8125 C 616.17301 231.64873 618.32199 231.48352 620.45508 231.31836 L 621.5332 231.23633 L 621.5332 233.23047 L 627.83008 233.23047 L 627.83008 239.53516 L 634.28906 239.53516 L 634.28906 245.83008 L 638.74023 245.83008 L 638.74023 239.53516 L 645.04492 239.53516 L 645.04492 235.23047 L 638.74023 235.23047 L 638.74023 229.84961 L 639.66211 229.76758 C 650.74947 228.83124 660.75383 227.85565 670.55664 226.86719 L 670.55664 226.85156 L 670.67383 226.85156 C 672.96581 226.62029 675.68279 226.40582 677.90039 226.17188 L 679.00781 226.05469 L 679.00781 228.85352 L 672.55664 228.85352 L 672.55664 235.23047 L 666.25195 235.23047 L 666.25195 239.53516 L 672.55664 239.53516 L 672.55664 245.83203 L 677.00781 245.83203 L 677.00781 239.53516 L 683.3125 239.53516 L 683.3125 233.23047 L 689.76367 233.23047 L 689.76367 226.85352 L 698.2168 226.85352 L 698.2168 233.23047 L 704.51953 233.23047 L 704.51953 241.53516 L 698.2168 241.53516 L 698.2168 247.83203 L 691.76367 247.83203 L 691.76367 251.24609 C 697.84761 250.53181 703.65259 249.80881 708.97852 249.06836 L 708.97852 245.83203 L 717.27539 245.83203 L 717.27539 247.84961 C 721.11918 247.256 724.7113 246.65324 728.03125 246.04297 L 728.03125 241.53516 L 721.73438 241.53516 L 721.73438 235.23047 L 715.27539 235.23047 L 715.27539 228.85156 L 708.97852 228.85156 L 708.97852 222.42969 L 709.83594 222.3125 C 714.36079 221.67539 718.65545 221.02677 722.56836 220.37109 L 723.73438 220.17969 L 723.73438 220.55469 L 730.03125 220.55469 L 730.03125 226.85156 L 734.48242 226.85156 L 734.48242 220.55469 L 740.78711 220.55469 L 740.78711 216.67969 L 741.5332 216.48047 C 747.98516 214.78373 752.3387 212.94765 754.01562 211.39453 L 755.69922 209.83594 L 755.69922 214.25781 L 755.90625 214.25781 L 755.90625 209.32812 C 755.90625 204.85459 741.71325 200.74853 717.27148 196.97461 L 717.27148 197.07812 L 716.42383 197.21094 C 714.4011 197.51912 712.26116 197.82421 710.11133 198.12695 L 708.97461 198.28125 L 708.97461 196.71289 z M 755.69922 222.55664 L 755.69922 228.85156 L 749.24023 228.85156 L 749.24023 235.23047 L 742.78711 235.23047 L 742.78711 241.53516 L 736.48438 241.53516 L 736.48438 244.33984 C 748.96288 241.56264 755.90625 238.61857 755.90625 235.49414 L 755.90625 222.55664 L 755.69922 222.55664 z M 596.02148 233.11914 L 596.02148 235.23047 L 594.62695 235.23047 L 594.57617 235.23047 L 594.56055 234.69922 L 594.61133 234.74414 L 594.59961 234.22852 L 594.57031 234.22852 C 594.58165 234.22802 594.58827 234.22709 594.59961 234.22656 L 594.58789 233.66602 L 594.53516 233.71875 L 594.52148 233.23047 C 594.54038 233.22964 594.5591 233.23141 594.57422 233.23047 C 594.69365 233.22291 594.81523 233.21251 594.94336 233.20117 L 596.02148 233.11914 z M 589.57031 233.57031 L 589.57031 241.53516 L 583.27344 241.53516 L 583.27344 247.83203 L 574.8125 247.83203 L 574.8125 241.53516 L 568.51562 241.53516 L 568.51562 234.95703 L 569.45312 234.89844 C 575.86759 234.48401 582.29834 234.06846 588.49805 233.64258 L 589.57031 233.57031 z M 594.02148 234.19727 L 594.03711 234.21289 L 594.02148 234.22656 L 594.02148 234.19727 z M 430.05469 242.49414 L 430.05469 247.83203 L 421.59375 247.83203 L 421.59375 242.89258 L 422.55469 242.84961 C 424.71185 242.74945 426.85187 242.64778 429.00586 242.54688 L 430.05469 242.49414 z M 500.28516 247.83203 L 500.28516 254.20117 L 493.82617 254.20117 L 493.82617 257.38086 C 499.60825 257.68795 505.33745 257.99993 511.0332 258.31445 L 511.0332 254.20117 L 504.58203 254.20117 L 504.58203 247.83203 L 500.28516 247.83203 z M 653.49609 247.83203 L 653.49609 254.20117 L 647.04492 254.20117 L 647.04492 255.74219 C 652.82713 255.23564 658.41917 254.72243 663.83789 254.20117 L 657.79297 254.20117 L 657.79297 247.83203 L 653.49609 247.83203 z "
       id="path4494"
       transform="matrix(0.26458333,0,0,0.26458333,0,207)" />
    <path
       style="fill:url(#linearGradient4535);stroke-width:1.55384302;opacity:0.6"
       d="M 708.97852 92.048828 C 704.57589 92.662025 699.94159 93.268043 695.01562 93.863281 L 695.10742 95.417969 C 689.73879 96.066158 684.05763 96.70313 678.11523 97.330078 L 677.00781 97.449219 L 677.00781 95.886719 C 675.55366 96.039118 674.04316 96.188668 672.55664 96.339844 L 672.55664 97.90625 L 671.65625 97.994141 C 661.70952 98.998437 651.08591 99.980711 639.82617 100.93164 L 638.74023 101.02148 L 638.74023 99.458984 C 637.26662 99.582903 635.78313 99.707049 634.28906 99.830078 L 634.28906 101.39062 L 633.37305 101.46289 C 632.32925 101.54869 631.27387 101.63762 630.2207 101.72266 L 630.17773 101.72266 L 627.83008 101.72266 L 627.83008 101.91406 L 626.91406 101.98828 C 620.71443 102.4817 614.36046 102.9702 607.85352 103.44922 L 606.77734 103.52344 L 606.77734 101.95508 C 601.13123 102.36946 595.42599 102.78178 589.57031 103.18555 L 589.57031 104.74805 L 588.63867 104.80664 C 582.43284 105.23286 575.99409 105.64811 569.58008 106.0625 L 568.51562 106.13672 L 568.51562 104.58008 C 562.85031 104.94505 557.11549 105.30606 551.30273 105.66211 L 551.30273 107.22852 L 550.36523 107.28711 C 545.84122 107.56324 541.152 107.829 536.55273 108.09961 L 536.52148 108.09961 L 530.0918 108.09961 L 530.0918 106.93164 C 526.54761 107.13673 522.92144 107.33507 519.33594 107.53711 L 519.33594 109.10352 L 518.39062 109.15625 C 507.94409 109.74314 497.31488 110.32133 486.57422 110.88281 L 485.52734 110.93555 L 485.52734 109.37305 C 479.81494 109.67118 474.09069 109.96669 468.3125 110.25781 L 468.3125 111.80664 L 467.36719 111.85742 C 465.21577 111.96552 463.06847 112.0743 460.9082 112.18164 L 459.85938 112.23438 L 459.85938 110.67773 C 454.18391 110.95902 448.52458 111.2409 442.80273 111.51562 L 442.80273 113.06836 L 441.85742 113.11133 C 429.17503 113.719 416.41023 114.31444 403.58984 114.89062 L 402.54102 114.93555 L 402.54102 113.38086 C 398.95621 113.54178 395.37656 113.70281 391.78711 113.86133 L 391.78711 114.40625 L 383.33398 114.40625 L 383.33398 114.23438 C 379.74585 114.39088 376.1604 114.54312 372.57227 114.69727 L 372.57227 116.25195 L 371.61914 116.29492 C 365.20726 116.56992 358.80325 116.83983 352.4043 117.10742 L 351.36328 117.15234 L 351.36328 115.5957 C 349.92045 115.65597 348.50812 115.70964 347.06641 115.76953 L 347.06641 117.32812 L 346.10742 117.37305 C 339.67381 117.63988 333.29323 117.8966 326.89258 118.15625 L 325.85156 118.19922 L 325.85156 116.62891 C 315.90569 117.03175 305.86219 117.45239 296.04297 117.83789 L 296.04297 119.375 L 295.08398 119.41211 C 288.58207 119.66696 282.29987 119.90283 275.87695 120.15039 L 274.83594 120.19531 L 274.83594 118.65039 C 273.33945 118.70801 271.86865 118.76505 270.37695 118.82227 L 270.37695 120.36523 L 269.41602 120.4043 C 260.92705 120.72953 252.21549 121.07415 243.9043 121.38672 L 242.87109 121.42383 L 242.87109 119.875 C 237.00682 120.09548 231.41373 120.30524 225.65625 120.51953 L 225.65625 122.07031 L 224.69727 122.10742 C 217.84401 122.36216 212.31458 122.57036 205.63672 122.81641 L 204.60352 122.85547 L 204.60352 121.29883 C 198.90399 121.50904 192.94623 121.73147 187.38867 121.93555 L 187.38867 123.49023 L 186.42969 123.52734 C 179.89936 123.76693 173.52071 124.00502 167.21484 124.23633 L 166.18164 124.27539 L 166.18164 122.7168 C 160.39364 122.9291 154.71114 123.13829 149.12891 123.34375 L 149.12891 124.89258 L 148.16211 124.92969 C 142.10424 125.15283 134.74069 125.42362 128.95508 125.63867 L 127.91992 125.68164 L 127.91992 124.12891 C 121.90385 124.35278 116.55652 124.55989 110.86133 124.77539 L 110.86133 126.32422 L 109.90234 126.36328 C 103.36296 126.61092 97.597653 126.84115 91.521484 127.07812 L 91.498047 127.07812 L 89.652344 127.07812 L 89.652344 125.58008 C 83.334314 125.82686 78.204556 126.04967 72.439453 126.28516 L 72.439453 127.08008 L 66.142578 127.08008 L 66.142578 128.08398 L 65.181641 128.12305 C 62.947603 128.2164 60.867939 128.30502 58.730469 128.39648 L 57.689453 128.44141 L 57.689453 127.08203 L 53.105469 127.08203 C 43.468212 127.50518 35.094953 127.90869 27.873047 128.29492 L 27.873047 129.84961 L 26.929688 129.90234 C 24.724768 130.02215 22.419789 130.14802 20.476562 130.26367 L 19.421875 130.32227 L 19.421875 128.77734 C 7.1202921 129.52647 -2.5235291e-14 130.20982 0 130.83008 C 0 133.60402 135.95343 137.56063 292.52539 143.68555 C 293.29431 143.65716 294.05952 143.62841 294.84375 143.59766 L 295.88477 143.55469 L 295.88477 143.81836 C 301.57953 144.04184 307.35808 144.27658 313.09961 144.50586 L 313.09961 142.88281 L 314.05859 142.83789 C 324.66464 142.4139 335.3123 141.99107 346.02148 141.54688 L 347.0625 141.50195 L 347.0625 145.88867 C 348.49273 145.94808 349.92804 146.01054 351.35938 146.07031 L 351.35938 141.31641 L 352.31836 141.27734 C 356.56744 141.10001 360.81834 140.91932 365.07422 140.73828 L 366.11523 140.69531 L 366.11523 141.16602 L 370.56641 141.16602 L 370.56641 140.50195 L 371.52734 140.45898 C 377.93774 140.18406 384.32562 139.90771 390.73438 139.625 L 391.7832 139.57227 L 391.7832 143.16992 L 385.33008 143.16992 L 385.33008 147.50977 C 388.92722 147.66708 392.49188 147.83638 396.08594 147.99609 L 396.08594 147.53906 L 402.53711 147.53906 L 402.53711 141.16797 L 410.83594 141.16797 L 410.83594 147.53906 L 417.29492 147.53906 L 417.29492 148.95703 C 422.97812 149.21816 428.68979 149.46898 434.34375 149.73633 L 434.34375 147.53711 L 440.80273 147.53711 L 440.80273 141.16797 L 449.09961 141.16797 L 449.09961 147.53711 L 455.55273 147.53711 L 455.55273 150.75781 C 461.27644 151.03906 466.9428 151.32532 472.61133 151.61328 L 472.61133 149.53906 L 466.31445 149.53906 L 466.31445 143.16797 L 459.85547 143.16797 L 459.85547 136.39844 L 460.80078 136.34766 C 467.22484 136.02878 473.6683 135.71403 480.01562 135.38672 L 481.06445 135.32812 L 481.06445 141.16797 L 485.52344 141.16797 L 485.52344 135.09961 L 486.4668 135.04688 C 487.58739 134.98829 488.68111 134.93005 489.80469 134.87109 L 489.82812 134.87109 L 491.82227 134.87109 L 491.82227 134.75977 L 492.76758 134.70703 C 499.21077 134.36555 505.63967 134.02457 511.97461 133.67383 L 513.0293 133.61523 L 513.0293 134.87109 L 519.33398 134.87109 L 519.33398 141.16602 L 523.78516 141.16602 L 523.78516 134.87109 L 530.08984 134.87109 L 530.08984 132.64062 L 531.03516 132.58203 C 537.47044 132.20873 543.96292 131.8423 550.24219 131.45898 L 551.29688 131.39258 L 551.29883 136.87109 L 545.00195 136.87109 L 545.00195 143.16797 L 538.54297 143.16797 L 538.54297 149.53711 L 532.08984 149.53711 L 532.08984 153.8418 L 538.54297 153.8418 L 538.54297 155.2207 C 540.0229 155.30821 541.52826 155.39436 543 155.48242 L 543 153.8418 L 549.29688 153.8418 L 549.29688 147.53711 L 555.75586 147.53711 L 555.75586 141.16602 L 564.05469 141.16602 L 564.05469 147.53711 L 570.51367 147.53711 L 570.51367 155.8418 L 564.05469 155.8418 L 564.05469 156.78125 C 565.1975 156.85384 566.38283 156.92314 567.51953 156.99609 C 574.31625 156.55983 581.00124 156.1172 587.56445 155.66797 L 587.56445 147.53711 L 594.01758 147.53711 L 594.01758 141.16797 L 602.32227 141.16797 L 602.32227 147.53711 L 608.77344 147.53711 L 608.77344 153.8418 L 612.90234 153.8418 C 617.25554 153.51478 621.61533 153.18714 625.82617 152.85352 L 625.82617 149.53906 L 619.5293 149.53906 L 619.5293 143.16797 L 613.07617 143.16797 L 613.07617 136.87109 L 606.77344 136.87109 L 606.77344 128.56641 L 613.07617 128.56641 L 613.07617 127.21484 L 614 127.14844 C 616.16911 126.98463 618.31808 126.81946 620.45117 126.6543 L 621.5293 126.57227 L 621.5293 128.56641 L 627.82617 128.56641 L 627.82617 134.87109 L 634.28516 134.87109 L 634.28516 141.16602 L 638.73633 141.16602 L 638.73633 134.87109 L 645.04102 134.87109 L 645.04102 130.56641 L 638.73633 130.56641 L 638.73633 125.18555 L 639.6582 125.10352 C 650.74556 124.16714 660.74992 123.19155 670.55273 122.20312 L 670.55273 122.1875 L 670.66992 122.1875 C 672.9619 121.95623 675.67888 121.74177 677.89648 121.50781 L 679.00391 121.39062 L 679.00391 124.18945 L 672.55273 124.18945 L 672.55273 130.56641 L 666.24805 130.56641 L 666.24805 134.87109 L 672.55273 134.87109 L 672.55273 141.16797 L 677.00391 141.16797 L 677.00391 134.87109 L 683.30859 134.87109 L 683.30859 128.56641 L 689.75977 128.56641 L 689.75977 122.18945 L 698.21289 122.18945 L 698.21289 128.56641 L 704.51562 128.56641 L 704.51562 136.87109 L 698.21289 136.87109 L 698.21289 143.16797 L 691.75977 143.16797 L 691.75977 146.58398 C 697.84378 145.86972 703.64857 145.14473 708.97461 144.4043 L 708.97461 141.16797 L 717.27148 141.16797 L 717.27148 143.18555 C 721.11513 142.592 724.70744 141.99107 728.02734 141.38086 L 728.02734 136.87109 L 721.73047 136.87109 L 721.73047 130.56641 L 715.27148 130.56641 L 715.27148 124.1875 L 708.97461 124.1875 L 708.97461 117.76562 L 709.83203 117.64844 C 714.35688 117.01128 718.65155 116.36267 722.56445 115.70703 L 723.73047 115.51562 L 723.73047 115.89062 L 730.02734 115.89062 L 730.02734 122.1875 L 734.47852 122.1875 L 734.47852 115.89062 L 740.7832 115.89062 L 740.7832 112.01562 L 741.5293 111.81641 C 747.98125 110.11966 752.33478 108.28355 754.01172 106.73047 L 755.69531 105.17188 L 755.69531 109.59375 L 755.90625 109.59375 L 755.90625 104.66406 C 755.90625 100.19073 741.71487 96.084274 717.27539 92.310547 L 717.27539 92.414062 L 716.42773 92.546875 C 714.40501 92.855058 712.26507 93.16015 710.11523 93.462891 L 708.97852 93.617188 L 708.97852 92.048828 z M 755.69531 117.89258 L 755.69531 124.1875 L 749.23633 124.1875 L 749.23633 130.56641 L 742.7832 130.56641 L 742.7832 136.87109 L 736.48047 136.87109 L 736.48047 139.67578 C 748.96131 136.89834 755.90625 133.95483 755.90625 130.83008 L 755.90625 117.89258 L 755.69531 117.89258 z M 596.01758 128.45508 L 596.01758 130.56836 L 594.62305 130.56836 L 594.57227 130.56836 L 594.55664 130.03711 L 594.60742 130.08203 L 594.5957 129.56641 L 594.56445 129.56641 C 594.57579 129.56591 594.58436 129.56498 594.5957 129.56445 L 594.58398 129.00391 L 594.53125 129.05664 L 594.51758 128.56836 C 594.53648 128.56753 594.55519 128.5693 594.57031 128.56836 C 594.68975 128.5608 594.81133 128.54845 594.93945 128.53711 L 596.01758 128.45508 z M 589.56641 128.90625 L 589.56641 136.87109 L 583.26953 136.87109 L 583.26953 143.16797 L 574.80859 143.16797 L 574.80859 136.87109 L 568.51172 136.87109 L 568.51172 130.29297 L 569.44922 130.23438 C 575.86368 129.81995 582.29443 129.40439 588.49414 128.97852 L 589.56641 128.90625 z M 594.01758 129.5332 L 594.03125 129.54883 L 594.01758 129.56445 L 594.01758 129.5332 z M 430.05078 137.83008 L 430.05078 143.16797 L 421.58984 143.16797 L 421.58984 138.22852 L 422.55078 138.18555 C 424.70795 138.08539 426.84796 137.98373 429.00195 137.88281 L 430.05078 137.83008 z M 500.28125 143.16797 L 500.28125 149.53711 L 493.82227 149.53711 L 493.82227 152.7168 C 499.60433 153.02388 505.33355 153.33587 511.0293 153.65039 L 511.0293 149.53711 L 504.57812 149.53711 L 504.57812 143.16797 L 500.28125 143.16797 z M 653.49219 143.16797 L 653.49219 149.53711 L 647.04102 149.53711 L 647.04102 151.07812 C 652.82461 150.57148 658.41794 150.05849 663.83789 149.53711 L 657.78906 149.53711 L 657.78906 143.16797 L 653.49219 143.16797 z "
       id="path4496"
       transform="matrix(0.26458333,0,0,0.26458333,0,207)" />
    <path
       style="opacity:1;vector-effect:none;fill:url(#linearGradient4537);fill-opacity:1;fill-rule:nonzero;stroke:none;stroke-width:0.41111645;stroke-linecap:butt;stroke-linejoin:miter;stroke-miterlimit:4;stroke-dasharray:none;stroke-dashoffset:0;stroke-opacity:1;font-variant-east_asian:normal"
       d="m 199.94532,207.13437 -0.44545,0.41238 c -0.44369,0.41092 -1.59556,0.89672 -3.30264,1.34565 l -0.19741,0.0527 v 1.02526 h -1.66811 v 1.66605 H 193.154 v -1.66605 h -1.66604 v -0.0992 l -0.30851,0.0506 c -1.03529,0.17347 -2.17159,0.34508 -3.36879,0.51366 l -0.22686,0.031 v 1.69911 h 1.66605 v 1.68775 h 1.70894 v 1.66811 h 1.66605 v 1.66605 h 2.23655 v -1.66605 h 1.6676 v -1.66811 h 1.70739 v -1.68775 h 1.70894 V 210.5 h 0.32039 v -2.19573 h -0.32039 z m -20.29127,4.29121 -0.293,0.031 c -0.58674,0.0619 -1.30561,0.11864 -1.91203,0.17983 h -0.031 v 0.004 c -2.59366,0.26152 -5.24065,0.51965 -8.17418,0.7674 l -0.24391,0.0217 v 1.42369 h 1.66812 v 1.13895 h -1.66812 v 1.66553 h -1.17771 v -1.66553 h -1.70893 v -1.66812 h -1.66605 v -0.52761 l -0.28526,0.0217 c -0.56438,0.0437 -1.13296,0.0874 -1.70687,0.13074 l -0.24443,0.0176 v 0.3576 h -1.6676 v 2.19728 h 1.6676 v 1.66605 h 1.70739 v 1.68569 h 1.66605 v 1.13843 h -1.66605 v 1.66605 h -1.17771 v -1.66605 h -1.66811 v -1.66811 h -1.70687 v -1.68518 h -2.19729 v 1.68518 h -1.70738 v 2.19728 h 1.70738 v 1.66604 h 1.6676 v 1.66812 h 1.70739 v 1.156 h -1.70739 v 1.66605 h -1.6676 v 1.66811 h -1.70738 v 2.21692 h 1.70738 v 1.66605 h 2.19729 v -1.66605 h 1.70687 v -1.68775 h 1.66811 v -1.6676 h 1.17771 v 1.6676 h 1.66605 v 1.15859 h -1.66605 v 1.66553 h -1.70739 v 1.66605 h -1.6676 v 1.00614 l 0.28474,-0.0196 c 1.72163,-0.12674 3.40278,-0.25599 5.0431,-0.38654 l 0.24237,-0.0196 v -0.0506 h 0.62115 0.0114 c 0.27865,-0.0225 0.55789,-0.046 0.83406,-0.0687 l 0.24236,-0.0191 v -1.5782 h 1.17771 v 1.48053 l 0.28732,-0.0238 c 2.97914,-0.2516 5.78997,-0.51149 8.42171,-0.77721 l 0.23823,-0.0233 v -0.65629 h 1.1777 v 0.53537 l 0.29301,-0.0315 c 1.57226,-0.16588 3.0754,-0.33441 4.49585,-0.50591 l -0.031,-0.52711 h -0.85369 v -1.66604 h -1.70687 v -1.15807 h 1.70687 v -1.66812 h 1.1777 v 1.66812 h 1.66812 v 1.68723 h 1.70894 v 1.18753 l 0.30076,-0.0408 c 0.56881,-0.0801 1.135,-0.16082 1.67018,-0.24236 l 0.22427,-0.0351 v -0.8692 h 1.70946 v -2.21692 h -1.70946 v -1.6676 h -1.66553 v -1.66604 h -1.70945 v -1.15652 h 1.70945 v -1.66812 h 1.66553 v -1.66553 h 1.70946 v -2.19728 h -1.70946 v -1.68569 h -2.19521 v 1.68569 h -1.70894 v 1.6676 h -1.66812 v 1.66605 h -1.1777 v -1.66605 h -1.70687 v -1.13843 h 1.70687 v -1.68569 h 1.70739 v -1.66605 h 1.6676 v -2.19728 h -1.6676 v -1.68723 h -2.23656 v 1.68723 H 180.793 v 1.66812 h -1.66812 v 1.66604 h -1.1777 v -1.66604 h -1.66812 v -1.13895 h 1.66812 v -1.68724 h 1.70687 z m -21.9568,1.86914 -0.28525,0.0217 c -0.0339,0.003 -0.0661,0.006 -0.0977,0.008 -0.004,2.5e-4 -0.009,-2.2e-4 -0.014,0 l 0.004,0.12919 0.0139,-0.0139 0.003,0.14831 c -0.003,1.4e-4 -0.005,3.9e-4 -0.008,5.2e-4 h 0.008 l 0.003,0.13642 -0.0134,-0.0119 0.004,0.14056 h 0.0134 0.36897 z m -1.70687,0.11937 -0.2837,0.0191 c -1.64034,0.11268 -3.34181,0.22263 -5.03897,0.33228 l -0.24805,0.0155 v 1.74046 h 1.66605 v 1.66605 h 2.23862 v -1.66605 h 1.66605 z m 1.1777,0.16588 v 0.008 l 0.004,-0.004 z m -11.30318,0.49196 -0.27905,0.0176 c -1.66139,0.10142 -3.37919,0.19838 -5.08186,0.29714 l -0.25012,0.0155 v 0.59015 h -1.66811 v 1.66553 h -1.17771 v -1.66553 h -1.66811 v -0.33228 l -0.27906,0.0155 c -1.67612,0.0928 -3.3771,0.18302 -5.08186,0.27337 l -0.25011,0.0139 v 0.0295 h -0.52762 -0.006 c -0.29728,0.0156 -0.58666,0.031 -0.88315,0.0465 l -0.2496,0.014 v 1.60558 h -1.17977 v -1.54512 l -0.27751,0.0155 c -1.6794,0.0866 -3.38422,0.16988 -5.08392,0.25425 l -0.25011,0.0134 v 1.7911 h 1.70893 v 1.68569 h 1.66605 v 1.13843 h -1.66605 v 1.66605 h -1.18132 v -1.66605 h -1.66605 v -1.66811 h -1.70739 v -1.68518 h -2.19521 v 1.68518 h -1.70894 v 2.19728 h 1.70894 v 1.66604 h 1.66605 v 1.66812 h 1.70894 v 1.156 h -1.70894 v 1.66605 h -1.66605 v 1.66811 h -1.70894 v 2.21692 h 1.70894 v 1.66605 h 2.19521 v -1.66605 h 1.70739 v -1.68775 h 1.66605 v -1.6676 h 1.18132 v 1.6676 h 1.66605 v 1.15859 h -1.66605 v 1.66604 h -1.70893 v 1.66554 h -1.66605 v 2.21692 h 1.66605 v 1.09398 l 0.2775,-0.0139 c 0.57157,-0.0284 1.13971,-0.0572 1.70894,-0.0858 l 0.25011,-0.0134 v -0.98081 h 1.66605 v -1.68724 h 1.70894 v -1.66605 h 1.17977 v 1.66605 h 1.66605 v 1.15807 h -1.66605 v 1.27951 l 0.27699,-0.014 c 2.8418,-0.14856 5.65411,-0.30153 8.41809,-0.45681 l 0.25011,-0.014 v -0.79478 h -1.66811 v -1.15807 h 1.66811 v -1.66606 h 1.17771 v 1.66606 h 1.66811 v 1.68724 h 1.70119 0.008 c 1.21689,-0.0716 2.45758,-0.14192 3.65456,-0.21498 l 0.24805,-0.0155 v -1.98644 h -1.66605 v -1.66605 h -1.70894 v -1.66606 h -1.70739 v -1.15807 h 1.70739 v -1.6676 h 1.17926 v 1.6676 h 1.66604 v 1.68775 h 1.70894 v 1.66605 h 2.19573 v -1.66605 h 1.70894 v -2.21692 h -1.70894 v -1.66811 h -1.66604 v -1.66605 h -1.70894 v -1.15807 h 1.70894 v -1.66605 h 1.66604 v -1.66604 h 1.70894 v -2.19728 h -1.70894 v -1.68569 h -2.19573 v 1.68569 h -1.70894 v 1.66811 h -1.66604 v 1.66605 h -1.17926 v -1.66605 h -1.70739 v -1.13895 h 1.70739 v -1.68517 h 1.70894 v -1.66605 h 1.66605 z m -32.07969,1.70325 -0.27751,0.014 c -0.56991,0.0267 -1.13612,0.0536 -1.70687,0.0801 l -0.25425,0.0114 v 1.30691 h 2.23863 z m -10.12497,0.46096 -0.2775,0.0139 c -1.69565,0.0748 -3.385779,0.14792 -5.081862,0.22066 l -0.254248,0.0114 v 0.1757 h -1.177706 v -0.12454 l -0.275436,0.0114 c -1.126035,0.0479 -2.25075,0.0957 -3.374985,0.14262 l -0.253733,0.01 v 2.1761 h 1.708941 v 1.66811 h 1.666047 v 1.66605 h 1.706872 v 1.6676 h 1.668116 v 1.15652 H 98.04663 v 1.66604 h -1.706872 v 1.6676 h -1.666047 v 1.68776 H 92.96477 v 1.66604 h -1.13688 v -1.66604 h -1.708941 v -1.68776 h -1.666047 v -1.6676 h -1.708941 v -1.66604 h -1.708939 v -1.15652 h 1.708939 v -1.6676 h 1.708941 v -1.66605 h 1.666047 v -1.66811 h 1.708941 v -2.12701 l -0.275437,0.0119 c -2.833473,0.11754 -5.650666,0.2294 -8.456848,0.34158 l -0.25373,0.0119 v 1.76165 h 1.666047 v 1.13843 h -1.666047 v 1.66605 h -1.179774 v -1.66605 h -1.666047 v -1.6676 h -1.708941 v -1.05472 l -0.275434,0.0114 c -0.563565,0.0221 -1.103884,0.0406 -1.66605,0.0625 l -0.25373,0.0103 v 0.97049 h -1.708941 v 2.19728 h 1.708941 v 1.66605 h 1.666047 v 1.66812 h 1.708941 v 1.156 h -1.708941 v 1.66604 h -1.666047 v 1.66812 h -1.708941 v 2.2164 h 1.708941 v 1.66605 h 2.195214 v -1.66605 h 1.708941 v -1.68723 h 1.666047 v -1.66812 h 1.179774 v 1.66812 h 1.666047 v 1.15807 h -1.666047 v 1.66604 h -1.708941 v 1.66605 h -1.666047 v 2.21692 h 1.666047 v 1.66812 h 2.236039 v -1.66812 h 1.666049 v -1.68775 h 1.708939 v -1.66605 h 1.179774 v 1.66605 h 1.666047 v 1.15858 h -1.666047 v 1.6676 h -1.708941 v 1.53324 l 0.275436,-0.0114 c 1.693506,-0.0687 3.381701,-0.13662 5.083927,-0.20722 l 0.253733,-0.0119 v -0.77308 h 1.13688 v 0.72657 l 0.275436,-0.0119 c 1.693056,-0.0708 3.38745,-0.14221 5.083927,-0.21497 l 0.252182,-0.0114 v -1.01803 h -1.707391 v -1.6676 h -1.666046 v -1.15858 h 1.666046 v -1.66553 h 1.177706 v 1.66553 h 1.668116 v 1.68775 h 1.708934 v 1.66812 h 2.23656 v -1.66812 h 1.6676 v -2.21702 h -1.6676 v -1.66605 h -1.70739 v -1.66604 h -1.70894 v -1.15807 h 1.70894 v -1.66812 h 1.17771 v 1.66812 h 1.66811 v 1.68775 h 1.70688 v 1.66605 h 2.19573 v -1.66605 h 1.70894 v -2.21692 h -1.70894 v -1.66812 h -1.66605 v -1.66604 h -1.70739 v -1.156 h 1.70739 v -1.66812 h 1.66605 v -1.66605 h 1.70894 v -2.19728 h -1.70894 v -1.68569 h -2.19573 v 1.68569 h -1.70688 v 1.66812 h -1.66811 v 1.66604 h -1.17771 v -1.66604 h -1.70894 v -1.13895 h 1.70894 v -1.68517 h 1.70739 z m 94.04646,0.42168 v 0.26407 1.42162 h -1.70688 v 2.19728 h 1.70688 v 1.66604 h 1.66811 v 1.66812 h 0.8909 v -5.53144 h -0.36173 v -1.68569 z m -65.33968,0.52969 h 1.13688 v 1.68517 h 1.70687 v 1.66811 h 1.66811 v 1.66604 h 1.70688 v 1.66812 h 1.66811 v 1.156 h -1.66811 v 1.66606 h -1.70688 v 1.66811 h -1.66811 v 1.68724 h -1.70687 v 1.66605 h -1.13688 v -1.66605 h -1.70894 v -1.68724 h -1.66605 v -1.66811 h -1.70894 v -1.66606 h -1.70894 v -1.156 h 1.70894 v -1.66812 h 1.70894 v -1.66604 h 1.66605 v -1.66811 h 1.70894 z m 40.53705,0 h 1.13689 v 1.68517 h 1.70894 v 1.66811 h 1.66811 v 1.66604 h 1.70687 v 1.66812 h 1.66812 v 1.156 h -1.66812 v 1.66606 h -1.70687 v 1.66811 h -1.66811 v 1.68724 h -1.70894 v 1.66605 h -1.13689 v -1.66605 h -1.70687 v -1.68724 h -1.66811 v -1.66811 h -1.70688 v -1.66606 h -1.70893 v -1.156 h 1.70893 v -1.66812 h 1.70688 v -1.66604 h 1.66811 v -1.66811 h 1.70687 z m -104.739852,0.49196 -0.275437,0.0103 c -0.549462,0.0208 -1.120274,0.0435 -1.666046,0.0641 l -0.2558,0.0103 v 0.57981 h -1.70739 v 1.66812 h -1.667597 v 1.66604 h -1.178224 v -1.66604 h -1.708939 v -1.13895 h 1.708939 v -0.93741 l -0.274918,0.0103 c -3.066093,0.11438 -5.521783,0.20415 -8.457364,0.31213 l -0.255799,0.0103 v 0.60513 h 1.708941 v 1.66811 h 1.666047 v 1.66606 h 1.708941 v 1.66811 h 1.666047 v 1.156 h -1.666047 v 1.66605 h -1.708941 v 1.66812 h -1.666047 v 1.68723 h -1.708941 v 1.66605 h -1.136881 v -1.66605 h -1.708941 v -1.68723 h -1.666046 v -1.66812 h -1.708942 v -1.66605 h -1.706872 v -1.156 h 1.706872 v -1.66811 h 1.708942 v -1.66606 h 1.666046 v -2.16783 l -0.273367,0.01 c -1.728102,0.0634 -3.415792,0.12642 -5.083929,0.18759 l -0.25373,0.01 v 1.43196 h -1.666047 v 1.66605 h -1.179774 v -1.66605 h -1.666047 v -1.26401 l -0.275437,0.0103 c -1.60306,0.059 -3.550864,0.13063 -5.08186,0.18758 l -0.255799,0.01 v 1.58595 h 1.708941 v 1.66605 h 1.666047 v 1.66812 h 1.708941 v 1.156 h -1.708941 v 1.66605 h -1.666047 v 1.66811 h -1.708941 v 2.2164 h 1.708941 v 1.66605 h 2.195214 v -1.66605 h 1.708941 v -1.68723 h 1.666047 v -1.66812 h 1.179774 v 1.66812 h 1.666047 v 1.15807 h -1.666047 v 1.66605 h -1.708941 v 1.66605 H 38.92776 v 2.21691 h 1.666047 v 1.66812 h 2.238108 v -1.66812 h 1.666046 v -1.68775 h 1.706872 v -1.66605 h 1.179775 v 1.66605 h 1.666047 v 1.1586 h -1.666047 v 1.66758 h -1.708941 v 1.66606 h -1.706872 v 1.47278 l 0.273367,-0.01 c 1.668426,-0.0612 3.356113,-0.12419 5.083929,-0.18758 l 0.25373,-0.0103 v -0.73587 h 1.708941 v -1.66606 h 1.136881 v 1.66606 h 1.708941 v 0.56791 l 0.273367,-0.01 c 1.766851,-0.0651 3.229846,-0.12018 5.043104,-0.18758 l 0.25373,-0.01 v -0.8909 h -1.666047 v -1.66605 h -1.708941 v -1.6676 H 54.66375 v -1.15858 h 1.666047 v -1.66553 h 1.179775 v 1.66553 h 1.666047 v 1.68775 h 1.708938 v 1.66811 h 2.236557 v -1.66811 h 1.667598 v -2.21692 h -1.667598 v -1.66605 h -1.70739 v -1.66605 h -1.708939 v -1.15808 h 1.708939 v -1.66811 h 1.178224 v 1.66811 h 1.667597 v 1.68776 h 1.70739 v 1.66606 h 2.197283 v -1.66606 h 1.706872 v -2.21691 h -1.706872 v -1.66812 h -1.668116 v -1.66605 h -1.70739 v -1.15601 h 1.70739 v -1.66811 h 1.668116 v -1.66605 h 1.706872 v -2.19728 h -1.706872 z m -16.875456,0.63096 -0.27337,0.01 c -0.212584,0.007 -0.408884,0.0161 -0.617016,0.0238 h -0.04082 v 0.002 c -0.0033,1.4e-4 -0.0064,-1.2e-4 -0.0098,0 l 0.0098,0.52763 h 0.0098 0.921392 z m -21.956799,0.81443 -0.27337,0.01 c -1.808681,0.0685 -3.410449,0.13409 -5.083926,0.19946 l -0.254248,0.01 v 0.66818 H 22.05282 v 1.66605 h -1.177705 v -1.66605 h -1.70894 v -0.49248 l -0.275435,0.0119 c -1.789458,0.0731 -3.473578,0.14373 -5.043103,0.2129 l -0.252181,0.0119 v 0.78496 h 1.668115 v 1.66606 h 1.706872 v 1.66811 h 1.666048 v 1.156 h -1.666048 v 1.66605 h -1.706872 v 1.66811 h -1.668115 v 1.68724 h -1.70894 v 1.66605 h -1.136365 v -1.66605 H 9.0406948 v -1.68724 H 7.3746467 V 226.6979 H 5.6677741 v -1.66605 H 3.9588346 v -1.156 h 1.7089395 v -1.66811 h 1.7068726 v -2.15025 l -0.2790529,0.0155 c -2.1273126,0.11538 -3.8992365,0.22582 -5.0896116,0.3302 l -0.2423625,0.0212 v 1.25418 H 0.58384677 v -1.12913 l -0.31832682,0.0667 c -0.0995368,0.0209 -0.18619423,0.0414 -0.26354979,0.0682 -0.03867779,0.0134 -0.07335632,0.0257 -0.11937256,0.0548 -0.0460162,0.0291 -0.14831134,0.0928 -0.14831134,0.25373 v 7.90236 h 0.84956051 v -1.66812 H 1.7636197 v 1.66812 H 3.429668 v 1.15807 H 1.7636197 v 1.66604 H 0.05468012 v 1.66605 h -0.32039386 v 2.21692 h 0.32039386 v 1.66812 H 2.2927864 v -1.66812 h 1.6660482 v -1.68775 h 1.7089395 v -1.66605 H 6.84548 v 1.66605 h 1.6660482 v 1.15858 H 6.84548 v 1.6676 H 5.1386075 v 1.66605 H 3.429668 v 2.21692 h 1.7089395 v 0.85731 l 0.2790526,-0.0155 c 0.5141454,-0.0306 1.1240045,-0.0639 1.7073895,-0.0956 l 0.2495971,-0.014 v -0.73225 h 1.6660481 v -1.68724 h 1.7094562 v -1.66604 h 1.136365 v 1.66604 h 1.70894 v 1.68724 h 1.668115 v 0.35967 l 0.275435,-0.0119 c 0.565539,-0.0242 1.115784,-0.0476 1.706873,-0.0723 l 0.254248,-0.01 v -0.26562 h 1.666048 v -2.21692 h -1.666048 v -1.66605 h -1.70739 v -1.66811 h -1.667598 v -1.15807 h 1.667598 v -1.66605 h 1.177706 v 1.66605 h 1.666048 v 1.68724 h 1.70894 v 1.66604 h 2.236556 v -1.66604 h 1.668115 v -2.21665 h -1.668115 v -1.66605 h -1.706872 v -1.66604 h -1.70894 v -1.15807 h 1.70894 v -1.66812 h 1.177705 v 1.66812 h 1.667599 v 1.68723 h 1.708939 v 1.66605 h 2.195733 v -1.66605 h 1.706872 v -2.21692 h -1.706872 v -1.6676 h -1.668116 v -1.66604 h -1.706873 v -1.15859 h 1.706873 v -1.66605 h 1.668116 v -1.66553 h 1.706872 z m -20.2912682,0.84181 -0.2769856,0.0155 c -0.1971046,0.01 -0.3667609,0.0197 -0.5550048,0.0295 -0.00463,2.4e-4 -0.00878,-2.4e-4 -0.013436,0 l 0.013436,0.52917 h 0.013953 0.8180379 z m 1.1797732,1.71101 v 0.26355 1.40405 H 8.5115282 v 2.21485 h 1.7089398 v 1.66605 h 2.195215 v -1.66605 h 1.709456 v -2.21485 h -1.709456 v -1.6676 z m 20.249926,0 v 0.26355 1.40405 h -1.667598 v 2.21485 h 1.667598 v 1.66605 h 2.236557 v -1.66605 h 1.668116 v -2.21485 h -1.668116 v -1.6676 z m 20.289202,0 v 0.26355 1.40405 h -1.708941 v 2.21485 h 1.708941 v 1.66605 h 2.195213 v -1.66605 h 1.708941 v -2.21485 h -1.708941 v -1.6676 z m 20.248374,0 v 0.26355 1.40405 h -1.666047 v 2.21485 h 1.666047 v 1.66605 h 2.238108 v -1.66605 h 1.666047 v -2.21485 h -1.666047 v -1.6676 z m 20.290753,0 v 0.26355 1.40405 h -1.708941 v 2.21485 h 1.708941 v 1.66605 h 2.195213 v -1.66605 h 1.708942 v -2.21485 h -1.708942 v -1.6676 z m 20.247857,0 v 0.26355 1.40405 h -1.66605 v 2.21485 h 1.66605 v 1.66605 h 2.23863 v -1.66605 h 1.66604 v -2.21485 h -1.66604 v -1.6676 z m 20.29127,0 v 0.26355 1.40405 h -1.70894 v 2.21485 h 1.70894 v 1.66605 h 2.19521 v -1.66605 h 1.70688 v -2.21485 h -1.70688 v -1.6676 z m 20.24786,0 v 0.26355 1.40405 h -1.66605 v 2.21485 h 1.66605 v 1.66605 h 2.23862 v -1.66605 h 1.66605 v -2.21485 h -1.66605 v -1.6676 z m 20.2892,0 v 0.26355 1.40405 h -1.70687 v 2.21485 h 1.70687 v 1.66605 h 2.19521 v -1.66605 h 1.70894 v -2.21485 h -1.70894 v -1.6676 z m 20.24993,0 v 0.26355 1.40405 h -1.66605 v 2.21485 h 1.66605 v 1.66605 h 2.23655 v -1.66605 h 1.6676 v -2.21485 h -1.6676 v -1.6676 z m 6.74997,3.35328 v 0.26562 1.40043 h -1.66811 v 1.66811 h -1.70688 v 1.89653 l 0.33228,-0.0879 c 1.21798,-0.3203 2.16319,-0.64749 2.82774,-0.99839 0.33227,-0.17545 0.59718,-0.35698 0.7891,-0.56017 0.19192,-0.20318 0.31678,-0.44282 0.31677,-0.70125 v -2.88303 z m -166.667859,6.68693 -2.236557,5.2e-4 v 0.26561 1.40044 h -1.667598 v 1.68775 h -1.70739 v 1.6676 h -1.666048 v 1.66605 h -1.708939 v 2.21691 h 0.488342 0.0062 c 1.607653,-0.0627 3.133055,-0.12361 4.863268,-0.18913 l 0.253733,-0.0103 v -1.48828 h 1.668116 v -1.6661 h 1.177705 v 1.66605 h 1.667598 v 1.31827 l 0.273886,-0.0114 c 1.530776,-0.0569 3.479048,-0.12855 5.08186,-0.18759 l 0.255799,-0.01 v -1.63865 h -1.66605 v -1.66606 h -1.708938 v -1.66811 h -1.706872 v -1.68775 H 32.70695 Z m 40.539127,0 -2.238108,5.2e-4 v 0.26561 1.40044 h -1.666047 v 1.68775 h -1.70739 v 1.6676 h -1.667598 v 1.66605 h -1.70739 v 0.72088 l 0.27337,-0.01 c 2.199002,-0.0827 4.503936,-0.17388 6.749976,-0.25993 l 0.254246,-0.01 v -1.5782 h 1.179774 v 1.53324 l 0.275434,-0.0119 c 1.699398,-0.0655 3.361563,-0.12791 5.08186,-0.19534 l 0.253733,-0.01 v -1.84588 h -1.706872 v -1.66812 h -1.708941 v -1.68723 h -1.666047 z m 38.300502,5.2e-4 v 0.26561 1.40044 h -1.66605 v 1.68775 h -1.70894 v 1.6676 h -1.66604 v 0.67024 l 0.2775,-0.0119 c 3.39206,-0.15245 6.76941,-0.30999 10.12496,-0.47077 l 0.25011,-0.0114 v -1.84381 h -1.70687 v -1.68775 h -1.66604 v -1.66605 z m 40.53913,0 v 0.26561 1.40044 h -1.66605 v 1.69757 l 0.28164,-0.0196 c 1.69704,-0.10964 3.40062,-0.21951 5.04258,-0.33228 l 0.2465,-0.0155 v -1.33015 h -1.66605 v -1.66605 z"
       id="path2579"
       inkscape:connector-curvature="0" />
    <path
       inkscape:connector-curvature="0"
       id="path2650"
       d="m 199.94422,234.82688 -0.44545,0.41238 c -0.44369,0.41092 -1.59556,0.89672 -3.30264,1.34565 l -0.19741,0.0527 v 1.02526 h -1.66811 v 1.66605 h -1.17771 v -1.66605 h -1.66604 v -0.0992 l -0.30851,0.0506 c -1.03529,0.17347 -2.17159,0.34508 -3.36879,0.51366 l -0.22686,0.031 v 1.69911 h 1.66605 v 1.68775 h 1.70894 v 1.66811 h 1.66605 v 1.66605 h 2.23655 v -1.66605 h 1.6676 v -1.66811 h 1.70739 v -1.68775 h 1.70894 v -1.66553 h 0.32039 v -2.19573 h -0.32039 z m -20.29127,4.29121 -0.293,0.031 c -0.58674,0.0619 -1.30561,0.11864 -1.91203,0.17983 h -0.031 v 0.004 c -2.59366,0.26152 -5.24065,0.51965 -8.17418,0.7674 l -0.24391,0.0217 v 1.42369 h 1.66812 v 1.13895 h -1.66812 v 1.66553 h -1.17771 v -1.66553 h -1.70893 v -1.66812 h -1.66605 v -0.52761 l -0.28526,0.0217 c -0.56438,0.0437 -1.13296,0.0874 -1.70687,0.13074 l -0.24443,0.0176 v 0.3576 h -1.6676 v 2.19728 h 1.6676 v 1.66605 h 1.70739 v 1.68569 h 1.66605 v 1.13843 h -1.66605 v 1.66605 h -1.17771 v -1.66605 h -1.66811 v -1.66811 h -1.70687 v -1.68518 h -2.19729 v 1.68518 h -1.70738 v 2.19728 h 1.70738 v 1.66604 h 1.6676 v 1.66812 h 1.70739 v 1.156 h -1.70739 v 1.66605 h -1.6676 v 1.66811 h -1.70738 v 2.21692 h 1.70738 v 1.66605 h 2.19729 v -1.66605 h 1.70687 v -1.68775 h 1.66811 v -1.6676 h 1.17771 v 1.6676 h 1.66605 v 1.15859 h -1.66605 v 1.66553 h -1.70739 v 1.66605 h -1.6676 v 1.00614 l 0.28474,-0.0196 c 1.72163,-0.12674 3.40278,-0.25599 5.0431,-0.38654 l 0.24237,-0.0196 v -0.0506 h 0.62115 0.0114 c 0.27865,-0.0225 0.55789,-0.046 0.83406,-0.0687 l 0.24236,-0.0191 v -1.5782 h 1.17771 v 1.48053 l 0.28732,-0.0238 c 2.97914,-0.25159 5.78997,-0.51148 8.42171,-0.7772 l 0.23823,-0.0233 v -0.65629 h 1.1777 v 0.53537 l 0.29301,-0.0315 c 1.57226,-0.16588 3.0754,-0.33441 4.49585,-0.50592 l -0.031,-0.52711 H 183.028 v -1.66603 h -1.70687 v -1.15808 h 1.70687 v -1.66811 h 1.1777 v 1.66811 h 1.66812 v 1.68723 h 1.70894 v 1.18754 l 0.30076,-0.0408 c 0.56881,-0.0801 1.135,-0.16082 1.67018,-0.24236 l 0.22427,-0.0351 v -0.8692 h 1.70946 v -2.21692 h -1.70946 v -1.6676 h -1.66553 v -1.66604 h -1.70945 v -1.15652 h 1.70945 v -1.66812 h 1.66553 v -1.66553 h 1.70946 v -2.19728 h -1.70946 v -1.68569 h -2.19521 v 1.68569 h -1.70894 v 1.6676 h -1.66812 v 1.66605 h -1.1777 v -1.66605 h -1.70687 v -1.13843 h 1.70687 v -1.68569 h 1.70739 v -1.66605 h 1.6676 v -2.19728 h -1.6676 v -1.68723 h -2.23656 v 1.68723 h -1.70693 v 1.66812 h -1.66812 v 1.66604 h -1.1777 v -1.66604 h -1.66812 v -1.13895 h 1.66812 v -1.68724 h 1.70687 z m -21.9568,1.86914 -0.28525,0.0217 c -0.0339,0.003 -0.0661,0.006 -0.0977,0.008 -0.004,2.5e-4 -0.009,-2.2e-4 -0.014,0 l 0.004,0.12919 0.0139,-0.0139 0.003,0.14831 c -0.003,1.4e-4 -0.005,3.9e-4 -0.008,5.2e-4 h 0.008 l 0.003,0.13642 -0.0134,-0.0119 0.004,0.14056 h 0.0134 0.36897 z m -1.70687,0.11937 -0.2837,0.0191 c -1.64034,0.11268 -3.34181,0.22263 -5.03897,0.33228 l -0.24805,0.0155 v 1.74046 h 1.66605 v 1.66605 h 2.23862 v -1.66605 h 1.66605 z m 1.1777,0.16588 v 0.008 l 0.004,-0.004 z m -11.30318,0.49196 -0.27905,0.0176 c -1.66139,0.10142 -3.37919,0.19838 -5.08186,0.29715 l -0.25012,0.0155 v 0.59015 h -1.66811 v 1.66552 h -1.17771 v -1.66552 h -1.66811 v -0.33228 l -0.27906,0.0155 c -1.67612,0.0928 -3.3771,0.18302 -5.08186,0.27337 l -0.25011,0.0139 v 0.0295 h -0.52762 -0.006 c -0.29728,0.0156 -0.58666,0.031 -0.88315,0.0465 l -0.2496,0.014 v 1.60558 h -1.17977 v -1.54512 l -0.27751,0.0155 c -1.6794,0.0866 -3.38422,0.16988 -5.08392,0.25425 l -0.25011,0.0134 v 1.7911 h 1.70893 v 1.68569 h 1.66605 v 1.13843 h -1.66605 v 1.66605 h -1.18132 v -1.66605 h -1.66605 v -1.66811 h -1.70739 v -1.68518 h -2.19521 v 1.68518 h -1.70894 v 2.19728 h 1.70894 v 1.66604 h 1.66605 v 1.66812 h 1.70894 v 1.156 h -1.70894 v 1.66605 h -1.66605 v 1.66811 h -1.70894 v 2.21692 h 1.70894 v 1.66605 h 2.19521 v -1.66605 h 1.70739 v -1.68775 h 1.66605 v -1.6676 h 1.18132 v 1.6676 h 1.66605 v 1.15859 h -1.66605 v 1.66604 h -1.70893 v 1.66554 h -1.66605 v 2.21692 h 1.66605 v 1.09398 l 0.2775,-0.0139 c 0.57157,-0.0284 1.13971,-0.0572 1.70894,-0.0858 l 0.25011,-0.0134 v -0.98081 h 1.66605 v -1.68724 h 1.70894 v -1.66605 h 1.17977 v 1.66605 h 1.66605 v 1.15807 h -1.66605 v 1.27951 l 0.27699,-0.014 c 2.8418,-0.14856 5.65411,-0.30153 8.41809,-0.45681 l 0.25011,-0.014 v -0.79478 h -1.66811 v -1.15807 h 1.66811 v -1.66606 h 1.17771 v 1.66606 h 1.66811 v 1.68724 h 1.70119 0.008 c 1.21689,-0.0716 2.45758,-0.14192 3.65456,-0.21498 l 0.24805,-0.0155 v -1.98644 h -1.66605 v -1.66605 h -1.70894 v -1.66606 h -1.70739 v -1.15807 h 1.70739 v -1.6676 h 1.17926 v 1.6676 h 1.66604 v 1.68775 h 1.70894 v 1.66605 h 2.19573 v -1.66605 h 1.70894 v -2.21692 h -1.70894 v -1.66811 h -1.66604 v -1.66605 h -1.70894 v -1.15807 h 1.70894 v -1.66606 h 1.66604 v -1.66604 h 1.70894 v -2.19728 h -1.70894 v -1.68569 h -2.19573 v 1.68569 h -1.70894 v 1.66811 h -1.66604 v 1.66606 h -1.17926 v -1.66606 h -1.70739 v -1.13895 h 1.70739 V 244.88 h 1.70894 v -1.66605 h 1.66605 z m -32.07969,1.70325 -0.27751,0.014 c -0.56991,0.0267 -1.13612,0.0536 -1.70687,0.0801 l -0.25425,0.0114 v 1.3069 h 2.23863 z m -10.12497,0.46096 -0.2775,0.0139 c -1.69565,0.0748 -3.385777,0.14792 -5.08186,0.22066 l -0.254248,0.0114 v 0.1757 h -1.177706 v -0.12454 l -0.275436,0.0114 c -1.126035,0.0479 -2.25075,0.0957 -3.374985,0.14262 l -0.253733,0.01 v 2.1761 h 1.708941 v 1.66811 h 1.666047 v 1.66605 h 1.706872 v 1.6676 h 1.668116 v 1.15652 h -1.668116 v 1.66604 H 96.33866 v 1.6676 h -1.666047 v 1.68776 h -1.708941 v 1.66604 h -1.13688 v -1.66604 h -1.708941 v -1.68776 h -1.666047 v -1.6676 h -1.708941 v -1.66604 h -1.708939 v -1.15652 h 1.708939 v -1.6676 h 1.708941 V 248.234 h 1.666047 v -1.66811 h 1.708941 v -2.12701 l -0.275437,0.0119 c -2.833473,0.11753 -5.650666,0.2294 -8.456848,0.34158 l -0.25373,0.0119 v 1.76166 h 1.666047 v 1.13843 h -1.666047 v 1.66605 h -1.179774 v -1.66605 h -1.666047 v -1.6676 h -1.708941 v -1.05472 l -0.275434,0.0114 c -0.563565,0.0221 -1.103884,0.0406 -1.66605,0.0625 l -0.25373,0.0103 v 0.97049 H 74.38186 v 2.19728 h 1.708941 v 1.66605 h 1.666047 v 1.66812 h 1.708941 v 1.156 h -1.708941 v 1.66604 h -1.666047 v 1.66812 H 74.38186 v 2.2164 h 1.708941 v 1.66605 h 2.195214 v -1.66605 h 1.708941 v -1.68723 h 1.666047 v -1.66812 h 1.179774 v 1.66812 h 1.666047 v 1.15807 h -1.666047 v 1.66604 h -1.708941 v 1.66605 h -1.666047 v 2.21692 h 1.666047 v 1.66812 h 2.236039 v -1.66812 h 1.666049 v -1.68775 h 1.708939 v -1.66605 h 1.179774 v 1.66605 h 1.666047 v 1.15858 h -1.666047 v 1.6676 h -1.708941 v 1.53324 l 0.275436,-0.0114 c 1.693506,-0.0687 3.381701,-0.13662 5.083927,-0.20722 l 0.253733,-0.0119 v -0.77308 h 1.13688 v 0.72657 l 0.275436,-0.0119 c 1.693056,-0.0708 3.38745,-0.14221 5.083927,-0.21497 l 0.252182,-0.0114 v -1.01803 h -1.707391 v -1.6676 H 95.20178 v -1.15858 h 1.666046 v -1.66553 h 1.177706 v 1.66553 h 1.668116 v 1.68775 h 1.708932 v 1.66812 h 2.23656 v -1.66812 h 1.6676 v -2.21702 h -1.6676 v -1.66605 h -1.70739 v -1.66604 h -1.70894 v -1.15807 h 1.70894 v -1.66812 h 1.17771 v 1.66812 h 1.66811 v 1.68775 h 1.70688 v 1.66605 h 2.19573 v -1.66605 h 1.70894 v -2.21692 h -1.70894 v -1.66812 h -1.66605 v -1.66604 h -1.70739 v -1.156 h 1.70739 v -1.66812 h 1.66605 v -1.66605 h 1.70894 v -2.19728 h -1.70894 v -1.68569 h -2.19573 v 1.68569 h -1.70688 v 1.66812 h -1.66811 v 1.66604 h -1.17771 v -1.66604 h -1.70894 v -1.13895 h 1.70894 v -1.68517 h 1.70739 z m 94.04646,0.42168 v 0.26407 1.42162 h -1.70688 v 2.19728 h 1.70688 v 1.66604 h 1.66811 v 1.66812 h 0.8909 v -5.53144 h -0.36173 v -1.68569 z m -65.33968,0.52969 h 1.13688 v 1.68517 h 1.70687 v 1.66811 h 1.66811 v 1.66604 h 1.70688 v 1.66812 h 1.66811 v 1.156 h -1.66811 v 1.66606 h -1.70688 v 1.66811 h -1.66811 v 1.68723 h -1.70687 v 1.66606 h -1.13688 v -1.66606 h -1.70894 v -1.68723 h -1.66605 v -1.66811 h -1.70894 v -1.66606 h -1.70894 v -1.156 h 1.70894 v -1.66812 h 1.70894 v -1.66604 h 1.66605 v -1.66811 h 1.70894 z m 40.53705,0 h 1.13689 v 1.68517 h 1.70894 v 1.66811 h 1.66811 v 1.66604 h 1.70687 v 1.66812 h 1.66812 v 1.156 h -1.66812 v 1.66606 h -1.70687 v 1.66811 h -1.66811 v 1.68723 h -1.70894 v 1.66606 h -1.13689 v -1.66606 h -1.70687 v -1.68723 h -1.66811 v -1.66811 h -1.70688 v -1.66606 h -1.70893 v -1.156 h 1.70893 v -1.66812 h 1.70688 v -1.66604 h 1.66811 v -1.66811 h 1.70687 z m -104.73985,0.49196 -0.275437,0.0103 c -0.549462,0.0208 -1.120274,0.0435 -1.666046,0.0641 l -0.2558,0.0103 v 0.57981 h -1.70739 v 1.66812 H 62.59085 v 1.66604 h -1.178224 v -1.66604 h -1.708939 v -1.13895 h 1.708939 v -0.93741 l -0.274918,0.0103 c -3.066093,0.11438 -5.521783,0.20415 -8.457364,0.31213 l -0.255799,0.0103 v 0.60513 h 1.708941 v 1.66811 h 1.666047 v 1.66606 h 1.708941 v 1.66811 h 1.666047 v 1.156 h -1.666047 v 1.66605 h -1.708941 v 1.66812 h -1.666047 v 1.68723 h -1.708941 v 1.66605 h -1.136881 v -1.66605 h -1.708941 v -1.68723 h -1.666046 v -1.66812 h -1.708942 v -1.66605 h -1.706872 v -1.156 h 1.706872 v -1.66811 h 1.708942 v -1.66606 h 1.666046 v -2.16783 l -0.273367,0.01 c -1.728102,0.0634 -3.415792,0.12641 -5.083929,0.18759 l -0.25373,0.01 v 1.43196 H 42.30165 v 1.66606 h -1.179774 v -1.66606 h -1.666047 v -1.26401 l -0.275437,0.0103 c -1.60306,0.059 -3.550864,0.13063 -5.08186,0.18758 l -0.255799,0.01 v 1.58595 h 1.708941 v 1.66605 h 1.666047 v 1.66812 h 1.708941 v 1.156 h -1.708941 v 1.66605 h -1.666047 v 1.66812 h -1.708941 v 2.21639 h 1.708941 v 1.66606 h 2.195214 v -1.66606 h 1.708941 v -1.68723 h 1.666047 v -1.66811 h 1.179774 v 1.66811 h 1.666047 v 1.15808 H 42.30165 v 1.66605 h -1.708941 v 1.66605 h -1.666047 v 2.21691 h 1.666047 v 1.66812 h 2.238108 v -1.66812 h 1.666046 v -1.68775 h 1.706872 v -1.66605 h 1.179775 v 1.66605 h 1.666047 v 1.1586 H 47.38351 v 1.66758 h -1.708941 v 1.66606 h -1.706872 v 1.47278 l 0.273367,-0.01 c 1.668426,-0.0612 3.356113,-0.12419 5.083929,-0.18758 l 0.25373,-0.0103 v -0.73587 h 1.708941 v -1.66606 h 1.136881 v 1.66606 h 1.708941 v 0.56791 l 0.273367,-0.01 c 1.766851,-0.0651 3.229846,-0.12018 5.043104,-0.18758 l 0.25373,-0.01 v -0.8909 H 58.03764 v -1.66605 h -1.708941 v -1.6676 h -1.666047 v -1.15858 h 1.666047 v -1.66553 h 1.179775 v 1.66553 h 1.666047 v 1.68775 h 1.708938 v 1.66811 h 2.236557 v -1.66811 h 1.667598 v -2.21692 h -1.667598 v -1.66605 h -1.70739 v -1.66605 h -1.708939 v -1.15808 h 1.708939 v -1.66811 h 1.178224 v 1.66811 h 1.667597 v 1.68776 h 1.70739 v 1.66606 h 2.197283 v -1.66606 h 1.706872 v -2.21691 H 68.16312 v -1.66812 h -1.668116 v -1.66605 h -1.70739 v -1.15601 h 1.70739 v -1.66811 h 1.668116 v -1.66606 h 1.706872 v -2.19728 H 68.16312 Z m -16.875456,0.63095 -0.27337,0.01 c -0.212584,0.007 -0.408884,0.0161 -0.617016,0.0238 h -0.04082 v 0.002 c -0.0033,1.4e-4 -0.0064,-1.2e-4 -0.0098,0 l 0.0098,0.52763 h 0.0098 0.921392 z m -21.956799,0.81443 -0.27337,0.01 c -1.808681,0.0685 -3.410449,0.13409 -5.083926,0.19946 l -0.254248,0.01 v 0.66818 h -1.667599 v 1.66605 H 20.874017 V 247.705 h -1.70894 v -0.49248 l -0.275435,0.0119 c -1.789458,0.0731 -3.473578,0.14373 -5.043103,0.2129 l -0.252181,0.0119 v 0.78496 h 1.668115 v 1.66606 h 1.706872 v 1.66811 h 1.666048 v 1.156 h -1.666048 v 1.66605 h -1.706872 v 1.66811 h -1.668115 v 1.68725 h -1.70894 v 1.66605 h -1.136365 v -1.66605 H 9.0395967 v -1.68725 H 7.3735486 v -1.6681 H 5.666676 v -1.66605 H 3.9577365 v -1.156 H 5.666676 v -1.66812 H 7.3735486 V 247.75 l -0.2790529,0.0155 c -2.1273126,0.11537 -3.8992365,0.22582 -5.0896116,0.33019 l -0.2423625,0.0212 v 1.25418 H 0.58274864 v -1.12913 l -0.31832682,0.0667 c -0.0995368,0.0209 -0.18619423,0.0414 -0.2635497903,0.0682 -0.0386777897,0.0134 -0.0733563197,0.0257 -0.1193725597,0.0548 -0.0460162,0.0291 -0.14831134,0.0928 -0.14831134,0.25373 v 7.90236 h 0.84956051 v -1.66812 H 1.7625216 v 1.66812 h 1.6660483 v 1.15807 H 1.7625216 v 1.66604 H 0.05358199 v 1.66605 h -0.32039386 v 2.21692 h 0.32039386 v 1.66812 H 2.2916883 v -1.66812 h 1.6660482 v -1.68775 H 5.666676 v -1.66605 h 1.1777059 v 1.66605 h 1.6660482 v 1.15858 H 6.8443819 v 1.6676 H 5.1375094 v 1.66605 H 3.4285699 v 2.21692 h 1.7089395 v 0.85731 l 0.2790526,-0.0155 c 0.5141454,-0.0306 1.1240045,-0.0639 1.7073895,-0.0956 l 0.2495971,-0.014 v -0.73225 h 1.6660481 v -1.68724 h 1.7094563 v -1.66604 h 1.136365 v 1.66604 h 1.70894 v 1.68724 h 1.668115 v 0.35967 l 0.275435,-0.0119 c 0.565539,-0.0242 1.115784,-0.0476 1.706873,-0.0723 l 0.254248,-0.01 v -0.26562 h 1.666048 v -2.21692 h -1.666048 v -1.66605 h -1.70739 v -1.66811 h -1.667598 v -1.15807 h 1.667598 v -1.66605 h 1.177706 v 1.66605 h 1.666048 v 1.68724 h 1.70894 v 1.66604 h 2.236556 v -1.66604 h 1.668115 v -2.21665 h -1.668115 v -1.66605 h -1.706872 v -1.66604 h -1.70894 v -1.15807 h 1.70894 v -1.66812 h 1.177705 v 1.66812 h 1.667599 v 1.68723 h 1.708939 v 1.66605 h 2.195733 v -1.66605 h 1.706872 v -2.21692 h -1.706872 v -1.6676 h -1.668116 v -1.66604 h -1.706873 v -1.15859 h 1.706873 v -1.66605 h 1.668116 v -1.66553 h 1.706872 z m -20.2912683,0.84181 -0.2769856,0.0155 c -0.1971046,0.01 -0.3667609,0.0197 -0.5550048,0.0295 -0.00463,2.3e-4 -0.00878,-2.4e-4 -0.013436,0 l 0.013436,0.52917 h 0.013953 0.8180379 z m 1.1797733,1.71101 v 0.26355 1.40406 H 8.5104301 v 2.21485 H 10.21937 v 1.66605 h 2.195215 v -1.66605 h 1.709456 v -2.21485 h -1.709456 v -1.6676 z m 20.249926,0 v 0.26355 1.40406 h -1.667598 v 2.21485 h 1.667598 v 1.66605 h 2.236557 v -1.66605 h 1.668116 v -2.21485 h -1.668116 v -1.6676 z m 20.289202,0 v 0.26355 1.40406 h -1.708941 v 2.21485 h 1.708941 v 1.66605 h 2.195213 v -1.66605 h 1.708941 v -2.21485 h -1.708941 v -1.6676 z m 20.248374,0 v 0.26355 1.40406 h -1.666047 v 2.21485 h 1.666047 v 1.66605 h 2.238108 v -1.66605 h 1.666047 v -2.21485 H 73.24498 v -1.6676 z m 20.290753,0 v 0.26355 1.40406 h -1.708941 v 2.21485 h 1.708941 v 1.66605 h 2.195213 v -1.66605 h 1.708942 v -2.21485 h -1.708942 v -1.6676 z m 20.247855,0 v 0.26355 1.40406 h -1.66605 v 2.21485 h 1.66605 v 1.66605 h 2.23863 v -1.66605 h 1.66604 v -2.21485 h -1.66604 v -1.6676 z m 20.29127,0 v 0.26355 1.40406 h -1.70894 v 2.21485 h 1.70894 v 1.66605 h 2.19521 v -1.66605 h 1.70688 v -2.21485 h -1.70688 v -1.6676 z m 20.24786,0 v 0.26355 1.40406 h -1.66605 v 2.21485 h 1.66605 v 1.66605 h 2.23862 v -1.66605 h 1.66605 v -2.21485 h -1.66605 v -1.6676 z m 20.2892,0 v 0.26355 1.40406 h -1.70687 v 2.21485 h 1.70687 v 1.66605 h 2.19521 v -1.66605 h 1.70894 v -2.21485 h -1.70894 v -1.6676 z m 20.24993,0 v 0.26355 1.40406 h -1.66605 v 2.21485 h 1.66605 v 1.66605 h 2.23655 v -1.66605 h 1.6676 v -2.21485 h -1.6676 v -1.6676 z m 6.74997,3.35328 v 0.26563 1.40043 h -1.66811 v 1.66811 h -1.70688 v 1.89653 l 0.33228,-0.0879 c 1.21798,-0.3203 2.16319,-0.64749 2.82774,-0.99839 0.33227,-0.17545 0.59718,-0.35698 0.7891,-0.56017 0.19192,-0.20318 0.31678,-0.44282 0.31677,-0.70125 v -2.88303 z m -166.667857,6.68693 -2.236557,5.2e-4 v 0.26561 1.40044 h -1.667598 v 1.68776 h -1.70739 v 1.6676 H 25.42826 v 1.66604 h -1.708939 v 2.21692 h 0.488342 0.0062 c 1.607653,-0.0627 3.133055,-0.12362 4.863268,-0.18914 l 0.253733,-0.0103 v -1.48829 h 1.668116 v -1.6661 h 1.177705 v 1.66606 h 1.667598 v 1.31826 l 0.273886,-0.0114 c 1.530776,-0.0569 3.479048,-0.12856 5.08186,-0.18759 l 0.255799,-0.01 v -1.63865 h -1.66605 v -1.66606 H 36.08084 v -1.66811 h -1.706872 v -1.68775 h -1.668116 z m 40.539127,0 -2.238108,5.2e-4 v 0.26561 1.40044 h -1.666047 v 1.68776 h -1.70739 v 1.6676 h -1.667598 v 1.66604 h -1.70739 v 0.72089 l 0.27337,-0.01 c 2.199002,-0.0827 4.503936,-0.17389 6.749976,-0.25994 l 0.254246,-0.01 v -1.5782 h 1.179774 v 1.53325 l 0.275434,-0.0119 c 1.699398,-0.0655 3.361563,-0.12791 5.08186,-0.19534 l 0.253733,-0.01 v -1.84588 h -1.706872 v -1.66812 h -1.708941 v -1.68723 H 73.24498 Z m 38.3005,5.2e-4 v 0.26561 1.40044 h -1.66605 v 1.68776 h -1.70894 v 1.6676 h -1.66604 v 0.67023 l 0.2775,-0.0119 c 3.39206,-0.15244 6.76941,-0.30999 10.12496,-0.47077 l 0.25011,-0.0114 v -1.84381 h -1.70687 v -1.68774 h -1.66604 v -1.66605 z m 40.53913,0 v 0.26561 1.40044 h -1.66605 v 1.69758 l 0.28164,-0.0196 c 1.69704,-0.10964 3.40062,-0.21951 5.04258,-0.33228 l 0.2465,-0.0155 V 261.077 h -1.66605 v -1.66605 z"
       style="opacity:1;vector-effect:none;fill:url(#linearGradient2652);fill-opacity:1;fill-rule:nonzero;stroke:none;stroke-width:0.41111645;stroke-linecap:butt;stroke-linejoin:miter;stroke-miterlimit:4;stroke-dasharray:none;stroke-dashoffset:0;stroke-opacity:1" />
    <path
       style="opacity:1;vector-effect:none;fill:url(#linearGradient2656);fill-opacity:1;fill-rule:nonzero;stroke:none;stroke-width:0.41111645;stroke-linecap:butt;stroke-linejoin:miter;stroke-miterlimit:4;stroke-dasharray:none;stroke-dashoffset:0;stroke-opacity:1"
       d="m 199.94532,262.519 -0.44545,0.41237 c -0.44369,0.41093 -1.59556,0.89672 -3.30264,1.34565 l -0.19741,0.0527 v 1.02526 h -1.66811 v 1.66605 H 193.154 v -1.66605 h -1.66604 v -0.0992 l -0.30851,0.0506 c -1.03529,0.17348 -2.17159,0.34509 -3.36879,0.51366 l -0.22686,0.031 v 1.69912 h 1.66605 v 1.68774 h 1.70894 v 1.66812 h 1.66605 v 1.66604 h 2.23655 v -1.66604 h 1.6676 v -1.66812 h 1.70739 v -1.68774 h 1.70894 v -1.66553 h 0.32039 v -2.19574 h -0.32039 z m -20.29127,4.2912 -0.293,0.031 c -0.58674,0.0619 -1.30561,0.11864 -1.91203,0.17983 h -0.031 v 0.004 c -2.59366,0.26153 -5.24065,0.51966 -8.17418,0.7674 l -0.24391,0.0217 v 1.42369 h 1.66812 v 1.13894 h -1.66812 v 1.66553 h -1.17771 v -1.66553 h -1.70893 v -1.66811 h -1.66605 v -0.52761 l -0.28526,0.0217 c -0.56438,0.0437 -1.13296,0.0874 -1.70687,0.13073 l -0.24443,0.0176 v 0.3576 h -1.6676 v 2.19729 h 1.6676 v 1.66605 h 1.70739 v 1.68568 h 1.66605 v 1.13844 h -1.66605 v 1.66604 h -1.17771 v -1.66604 h -1.66811 v -1.66812 h -1.70687 v -1.68518 h -2.19729 v 1.68518 h -1.70738 v 2.19728 h 1.70738 v 1.66605 h 1.6676 v 1.66811 h 1.70739 v 1.15601 h -1.70739 v 1.66605 h -1.6676 v 1.66811 h -1.70738 v 2.21692 h 1.70738 v 1.66605 h 2.19729 v -1.66605 h 1.70687 v -1.68775 h 1.66811 v -1.6676 h 1.17771 v 1.6676 h 1.66605 v 1.15859 h -1.66605 v 1.66553 h -1.70739 v 1.66605 h -1.6676 v 1.00614 l 0.28474,-0.0196 c 1.72163,-0.12674 3.40278,-0.25599 5.0431,-0.38655 l 0.24237,-0.0196 v -0.0506 h 0.62115 0.0114 c 0.27865,-0.0225 0.55789,-0.046 0.83406,-0.0687 l 0.24236,-0.0191 v -1.5782 h 1.17771 v 1.48053 l 0.28732,-0.0238 c 2.97914,-0.25159 5.78997,-0.51148 8.42171,-0.7772 l 0.23823,-0.0233 v -0.65629 h 1.1777 v 0.53537 l 0.29301,-0.0315 c 1.57226,-0.16588 3.0754,-0.33441 4.49585,-0.50592 l -0.031,-0.52711 h -0.85369 v -1.66603 h -1.70687 v -1.15808 h 1.70687 v -1.66811 h 1.1777 v 1.66811 h 1.66812 v 1.68723 h 1.70894 v 1.18754 l 0.30076,-0.0408 c 0.56881,-0.0801 1.135,-0.16082 1.67018,-0.24236 l 0.22427,-0.0351 v -0.8692 h 1.70946 v -2.21692 h -1.70946 v -1.6676 h -1.66553 v -1.66604 h -1.70945 v -1.15652 h 1.70945 v -1.66812 h 1.66553 v -1.66553 h 1.70946 v -2.19728 h -1.70946 v -1.68569 h -2.19521 v 1.68569 h -1.70894 v 1.6676 h -1.66812 v 1.66605 h -1.1777 v -1.66605 h -1.70687 v -1.13843 h 1.70687 v -1.68569 h 1.70739 v -1.66605 h 1.6676 v -2.19728 h -1.6676 v -1.68723 h -2.23656 v 1.68723 H 180.793 v 1.66812 h -1.66812 v 1.66604 h -1.1777 v -1.66604 h -1.66812 v -1.13895 h 1.66812 v -1.68724 h 1.70687 z m -21.9568,1.86914 -0.28525,0.0217 c -0.0339,0.003 -0.0661,0.006 -0.0977,0.008 -0.004,2.5e-4 -0.009,-2.2e-4 -0.014,0 l 0.004,0.12919 0.0139,-0.0139 0.003,0.1483 c -0.003,1.4e-4 -0.005,3.9e-4 -0.008,5.2e-4 h 0.008 l 0.003,0.13642 -0.0134,-0.0119 0.004,0.14056 h 0.0134 0.36897 z m -1.70687,0.11938 -0.2837,0.0191 c -1.64034,0.11268 -3.34181,0.22263 -5.03897,0.33228 l -0.24805,0.0155 v 1.74047 h 1.66605 v 1.66605 h 2.23862 v -1.66605 h 1.66605 z m 1.1777,0.16587 v 0.008 l 0.004,-0.004 z m -11.30318,0.49196 -0.27905,0.0176 c -1.66139,0.10142 -3.37919,0.19838 -5.08186,0.29715 l -0.25012,0.0155 v 0.59015 h -1.66811 v 1.66552 h -1.17771 v -1.66552 h -1.66811 v -0.33228 l -0.27906,0.0155 c -1.67612,0.0928 -3.3771,0.18302 -5.08186,0.27337 l -0.25011,0.0139 v 0.0295 h -0.52762 -0.006 c -0.29728,0.0156 -0.58666,0.031 -0.88315,0.0465 l -0.2496,0.014 v 1.60557 h -1.17977 v -1.54512 l -0.27751,0.0155 c -1.6794,0.0866 -3.38422,0.16987 -5.08392,0.25424 l -0.25011,0.0134 v 1.79109 h 1.70893 v 1.68569 h 1.66605 v 1.13843 h -1.66605 v 1.66605 h -1.18132 v -1.66605 h -1.66605 v -1.66811 h -1.70739 v -1.68518 h -2.19521 v 1.68518 h -1.70894 v 2.19728 h 1.70894 v 1.66605 h 1.66605 v 1.66811 h 1.70894 v 1.15601 h -1.70894 v 1.66604 h -1.66605 v 1.66812 h -1.70894 v 2.21692 h 1.70894 v 1.66605 h 2.19521 v -1.66605 h 1.70739 v -1.68775 h 1.66605 v -1.6676 h 1.18132 v 1.6676 h 1.66605 v 1.15859 h -1.66605 v 1.66604 h -1.70893 v 1.66554 h -1.66605 v 2.21692 h 1.66605 v 1.09398 l 0.2775,-0.0139 c 0.57157,-0.0284 1.13971,-0.0572 1.70894,-0.0858 l 0.25011,-0.0134 v -0.98081 h 1.66605 v -1.68724 h 1.70894 v -1.66605 h 1.17977 v 1.66605 h 1.66605 v 1.15807 h -1.66605 v 1.27951 l 0.27699,-0.014 c 2.8418,-0.14856 5.65411,-0.30153 8.41809,-0.45681 l 0.25011,-0.014 v -0.79478 h -1.66811 v -1.15807 h 1.66811 v -1.66606 h 1.17771 v 1.66606 h 1.66811 v 1.68724 h 1.70119 0.008 c 1.21689,-0.0716 2.45758,-0.14192 3.65456,-0.21498 l 0.24805,-0.0155 v -1.98644 h -1.66605 v -1.66605 h -1.70894 v -1.66606 h -1.70739 v -1.15807 h 1.70739 v -1.6676 h 1.17926 v 1.6676 h 1.66604 v 1.68775 h 1.70894 v 1.66605 h 2.19573 v -1.66605 h 1.70894 v -2.21692 h -1.70894 v -1.66812 h -1.66604 v -1.66605 h -1.70894 v -1.15807 h 1.70894 v -1.66606 h 1.66604 v -1.66604 h 1.70894 v -2.19728 h -1.70894 v -1.68569 h -2.19573 v 1.68569 h -1.70894 v 1.66812 h -1.66604 v 1.66605 h -1.17926 v -1.66605 h -1.70739 v -1.13896 h 1.70739 v -1.68518 h 1.70894 v -1.66605 h 1.66605 z m -32.07969,1.70325 -0.27751,0.014 c -0.56991,0.0267 -1.13612,0.0536 -1.70687,0.0801 l -0.25425,0.0114 v 1.3069 h 2.23863 z m -10.12497,0.46096 -0.2775,0.0139 c -1.69565,0.0748 -3.385776,0.14792 -5.081859,0.22066 l -0.254248,0.0114 v 0.1757 h -1.177706 v -0.12454 l -0.275436,0.0114 c -1.126035,0.0479 -2.25075,0.0957 -3.374985,0.14262 l -0.253733,0.01 v 2.17611 h 1.708941 v 1.6681 h 1.666047 v 1.66606 h 1.706872 v 1.6676 h 1.668116 v 1.15652 h -1.668116 v 1.66604 h -1.706872 v 1.6676 h -1.666047 v 1.68776 h -1.708941 v 1.66604 h -1.13688 v -1.66604 h -1.708941 v -1.68776 h -1.666047 v -1.6676 h -1.708941 v -1.66604 h -1.708939 v -1.15652 h 1.708939 v -1.6676 h 1.708941 v -1.66606 h 1.666047 v -1.6681 h 1.708941 v -2.12702 l -0.275437,0.0119 c -2.833473,0.11753 -5.650666,0.2294 -8.456848,0.34158 l -0.25373,0.0119 v 1.76166 h 1.666047 v 1.13843 h -1.666047 v 1.66605 h -1.179774 v -1.66605 h -1.666047 v -1.6676 h -1.708941 v -1.05472 l -0.275434,0.0114 c -0.563565,0.0221 -1.103884,0.0406 -1.66605,0.0625 l -0.25373,0.0103 v 0.97049 h -1.708941 v 2.19728 h 1.708941 v 1.66606 h 1.666047 v 1.66811 h 1.708941 v 1.15601 h -1.708941 v 1.66604 h -1.666047 v 1.66812 h -1.708941 v 2.2164 h 1.708941 v 1.66605 h 2.195214 v -1.66605 h 1.708941 v -1.68723 h 1.666047 v -1.66812 h 1.179774 v 1.66812 h 1.666047 v 1.15807 h -1.666047 v 1.66604 h -1.708941 v 1.66605 H 79.46689 v 2.21692 h 1.666047 v 1.66812 h 2.236039 v -1.66812 h 1.666049 v -1.68775 h 1.708939 v -1.66605 h 1.179774 v 1.66605 h 1.666047 v 1.15858 h -1.666047 v 1.6676 h -1.708941 v 1.53323 l 0.275436,-0.0114 c 1.693506,-0.0687 3.381701,-0.13662 5.083927,-0.20722 l 0.253733,-0.0119 v -0.77308 h 1.13688 v 0.72657 l 0.275436,-0.0119 c 1.693056,-0.0708 3.38745,-0.14221 5.083927,-0.21497 l 0.252182,-0.0114 v -1.01803 h -1.707391 v -1.6676 h -1.666046 v -1.15858 h 1.666046 v -1.66552 h 1.177706 v 1.66552 h 1.668116 v 1.68775 h 1.708931 v 1.66812 h 2.23656 v -1.66812 h 1.6676 v -2.21702 h -1.6676 v -1.66604 h -1.70739 v -1.66604 h -1.70894 v -1.15808 h 1.70894 v -1.66811 h 1.17771 v 1.66811 h 1.66811 v 1.68775 h 1.70688 v 1.66605 h 2.19573 v -1.66605 h 1.70894 v -2.21692 h -1.70894 v -1.66812 h -1.66605 v -1.66604 h -1.70739 v -1.156 h 1.70739 v -1.66812 h 1.66605 v -1.66605 h 1.70894 v -2.19728 h -1.70894 v -1.68569 h -2.19573 v 1.68569 h -1.70688 v 1.66812 h -1.66811 v 1.66604 h -1.17771 v -1.66604 h -1.70894 v -1.13895 h 1.70894 v -1.68517 h 1.70739 z m 94.04646,0.42168 v 0.26407 1.42162 h -1.70688 v 2.19728 h 1.70688 v 1.66604 h 1.66811 v 1.66812 h 0.8909 v -5.53144 h -0.36173 v -1.68569 z m -65.33968,0.52969 h 1.13688 v 1.68517 h 1.70687 v 1.66811 h 1.66811 v 1.66604 h 1.70688 v 1.66812 h 1.66811 v 1.156 h -1.66811 v 1.66606 h -1.70688 v 1.66811 h -1.66811 v 1.68723 h -1.70687 v 1.66606 h -1.13688 v -1.66606 h -1.70894 v -1.68723 h -1.66605 v -1.66811 h -1.70894 v -1.66606 h -1.70894 v -1.156 h 1.70894 v -1.66812 h 1.70894 v -1.66604 h 1.66605 v -1.66811 h 1.70894 z m 40.53705,0 h 1.13689 v 1.68517 h 1.70894 v 1.66811 h 1.66811 v 1.66604 h 1.70687 v 1.66812 h 1.66812 v 1.156 h -1.66812 v 1.66606 h -1.70687 v 1.66811 h -1.66811 v 1.68723 h -1.70894 v 1.66606 h -1.13689 v -1.66606 h -1.70687 v -1.68723 h -1.66811 v -1.66811 h -1.70688 v -1.66606 h -1.70893 v -1.156 h 1.70893 v -1.66812 h 1.70688 v -1.66604 h 1.66811 v -1.66811 h 1.70687 z m -104.739849,0.49196 -0.275437,0.0103 c -0.549462,0.0208 -1.120274,0.0435 -1.666046,0.0641 l -0.2558,0.0103 v 0.57982 h -1.70739 v 1.66811 h -1.667597 v 1.66605 h -1.178224 v -1.66605 h -1.708939 v -1.13895 h 1.708939 v -0.93741 l -0.274918,0.0103 c -3.066093,0.11438 -5.521783,0.20415 -8.457364,0.31213 l -0.255799,0.0103 v 0.60513 h 1.708941 v 1.66811 h 1.666047 v 1.66606 h 1.708941 v 1.66811 h 1.666047 v 1.15601 h -1.666047 v 1.66605 h -1.708941 v 1.66811 h -1.666047 v 1.68723 h -1.708941 v 1.66605 h -1.136881 v -1.66605 h -1.708941 v -1.68723 h -1.666046 v -1.66811 h -1.708942 v -1.66605 h -1.706872 v -1.15601 h 1.706872 v -1.66811 h 1.708942 v -1.66606 h 1.666046 v -2.16782 l -0.273367,0.01 c -1.728102,0.0634 -3.415792,0.12641 -5.083929,0.18759 l -0.25373,0.01 v 1.43196 h -1.666047 v 1.66606 h -1.179774 v -1.66606 H 39.45693 v -1.26401 l -0.275437,0.0103 c -1.60306,0.059 -3.550864,0.13063 -5.08186,0.18758 l -0.255799,0.01 v 1.58595 h 1.708941 v 1.66605 h 1.666047 v 1.66812 h 1.708941 v 1.156 h -1.708941 v 1.66605 h -1.666047 v 1.66812 h -1.708941 v 2.21639 h 1.708941 v 1.66606 h 2.195214 v -1.66606 h 1.708941 v -1.68723 h 1.666047 v -1.66811 h 1.179774 v 1.66811 h 1.666047 v 1.15808 h -1.666047 v 1.66605 H 40.59381 v 1.66605 h -1.666047 v 2.21691 h 1.666047 v 1.66812 h 2.238108 v -1.66812 h 1.666046 v -1.68775 h 1.706872 v -1.66605 h 1.179775 v 1.66605 h 1.666047 v 1.1586 h -1.666047 v 1.66758 H 45.67567 v 1.66606 h -1.706872 v 1.47278 l 0.273367,-0.01 c 1.668426,-0.0612 3.356113,-0.12419 5.083929,-0.18758 l 0.25373,-0.0103 v -0.73587 h 1.708941 v -1.66606 h 1.136881 v 1.66606 h 1.708941 v 0.56791 l 0.273367,-0.01 c 1.766851,-0.0651 3.229846,-0.12018 5.043104,-0.18758 l 0.25373,-0.01 v -0.8909 h -1.666047 v -1.66605 H 56.3298 v -1.6676 h -1.666047 v -1.15858 H 56.3298 v -1.66553 h 1.179775 v 1.66553 h 1.666047 v 1.68775 h 1.708938 v 1.66811 h 2.236557 v -1.66811 h 1.667598 v -2.21692 h -1.667598 v -1.66605 h -1.70739 v -1.66605 h -1.708939 v -1.15808 h 1.708939 v -1.66811 h 1.178224 v 1.66811 h 1.667597 v 1.68777 h 1.70739 v 1.66606 h 2.197283 v -1.66606 h 1.706872 v -2.21691 h -1.706872 v -1.66812 h -1.668116 v -1.66606 h -1.70739 v -1.156 h 1.70739 v -1.66812 h 1.668116 v -1.66606 h 1.706872 v -2.19727 h -1.706872 z m -16.875456,0.63095 -0.27337,0.01 c -0.212584,0.007 -0.408884,0.0161 -0.617016,0.0238 h -0.04082 v 0.002 c -0.0033,1.4e-4 -0.0064,-1.2e-4 -0.0098,0 l 0.0098,0.52763 h 0.0098 0.921392 z m -21.956799,0.81443 -0.27337,0.01 c -1.808681,0.0685 -3.410449,0.13409 -5.083926,0.19946 l -0.254248,0.01 v 0.66818 h -1.667599 v 1.66605 h -1.177705 v -1.66605 h -1.70894 v -0.49248 l -0.275435,0.0119 c -1.789458,0.0731 -3.473578,0.14374 -5.043103,0.2129 l -0.252181,0.0119 v 0.78495 h 1.668115 v 1.66606 h 1.706872 v 1.66811 h 1.666048 v 1.15601 h -1.666048 v 1.66605 h -1.706872 v 1.66811 h -1.668115 v 1.68725 h -1.70894 v 1.66604 h -1.136365 v -1.66604 H 9.0406976 v -1.68725 H 7.3746495 v -1.6681 H 5.6677769 v -1.66606 H 3.9588374 v -1.156 h 1.7089395 v -1.66812 h 1.7068726 v -2.15024 l -0.2790529,0.0155 c -2.1273126,0.11537 -3.8992365,0.22582 -5.0896116,0.33018 l -0.2423625,0.0212 v 1.25418 H 0.58384957 v -1.12913 l -0.31832682,0.0667 c -0.0995368,0.0209 -0.18619423,0.0414 -0.26354979,0.0682 -0.03867779,0.0134 -0.07335632,0.0257 -0.11937256,0.0548 -0.0460162,0.0291 -0.14831134,0.0928 -0.14831134,0.25373 v 7.90236 h 0.84956051 v -1.66812 H 1.7636225 v 1.66812 h 1.6660483 v 1.15807 H 1.7636225 v 1.66604 H 0.05468292 V 288.77 h -0.32039386 v 2.21692 h 0.32039386 v 1.66812 H 2.2927892 v -1.66812 h 1.6660482 v -1.68775 h 1.7089395 v -1.66605 h 1.1777059 v 1.66605 H 8.511531 v 1.15858 H 6.8454828 v 1.6676 H 5.1386103 v 1.66605 H 3.4296708 v 2.21692 h 1.7089395 v 0.85731 l 0.2790526,-0.0155 c 0.5141454,-0.0306 1.1240045,-0.0639 1.7073895,-0.0956 l 0.2495971,-0.014 v -0.73225 h 1.6660481 v -1.68724 H 10.750154 V 292.655 h 1.136365 v 1.66604 h 1.70894 v 1.68724 h 1.668115 v 0.35967 l 0.275435,-0.0119 c 0.565539,-0.0242 1.115784,-0.0476 1.706873,-0.0723 l 0.254248,-0.01 v -0.26562 h 1.666048 v -2.21691 H 17.50013 v -1.66605 h -1.70739 v -1.66811 h -1.667598 v -1.15807 h 1.667598 v -1.66605 h 1.177706 v 1.66605 h 1.666048 v 1.68723 h 1.70894 v 1.66604 h 2.236556 v -1.66604 h 1.668115 v -2.21665 H 22.58199 v -1.66605 h -1.706872 v -1.66604 h -1.70894 v -1.15807 h 1.70894 v -1.66812 h 1.177705 v 1.66812 h 1.667599 v 1.68723 h 1.708939 v 1.66605 h 2.195733 v -1.66605 h 1.706872 v -2.21692 h -1.706872 v -1.6676 h -1.668116 v -1.66604 h -1.706873 v -1.15859 h 1.706873 v -1.66605 h 1.668116 v -1.66553 h 1.706872 z m -20.2912684,0.84181 -0.2769856,0.0155 c -0.1971046,0.01 -0.3667609,0.0197 -0.5550048,0.0295 -0.00463,2.3e-4 -0.00878,-2.4e-4 -0.013436,0 l 0.013436,0.52916 h 0.013953 0.8180379 z m 1.1797734,1.71101 v 0.26355 1.40406 h -1.70894 v 2.21485 h 1.70894 v 1.66606 h 2.195215 v -1.66606 h 1.709456 v -2.21485 h -1.709456 v -1.6676 z m 20.249926,0 v 0.26355 1.40406 h -1.667598 v 2.21485 h 1.667598 v 1.66606 h 2.236557 v -1.66606 h 1.668116 v -2.21485 h -1.668116 v -1.6676 z m 20.289202,0 v 0.26355 1.40406 h -1.708941 v 2.21485 h 1.708941 v 1.66606 h 2.195213 v -1.66606 h 1.708941 v -2.21485 h -1.708941 v -1.6676 z m 20.248374,0 v 0.26355 1.40406 h -1.666047 v 2.21485 h 1.666047 v 1.66606 h 2.238108 v -1.66606 h 1.666047 v -2.21485 h -1.666047 v -1.6676 z m 20.290753,0 v 0.26355 1.40406 h -1.708941 v 2.21485 h 1.708941 v 1.66606 h 2.195213 v -1.66606 h 1.708942 v -2.21485 h -1.708942 v -1.6676 z m 20.247854,0 v 0.26355 1.40406 h -1.66605 v 2.21485 h 1.66605 v 1.66606 h 2.23863 v -1.66606 h 1.66604 v -2.21485 h -1.66604 v -1.6676 z m 20.29127,0 v 0.26355 1.40406 h -1.70894 v 2.21485 h 1.70894 v 1.66606 h 2.19521 v -1.66606 h 1.70688 v -2.21485 h -1.70688 v -1.6676 z m 20.24786,0 v 0.26355 1.40406 h -1.66605 v 2.21485 h 1.66605 v 1.66606 h 2.23862 v -1.66606 h 1.66605 v -2.21485 h -1.66605 v -1.6676 z m 20.2892,0 v 0.26355 1.40406 h -1.70687 v 2.21485 h 1.70687 v 1.66606 h 2.19521 v -1.66606 h 1.70894 v -2.21485 h -1.70894 v -1.6676 z m 20.24993,0 v 0.26355 1.40406 h -1.66605 v 2.21485 h 1.66605 v 1.66606 h 2.23655 v -1.66606 h 1.6676 v -2.21485 h -1.6676 v -1.6676 z m 6.74997,3.35328 v 0.26563 1.40043 h -1.66811 v 1.66811 h -1.70688 v 1.89653 l 0.33228,-0.0879 c 1.21798,-0.3203 2.16319,-0.64749 2.82774,-0.99839 0.33227,-0.17545 0.59718,-0.35698 0.7891,-0.56017 0.19192,-0.20318 0.31678,-0.44282 0.31677,-0.70125 v -2.88303 z m -166.667856,6.68693 -2.236557,5.2e-4 v 0.26561 1.40044 h -1.667598 v 1.68776 h -1.70739 v 1.6676 h -1.666048 v 1.66605 h -1.708939 v 2.21692 h 0.488342 0.0062 c 1.607653,-0.0627 3.133055,-0.12362 4.863268,-0.18914 l 0.253733,-0.0103 v -1.48829 h 1.668116 v -1.6661 h 1.177705 v 1.66606 h 1.667598 v 1.31826 l 0.273886,-0.0114 c 1.530776,-0.0569 3.479048,-0.12856 5.08186,-0.18759 l 0.255799,-0.01 v -1.63865 h -1.66605 v -1.66606 h -1.708938 v -1.66811 h -1.706872 v -1.68775 h -1.668116 z m 40.539127,0 -2.238108,5.2e-4 v 0.26561 1.40044 h -1.666047 v 1.68776 h -1.70739 v 1.6676 h -1.667598 v 1.66605 h -1.70739 v 0.72088 l 0.27337,-0.01 c 2.199002,-0.0827 4.503936,-0.17389 6.749976,-0.25994 l 0.254246,-0.01 v -1.5782 h 1.179774 v 1.53325 l 0.275434,-0.0119 c 1.699398,-0.0655 3.361563,-0.12791 5.08186,-0.19534 l 0.253733,-0.01 v -1.84588 h -1.706872 v -1.66812 h -1.708941 v -1.68723 h -1.666047 z m 38.300499,5.2e-4 v 0.26561 1.40044 h -1.66605 v 1.68776 h -1.70894 v 1.6676 h -1.66604 v 0.67023 l 0.2775,-0.0119 c 3.39206,-0.15244 6.76941,-0.30999 10.12496,-0.47077 l 0.25011,-0.0114 v -1.84381 h -1.70687 v -1.68774 h -1.66604 v -1.66605 z m 40.53913,0 v 0.26561 1.40044 h -1.66605 v 1.69758 l 0.28164,-0.0196 c 1.69704,-0.10964 3.40062,-0.21951 5.04258,-0.33228 l 0.2465,-0.0155 v -1.33016 h -1.66605 v -1.66604 z"
       id="path2654"
       inkscape:connector-curvature="0" />
  </g>
</svg>
