<?xml version="1.0" encoding="UTF-8" standalone="no"?>
<!-- Created with Inkscape (http://www.inkscape.org/) -->

<svg
   xmlns:dc="http://purl.org/dc/elements/1.1/"
   xmlns:cc="http://creativecommons.org/ns#"
   xmlns:rdf="http://www.w3.org/1999/02/22-rdf-syntax-ns#"
   xmlns:svg="http://www.w3.org/2000/svg"
   xmlns="http://www.w3.org/2000/svg"
   xmlns:xlink="http://www.w3.org/1999/xlink"
   xmlns:sodipodi="http://sodipodi.sourceforge.net/DTD/sodipodi-0.dtd"
   xmlns:inkscape="http://www.inkscape.org/namespaces/inkscape"
   width="60.374298mm"
   height="26.605469mm"
   viewBox="0 0 60.374298 26.605468"
   version="1.1"
   id="svg8"
   inkscape:version="0.92.2 2405546, 2018-03-11"
   sodipodi:docname="cttjf.svg"
   inkscape:export-filename="/home/madhead/Projects/t-shirts/jfuture/2018/cttjf.svg.png"
   inkscape:export-xdpi="215.39999"
   inkscape:export-ydpi="215.39999">
  <sodipodi:namedview
     id="base"
     pagecolor="#ffffff"
     bordercolor="#666666"
     borderopacity="1.0"
     inkscape:pageopacity="0.0"
     inkscape:pageshadow="2"
     inkscape:zoom="3.9485276"
     inkscape:cx="120.1924"
     inkscape:cy="41.526026"
     inkscape:document-units="px"
     inkscape:current-layer="layer1"
     showgrid="false"
     showborder="true"
     inkscape:window-width="1920"
     inkscape:window-height="1001"
     inkscape:window-x="0"
     inkscape:window-y="0"
     inkscape:window-maximized="1"
     inkscape:snap-global="false"
     fit-margin-top="0"
     fit-margin-left="0"
     fit-margin-right="0"
     fit-margin-bottom="0"
     inkscape:snap-bbox="false"
     inkscape:object-paths="true" />
  <defs
     id="definitions">
    <linearGradient
       spreadMethod="pad"
       gradientUnits="userSpaceOnUse"
       y2="375.51636"
       x2="39.149677"
       y1="389.75958"
       x1="39.211723"
       gradientTransform="scale(2.1319883,0.46904573)"
       id="california">
      <stop
         id="stop2046"
         offset="0"
         style="stop-color:#e2141f;stop-opacity:1" />
      <stop
         id="stop2048"
         offset="1"
         style="stop-color:#fee500;stop-opacity:1" />
    </linearGradient>
    <filter
       style="color-interpolation-filters:sRGB"
       inkscape:label="electric"
       id="filter3363">
      <feGaussianBlur
         stdDeviation="0.2 0.2"
         result="blur"
         id="feGaussianBlur3361" />
    </filter>
    <linearGradient
       inkscape:collect="always"
       xlink:href="#california"
       id="linearGradient3526"
       gradientUnits="userSpaceOnUse"
       x1="206.89478"
       y1="171.90102"
       x2="206.89478"
       y2="177.72185" />
    <linearGradient
       inkscape:collect="always"
       xlink:href="#california"
       id="linearGradient3588"
       gradientUnits="userSpaceOnUse"
       x1="207.17178"
       y1="188.89868"
       x2="206.98468"
       y2="182.23596" />
    <linearGradient
       inkscape:collect="always"
       xlink:href="#california"
       id="linearGradient3590"
       gradientUnits="userSpaceOnUse"
       x1="207.17178"
       y1="188.89868"
       x2="206.98468"
       y2="182.23596" />
    <linearGradient
       inkscape:collect="always"
       xlink:href="#california"
       id="linearGradient3592"
       gradientUnits="userSpaceOnUse"
       x1="207.17178"
       y1="188.89868"
       x2="206.98468"
       y2="182.23596" />
    <linearGradient
       inkscape:collect="always"
       xlink:href="#california"
       id="linearGradient3594"
       gradientUnits="userSpaceOnUse"
       x1="207.17178"
       y1="188.89868"
       x2="206.98468"
       y2="182.23596" />
    <linearGradient
       inkscape:collect="always"
       xlink:href="#california"
       id="linearGradient3596"
       gradientUnits="userSpaceOnUse"
       x1="207.17178"
       y1="188.89868"
       x2="206.98468"
       y2="182.23596" />
    <linearGradient
       inkscape:collect="always"
       xlink:href="#california"
       id="linearGradient3598"
       gradientUnits="userSpaceOnUse"
       x1="207.17178"
       y1="188.89868"
       x2="206.98468"
       y2="182.23596" />
    <linearGradient
       inkscape:collect="always"
       xlink:href="#california"
       id="linearGradient3600"
       gradientUnits="userSpaceOnUse"
       x1="207.17178"
       y1="188.89868"
       x2="206.98468"
       y2="182.23596" />
    <linearGradient
       inkscape:collect="always"
       xlink:href="#california"
       id="linearGradient3602"
       gradientUnits="userSpaceOnUse"
       x1="207.17178"
       y1="188.89868"
       x2="206.98468"
       y2="182.23596" />
    <linearGradient
       inkscape:collect="always"
       xlink:href="#california"
       id="linearGradient3604"
       gradientUnits="userSpaceOnUse"
       x1="207.17178"
       y1="188.89868"
       x2="206.98468"
       y2="182.23596" />
    <linearGradient
       inkscape:collect="always"
       xlink:href="#california"
       id="linearGradient3606"
       gradientUnits="userSpaceOnUse"
       x1="206.89478"
       y1="171.90102"
       x2="206.89478"
       y2="177.72185" />
    <linearGradient
       inkscape:collect="always"
       xlink:href="#california"
       id="linearGradient3608"
       gradientUnits="userSpaceOnUse"
       x1="206.89478"
       y1="171.90102"
       x2="206.89478"
       y2="177.72185" />
    <linearGradient
       inkscape:collect="always"
       xlink:href="#california"
       id="linearGradient3610"
       gradientUnits="userSpaceOnUse"
       x1="206.89478"
       y1="171.90102"
       x2="206.89478"
       y2="177.72185" />
    <linearGradient
       inkscape:collect="always"
       xlink:href="#california"
       id="linearGradient3612"
       gradientUnits="userSpaceOnUse"
       x1="206.89478"
       y1="171.90102"
       x2="206.89478"
       y2="177.72185" />
    <linearGradient
       inkscape:collect="always"
       xlink:href="#california"
       id="linearGradient3614"
       gradientUnits="userSpaceOnUse"
       x1="206.89478"
       y1="171.90102"
       x2="206.89478"
       y2="177.72185" />
    <linearGradient
       inkscape:collect="always"
       xlink:href="#california"
       id="linearGradient3616"
       gradientUnits="userSpaceOnUse"
       x1="206.89478"
       y1="171.90102"
       x2="206.89478"
       y2="177.72185" />
    <linearGradient
       inkscape:collect="always"
       xlink:href="#california"
       id="linearGradient3618"
       gradientUnits="userSpaceOnUse"
       x1="206.89478"
       y1="171.90102"
       x2="206.89478"
       y2="177.72185" />
    <linearGradient
       inkscape:collect="always"
       xlink:href="#california"
       id="linearGradient3620"
       gradientUnits="userSpaceOnUse"
       x1="206.89478"
       y1="171.90102"
       x2="206.89478"
       y2="177.72185" />
    <linearGradient
       inkscape:collect="always"
       xlink:href="#california"
       id="linearGradient3622"
       gradientUnits="userSpaceOnUse"
       x1="206.89478"
       y1="171.90102"
       x2="206.89478"
       y2="177.72185" />
    <linearGradient
       inkscape:collect="always"
       xlink:href="#california"
       id="linearGradient3624"
       gradientUnits="userSpaceOnUse"
       x1="206.89478"
       y1="171.90102"
       x2="206.89478"
       y2="177.72185" />
    <linearGradient
       inkscape:collect="always"
       xlink:href="#california"
       id="linearGradient3626"
       gradientUnits="userSpaceOnUse"
       x1="206.89478"
       y1="171.90102"
       x2="206.89478"
       y2="177.72185" />
  </defs>
  <metadata
     id="metadata5">
    <rdf:RDF>
      <cc:Work
         rdf:about="">
        <dc:format>image/svg+xml</dc:format>
        <dc:type
           rdf:resource="http://purl.org/dc/dcmitype/StillImage" />
        <dc:title></dc:title>
      </cc:Work>
    </rdf:RDF>
  </metadata>
  <g
     transform="translate(-180.55384,-166.14449)"
     inkscape:label="Layer 1"
     inkscape:groupmode="layer"
     id="layer1">
    <g
       id="g3335"
       style="fill:#ff0000;fill-opacity:1;stroke:#00b5e6;stroke-width:0.79374999;stroke-linecap:round;stroke-linejoin:round;stroke-miterlimit:4;stroke-dasharray:none;stroke-opacity:1;filter:url(#filter3363)"
       transform="translate(0,1.0583333)">
      <path
         d="m 193.74831,180.02758 c -0.16474,0.52435 -0.27382,0.85806 -0.32791,1.0033 -0.0507,0.14501 -0.0761,0.21743 -0.0761,0.21743 0,0 -1.08768,0.004 -1.08768,0.004 0,0 -0.2475,8.3e-4 -0.2475,8.3e-4 -0.19987,0.58321 -0.3715,1.05248 -0.51546,1.40959 -0.14346,0.35584 -0.29299,0.70462 -0.44858,1.04648 -0.15406,0.33684 -0.33159,0.6947 -0.53248,1.0735 -0.19924,0.37374 -0.33847,0.62314 -0.41812,0.74898 0,0 -1.24958,0.0444 -1.24958,0.0444 0,0 0.7837,-1.53271 0.7837,-1.53271 0.39455,-0.88256 0.66538,-1.52877 0.81051,-1.93448 0.1502,-0.41155 0.24628,-0.70188 0.28781,-0.86991 0,0 -1.1479,0.004 -1.1479,0.004 0,0 0.25226,-0.8296 0.25226,-0.8296 0,0 0.0961,-0.40843 0.0961,-0.40843 0,0 0.19615,10e-4 0.19615,10e-4 0,0 3.62472,0.0221 3.62472,0.0221 m -0.0481,4.00864 c -0.01,0.0117 -0.0271,0.0504 -0.0524,0.11601 -0.0209,0.0616 -0.0319,0.12105 -0.0329,0.17823 1.1e-4,0.0533 0.0309,0.0867 0.0924,0.10015 0.0656,0.01 0.20283,0.008 0.41116,-0.006 0.21186,-0.0173 0.34138,-0.0285 0.389,-0.0336 0.0476,-0.005 0.10033,-0.0329 0.15835,-0.0837 0.0591,-0.0545 0.11376,-0.11459 0.16386,-0.18017 0.0513,-0.0694 0.11395,-0.1771 0.18802,-0.32311 0.0753,-0.15003 0.15915,-0.32331 0.25151,-0.51997 0.0968,-0.20093 0.20586,-0.44281 0.32735,-0.72595 0.12493,-0.28398 0.23896,-0.55696 0.34203,-0.81891 0.10647,-0.26268 0.15613,-0.43353 0.14876,-0.51211 -0.004,-0.0787 -0.0473,-0.12193 -0.129,-0.12963 -0.0818,-0.008 -0.20854,-0.0113 -0.38059,-0.011 -0.17251,3.7e-4 -0.29157,0.005 -0.35686,0.0126 -0.0653,0.008 -0.12396,0.036 -0.17582,0.0838 -0.0506,0.0438 -0.0939,0.10538 -0.12979,0.18479 -0.0358,0.0793 -0.11447,0.26746 -0.23565,0.56375 -0.12081,0.29541 -0.22272,0.53702 -0.30588,0.72525 -0.0818,0.18399 -0.15787,0.34817 -0.22812,0.49267 -0.0702,0.1443 -0.21878,0.44024 -0.44525,0.88664 0,0 -2.3e-4,2.5e-4 -2.3e-4,2.5e-4 m -1.57458,0.84694 c 0.39745,-0.72115 0.65797,-1.20279 0.78005,-1.4422 0.12342,-0.24382 0.2507,-0.51756 0.38196,-0.8215 0.13595,-0.30884 0.29303,-0.70797 0.47162,-1.19861 0.18276,-0.49325 0.30262,-0.80536 0.35891,-0.9345 0.0608,-0.13334 0.15209,-0.23832 0.27388,-0.31479 0.12612,-0.0804 0.28169,-0.12415 0.46642,-0.13114 0.18421,-0.007 0.52857,-0.009 1.03049,-0.006 0.49798,0.003 0.86383,0.009 1.0998,0.0187 0.23506,0.009 0.3836,0.0777 0.44615,0.20471 0.0624,0.12662 0.0144,0.4079 -0.14309,0.84257 -0.15374,0.43257 -0.3297,0.8787 -0.52776,1.33837 -0.19718,0.45756 -0.37826,0.84835 -0.54355,1.17323 -0.16181,0.32388 -0.30808,0.60711 -0.43897,0.85002 -0.12949,0.23867 -0.24645,0.4115 -0.35108,0.51884 -0.10157,0.10722 -0.22161,0.20579 -0.3602,0.29578 -0.13758,0.0863 -0.27268,0.13372 -0.40542,0.14219 -0.13297,0.008 -0.4886,0.0212 -1.07061,0.0385 -0.5842,0.0174 -0.98102,0.0298 -1.18696,0.0372 -0.20341,0.007 -0.32322,-0.0319 -0.35902,-0.11778 -0.0348,-0.0899 -0.036,-0.18676 -0.004,-0.29063 0.0323,-0.10399 0.0593,-0.17165 0.0809,-0.20288 0,0 5e-5,-1.8e-4 5e-5,-1.8e-4 m -1.75415,1.11387 c -0.16936,0.43177 -0.27964,0.70651 -0.33135,0.82557 -0.0506,0.11512 -0.0759,0.17263 -0.0759,0.17263 0,0 -0.85005,0.0395 -0.85005,0.0395 0,0 -0.18818,0.009 -0.18818,0.009 -0.2041,0.47384 -0.37541,0.8559 -0.51434,1.14726 -0.13858,0.29059 -0.28239,0.57705 -0.43144,0.85945 -0.14541,0.28152 -0.31039,0.57649 -0.49488,0.8849 -0.18313,0.30402 -0.31326,0.51115 -0.39067,0.62185 0,0 -0.97278,0.0698 -0.97278,0.0698 0,0 0.73217,-1.2628 0.73217,-1.2628 0.3736,-0.72206 0.63377,-1.25029 0.77914,-1.58218 0.15019,-0.33696 0.25017,-0.57549 0.29962,-0.71497 0,0 -0.89689,0.0416 -0.89689,0.0416 0,0 0.26153,-0.6708 0.26153,-0.6708 0,0 0.1131,-0.32475 0.1131,-0.32475 0,0 0.15323,-0.006 0.15323,-0.006 0,0 2.8077,-0.10983 2.8077,-0.10983 m -1.9521,4.48101 c 0,0 0.5343,-0.79911 0.5343,-0.79911 0,0 0.46792,-0.77698 0.46792,-0.77698 0,0 0.43592,-0.82924 0.43592,-0.82924 0,0 0.42097,-0.85659 0.42097,-0.85659 0,0 0.29944,-0.67135 0.29944,-0.67135 0,0 0.22131,-0.52468 0.22131,-0.52468 0,0 0.66234,-0.0261 0.66234,-0.0261 0,0 0.29758,-0.0117 0.29758,-0.0117 0,0 -0.23812,0.62806 -0.23812,0.62806 0,0 -0.26361,0.60296 -0.26361,0.60296 0,0 -0.24812,0.51601 -0.24812,0.51601 0,0 0.78942,-0.0634 0.78942,-0.0634 0,0 0.29298,-0.60366 0.29298,-0.60366 0,0 0.32912,-0.80928 0.32912,-0.80928 0,0 0.10156,-0.28962 0.10156,-0.28962 0,0 0.94108,-0.0261 0.94108,-0.0261 -0.16715,0.43618 -0.30641,0.77731 -0.41816,1.02449 -0.10732,0.24274 -0.26321,0.5583 -0.46734,0.94613 -0.20345,0.38655 -0.36545,0.68338 -0.48636,0.8912 -0.12072,0.20749 -0.25006,0.4241 -0.38799,0.64982 -0.13461,0.22515 -0.34084,0.50959 -0.61857,0.85326 0,0 -0.84507,0.0609 -0.84507,0.0609 0,0 0.45329,-0.70829 0.45329,-0.70829 0,0 0.41158,-0.67121 0.41158,-0.67121 0,0 0.21583,-0.40238 0.21583,-0.40238 0,0 -0.77827,0.0296 -0.77827,0.0296 0,0 -0.20986,0.3664 -0.20986,0.3664 0,0 -0.42082,0.63829 -0.42082,0.63829 0,0 -0.53761,0.79391 -0.53761,0.79391 0,0 -0.93528,0.0672 -0.93528,0.0672 0,0 -0.0195,0.001 -0.0195,0.001 m 5.53953,-4.55477 c 0,0 0.92817,-0.0368 0.92817,-0.0368 0,0 1.49233,-0.0592 1.49233,-0.0592 -0.15426,0.37542 -0.29628,0.66439 -0.42638,0.86782 0,0 -1.57338,0.0729 -1.57338,0.0729 -0.12802,0.27789 -0.25347,0.52249 -0.37646,0.73408 0,0 1.57293,-0.0816 1.57293,-0.0816 0,0 -0.1997,0.39342 -0.1997,0.39342 0,0 -0.31649,0.50433 -0.31649,0.50433 0,0 -1.52799,0.0897 -1.52799,0.0897 0,0 -0.41506,0.72108 -0.41506,0.72108 0,0 -0.1148,0.17643 -0.1148,0.17643 0,0 1.493,-0.082 1.493,-0.082 0,0 -0.30174,0.44667 -0.30174,0.44667 0,0 -0.32708,0.41632 -0.32708,0.41632 0,0 -2.33497,0.16785 -2.33497,0.16785 0.34227,-0.48436 0.60851,-0.88715 0.79837,-1.20793 0.19139,-0.32519 0.36869,-0.63243 0.53184,-0.92161 0.16459,-0.29352 0.3204,-0.59269 0.46747,-0.89764 0.15056,-0.30595 0.36028,-0.74005 0.62991,-1.30388 0,0 3e-5,-1e-5 3e-5,-1e-5"
         style="font-style:normal;font-variant:normal;font-weight:normal;font-stretch:normal;font-size:medium;line-height:1.25;font-family:'Back to the future 2002';-inkscape-font-specification:'Back to the future 2002, ';letter-spacing:0px;word-spacing:0px;fill:#ff0000;fill-opacity:1;stroke:#00b5e6;stroke-width:0.79374999;stroke-linecap:round;stroke-linejoin:round;stroke-miterlimit:4;stroke-dasharray:none;stroke-opacity:1"
         id="path3319"
         inkscape:connector-curvature="0" />
      <path
         d="m 202.65043,179.98481 c 0,0 2.0502,0.0142 2.0502,0.0142 -0.28466,0.81784 -0.62344,1.66291 -1.01576,2.53527 -0.38613,0.86455 -0.77606,1.68814 -1.17015,2.47216 -0.39118,0.77824 -0.81043,1.54025 -1.25793,2.28705 -0.441,0.73883 -0.73596,1.19971 -0.88674,1.38575 -0.14794,0.18572 -0.32476,0.355 -0.53065,0.50805 -0.20333,0.15298 -0.41789,0.27544 -0.64394,0.36744 -0.22543,0.0888 -0.45453,0.15489 -0.68749,0.19814 -0.23093,0.0432 -0.96224,0.10925 -2.21177,0.19947 -0.9216,0.0666 -1.40689,0.047 -1.44583,-0.0597 -0.035,-0.11064 -0.0584,-0.20347 -0.07,-0.27835 -0.0117,-0.075 0.008,-0.1712 0.0582,-0.28862 0.0505,-0.11757 0.20827,-0.41931 0.47407,-0.90662 0.26688,-0.48933 0.63639,-1.21484 1.11089,-2.1815 0,0 0.9023,-0.0226 0.9023,-0.0226 0,0 0.97722,-0.058 0.97722,-0.058 -0.29242,0.59265 -0.52128,1.03727 -0.68748,1.33577 -0.16179,0.29406 -0.14622,0.43015 0.046,0.40888 0.1928,-0.0248 0.39838,-0.0433 0.61659,-0.0556 0.21855,-0.0157 0.3896,-0.0528 0.51361,-0.11135 0.1278,-0.062 0.29085,-0.22731 0.4895,-0.49613 0.20172,-0.26934 0.42169,-0.6389 0.66049,-1.10993 0.24383,-0.47677 0.51422,-1.03631 0.81178,-1.68014 0.3007,-0.65164 0.5672,-1.25765 0.79904,-1.81737 0.23326,-0.5631 0.43428,-1.05857 0.60261,-1.48535 0.17196,-0.42879 0.33714,-0.81598 0.49534,-1.16096 0,0 -1e-5,1e-4 -1e-5,1e-4"
         style="font-style:normal;font-variant:normal;font-weight:normal;font-stretch:normal;font-size:medium;line-height:1.25;font-family:'Back to the future 2002';-inkscape-font-specification:'Back to the future 2002, ';letter-spacing:0px;word-spacing:0px;fill:#ff0000;fill-opacity:1;stroke:#00b5e6;stroke-width:0.79374999;stroke-linecap:round;stroke-linejoin:round;stroke-miterlimit:4;stroke-dasharray:none;stroke-opacity:1"
         id="path3321"
         inkscape:connector-curvature="0" />
      <path
         d="m 201.27239,189.59302 c 0.37936,-0.56341 0.64729,-0.9723 0.80294,-1.22543 0.15978,-0.25716 0.43757,-0.73235 0.83488,-1.42828 0.40353,-0.70363 0.76109,-1.37023 1.0723,-1.99955 0.31578,-0.63328 0.62073,-1.28243 0.91495,-1.94803 0.29894,-0.67033 0.71729,-1.63379 1.25892,-2.89957 0,0 1.86633,0.0116 1.86633,0.0116 0,0 3.19367,0.0249 3.19367,0.0249 -0.29569,0.82058 -0.56261,1.46027 -0.80219,1.92372 0,0 -3.19193,-0.002 -3.19193,-0.002 -0.26555,0.63269 -0.49842,1.15972 -0.69934,1.58303 0,0 3.18868,-0.042 3.18868,-0.042 -0.26133,0.53489 -0.59514,1.15354 -1.00065,1.85494 0,0 -3.21324,0.1304 -3.21324,0.1304 -0.60792,1.04808 -0.97193,1.67064 -1.0959,1.87433 -0.12256,0.20003 -0.5494,0.87169 -1.27603,2.00797 0,0 -1.85339,0.13398 -1.85339,0.13398"
         style="font-style:normal;font-variant:normal;font-weight:normal;font-stretch:normal;font-size:medium;line-height:1.25;font-family:'Back to the future 2002';-inkscape-font-specification:'Back to the future 2002, ';letter-spacing:0px;word-spacing:0px;fill:#ff0000;fill-opacity:1;stroke:#00b5e6;stroke-width:0.79374999;stroke-linecap:round;stroke-linejoin:round;stroke-miterlimit:4;stroke-dasharray:none;stroke-opacity:1"
         id="path3323"
         inkscape:connector-curvature="0" />
      <path
         d="m 212.50586,180.08432 c 0,0 1.778,0.0118 1.778,0.0118 -0.33454,0.75795 -0.66537,1.44225 -0.99318,2.05499 -0.32589,0.60918 -0.65629,1.2166 -0.99121,1.82236 -0.33173,0.5991 -0.70846,1.22704 -1.12999,1.88382 -0.41939,0.65347 -0.63041,1.04931 -0.63462,1.18971 -0.004,0.14002 0.0714,0.20079 0.22641,0.18263 0.1582,-0.0214 0.32368,-0.0371 0.49636,-0.0469 0.17214,-0.01 0.32513,-0.0416 0.45923,-0.0953 0.13389,-0.0536 0.26727,-0.16543 0.40037,-0.33573 0.13322,-0.17042 0.35118,-0.49694 0.65471,-0.98086 0.30826,-0.4891 0.64675,-1.05872 1.01621,-1.71032 0.37303,-0.65879 0.71852,-1.295 1.03623,-1.90844 0.32329,-0.62058 0.6402,-1.30028 0.95126,-2.04104 0,0 1.54141,0.0101 1.54141,0.0101 -0.21986,0.5813 -0.45631,1.12724 -0.70951,1.63893 -0.24833,0.50566 -0.53119,1.04773 -0.84825,1.62584 -0.31397,0.57171 -0.69426,1.22074 -1.14011,1.9461 -0.44096,0.72083 -0.87591,1.37343 -1.30572,1.95953 -0.42478,0.58076 -0.81472,0.97899 -1.17164,1.19667 -0.35782,0.21823 -0.83269,0.34881 -1.42869,0.39168 -0.60241,0.0433 -1.19885,0.0923 -1.78892,0.14693 -0.59374,0.055 -0.94531,-0.007 -1.05061,-0.1872 -0.10349,-0.18137 0.0345,-0.55093 0.41553,-1.10954 0.38489,-0.5609 0.80857,-1.21984 1.27207,-1.97872 0.47006,-0.767 0.9172,-1.55941 1.34176,-2.37855 0.42799,-0.82576 0.96085,-1.91868 1.60289,-3.28851 0,0 1e-5,-2e-5 1e-5,-2e-5"
         style="font-style:normal;font-variant:normal;font-weight:normal;font-stretch:normal;font-size:medium;line-height:1.25;font-family:'Back to the future 2002';-inkscape-font-specification:'Back to the future 2002, ';letter-spacing:0px;word-spacing:0px;fill:#ff0000;fill-opacity:1;stroke:#00b5e6;stroke-width:0.79374999;stroke-linecap:round;stroke-linejoin:round;stroke-miterlimit:4;stroke-dasharray:none;stroke-opacity:1"
         id="path3325"
         inkscape:connector-curvature="0" />
      <path
         d="m 222.59898,180.16543 c -0.40086,0.80017 -0.65909,1.30846 -0.77711,1.52971 -0.11776,0.22074 -0.17654,0.33093 -0.17654,0.33093 0,0 -1.48262,0.0177 -1.48262,0.0177 -0.42849,0.86418 -0.79647,1.56626 -1.10576,2.11025 -0.3043,0.53801 -0.61341,1.06306 -0.92746,1.57553 -0.31263,0.51015 -0.65864,1.04763 -1.03784,1.61232 -0.37423,0.55916 -0.63386,0.93707 -0.77998,1.13534 0,0 -1.54396,0.11105 -1.54396,0.11105 0,0 1.50836,-2.31812 1.50836,-2.31812 1.16133,-1.84935 1.94373,-3.25795 2.33707,-4.21259 0,0 -1.57356,0.0188 -1.57356,0.0188 0,0 0.63682,-1.31237 0.63682,-1.31237 0,0 0.27145,-0.62869 0.27145,-0.62869 0,0 0.24422,0.002 0.24422,0.002 0,0 4.40691,0.0285 4.40691,0.0285"
         style="font-style:normal;font-variant:normal;font-weight:normal;font-stretch:normal;font-size:medium;line-height:1.25;font-family:'Back to the future 2002';-inkscape-font-specification:'Back to the future 2002, ';letter-spacing:0px;word-spacing:0px;fill:#ff0000;fill-opacity:1;stroke:#00b5e6;stroke-width:0.79374999;stroke-linecap:round;stroke-linejoin:round;stroke-miterlimit:4;stroke-dasharray:none;stroke-opacity:1"
         id="path3327"
         inkscape:connector-curvature="0" />
      <path
         d="m 223.54093,180.15738 c 0,0 1.44247,0.01 1.44247,0.01 -0.34258,0.68326 -0.67554,1.3006 -0.99956,1.85372 -0.3223,0.55022 -0.64829,1.09915 -0.97798,1.64688 -0.32664,0.54198 -0.69279,1.11028 -1.0983,1.70488 -0.40366,0.59188 -0.61331,0.95077 -0.6303,1.07846 -0.017,0.12737 0.0386,0.18306 0.16636,0.16735 0.13069,-0.0187 0.26678,-0.032 0.4082,-0.0401 0.14103,-0.008 0.26861,-0.0362 0.38293,-0.0844 0.11417,-0.0481 0.23352,-0.14931 0.35822,-0.30372 0.1248,-0.15452 0.33351,-0.4507 0.62684,-0.8896 0.29757,-0.44343 0.62727,-0.95972 0.98975,-1.55006 0.36586,-0.59652 0.70695,-1.17228 1.02307,-1.72713 0.32115,-0.56098 0.64236,-1.17502 0.96417,-1.84369 0,0 1.25772,0.008 1.25772,0.008 -0.23264,0.52543 -0.47576,1.01921 -0.72961,1.48228 -0.24943,0.45783 -0.53059,0.94888 -0.84319,1.47282 -0.30964,0.51841 -0.68085,1.10718 -1.113,1.76551 -0.42797,0.65459 -0.84484,1.24738 -1.2514,1.77979 -0.40208,0.52774 -0.7584,0.88911 -1.07049,1.08574 -0.31281,0.19708 -0.71248,0.31327 -1.20203,0.34848 -0.49431,0.0356 -0.98383,0.0762 -1.46825,0.12213 -0.48698,0.0462 -0.76576,-0.0127 -0.83322,-0.17756 -0.0659,-0.16579 0.0823,-0.50121 0.44586,-1.00695 0.36674,-0.50762 0.77431,-1.10385 1.22367,-1.79025 0.45518,-0.69332 0.89394,-1.40927 1.31667,-2.14893 0.4258,-0.74503 0.96161,-1.73023 1.6114,-2.96347 0,0 0,-2e-5 0,-2e-5"
         style="font-style:normal;font-variant:normal;font-weight:normal;font-stretch:normal;font-size:medium;line-height:1.25;font-family:'Back to the future 2002';-inkscape-font-specification:'Back to the future 2002, ';letter-spacing:0px;word-spacing:0px;fill:#ff0000;fill-opacity:1;stroke:#00b5e6;stroke-width:0.79374999;stroke-linecap:round;stroke-linejoin:round;stroke-miterlimit:4;stroke-dasharray:none;stroke-opacity:1"
         id="path3329"
         inkscape:connector-curvature="0" />
      <path
         d="m 223.4312,188.00495 c 0.7989,-1.06055 1.41237,-1.89335 1.83769,-2.49492 0.42723,-0.60427 0.83374,-1.20347 1.21955,-1.79783 0.39096,-0.60036 0.77436,-1.21947 1.15046,-1.85802 0.38167,-0.64554 0.71114,-1.23155 0.98782,-1.75724 0,0 1.73649,0.0132 1.73649,0.0132 0.85347,0.0472 1.27543,0.18311 1.27821,0.40742 0.004,0.22033 -0.0979,0.5107 -0.30578,0.87095 -0.20707,0.35889 -0.44639,0.75453 -0.71773,1.18661 -0.26862,0.43029 -0.4582,0.72286 -0.56947,0.87887 -0.10973,0.15307 -0.2735,0.34977 -0.49127,0.59008 -0.21598,0.24007 -0.59593,0.5053 -1.14216,0.79698 -0.17554,0.81139 -0.50611,1.78001 -0.98793,2.90157 0,0 -1.31356,0.0954 -1.31356,0.0954 0.23533,-0.57355 0.37856,-0.99875 0.42843,-1.27315 0.0532,-0.27869 0.0614,-0.62066 0.0243,-1.02791 -0.22117,0.32691 -0.39365,0.57392 -0.51778,0.74153 -0.12263,0.16466 -0.52676,0.70759 -1.20929,1.62462 0,0 -1.38675,0.10029 -1.38675,0.10029 0,0 -0.0212,0.002 -0.0212,0.002 m 4.24153,-4.24063 c 0.36881,-0.0114 0.62362,-0.0428 0.76634,-0.0942 0.14246,-0.0513 0.27642,-0.14503 0.40214,-0.28137 0.12744,-0.13646 0.22795,-0.2584 0.30154,-0.36587 0.0767,-0.11042 0.22885,-0.33991 0.45682,-0.6892 0.23175,-0.35322 0.30967,-0.56391 0.23304,-0.63141 -0.0769,-0.0677 -0.34089,-0.0897 -0.79499,-0.0657 -0.30353,0.51624 -0.58956,0.97574 -0.85856,1.37947 -0.2664,0.40233 -0.43496,0.65143 -0.50633,0.74827 0,0 0,0 0,0"
         style="font-style:normal;font-variant:normal;font-weight:normal;font-stretch:normal;font-size:medium;line-height:1.25;font-family:'Back to the future 2002';-inkscape-font-specification:'Back to the future 2002, ';letter-spacing:0px;word-spacing:0px;fill:#ff0000;fill-opacity:1;stroke:#00b5e6;stroke-width:0.79374999;stroke-linecap:round;stroke-linejoin:round;stroke-miterlimit:4;stroke-dasharray:none;stroke-opacity:1"
         id="path3331"
         inkscape:connector-curvature="0" />
      <path
         d="m 228.03864,187.60341 c 0.60466,-0.80244 1.10249,-1.47747 1.49223,-2.0235 0.39436,-0.5511 0.75291,-1.0725 1.07548,-1.5641 0.32398,-0.49376 0.64643,-0.99914 0.96747,-1.51644 0.32423,-0.51991 0.78579,-1.27514 1.38791,-2.27108 0,0 1.12336,0.007 1.12336,0.007 0,0 1.86061,0.0161 1.86061,0.0161 -0.36911,0.65833 -0.67381,1.16729 -0.91558,1.52965 0,0 -1.88901,-0.008 -1.88901,-0.008 -0.29517,0.4923 -0.54764,0.90307 -0.75801,1.23338 0,0 1.89386,-0.0183 1.89386,-0.0183 -0.27221,0.42071 -0.60581,0.90789 -1.00033,1.46096 0,0 -1.92734,0.0782 -1.92734,0.0782 -0.56467,0.80355 -0.92509,1.30398 -1.08383,1.50498 0,0 1.96308,-0.0843 1.96308,-0.0843 -0.37023,0.48829 -0.75041,0.97691 -1.14063,1.46603 0,0 -3.07735,0.22134 -3.07735,0.22134 0,0 0.0281,-0.0323 0.0281,-0.0323"
         style="font-style:normal;font-variant:normal;font-weight:normal;font-stretch:normal;font-size:medium;line-height:1.25;font-family:'Back to the future 2002';-inkscape-font-specification:'Back to the future 2002, ';letter-spacing:0px;word-spacing:0px;fill:#ff0000;fill-opacity:1;stroke:#00b5e6;stroke-width:0.79374999;stroke-linecap:round;stroke-linejoin:round;stroke-miterlimit:4;stroke-dasharray:none;stroke-opacity:1"
         id="path3333"
         inkscape:connector-curvature="0" />
    </g>
    <g
       id="g3821">
      <g
         style="fill:#ff0000;fill-opacity:1;stroke:#00b5e6;stroke-width:0.79374999;stroke-linecap:round;stroke-linejoin:round;stroke-miterlimit:4;stroke-dasharray:none;stroke-opacity:1;filter:url(#filter3363)"
         id="g3262"
         transform="matrix(1,0,-0.11988302,1,20.826228,0)">
        <path
           inkscape:connector-curvature="0"
           id="path3254"
           style="font-style:normal;font-variant:normal;font-weight:normal;font-stretch:normal;font-size:medium;line-height:1.25;font-family:'Back to the future 2002';-inkscape-font-specification:'Back to the future 2002, ';letter-spacing:0px;word-spacing:0px;fill:#ff0000;fill-opacity:1;stroke:#00b5e6;stroke-width:0.79374999;stroke-linecap:round;stroke-linejoin:round;stroke-miterlimit:4;stroke-dasharray:none;stroke-opacity:1"
           d="m 192.83608,168.13263 c 0,0 1.1436,1.55631 1.1436,1.55631 0,0 0.24614,0.37294 0.24614,0.37294 0,0 0.16563,0.27314 0.16563,0.27314 -1.37256,-0.14702 -2.43628,-0.25297 -3.1757,-0.31606 -0.74397,-0.0635 -1.15469,-0.0673 -1.22571,-0.0109 -0.0724,0.0526 -0.0975,0.15458 -0.0751,0.30637 0.0257,0.14881 0.14365,0.42173 0.3555,0.82125 0.21711,0.39974 0.50747,0.92287 0.87376,1.57409 0.37089,0.65731 0.6787,1.21797 0.92101,1.67793 0.24506,0.4652 0.43567,0.81212 0.57024,1.03762 0.13834,0.2222 0.24973,0.38407 0.33377,0.48492 0.0873,0.0965 0.27678,0.25073 0.56882,0.46289 0.29113,0.20781 0.6468,0.31882 1.06448,0.33266 0.41485,0.0138 1.75255,0.0581 3.95342,0.13108 0,0 0.55463,0.97148 0.55463,0.97148 0,0 0.9704,2.02632 0.9704,2.02632 -4.21695,-0.0337 -6.46498,-0.0517 -6.5123,-0.0521 -0.0474,-3.8e-4 -0.20868,-0.002 -0.48479,-0.004 -0.27258,-0.002 -0.68599,-0.16646 -1.23888,-0.49256 -0.54882,-0.33088 -0.93824,-0.67411 -1.16754,-1.0281 -0.22765,-0.35141 -0.51412,-0.92235 -0.85571,-1.7034 -0.33161,-0.77091 -0.75444,-1.67176 -1.26359,-2.69425 -0.49674,-0.99754 -0.92684,-1.82143 -1.29491,-2.48189 -0.35774,-0.64974 -0.65171,-1.17458 -0.88442,-1.57919 -0.23043,-0.40067 -0.39176,-0.67894 -0.48538,-0.83728 -0.0888,-0.15733 -0.18219,-0.33596 -0.28014,-0.53557 -0.0983,-0.20249 -0.048,-0.43163 0.14863,-0.68578 0.19762,-0.25431 0.54346,-0.36231 1.03641,-0.32665 0.49324,0.0358 1.25915,0.1143 2.28869,0.23434 1.01379,0.11821 2.26773,0.28033 3.74909,0.48435 0,0 -3e-5,-8e-5 -3e-5,-8e-5" />
        <path
           inkscape:connector-curvature="0"
           id="path3256"
           style="font-style:normal;font-variant:normal;font-weight:normal;font-stretch:normal;font-size:medium;line-height:1.25;font-family:'Back to the future 2002';-inkscape-font-specification:'Back to the future 2002, ';letter-spacing:0px;word-spacing:0px;fill:#ff0000;fill-opacity:1;stroke:#00b5e6;stroke-width:0.79374999;stroke-linecap:round;stroke-linejoin:round;stroke-miterlimit:4;stroke-dasharray:none;stroke-opacity:1"
           d="m 202.55392,176.52434 c 0.0249,0.0399 0.0932,0.13566 0.20512,0.28768 0.11219,0.15252 0.24299,0.29512 0.39233,0.42763 0.15348,0.13288 0.31874,0.20201 0.49517,0.20717 0.1797,0.005 0.52525,0.022 1.0338,0.05 0.5059,0.0234 0.80893,0.0322 0.91221,0.0265 0.10466,-0.01 0.15824,-0.0735 0.16091,-0.19021 6.1e-4,-0.12055 -0.0298,-0.25656 -0.0911,-0.40795 -0.0594,-0.1549 -0.20072,-0.40265 -0.42275,-0.74167 -0.2222,-0.34044 -0.48445,-0.73298 -0.7857,-1.17613 -0.29809,-0.43846 -0.66585,-0.96053 -1.10095,-1.56317 -0.42718,-0.59775 -0.84567,-1.1628 -1.25618,-1.69653 -0.40364,-0.5306 -0.70692,-0.87498 -0.91326,-1.0378 -0.2059,-0.16248 -0.40943,-0.25602 -0.61141,-0.28095 -0.20423,-0.0287 -0.50874,-0.061 -0.91514,-0.0971 -0.40922,-0.0363 -0.68553,-0.0555 -0.82709,-0.0574 -0.13985,-0.005 -0.2144,0.0365 -0.22338,0.1255 -0.005,0.0896 0.0417,0.21126 0.14144,0.3651 0.10378,0.15475 0.37221,0.53558 0.80974,1.1487 0.44603,0.61849 0.80288,1.12847 1.06754,1.52603 0.26926,0.39756 0.5053,0.75855 0.70737,1.08205 0.20749,0.32629 0.61128,0.98815 1.22146,2.00244 0,0 -9e-5,0 -9e-5,0 m -2.01039,1.73901 c -0.85254,-1.68934 -1.41682,-2.77627 -1.71669,-3.30866 -0.29759,-0.52962 -0.65152,-1.11744 -1.05993,-1.76115 -0.40212,-0.63379 -0.96125,-1.44629 -1.66979,-2.42786 -0.6927,-0.95961 -1.10733,-1.5516 -1.25477,-1.79084 -0.14403,-0.24105 -0.15382,-0.42341 -0.0307,-0.54752 0.12221,-0.12322 0.39335,-0.16983 0.81174,-0.14067 0.41901,0.0293 1.2234,0.10515 2.39804,0.22593 1.15548,0.1188 2.00628,0.2129 2.56532,0.28354 0.55403,0.07 1.04624,0.23345 1.48075,0.49102 0.43339,0.25444 0.98103,0.77601 1.65164,1.5753 0.68115,0.81035 1.36384,1.66928 2.04971,2.58029 0.70105,0.93116 1.28871,1.74483 1.7572,2.43418 0.47789,0.69715 0.88854,1.31598 1.22923,1.8529 0.3453,0.54418 0.54267,0.94171 0.58889,1.18854 0.0479,0.24443 0.0246,0.46525 -0.0707,0.66229 -0.0985,0.19424 -0.30032,0.29761 -0.60623,0.30888 -0.3055,0.016 -1.17296,0.009 -2.62861,-0.0214 -1.49164,-0.0264 -2.51771,-0.0421 -3.0523,-0.0466 -0.53556,-0.004 -0.97539,-0.11767 -1.31533,-0.33935 -0.33727,-0.22613 -0.60446,-0.46761 -0.80123,-0.72372 -0.19355,-0.25947 -0.30206,-0.4242 -0.32625,-0.49514 0,0 3e-5,0 3e-5,0" />
        <path
           inkscape:connector-curvature="0"
           id="path3258"
           style="font-style:normal;font-variant:normal;font-weight:normal;font-stretch:normal;font-size:medium;line-height:1.25;font-family:'Back to the future 2002';-inkscape-font-specification:'Back to the future 2002, ';letter-spacing:0px;word-spacing:0px;fill:#ff0000;fill-opacity:1;stroke:#00b5e6;stroke-width:0.79374999;stroke-linecap:round;stroke-linejoin:round;stroke-miterlimit:4;stroke-dasharray:none;stroke-opacity:1"
           d="m 212.02434,179.87006 c -0.86453,-1.46576 -1.55795,-2.57073 -2.09662,-3.34461 -0.52532,-0.75934 -1.08401,-1.52796 -1.67512,-2.30556 -0.57906,-0.76701 -1.19893,-1.54874 -1.85845,-2.3447 -0.64948,-0.78516 -1.20219,-1.42722 -1.66313,-1.93264 -0.45441,-0.50299 -0.66402,-0.73959 -0.63255,-0.71395 0,0 2.59716,0.26493 2.59716,0.26493 0,0 3.42834,2.44555 3.42834,2.44555 0,0 -0.66269,-2.19546 -0.66269,-2.19546 0,0 2.2138,0.2579 2.2138,0.2579 0.87493,0.84646 1.64816,1.6488 2.31707,2.40594 0.68105,0.77089 1.18791,1.34569 1.51336,1.71624 0.32599,0.37017 0.96321,1.17007 1.93206,2.4265 1.00044,1.29308 1.84179,2.44294 2.51264,3.43728 0,0 -2.04614,-0.0165 -2.04614,-0.0165 -1.24568,-1.79204 -2.14951,-3.02658 -2.74502,-3.7535 -0.58556,-0.71479 -1.43541,-1.69349 -2.53402,-2.91953 0,0 0.29717,2.19244 0.29717,2.19244 0,0 -3.21239,-2.22659 -3.21239,-2.22659 1.05479,1.30665 1.83793,2.3253 2.33131,3.03486 0.50004,0.71838 1.01185,1.4906 1.53698,2.32004 0.53408,0.84317 0.79913,1.28899 0.78642,1.32373 0,0 -2.27513,-0.0183 -2.27513,-0.0183 0,0 0.0615,0.0473 0.0615,0.0473 0,0 0,0 0,0 0,0 -0.12653,-0.10133 -0.12653,-0.10133" />
        <path
           inkscape:connector-curvature="0"
           id="path3260"
           style="font-style:normal;font-variant:normal;font-weight:normal;font-stretch:normal;font-size:medium;line-height:1.25;font-family:'Back to the future 2002';-inkscape-font-specification:'Back to the future 2002, ';letter-spacing:0px;word-spacing:0px;fill:#ff0000;fill-opacity:1;stroke:#00b5e6;stroke-width:0.79374999;stroke-linecap:round;stroke-linejoin:round;stroke-miterlimit:4;stroke-dasharray:none;stroke-opacity:1"
           d="m 221.24006,179.94299 c -0.85884,-1.20253 -1.57978,-2.18279 -2.17361,-2.95673 -0.58493,-0.76286 -1.15218,-1.47056 -1.70353,-2.12622 -0.53998,-0.64525 -1.10023,-1.29405 -1.68032,-1.94638 -0.56855,-0.64222 -1.40026,-1.56551 -2.4785,-2.75177 0,0 1.86847,0.19052 1.86847,0.19052 0,0 3.18992,0.32935 3.18992,0.32935 0.85004,0.78805 1.47273,1.40017 1.86063,1.83001 0,0 -3.27608,-0.31092 -3.27608,-0.31092 0.5724,0.6028 1.0454,1.11341 1.4158,1.52865 0,0 3.28315,0.26641 3.28315,0.26641 0.49478,0.53232 1.0463,1.1572 1.65813,1.87937 0,0 -3.28387,-0.17097 -3.28387,-0.17097 0.88025,1.09144 1.42997,1.78898 1.63199,2.07154 0,0 3.41147,0.14431 3.41147,0.14431 0.54776,0.69068 1.08899,1.39536 1.62384,2.11491 0,0 -5.31509,-0.0432 -5.31509,-0.0432 0,0 -0.0324,-0.0488 -0.0324,-0.0488" />
      </g>
      <g
         id="g3317"
         style="fill:#ff0000;stroke:#00b5e6;stroke-width:0.79374999;stroke-linecap:round;stroke-linejoin:round;stroke-miterlimit:4;stroke-dasharray:none;stroke-opacity:1;filter:url(#filter3363)">
        <path
           inkscape:connector-curvature="0"
           id="path3307"
           d="m 226.39274,178.27162 c 0,0 -0.32325,-0.93292 -0.32325,-0.93292 0,0 2.63941,0.0719 2.63941,0.0719 -0.2743,-0.61906 -0.57979,-1.30853 -0.91936,-2.07487 -0.34716,-0.79219 -0.75575,-1.56715 -1.22914,-2.32326 0,0 -3.04931,-0.24164 -3.04931,-0.24164 0,0 -0.99893,-1.58131 -0.99893,-1.58131 0.20052,1.29257 0.43589,2.65417 0.70242,4.06879 0,0 3.17816,3.01336 3.17816,3.01336"
           style="font-style:normal;font-variant:normal;font-weight:normal;font-stretch:normal;font-size:medium;line-height:1.25;font-family:'Back to the future 2002';-inkscape-font-specification:'Back to the future 2002, ';letter-spacing:0px;word-spacing:0px;fill:#ff0000;fill-opacity:1;stroke:#00b5e6;stroke-width:0.79374999;stroke-linecap:round;stroke-linejoin:round;stroke-miterlimit:4;stroke-dasharray:none;stroke-opacity:1" />
        <path
           inkscape:connector-curvature="0"
           id="path3309"
           d="m 230.97407,177.41435 c -0.2273,-0.62333 -0.48672,-1.26964 -0.78021,-1.94091 -0.30383,-0.6949 -0.69441,-1.46679 -1.17946,-2.3251 0,0 -1.13878,-0.0953 -1.13878,-0.0953 0.41699,0.60096 0.86004,1.45495 1.32038,2.53247 0.43967,1.02649 0.68774,1.62535 0.76021,1.83379 0,0 1.01788,-0.005 1.01788,-0.005"
           style="font-style:normal;font-variant:normal;font-weight:normal;font-stretch:normal;font-size:medium;line-height:1.25;font-family:'Back to the future 2002';-inkscape-font-specification:'Back to the future 2002, ';letter-spacing:0px;word-spacing:0px;fill:#ff0000;fill-opacity:1;stroke:#00b5e6;stroke-width:0.79374999;stroke-linecap:round;stroke-linejoin:round;stroke-miterlimit:4;stroke-dasharray:none;stroke-opacity:1" />
        <path
           inkscape:connector-curvature="0"
           id="path3311"
           d="m 230.33318,173.21432 c 0.3037,0.55382 0.5589,1.0475 0.76849,1.48531 0.20503,0.42825 0.57359,1.36163 1.08162,2.73317 0,0 0.65472,0.004 0.65472,0.004 -0.19362,-0.61967 -0.33205,-1.03182 -0.41135,-1.22328 -0.0752,-0.18948 -0.2381,-0.5932 -0.49424,-1.22457 -0.26447,-0.65191 -0.5469,-1.22459 -0.84662,-1.71144 0,0 -0.75257,-0.0627 -0.75257,-0.0627"
           style="font-style:normal;font-variant:normal;font-weight:normal;font-stretch:normal;font-size:medium;line-height:1.25;font-family:'Back to the future 2002';-inkscape-font-specification:'Back to the future 2002, ';letter-spacing:0px;word-spacing:0px;fill:#ff0000;fill-opacity:1;stroke:#00b5e6;stroke-width:0.79374999;stroke-linecap:round;stroke-linejoin:round;stroke-miterlimit:4;stroke-dasharray:none;stroke-opacity:1" />
        <path
           inkscape:connector-curvature="0"
           id="path3313"
           d="m 232.416,173.31916 c 0.28834,0.54275 0.51294,1.00588 0.67737,1.39495 0.1637,0.38171 0.29684,0.72104 0.40063,1.02015 0.10478,0.2985 0.29525,0.8624 0.56431,1.66973 0,0 0.44035,0.01 0.44035,0.01 -0.0233,-0.16801 -0.0812,-0.39363 -0.17448,-0.67896 -0.0946,-0.28951 -0.16035,-0.48315 -0.19634,-0.5781 -0.0338,-0.0917 -0.0826,-0.23722 -0.14656,-0.43774 -0.0623,-0.19868 -0.39867,-0.95867 -1.04183,-2.34998 0,0 -0.52344,-0.0497 -0.52344,-0.0497"
           style="font-style:normal;font-variant:normal;font-weight:normal;font-stretch:normal;font-size:medium;line-height:1.25;font-family:'Back to the future 2002';-inkscape-font-specification:'Back to the future 2002, ';letter-spacing:0px;word-spacing:0px;fill:#ff0000;fill-opacity:1;stroke:#00b5e6;stroke-width:0.79374999;stroke-linecap:round;stroke-linejoin:round;stroke-miterlimit:4;stroke-dasharray:none;stroke-opacity:1" />
        <path
           inkscape:connector-curvature="0"
           id="path3315"
           d="m 234.14243,173.43674 c 0.17599,0.34351 0.29508,0.57862 0.35926,0.7092 0.0663,0.12988 0.13739,0.29023 0.21335,0.48037 0.0776,0.1885 0.19016,0.45458 0.33621,0.79505 0.14581,0.33466 0.36498,1.00197 0.64884,1.97032 0,0 0.28143,0.0215 0.28143,0.0215 -0.13318,-0.60181 -0.27417,-1.08139 -0.42196,-1.43024 -0.14824,-0.35527 -0.30769,-0.74751 -0.47904,-1.17869 -0.1703,-0.43658 -0.3897,-0.88631 -0.66041,-1.3506 0,0 -0.27768,-0.0169 -0.27768,-0.0169"
           style="font-style:normal;font-variant:normal;font-weight:normal;font-stretch:normal;font-size:medium;line-height:1.25;font-family:'Back to the future 2002';-inkscape-font-specification:'Back to the future 2002, ';letter-spacing:0px;word-spacing:0px;fill:#ff0000;fill-opacity:1;stroke:#00b5e6;stroke-width:0.79374999;stroke-linecap:round;stroke-linejoin:round;stroke-miterlimit:4;stroke-dasharray:none;stroke-opacity:1" />
      </g>
    </g>
    <g
       id="g3118"
       style="fill:url(#linearGradient3588);fill-opacity:1"
       transform="translate(0,1.0583333)">
      <path
         inkscape:connector-curvature="0"
         id="path2230"
         style="font-style:normal;font-variant:normal;font-weight:normal;font-stretch:normal;font-size:medium;line-height:1.25;font-family:'Back to the future 2002';-inkscape-font-specification:'Back to the future 2002, ';letter-spacing:0px;word-spacing:0px;fill:url(#linearGradient3590);fill-opacity:1;stroke:none;stroke-width:0.26458332"
         d="m 193.74831,180.02758 c -0.16474,0.52435 -0.27382,0.85806 -0.32791,1.0033 -0.0507,0.14501 -0.0761,0.21743 -0.0761,0.21743 0,0 -1.08768,0.004 -1.08768,0.004 0,0 -0.2475,8.3e-4 -0.2475,8.3e-4 -0.19987,0.58321 -0.3715,1.05248 -0.51546,1.40959 -0.14346,0.35584 -0.29299,0.70462 -0.44858,1.04648 -0.15406,0.33684 -0.33159,0.6947 -0.53248,1.0735 -0.19924,0.37374 -0.33847,0.62314 -0.41812,0.74898 0,0 -1.24958,0.0444 -1.24958,0.0444 0,0 0.7837,-1.53271 0.7837,-1.53271 0.39455,-0.88256 0.66538,-1.52877 0.81051,-1.93448 0.1502,-0.41155 0.24628,-0.70188 0.28781,-0.86991 0,0 -1.1479,0.004 -1.1479,0.004 0,0 0.25226,-0.8296 0.25226,-0.8296 0,0 0.0961,-0.40843 0.0961,-0.40843 0,0 0.19615,10e-4 0.19615,10e-4 0,0 3.62472,0.0221 3.62472,0.0221 m -0.0481,4.00864 c -0.01,0.0117 -0.0271,0.0504 -0.0524,0.11601 -0.0209,0.0616 -0.0319,0.12105 -0.0329,0.17823 1.1e-4,0.0533 0.0309,0.0867 0.0924,0.10015 0.0656,0.01 0.20283,0.008 0.41116,-0.006 0.21186,-0.0173 0.34138,-0.0285 0.389,-0.0336 0.0476,-0.005 0.10033,-0.0329 0.15835,-0.0837 0.0591,-0.0545 0.11376,-0.11459 0.16386,-0.18017 0.0513,-0.0694 0.11395,-0.1771 0.18802,-0.32311 0.0753,-0.15003 0.15915,-0.32331 0.25151,-0.51997 0.0968,-0.20093 0.20586,-0.44281 0.32735,-0.72595 0.12493,-0.28398 0.23896,-0.55696 0.34203,-0.81891 0.10647,-0.26268 0.15613,-0.43353 0.14876,-0.51211 -0.004,-0.0787 -0.0473,-0.12193 -0.129,-0.12963 -0.0818,-0.008 -0.20854,-0.0113 -0.38059,-0.011 -0.17251,3.7e-4 -0.29157,0.005 -0.35686,0.0126 -0.0653,0.008 -0.12396,0.036 -0.17582,0.0838 -0.0506,0.0438 -0.0939,0.10538 -0.12979,0.18479 -0.0358,0.0793 -0.11447,0.26746 -0.23565,0.56375 -0.12081,0.29541 -0.22272,0.53702 -0.30588,0.72525 -0.0818,0.18399 -0.15787,0.34817 -0.22812,0.49267 -0.0702,0.1443 -0.21878,0.44024 -0.44525,0.88664 0,0 -2.3e-4,2.5e-4 -2.3e-4,2.5e-4 m -1.57458,0.84694 c 0.39745,-0.72115 0.65797,-1.20279 0.78005,-1.4422 0.12342,-0.24382 0.2507,-0.51756 0.38196,-0.8215 0.13595,-0.30884 0.29303,-0.70797 0.47162,-1.19861 0.18276,-0.49325 0.30262,-0.80536 0.35891,-0.9345 0.0608,-0.13334 0.15209,-0.23832 0.27388,-0.31479 0.12612,-0.0804 0.28169,-0.12415 0.46642,-0.13114 0.18421,-0.007 0.52857,-0.009 1.03049,-0.006 0.49798,0.003 0.86383,0.009 1.0998,0.0187 0.23506,0.009 0.3836,0.0777 0.44615,0.20471 0.0624,0.12662 0.0144,0.4079 -0.14309,0.84257 -0.15374,0.43257 -0.3297,0.8787 -0.52776,1.33837 -0.19718,0.45756 -0.37826,0.84835 -0.54355,1.17323 -0.16181,0.32388 -0.30808,0.60711 -0.43897,0.85002 -0.12949,0.23867 -0.24645,0.4115 -0.35108,0.51884 -0.10157,0.10722 -0.22161,0.20579 -0.3602,0.29578 -0.13758,0.0863 -0.27268,0.13372 -0.40542,0.14219 -0.13297,0.008 -0.4886,0.0212 -1.07061,0.0385 -0.5842,0.0174 -0.98102,0.0298 -1.18696,0.0372 -0.20341,0.007 -0.32322,-0.0319 -0.35902,-0.11778 -0.0348,-0.0899 -0.036,-0.18676 -0.004,-0.29063 0.0323,-0.10399 0.0593,-0.17165 0.0809,-0.20288 0,0 5e-5,-1.8e-4 5e-5,-1.8e-4 m -1.75415,1.11387 c -0.16936,0.43177 -0.27964,0.70651 -0.33135,0.82557 -0.0506,0.11512 -0.0759,0.17263 -0.0759,0.17263 0,0 -0.85005,0.0395 -0.85005,0.0395 0,0 -0.18818,0.009 -0.18818,0.009 -0.2041,0.47384 -0.37541,0.8559 -0.51434,1.14726 -0.13858,0.29059 -0.28239,0.57705 -0.43144,0.85945 -0.14541,0.28152 -0.31039,0.57649 -0.49488,0.8849 -0.18313,0.30402 -0.31326,0.51115 -0.39067,0.62185 0,0 -0.97278,0.0698 -0.97278,0.0698 0,0 0.73217,-1.2628 0.73217,-1.2628 0.3736,-0.72206 0.63377,-1.25029 0.77914,-1.58218 0.15019,-0.33696 0.25017,-0.57549 0.29962,-0.71497 0,0 -0.89689,0.0416 -0.89689,0.0416 0,0 0.26153,-0.6708 0.26153,-0.6708 0,0 0.1131,-0.32475 0.1131,-0.32475 0,0 0.15323,-0.006 0.15323,-0.006 0,0 2.8077,-0.10983 2.8077,-0.10983 m -1.9521,4.48101 c 0,0 0.5343,-0.79911 0.5343,-0.79911 0,0 0.46792,-0.77698 0.46792,-0.77698 0,0 0.43592,-0.82924 0.43592,-0.82924 0,0 0.42097,-0.85659 0.42097,-0.85659 0,0 0.29944,-0.67135 0.29944,-0.67135 0,0 0.22131,-0.52468 0.22131,-0.52468 0,0 0.66234,-0.0261 0.66234,-0.0261 0,0 0.29758,-0.0117 0.29758,-0.0117 0,0 -0.23812,0.62806 -0.23812,0.62806 0,0 -0.26361,0.60296 -0.26361,0.60296 0,0 -0.24812,0.51601 -0.24812,0.51601 0,0 0.78942,-0.0634 0.78942,-0.0634 0,0 0.29298,-0.60366 0.29298,-0.60366 0,0 0.32912,-0.80928 0.32912,-0.80928 0,0 0.10156,-0.28962 0.10156,-0.28962 0,0 0.94108,-0.0261 0.94108,-0.0261 -0.16715,0.43618 -0.30641,0.77731 -0.41816,1.02449 -0.10732,0.24274 -0.26321,0.5583 -0.46734,0.94613 -0.20345,0.38655 -0.36545,0.68338 -0.48636,0.8912 -0.12072,0.20749 -0.25006,0.4241 -0.38799,0.64982 -0.13461,0.22515 -0.34084,0.50959 -0.61857,0.85326 0,0 -0.84507,0.0609 -0.84507,0.0609 0,0 0.45329,-0.70829 0.45329,-0.70829 0,0 0.41158,-0.67121 0.41158,-0.67121 0,0 0.21583,-0.40238 0.21583,-0.40238 0,0 -0.77827,0.0296 -0.77827,0.0296 0,0 -0.20986,0.3664 -0.20986,0.3664 0,0 -0.42082,0.63829 -0.42082,0.63829 0,0 -0.53761,0.79391 -0.53761,0.79391 0,0 -0.93528,0.0672 -0.93528,0.0672 0,0 -0.0195,0.001 -0.0195,0.001 m 5.53953,-4.55477 c 0,0 0.92817,-0.0368 0.92817,-0.0368 0,0 1.49233,-0.0592 1.49233,-0.0592 -0.15426,0.37542 -0.29628,0.66439 -0.42638,0.86782 0,0 -1.57338,0.0729 -1.57338,0.0729 -0.12802,0.27789 -0.25347,0.52249 -0.37646,0.73408 0,0 1.57293,-0.0816 1.57293,-0.0816 0,0 -0.1997,0.39342 -0.1997,0.39342 0,0 -0.31649,0.50433 -0.31649,0.50433 0,0 -1.52799,0.0897 -1.52799,0.0897 0,0 -0.41506,0.72108 -0.41506,0.72108 0,0 -0.1148,0.17643 -0.1148,0.17643 0,0 1.493,-0.082 1.493,-0.082 0,0 -0.30174,0.44667 -0.30174,0.44667 0,0 -0.32708,0.41632 -0.32708,0.41632 0,0 -2.33497,0.16785 -2.33497,0.16785 0.34227,-0.48436 0.60851,-0.88715 0.79837,-1.20793 0.19139,-0.32519 0.36869,-0.63243 0.53184,-0.92161 0.16459,-0.29352 0.3204,-0.59269 0.46747,-0.89764 0.15056,-0.30595 0.36028,-0.74005 0.62991,-1.30388 0,0 3e-5,-1e-5 3e-5,-1e-5" />
      <path
         inkscape:connector-curvature="0"
         id="path2232"
         style="font-style:normal;font-variant:normal;font-weight:normal;font-stretch:normal;font-size:medium;line-height:1.25;font-family:'Back to the future 2002';-inkscape-font-specification:'Back to the future 2002, ';letter-spacing:0px;word-spacing:0px;fill:url(#linearGradient3592);fill-opacity:1;stroke:none;stroke-width:0.26458332"
         d="m 202.65043,179.98481 c 0,0 2.0502,0.0142 2.0502,0.0142 -0.28466,0.81784 -0.62344,1.66291 -1.01576,2.53527 -0.38613,0.86455 -0.77606,1.68814 -1.17015,2.47216 -0.39118,0.77824 -0.81043,1.54025 -1.25793,2.28705 -0.441,0.73883 -0.73596,1.19971 -0.88674,1.38575 -0.14794,0.18572 -0.32476,0.355 -0.53065,0.50805 -0.20333,0.15298 -0.41789,0.27544 -0.64394,0.36744 -0.22543,0.0888 -0.45453,0.15489 -0.68749,0.19814 -0.23093,0.0432 -0.96224,0.10925 -2.21177,0.19947 -0.9216,0.0666 -1.40689,0.047 -1.44583,-0.0597 -0.035,-0.11064 -0.0584,-0.20347 -0.07,-0.27835 -0.0117,-0.075 0.008,-0.1712 0.0582,-0.28862 0.0505,-0.11757 0.20827,-0.41931 0.47407,-0.90662 0.26688,-0.48933 0.63639,-1.21484 1.11089,-2.1815 0,0 0.9023,-0.0226 0.9023,-0.0226 0,0 0.97722,-0.058 0.97722,-0.058 -0.29242,0.59265 -0.52128,1.03727 -0.68748,1.33577 -0.16179,0.29406 -0.14622,0.43015 0.046,0.40888 0.1928,-0.0248 0.39838,-0.0433 0.61659,-0.0556 0.21855,-0.0157 0.3896,-0.0528 0.51361,-0.11135 0.1278,-0.062 0.29085,-0.22731 0.4895,-0.49613 0.20172,-0.26934 0.42169,-0.6389 0.66049,-1.10993 0.24383,-0.47677 0.51422,-1.03631 0.81178,-1.68014 0.3007,-0.65164 0.5672,-1.25765 0.79904,-1.81737 0.23326,-0.5631 0.43428,-1.05857 0.60261,-1.48535 0.17196,-0.42879 0.33714,-0.81598 0.49534,-1.16096 0,0 -1e-5,1e-4 -1e-5,1e-4" />
      <path
         inkscape:connector-curvature="0"
         id="path2234"
         style="font-style:normal;font-variant:normal;font-weight:normal;font-stretch:normal;font-size:medium;line-height:1.25;font-family:'Back to the future 2002';-inkscape-font-specification:'Back to the future 2002, ';letter-spacing:0px;word-spacing:0px;fill:url(#linearGradient3594);fill-opacity:1;stroke:none;stroke-width:0.26458332"
         d="m 201.27239,189.59302 c 0.37936,-0.56341 0.64729,-0.9723 0.80294,-1.22543 0.15978,-0.25716 0.43757,-0.73235 0.83488,-1.42828 0.40353,-0.70363 0.76109,-1.37023 1.0723,-1.99955 0.31578,-0.63328 0.62073,-1.28243 0.91495,-1.94803 0.29894,-0.67033 0.71729,-1.63379 1.25892,-2.89957 0,0 1.86633,0.0116 1.86633,0.0116 0,0 3.19367,0.0249 3.19367,0.0249 -0.29569,0.82058 -0.56261,1.46027 -0.80219,1.92372 0,0 -3.19193,-0.002 -3.19193,-0.002 -0.26555,0.63269 -0.49842,1.15972 -0.69934,1.58303 0,0 3.18868,-0.042 3.18868,-0.042 -0.26133,0.53489 -0.59514,1.15354 -1.00065,1.85494 0,0 -3.21324,0.1304 -3.21324,0.1304 -0.60792,1.04808 -0.97193,1.67064 -1.0959,1.87433 -0.12256,0.20003 -0.5494,0.87169 -1.27603,2.00797 0,0 -1.85339,0.13398 -1.85339,0.13398" />
      <path
         inkscape:connector-curvature="0"
         id="path2236"
         style="font-style:normal;font-variant:normal;font-weight:normal;font-stretch:normal;font-size:medium;line-height:1.25;font-family:'Back to the future 2002';-inkscape-font-specification:'Back to the future 2002, ';letter-spacing:0px;word-spacing:0px;fill:url(#linearGradient3596);fill-opacity:1;stroke:none;stroke-width:0.26458332"
         d="m 212.50586,180.08432 c 0,0 1.778,0.0118 1.778,0.0118 -0.33454,0.75795 -0.66537,1.44225 -0.99318,2.05499 -0.32589,0.60918 -0.65629,1.2166 -0.99121,1.82236 -0.33173,0.5991 -0.70846,1.22704 -1.12999,1.88382 -0.41939,0.65347 -0.63041,1.04931 -0.63462,1.18971 -0.004,0.14002 0.0714,0.20079 0.22641,0.18263 0.1582,-0.0214 0.32368,-0.0371 0.49636,-0.0469 0.17214,-0.01 0.32513,-0.0416 0.45923,-0.0953 0.13389,-0.0536 0.26727,-0.16543 0.40037,-0.33573 0.13322,-0.17042 0.35118,-0.49694 0.65471,-0.98086 0.30826,-0.4891 0.64675,-1.05872 1.01621,-1.71032 0.37303,-0.65879 0.71852,-1.295 1.03623,-1.90844 0.32329,-0.62058 0.6402,-1.30028 0.95126,-2.04104 0,0 1.54141,0.0101 1.54141,0.0101 -0.21986,0.5813 -0.45631,1.12724 -0.70951,1.63893 -0.24833,0.50566 -0.53119,1.04773 -0.84825,1.62584 -0.31397,0.57171 -0.69426,1.22074 -1.14011,1.9461 -0.44096,0.72083 -0.87591,1.37343 -1.30572,1.95953 -0.42478,0.58076 -0.81472,0.97899 -1.17164,1.19667 -0.35782,0.21823 -0.83269,0.34881 -1.42869,0.39168 -0.60241,0.0433 -1.19885,0.0923 -1.78892,0.14693 -0.59374,0.055 -0.94531,-0.007 -1.05061,-0.1872 -0.10349,-0.18137 0.0345,-0.55093 0.41553,-1.10954 0.38489,-0.5609 0.80857,-1.21984 1.27207,-1.97872 0.47006,-0.767 0.9172,-1.55941 1.34176,-2.37855 0.42799,-0.82576 0.96085,-1.91868 1.60289,-3.28851 0,0 1e-5,-2e-5 1e-5,-2e-5" />
      <path
         inkscape:connector-curvature="0"
         id="path2238"
         style="font-style:normal;font-variant:normal;font-weight:normal;font-stretch:normal;font-size:medium;line-height:1.25;font-family:'Back to the future 2002';-inkscape-font-specification:'Back to the future 2002, ';letter-spacing:0px;word-spacing:0px;fill:url(#linearGradient3598);fill-opacity:1;stroke:none;stroke-width:0.26458332"
         d="m 222.59898,180.16543 c -0.40086,0.80017 -0.65909,1.30846 -0.77711,1.52971 -0.11776,0.22074 -0.17654,0.33093 -0.17654,0.33093 0,0 -1.48262,0.0177 -1.48262,0.0177 -0.42849,0.86418 -0.79647,1.56626 -1.10576,2.11025 -0.3043,0.53801 -0.61341,1.06306 -0.92746,1.57553 -0.31263,0.51015 -0.65864,1.04763 -1.03784,1.61232 -0.37423,0.55916 -0.63386,0.93707 -0.77998,1.13534 0,0 -1.54396,0.11105 -1.54396,0.11105 0,0 1.50836,-2.31812 1.50836,-2.31812 1.16133,-1.84935 1.94373,-3.25795 2.33707,-4.21259 0,0 -1.57356,0.0188 -1.57356,0.0188 0,0 0.63682,-1.31237 0.63682,-1.31237 0,0 0.27145,-0.62869 0.27145,-0.62869 0,0 0.24422,0.002 0.24422,0.002 0,0 4.40691,0.0285 4.40691,0.0285" />
      <path
         inkscape:connector-curvature="0"
         id="path2240"
         style="font-style:normal;font-variant:normal;font-weight:normal;font-stretch:normal;font-size:medium;line-height:1.25;font-family:'Back to the future 2002';-inkscape-font-specification:'Back to the future 2002, ';letter-spacing:0px;word-spacing:0px;fill:url(#linearGradient3600);fill-opacity:1;stroke:none;stroke-width:0.26458332"
         d="m 223.54093,180.15738 c 0,0 1.44247,0.01 1.44247,0.01 -0.34258,0.68326 -0.67554,1.3006 -0.99956,1.85372 -0.3223,0.55022 -0.64829,1.09915 -0.97798,1.64688 -0.32664,0.54198 -0.69279,1.11028 -1.0983,1.70488 -0.40366,0.59188 -0.61331,0.95077 -0.6303,1.07846 -0.017,0.12737 0.0386,0.18306 0.16636,0.16735 0.13069,-0.0187 0.26678,-0.032 0.4082,-0.0401 0.14103,-0.008 0.26861,-0.0362 0.38293,-0.0844 0.11417,-0.0481 0.23352,-0.14931 0.35822,-0.30372 0.1248,-0.15452 0.33351,-0.4507 0.62684,-0.8896 0.29757,-0.44343 0.62727,-0.95972 0.98975,-1.55006 0.36586,-0.59652 0.70695,-1.17228 1.02307,-1.72713 0.32115,-0.56098 0.64236,-1.17502 0.96417,-1.84369 0,0 1.25772,0.008 1.25772,0.008 -0.23264,0.52543 -0.47576,1.01921 -0.72961,1.48228 -0.24943,0.45783 -0.53059,0.94888 -0.84319,1.47282 -0.30964,0.51841 -0.68085,1.10718 -1.113,1.76551 -0.42797,0.65459 -0.84484,1.24738 -1.2514,1.77979 -0.40208,0.52774 -0.7584,0.88911 -1.07049,1.08574 -0.31281,0.19708 -0.71248,0.31327 -1.20203,0.34848 -0.49431,0.0356 -0.98383,0.0762 -1.46825,0.12213 -0.48698,0.0462 -0.76576,-0.0127 -0.83322,-0.17756 -0.0659,-0.16579 0.0823,-0.50121 0.44586,-1.00695 0.36674,-0.50762 0.77431,-1.10385 1.22367,-1.79025 0.45518,-0.69332 0.89394,-1.40927 1.31667,-2.14893 0.4258,-0.74503 0.96161,-1.73023 1.6114,-2.96347 0,0 0,-2e-5 0,-2e-5" />
      <path
         inkscape:connector-curvature="0"
         id="path2242"
         style="font-style:normal;font-variant:normal;font-weight:normal;font-stretch:normal;font-size:medium;line-height:1.25;font-family:'Back to the future 2002';-inkscape-font-specification:'Back to the future 2002, ';letter-spacing:0px;word-spacing:0px;fill:url(#linearGradient3602);fill-opacity:1;stroke:none;stroke-width:0.26458332"
         d="m 223.4312,188.00495 c 0.7989,-1.06055 1.41237,-1.89335 1.83769,-2.49492 0.42723,-0.60427 0.83374,-1.20347 1.21955,-1.79783 0.39096,-0.60036 0.77436,-1.21947 1.15046,-1.85802 0.38167,-0.64554 0.71114,-1.23155 0.98782,-1.75724 0,0 1.73649,0.0132 1.73649,0.0132 0.85347,0.0472 1.27543,0.18311 1.27821,0.40742 0.004,0.22033 -0.0979,0.5107 -0.30578,0.87095 -0.20707,0.35889 -0.44639,0.75453 -0.71773,1.18661 -0.26862,0.43029 -0.4582,0.72286 -0.56947,0.87887 -0.10973,0.15307 -0.2735,0.34977 -0.49127,0.59008 -0.21598,0.24007 -0.59593,0.5053 -1.14216,0.79698 -0.17554,0.81139 -0.50611,1.78001 -0.98793,2.90157 0,0 -1.31356,0.0954 -1.31356,0.0954 0.23533,-0.57355 0.37856,-0.99875 0.42843,-1.27315 0.0532,-0.27869 0.0614,-0.62066 0.0243,-1.02791 -0.22117,0.32691 -0.39365,0.57392 -0.51778,0.74153 -0.12263,0.16466 -0.52676,0.70759 -1.20929,1.62462 0,0 -1.38675,0.10029 -1.38675,0.10029 0,0 -0.0212,0.002 -0.0212,0.002 m 4.24153,-4.24063 c 0.36881,-0.0114 0.62362,-0.0428 0.76634,-0.0942 0.14246,-0.0513 0.27642,-0.14503 0.40214,-0.28137 0.12744,-0.13646 0.22795,-0.2584 0.30154,-0.36587 0.0767,-0.11042 0.22885,-0.33991 0.45682,-0.6892 0.23175,-0.35322 0.30967,-0.56391 0.23304,-0.63141 -0.0769,-0.0677 -0.34089,-0.0897 -0.79499,-0.0657 -0.30353,0.51624 -0.58956,0.97574 -0.85856,1.37947 -0.2664,0.40233 -0.43496,0.65143 -0.50633,0.74827 0,0 0,0 0,0" />
      <path
         inkscape:connector-curvature="0"
         id="path2244"
         style="font-style:normal;font-variant:normal;font-weight:normal;font-stretch:normal;font-size:medium;line-height:1.25;font-family:'Back to the future 2002';-inkscape-font-specification:'Back to the future 2002, ';letter-spacing:0px;word-spacing:0px;fill:url(#linearGradient3604);fill-opacity:1;stroke:none;stroke-width:0.26458332"
         d="m 228.03864,187.60341 c 0.60466,-0.80244 1.10249,-1.47747 1.49223,-2.0235 0.39436,-0.5511 0.75291,-1.0725 1.07548,-1.5641 0.32398,-0.49376 0.64643,-0.99914 0.96747,-1.51644 0.32423,-0.51991 0.78579,-1.27514 1.38791,-2.27108 0,0 1.12336,0.007 1.12336,0.007 0,0 1.86061,0.0161 1.86061,0.0161 -0.36911,0.65833 -0.67381,1.16729 -0.91558,1.52965 0,0 -1.88901,-0.008 -1.88901,-0.008 -0.29517,0.4923 -0.54764,0.90307 -0.75801,1.23338 0,0 1.89386,-0.0183 1.89386,-0.0183 -0.27221,0.42071 -0.60581,0.90789 -1.00033,1.46096 0,0 -1.92734,0.0782 -1.92734,0.0782 -0.56467,0.80355 -0.92509,1.30398 -1.08383,1.50498 0,0 1.96308,-0.0843 1.96308,-0.0843 -0.37023,0.48829 -0.75041,0.97691 -1.14063,1.46603 0,0 -3.07735,0.22134 -3.07735,0.22134 0,0 0.0281,-0.0323 0.0281,-0.0323" />
    </g>
    <g
       id="g3516"
       style="fill:url(#linearGradient3526);fill-opacity:1">
      <g
         transform="matrix(1,0,-0.11988302,1,20.826228,0)"
         id="g3000"
         style="fill:url(#linearGradient3614);fill-opacity:1">
        <path
           d="m 192.83608,168.13263 c 0,0 1.1436,1.55631 1.1436,1.55631 0,0 0.24614,0.37294 0.24614,0.37294 0,0 0.16563,0.27314 0.16563,0.27314 -1.37256,-0.14702 -2.43628,-0.25297 -3.1757,-0.31606 -0.74397,-0.0635 -1.15469,-0.0673 -1.22571,-0.0109 -0.0724,0.0526 -0.0975,0.15458 -0.0751,0.30637 0.0257,0.14881 0.14365,0.42173 0.3555,0.82125 0.21711,0.39974 0.50747,0.92287 0.87376,1.57409 0.37089,0.65731 0.6787,1.21797 0.92101,1.67793 0.24506,0.4652 0.43567,0.81212 0.57024,1.03762 0.13834,0.2222 0.24973,0.38407 0.33377,0.48492 0.0873,0.0965 0.27678,0.25073 0.56882,0.46289 0.29113,0.20781 0.6468,0.31882 1.06448,0.33266 0.41485,0.0138 1.75255,0.0581 3.95342,0.13108 0,0 0.55463,0.97148 0.55463,0.97148 0,0 0.9704,2.02632 0.9704,2.02632 -4.21695,-0.0337 -6.46498,-0.0517 -6.5123,-0.0521 -0.0474,-3.8e-4 -0.20868,-0.002 -0.48479,-0.004 -0.27258,-0.002 -0.68599,-0.16646 -1.23888,-0.49256 -0.54882,-0.33088 -0.93824,-0.67411 -1.16754,-1.0281 -0.22765,-0.35141 -0.51412,-0.92235 -0.85571,-1.7034 -0.33161,-0.77091 -0.75444,-1.67176 -1.26359,-2.69425 -0.49674,-0.99754 -0.92684,-1.82143 -1.29491,-2.48189 -0.35774,-0.64974 -0.65171,-1.17458 -0.88442,-1.57919 -0.23043,-0.40067 -0.39176,-0.67894 -0.48538,-0.83728 -0.0888,-0.15733 -0.18219,-0.33596 -0.28014,-0.53557 -0.0983,-0.20249 -0.048,-0.43163 0.14863,-0.68578 0.19762,-0.25431 0.54346,-0.36231 1.03641,-0.32665 0.49324,0.0358 1.25915,0.1143 2.28869,0.23434 1.01379,0.11821 2.26773,0.28033 3.74909,0.48435 0,0 -3e-5,-8e-5 -3e-5,-8e-5"
           style="font-style:normal;font-variant:normal;font-weight:normal;font-stretch:normal;font-size:medium;line-height:1.25;font-family:'Back to the future 2002';-inkscape-font-specification:'Back to the future 2002, ';letter-spacing:0px;word-spacing:0px;fill:url(#linearGradient3606);fill-opacity:1;stroke:none;stroke-width:0.26458332"
           id="path2220"
           inkscape:connector-curvature="0" />
        <path
           d="m 202.55392,176.52434 c 0.0249,0.0399 0.0932,0.13566 0.20512,0.28768 0.11219,0.15252 0.24299,0.29512 0.39233,0.42763 0.15348,0.13288 0.31874,0.20201 0.49517,0.20717 0.1797,0.005 0.52525,0.022 1.0338,0.05 0.5059,0.0234 0.80893,0.0322 0.91221,0.0265 0.10466,-0.01 0.15824,-0.0735 0.16091,-0.19021 6.1e-4,-0.12055 -0.0298,-0.25656 -0.0911,-0.40795 -0.0594,-0.1549 -0.20072,-0.40265 -0.42275,-0.74167 -0.2222,-0.34044 -0.48445,-0.73298 -0.7857,-1.17613 -0.29809,-0.43846 -0.66585,-0.96053 -1.10095,-1.56317 -0.42718,-0.59775 -0.84567,-1.1628 -1.25618,-1.69653 -0.40364,-0.5306 -0.70692,-0.87498 -0.91326,-1.0378 -0.2059,-0.16248 -0.40943,-0.25602 -0.61141,-0.28095 -0.20423,-0.0287 -0.50874,-0.061 -0.91514,-0.0971 -0.40922,-0.0363 -0.68553,-0.0555 -0.82709,-0.0574 -0.13985,-0.005 -0.2144,0.0365 -0.22338,0.1255 -0.005,0.0896 0.0417,0.21126 0.14144,0.3651 0.10378,0.15475 0.37221,0.53558 0.80974,1.1487 0.44603,0.61849 0.80288,1.12847 1.06754,1.52603 0.26926,0.39756 0.5053,0.75855 0.70737,1.08205 0.20749,0.32629 0.61128,0.98815 1.22146,2.00244 0,0 -9e-5,0 -9e-5,0 m -2.01039,1.73901 c -0.85254,-1.68934 -1.41682,-2.77627 -1.71669,-3.30866 -0.29759,-0.52962 -0.65152,-1.11744 -1.05993,-1.76115 -0.40212,-0.63379 -0.96125,-1.44629 -1.66979,-2.42786 -0.6927,-0.95961 -1.10733,-1.5516 -1.25477,-1.79084 -0.14403,-0.24105 -0.15382,-0.42341 -0.0307,-0.54752 0.12221,-0.12322 0.39335,-0.16983 0.81174,-0.14067 0.41901,0.0293 1.2234,0.10515 2.39804,0.22593 1.15548,0.1188 2.00628,0.2129 2.56532,0.28354 0.55403,0.07 1.04624,0.23345 1.48075,0.49102 0.43339,0.25444 0.98103,0.77601 1.65164,1.5753 0.68115,0.81035 1.36384,1.66928 2.04971,2.58029 0.70105,0.93116 1.28871,1.74483 1.7572,2.43418 0.47789,0.69715 0.88854,1.31598 1.22923,1.8529 0.3453,0.54418 0.54267,0.94171 0.58889,1.18854 0.0479,0.24443 0.0246,0.46525 -0.0707,0.66229 -0.0985,0.19424 -0.30032,0.29761 -0.60623,0.30888 -0.3055,0.016 -1.17296,0.009 -2.62861,-0.0214 -1.49164,-0.0264 -2.51771,-0.0421 -3.0523,-0.0466 -0.53556,-0.004 -0.97539,-0.11767 -1.31533,-0.33935 -0.33727,-0.22613 -0.60446,-0.46761 -0.80123,-0.72372 -0.19355,-0.25947 -0.30206,-0.4242 -0.32625,-0.49514 0,0 3e-5,0 3e-5,0"
           style="font-style:normal;font-variant:normal;font-weight:normal;font-stretch:normal;font-size:medium;line-height:1.25;font-family:'Back to the future 2002';-inkscape-font-specification:'Back to the future 2002, ';letter-spacing:0px;word-spacing:0px;fill:url(#linearGradient3608);fill-opacity:1;stroke:none;stroke-width:0.26458332"
           id="path2222"
           inkscape:connector-curvature="0" />
        <path
           d="m 212.02434,179.87006 c -0.86453,-1.46576 -1.55795,-2.57073 -2.09662,-3.34461 -0.52532,-0.75934 -1.08401,-1.52796 -1.67512,-2.30556 -0.57906,-0.76701 -1.19893,-1.54874 -1.85845,-2.3447 -0.64948,-0.78516 -1.20219,-1.42722 -1.66313,-1.93264 -0.45441,-0.50299 -0.66402,-0.73959 -0.63255,-0.71395 0,0 2.59716,0.26493 2.59716,0.26493 0,0 3.42834,2.44555 3.42834,2.44555 0,0 -0.66269,-2.19546 -0.66269,-2.19546 0,0 2.2138,0.2579 2.2138,0.2579 0.87493,0.84646 1.64816,1.6488 2.31707,2.40594 0.68105,0.77089 1.18791,1.34569 1.51336,1.71624 0.32599,0.37017 0.96321,1.17007 1.93206,2.4265 1.00044,1.29308 1.84179,2.44294 2.51264,3.43728 0,0 -2.04614,-0.0165 -2.04614,-0.0165 -1.24568,-1.79204 -2.14951,-3.02658 -2.74502,-3.7535 -0.58556,-0.71479 -1.43541,-1.69349 -2.53402,-2.91953 0,0 0.29717,2.19244 0.29717,2.19244 0,0 -3.21239,-2.22659 -3.21239,-2.22659 1.05479,1.30665 1.83793,2.3253 2.33131,3.03486 0.50004,0.71838 1.01185,1.4906 1.53698,2.32004 0.53408,0.84317 0.79913,1.28899 0.78642,1.32373 0,0 -2.27513,-0.0183 -2.27513,-0.0183 0,0 0.0615,0.0473 0.0615,0.0473 0,0 0,0 0,0 0,0 -0.12653,-0.10133 -0.12653,-0.10133"
           style="font-style:normal;font-variant:normal;font-weight:normal;font-stretch:normal;font-size:medium;line-height:1.25;font-family:'Back to the future 2002';-inkscape-font-specification:'Back to the future 2002, ';letter-spacing:0px;word-spacing:0px;fill:url(#linearGradient3610);fill-opacity:1;stroke:none;stroke-width:0.26458332"
           id="path2224"
           inkscape:connector-curvature="0" />
        <path
           d="m 221.24006,179.94299 c -0.85884,-1.20253 -1.57978,-2.18279 -2.17361,-2.95673 -0.58493,-0.76286 -1.15218,-1.47056 -1.70353,-2.12622 -0.53998,-0.64525 -1.10023,-1.29405 -1.68032,-1.94638 -0.56855,-0.64222 -1.40026,-1.56551 -2.4785,-2.75177 0,0 1.86847,0.19052 1.86847,0.19052 0,0 3.18992,0.32935 3.18992,0.32935 0.85004,0.78805 1.47273,1.40017 1.86063,1.83001 0,0 -3.27608,-0.31092 -3.27608,-0.31092 0.5724,0.6028 1.0454,1.11341 1.4158,1.52865 0,0 3.28315,0.26641 3.28315,0.26641 0.49478,0.53232 1.0463,1.1572 1.65813,1.87937 0,0 -3.28387,-0.17097 -3.28387,-0.17097 0.88025,1.09144 1.42997,1.78898 1.63199,2.07154 0,0 3.41147,0.14431 3.41147,0.14431 0.54776,0.69068 1.08899,1.39536 1.62384,2.11491 0,0 -5.31509,-0.0432 -5.31509,-0.0432 0,0 -0.0324,-0.0488 -0.0324,-0.0488"
           style="font-style:normal;font-variant:normal;font-weight:normal;font-stretch:normal;font-size:medium;line-height:1.25;font-family:'Back to the future 2002';-inkscape-font-specification:'Back to the future 2002, ';letter-spacing:0px;word-spacing:0px;fill:url(#linearGradient3612);fill-opacity:1;stroke:none;stroke-width:0.26458332"
           id="path2226"
           inkscape:connector-curvature="0" />
      </g>
      <g
         style="fill:url(#linearGradient3626);fill-opacity:1"
         id="g3305">
        <path
           style="font-style:normal;font-variant:normal;font-weight:normal;font-stretch:normal;font-size:medium;line-height:1.25;font-family:'Back to the future 2002';-inkscape-font-specification:'Back to the future 2002, ';letter-spacing:0px;word-spacing:0px;fill:url(#linearGradient3616);fill-opacity:1;stroke:none;stroke-width:0.20704305"
           d="m 226.39274,178.27162 c 0,0 -0.32325,-0.93292 -0.32325,-0.93292 0,0 2.63941,0.0719 2.63941,0.0719 -0.2743,-0.61906 -0.57979,-1.30853 -0.91936,-2.07487 -0.34716,-0.79219 -0.75575,-1.56715 -1.22914,-2.32326 0,0 -3.04931,-0.24164 -3.04931,-0.24164 0,0 -0.99893,-1.58131 -0.99893,-1.58131 0.20052,1.29257 0.43589,2.65417 0.70242,4.06879 0,0 3.17816,3.01336 3.17816,3.01336"
           id="path3289"
           inkscape:connector-curvature="0" />
        <path
           style="font-style:normal;font-variant:normal;font-weight:normal;font-stretch:normal;font-size:medium;line-height:1.25;font-family:'Back to the future 2002';-inkscape-font-specification:'Back to the future 2002, ';letter-spacing:0px;word-spacing:0px;fill:url(#linearGradient3618);fill-opacity:1;stroke:none;stroke-width:0.20704305"
           d="m 230.97407,177.41435 c -0.2273,-0.62333 -0.48672,-1.26964 -0.78021,-1.94091 -0.30383,-0.6949 -0.69441,-1.46679 -1.17946,-2.3251 0,0 -1.13878,-0.0953 -1.13878,-0.0953 0.41699,0.60096 0.86004,1.45495 1.32038,2.53247 0.43967,1.02649 0.68774,1.62535 0.76021,1.83379 0,0 1.01788,-0.005 1.01788,-0.005"
           id="path3287"
           inkscape:connector-curvature="0" />
        <path
           style="font-style:normal;font-variant:normal;font-weight:normal;font-stretch:normal;font-size:medium;line-height:1.25;font-family:'Back to the future 2002';-inkscape-font-specification:'Back to the future 2002, ';letter-spacing:0px;word-spacing:0px;fill:url(#linearGradient3620);fill-opacity:1;stroke:none;stroke-width:0.20704305"
           d="m 230.33318,173.21432 c 0.3037,0.55382 0.5589,1.0475 0.76849,1.48531 0.20503,0.42825 0.57359,1.36163 1.08162,2.73317 0,0 0.65472,0.004 0.65472,0.004 -0.19362,-0.61967 -0.33205,-1.03182 -0.41135,-1.22328 -0.0752,-0.18948 -0.2381,-0.5932 -0.49424,-1.22457 -0.26447,-0.65191 -0.5469,-1.22459 -0.84662,-1.71144 0,0 -0.75257,-0.0627 -0.75257,-0.0627"
           id="path3285"
           inkscape:connector-curvature="0" />
        <path
           style="font-style:normal;font-variant:normal;font-weight:normal;font-stretch:normal;font-size:medium;line-height:1.25;font-family:'Back to the future 2002';-inkscape-font-specification:'Back to the future 2002, ';letter-spacing:0px;word-spacing:0px;fill:url(#linearGradient3622);fill-opacity:1;stroke:none;stroke-width:0.20704305"
           d="m 232.416,173.31916 c 0.28834,0.54275 0.51294,1.00588 0.67737,1.39495 0.1637,0.38171 0.29684,0.72104 0.40063,1.02015 0.10478,0.2985 0.29525,0.8624 0.56431,1.66973 0,0 0.44035,0.01 0.44035,0.01 -0.0233,-0.16801 -0.0812,-0.39363 -0.17448,-0.67896 -0.0946,-0.28951 -0.16035,-0.48315 -0.19634,-0.5781 -0.0338,-0.0917 -0.0826,-0.23722 -0.14656,-0.43774 -0.0623,-0.19868 -0.39867,-0.95867 -1.04183,-2.34998 0,0 -0.52344,-0.0497 -0.52344,-0.0497"
           id="path3283"
           inkscape:connector-curvature="0" />
        <path
           style="font-style:normal;font-variant:normal;font-weight:normal;font-stretch:normal;font-size:medium;line-height:1.25;font-family:'Back to the future 2002';-inkscape-font-specification:'Back to the future 2002, ';letter-spacing:0px;word-spacing:0px;fill:url(#linearGradient3624);fill-opacity:1;stroke:none;stroke-width:0.20704305"
           d="m 234.14243,173.43674 c 0.17599,0.34351 0.29508,0.57862 0.35926,0.7092 0.0663,0.12988 0.13739,0.29023 0.21335,0.48037 0.0776,0.1885 0.19016,0.45458 0.33621,0.79505 0.14581,0.33466 0.36498,1.00197 0.64884,1.97032 0,0 0.28143,0.0215 0.28143,0.0215 -0.13318,-0.60181 -0.27417,-1.08139 -0.42196,-1.43024 -0.14824,-0.35527 -0.30769,-0.74751 -0.47904,-1.17869 -0.1703,-0.43658 -0.3897,-0.88631 -0.66041,-1.3506 0,0 -0.27768,-0.0169 -0.27768,-0.0169"
           id="path2228"
           inkscape:connector-curvature="0" />
      </g>
    </g>
  </g>
</svg>
