<?xml version="1.0" encoding="UTF-8" standalone="no"?>
<!-- Created with Inkscape (http://www.inkscape.org/) -->

<svg
   xmlns:dc="http://purl.org/dc/elements/1.1/"
   xmlns:cc="http://creativecommons.org/ns#"
   xmlns:rdf="http://www.w3.org/1999/02/22-rdf-syntax-ns#"
   xmlns:svg="http://www.w3.org/2000/svg"
   xmlns="http://www.w3.org/2000/svg"
   xmlns:sodipodi="http://sodipodi.sourceforge.net/DTD/sodipodi-0.dtd"
   xmlns:inkscape="http://www.inkscape.org/namespaces/inkscape"
   width="12in"
   height="12in"
   viewBox="0 0 304.8 304.80001"
   version="1.1"
   id="svg8"
   inkscape:version="0.92.1 r"
   sodipodi:docname="the_future.svg"
   inkscape:export-filename="/home/madhead/Projects/t-shirts/th_ftr/the_future.png"
   inkscape:export-xdpi="300"
   inkscape:export-ydpi="300">
  <defs
     id="defs2" />
  <sodipodi:namedview
     id="base"
     pagecolor="#000000"
     bordercolor="#666666"
     borderopacity="1.0"
     inkscape:pageopacity="1"
     inkscape:pageshadow="2"
     inkscape:zoom="0.5"
     inkscape:cx="166.42138"
     inkscape:cy="485.8587"
     inkscape:document-units="in"
     inkscape:current-layer="layer1"
     showgrid="false"
     showborder="true"
     inkscape:window-width="1920"
     inkscape:window-height="999"
     inkscape:window-x="0"
     inkscape:window-y="0"
     inkscape:window-maximized="1"
     units="in" />
  <metadata
     id="metadata5">
    <rdf:RDF>
      <cc:Work
         rdf:about="">
        <dc:format>image/svg+xml</dc:format>
        <dc:type
           rdf:resource="http://purl.org/dc/dcmitype/StillImage" />
        <dc:title></dc:title>
      </cc:Work>
    </rdf:RDF>
  </metadata>
  <g
     inkscape:label="Layer 1"
     inkscape:groupmode="layer"
     id="layer1"
     transform="translate(0,7.8000169)">
    <g
       aria-label="THE FUTURE"
       style="font-style:normal;font-variant:normal;font-weight:normal;font-stretch:normal;font-size:35.11660004px;line-height:1.25;font-family:'Aldo the Apache';-inkscape-font-specification:'Aldo the Apache';letter-spacing:0px;word-spacing:0px;fill:#c1e1b2;fill-opacity:1;stroke:none;stroke-width:0.87791491"
       id="text825">
      <path
         d="M 92.16337,136.91822 H 87.4823 v 20.07888 h -5.229767 v -20.07888 h -4.852538 v -4.71536 H 92.16337 Z"
         style="fill:#c1e1b2;fill-opacity:1;stroke-width:0.87791491"
         id="path865" />
      <path
         d="m 99.467897,142.38805 h 4.458163 v -10.18519 h 5.19547 v 24.79424 h -5.19547 v -9.91084 h -4.458163 v 9.91084 h -5.195473 v -24.79424 h 5.195473 z"
         style="fill:#c1e1b2;fill-opacity:1;stroke-width:0.87791491"
         id="path867" />
      <path
         d="m 111.35061,132.20286 h 12.03704 v 4.71536 h -6.893 v 4.78396 h 6.55007 v 4.62963 h -6.48149 v 5.96707 h 6.99589 v 4.69822 h -12.20851 z"
         style="fill:#c1e1b2;fill-opacity:1;stroke-width:0.87791491"
         id="path869" />
      <path
         d="m 138.69972,146.33181 v 10.66529 h -5.19547 v -21.36488 l 3.42936,-3.42936 h 8.41906 v 4.71536 h -6.65295 v 4.78396 h 6.13855 v 4.62963 z"
         style="fill:#c1e1b2;fill-opacity:1;stroke-width:0.87791491"
         id="path871" />
      <path
         d="m 162.15651,156.9971 h -14.66049 v -24.79424 h 5.19547 v 20.09602 h 4.2524 v -20.09602 h 5.21262 z"
         style="fill:#c1e1b2;fill-opacity:1;stroke-width:0.87791491"
         id="path873" />
      <path
         d="m 179.269,136.91822 h -4.68107 v 20.07888 h -5.22977 v -20.07888 h -4.85254 v -4.71536 H 179.269 Z"
         style="fill:#c1e1b2;fill-opacity:1;stroke-width:0.87791491"
         id="path875" />
      <path
         d="m 196.03855,156.9971 h -14.6605 v -24.79424 h 5.19548 v 20.09602 h 4.2524 v -20.09602 h 5.21262 z"
         style="fill:#c1e1b2;fill-opacity:1;stroke-width:0.87791491"
         id="path877" />
      <path
         d="m 208.04129,156.9971 -3.08642,-8.96776 h -1.37174 v 8.96776 h -5.19547 v -21.2963 l 3.77229,-3.49794 h 10.61385 v 15.75789 h -2.81207 l 3.29218,9.03635 z m -0.46296,-13.61454 v -6.46434 h -3.9952 v 6.46434 z"
         style="fill:#c1e1b2;fill-opacity:1;stroke-width:0.87791491"
         id="path879" />
      <path
         d="m 215.1915,132.20286 h 12.03704 v 4.71536 h -6.89301 v 4.78396 h 6.55007 v 4.62963 h -6.48148 v 5.96707 H 227.4 v 4.69822 h -12.2085 z"
         style="fill:#c1e1b2;fill-opacity:1;stroke-width:0.87791491"
         id="path881" />
    </g>
  </g>
</svg>
