<?xml version="1.0" encoding="UTF-8" standalone="no"?>
<!-- Created with Inkscape (http://www.inkscape.org/) -->

<svg
   xmlns:dc="http://purl.org/dc/elements/1.1/"
   xmlns:cc="http://creativecommons.org/ns#"
   xmlns:rdf="http://www.w3.org/1999/02/22-rdf-syntax-ns#"
   xmlns:svg="http://www.w3.org/2000/svg"
   xmlns="http://www.w3.org/2000/svg"
   version="1.1"
   width="409.26767"
   height="455.40976"
   id="svg2">
  <defs
     id="defs4" />
  <metadata
     id="metadata7">
    <rdf:RDF>
      <cc:Work
         rdf:about="">
        <dc:format>image/svg+xml</dc:format>
        <dc:type
           rdf:resource="http://purl.org/dc/dcmitype/StillImage" />
        <dc:title></dc:title>
      </cc:Work>
    </rdf:RDF>
  </metadata>
  <g
     transform="translate(-85,-342.66688)"
     id="layer1">
    <g
       id="g3785">
      <path
         d="m 257.62893,798.07647 c -5.67664,0 -0.58128,-5.07531 7.94592,-2.76711 3.54653,0.96 6.18636,1.81587 6.48747,2.30307 0.30111,0.48721 -1.40905,0.46404 -4.42153,0.46404 -3.01247,0 -6.0742,0 -6.93007,0 z m -172.62893,0 0,-455.40959 183.06312,0 c 0.44885,0.004 -2.73519,2.06898 -6.00103,3.62991 -8.40731,4.01832 -12.07617,8.03128 -16.35982,17.89419 -4.21748,9.71054 -3.92692,12.308 1.68066,15.02441 l 3.11706,1.50995 0,12.30057 c 0,10.7155 0.29581,12.9423 2.29556,17.28066 2.19222,4.75594 2.21473,5.04037 0.5,6.31882 -4.69978,3.50402 -14.80838,8.4889 -20.53548,10.1267 -14.02978,4.01216 -26.47755,12.11353 -40.73801,26.51351 -4.66286,4.70848 -9.2587,8.56087 -10.21298,8.56087 -0.95428,0 -3.96756,0.87997 -6.69617,1.95549 -8.44692,3.32946 -14.08475,3.61062 -19.72026,0.98343 -3.35502,-1.56406 -7.69176,-2.4805 -13.79914,-2.91604 -8.40786,-0.59959 -9.05166,-0.80967 -11.5,-3.75266 -1.42644,-1.71463 -3.6966,-5.90938 -5.0448,-9.32166 -3.62516,-9.17529 -7.38804,-13.94856 -10.99599,-13.94856 -1.61409,0 -3.96282,2.825 -4.30274,3.375 -0.90799,1.46916 -4.82451,0.84261 -5.69396,-1.68248 -0.33333,-0.96808 -0.58504,-5.36036 -1.06927,-8.78611 -0.90083,-6.3731 -2.87452,-9.71185 -4.974049,-8.41427 -0.79188,0.48941 -1.12897,3.89501 -1.02626,10.36832 0.0841,5.30175 -1.859993,14.15839 -1.41327,17.23368 0,0 0.650153,5.15917 1.7463,7.46915 1.40363,2.95795 5.994609,7.78085 5.994609,7.78085 5.25392,6.81945 7.97947,7.66364 11.37151,7.72615 5.35941,0.0987 6.46321,0.73135 11.94254,6.84443 4.3415,4.84363 4.86343,5.92911 4.94871,10.29199 0.10261,5.24912 1.99157,8.63924 6.81533,12.2315 2.28804,1.70391 4.27348,2.06691 11.43821,2.09126 5.07427,0.0172 11.15783,0.73734 14.6696,1.73638 6.65232,1.89247 6.45856,1.91215 29.65645,-3.01088 11.92087,-2.52983 14.50077,-3.44825 20.29999,-7.22658 4.41493,-2.87644 6.97792,-3.99404 7.64036,-3.3316 0.62207,0.62207 1.0573,15.43431 1.15767,39.40002 0.15737,37.57236 0.11017,38.57627 -2.18168,46.40319 -3.09062,10.5548 -3.16152,19.38446 -0.20877,26 2.70627,6.06331 7.6708,11.33311 19.9415,21.16769 5.11804,4.10194 9.5359,8.05844 9.81748,8.79223 0.28158,0.73378 -1.0699,5.99299 -3.00329,11.68712 -3.37949,9.95313 -4.44279,15.98808 -6.52048,37.00815 -0.88393,8.94276 -1.25807,10.10015 -5.07067,15.68561 -6.87537,10.07241 -11.46447,23.75681 -14.13822,42.1592 -1.45529,10.01623 -1.53344,42.48733 -0.12635,52.5 0.54104,3.85 1.02712,7.75135 0.55085,7.75 z m 183.82317,-11.95919 c -1.47225,-0.22524 -3.08543,-0.94532 -3.58483,-1.60017 -1.26252,-1.65549 -4.60606,-14.65627 -3.94047,-15.32185 0.67169,-0.67169 7.59241,-2.31246 9.89085,-2.34493 1.26361,-0.0179 1.84936,1.17188 2.32685,4.72614 0.35097,2.6125 1.22343,6.86761 1.9388,9.4558 0.71537,2.58819 1.05579,4.95069 0.75648,5.25 -0.57158,0.57158 -2.9153,0.51924 -7.38768,-0.16499 z m -38.1917,-1.99266 c -1.66553,-1.66553 -0.14311,-45.03056 1.89747,-54.04815 1.29782,-5.73521 4.84931,0.44527 8.4758,14.75 1.18519,4.675 3.01898,9.90312 4.07507,11.61803 1.0561,1.71492 1.92018,4.14006 1.92018,5.38919 0,3.49811 -5.27805,13.93604 -7,13.84328 -3.25251,-0.17522 -3.80095,0.27491 -4.43174,3.63735 -0.61962,3.30283 -3.56972,6.17735 -4.93678,4.8103 z m 51.04524,-17.04815 c -0.81597,-3.7125 -1.78219,-9.45 -2.14715,-12.75 -1.03889,-9.39369 -2.4669,-13.75718 -5.56349,-17 -1.57559,-1.65 -3.56252,-4.67305 -4.4154,-6.71788 -1.6908,-4.05383 -2.14886,-17.29439 -0.63075,-18.23263 1.50885,-0.93253 5.01886,4.40458 6.48327,9.85809 0.7521,2.80083 2.3109,9.81742 3.46401,15.59242 1.15311,5.775 2.97877,13.65 4.05703,17.5 2.04536,7.3031 2.74496,18.5 1.15591,18.5 -0.50591,0 -1.58746,-3.0375 -2.40343,-6.75 z"
         id="path3000"
         style="fill:#2054a5" />
      <path
         d="m 338.99678,798.07647 c -2.67591,0 -2.54895,-11.3823 -1.20131,-41.88232 1.60998,-36.43754 3.052,-42.34548 5.87793,-24.08189 0.63826,4.125 2.53872,14.83774 4.22324,23.8061 2.83812,15.11008 2.94701,16.48277 1.48451,18.71481 -3.58472,5.47099 -1.58274,9.45156 6.78269,13.48614 l 6.30993,3.04322 13.41457,-1.61509 c 16.64052,-2.0035 18.52276,-2.77976 18.10707,-7.46757 -0.16912,-1.90719 -1.21521,-4.73232 -2.32464,-6.27807 -9.55417,-13.31167 -12.99526,-21.56551 -20.48397,-49.13314 -2.99656,-11.03102 -6.36695,-22.85824 -7.48975,-26.28272 -1.1228,-3.42448 -1.75675,-6.68698 -1.40878,-7.25 0.81447,-1.31786 5.97342,-1.30168 10.78241,0.0338 2.67902,0.74398 4.91977,2.50371 7.75437,6.08974 14.0672,17.79635 22.3832,45.68076 25.9022,86.85277 0.78131,9.14119 1.06445,11.96422 -0.70458,11.96422 z m 81.19128,0 c -0.61316,-0.42366 -1.63845,-5.63921 -2.27843,-11.96421 -2.47184,-24.42955 -10.31318,-61.19028 -16.17502,-75.82952 -6.24375,-15.59303 -13.89297,-25.60774 -23.11472,-30.26286 -3.86203,-1.94955 -6.67787,-4.25137 -8.41865,-6.88188 -2.54962,-3.85273 -7.82277,-7.1621 -13.67472,-8.5821 -3.57779,-0.86816 -4.31015,-2.43411 -5.11811,-10.94364 -0.5034,-5.30187 -1.65573,-8.99653 -4.7501,-15.23006 -5.02385,-10.12041 -4.81197,-13.31565 1.27057,-19.1603 l 4.03243,-3.87472 15.67079,-0.62359 c 8.61894,-0.34298 19.39436,-0.89399 23.94538,-1.22446 l 8.27458,-0.60087 4.47542,4.47542 c 4.37287,4.37288 4.47494,4.62164 4.45458,10.857 -0.027,8.27429 -2.15504,18.31346 -4.41014,20.80532 -0.97815,1.08084 -3.19383,2.10266 -4.92374,2.27071 -2.7413,0.2663 -3.18553,0.72298 -3.45864,3.55555 -0.28684,2.97497 -0.0753,3.24814 2.5,3.22804 4.24313,-0.0331 10.5482,-3.28081 13.75627,-7.08574 3.84896,-4.56506 5.53993,-8.89793 6.97197,-17.86469 l 1.20219,-7.52761 1.94147,3.90969 c 2.3474,4.72716 4.85523,6.57654 6.57964,4.85213 0.9243,-0.9243 -0.54654,-3.83681 -3.08916,-13.35252 -1.80531,-6.75637 -4.34385,-15.94348 -4.4157,-20.6593 l -0.13332,-8.75 -4,0 c -3.99509,0 -4.00061,0.005 -4.5,4.4671 -0.41382,3.69713 -1.08567,4.86059 -3.89788,6.75 -2.9841,2.00489 -4.6281,2.28146 -13.5,2.27111 -5.55617,-0.006 -17.62506,0.52643 -26.81976,1.18427 -15.4962,1.10867 -16.85858,1.06852 -18.64655,-0.54957 -1.58742,-1.4366 -2.98395,-1.62627 -7.8885,-1.07138 l -5.9596,0.67425 -2.30538,-4.86289 c -1.26795,-2.67459 -4.21011,-7.78789 -6.53812,-11.36289 -5.91665,-9.08586 -6.84152,-12.6219 -6.08584,-23.26795 1.18737,-16.7277 9.79405,-72.1976 11.78934,-75.98205 0.50746,-0.9625 1.48181,-1.75 2.16522,-1.75 2.36953,0 16.23931,4.9102 26.67564,9.44375 5.76871,2.50594 11.41438,4.55625 12.54594,4.55625 1.13156,0 8.5617,-1.40934 16.51143,-3.13187 7.94973,-1.72253 16.78998,-3.07921 19.64499,-3.01486 6.40043,0.14428 9.7909,-2.34184 13.24186,-9.70978 2.00163,-4.27355 3.66493,-5.9054 10.96341,-10.75607 11.81656,-7.85345 20.36416,-14.84264 28.45014,-23.26304 0,0 5.77937,-4.01223 6.84634,-7.1295 0.56961,-1.66416 0.0658,-5.49208 0.0658,-5.49208 -0.3818,-2.88609 -1.59819,-10.51981 -2.10976,-17.26282 -0.63302,-8.34389 -1.7181,-18.00513 -2.82846,-19.69975 -3.42485,-5.22698 -5.52629,3.44718 -4.66191,12.70364 0.69966,7.49242 -0.0461,8.46855 -5.07968,6.6484 -6.60537,-2.38853 -10.82544,2.86476 -13.19225,16.42216 -0.76729,4.39511 -1.82881,8.51374 -2.35895,9.15252 -0.53014,0.63878 -3.23934,2.22718 -6.02044,3.52978 l -5.05655,2.36836 -2.85373,-3.41831 c -2.58376,-3.09493 -3.12466,-3.32303 -5.7175,-2.41118 -1.7778,0.62522 -3.74832,2.61066 -5.19641,5.23577 -1.78014,3.22704 -2.92656,4.22863 -4.84011,4.22863 -1.37911,0 -5.73289,1.44789 -9.67508,3.21754 -9.21305,4.13574 -14.12884,4.16234 -22.7325,0.12299 -8.62489,-4.04932 -12.18839,-7.25795 -15.25592,-13.73666 -6.17614,-13.04421 -16.75782,-18.61144 -41.05474,-21.59972 -10.67904,-1.31341 -15.78805,-3.71896 -19.12487,-9.00482 -3.63975,-5.76573 -3.26193,-8.87767 1.84028,-15.15766 5.79324,-7.13054 6.66014,-8.95071 6.66014,-13.98377 0,-3.57183 0.60219,-4.89028 3.6673,-8.02923 l 3.6673,-3.75566 -1.21772,-5.44134 c -1.92579,-8.60535 -5.69281,-15.00566 -12.67741,-21.53941 -3.54171,-3.3131 -6.7333,-5.36086 -6.43947,-5.36086 l 86.75,0 109.71474,-0.17678 0,455.40959 z M 361.3029,778.75971 c -3.37309,-1.91374 -4.19466,-3.04349 -5.24205,-7.20843 -4.67424,-18.58718 -8.34373,-73.43902 -4.91294,-73.43902 2.36871,0 4.54758,3.41639 7.05,11.05413 1.34175,4.09523 5.00173,13.52087 8.13327,20.94587 3.13155,7.425 7.25818,18.17477 9.1703,23.88838 3.81104,11.38776 5.48635,24.26126 3.33066,25.59355 -0.68091,0.42082 -4.00354,0.91584 -7.38363,1.10003 -4.95645,0.2701 -6.9196,-0.10423 -10.14561,-1.93451 z m -57.94254,-13.7672 c -0.32012,-1.85914 -3.27378,-21.60525 -6.56368,-43.88025 -3.2899,-22.275 -6.21807,-41.90018 -6.50704,-43.61151 -0.65888,-3.902 1.42097,-6.04344 4.34811,-4.47687 2.09531,1.12137 7.22759,12.46825 9.21808,20.38012 1.16029,4.61196 0.93048,15.45952 -0.66529,31.40299 -0.44142,4.41024 0.0264,9.70138 1.6239,18.36789 1.49334,8.10125 2.0532,14.02112 1.67375,17.69772 -0.70004,6.78266 -2.30527,8.89704 -3.12783,4.11991 z"
         id="path2998"
         style="fill:#b33028" />
    </g>
  </g>
</svg>
