<?xml version="1.0" encoding="UTF-8" standalone="no"?>
<!-- Created with Inkscape (http://www.inkscape.org/) -->

<svg
   xmlns:dc="http://purl.org/dc/elements/1.1/"
   xmlns:cc="http://creativecommons.org/ns#"
   xmlns:rdf="http://www.w3.org/1999/02/22-rdf-syntax-ns#"
   xmlns:svg="http://www.w3.org/2000/svg"
   xmlns="http://www.w3.org/2000/svg"
   xmlns:sodipodi="http://sodipodi.sourceforge.net/DTD/sodipodi-0.dtd"
   xmlns:inkscape="http://www.inkscape.org/namespaces/inkscape"
   width="23.926027mm"
   height="15.79232mm"
   viewBox="0 0 23.926027 15.79232"
   version="1.1"
   id="svg8"
   inkscape:version="0.92.1 r"
   sodipodi:docname="breaking_bad.svg">
  <defs
     id="defs2">
    <clipPath
       id="clipPath28"
       clipPathUnits="userSpaceOnUse">
      <path
         inkscape:connector-curvature="0"
         id="path26"
         d="M 1098.25,1097.69 H 7.51172 V 2188.43 H 1098.25 Z" />
    </clipPath>
    <linearGradient
       id="linearGradient34"
       spreadMethod="pad"
       gradientTransform="matrix(1090.74,-1090.74,-1090.74,-1090.74,7.51465,2188.43)"
       gradientUnits="userSpaceOnUse"
       y2="0"
       x2="1"
       y1="0"
       x1="0">
      <stop
         id="stop30"
         offset="0"
         style="stop-opacity:1;stop-color:#1d3c34" />
      <stop
         id="stop32"
         offset="1"
         style="stop-opacity:1;stop-color:#1f6c28" />
    </linearGradient>
    <clipPath
       id="clipPath68"
       clipPathUnits="userSpaceOnUse">
      <path
         inkscape:connector-curvature="0"
         id="path66"
         d="M 2189.17,7.48828 H 1098.39 V 1098.24 h 1090.78 z" />
    </clipPath>
    <linearGradient
       id="linearGradient74"
       spreadMethod="pad"
       gradientTransform="matrix(-1090.77,1090.77,1090.77,1090.77,2189.17,7.47995)"
       gradientUnits="userSpaceOnUse"
       y2="0"
       x2="1"
       y1="0"
       x1="0">
      <stop
         id="stop70"
         offset="0"
         style="stop-opacity:1;stop-color:#1d3c34" />
      <stop
         id="stop72"
         offset="1"
         style="stop-opacity:1;stop-color:#1f6c28" />
    </linearGradient>
  </defs>
  <sodipodi:namedview
     id="base"
     pagecolor="#ffffff"
     bordercolor="#666666"
     borderopacity="1.0"
     inkscape:pageopacity="0.0"
     inkscape:pageshadow="2"
     inkscape:zoom="3.959798"
     inkscape:cx="51.041204"
     inkscape:cy="16.615522"
     inkscape:document-units="mm"
     inkscape:current-layer="layer1"
     showgrid="false"
     showguides="true"
     inkscape:guide-bbox="true"
     objecttolerance="20"
     guidetolerance="10000"
     fit-margin-top="0"
     fit-margin-left="0"
     fit-margin-right="0"
     fit-margin-bottom="0"
     inkscape:window-width="1366"
     inkscape:window-height="697"
     inkscape:window-x="0"
     inkscape:window-y="0"
     inkscape:window-maximized="1" />
  <metadata
     id="metadata5">
    <rdf:RDF>
      <cc:Work
         rdf:about="">
        <dc:format>image/svg+xml</dc:format>
        <dc:type
           rdf:resource="http://purl.org/dc/dcmitype/StillImage" />
        <dc:title></dc:title>
      </cc:Work>
    </rdf:RDF>
  </metadata>
  <g
     inkscape:label="Layer 1"
     inkscape:groupmode="layer"
     id="layer1"
     transform="translate(-21.544643,-165.78206)">
    <g
       id="g1181">
      <g
         id="g1164">
        <path
           inkscape:connector-curvature="0"
           id="path1086"
           style="font-style:normal;font-variant:normal;font-weight:normal;font-stretch:normal;font-size:medium;line-height:6.61458302px;font-family:'Heart Breaking Bad';-inkscape-font-specification:'Heart Breaking Bad';letter-spacing:0px;word-spacing:0px;fill:#000000;fill-opacity:1;stroke:none;stroke-width:0.26458332px;stroke-linecap:butt;stroke-linejoin:miter;stroke-opacity:1"
           d="m 21.751348,165.78206 h 7.482748 c 0.137803,0.0172 0.206705,0.0861 0.206705,0.20671 v 7.48275 c -0.01723,0.1378 -0.08613,0.2067 -0.206705,0.2067 h -7.482748 c -0.137803,-0.0172 -0.206705,-0.0861 -0.206705,-0.2067 v -7.48275 c 0.01723,-0.13781 0.08613,-0.20671 0.206705,-0.20671 z m 0,0.20671 v 7.48275 h 7.482748 v -7.48275 z m 7.19336,0.20671 c 0.08613,0 0.134359,0.0689 0.144694,0.2067 0,0.0379 -0.08268,0.12751 -0.248047,0.26872 h 0.248047 v 0.0827 H 28.67599 c 0,-0.0758 0.09646,-0.18604 0.289388,-0.33073 0.01378,-0.0241 0.02067,-0.0517 0.02067,-0.0827 0,-0.0207 -0.02067,-0.0413 -0.06201,-0.062 -0.08268,0 -0.124023,0.0413 -0.124023,0.12402 h -0.103353 v -0.0207 c 0,-0.12402 0.08268,-0.18603 0.248047,-0.18603 z m -6.655925,0.062 h 0.02067 c 0.151584,0.0275 0.227376,0.0964 0.227376,0.2067 0,0.0483 -0.02756,0.10339 -0.08268,0.16537 v 0.0207 c 0.0689,0 0.103353,0.0482 0.103353,0.14469 0,0.16537 -0.08957,0.24805 -0.268718,0.24805 h -0.02067 c -0.179145,-0.0207 -0.268718,-0.10335 -0.268718,-0.24805 v -0.0413 h 0.144694 c 0,0.093 0.02756,0.14814 0.08268,0.16537 h 0.103352 c 0.02067,0 0.04823,-0.0276 0.08268,-0.0827 v -0.0827 c -0.01723,-0.0551 -0.07924,-0.0827 -0.186035,-0.0827 v -0.10335 c 0.110243,0 0.165364,-0.0207 0.165364,-0.062 v -0.062 c 0,-0.0207 -0.02067,-0.0413 -0.06201,-0.062 h -0.08268 c -0.04479,0 -0.07235,0.0482 -0.08268,0.14469 h -0.144694 c 0,-0.17914 0.08957,-0.26871 0.268717,-0.26871 z m 0.578776,0 c 0.192925,0 0.289388,0.12402 0.289388,0.37207 0,0.27561 -0.103353,0.41341 -0.310058,0.41341 h -0.02067 c -0.137804,-0.0275 -0.206706,-0.0964 -0.206706,-0.20671 h 0.144694 c 0.0069,0.0551 0.02756,0.0827 0.06201,0.0827 h 0.02067 c 0.110243,0 0.165364,-0.0758 0.165364,-0.22738 -0.05512,0.0551 -0.130912,0.0827 -0.227376,0.0827 -0.124023,-0.0413 -0.186035,-0.13091 -0.186035,-0.26872 0,-0.14469 0.08957,-0.22737 0.268717,-0.24804 z m 0.847494,0 h 0.06201 c 0.165365,0 0.248047,0.13091 0.248047,0.39274 0,0.26183 -0.08268,0.39274 -0.248047,0.39274 h -0.06201 c -0.165365,0 -0.248047,-0.13091 -0.248047,-0.39274 0,-0.26183 0.08268,-0.39274 0.248047,-0.39274 z m 0.620117,0 c 0.192925,0 0.289388,0.12402 0.289388,0.37207 0,0.27561 -0.103353,0.41341 -0.310059,0.41341 h -0.02067 c -0.137804,-0.0275 -0.206706,-0.0964 -0.206706,-0.20671 h 0.144694 c 0.0069,0.0551 0.02756,0.0827 0.06201,0.0827 h 0.02067 c 0.110243,0 0.165365,-0.0758 0.165365,-0.22738 -0.05512,0.0551 -0.130912,0.0827 -0.227376,0.0827 -0.124024,-0.0413 -0.186036,-0.13091 -0.186036,-0.26872 0,-0.14469 0.08957,-0.22737 0.268718,-0.24804 z m 0.578776,0 h 0.06201 c 0.151584,0.0241 0.227376,0.0999 0.227376,0.22737 -0.02411,0.0689 -0.05856,0.10336 -0.103353,0.10336 0.08268,0.0655 0.124024,0.13437 0.124024,0.2067 0,0.16537 -0.08957,0.24805 -0.268718,0.24805 h -0.02067 c -0.148139,0 -0.237712,-0.0689 -0.268718,-0.20671 v -0.0413 c 0.01723,-0.11024 0.05857,-0.16536 0.124024,-0.16536 v -0.0413 c -0.0689,0 -0.103353,-0.0482 -0.103353,-0.1447 0,-0.093 0.07579,-0.15502 0.227376,-0.18603 z m 0.620117,0 h 0.02067 c 0.151584,0.0275 0.227376,0.0964 0.227376,0.2067 0,0.0483 -0.02756,0.10339 -0.08268,0.16537 v 0.0207 c 0.0689,0 0.103353,0.0482 0.103353,0.14469 0,0.16537 -0.08957,0.24805 -0.268718,0.24805 h -0.02067 c -0.179145,-0.0207 -0.268718,-0.10335 -0.268718,-0.24805 v -0.0413 h 0.144694 c 0,0.093 0.02756,0.14814 0.08268,0.16537 h 0.103353 c 0.02067,0 0.04823,-0.0276 0.08268,-0.0827 v -0.0827 c -0.01723,-0.0551 -0.07924,-0.0827 -0.186036,-0.0827 v -0.10335 c 0.110243,0 0.165365,-0.0207 0.165365,-0.062 v -0.062 c 0,-0.0207 -0.02067,-0.0413 -0.06201,-0.062 h -0.08268 c -0.04479,0 -0.07235,0.0482 -0.08268,0.14469 h -0.144694 c 0,-0.17914 0.08957,-0.26871 0.268717,-0.26871 z m -2.790527,0.26871 c 0,0.0551 0.02756,0.0965 0.08268,0.12403 h 0.08268 c 0.02067,0 0.04823,-0.0276 0.08268,-0.0827 v -0.10336 c 0,-0.0207 -0.02756,-0.0482 -0.08268,-0.0827 h -0.08268 c -0.05512,0.0207 -0.08268,0.0689 -0.08268,0.14469 z m 0.868164,0.062 v 0.12402 c 0,0.13781 0.04823,0.20671 0.144694,0.20671 0.08268,0 0.124023,-0.0689 0.124023,-0.20671 v -0.12402 c 0,-0.13781 -0.04823,-0.20671 -0.144694,-0.20671 -0.08268,0 -0.124023,0.0689 -0.124023,0.20671 z m 0.599446,-0.062 c 0,0.0551 0.02756,0.0965 0.08268,0.12403 h 0.08268 c 0.02067,0 0.04823,-0.0276 0.08268,-0.0827 v -0.10336 c 0,-0.0207 -0.02756,-0.0482 -0.08268,-0.0827 h -0.08268 c -0.05512,0.0207 -0.08268,0.0689 -0.08268,0.14469 z m 0.620118,-0.0827 v 0.062 c 0.01378,0.0413 0.05512,0.062 0.124023,0.062 0.0689,-0.0103 0.103353,-0.031 0.103353,-0.062 v -0.062 c 0,-0.0207 -0.02067,-0.0413 -0.06201,-0.062 h -0.103353 c -0.02067,0 -0.04134,0.0207 -0.06201,0.062 z m -0.02067,0.31006 v 0.0827 c 0,0.0207 0.02756,0.0482 0.08268,0.0827 h 0.103353 c 0.02067,0 0.04823,-0.0276 0.08268,-0.0827 v -0.0827 c -0.02067,-0.0551 -0.06891,-0.0827 -0.144694,-0.0827 -0.05512,0 -0.09646,0.0276 -0.124024,0.0827 z m -1.570963,0.10335 h 0.165364 v 0.16537 h -0.165364 z m 5.643066,0.0413 c 0.124023,0 0.186035,0.0551 0.186035,0.16537 l -0.06201,0.10335 c 0.05512,0.0207 0.08268,0.0689 0.08268,0.1447 -0.04134,0.0965 -0.103352,0.14469 -0.186036,0.14469 h -0.02067 c -0.124023,0 -0.186035,-0.062 -0.186035,-0.18603 l 0.06201,-0.10336 c -0.04134,-0.0448 -0.06201,-0.0793 -0.06201,-0.10335 0,-0.11025 0.06201,-0.16537 0.186035,-0.16537 z m -0.08268,0.1447 v 0.062 l 0.103352,0.0207 c 0.02756,-0.0138 0.04823,-0.0207 0.06201,-0.0207 v -0.062 c 0,-0.0207 -0.02067,-0.0413 -0.06201,-0.062 h -0.04134 c -0.02067,0 -0.04134,0.0207 -0.06201,0.062 z m 0,0.22738 v 0.0413 c 0,0.0207 0.02067,0.0413 0.06201,0.062 h 0.06201 c 0.02067,0 0.04134,-0.0207 0.06201,-0.062 v -0.0413 c 0,-0.0207 -0.02067,-0.0413 -0.06201,-0.062 h -0.06201 c -0.02067,0 -0.04134,0.0207 -0.06201,0.062 z m 0.08268,0.33072 c 0.124023,0 0.186035,0.0551 0.186035,0.16537 l -0.06201,0.10335 c 0.05512,0.0207 0.08268,0.0689 0.08268,0.1447 -0.04134,0.0965 -0.103352,0.14469 -0.186036,0.14469 h -0.02067 c -0.124023,0 -0.186035,-0.062 -0.186035,-0.18604 l 0.06201,-0.10335 c -0.04134,-0.0448 -0.06201,-0.0793 -0.06201,-0.10335 0,-0.11025 0.06201,-0.16537 0.186035,-0.16537 z m -0.08268,0.1447 v 0.062 l 0.103352,0.0207 c 0.02756,-0.0138 0.04823,-0.0207 0.06201,-0.0207 v -0.062 c 0,-0.0207 -0.02067,-0.0413 -0.06201,-0.062 h -0.04134 c -0.02067,0 -0.04134,0.0207 -0.06201,0.062 z m 0,0.22737 v 0.0413 c 0,0.0207 0.02067,0.0413 0.06201,0.062 h 0.06201 c 0.02067,0 0.04134,-0.0207 0.06201,-0.062 v -0.0413 c 0,-0.0207 -0.02067,-0.0413 -0.06201,-0.062 h -0.06201 c -0.02067,0 -0.04134,0.0207 -0.06201,0.062 z m 0.08268,0.35138 h 0.08268 v 0.53744 h -0.103353 v -0.3514 h -0.124022 v -0.0827 c 0.09646,0 0.144694,-0.0344 0.144694,-0.10336 z m -6.015137,4.13412 c 0.192925,0 0.289388,0.12402 0.289388,0.37207 0,0.27561 -0.103353,0.41341 -0.310058,0.41341 h -0.02067 c -0.137804,-0.0275 -0.206706,-0.0964 -0.206706,-0.20671 h 0.144694 c 0.0069,0.0551 0.02756,0.0827 0.06201,0.0827 h 0.02067 c 0.110243,0 0.165364,-0.0758 0.165364,-0.22738 -0.05512,0.0551 -0.130912,0.0827 -0.227376,0.0827 -0.124023,-0.0413 -0.186035,-0.1309 -0.186035,-0.26871 0,-0.1447 0.08957,-0.22738 0.268717,-0.24805 z m -0.599446,0.0207 h 0.124023 v 0.74414 h -0.144695 v -0.47542 h -0.186035 v -0.12403 c 0.137804,0 0.206706,-0.0482 0.206707,-0.14469 z m 0.475423,0.24805 c 0,0.0551 0.02756,0.0965 0.08268,0.12402 h 0.08268 c 0.02067,0 0.04823,-0.0276 0.08268,-0.0827 v -0.10336 c 0,-0.0207 -0.02756,-0.0482 -0.08268,-0.0827 h -0.08268 c -0.05512,0.0207 -0.08268,0.0689 -0.08268,0.1447 z"
           sodipodi:nodetypes="scscscscsccccccccccccscccsccccsccsscscccsccccsscscccccsscccssccsccssssssscsscccssccsccccccsssccccsccccsccsscscccsccccsscsccccscscsccsssssssssscscsccsscccsscscccscsccscccccccscccssccsssccccscscccscscscscscccssccsssccccscscccscscscscccccccccccsscccssccscccccccccccscscsccss" />
        <path
           inkscape:connector-curvature="0"
           id="path1088"
           style="font-style:normal;font-variant:normal;font-weight:normal;font-stretch:normal;font-size:medium;line-height:6.61458302px;font-family:'Heart Breaking Bad';-inkscape-font-specification:'Heart Breaking Bad';letter-spacing:0px;word-spacing:0px;fill:#000000;fill-opacity:1;stroke:none;stroke-width:0.26458332px;stroke-linecap:butt;stroke-linejoin:miter;stroke-opacity:1"
           d="m 31.983281,168.38139 h 0.211874 q 0.950846,0 1.214396,1.71049 -0.335897,1.92753 -1.142049,1.92753 0.501261,-0.39274 0.501261,-0.64079 -0.279053,0.13953 -0.785482,0.13953 h -0.356567 q -0.594279,-0.0672 -1.002523,-0.0672 0,0.28939 0.713135,0.56844 v 0.0724 h -0.211873 q -0.950847,0 -1.214397,-1.71566 0.335897,-1.92753 1.14205,-1.92753 -0.356568,0.29455 -0.356568,0.35657 l 0.144694,0.21704 0.139527,-0.0724 h 0.713134 q 0.594279,0.0724 1.002523,0.0724 0,-0.29456 -0.713135,-0.57361 z m -1.214396,1.92753 q 0,0.78548 1.069702,0.92501 h 0.144694 q 0.568441,0 0.568441,-0.99736 v -0.0723 q 0,-0.78549 -1.069702,-0.93018 h -0.144694 q -0.568441,0 -0.568441,1.00252 z" />
        <path
           inkscape:connector-curvature="0"
           id="path1090"
           style="font-style:normal;font-variant:normal;font-weight:normal;font-stretch:normal;font-size:medium;line-height:6.61458302px;font-family:'Heart Breaking Bad';-inkscape-font-specification:'Heart Breaking Bad';letter-spacing:0px;word-spacing:0px;fill:#000000;fill-opacity:1;stroke:none;stroke-width:0.26458332px;stroke-linecap:butt;stroke-linejoin:miter;stroke-opacity:1"
           d="m 34.742802,166.90344 q 0,0.14986 0.408244,0.50643 h -0.06718 l 0.06718,0.16537 v 0.17053 q 0,0.0827 -0.06718,0.0827 l 0.06718,0.17053 v 0.75448 h 0.956014 q -0.180868,0.41341 -0.273885,0.42375 h -0.682129 v 1.93269 q 0,0.41858 -0.341064,0.58912 l 0.206705,0.41857 h -0.956014 v -0.0827 q 0.341065,0 0.341065,-0.75964 v -2.09806 h -0.408244 l -0.341065,-0.0879 v -0.0827 q 0,-0.18603 0.749309,-0.25321 v -0.0827 q 0,-0.30489 -0.06718,-0.75965 0.217041,-1.00769 0.408244,-1.00769 z" />
        <path
           inkscape:connector-curvature="0"
           id="path1092"
           style="font-style:normal;font-variant:normal;font-weight:normal;font-stretch:normal;font-size:medium;line-height:6.61458302px;font-family:'Heart Breaking Bad';-inkscape-font-specification:'Heart Breaking Bad';letter-spacing:0px;word-spacing:0px;fill:#000000;fill-opacity:1;stroke:none;stroke-width:0.26458332px;stroke-linecap:butt;stroke-linejoin:miter;stroke-opacity:1"
           d="m 36.432622,167.0068 h 0.573608 q 0.144694,0 0.217041,0.86299 0.361735,0.093 0.361735,0.21704 h -0.07235 l 0.07235,0.1447 v 0.14469 q 0,0.0724 -0.07235,0.0724 l 0.07235,0.13952 v 2.66651 q 0,0.35657 -0.361735,0.50126 l 0.217041,0.36173 h -1.00769 v -0.0723 q 0.361735,0 0.361735,-0.64596 v -2.23242 q 0,-0.25838 -0.07235,-0.64596 0.07235,-0.093 0.07235,-0.50642 v -0.28939 l -0.07235,-0.1447 h 0.07235 q -0.08785,-0.50126 -0.361735,-0.50126 z" />
        <path
           inkscape:connector-curvature="0"
           id="path1094"
           style="font-style:normal;font-variant:normal;font-weight:normal;font-stretch:normal;font-size:medium;line-height:6.61458302px;font-family:'Heart Breaking Bad';-inkscape-font-specification:'Heart Breaking Bad';letter-spacing:0px;word-spacing:0px;fill:#000000;fill-opacity:1;stroke:none;stroke-width:0.26458332px;stroke-linecap:butt;stroke-linejoin:miter;stroke-opacity:1"
           d="m 38.458339,166.92411 h 0.144694 q 0.103353,0 0.217041,0.21704 v 0.1447 q 0,0.14469 -0.144694,0.14469 h -0.217041 q -0.05168,0 -0.217041,-0.21704 0.10852,-0.28939 0.217041,-0.28939 z m 0.144694,1.44694 q 0.361735,0.093 0.361735,0.21704 0,0.36174 -0.217041,0.36174 v 0.14469 h 0.144694 v 2.60966 q 0,0.19637 0.144694,0.43409 h -0.72347 l -0.144694,-0.0724 0.07235,-0.1447 v -1.44694 q 0,-0.99218 0.217041,-1.23506 v -0.21704 q 0,-0.17054 -0.506429,-0.36174 0,-0.14986 0.651123,-0.28939 z" />
        <path
           inkscape:connector-curvature="0"
           id="path1096"
           style="font-style:normal;font-variant:normal;font-weight:normal;font-stretch:normal;font-size:medium;line-height:6.61458302px;font-family:'Heart Breaking Bad';-inkscape-font-specification:'Heart Breaking Bad';letter-spacing:0px;word-spacing:0px;fill:#000000;fill-opacity:1;stroke:none;stroke-width:0.26458332px;stroke-linecap:butt;stroke-linejoin:miter;stroke-opacity:1"
           d="m 41.615768,168.36589 q 1.173055,0 1.173055,1.6123 v 1.25057 q 0,0.62012 0.222208,0.8785 h -0.883667 l 0.294556,-0.3669 q 0,-0.11886 -0.511597,-0.29456 -0.07235,-0.12919 -0.07235,-0.29455 v -1.82935 q -0.07751,-0.22221 -0.444417,-0.22221 -0.950846,0.15503 -0.950846,0.95601 -0.07235,1.08521 -0.07235,1.46245 -0.294556,0 -0.294556,0.14986 v 0.14469 q 0,0.14987 0.222209,0.14987 v 0.14469 h -0.956014 q 0.294555,-0.30489 0.294555,-0.73381 v -1.9792 l -0.07235,-0.14987 h 0.07235 q -0.09302,-0.45475 -0.294555,-0.7338 h 0.294555 q 0.366903,0 0.733806,0.51676 0,0.29456 0.144694,0.29456 0.392741,-0.43408 1.46761,-0.58911 0,-0.22221 -0.661458,-0.22221 v -0.0724 q 0.165365,0 0.294556,-0.0723 z" />
        <text
           xml:space="preserve"
           style="font-style:normal;font-variant:normal;font-weight:normal;font-stretch:normal;font-size:6.25295353px;line-height:3.90809608px;font-family:'Heart Breaking Bad';-inkscape-font-specification:'Heart Breaking Bad';letter-spacing:0px;word-spacing:0px;fill:#000000;fill-opacity:1;stroke:none;stroke-width:0.15632384px;stroke-linecap:butt;stroke-linejoin:miter;stroke-opacity:1"
           x="23.338816"
           y="172.10725"
           id="text1107"><tspan
             sodipodi:role="line"
             id="tspan1105"
             x="23.338816"
             y="172.10725"
             style="font-style:normal;font-variant:normal;font-weight:bold;font-stretch:normal;font-family:Arial;-inkscape-font-specification:'Arial Bold';stroke-width:0.15632384px">K</tspan></text>
      </g>
      <g
         transform="translate(6.359201,-4.93278)"
         id="g1128">
        <path
           inkscape:connector-curvature="0"
           id="path1109"
           style="font-style:normal;font-variant:normal;font-weight:normal;font-stretch:normal;font-size:medium;line-height:6.61458302px;font-family:'Heart Breaking Bad';-inkscape-font-specification:'Heart Breaking Bad';letter-spacing:0px;word-spacing:0px;fill:#000000;fill-opacity:1;stroke:none;stroke-width:0.26458332px;stroke-linecap:butt;stroke-linejoin:miter;stroke-opacity:1"
           d="m 23.288148,178.611 h 7.482747 c 0.137803,0.0172 0.206705,0.0861 0.206705,0.2067 v 7.48275 c -0.01723,0.13781 -0.08613,0.20671 -0.206705,0.20671 h -7.482747 c -0.137804,-0.0172 -0.206706,-0.0861 -0.206706,-0.20671 v -7.48275 c 0.01723,-0.1378 0.08613,-0.2067 0.206706,-0.2067 z m 0,0.2067 v 7.48275 h 7.482747 v -7.48275 z m 7.193359,0.20671 c 0.08613,0 0.134359,0.0689 0.144694,0.2067 0,0.0379 -0.08268,0.12744 -0.248047,0.26872 h 0.248047 v 0.0827 h -0.413412 c 0,-0.0758 0.09646,-0.18603 0.289388,-0.33072 0.01378,-0.0241 0.02067,-0.0517 0.02067,-0.0827 0,-0.0207 -0.02067,-0.0413 -0.06201,-0.062 -0.08268,0 -0.124023,0.0413 -0.124023,0.12402 H 30.23346 v -0.0207 c 0,-0.12402 0.08268,-0.18603 0.248047,-0.18603 z m -6.097819,0.062 h 0.06201 c 0.151584,0.0241 0.227376,0.0999 0.227376,0.22738 -0.02411,0.0689 -0.05856,0.10335 -0.103353,0.10335 0.08268,0.0655 0.124024,0.13437 0.124024,0.20671 0,0.16536 -0.08957,0.24804 -0.268718,0.24804 h -0.02067 c -0.148139,0 -0.237712,-0.0689 -0.268718,-0.2067 v -0.0413 c 0.01723,-0.11025 0.05857,-0.16537 0.124024,-0.16537 v -0.0413 c -0.0689,0 -0.103353,-0.0482 -0.103353,-0.14469 0,-0.093 0.07579,-0.15503 0.227376,-0.18604 z m 0.888835,0 c 0.192925,0 0.289388,0.12402 0.289388,0.37207 0,0.27561 -0.103353,0.41341 -0.310059,0.41341 h -0.02067 c -0.137803,-0.0275 -0.206705,-0.0964 -0.206705,-0.2067 h 0.144694 c 0.0069,0.0551 0.02756,0.0827 0.06201,0.0827 h 0.02067 c 0.110243,0 0.165365,-0.0758 0.165365,-0.22738 -0.05512,0.0551 -0.130912,0.0827 -0.227377,0.0827 -0.124023,-0.0413 -0.186035,-0.13091 -0.186035,-0.26872 0,-0.14469 0.08957,-0.22738 0.268718,-0.24805 z m 0.599446,0 c 0.192925,0 0.289388,0.12402 0.289388,0.37207 0,0.27561 -0.103353,0.41341 -0.310058,0.41341 h -0.02067 c -0.137804,-0.0275 -0.206706,-0.0964 -0.206706,-0.2067 h 0.144694 c 0.0069,0.0551 0.02756,0.0827 0.06201,0.0827 h 0.02067 c 0.110243,0 0.165364,-0.0758 0.165364,-0.22738 -0.05512,0.0551 -0.130912,0.0827 -0.227376,0.0827 -0.124023,-0.0413 -0.186035,-0.13091 -0.186035,-0.26872 0,-0.14469 0.08957,-0.22738 0.268717,-0.24805 z m 0.578776,0 h 0.06201 c 0.151584,0.0241 0.227376,0.0999 0.227376,0.22738 -0.02411,0.0689 -0.05856,0.10335 -0.103353,0.10335 0.08268,0.0655 0.124024,0.13437 0.124024,0.20671 0,0.16536 -0.08957,0.24804 -0.268718,0.24804 h -0.02067 c -0.148139,0 -0.237712,-0.0689 -0.268718,-0.2067 v -0.0413 c 0.01723,-0.11025 0.05857,-0.16537 0.124024,-0.16537 v -0.0413 c -0.0689,0 -0.103353,-0.0482 -0.103353,-0.14469 0,-0.093 0.07579,-0.15503 0.227376,-0.18604 z m 1.178223,0 h 0.06201 c 0.165364,0 0.248046,0.13091 0.248046,0.39274 0,0.26183 -0.08268,0.39274 -0.248046,0.39274 h -0.06201 c -0.165365,0 -0.248047,-0.13091 -0.248047,-0.39274 0,-0.26183 0.08268,-0.39274 0.248047,-0.39274 z m 0.640788,0 h 0.02067 c 0.151584,0.0275 0.227376,0.0964 0.227376,0.20671 0,0.0482 -0.02756,0.10332 -0.08268,0.16536 v 0.0207 c 0.0689,0 0.103353,0.0482 0.103353,0.1447 0,0.16536 -0.08957,0.24804 -0.268717,0.24804 h -0.02067 c -0.179145,-0.0207 -0.268717,-0.10335 -0.268717,-0.24804 v -0.0413 h 0.144694 c 0,0.093 0.02756,0.14814 0.08268,0.16537 h 0.103353 c 0.02067,0 0.04823,-0.0276 0.08268,-0.0827 v -0.0827 c -0.01723,-0.0551 -0.07924,-0.0827 -0.186035,-0.0827 v -0.10335 c 0.110243,0 0.165364,-0.0207 0.165364,-0.062 v -0.062 c 0,-0.0207 -0.02067,-0.0413 -0.06201,-0.062 h -0.08268 c -0.04479,0 -0.07235,0.0482 -0.08268,0.1447 h -0.144694 c 0,-0.17915 0.08957,-0.26872 0.268718,-0.26872 z m 0.599446,0 c 0.151584,0.0275 0.227376,0.10333 0.227376,0.22738 v 0.0207 c 0,0.10335 -0.09646,0.2136 -0.289388,0.33073 l -0.04134,0.062 h 0.330729 v 0.12402 h -0.537434 v -0.0207 c 0,-0.093 0.124023,-0.23771 0.37207,-0.43408 0.01378,-0.0241 0.02067,-0.0517 0.02067,-0.0827 v -0.0207 c 0,-0.0207 -0.02756,-0.0482 -0.08268,-0.0827 -0.09646,0 -0.144694,0.062 -0.144694,0.18604 h -0.144694 v -0.0207 c 0,-0.19293 0.09646,-0.28939 0.289388,-0.28939 z m -5.06429,0.0207 h 0.124023 v 0.74414 h -0.144694 v -0.47542 h -0.186035 v -0.12402 c 0.137804,0 0.206706,-0.0482 0.206706,-0.1447 z m 3.307291,0 h 0.124024 v 0.45475 h 0.103353 v 0.12403 h -0.103353 v 0.16536 h -0.144694 v -0.16536 h -0.310059 v -0.1447 c 0.210151,-0.28939 0.320394,-0.43408 0.330729,-0.43408 z m -2.811197,0.16537 v 0.062 c 0.01378,0.0413 0.05512,0.062 0.124023,0.062 0.0689,-0.0103 0.103353,-0.031 0.103353,-0.062 v -0.062 c 0,-0.0207 -0.02067,-0.0413 -0.06201,-0.062 h -0.103353 c -0.02067,0 -0.04134,0.0207 -0.06201,0.062 z m 0.847493,0.0827 c 0,0.0551 0.02756,0.0965 0.08268,0.12402 h 0.08268 c 0.02067,0 0.04823,-0.0276 0.08268,-0.0827 v -0.10335 c 0,-0.0207 -0.02756,-0.0482 -0.08268,-0.0827 h -0.08268 c -0.05512,0.0207 -0.08268,0.0689 -0.08268,0.1447 z m 0.599447,0 c 0,0.0551 0.02756,0.0965 0.08268,0.12402 h 0.08268 c 0.02067,0 0.04823,-0.0276 0.08268,-0.0827 v -0.10335 c 0,-0.0207 -0.02756,-0.0482 -0.08268,-0.0827 h -0.08268 c -0.05512,0.0207 -0.08268,0.0689 -0.08268,0.1447 z m 0.620117,-0.0827 v 0.062 c 0.01378,0.0413 0.05512,0.062 0.124023,0.062 0.0689,-0.0103 0.103353,-0.031 0.103353,-0.062 v -0.062 c 0,-0.0207 -0.02067,-0.0413 -0.06201,-0.062 h -0.103352 c -0.02067,0 -0.04134,0.0207 -0.06201,0.062 z m 1.157552,0.14469 v 0.12402 c 0,0.13781 0.04823,0.20671 0.144694,0.20671 0.08268,0 0.124023,-0.0689 0.124023,-0.20671 v -0.12402 c 0,-0.13781 -0.04823,-0.20671 -0.144694,-0.20671 -0.08268,0 -0.124023,0.0689 -0.124023,0.20671 z m -0.620117,0.14469 h 0.186035 v -0.24804 c -0.02756,0.0103 -0.08957,0.093 -0.186035,0.24804 z m -2.625163,0.0207 v 0.0827 c 0,0.0207 0.02756,0.0482 0.08268,0.0827 h 0.103353 c 0.02067,0 0.04823,-0.0276 0.08268,-0.0827 v -0.0827 c -0.02067,-0.0551 -0.0689,-0.0827 -0.144694,-0.0827 -0.05512,0 -0.09646,0.0276 -0.124024,0.0827 z m 2.067057,0 v 0.0827 c 0,0.0207 0.02756,0.0482 0.08268,0.0827 h 0.103352 c 0.02067,0 0.04823,-0.0276 0.08268,-0.0827 v -0.0827 c -0.02067,-0.0551 -0.06891,-0.0827 -0.144694,-0.0827 -0.05512,0 -0.09646,0.0276 -0.124024,0.0827 z m -1.570963,0.10336 h 0.165364 v 0.16536 h -0.165364 z m 5.395019,0.062 h 0.37207 v 0.0207 c 0,0.031 -0.04823,0.12746 -0.144694,0.28939 -0.02756,0.0965 -0.04134,0.17225 -0.04134,0.22737 H 30.25413 c 0,-0.11369 0.05512,-0.25838 0.165365,-0.43408 h -0.248047 z m -6.366536,5.53971 c 0.192925,0 0.289388,0.12402 0.289388,0.37207 0,0.27561 -0.103353,0.41341 -0.310059,0.41341 h -0.02067 c -0.137804,-0.0275 -0.206706,-0.0964 -0.206706,-0.2067 h 0.144694 c 0.0069,0.0551 0.02756,0.0827 0.06201,0.0827 h 0.02067 c 0.110243,0 0.165365,-0.0758 0.165365,-0.22738 -0.05512,0.0551 -0.130912,0.0827 -0.227376,0.0827 -0.124024,-0.0413 -0.186036,-0.13091 -0.186036,-0.26872 0,-0.14469 0.08957,-0.22738 0.268718,-0.24805 z m -0.124024,0.26872 c 0,0.0551 0.02756,0.0965 0.08268,0.12402 h 0.08268 c 0.02067,0 0.04823,-0.0276 0.08268,-0.0827 v -0.10335 c 0,-0.0207 -0.02756,-0.0482 -0.08268,-0.0827 h -0.08268 c -0.05512,0.0207 -0.08268,0.0689 -0.08268,0.14469 z"
           sodipodi:nodetypes="scscscscsccccccccccccscccsccccccsssccccscccsscccssccscccsscccssccsccccccsssccccsccsssssssccsccsscscccsccccsscscccccsscccccscsscccsccccccccccsccccccccccscccsscsccscscsccssscscsccsscccsscsccssssssscccccscsccscccscsccscccccccccscccccccsscccasccsccscscsccss" />
        <path
           inkscape:connector-curvature="0"
           id="path1111"
           style="font-style:normal;font-variant:normal;font-weight:normal;font-stretch:normal;font-size:medium;line-height:6.61458302px;font-family:'Heart Breaking Bad';-inkscape-font-specification:'Heart Breaking Bad';letter-spacing:0px;word-spacing:0px;fill:#000000;fill-opacity:1;stroke:none;stroke-width:0.26458332px;stroke-linecap:butt;stroke-linejoin:miter;stroke-opacity:1"
           d="m 32.889628,184.93619 q -1.173055,0 -1.173055,-1.6123 v -1.25057 q 0,-0.62012 -0.222209,-0.8785 h 0.8785 l -0.289388,0.3669 q 0,0.11886 0.511596,0.29456 0.07235,0.12919 0.07235,0.29455 v 1.82935 q 0.07235,0.22221 0.43925,0.22221 0.956014,-0.15503 0.956014,-0.95602 0.07235,-1.0852 0.07235,-1.46244 0.294556,0 0.294556,-0.14986 v -0.1447 q 0,-0.14986 -0.222209,-0.14986 v -0.14469 h 0.956014 q -0.294556,0.30489 -0.294556,0.7338 v 1.97921 l 0.07235,0.14986 h -0.07235 q 0.09302,0.45476 0.294556,0.73381 h -0.294556 q -0.366902,0 -0.733805,-0.51677 0,-0.29455 -0.144694,-0.29455 -0.392741,0.43408 -1.467611,0.58911 0,0.22221 0.661459,0.22221 v 0.0724 q -0.165365,0 -0.294556,0.0723 z" />
        <path
           inkscape:connector-curvature="0"
           id="path1113"
           style="font-style:normal;font-variant:normal;font-weight:normal;font-stretch:normal;font-size:medium;line-height:6.61458302px;font-family:'Heart Breaking Bad';-inkscape-font-specification:'Heart Breaking Bad';letter-spacing:0px;word-spacing:0px;fill:#000000;fill-opacity:1;stroke:none;stroke-width:0.26458332px;stroke-linecap:butt;stroke-linejoin:miter;stroke-opacity:1"
           d="m 37.716206,181.19482 q 1.173055,0 1.173055,1.6123 v 1.25057 q 0,0.62012 0.222209,0.8785 h -0.883667 l 0.294556,-0.3669 q 0,-0.11886 -0.511597,-0.29456 -0.07235,-0.12919 -0.07235,-0.29455 v -1.82935 q -0.07751,-0.22221 -0.444417,-0.22221 -0.950846,0.15503 -0.950846,0.95602 -0.07235,1.0852 -0.07235,1.46244 -0.294556,0 -0.294556,0.14986 v 0.1447 q 0,0.14986 0.222208,0.14986 v 0.14469 h -0.956013 q 0.294555,-0.30489 0.294555,-0.7338 v -1.97921 l -0.07235,-0.14986 h 0.07235 q -0.09302,-0.45475 -0.294555,-0.73381 h 0.294555 q 0.366903,0 0.733806,0.51677 0,0.29455 0.144694,0.29455 0.39274,-0.43408 1.46761,-0.58911 0,-0.22221 -0.661458,-0.22221 v -0.0723 q 0.165364,0 0.294555,-0.0724 z" />
        <text
           xml:space="preserve"
           style="font-style:normal;font-variant:normal;font-weight:normal;font-stretch:normal;font-size:6.25296593px;line-height:3.9081037px;font-family:'Heart Breaking Bad';-inkscape-font-specification:'Heart Breaking Bad';letter-spacing:0px;word-spacing:0px;fill:#000000;fill-opacity:1;stroke:none;stroke-width:0.15632415px;stroke-linecap:butt;stroke-linejoin:miter;stroke-opacity:1"
           x="25.03425"
           y="184.93619"
           id="text1121"><tspan
             sodipodi:role="line"
             id="tspan1119"
             x="25.03425"
             y="184.93619"
             style="font-style:normal;font-variant:normal;font-weight:bold;font-stretch:normal;font-family:Arial;-inkscape-font-specification:'Arial Bold';stroke-width:0.15632415px">F</tspan></text>
      </g>
    </g>
  </g>
</svg>
