<?xml version="1.0" encoding="UTF-8" standalone="no"?>
<!-- Created with Inkscape (http://www.inkscape.org/) -->

<svg
   xmlns:dc="http://purl.org/dc/elements/1.1/"
   xmlns:cc="http://creativecommons.org/ns#"
   xmlns:rdf="http://www.w3.org/1999/02/22-rdf-syntax-ns#"
   xmlns:svg="http://www.w3.org/2000/svg"
   xmlns="http://www.w3.org/2000/svg"
   xmlns:sodipodi="http://sodipodi.sourceforge.net/DTD/sodipodi-0.dtd"
   xmlns:inkscape="http://www.inkscape.org/namespaces/inkscape"
   width="51.485012mm"
   height="67.582977mm"
   viewBox="0 0 51.485012 67.582977"
   version="1.1"
   id="svg1160"
   inkscape:version="0.92.1 r"
   sodipodi:docname="kotlin_trooper_3.svg">
  <sodipodi:namedview
     id="base"
     pagecolor="#ffffff"
     bordercolor="#666666"
     borderopacity="1.0"
     inkscape:pageopacity="0.0"
     inkscape:pageshadow="2"
     inkscape:zoom="1.4"
     inkscape:cx="22.574808"
     inkscape:cy="152.44941"
     inkscape:document-units="mm"
     inkscape:current-layer="layer1"
     showgrid="false"
     fit-margin-top="0"
     fit-margin-left="0"
     fit-margin-right="0"
     fit-margin-bottom="0"
     inkscape:window-width="1366"
     inkscape:window-height="697"
     inkscape:window-x="0"
     inkscape:window-y="0"
     inkscape:window-maximized="1"
     showguides="true"
     inkscape:guide-bbox="true">
    <sodipodi:guide
       inkscape:color="rgb(0,0,255)"
       inkscape:label=""
       inkscape:locked="false"
       id="guide3936"
       orientation="1,0"
       position="140,37.534664" />
  </sodipodi:namedview>
  <defs
     id="defs1154" />
  <metadata
     id="metadata1157">
    <rdf:RDF>
      <cc:Work
         rdf:about="">
        <dc:format>image/svg+xml</dc:format>
        <dc:type
           rdf:resource="http://purl.org/dc/dcmitype/StillImage" />
        <dc:title></dc:title>
      </cc:Work>
    </rdf:RDF>
  </metadata>
  <g
     transform="translate(72.611552,-59.85732)"
     id="layer1"
     inkscape:groupmode="layer"
     inkscape:label="Layer 1">
    <g
       id="g285">
      <path
         inkscape:connector-curvature="0"
         id="path22"
         style="fill:#000000;fill-opacity:1;fill-rule:nonzero;stroke:none;stroke-width:0.03527778"
         d="m -22.925,87.09882 1.79846,-23.66222 -13.56959,0.51153 0.565,-4.09081 -25.493,0.0176 0.582,4.07318 -13.569422,-0.51153 1.78084,23.67986 c 1.921799,1.67499 3.332381,4.23121 4.213902,7.6696 0.529026,2.50377 0.529026,5.0075 0,7.52891 -0.758049,3.61446 -2.345019,6.47086 -4.76057,8.53377 5.871397,9.96198 14.052561,15.48075 24.54354,16.59159 10.43802,-1.11084 18.58402,-6.62961 24.4553,-16.59159 -2.41547,-2.06291 -4.00227,-4.91931 -4.76039,-8.53377 -0.52916,-2.52141 -0.52916,-5.02514 0,-7.52891 0.88159,-3.43839 2.292,-5.99461 4.21393,-7.68724 z M -36.79413,62.51973 v 3.9497 h 11.9472 L -25.65797,85.935 c -1.99249,2.6095 -3.34997,5.48323 -4.09081,8.63953 -0.44062,2.30971 -0.44062,4.61959 0,6.92933 0.65264,3.33238 1.8161,6.29458 3.50908,8.88641 -4.60198,8.44571 -11.37285,13.18866 -20.27678,14.2113 -8.83349,-1.005 -15.568934,-5.74795 -20.170744,-14.19366 1.692628,-2.59183 2.856265,-5.57167 3.508622,-8.90405 0.440831,-2.30974 0.440831,-4.60198 0,-6.91169 -0.758049,-3.1563 -2.115714,-6.03003 -4.090564,-8.63953 l -1.569191,-19.46557 h 12.282227 v -3.96734"
         sodipodi:nodetypes="cccccccccccccccccccccccccccccccc" />
      <path
         inkscape:connector-curvature="0"
         id="path42"
         style="fill:#000000;fill-opacity:1;fill-rule:nonzero;stroke:none;stroke-width:0.03527778"
         d="m -44.25966,81.01552 c -0.37013,-1.83339 -0.75805,-2.48603 -1.18124,-1.95686 v 9.83862 c 0.51125,0.1584 1.04027,-1.99249 1.62207,-6.41809 3.93196,0.10584 7.1235,2.23908 9.5739,6.41809 -1.16346,-3.70276 -4.49594,-6.32989 -10.01473,-7.88176" />
      <path
         inkscape:connector-curvature="0"
         id="path44"
         style="fill:#000000;fill-opacity:1;fill-rule:nonzero;stroke:none;stroke-width:0.03527778"
         d="m -46.8162,78.79408 -1.62208,0.17638 v 9.76807 c -0.54666,-2.06305 -0.93457,-4.17901 -1.12846,-6.32989 -0.22917,-0.4057 -0.10583,-0.96979 0.37027,-1.67499 -2.83876,0.74048 -5.36017,1.86901 -7.546406,3.36761 -1.798497,1.99249 -2.909324,4.30213 -3.332516,6.92927 0.176389,0.617 0.546665,0.98742 1.093188,1.11089 v 2.15103 H -46.8162 V 78.79408" />
      <path
         inkscape:connector-curvature="0"
         id="path46"
         style="fill:#000000;fill-opacity:1;fill-rule:nonzero;stroke:none;stroke-width:0.03527778"
         d="m -31.84675,91.03053 c -1.00506,0.24694 -1.76318,0.66992 -2.30999,1.28718 v 1.97474 H -46.8162 v 1.71027 h 14.96945 v -4.97219" />
      <path
         inkscape:connector-curvature="0"
         id="path48"
         style="fill:#000000;fill-opacity:1;fill-rule:nonzero;stroke:none;stroke-width:0.03527778"
         d="m -57.342458,98.48885 c -1.005028,-0.24695 -1.375304,-0.61722 -1.110721,-1.12847 H -46.8162 v -1.35766 h -14.8813 v 3.26182 c 0.758226,1.7103 1.921969,3.24432 3.491125,4.60195 1.869055,1.53405 3.808485,2.99737 5.818505,4.37268 0.40555,0.65235 0.40555,1.21666 0,1.69263 l -5.465868,-0.9168 -1.551658,-3.9671 0.352636,3.61446 c -1.022632,0.40555 -1.95707,0.95208 -2.820987,1.63971 -0.793468,0.81111 -1.251938,1.83378 -1.35763,3.06793 1.95707,1.9043 4.160978,3.56168 6.647107,4.95459 2.52138,1.30475 5.1132,1.99238 7.79336,2.06294 v -2.48613 h 1.97471 v -7.59933 c -2.67999,0.61722 -6.11819,2.99752 -10.296952,7.141 0.511242,-1.74554 3.614452,-5.04278 9.274312,-9.89157 -0.22916,-1.56916 -0.45847,-3.05026 -0.68763,-4.4432 -0.22916,-1.39291 -1.00499,-2.38027 -2.30974,-2.92682 l -6.506248,-1.69263" />
      <path
         inkscape:connector-curvature="0"
         id="path50"
         style="fill:#000000;fill-opacity:1;fill-rule:nonzero;stroke:none;stroke-width:0.03527778"
         d="m -35.07325,97.94218 v -0.5818 H -46.8162 v 12.94169 c 1.53391,-0.15861 5.06031,2.30988 10.57913,7.37016 -2.87397,-3.79084 -6.03006,-6.98224 -9.45063,-9.55643 -0.29972,-0.12347 -0.29972,-0.74055 -0.0176,-1.85138 l 0.63472,-3.20904 c 0.54652,-1.44568 1.56915,-2.46835 3.08557,-3.06793 2.3097,-0.79333 4.60181,-1.48096 6.9118,-2.04527" />
      <path
         inkscape:connector-curvature="0"
         id="path58"
         style="fill:#000000;fill-opacity:1;fill-rule:nonzero;stroke:none;stroke-width:0.03527778"
         d="m -31.44141,99.2469 -0.51117,0.26458 c -0.4759,2.16863 -3.59692,5.13087 -9.3272,8.90408 v 1.4986 c 1.92179,-0.42305 3.82598,-0.72277 5.74792,-0.9168 l 1.37512,-4.12584 c 0.35278,0.0529 0.61736,0.2468 0.81139,0.54666 h -0.49389 l -0.38805,2.92682 1.99284,1.44583 0.79304,-10.54393" />
      <path
         inkscape:connector-curvature="0"
         id="path60"
         style="fill:#000000;fill-opacity:1;fill-rule:nonzero;stroke:none;stroke-width:0.03527778"
         d="m -46.8162,117.98959 v 2.57433 h 2.01002 v -2.57433 h -2.01002" />
      <g
         id="g267">
        <path
           d="m -54.168343,63.288445 v 1.017701 l 0.714556,-1.017701 h 1.017701 l -1.164943,1.563362 0.519677,0.632274 h 0.935419 v 0.931088 h -1.234233 l -0.788177,-0.931088 v 0.931088 h -1.017701 v -3.126724 z"
           style="font-style:normal;font-variant:normal;font-weight:normal;font-stretch:normal;font-size:medium;line-height:2.77161145px;font-family:'Star Jedi';-inkscape-font-specification:'Star Jedi';letter-spacing:0px;word-spacing:0px;fill:#000000;fill-opacity:1;stroke:none;stroke-width:0.11086446px;stroke-linecap:butt;stroke-linejoin:miter;stroke-opacity:1"
           id="path183"
           inkscape:connector-curvature="0" />
        <path
           d="m -48.664096,64.869129 q 0,0.513181 -0.214367,0.87479 -0.214367,0.361609 -0.621447,0.543496 -0.404915,0.181887 -0.967899,0.181887 -0.562984,0 -0.967899,-0.181887 -0.40275,-0.184053 -0.61062,-0.541331 -0.207871,-0.359443 -0.207871,-0.876955 0,-0.391923 0.119092,-0.688572 0.119093,-0.298814 0.348617,-0.502355 0.229524,-0.20354 0.562984,-0.307475 0.333459,-0.106101 0.755697,-0.106101 0.560818,0 0.967899,0.186218 0.40708,0.184052 0.621447,0.545661 0.214367,0.359443 0.214367,0.872624 z m -2.479293,0.0087 q 0,0.300979 0.13425,0.524007 0.136415,0.223028 0.534834,0.223028 0.307476,0 0.459048,-0.116927 0.153738,-0.116927 0.190548,-0.266334 0.03898,-0.151573 0.05197,-0.363774 -0.01299,-0.30098 -0.145076,-0.524008 -0.132085,-0.225194 -0.556488,-0.225194 -0.669084,0 -0.669084,0.749202 z"
           style="font-style:normal;font-variant:normal;font-weight:normal;font-stretch:normal;font-size:medium;line-height:2.77161145px;font-family:'Star Jedi';-inkscape-font-specification:'Star Jedi';letter-spacing:0px;word-spacing:0px;fill:#000000;fill-opacity:1;stroke:none;stroke-width:0.11086446px;stroke-linecap:butt;stroke-linejoin:miter;stroke-opacity:1"
           id="path185"
           inkscape:connector-curvature="0" />
        <path
           d="m -45.667291,63.288445 v 0.931088 h -0.991717 v 2.195636 h -1.017701 v -2.195636 h -0.991718 v -0.931088 z"
           style="font-style:normal;font-variant:normal;font-weight:normal;font-stretch:normal;font-size:medium;line-height:2.77161145px;font-family:'Star Jedi';-inkscape-font-specification:'Star Jedi';letter-spacing:0px;word-spacing:0px;fill:#000000;fill-opacity:1;stroke:none;stroke-width:0.11086446px;stroke-linecap:butt;stroke-linejoin:miter;stroke-opacity:1"
           id="path187"
           inkscape:connector-curvature="0" />
        <path
           d="m -45.554695,66.415169 v -3.126724 h 1.017701 v 2.195636 h 1.693282 v 0.931088 z"
           style="font-style:normal;font-variant:normal;font-weight:normal;font-stretch:normal;font-size:medium;line-height:2.77161145px;font-family:'Star Jedi';-inkscape-font-specification:'Star Jedi';letter-spacing:0px;word-spacing:0px;fill:#000000;fill-opacity:1;stroke:none;stroke-width:0.11086446px;stroke-linecap:butt;stroke-linejoin:miter;stroke-opacity:1"
           id="path189"
           inkscape:connector-curvature="0" />
        <path
           d="m -42.757099,63.288445 h 1.017701 v 3.126724 h -1.017701 z"
           style="font-style:normal;font-variant:normal;font-weight:normal;font-stretch:normal;font-size:medium;line-height:2.77161145px;font-family:'Star Jedi';-inkscape-font-specification:'Star Jedi';letter-spacing:0px;word-spacing:0px;fill:#000000;fill-opacity:1;stroke:none;stroke-width:0.11086446px;stroke-linecap:butt;stroke-linejoin:miter;stroke-opacity:1"
           id="path191"
           inkscape:connector-curvature="0" />
        <path
           d="m -41.518535,66.415169 v -3.126724 h 1.017701 l 0.931088,1.169273 v -1.169273 h 1.017701 v 3.126724 h -1.017701 l -0.931088,-1.169274 v 1.169274 z"
           style="font-style:normal;font-variant:normal;font-weight:normal;font-stretch:normal;font-size:medium;line-height:2.77161145px;font-family:'Star Jedi';-inkscape-font-specification:'Star Jedi';letter-spacing:0px;word-spacing:0px;fill:#000000;fill-opacity:1;stroke:none;stroke-width:0.11086446px;stroke-linecap:butt;stroke-linejoin:miter;stroke-opacity:1"
           id="path193"
           inkscape:connector-curvature="0" />
      </g>
      <path
         d="m -32.713056,81.274688 c -0.0052,-4.407866 -0.01048,-8.815733 -0.01572,-13.2236 1.158,0.0045 2.315998,0.0093 3.473995,0.01442 0.428746,0.115602 0.781161,0.450203 1.057215,1.010093 0.275996,0.572503 0.478074,1.344094 0.606245,2.312692 0.09863,1.453139 0.103655,2.563742 0.01514,3.318836 -0.08848,0.749579 -0.24338,1.345504 -0.464681,1.78553 -0.22126,0.43169 -0.538436,0.711134 -0.951534,0.839992 0.132994,0.53955 0.265961,1.084742 0.398902,1.635635 0.531065,0.240698 1.062098,0.488383 1.593097,0.743059 0,1.644628 0,3.289256 0,4.933884 -0.699971,-0.474909 -1.400024,-0.932544 -2.100158,-1.372916 -0.563503,-1.978396 -1.127398,-3.873491 -1.691668,-5.688936 0.0012,1.566103 0.0024,3.132206 0.0036,4.698308 -0.641423,-0.350103 -1.282915,-0.685765 -1.924474,-1.006995 m 1.916201,-9.670102 c 6.77e-4,0.873343 0.0014,1.746687 0.002,2.62003 0.447905,0.110625 0.895796,0.224328 1.343672,0.341108 0.07136,0.01889 0.148845,-0.03359 0.232448,-0.158154 0.0836,-0.132516 0.12774,-0.504072 0.132407,-1.114149 -0.01255,-0.585458 -0.06318,-0.977011 -0.151888,-1.174063 -0.08626,-0.202256 -0.158931,-0.307434 -0.218021,-0.316535 -0.446874,-0.06786 -0.893758,-0.133942 -1.340649,-0.198237 m -6.933035,7.655712 c -0.0084,-3.74148 -0.01675,-7.482959 -0.02512,-11.224439 1.52512,0.0039 3.050237,0.0084 4.575351,0.01359 0.0017,1.291252 0.0033,2.582504 0.005,3.873757 -0.945513,-0.130792 -1.891071,-0.25213 -2.836672,-0.364023 8.56e-4,0.452809 0.0017,0.905618 0.0026,1.358428 0.61058,0.09798 1.221135,0.20138 1.831664,0.310205 0.0011,0.73032 0.0022,1.46064 0.0033,2.190961 -0.610316,-0.154004 -1.22067,-0.300332 -1.831059,-0.438988 8.56e-4,0.452809 0.0017,0.905618 0.0026,1.358428 1.094998,0.303402 2.189857,0.63629 3.284578,0.998691 0.0016,1.312593 0.0031,2.625186 0.0047,3.937779 -1.671818,-0.769193 -3.344096,-1.44061 -5.016833,-2.01439 m -5.538055,-1.204293 c -0.01025,-3.343083 -0.02049,-6.686167 -0.03074,-10.029251 1.158015,0.0012 2.316029,0.0028 3.47404,0.0048 0.428912,0.08029 0.784262,0.307157 1.066037,0.683277 0.281749,0.381612 0.482524,0.913848 0.602332,1.595645 0.110265,0.829292 0.156009,1.450663 0.13725,1.860099 -0.01876,0.409002 -0.05727,0.789225 -0.115535,1.140178 -0.05826,0.34986 -0.219789,0.738207 -0.484572,1.161979 -0.264758,0.418878 -0.618528,0.655446 -1.061332,0.714439 -0.55642,-0.08842 -1.112874,-0.169619 -1.669362,-0.243598 0.0032,1.136927 0.0065,2.273854 0.0097,3.410782 -0.642537,-0.113747 -1.28514,-0.213182 -1.927811,-0.298314 m 1.905777,-7.452827 c 0.0018,0.634012 0.0036,1.268023 0.0054,1.902035 0.448245,0.03843 0.896475,0.07992 1.344691,0.124454 0.07142,0.0074 0.148856,-0.03608 0.232318,-0.130651 0.08345,-0.09983 0.127083,-0.364386 0.130899,-0.793508 -0.01337,-0.410756 -0.06456,-0.683324 -0.153565,-0.81743 -0.08656,-0.138279 -0.159393,-0.208989 -0.218509,-0.21254 -0.447072,-0.02589 -0.894152,-0.05001 -1.341241,-0.07236 m -2.172223,2.478808 c 0.0034,1.09419 -0.115657,2.017221 -0.357101,2.767214 -0.241434,0.747868 -0.593063,1.295891 -1.054908,1.648462 -0.459404,0.357536 -1.009368,0.527306 -1.649923,0.515989 -0.640621,0.0031 -1.191977,-0.173506 -1.654038,-0.53608 -0.459635,-0.362071 -0.808957,-0.910639 -1.047947,-1.649931 -0.238997,-0.74545 -0.360207,-1.668315 -0.363636,-2.767124 -0.0026,-0.832152 0.06289,-1.565498 0.196452,-2.198654 0.133541,-0.635988 0.330225,-1.170519 0.59005,-1.603213 0.259815,-0.430785 0.579091,-0.755449 0.957831,-0.974427 0.378721,-0.222714 0.808308,-0.333869 1.288764,-0.333869 0.638144,0 1.189447,0.195549 1.653902,0.588159 0.464428,0.390785 0.819793,0.971876 1.066094,1.743552 0.246267,0.771269 0.371082,1.705721 0.37446,2.799922 0,0 0,0 0,0 m -4.231214,-0.05794 c 0.002,0.631082 0.08019,1.178892 0.234468,1.643492 0.156742,0.464753 0.461801,0.69493 0.915157,0.694295 0.349855,0.0031 0.61061,-0.114977 0.782274,-0.356332 0.174126,-0.240828 0.281624,-0.517293 0.322497,-0.829752 0.04332,-0.317007 0.07166,-0.698159 0.08501,-1.143433 -0.01681,-0.632422 -0.101111,-1.184111 -0.252895,-1.654453 -0.151808,-0.474053 -0.469165,-0.712577 -0.952076,-0.714466 -0.761343,0.0015 -1.139497,0.78975 -1.134439,2.360649 10e-7,0 10e-7,0 2e-6,0 m -1.96288,0.03985 c 0.0034,1.090332 -0.115711,2.028573 -0.357344,2.818815 -0.24166,0.796074 -0.593642,1.419013 -1.055963,1.872917 -0.459914,0.465911 -1.010472,0.762113 -1.651679,0.889587 -0.641274,0.141785 -1.193111,0.06756 -1.655456,-0.234658 -0.459878,-0.310263 -0.809212,-0.856374 -1.047982,-1.642548 -0.238738,-0.800506 -0.359478,-1.823266 -0.362254,-3.061072 -0.0021,-0.937417 0.06384,-1.76832 0.197816,-2.488618 0.133936,-0.720063 0.330953,-1.325579 0.591045,-1.815312 0.260062,-0.483044 0.579516,-0.845468 0.958369,-1.088631 0.378821,-0.243722 0.808451,-0.364023 1.288907,-0.364023 0.638142,0 1.189411,0.202792 1.653827,0.604051 0.464424,0.391569 0.819798,0.970727 1.066122,1.737553 0.246327,0.758452 0.371195,1.681595 0.374592,2.771939 0,0 0,0 0,0 m -4.233385,0.403729 c 0.0018,0.686256 0.07975,1.271839 0.233946,1.754509 0.156674,0.479373 0.461874,0.679549 0.91557,0.60661 0.350117,-0.05268 0.611096,-0.218575 0.782941,-0.498296 0.174299,-0.277739 0.281924,-0.581242 0.322884,-0.911822 0.04341,-0.335049 0.07183,-0.734244 0.08527,-1.197803 -0.01671,-0.654456 -0.100943,-1.219818 -0.252692,-1.69744 -0.151759,-0.484565 -0.469151,-0.715383 -0.952194,-0.689067 -0.761554,0.04594 -1.140134,0.925072 -1.135722,2.633309 0,0 0,0 0,0 m -7.446552,8.038628 c -0.0049,-4.484447 -0.0098,-8.968894 -0.01465,-13.453341 1.158041,-0.0042 2.31608,-0.0081 3.474117,-0.0116 0.428886,0.08575 0.781721,0.331192 1.058518,0.732991 0.276829,0.395334 0.480047,0.92461 0.609649,1.588868 0.100775,0.99644 0.10739,1.769131 0.01982,2.324311 -0.08758,0.558049 -0.241947,1.040581 -0.463101,1.449634 -0.221182,0.414808 -0.538738,0.775136 -0.952679,1.083296 0.133907,0.34538 0.267827,0.688048 0.401759,1.028059 0.532814,-0.131377 1.065596,-0.255938 1.598347,-0.373677 0.0025,1.108126 0.005,2.216253 0.0076,3.324379 -0.70325,0.222562 -1.406579,0.461978 -2.109988,0.718236 -0.567569,-1.113463 -1.134954,-2.266106 -1.702139,-3.461492 0.0021,1.382793 0.0042,2.765587 0.0062,4.148381 -0.644417,0.286565 -1.2889,0.587218 -1.93345,0.901951 m 1.919301,-10.329319 c 0.0012,0.771121 0.0023,1.542241 0.0035,2.313361 0.448819,-0.08383 0.897624,-0.164664 1.346415,-0.242492 0.07151,-0.01212 0.149078,-0.08311 0.232703,-0.212474 0.08361,-0.134184 0.127438,-0.439805 0.131482,-0.917305 -0.01317,-0.453384 -0.06426,-0.746708 -0.153269,-0.880253 -0.08655,-0.140048 -0.159402,-0.207442 -0.218562,-0.201593 -0.447406,0.04518 -0.89482,0.0921 -1.342242,0.140756 m -2.126132,-3.123289 c 0.0014,1.344931 0.0028,2.689862 0.0042,4.034794 -0.564642,0.08833 -1.1293,0.179941 -1.693973,0.274832 0.0023,3.382173 0.0047,6.764346 0.007,10.14652 -0.580574,0.332518 -1.161201,0.676421 -1.741882,1.031701 -0.0012,-3.621838 -0.0024,-7.243677 -0.0036,-10.865516 -0.564736,0.108252 -1.129488,0.219774 -1.694255,0.334567 0,-1.644628 0,-3.289255 0,-4.933882 1.707504,-0.0084 3.415005,-0.01609 5.122502,-0.02302"
         style="font-style:normal;font-variant:normal;font-weight:normal;font-stretch:normal;font-size:medium;line-height:6.61458302px;font-family:'Star Jedi';-inkscape-font-specification:'Star Jedi';letter-spacing:0px;word-spacing:0px;fill:#000000;fill-opacity:1;stroke:none;stroke-width:0.1929619px;stroke-linecap:butt;stroke-linejoin:miter;stroke-opacity:1"
         id="path3938"
         inkscape:connector-curvature="0" />
    </g>
  </g>
</svg>
