<?xml version="1.0" encoding="UTF-8" standalone="no"?>
<!-- Created with Inkscape (http://www.inkscape.org/) -->

<svg
   xmlns:dc="http://purl.org/dc/elements/1.1/"
   xmlns:cc="http://creativecommons.org/ns#"
   xmlns:rdf="http://www.w3.org/1999/02/22-rdf-syntax-ns#"
   xmlns:svg="http://www.w3.org/2000/svg"
   xmlns="http://www.w3.org/2000/svg"
   xmlns:sodipodi="http://sodipodi.sourceforge.net/DTD/sodipodi-0.dtd"
   xmlns:inkscape="http://www.inkscape.org/namespaces/inkscape"
   width="51.485012mm"
   height="67.582977mm"
   viewBox="0 0 51.485012 67.582977"
   version="1.1"
   id="svg1160"
   sodipodi:docname="kotlin_trooper_2.svg"
   inkscape:export-filename="/home/madhead/Projects/t-shirts/kotlin/kotlin_trooper_1.png"
   inkscape:export-xdpi="299.91574"
   inkscape:export-ydpi="299.91574"
   inkscape:version="0.92.1 r">
  <defs
     id="defs1154" />
  <sodipodi:namedview
     id="base"
     pagecolor="#ffffff"
     bordercolor="#666666"
     borderopacity="1.0"
     inkscape:pageopacity="0.0"
     inkscape:pageshadow="2"
     inkscape:zoom="1.4"
     inkscape:cx="45.144222"
     inkscape:cy="137.36349"
     inkscape:document-units="mm"
     inkscape:current-layer="layer1"
     showgrid="false"
     fit-margin-top="0"
     fit-margin-left="0"
     fit-margin-right="0"
     fit-margin-bottom="0"
     inkscape:window-width="1366"
     inkscape:window-height="697"
     inkscape:window-x="0"
     inkscape:window-y="0"
     inkscape:window-maximized="1" />
  <metadata
     id="metadata1157">
    <rdf:RDF>
      <cc:Work
         rdf:about="">
        <dc:format>image/svg+xml</dc:format>
        <dc:type
           rdf:resource="http://purl.org/dc/dcmitype/StillImage" />
        <dc:title></dc:title>
      </cc:Work>
    </rdf:RDF>
  </metadata>
  <g
     inkscape:label="Layer 1"
     inkscape:groupmode="layer"
     id="layer1"
     transform="translate(72.611552,-59.85732)">
    <g
       id="g1689">
      <path
         sodipodi:nodetypes="cccccccccccccccccccccccccccccccc"
         d="m -22.925,87.09882 1.79846,-23.66222 -13.56959,0.51153 0.565,-4.09081 -25.493,0.0176 0.582,4.07318 -13.569422,-0.51153 1.78084,23.67986 c 1.921799,1.67499 3.332381,4.23121 4.213902,7.6696 0.529026,2.50377 0.529026,5.0075 0,7.52891 -0.758049,3.61446 -2.345019,6.47086 -4.76057,8.53377 5.871397,9.96198 14.052561,15.48075 24.54354,16.59159 10.43802,-1.11084 18.58402,-6.62961 24.4553,-16.59159 -2.41547,-2.06291 -4.00227,-4.91931 -4.76039,-8.53377 -0.52916,-2.52141 -0.52916,-5.02514 0,-7.52891 0.88159,-3.43839 2.292,-5.99461 4.21393,-7.68724 z M -36.79413,62.51973 v 3.9497 h 11.9472 L -25.65797,85.935 c -1.99249,2.6095 -3.34997,5.48323 -4.09081,8.63953 -0.44062,2.30971 -0.44062,4.61959 0,6.92933 0.65264,3.33238 1.8161,6.29458 3.50908,8.88641 -4.60198,8.44571 -11.37285,13.18866 -20.27678,14.2113 -8.83349,-1.005 -15.568934,-5.74795 -20.170744,-14.19366 1.692628,-2.59183 2.856265,-5.57167 3.508622,-8.90405 0.440831,-2.30974 0.440831,-4.60198 0,-6.91169 -0.758049,-3.1563 -2.115714,-6.03003 -4.090564,-8.63953 l -1.569191,-19.46557 h 12.282227 v -3.96734"
         style="fill:#000000;fill-opacity:1;fill-rule:nonzero;stroke:none;stroke-width:0.03527778"
         id="path22"
         inkscape:connector-curvature="0" />
      <path
         d="m -33.01056,68.05622 -0.17639,-0.10583 h -3.98463 v 11.86639 c 0.68757,0.22895 1.35749,0.4759 2.04541,0.75812 0.52881,0.2293 1.05763,0.45826 1.60443,0.72284 0.0882,0.0529 0.28187,0.15875 0.59937,0.33514 v -3.82623 l -1.21673,0.35278 h -0.98707 v -2.99755 c 0.4759,-0.29987 1.02235,-0.52882 1.60443,-0.72285 0.0882,-0.15875 0.0882,-0.29986 0,-0.45861 -0.58208,-0.31715 -1.12853,-0.65228 -1.60443,-1.00471 v -3.10339 c 0.22895,-0.0882 0.4759,-0.0882 0.74048,0 0.40534,0.3175 0.86395,0.49354 1.37513,0.51118 v -2.32728"
         style="fill:#000000;fill-opacity:1;fill-rule:nonzero;stroke:none;stroke-width:0.03527778"
         id="path26"
         inkscape:connector-curvature="0" />
      <path
         d="m -37.96504,74.26264 v -5.48357 c 0.0529,-0.54646 -0.22917,-0.81104 -0.86389,-0.82868 h -4.16115 v 10.38507 c 0.68767,0.10584 1.3753,0.24695 2.08058,0.4057 v -3.75567 h 2.25682 c 0.335,-0.15875 0.56431,-0.38771 0.68764,-0.72285 z m -2.94446,-4.72545 c 0.26444,-0.29951 0.59944,-0.29951 1.00499,0.0353 v 3.96734 c -0.37028,0.37007 -0.70527,0.40534 -1.00499,0.12347 v -4.12611"
         style="fill:#000000;fill-opacity:1;fill-rule:nonzero;stroke:none;stroke-width:0.03527778"
         id="path28"
         inkscape:connector-curvature="0" />
      <path
         d="m -27.17421,68.77907 c -0.26458,-0.45826 -0.70555,-0.74048 -1.28728,-0.82868 h -3.82588 v 13.94672 c 0.68757,0.35278 1.39277,0.74083 2.09797,1.14617 v -6.3828 c 0.33514,-0.12348 0.66993,-0.12348 0.96979,0 v 6.96453 c 0.68756,0.4057 1.35749,0.84632 2.0454,1.30493 v -7.95196 c -0.10583,-0.58174 -0.42333,-0.93451 -0.95214,-1.05799 -0.14111,-0.19402 -0.14111,-0.38805 0,-0.59936 l 0.95214,-0.72285 c 0.19368,-1.93957 0.19368,-3.87914 0,-5.81871 z m -3.01519,1.51659 c 0.3175,-0.17639 0.63465,-0.17639 0.96979,0 v 4.26685 c -0.33514,0.22895 -0.65229,0.22895 -0.96979,0 v -4.26685"
         style="fill:#000000;fill-opacity:1;fill-rule:nonzero;stroke:none;stroke-width:0.03527778"
         id="path30"
         inkscape:connector-curvature="0" />
      <path
         d="m -50.28969,68.77907 c -0.0882,-0.54646 -0.44083,-0.82868 -1.02263,-0.82868 h -3.05029 c -0.54667,0.0882 -0.89931,0.35278 -1.05791,0.82868 v 9.11577 c 0.1586,0.49354 0.51124,0.84632 1.07554,1.07562 0.335,-0.0882 0.68767,-0.17638 1.04031,-0.24694 0.335,-0.0882 0.67,-0.15875 1.00499,-0.21167 0.44084,-0.0882 0.89916,-0.17639 1.34,-0.2293 0.51124,-0.12312 0.72291,-0.38771 0.66999,-0.79305 0,-2.90936 0,-5.80108 0,-8.71043 z m -2.00999,0.79339 c 0,2.48603 0,4.99005 0,7.49371 l -1.00499,-0.0529 v -7.44079 c 0.335,-0.33478 0.67,-0.33478 1.00499,0"
         style="fill:#000000;fill-opacity:1;fill-rule:nonzero;stroke:none;stroke-width:0.03527778"
         id="path38"
         inkscape:connector-curvature="0" />
      <path
         d="m -48.0505,67.95039 c -0.65236,0.0176 -0.95208,0.26458 -0.86388,0.77576 V 77.172 c 0.0882,0.44062 0.40555,0.72284 0.91679,0.86396 0.335,-0.0176 0.67,-0.0176 1.005,0 0.29986,-0.0176 0.61722,0 0.93461,0.0176 0.0176,-0.0176 0.0529,-0.0176 0.0704,0 0.37027,0.0176 0.75819,0.0353 1.12846,0.0706 0.58194,-0.12347 0.88166,-0.42333 0.8993,-0.93451 V 68.9731 c 0.0176,-0.65228 -0.31736,-0.98742 -0.96985,-1.0227 z m 1.05791,1.4986 c 0.3175,-0.29951 0.63486,-0.29951 0.93461,0 0.0176,2.38055 0.0353,4.81365 0.0529,7.29968 -0.26458,0.17639 -0.59962,0.15875 -0.98753,-0.0706 v -7.22912"
         style="fill:#000000;fill-opacity:1;fill-rule:nonzero;stroke:none;stroke-width:0.03527778"
         id="path40"
         inkscape:connector-curvature="0" />
      <path
         d="m -44.25966,81.01552 c -0.37013,-1.83339 -0.75805,-2.48603 -1.18124,-1.95686 v 9.83862 c 0.51125,0.1584 1.04027,-1.99249 1.62207,-6.41809 3.93196,0.10584 7.1235,2.23908 9.5739,6.41809 -1.16346,-3.70276 -4.49594,-6.32989 -10.01473,-7.88176"
         style="fill:#000000;fill-opacity:1;fill-rule:nonzero;stroke:none;stroke-width:0.03527778"
         id="path42"
         inkscape:connector-curvature="0" />
      <path
         d="m -46.8162,78.79408 -1.62208,0.17638 v 9.76807 c -0.54666,-2.06305 -0.93457,-4.17901 -1.12846,-6.32989 -0.22917,-0.4057 -0.10583,-0.96979 0.37027,-1.67499 -2.83876,0.74048 -5.36017,1.86901 -7.546406,3.36761 -1.798497,1.99249 -2.909324,4.30213 -3.332516,6.92927 0.176389,0.617 0.546665,0.98742 1.093188,1.11089 v 2.15103 H -46.8162 V 78.79408"
         style="fill:#000000;fill-opacity:1;fill-rule:nonzero;stroke:none;stroke-width:0.03527778"
         id="path44"
         inkscape:connector-curvature="0" />
      <path
         d="m -31.84675,91.03053 c -1.00506,0.24694 -1.76318,0.66992 -2.30999,1.28718 v 1.97474 H -46.8162 v 1.71027 h 14.96945 v -4.97219"
         style="fill:#000000;fill-opacity:1;fill-rule:nonzero;stroke:none;stroke-width:0.03527778"
         id="path46"
         inkscape:connector-curvature="0" />
      <path
         d="m -57.342458,98.48885 c -1.005028,-0.24695 -1.375304,-0.61722 -1.110721,-1.12847 H -46.8162 v -1.35766 h -14.8813 v 3.26182 c 0.758226,1.7103 1.921969,3.24432 3.491125,4.60195 1.869055,1.53405 3.808485,2.99737 5.818505,4.37268 0.40555,0.65235 0.40555,1.21666 0,1.69263 l -5.465868,-0.9168 -1.551658,-3.9671 0.352636,3.61446 c -1.022632,0.40555 -1.95707,0.95208 -2.820987,1.63971 -0.793468,0.81111 -1.251938,1.83378 -1.35763,3.06793 1.95707,1.9043 4.160978,3.56168 6.647107,4.95459 2.52138,1.30475 5.1132,1.99238 7.79336,2.06294 v -2.48613 h 1.97471 v -7.59933 c -2.67999,0.61722 -6.11819,2.99752 -10.296952,7.141 0.511242,-1.74554 3.614452,-5.04278 9.274312,-9.89157 -0.22916,-1.56916 -0.45847,-3.05026 -0.68763,-4.4432 -0.22916,-1.39291 -1.00499,-2.38027 -2.30974,-2.92682 l -6.506248,-1.69263"
         style="fill:#000000;fill-opacity:1;fill-rule:nonzero;stroke:none;stroke-width:0.03527778"
         id="path48"
         inkscape:connector-curvature="0" />
      <path
         d="m -35.07325,97.94218 v -0.5818 H -46.8162 v 12.94169 c 1.53391,-0.15861 5.06031,2.30988 10.57913,7.37016 -2.87397,-3.79084 -6.03006,-6.98224 -9.45063,-9.55643 -0.29972,-0.12347 -0.29972,-0.74055 -0.0176,-1.85138 l 0.63472,-3.20904 c 0.54652,-1.44568 1.56915,-2.46835 3.08557,-3.06793 2.3097,-0.79333 4.60181,-1.48096 6.9118,-2.04527"
         style="fill:#000000;fill-opacity:1;fill-rule:nonzero;stroke:none;stroke-width:0.03527778"
         id="path50"
         inkscape:connector-curvature="0" />
      <path
         d="m -62.526104,70.29566 v -2.34527 h -5.025143 v 2.89172 c 0.08819,0.42333 0.352636,0.42333 0.75819,0 v -0.37042 c 0.229164,-0.22895 0.45847,-0.22895 0.687634,0 v 14.45825 c 0.722912,-0.54645 1.463499,-1.07562 2.186411,-1.56916 V 70.29566 c 0.123331,-0.21167 0.59944,-0.21167 1.392908,0"
         style="fill:#000000;fill-opacity:1;fill-rule:nonzero;stroke:none;stroke-width:0.03527778"
         id="path54"
         inkscape:connector-curvature="0" />
      <path
         d="m -56.56663,68.86726 c -0.0882,-0.51117 -0.458328,-0.81104 -1.075583,-0.91687 h -4.249173 v 14.17602 c 0.687634,-0.40569 1.375304,-0.75812 2.062939,-1.09325 V 74.8091 c 0.387914,-0.26423 0.775687,-0.24659 1.145963,0.0529 v 5.64233 c 0.705273,-0.29986 1.410582,-0.58173 2.115854,-0.82867 v -5.02497 c -0.334996,-0.33514 -0.705272,-0.49389 -1.110861,-0.45861 -0.08805,-0.12347 -0.08805,-0.26458 0,-0.38806 0.581978,-0.15839 0.952253,-0.51117 1.110861,-1.0929 z m -3.261817,0.93451 c 0.334997,-0.19403 0.722912,-0.19403 1.145963,0 v 3.19158 c -0.423051,0.40534 -0.810966,0.42298 -1.145963,0.0529 v -3.2445"
         style="fill:#000000;fill-opacity:1;fill-rule:nonzero;stroke:none;stroke-width:0.03527778"
         id="path56"
         inkscape:connector-curvature="0" />
      <path
         d="m -31.44141,99.2469 -0.51117,0.26458 c -0.4759,2.16863 -3.59692,5.13087 -9.3272,8.90408 v 1.4986 c 1.92179,-0.42305 3.82598,-0.72277 5.74792,-0.9168 l 1.37512,-4.12584 c 0.35278,0.0529 0.61736,0.2468 0.81139,0.54666 h -0.49389 l -0.38805,2.92682 1.99284,1.44583 0.79304,-10.54393"
         style="fill:#000000;fill-opacity:1;fill-rule:nonzero;stroke:none;stroke-width:0.03527778"
         id="path58"
         inkscape:connector-curvature="0" />
      <path
         d="m -46.8162,117.98959 v 2.57433 h 2.01002 v -2.57433 h -2.01002"
         style="fill:#000000;fill-opacity:1;fill-rule:nonzero;stroke:none;stroke-width:0.03527778"
         id="path60"
         inkscape:connector-curvature="0" />
      <path
         d="m -33.01056,68.05622 -0.17639,-0.10583"
         style="fill:none;stroke:#a2a5b7;stroke-width:0.35263669;stroke-linecap:round;stroke-linejoin:round;stroke-miterlimit:10;stroke-dasharray:none;stroke-opacity:1"
         id="path62"
         inkscape:connector-curvature="0" />
      <g
         id="g1642">
        <path
           inkscape:connector-curvature="0"
           id="XMLID_125_"
           style="fill:#000000;stroke-width:0.04740948"
           d="m -51.355128,65.882727 v -0.01375 c 10e-7,-1.062691 0.855683,-1.925277 2.008082,-1.925277 1.145495,0 1.994271,0.848777 1.994271,1.911467 v 0.01381 c 0,1.06269 -0.855683,1.925221 -2.008082,1.925221 -1.145494,0 -1.994271,-0.848777 -1.994271,-1.911467 z m 2.967254,0 v -0.01375 c 0,-0.545183 -0.39333,-1.021316 -0.972982,-1.021316 -0.600339,0 -0.959173,0.462323 -0.959173,1.007506 v 0.01381 c 0,0.545127 0.39333,1.02126 0.972983,1.02126 0.600338,0 0.959172,-0.462323 0.959172,-1.007506 z" />
        <path
           inkscape:connector-curvature="0"
           id="XMLID_123_"
           style="fill:#000000;stroke-width:0.04740948"
           d="m -47.06324,66.66251 v -1.752737 h -0.441636 V 64.01269 h 0.441636 l 2e-6,-0.94539 h 1.048909 v 0.94539 h 0.869463 v 0.897083 h -0.869465 v 1.580253 c 0,0.241478 0.10349,0.358833 0.338118,0.358833 0.193228,0 0.36574,-0.04831 0.517536,-0.131165 v 0.841899 c -0.220818,0.13111 -0.476133,0.213914 -0.828063,0.213914 -0.641741,0 -1.076501,-0.255343 -1.0765,-1.110997 z" />
        <path
           inkscape:connector-curvature="0"
           id="XMLID_121_"
           style="fill:#000000;stroke-width:0.04740948"
           d="m -44.843772,62.67397 h 1.048881 l -3e-6,5.037421 h -1.048879 z" />
        <path
           inkscape:connector-curvature="0"
           id="XMLID_118_"
           style="fill:#000000;stroke-width:0.04740948"
           d="m -43.415752,62.67397 h 1.104064 v 0.93158 h -1.104066 z m 0.02762,1.33872 h 1.048881 l -1e-6,3.698701 -1.048881,-1e-6 z" />
        <path
           inkscape:connector-curvature="0"
           id="XMLID_116_"
           style="fill:#000000;stroke-width:0.04740948"
           d="m -41.940244,64.01269 h 1.048882 v 0.524441 c 0.241534,-0.310527 0.552061,-0.593434 1.083377,-0.593434 0.793594,0 1.255917,0.524441 1.255917,1.373217 v 2.394478 h -1.048881 v -2.063265 c 0,-0.49682 -0.234656,-0.752163 -0.634863,-0.752163 -0.400263,0 -0.65555,0.255342 -0.65555,0.752163 l -2e-6,2.063264 h -1.048881 z" />
        <g
           id="g1312"
           transform="matrix(0.05026045,0,0,0.05026045,-55.556573,62.519294)">
          <linearGradient
             id="SVGID_1_"
             gradientUnits="userSpaceOnUse"
             x1="-11.37946"
             y1="92.369293"
             x2="70.302353"
             y2="10.68748">
            <stop
               offset="0.10753"
               style="stop-color:#C757BC"
               id="stop1272" />
            <stop
               offset="0.21383"
               style="stop-color:#D0609A"
               id="stop1274" />
            <stop
               offset="0.42537"
               style="stop-color:#E1725C"
               id="stop1276" />
            <stop
               offset="0.60485"
               style="stop-color:#EE7E2F"
               id="stop1278" />
            <stop
               offset="0.74303"
               style="stop-color:#F58613"
               id="stop1280" />
            <stop
               offset="0.82323"
               style="stop-color:#F88909"
               id="stop1282" />
          </linearGradient>
          <polygon
             style="fill:url(#SVGID_1_)"
             points="51.3125,4.31559 0.16667,58.10162 0.16667,106.18491 51.23876,55.02328 102.03596,4.31559 "
             id="polygon1285" />
          <linearGradient
             id="XMLID_2_"
             gradientUnits="userSpaceOnUse"
             x1="36.096378"
             y1="121.14526"
             x2="79.125732"
             y2="78.115913">
            <stop
               offset="0.09677"
               style="stop-color:#0095D5"
               id="stop1287" />
            <stop
               offset="0.30073"
               style="stop-color:#238AD9"
               id="stop1289" />
            <stop
               offset="0.62106"
               style="stop-color:#557BDE"
               id="stop1291" />
            <stop
               offset="0.86432"
               style="stop-color:#7472E2"
               id="stop1293" />
            <stop
               offset="1"
               style="stop-color:#806EE3"
               id="stop1295" />
          </linearGradient>
          <polygon
             id="XMLID_11_"
             style="fill:url(#XMLID_2_)"
             points="51.2388,55.02347 102.03606,106.18496 0.1667,106.18496 " />
          <linearGradient
             id="SVGID_2_"
             gradientUnits="userSpaceOnUse"
             x1="-4.5055799"
             y1="35.88097"
             x2="33.10503"
             y2="-1.72965">
            <stop
               offset="0.09677"
               style="stop-color:#0095D5"
               id="stop1299" />
            <stop
               offset="0.30073"
               style="stop-color:#238AD9"
               id="stop1301" />
            <stop
               offset="0.62106"
               style="stop-color:#557BDE"
               id="stop1303" />
            <stop
               offset="0.86432"
               style="stop-color:#7472E2"
               id="stop1305" />
            <stop
               offset="1"
               style="stop-color:#806EE3"
               id="stop1307" />
          </linearGradient>
          <polygon
             style="fill:url(#SVGID_2_)"
             points="51.31255,4.31566 0.16672,58.10168 0.16672,4.31566 "
             id="polygon1310" />
        </g>
      </g>
    </g>
  </g>
</svg>
