<?xml version="1.0" encoding="UTF-8" standalone="no"?>
<!-- Created with Inkscape (http://www.inkscape.org/) -->

<svg
   xmlns:dc="http://purl.org/dc/elements/1.1/"
   xmlns:cc="http://creativecommons.org/ns#"
   xmlns:rdf="http://www.w3.org/1999/02/22-rdf-syntax-ns#"
   xmlns:svg="http://www.w3.org/2000/svg"
   xmlns="http://www.w3.org/2000/svg"
   xmlns:sodipodi="http://sodipodi.sourceforge.net/DTD/sodipodi-0.dtd"
   xmlns:inkscape="http://www.inkscape.org/namespaces/inkscape"
   width="1950mm"
   height="955mm"
   viewBox="0 0 1950 955"
   version="1.1"
   id="svg8"
   inkscape:version="0.92.2 5c3e80d, 2017-08-06"
   sodipodi:docname="left.svg">
  <defs
     id="defs2" />
  <sodipodi:namedview
     id="base"
     pagecolor="#ffffff"
     bordercolor="#666666"
     borderopacity="1.0"
     inkscape:pageopacity="0.0"
     inkscape:pageshadow="2"
     inkscape:zoom="0.16"
     inkscape:cx="3336.3931"
     inkscape:cy="947.30716"
     inkscape:document-units="px"
     inkscape:current-layer="layer1"
     showgrid="false"
     showborder="true"
     inkscape:window-width="1920"
     inkscape:window-height="1001"
     inkscape:window-x="0"
     inkscape:window-y="0"
     inkscape:window-maximized="1"
     inkscape:snap-global="false"
     inkscape:snap-bbox="true"
     inkscape:bbox-paths="true"
     inkscape:bbox-nodes="true"
     inkscape:snap-bbox-edge-midpoints="true"
     inkscape:snap-bbox-midpoints="true"
     inkscape:object-paths="true"
     inkscape:snap-intersection-paths="true"
     inkscape:snap-smooth-nodes="true"
     inkscape:snap-midpoints="true"
     inkscape:snap-object-midpoints="true"
     inkscape:snap-center="true" />
  <metadata
     id="metadata5">
    <rdf:RDF>
      <cc:Work
         rdf:about="">
        <dc:format>image/svg+xml</dc:format>
        <dc:type
           rdf:resource="http://purl.org/dc/dcmitype/StillImage" />
        <dc:title></dc:title>
      </cc:Work>
    </rdf:RDF>
  </metadata>
  <g
     inkscape:label="Layer 1"
     inkscape:groupmode="layer"
     id="layer1"
     transform="translate(0,658.00001)">
    <g
       id="g5380">
      <path
         id="path4593"
         d="m 979.93066,-76.46599 c -2.35834,2.830222 -4.69432,5.50799 -6.99749,8.013462 l 5.82652,319.668348 0.83458,45.78429 h 31.43683 l -10.9105,-148.80643 c 0.2125,0.57346 0.3923,1.07204 0.6026,1.64074 1.793,1.92733 3.5806,3.70739 5.3635,5.39038 10.5241,6.27134 20.6004,12.34099 29.9237,18.06297 77.8827,21.74746 124.0827,-157.013516 -16.3767,-41.1112 -6.7945,5.60663 -13.1009,10.76315 -19.5131,16.01661 L 983.99503,-71.742754 c -1.34628,-1.52355 -2.70153,-3.099091 -4.06437,-4.723236 z m -1.17097,327.68181 c -14.82823,-12.75726 -30.58898,-26.42164 -47.83791,-41.53699 -161.14562,-141.213025 -57.555,161.70577 47.83791,41.53699 z"
         style="opacity:1;vector-effect:none;fill:#004e0a;fill-opacity:1;fill-rule:nonzero;stroke:none;stroke-width:30;stroke-linecap:butt;stroke-linejoin:miter;stroke-miterlimit:4;stroke-dasharray:none;stroke-dashoffset:0;stroke-opacity:1"
         inkscape:connector-curvature="0" />
      <path
         id="path4565"
         d="m 1220.5578,-107.48825 c 41.8311,198.327976 217.2523,-82.8649 20.2672,-35.10834 -562.28783,136.319581 328.7336,-331.52408 -101.8386,54.944722 -150.84154,135.390827 180.3892,146.713563 40.5382,-0.0023 -399.20007,-418.795725 451.4751,118.929633 -98.5028,-60.722455 -192.67262,-62.93716 -36.863,229.578453 20.2712,35.10604 163.0876,-555.1153 122.7414,450.45372 3.3357,-115.66717 -41.8311,-198.32798 -217.25227,82.86489 -20.2671,35.10833 562.2878,-136.31958 -328.73367,331.52409 101.8386,-54.94472 150.8415,-135.39082 -180.3893,-146.71356 -40.5383,0.002 399.2001,418.79572 -451.47512,-118.92963 98.5028,60.72246 192.6726,62.93715 36.863,-229.57846 -20.2711,-35.10605 -163.0877,555.1153 -122.7415,-450.45372 -3.3358,115.66718 z"
         inkscape:transform-center-y="-3.9795644e-05"
         inkscape:transform-center-x="-1.5928523e-05"
         style="opacity:1;vector-effect:none;fill:#6f4f9b;fill-opacity:1;fill-rule:nonzero;stroke:none;stroke-width:0.62456554;stroke-linecap:butt;stroke-linejoin:miter;stroke-miterlimit:4;stroke-dasharray:none;stroke-dashoffset:0;stroke-opacity:1"
         transform="rotate(87.331451,1065.9405,-259.06922)" />
    </g>
    <g
       id="g5385">
      <path
         id="path4685"
         d="m 597.18141,86.66308 0.47853,125.49931 0.3235,84.83772 H 627.9325 L 613.14841,92.339213 c -5.38327,-1.399567 -10.77677,-3.298666 -15.967,-5.676133 z m 0.47853,125.49931 c 0.0326,-2.16831 -12.08289,-5.88433 -15.05231,-10.22106 -60.14262,-87.83617 -81.96625,52.75622 14.2322,11.05254 0.56259,-0.24389 0.81545,-0.5217 0.82011,-0.83148 z"
         style="color:#000000;font-style:normal;font-variant:normal;font-weight:normal;font-stretch:normal;font-size:medium;line-height:normal;font-family:sans-serif;font-variant-ligatures:normal;font-variant-position:normal;font-variant-caps:normal;font-variant-numeric:normal;font-variant-alternates:normal;font-feature-settings:normal;text-indent:0;text-align:start;text-decoration:none;text-decoration-line:none;text-decoration-style:solid;text-decoration-color:#000000;letter-spacing:normal;word-spacing:normal;text-transform:none;writing-mode:lr-tb;direction:ltr;text-orientation:mixed;dominant-baseline:auto;baseline-shift:baseline;text-anchor:start;white-space:normal;shape-padding:0;clip-rule:nonzero;display:inline;overflow:visible;visibility:visible;opacity:1;isolation:auto;mix-blend-mode:normal;color-interpolation:sRGB;color-interpolation-filters:linearRGB;solid-color:#000000;solid-opacity:1;vector-effect:none;fill:#004e0a;fill-opacity:1;fill-rule:nonzero;stroke:none;stroke-width:30;stroke-linecap:butt;stroke-linejoin:miter;stroke-miterlimit:4;stroke-dasharray:none;stroke-dashoffset:0;stroke-opacity:1;color-rendering:auto;image-rendering:auto;shape-rendering:auto;text-rendering:auto;enable-background:accumulate"
         inkscape:connector-curvature="0" />
      <path
         id="path4675"
         d="m 605.91043,-24.766447 c -14.0666,179.756357 242.40865,18.4372723 62.3245,9.497652 -224.86909,-11.162805 79.68543,-170.922885 -78.04997,-10.267158 -126.3208,128.659523 173.84455,169.941043 41.63837,47.33704 -165.08441,-153.094277 170.90969,-79.71372 -53.19015,-58.034653 -179.46809,17.361463 23.93665,241.927516 1.46918,63.0269 -28.0549,-223.391224 182.16341,48.79438 -3.44206,-78.647088 C 428.02003,-153.91397 439.48883,148.85966 537.27284,-2.6279805 659.37466,-191.78893 645.45369,151.84307 585.18944,-65.087658 536.92743,-238.81444 351.09391,0.49561419 523.37518,-52.696298 738.50092,-119.11645 506.95445,135.1727 600.22974,-69.742987 674.92832,-233.84765 378.74604,-169.977 544.91226,-99.984095 752.40218,-12.584729 411.57338,33.376857 614.74366,-63.64146 777.45054,-141.3376 509.50648,-282.79215 591.80662,-122.36489 694.57389,77.958865 403.94035,-105.91305 621.93999,-49.638051 796.5228,-4.570785 682.19097,-285.16237 642.11588,-109.36645 592.07456,110.14798 487.62693,-217.52173 618.45147,-34.285109 723.22099,112.45809 815.99852,-175.97862 672.29978,-67.070901 492.86475,68.920962 623.47525,-249.22623 605.91043,-24.766447 Z"
         inkscape:transform-center-y="0.86123877"
         inkscape:transform-center-x="-1.121632"
         style="opacity:1;vector-effect:none;fill:#00136b;fill-opacity:1;fill-rule:nonzero;stroke:none;stroke-width:22.1579895;stroke-linecap:butt;stroke-linejoin:miter;stroke-miterlimit:4;stroke-dasharray:none;stroke-dashoffset:0;stroke-opacity:1" />
    </g>
    <g
       id="g5441">
      <path
         transform="matrix(0.26458334,0,0,0.26458334,0,-658.00001)"
         id="path4661"
         d="M 5054.1895 2519.6289 L 5042.6504 2674.9648 C 5042.3578 2679.7916 5042.0048 2684.5161 5041.5957 2689.1406 L 4973.2246 3609.4492 L 5066.5312 3609.4492 L 5074.3125 3365.7305 C 5090.6304 3229.4027 5097.5487 3048.4784 5100.1211 2885.0391 C 5053.1257 2833.7965 5042.9237 2743.9738 5100.8984 2594.5234 C 5100.6486 2568.2015 5100.3506 2545.2022 5100.0625 2526.5547 C 5093.6668 2525.4868 5087.1911 2524.4397 5080.5742 2523.4238 C 5071.5921 2522.045 5062.8133 2520.7897 5054.1895 2519.6289 z M 5074.3125 3365.7305 C 5375.5575 3479.8977 5281.432 2889.7935 5092.4961 3324.2266 C 5086.1892 3338.728 5080.362 3351.9254 5074.3125 3365.7305 z "
         style="color:#000000;font-style:normal;font-variant:normal;font-weight:normal;font-stretch:normal;font-size:medium;line-height:normal;font-family:sans-serif;font-variant-ligatures:normal;font-variant-position:normal;font-variant-caps:normal;font-variant-numeric:normal;font-variant-alternates:normal;font-feature-settings:normal;text-indent:0;text-align:start;text-decoration:none;text-decoration-line:none;text-decoration-style:solid;text-decoration-color:#000000;letter-spacing:normal;word-spacing:normal;text-transform:none;writing-mode:lr-tb;direction:ltr;text-orientation:mixed;dominant-baseline:auto;baseline-shift:baseline;text-anchor:start;white-space:normal;shape-padding:0;clip-rule:nonzero;display:inline;overflow:visible;visibility:visible;opacity:1;isolation:auto;mix-blend-mode:normal;color-interpolation:sRGB;color-interpolation-filters:linearRGB;solid-color:#000000;solid-opacity:1;vector-effect:none;fill:#004e0a;fill-opacity:1;fill-rule:nonzero;stroke:none;stroke-width:113.38582611;stroke-linecap:butt;stroke-linejoin:miter;stroke-miterlimit:4;stroke-dasharray:none;stroke-dashoffset:0;stroke-opacity:1;color-rendering:auto;image-rendering:auto;shape-rendering:auto;text-rendering:auto;enable-background:accumulate" />
      <path
         inkscape:connector-curvature="0"
         id="path5397"
         d="m 1394.2136,-129.69094 c -6.2175,-6.12094 -13.7282,-11.78206 -21.8538,-16.96247 -52.5612,10.88262 -96.7954,39.66335 -22.0733,118.817621 73.52,-41.019173 70.5602,-75.635731 43.9271,-101.855151 z m -43.9271,101.855151 c -3.3999,1.896835 -6.9606,3.806811 -10.6928,5.73091 -3.9084,2.014782 -7.6941,3.888028 -11.3634,5.626426 0.7534,3.819653 1.4703,7.7957907 2.147,11.9399379 0.7084,4.33952699 1.3195,8.519044 1.8389,12.545858 3.8657,0.463819 7.8687,1.011208 12.0192,1.648361 4.346,0.6672061 8.51,1.3773801 12.5002,2.1277091 1.6356,-3.5331271 3.3935,-7.1710251 5.282,-10.92153511 1.9776,-3.92724589 3.9395,-7.66772709 5.8862,-11.23083289 -2.8548,-2.647415 -5.7717,-5.443131 -8.7551,-8.398307 -3.1239,-3.094209 -6.075,-6.116026 -8.8622,-9.068527 z m 17.6174,17.466806 c 76.1409,70.609559 107.0586,33.565182 119.8229,-15.723564 -26.5923,-46.625913 -67.6331,-79.801633 -119.8229,15.723564 z m 119.8229,-15.723564 c -7e-4,6.48e-4 0.011,0.0085 0.011,0.0096 v -0.01354 l -2e-4,-0.0016 c 2e-4,0.0016 3e-4,0.0028 -0.01,0.0056 z m -130.9912,37.875943 c -43.6251,94.234284 1.1604,112.190834 51.9813,109.099134 36.1264,-39.698898 54.9963,-88.982618 -51.9813,-109.099134 z m 51.9813,109.099134 c 2e-4,0.002 -0.01,0.006 -0.01,0.006 l 0.01,-0.006 0.01,-0.005 c 3e-4,0.002 4e-4,0.003 -0.014,-0.003 z M 1332.2162,8.0073269 c -103.1028,-12.3699161 -106.3415,35.7728101 -87.6966,83.1510521 48.9196,22.090511 101.6226,24.807021 87.6966,-83.1510521 z m -87.6966,83.1510521 c -6e-4,6.4e-4 -6e-4,6.4e-4 -0.011,-0.006 l 0.011,0.01 8e-4,-6.5e-4 c 5e-4,-6.2e-4 -3e-4,-0.002 0,-0.0114 z m 83.7107,-107.636832 c -20.0959,-101.879427 -66.8826,-90.082057 -106.1802,-57.709186 -0.01,0.06282 -0.014,0.12511 -0.021,0.187945 l -0.9114,11.051844 c -2.5997,48.825757 15.6939,89.780476 107.1125,46.469217 z m -106.1802,-57.709186 c -2e-4,-0.0018 0.01,-0.0048 0,-0.01504 l -0.01,0.0093 3e-4,0.0027 c -2e-4,-0.0018 -3e-4,-0.0027 0.01,-0.0048 z m 150.3097,-72.465761 c -3e-4,-0.002 -4e-4,-0.003 0.01,-0.006 l -0.012,-0.005 4e-4,0.003 c 5e-4,-4e-4 7e-4,-6.5e-4 0.011,0.006 z"
         style="opacity:1;vector-effect:none;fill:#c30000;fill-opacity:1;fill-rule:nonzero;stroke:none;stroke-width:35.77099991;stroke-linecap:butt;stroke-linejoin:miter;stroke-miterlimit:4;stroke-dasharray:none;stroke-dashoffset:0;stroke-opacity:1" />
    </g>
  </g>
</svg>
