<?xml version="1.0" encoding="UTF-8" standalone="no"?>
<!-- Created with Inkscape (http://www.inkscape.org/) -->

<svg
   xmlns:dc="http://purl.org/dc/elements/1.1/"
   xmlns:cc="http://creativecommons.org/ns#"
   xmlns:rdf="http://www.w3.org/1999/02/22-rdf-syntax-ns#"
   xmlns:svg="http://www.w3.org/2000/svg"
   xmlns="http://www.w3.org/2000/svg"
   xmlns:sodipodi="http://sodipodi.sourceforge.net/DTD/sodipodi-0.dtd"
   xmlns:inkscape="http://www.inkscape.org/namespaces/inkscape"
   width="1750mm"
   height="1160mm"
   viewBox="0 0 1750 1160"
   version="1.1"
   id="svg8"
   inkscape:version="0.92.2 5c3e80d, 2017-08-06"
   sodipodi:docname="right.svg">
  <defs
     id="defs2" />
  <sodipodi:namedview
     id="base"
     pagecolor="#ffffff"
     bordercolor="#666666"
     borderopacity="1.0"
     inkscape:pageopacity="0.0"
     inkscape:pageshadow="2"
     inkscape:zoom="0.088388348"
     inkscape:cx="510.35186"
     inkscape:cy="2706.8239"
     inkscape:document-units="px"
     inkscape:current-layer="layer1"
     showgrid="false"
     showborder="true"
     inkscape:window-width="1920"
     inkscape:window-height="1001"
     inkscape:window-x="0"
     inkscape:window-y="0"
     inkscape:window-maximized="1"
     inkscape:snap-global="true"
     inkscape:snap-bbox="false"
     inkscape:bbox-paths="false"
     inkscape:snap-bbox-edge-midpoints="false"
     inkscape:snap-bbox-midpoints="false"
     inkscape:bbox-nodes="false"
     inkscape:object-paths="true"
     inkscape:snap-intersection-paths="true"
     inkscape:snap-smooth-nodes="false"
     inkscape:snap-object-midpoints="false"
     inkscape:snap-center="false"
     inkscape:snap-others="false"
     inkscape:object-nodes="false"
     inkscape:snap-nodes="true" />
  <metadata
     id="metadata5">
    <rdf:RDF>
      <cc:Work
         rdf:about="">
        <dc:format>image/svg+xml</dc:format>
        <dc:type
           rdf:resource="http://purl.org/dc/dcmitype/StillImage" />
        <dc:title></dc:title>
      </cc:Work>
    </rdf:RDF>
  </metadata>
  <g
     inkscape:label="Layer 1"
     inkscape:groupmode="layer"
     id="layer1"
     transform="translate(0,863)">
    <g
       id="g5364"
       transform="translate(-178.86302)">
      <path
         id="path4807"
         d="m 3307.4414,2691.7422 c -6.7323,43.8735 -17.956,87.0314 -32.2871,125.6074 l -1.7832,9.6504 24.3711,1264.998 5.6308,292.254 h 139.254 l -65.709,-875.461 c 0.8028,2.1676 1.4823,4.0497 2.2773,6.1992 36.2699,37.4155 90.1454,20.6156 137.6113,15.1036 386.3778,-44.868 262.5007,-433.6293 -66.1367,-81.8399 -25.68,21.1903 -49.5168,40.6794 -73.7519,60.5352 l -60.1094,-800.875 c -3.2024,-5.3515 -6.3327,-10.7427 -9.3672,-16.1719 z m -9.6992,1400.2558 c -42.6017,-36.6517 -105.4298,-46.2866 -151.6914,-93.207 -315.6926,-320.1882 -151.1023,438.4515 151.6914,93.207 z"
         style="color:#000000;font-style:normal;font-variant:normal;font-weight:normal;font-stretch:normal;font-size:medium;line-height:normal;font-family:sans-serif;font-variant-ligatures:normal;font-variant-position:normal;font-variant-caps:normal;font-variant-numeric:normal;font-variant-alternates:normal;font-feature-settings:normal;text-indent:0;text-align:start;text-decoration:none;text-decoration-line:none;text-decoration-style:solid;text-decoration-color:#000000;letter-spacing:normal;word-spacing:normal;text-transform:none;writing-mode:lr-tb;direction:ltr;text-orientation:mixed;dominant-baseline:auto;baseline-shift:baseline;text-anchor:start;white-space:normal;shape-padding:0;clip-rule:nonzero;display:inline;overflow:visible;visibility:visible;opacity:1;isolation:auto;mix-blend-mode:normal;color-interpolation:sRGB;color-interpolation-filters:linearRGB;solid-color:#000000;solid-opacity:1;vector-effect:none;fill:#004e00;fill-opacity:1;fill-rule:nonzero;stroke:none;stroke-width:113.38582611;stroke-linecap:butt;stroke-linejoin:miter;stroke-miterlimit:4;stroke-dasharray:none;stroke-dashoffset:0;stroke-opacity:1;color-rendering:auto;image-rendering:auto;shape-rendering:auto;text-rendering:auto;enable-background:accumulate"
         transform="matrix(0.26458333,0,0,0.26458333,0,-863)"
         inkscape:connector-curvature="0" />
      <path
         inkscape:connector-curvature="0"
         id="path4723"
         d="m 975.07536,-319.8375 c -11.06408,-7.07783 -27.90269,-13.24168 -43.87126,-23.80116 -34.06935,-22.52892 -51.27932,-56.53204 -73.80664,-22.46508 -9.05152,13.68815 -16.34069,34.40811 -19.61638,55.75953 -11.73313,-20.99296 -28.42761,-40.02701 -43.71322,-50.13487 -34.06812,-22.5281 -36.5905,15.49802 -59.1186,49.56615 -22.52811,34.06813 -56.53093,51.27722 -22.46281,73.80532 15.28561,10.10786 39.33677,18.01805 63.24662,20.5955 -18.364,11.37319 -34.57532,26.19182 -43.62722,39.88056 -22.52772,34.06753 15.49996,36.58906 49.56931,59.11797 34.06631,22.526905 51.27449,56.531011 73.80221,22.46348 9.05152,-13.68815 16.34009,-34.40849 19.61637,-55.75953 11.73376,20.99338 28.42953,40.02826 43.71513,50.13612 34.06627,22.526906 36.58756,-15.49994 59.11573,-49.568 22.5284,-34.06875 56.5319,-51.27655 22.4656,-73.80346 -15.28549,-10.10786 -39.33826,-18.01769 -63.24811,-20.59514 18.36258,-11.37497 34.57537,-26.19403 43.62689,-39.88218 11.96782,-18.09839 6.84571,-27.29376 -5.69362,-35.31521 z m -91.26998,47.87965 c 22.81793,15.08873 29.10594,45.92874 14.01678,68.7473 -15.08974,22.8181 -45.92901,29.1071 -68.74694,14.01838 -22.82096,-15.09074 -29.11022,-45.93067 -14.02068,-68.74983 15.08915,-22.81856 45.93046,-29.10619 68.75084,-14.01585 z m -5.55735,8.4041 c -18.1864,-12.02606 -42.76492,-7.0149 -54.78939,11.16909 -12.02445,18.18397 -7.01247,42.76232 11.17393,54.78838 18.18336,12.02404 42.76064,7.01298 54.7855,-11.17161 12.02489,-18.18463 7.01333,-42.76182 -11.17004,-54.78586 z"
         style="fill:#d80027;stroke-width:0.71971369" />
    </g>
    <g
       id="g4729"
       transform="matrix(0.32499104,0,0,0.32499104,131.23328,-450.18341)" />
    <g
       id="g4731"
       transform="matrix(0.32499104,0,0,0.32499104,131.23328,-450.18341)" />
    <g
       id="g4733"
       transform="matrix(0.32499104,0,0,0.32499104,131.23328,-450.18341)" />
    <g
       id="g4735"
       transform="matrix(0.32499104,0,0,0.32499104,131.23328,-450.18341)" />
    <g
       id="g4737"
       transform="matrix(0.32499104,0,0,0.32499104,131.23328,-450.18341)" />
    <g
       id="g4739"
       transform="matrix(0.32499104,0,0,0.32499104,131.23328,-450.18341)" />
    <g
       id="g4741"
       transform="matrix(0.32499104,0,0,0.32499104,131.23328,-450.18341)" />
    <g
       id="g4743"
       transform="matrix(0.32499104,0,0,0.32499104,131.23328,-450.18341)" />
    <g
       id="g4745"
       transform="matrix(0.32499104,0,0,0.32499104,131.23328,-450.18341)" />
    <g
       id="g4747"
       transform="matrix(0.32499104,0,0,0.32499104,131.23328,-450.18341)" />
    <g
       id="g4749"
       transform="matrix(0.32499104,0,0,0.32499104,131.23328,-450.18341)" />
    <g
       id="g4751"
       transform="matrix(0.32499104,0,0,0.32499104,131.23328,-450.18341)" />
    <g
       id="g4753"
       transform="matrix(0.32499104,0,0,0.32499104,131.23328,-450.18341)" />
    <g
       id="g4755"
       transform="matrix(0.32499104,0,0,0.32499104,131.23328,-450.18341)" />
    <g
       id="g4757"
       transform="matrix(0.32499104,0,0,0.32499104,131.23328,-450.18341)" />
    <g
       id="g5450"
       transform="translate(-178.86302)">
      <path
         id="path5443"
         transform="matrix(0.26458333,0,0,0.26458333,0,-863)"
         d="m 4758.416,2656.4551 -37.164,100.875 -131.8321,1626.9219 h 113.1641 z m 220.9356,1083.7832 c -45.9054,0.3535 -109.7633,40.1723 -185.4961,150.7773 -17.3647,25.3607 -95.856,46.5711 -72.8262,56.5547 371.0963,160.8765 398.9529,-208.4149 258.3223,-207.332 z"
         style="color:#000000;font-style:normal;font-variant:normal;font-weight:normal;font-stretch:normal;font-size:medium;line-height:normal;font-family:sans-serif;font-variant-ligatures:normal;font-variant-position:normal;font-variant-caps:normal;font-variant-numeric:normal;font-variant-alternates:normal;font-feature-settings:normal;text-indent:0;text-align:start;text-decoration:none;text-decoration-line:none;text-decoration-style:solid;text-decoration-color:#000000;letter-spacing:normal;word-spacing:normal;text-transform:none;writing-mode:lr-tb;direction:ltr;text-orientation:mixed;dominant-baseline:auto;baseline-shift:baseline;text-anchor:start;white-space:normal;shape-padding:0;clip-rule:nonzero;display:inline;overflow:visible;visibility:visible;opacity:1;isolation:auto;mix-blend-mode:normal;color-interpolation:sRGB;color-interpolation-filters:linearRGB;solid-color:#000000;solid-opacity:1;vector-effect:none;fill:#004e00;fill-opacity:1;fill-rule:nonzero;stroke:none;stroke-width:113.38582611;stroke-linecap:butt;stroke-linejoin:miter;stroke-miterlimit:4;stroke-dasharray:none;stroke-dashoffset:0;stroke-opacity:1;color-rendering:auto;image-rendering:auto;shape-rendering:auto;text-rendering:auto;enable-background:accumulate"
         inkscape:connector-curvature="0" />
      <path
         id="path4657"
         d="m 1263.3264,-60.451676 c 5.7536,93.58982 160.2816,0.84863 80.3985,-48.251804 -158.7587,-97.58158 -12.2705,-84.68927 -185.6329,-16.33742 -87.2311,34.392833 48.7227,152.699134 70.7348,61.552934 43.7464,-181.142814 76.7525,-37.840404 -41.8258,-181.595884 -59.6655,-72.33392 -130.1694,93.52463 -36.6821,86.2936 185.7953,-14.37083 59.706,61.302623 159.7829,-95.89502 50.356,-79.09764 -129.1717,-94.89774 -93.4055,-8.22056 71.0815,172.261163 -39.8519,75.72751 140.5774,122.32952 90.7871,23.44888 50.3369,-152.17467 -21.0458,-91.37419 -141.8647,120.83409 -84.3361,-14.50044 -72.9015,171.498824 z"
         inkscape:transform-center-y="-4.7585325"
         inkscape:transform-center-x="2.0813281"
         style="opacity:1;vector-effect:none;fill:#de3800;fill-opacity:1;fill-rule:nonzero;stroke:none;stroke-width:0.16280954;stroke-linecap:butt;stroke-linejoin:miter;stroke-miterlimit:4;stroke-dasharray:none;stroke-dashoffset:0;stroke-opacity:1"
         inkscape:connector-curvature="0" />
    </g>
  </g>
</svg>
